<?xml version="1.0"?><svg fill="#717171" xmlns="http://www.w3.org/2000/svg"  viewBox="0 0 24 24" width="24px" height="24px">    <path d="M 12 1 L 3 5 L 3 11 C 3 18.83 9.439 22.486 12 23 C 14.561 22.486 21 18.83 21 11 L 21 5 L 12 1 z M 12 3.1894531 L 19 6.3007812 L 19 11 C 19 12.835656 18.566184 14.395755 17.90625 15.707031 C 16.345706 14.530951 13.524154 14 12 14 C 10.475819 14 7.6533017 14.530907 6.09375 15.707031 C 5.4338159 14.395755 5 12.835656 5 11 L 5 6.3007812 L 12 3.1894531 z M 12 5.75 C 10.208 5.75 8.75 7.208 8.75 9 C 8.75 10.792 10.208 12.25 12 12.25 C 13.792 12.25 15.25 10.792 15.25 9 C 15.25 7.208 13.792 5.75 12 5.75 z M 12 7.75 C 12.689 7.75 13.25 8.311 13.25 9 C 13.25 9.689 12.689 10.25 12 10.25 C 11.311 10.25 10.75 9.689 10.75 9 C 10.75 8.311 11.311 7.75 12 7.75 z M 12 16 C 14.446733 16 15.977702 16.719961 16.908203 17.314453 C 15.340222 19.376141 13.256661 20.550006 12 20.9375 C 10.743339 20.550006 8.6597782 19.376141 7.0917969 17.314453 C 8.0222976 16.719961 9.5532669 16 12 16 z"/></svg>