<svg fill="#717171" xmlns="http://www.w3.org/2000/svg"  viewBox="0 0 24 24" width="24px" height="24px"><path d="M 12 3 C 9.8027056 3 8 4.8027056 8 7 C 8 9.1972944 9.8027056 11 12 11 C 14.197294 11 16 9.1972944 16 7 C 16 4.8027056 14.197294 3 12 3 z M 12 5 C 13.116414 5 14 5.8835859 14 7 C 14 8.1164141 13.116414 9 12 9 C 10.883586 9 10 8.1164141 10 7 C 10 5.8835859 10.883586 5 12 5 z M 12 14 C 8.859 14 3 15.545 3 18.5 L 3 21 L 13.171875 21 L 15.171875 19 L 5 19 L 5 18.5 C 5 17.631 8.708 16 12 16 C 13.801 16 15.722656 16.489219 17.097656 17.074219 L 18.597656 15.574219 C 16.616656 14.536219 13.844 14 12 14 z M 22.207031 15 C 22.079156 15 21.951016 15.048984 21.853516 15.146484 L 20.853516 16.146484 L 22.853516 18.146484 L 23.853516 17.146484 C 24.048516 16.951484 24.048516 16.634453 23.853516 16.439453 L 22.560547 15.146484 C 22.462547 15.048984 22.334906 15 22.207031 15 z M 20.146484 16.853516 L 15 22 L 15 24 L 17 24 L 22.146484 18.853516 L 20.146484 16.853516 z"/></svg>