<?xml version="1.0"?><svg fill="#717171" xmlns="http://www.w3.org/2000/svg"  viewBox="0 0 24 24" width="24px" height="24px">    <path d="M 8 5 C 6.343 5 5 6.343 5 8 C 5 9.657 6.343 11 8 11 C 9.657 11 11 9.657 11 8 C 11 6.343 9.657 5 8 5 z M 16 5 C 14.343 5 13 6.343 13 8 C 13 9.657 14.343 11 16 11 C 17.657 11 19 9.657 19 8 C 19 6.343 17.657 5 16 5 z M 8 7 C 8.551 7 9 7.449 9 8 C 9 8.551 8.551 9 8 9 C 7.449 9 7 8.551 7 8 C 7 7.449 7.449 7 8 7 z M 16 7 C 16.551 7 17 7.449 17 8 C 17 8.551 16.551 9 16 9 C 15.449 9 15 8.551 15 8 C 15 7.449 15.449 7 16 7 z M 8 13 C 5 13 1 14.464 1 16.5 L 1 19 L 14.078125 19 L 15 19 L 23 19 L 23 16.5 C 23 14.464 19 13 16 13 C 14.715935 13 13.261676 13.282936 12.003906 13.75 C 10.743781 13.281749 9.2867106 13 8 13 z M 8 15 C 10.36 15 12.62 16.025609 13 16.599609 L 13 17 L 3 17 L 3 16.599609 C 3.38 16.025609 5.64 15 8 15 z M 16 15 C 18.36 15 20.62 16.025609 21 16.599609 L 21 17 L 15 17 L 15 16.5 C 15 16.018241 14.770344 15.569952 14.388672 15.164062 C 14.908294 15.069313 15.444772 15 16 15 z"/></svg>