<?xml version="1.0" encoding="utf-8"?>
<!-- Generator: Adobe Illustrator 24.2.0, SVG Export Plug-In . SVG Version: 6.00 Build 0)  -->
<svg version="1.1" id="Layer_1" xmlns="http://www.w3.org/2000/svg" xmlns:xlink="http://www.w3.org/1999/xlink" x="0px" y="0px"
	 viewBox="0 0 165 110" style="enable-background:new 0 0 165 110;" xml:space="preserve">
<style type="text/css">
	.st0{opacity:0.5;fill:#FFFFFF;}
</style>
<path class="st0" d="M147.7,65.6C147.7,65.6,147.8,65.6,147.7,65.6c0,0.2-0.3,2.9-0.9,8.3h6.6v0c-0.3,3-0.5,4.6-0.6,4.6h-11.2
	c-0.1,0-0.1,0-0.1-0.1c0.8-7.6,1.2-11.5,1.3-11.7L147.7,65.6z M148.9,61.8C149,61.8,149,61.8,148.9,61.8c-0.1,1.8-0.2,2.7-0.2,2.7
	l-4.8,1.2l0-0.1c0.2-2.4,0.4-3.7,0.5-3.8H148.9z M135.9,65.6C135.9,65.6,135.9,65.6,135.9,65.6c0,0.2-0.3,2.9-0.9,8.3h6.6v0
	c-0.3,3-0.5,4.6-0.6,4.6h-11.2c-0.1,0-0.1,0-0.1-0.1c0.8-7.6,1.2-11.5,1.3-11.7L135.9,65.6z M137,61.8
	C137.1,61.8,137.1,61.8,137,61.8c-0.1,1.8-0.2,2.7-0.2,2.7l-4.8,1.2l0-0.1c0.2-2.4,0.4-3.7,0.5-3.8H137z M129.4,72.4L129.4,72.4
	c-0.4,4-0.6,6.1-0.7,6.2H124v0c0.3-3.3,0.5-5,0.6-5L129.4,72.4z M125,62.1h4.6c0.1,0,0.1,0,0.1,0.1c-0.7,6.3-1,9.6-1.1,9.6
	c0,0-1.7,0.4-4.9,1.2c0,0,0,0,0,0C124.4,66.1,124.8,62.5,125,62.1L125,62.1z M123,67.5L123,67.5c-0.5,5-0.9,8.6-1.2,11l-0.1,0h-4.6
	c-0.1,0-0.1,0-0.1-0.1c0-0.6,0.3-2.7,0.7-6.4h-4.1c-0.4,4.3-0.7,6.5-0.7,6.5h-4.6c-0.1,0-0.1,0-0.1-0.1c0.4-3.6,0.7-6.2,0.8-7.6
	C110.6,70.4,115.2,69.3,123,67.5z M114.7,61.8C114.8,61.8,114.8,61.8,114.7,61.8c-0.2,3.1-0.4,4.9-0.5,5.6h4.1v0
	c0.3-2.5,0.5-4.4,0.6-5.5l0.1,0h4.6c0.1,0,0.1,0,0.1,0.1c-0.3,3-0.5,4.5-0.6,4.5l-13.9,3.5l0-0.1c0.6-5.3,0.9-7.9,0.9-8H114.7z
	 M106.8,67.6L106.8,67.6c0,0.1-0.4,3.8-1.2,10.9l-0.1,0h-4.2c-0.1-0.1-0.9-1.6-2.1-4.5c-0.1,0-0.6-1.2-1.7-3.5c-0.1,0-0.2,1-0.4,3
	c-0.3,3-0.5,4.6-0.6,5H92c-0.1,0-0.1,0-0.1-0.1c0.5-4.8,0.8-7.3,0.8-7.5c5.7-1.4,8.6-2.1,8.6-2.1c0.2,0.3,0.4,0.7,0.5,1.1h0
	c0-0.9,0.1-1.3,0.3-1.3C105.1,67.9,106.6,67.6,106.8,67.6z M108.1,61.8C108.2,61.8,108.2,61.8,108.1,61.8c-0.2,3.2-0.4,4.8-0.5,4.8
	c-0.1,0-1.6,0.4-4.6,1.1c0,0,0,0,0,0c0.4-3.8,0.6-5.7,0.7-5.8H108.1z M98.9,61.8c0.1,0,0.6,1,1.5,3l1.4,3.2
	c-0.1,0.1-2.8,0.7-8.1,2.1l0-0.1c0.6-5.4,0.9-8.1,0.9-8.1H98.9z M84.2,61.8c0.1,0,0.2,0.6,0.3,1.9c0,0,0.3,1.9,0.7,5.8h0.1
	c1.1-4.3,1.8-6.9,2.1-7.7h4.4c0.1,0,0.1,0,0.1,0.1c-3.3,11-4.9,16.6-5,16.6h-4.5c-0.1,0-0.3-1.4-0.6-4.3l-0.7-4.8h0
	C81,70,80,73,78,78.5l-0.1,0h-4.4c-0.2,0-0.2-0.6-0.2-1.7c-0.1-0.5-0.4-4.9-1.1-13.2c0.1-0.1,1.6-0.4,4.4-1.1
	c0.1,0.1,0.1,0.1,0.1,0.2c0,0.3,0.1,2.6,0.3,6.9h0c1.7-5.1,2.6-7.7,2.7-7.8H84.2z M72.2,61.8h2.2v0.1c-0.1,0-0.8,0.2-2.2,0.5
	c-0.1-0.1-0.1-0.2-0.1-0.4L72.2,61.8C72.1,61.8,72.2,61.8,72.2,61.8z M71.8,71.4C71.8,71.4,71.8,71.4,71.8,71.4
	c-0.5,2.5-1.3,4.2-2.4,5.1c-1.2,1.3-2.9,2-5.1,2h-1c-1.5,0-2.8-0.4-4.1-1.2c-0.9-1-1.5-1.9-1.6-2.6c3.1-0.8,4.8-1.2,4.9-1.2
	c0.4,0.5,0.9,0.8,1.6,0.8h0.2c1.1,0,1.9-0.6,2.4-1.8L71.8,71.4z M65.2,61.8h1c2.7,0,4.4,1.1,5.3,3.4c0.4,0.9,0.6,2,0.6,3.4v0
	c0,1.3-0.1,2-0.3,2L67,71.8l0-0.1c0.2-1.1,0.3-2,0.3-2.8v-0.1c0-1.4-0.5-2.3-1.5-2.7C65.6,66,65.4,66,65.2,66H65
	c-1.6,0-2.5,1.3-2.9,3.9c-0.1,0.6-0.1,1-0.1,1.4v0.2c0,0.4,0,0.8,0.1,1.4c-0.1,0.1-1.6,0.5-4.7,1.2c-0.2-0.5-0.3-1.3-0.3-2.1v-0.4
	c0-3.1,0.9-5.7,2.7-7.8c1.3-1.2,2.3-1.7,3-1.7C63.6,61.9,64.4,61.8,65.2,61.8z M57.2,68.4L57.2,68.4l0,0.2c0,1.8-0.3,3.6-1,5.5
	c-1.3,3-3.6,4.4-6.9,4.4h-6.2c-0.1,0-0.1,0-0.1-0.1c0.5-4.6,0.7-6.9,0.8-6.9l4.8-1.2c0,0,0,0,0,0l-0.4,3.8h0.4
	c1.5,0,2.4-0.3,2.7-0.8c0.4-0.4,0.7-1.4,0.9-3.3c0-0.5,0.1-0.7,0.3-0.7C55.4,68.8,56.9,68.5,57.2,68.4z M45,61.8h6.1
	c2.5,0,4.2,0.7,5,2.1c0.7,1.2,1.1,2.4,1.1,3.5c0,0.1-1.6,0.5-4.7,1.2c-0.1-0.1-0.1-0.4-0.2-1.1c-0.3-0.8-0.8-1.3-1.5-1.3
	c0-0.1-0.3-0.1-0.8-0.1h-0.8c-0.2,2.3-0.4,3.4-0.4,3.4L44,70.7l0-0.1C44.6,64.9,44.9,62,45,61.8L45,61.8z M32.4,49.9
	c-0.1-0.8,0-1.4,0.5-1.9c1.5-1.3,3.4,0.9,2.6,2.1c1.3,1.2,2.4,2.2,3.4,3.7c-1.3-1.5-2.7-3-4.1-2.5c0.2-0.6,0.5-1.6-0.2-2
	c-0.9-0.5-2.4,0.8-1.4-0.9C32.7,48.9,32.5,49.1,32.4,49.9 M17.9,51.7c-0.2,0.3-0.4,0.4-0.5,0.6c0.4,0.7,0.7,1.1,1.2,1.7
	c0.3,0.4,0.6,0.6,1.1,0.7c1.7,0,3.1-0.3,4.7-0.8c-1.8,0.2-3.3,0.3-4.7,0.2c-0.3,0-0.5-0.2-0.6-0.5C18.4,52.6,18.3,52.7,17.9,51.7z
	 M16.4,40.5c-0.3,0.8-0.5,1.3-0.6,1.9c0,0.7,0.1,0.9-0.2,1.6c-0.2,0.4-0.2,0.7-0.2,1.3c-0.1,0.3-0.3,0.7-0.3,0.9
	c-0.3,0.8-0.1,2,0,2.8c0.1-1.5,0.3-2.5,0.8-4c0.2-0.7,0.2-1.1,0.9-1.1c0.4,0,0.8,0,1.2,0c-0.3-0.1-0.7-0.3-1-0.4
	c-0.4-0.2-0.5-0.2-0.6-0.7C16.1,42.3,16.1,41.5,16.4,40.5z M20,37.5c-0.9,0.9-0.7,2.1-0.2,3.2c-0.3-1.4-0.2-2.1,0.8-3.1
	c-0.4,0.6-0.5,1-0.4,1.6c0.2-0.9,0.7-1.4,1.3-1.6c0.5,0,1.1,0,1.6,0c-0.5,0.5-0.9,0.7-1.1,1.3c1.4-1.7,3.3-1,5.6-0.6
	c-1.3-0.3-2.6-0.8-3.9-1c-0.3-0.1-0.5-0.1-0.8,0c0-0.1,0.1-0.1,0.1-0.2C21.8,36.8,20.9,36.6,20,37.5z M20,34.6
	c1.6-0.2,3.8,0.9,5.2,1.7c-1.1-0.9-2.6-1.9-4.3-2.2c-0.4-0.1-0.5-0.2-0.5-0.6c0-0.4,0.1-0.9,0.1-1.2C20.1,33,20,33.8,20,34.6z
	 M37.9,51.5c0.7-1.8,1.3-3.2,2-5c0.2,3.4,0.2,5.7,0.4,9.1C39.5,53.7,39.1,53.1,37.9,51.5z M57.8,51.4c0.8-0.5,1.8-0.2,2.3,0.6
	s0.2,1.8-0.6,2.3c-0.8,0.5-1.8,0.2-2.3-0.6c0,0,0,0,0-0.1l-5-3c-0.6,1.8-0.4,3.9,0.6,5.7c1.5,2.7,4.6,4,7.5,3.5
	c-3,0.7-6.3-0.6-8-3.4c-1.1-1.9-1.2-4.1-0.5-6l-0.6-0.3c-0.8,2.1-0.7,4.6,0.6,6.7c2.2,3.8,7,5.1,10.8,2.9c3.8-2.2,5.1-7,2.9-10.8
	c-2.2-3.8-7-5.1-10.8-2.9c-1,0.6-1.8,1.3-2.4,2.2l0.6,0.3c0.6-0.8,1.3-1.4,2.2-1.9c0.8-0.4,1.6-0.7,2.4-0.9
	c-0.7,0.2-1.3,0.4-1.9,0.8c-1,0.6-1.8,1.3-2.4,2.2L57.8,51.4L57.8,51.4z M42.1,61.2c0,0,0.1,0.1,0.1,0.1l1.5-2.7l-1.6,1.1L42.1,61.2
	z M33.8,41c-1.8-0.3-3.6,0-5.4,0.2c1.1,0.1,2.1,0.1,3.2,0.2C32,41.4,33.4,41.2,33.8,41z M31.9,59.4c0.2,0.5,0.1,1,0.3,1.5
	c-0.6,0-1.1,0-1.6-0.1c0-0.2-0.1-0.4-0.1-0.6C30.9,59.9,31.6,59.6,31.9,59.4z M38.3,59.9c-0.5-0.9-1-1.9-1.6-2.8
	c-0.2,0.4-0.4,0.8-0.6,1.1C36.9,58.8,37.6,59.3,38.3,59.9z M36.2,62.5c1,0.7,1.9,1.6,2.6,2.6l1.5-1.7c-1.6-1.3-2.8-2.2-4.5-3.5
	c0.1,0.8,0.1,1.6,0.2,2.5L36.2,62.5z M32.4,70.5c0,0.5-0.3,0.9-0.7,1.2c-0.7,0.4-1.6,0.2-2-0.5c-0.3-0.5-0.2-1.1,0.1-1.6
	c-0.2-2-0.4-4-0.6-6c-0.4,0.1-0.9,0.3-1.3,0.6c-3.4,1.9-4.6,6.3-2.6,9.7c1.5,2.6,4.5,3.9,7.3,3.5c-3,0.7-6.2-0.6-7.8-3.4
	c-1.9-3.4-0.8-7.7,2.6-9.7c0.6-0.3,1.2-0.6,1.8-0.7l0-0.4c-0.7,0.2-1.3,0.4-1.9,0.8c-3.6,2.1-4.8,6.6-2.8,10.2
	c2.1,3.6,6.6,4.8,10.2,2.8c3.4-1.9,4.7-6.1,3.1-9.5L32.4,70.5z M31.2,69c0.2,0,0.5,0.1,0.7,0.3l5.1-3.3c-1.5-2-3.9-3.1-6.3-3
	C30.7,64.9,31,67,31.2,69z M36.9,41.7c-1.6,1-2.7,1.2-4.5,1.7c-1.4,0.1-2.6,0.6-4.1,0.8c-1.3,0-2.5-0.1-3.9,0.1
	c-1.2,1.7-0.5,2.7-0.8,3.9c0.4,0.1,0.7,0.2,1.1,0.3c0.3-0.1,0.6-0.2,0.9-0.3c1.1-0.7,2.2-0.3,3.6-0.3c1.6-0.8,1.8-0.8,3.5-0.4
	c1.6-1.1,3.8,0.8,3.3,2.5c0.2,0.1,0.3,0.3,0.5,0.5c1-2.5,1.9-5,2.9-7.6c-0.2-0.1-0.3-0.2-0.5-0.2c-0.6,0.1-0.9-0.1-1.4-0.5
	C37.3,41.9,37.1,41.9,36.9,41.7z M43.9,80l-32.3-0.2l13.3-2.1c-0.9-0.7-1.6-1.6-2.2-2.6c-2.6-4.5-1-10.3,3.5-13
	c0.9-0.5,1.8-0.9,2.7-1.1l0-0.1c0-1.4,1.3-2.6,2.4-3.3c-0.1-0.1-0.2-0.3-0.4-0.4c-2.3-0.2-5.1,0.3-7.4,0.1c-1.9-0.2-3.2-0.6-4.4-2.2
	c-0.2-0.1-0.4-0.1-0.5-0.2c-0.6-0.7-1.1-1.4-1.6-2.2c-0.2-0.3-0.3,0.4-0.9,0.4c-1.1-2.3-1.6-4.1-1.7-5.6c-0.1-1.3,0.7-2.2,0.7-3.3
	c0-0.6,0.4-1,0.3-1.7c-0.1-1,0.4-1.7,0.9-2.6c0.4-0.6,0.3-1.3,0.8-1.8c0.8-0.7,1.6-1.3,2.5-2c0.2-0.2,0.3-0.4,0.5-0.7
	c-0.2-0.3-0.2-0.4-0.5-0.7c-0.1-0.1,0-0.5-0.1-0.6c0-0.5,0.2-1.6,0.6-2.4c1.1-1.9,4-2.2,5.9-1.3c0.8-0.2,1.7-0.2,2.4-0.5
	c0.4-0.1,0.6,0,0.7,0.1c0.2,0.6,0.4,1.1,0.4,1.7c0,0.3-0.1,0.6-0.4,0.8c-0.5,0.2-1,0.5-1.6,0.7l-1.6-0.9c-0.2-0.1-0.7,0-0.8,0.2
	c-0.2,0.2-0.3,0.5-0.5,0.7c0.2,0.4,0.5,0.9,0.7,1.3c0.1,0.1,0.2,0.2,0.4,0.2c0.3,0,0.6,0.1,0.8,0.1l0.3-0.3
	c-0.1,0.2-0.1,0.3-0.2,0.5c0.4,0.1,0.9,0.2,1.3,0.3c0.3,0.1,0.4,0.3,0.4,0.5c-0.2,0.6-0.4,1.2-0.6,1.8c1.9,0.1,3.9,0.8,5.8,1.2
	c1.9-1.2,2.8-1,3.6-0.2C37.3,39,38.2,39,38.2,39c0.4,0.1,0.9,0.2,1.3,0.3c0.7,0,1.6,1.1,0.8,2.1c1.2,0.8,2.4,1.6,3.6,2.4
	c0.4,0,0.8,0,1.2,0l5.3,3.2c0.8-1.2,1.9-2.2,3.2-2.9c4.8-2.8,11-1.1,13.7,3.7c2.8,4.8,1.1,11-3.7,13.7c-4.8,2.8-11,1.1-13.7-3.7
	c-1.6-2.8-1.7-6.1-0.6-8.9l-7-4.1c-0.1,0.7-0.3,1.4-0.4,2l0.1,8.9c0.5,0,0.7-0.1,1.2,0.2c0.8-0.1,1.4-0.2,2.1-0.5
	c0.7-0.3,1.9-0.6,2.1,0.6c-0.7,0.4-1.3,0.9-1.9,1.4L42.9,62c0.6,1.1,0.2,2.6-0.9,3.2c-0.4,0.2-0.8,0.3-1.2,0.3l-1.4,0.8
	c1.3,2.8,1.2,6-0.3,8.6l0.9,3.6L43.9,80z"/>
</svg>
