<svg xmlns="http://www.w3.org/2000/svg" viewBox="0 0 128 128" width="64px" height="64px"><circle cx="62.1" cy="64.3" r="36.7" fill="#fff"/><path fill="#444b54" d="M63,119C63,119,63,119,63,119C31.6,119,6,93.4,6,62c0,0,0,0,0,0c0,0,0,0,0,0c0,0,0,0,0,0c0,0,0,0,0,0 C6,32.8,29.8,9,59,9c26.5,0,48,21.5,48,48v2c0,24.8-20.2,45-45,45c-22.6,0-41-18.4-41-41v-0.5c0-20.4,16.6-37,37-37 c1.7,0,3,1.3,3,3s-1.3,3-3,3c-17.1,0-31,13.9-31,31V63c0,19.3,15.7,35,35,35c21.5,0,39-17.5,39-39v-2c0-23.2-18.8-42-42-42 c-25.9,0-47,21.1-47,47c0,28.1,22.9,51,51,51c0,0,0,0,0,0c14.2,0,27.5-5.5,37.5-15.5c10-10,15.5-23.3,15.5-37.5c0-1.7,1.3-3,3-3 s3,1.3,3,3c0,15.8-6.1,30.6-17.3,41.7C93.6,112.9,78.8,119,63,119z"/><path fill="#71c2ff" d="M79,68H61c-1.7,0-3-1.3-3-3V47c0-1.7,1.3-3,3-3s3,1.3,3,3v15h15c1.7,0,3,1.3,3,3S80.7,68,79,68z"/></svg>