<svg fill="#ffffff" xmlns="http://www.w3.org/2000/svg" viewBox="0 0 32 32" width="64px" height="64px"><path d="M 15 5 C 11.783056 5 8.6225067 6.0281236 6.1992188 7.6308594 C 3.7759308 9.2335951 2 11.4641 2 14 C 2 15.349521 2.6346178 16.575494 3.5449219 17.478516 C 4.4552259 18.381537 5.6746667 19 7 19 C 7.3582242 19 7.698748 18.952528 8.0273438 18.878906 L 11.929688 24.732422 L 11.929688 27.5 L 13.929688 27.5 L 13.929688 24.732422 L 18.138672 18.416016 C 19.130237 18.73118 20.103462 19 21 19 C 22.325333 19 24.283056 18.477232 26.140625 17.6875 C 27.069409 17.292634 27.946009 16.831793 28.652344 16.271484 C 29.358678 15.711175 30 15.000281 30 14 C 30 12.65065 29.350613 11.416286 28.400391 10.355469 C 27.450168 9.294651 26.177237 8.368997 24.726562 7.5839844 C 21.825214 6.0139592 18.216944 5 15 5 z M 15 7 C 17.783056 7 21.174786 7.9375252 23.773438 9.34375 C 25.072762 10.046862 26.174832 10.866364 26.912109 11.689453 C 27.207007 12.018674 27.42222 12.339557 27.595703 12.654297 C 24.807926 12.052901 18.86165 10.944602 12.990234 11 C 9.9699863 11.028612 6.9668137 11.450626 4.4335938 12.330078 C 4.9586403 11.263357 5.9431146 10.196774 7.3007812 9.2988281 C 9.3774933 7.9253139 12.216944 7 15 7 z M 13.009766 13 C 18.865547 12.944754 24.900692 14.109129 27.451172 14.667969 C 27.435351 14.681017 27.426865 14.691824 27.410156 14.705078 C 26.928991 15.086769 26.180591 15.498522 25.359375 15.847656 C 23.716944 16.545924 21.674667 17 21 17 C 20.333333 17 18.816406 16.550781 17.316406 16.050781 C 15.816406 15.550781 14.333333 15 13 15 C 11.666667 15 10.552734 15.605469 9.5527344 16.105469 C 8.5527344 16.605469 7.6666667 17 7 17 C 6.3253333 17 5.5447741 16.643572 4.9550781 16.058594 C 4.5330444 15.639936 4.2323329 15.12307 4.0917969 14.607422 C 6.4681314 13.590084 9.7285232 13.031081 13.009766 13 z M 13 17 C 13.584794 17 14.846338 17.364727 16.154297 17.787109 L 12.929688 22.626953 L 9.9414062 18.144531 C 10.111417 18.060269 10.283804 17.976262 10.447266 17.894531 C 11.447266 17.394531 12.333333 17 13 17 z"/></svg>