<svg fill="#ffffff" xmlns="http://www.w3.org/2000/svg" viewBox="0 0 32 32" width="64px" height="64px"><path d="M 5 5 L 5 19.560547 C 3.8124718 20.256848 3 21.533354 3 23 C 3 25.197334 4.8026661 27 7 27 L 19 27 C 21.197334 27 23 25.197334 23 23 C 23 22.269312 22.786352 21.59163 22.439453 21 L 25 21 L 25 23 C 25 25.197334 26.802666 27 29 27 L 29 25 C 27.883334 25 27 24.116666 27 23 L 27 15 L 25 15 L 25 19 L 21.476562 19 L 23 15.185547 L 23 13 L 19 13 L 19 10 C 19 9.4349698 19.43497 9 20 9 L 20 7 C 18.35503 7 17 8.3550302 17 10 L 17 13 L 15.693359 13 L 12.693359 5 L 5 5 z M 7 7 L 11.306641 7 L 13.556641 13 L 7 13 L 7 7 z M 7 15 L 20.919922 15 L 19.310547 19.03125 C 19.20631 19.022981 19.106241 19 19 19 L 7 19 L 7 15 z M 7 21 L 18.523438 21 L 19 21 C 20.116666 21 21 21.883334 21 23 C 21 24.116666 20.116666 25 19 25 L 7 25 C 5.8833339 25 5 24.116666 5 23 C 5 21.883334 5.8833339 21 7 21 z M 7 22 A 1 1 0 0 0 7 24 A 1 1 0 0 0 7 22 z M 11 22 A 1 1 0 0 0 11 24 A 1 1 0 0 0 11 22 z M 15 22 A 1 1 0 0 0 15 24 A 1 1 0 0 0 15 22 z M 19 22 A 1 1 0 0 0 19 24 A 1 1 0 0 0 19 22 z"/></svg>