<svg fill="#2196f3" xmlns="http://www.w3.org/2000/svg" viewBox="0 0 32 32" width="64px" height="64px"><path d="M 16 4 C 9.382813 4 4 9.382813 4 16 C 4 22.617188 9.382813 28 16 28 C 22.617188 28 28 22.617188 28 16 C 28 14.039063 27.523438 12.199219 26.6875 10.5625 L 25.1875 12.0625 C 25.582031 12.980469 25.832031 13.964844 25.9375 15 L 24 15 L 24 17 L 25.9375 17 C 25.472656 21.726563 21.726563 25.472656 17 25.9375 L 17 24 L 15 24 L 15 25.9375 C 10.273438 25.472656 6.527344 21.726563 6.0625 17 L 8 17 L 8 15 L 6.0625 15 C 6.527344 10.273438 10.273438 6.527344 15 6.0625 L 15 8 L 17 8 L 17 6.0625 C 18.546875 6.21875 19.992188 6.71875 21.25 7.5 L 22.71875 6.0625 C 20.804688 4.765625 18.480469 4 16 4 Z M 26.28125 5.28125 L 16 15.5625 L 12.71875 12.28125 L 11.28125 13.71875 L 15.28125 17.71875 L 16 18.40625 L 16.71875 17.71875 L 27.71875 6.71875 Z"/></svg>