<?xml version="1.0" encoding="utf-8"?>
<!-- Generator: Adobe Illustrator 24.2.1, SVG Export Plug-In . SVG Version: 6.00 Build 0)  -->
<svg version="1.1" id="_x3C_Layer_x3E_" xmlns="http://www.w3.org/2000/svg" xmlns:xlink="http://www.w3.org/1999/xlink" x="0px"
	 y="0px" viewBox="0 0 300 234.1" style="enable-background:new 0 0 300 234.1;" xml:space="preserve">
<style type="text/css">
	.st0{fill-rule:evenodd;clip-rule:evenodd;fill:#FFFFFF;}
	.st1{fill-rule:evenodd;clip-rule:evenodd;fill:url(#SVGID_1_);}
	.st2{fill-rule:evenodd;clip-rule:evenodd;fill:url(#SVGID_2_);}
	.st3{fill-rule:evenodd;clip-rule:evenodd;fill:url(#SVGID_3_);}
	.st4{fill-rule:evenodd;clip-rule:evenodd;fill:url(#SVGID_4_);}
	.st5{fill-rule:evenodd;clip-rule:evenodd;fill:url(#SVGID_5_);}
	.st6{fill-rule:evenodd;clip-rule:evenodd;fill:url(#SVGID_6_);}
	.st7{fill-rule:evenodd;clip-rule:evenodd;fill:#7B93F6;}
	.st8{fill-rule:evenodd;clip-rule:evenodd;fill:#BAC8FF;}
	.st9{fill-rule:evenodd;clip-rule:evenodd;fill:#DBE4FF;}
	.st10{fill:#DBE4FF;}
	.st11{fill-rule:evenodd;clip-rule:evenodd;fill:#FFA8A8;}
	.st12{fill-rule:evenodd;clip-rule:evenodd;fill:#FF8787;}
	.st13{fill-rule:evenodd;clip-rule:evenodd;fill:#212529;}
	.st14{fill-rule:evenodd;clip-rule:evenodd;fill:#FFD43B;}
	.st15{fill-rule:evenodd;clip-rule:evenodd;fill:#FAB005;}
	.st16{fill-rule:evenodd;clip-rule:evenodd;fill:#E64980;}
	.st17{fill-rule:evenodd;clip-rule:evenodd;fill:#D6336C;}
	.st18{fill-rule:evenodd;clip-rule:evenodd;fill:#4C6EF4;}
	.st19{fill-rule:evenodd;clip-rule:evenodd;fill:#2F5DDD;}
	.st20{fill-rule:evenodd;clip-rule:evenodd;fill:#4B6EF3;}
</style>
<rect class="st0" width="300" height="234.1"/>
<linearGradient id="SVGID_1_" gradientUnits="userSpaceOnUse" x1="234.718" y1="68.517" x2="234.7182" y2="81.6736">
	<stop  offset="0" style="stop-color:#FCE5EF"/>
	<stop  offset="1" style="stop-color:#FFFFFF"/>
</linearGradient>
<path class="st1" d="M257.9,78.2h-46.3c0,0,3.5-0.2,5.8-1.7c2.3-1.6,3.4-3.7,5.7-3.5c2.2,0.2,1.1,2.4,1.1,2.4s3.8-3.7,11.1-3.6
	c7.3,0.1,4.2,3.8,4.2,3.8s2.7-1.6,5.1-0.6c2.5,1,0,2.4-2.5,2C241.9,77.1,242.4,77.7,257.9,78.2z"/>
<linearGradient id="SVGID_2_" gradientUnits="userSpaceOnUse" x1="150.8761" y1="16.216" x2="150.8764" y2="182.4978">
	<stop  offset="0" style="stop-color:#DBE4FF"/>
	<stop  offset="1" style="stop-color:#FFFFFF"/>
</linearGradient>
<polygon class="st2" points="261.2,108.9 253.6,116.3 247.6,116.3 247.6,142.7 242.7,142.7 242.7,95.7 235.4,95.7 235.4,55.2 
	232.1,55.2 221.7,65.4 217.4,65.4 217.4,128.3 207.6,128.3 207.6,117.9 174.4,117.9 174.4,61.3 169.4,61.3 169.4,58.5 165.1,58.5 
	165.1,43.2 161.9,43.2 161.9,34.3 160.6,34.3 160.6,24.7 159.4,24.7 159.4,34.3 158.2,34.3 158.2,43.2 155.1,43.2 155.1,58.5 
	150.9,58.5 150.9,61.4 146.2,61.4 146.2,139 141.1,139 141.1,148.7 134.2,148.7 134.2,81.9 129.7,81.9 122.9,75.3 119.4,75.3 
	119.4,127.7 107.8,127.7 107.8,114.8 95.7,114.8 95.7,68.5 85.3,68.5 85.3,65.9 80.4,65.9 80.4,59.5 79,59.5 79,65.9 77,65.9 
	77,68.9 77,143.1 65.8,143.1 65.8,106.1 62.4,106.1 55.5,99.3 51.6,99.3 51.6,130.8 47,130.8 47,112.1 43.6,112.1 37.3,118.2 
	37.7,165.1 264.4,165.1 264.4,108.9 "/>
<linearGradient id="SVGID_3_" gradientUnits="userSpaceOnUse" x1="143.2523" y1="102.9895" x2="143.2682" y2="191.0067">
	<stop  offset="0" style="stop-color:#DBE4FF"/>
	<stop  offset="1" style="stop-color:#FFFFFF"/>
</linearGradient>
<path class="st3" d="M143,122.2l0,2.1h-0.4v-2.1H143L143,122.2z M143,119.8l0,2.1h-0.4v-2.1H143L143,119.8z M143.5,119.8h0.4v2.1
	h-0.4L143.5,119.8L143.5,119.8z M143.9,122.2v2.1h-0.4l0-2.1H143.9L143.9,122.2z M147.7,121l-0.2-2.1c0,0,0,0,0,0h-0.1
	c-0.1-0.9-0.8-1.6-1.7-1.6c-1,0-1.8,0.8-1.8,1.8v0.4h-0.4l0-1.7l0.3-0.5c0,0,0-0.1,0-0.1l-0.4-2.8c0-0.1-0.1-0.1-0.1-0.1
	c0,0-0.1,0-0.1,0.1l-0.4,2.8c0,0,0,0.1,0,0.1l0.3,0.5l0,1.7h-0.4V119c0-1-0.8-1.8-1.8-1.8c-0.9,0-1.7,0.7-1.7,1.6H139c0,0,0,0,0,0
	l-0.2,2.1c-0.6,0.2-1,0.8-1,1.4c0,0,0,0,0,0h2.8c0,0,0,0,0,0c0-0.6-0.4-1.2-1-1.4l-0.2-2.1c0,0,0,0,0,0h0c0.1-0.7,0.6-1.2,1.3-1.2
	c0.7,0,1.3,0.6,1.3,1.3v0.4H142c0,0,0,0,0,0v0.3c0,0,0,0,0,0h0.1v2.1H142c0,0,0,0,0,0v0.3c0,0,0,0,0,0h0.1v2.1H142c0,0,0,0,0,0v0.3
	c0,0,0,0,0,0h0.1v1.4c0,0,0,0,0,0h0.4c0,0,0,0,0,0v-1.4h0.4l-0.2,32.3h-0.4c0,0,0,0,0,0l-0.2,0.4c0,0,0,0,0,0s0,0,0,0h0.3l-0.3,3.5
	h-0.3c0,0,0,0,0,0v0.5l-0.3,0.5c0,0,0,0,0,0v0.8c0,0,0,0,0,0h3.5c0,0,0,0,0,0V162c0,0,0,0,0,0l-0.3-0.5V161c0,0,0,0,0,0h-0.3
	l-0.3-3.5h0.3c0,0,0,0,0,0s0,0,0,0l-0.2-0.4c0,0,0,0,0,0h-0.4l-0.2-32.3h0.4v1.4c0,0,0,0,0,0h0.4c0,0,0,0,0,0v-1.4h0.1c0,0,0,0,0,0
	v-0.3c0,0,0,0,0,0h-0.1v-2.1h0.1c0,0,0,0,0,0v-0.3c0,0,0,0,0,0h-0.1v-2.1h0.1c0,0,0,0,0,0v-0.3c0,0,0,0,0,0h-0.1V119
	c0-0.7,0.6-1.3,1.3-1.3c0.7,0,1.2,0.5,1.3,1.2h0c0,0,0,0,0,0l-0.2,2.1c-0.6,0.2-1,0.8-1,1.4c0,0,0,0,0,0h2.8c0,0,0,0,0,0
	C148.7,121.8,148.3,121.2,147.7,121z"/>
<linearGradient id="SVGID_4_" gradientUnits="userSpaceOnUse" x1="51.2452" y1="126.9378" x2="51.252" y2="181.809">
	<stop  offset="0" style="stop-color:#DBE4FF"/>
	<stop  offset="1" style="stop-color:#FFFFFF"/>
</linearGradient>
<path class="st4" d="M56.1,151.7c0-4.1-4.3-17.8-4.9-17.8c-0.6,0-4.9,13.8-4.9,17.8c0,3.9,2,7.1,4.6,7.3l0,5.3h0.7l0-5.3
	C54.1,158.8,56.1,155.6,56.1,151.7z"/>
<linearGradient id="SVGID_5_" gradientUnits="userSpaceOnUse" x1="84.4669" y1="29.2886" x2="84.467" y2="58.1851">
	<stop  offset="0" style="stop-color:#FCE5EF"/>
	<stop  offset="1" style="stop-color:#FFFFFF"/>
</linearGradient>
<path class="st5" d="M31.6,49.8h105.7c0,0-7.9-0.5-13.2-5c-5.3-4.6-7.8-10.9-12.9-10.2c-5.1,0.7-2.5,6.9-2.5,6.9S100.1,30.6,83.5,31
	C66.9,31.4,74,42.1,74,42.1s-6.1-4.6-11.7-1.7c-5.6,2.9,0,6.9,5.8,6C68,46.4,67,48.3,31.6,49.8z"/>
<linearGradient id="SVGID_6_" gradientUnits="userSpaceOnUse" x1="149.9999" y1="138.5802" x2="150" y2="178.1311">
	<stop  offset="0" style="stop-color:#DBE4FF"/>
	<stop  offset="1" style="stop-color:#FFFFFF"/>
</linearGradient>
<path class="st6" d="M270.3,165.5c-7.9-1.6-16.3-2.8-25.1-3.9c1-0.6,1.9-1.3,1.7-1.6c-0.2-0.4-2.6-0.5-3.4,0.1
	c0.7-1.4,1.9-4.7,1.4-5c-0.5-0.3-2.7,2.4-3.3,3.3c0.6-2.9,1.1-6.3,0.4-6.4c-0.7-0.1-2,4.3-2.4,5.5c-0.3-1.4-1.6-2.6-2.1-2.4
	c-0.4,0.2-0.1,2.2,0.1,2.8c-1.4-0.8-5-2.4-5.3-2c-0.3,0.4,2.4,3.1,3.7,3.9c-1.4-0.3-2.3-0.5-2.6-0.1c-0.1,0.1,0.1,0.4,0.5,0.6
	c-20.2-1.9-42-2.6-63.5-2.7c0-0.1,0-0.1,0-0.1c-0.3-0.7-1.9-0.5-4.3-0.2c2.2-1,7.1-5.2,6.7-5.9c-0.4-0.7-6.7,1.4-9.1,2.5
	c0.6-1,1.3-4.3,0.7-4.7c-0.6-0.4-3,1.5-3.8,3.7c-0.4-2.1-1.9-9.5-3.1-9.5c-1.2,0-0.8,5.8-0.4,10.6c-0.9-1.6-4.1-6.5-4.9-6
	c-0.8,0.5,0.6,6.2,1.5,8.6c-1.2-1-5.1-1.3-5.5-0.6c-0.2,0.3,0.4,1.1,1.4,1.9c-28.2,0.5-54.8,2-75.9,3.6c0.2-0.2,0.3-0.4,0.2-0.5
	c-0.2-0.4-2.6-0.5-3.4,0.1c0.7-1.4,1.9-4.7,1.4-5c-0.5-0.3-2.7,2.4-3.3,3.3c0.6-2.9,1.1-6.3,0.4-6.4c-0.7-0.1-2,4.3-2.4,5.5
	c-0.3-1.4-1.6-2.6-2.1-2.4c-0.4,0.2-0.1,2.2,0.1,2.8c-1.4-0.8-5-2.4-5.3-2c-0.3,0.4,2.4,3.1,3.7,3.9c-1.4-0.3-2.3-0.5-2.6-0.1
	c-0.1,0.2,0.9,1,1.8,1.6c-1.1,0.1-2.3,0.2-3.3,0.3c0.3-0.2,0.4-0.4,0.4-0.5c-0.1-0.1-0.9,0-1.1,0.2c0.2-0.5,0.4-1.7,0.3-1.8
	c-0.2-0.1-0.8,0.9-1,1.3c0.1-1,0.1-2.2-0.2-2.2c-0.3,0-0.5,1.6-0.6,2c-0.2-0.5-0.7-0.8-0.8-0.7c-0.1,0.1,0.1,0.8,0.2,1
	c-0.5-0.2-1.8-0.6-1.9-0.5c-0.1,0.1,1,1,1.4,1.2c-0.5,0-0.8-0.1-0.9,0.1c0,0.1,0.2,0.2,0.5,0.4c-16.1,1.4-25.9,2.5-25.9,2.5H270.3z"
	/>
<g>
	<g>
		<path class="st7" d="M115,159.9H77.1c-4.4,0-7-3.6-5.8-7.9l21.4-79.7c1.2-4.4,5.7-7.9,10.1-7.9h37.9c4.4,0,7,3.6,5.8,7.9
			l-21.4,79.7C123.9,156.3,119.4,159.9,115,159.9z"/>
		<path class="st8" d="M112.3,159.9H74.4c-4.4,0-7-3.6-5.8-7.9L90,72.2c1.2-4.4,5.7-7.9,10.1-7.9h37.9c4.4,0,7,3.6,5.8,7.9
			l-21.4,79.7C121.2,156.3,116.7,159.9,112.3,159.9z"/>
		<path class="st9" d="M137.5,66c3.4,0,5.5,2.8,4.6,6.2l-21.4,79.7c-0.9,3.4-4.5,6.2-7.9,6.2H74.9c-3.4,0-5.5-2.8-4.6-6.2l21.4-79.7
			c0.9-3.4,4.5-6.2,7.9-6.2H137.5z"/>
		<path class="st0" d="M99.3,67h7.1c0.6,0,0.9,0.5,0.8,1.1l-0.1,0.5c-0.4,1.4,0.5,2.6,1.9,2.6h16.5c1.4,0,2.9-1.1,3.2-2.6l0.1-0.5
			c0.2-0.6,0.8-1.1,1.3-1.1h7.1c2.9,0,4.6,2.3,3.8,5.2l-21.4,79.7c-0.8,2.9-3.7,5.2-6.6,5.2H75.2c-2.9,0-4.6-2.3-3.8-5.2l21.4-79.7
			C93.5,69.3,96.4,67,99.3,67z"/>
		<path class="st7" d="M111.3,67.8h13.5c0.4,0,0.7,0.3,0.6,0.8c-0.1,0.4-0.5,0.8-1,0.8h-13.5c-0.4,0-0.7-0.3-0.6-0.8
			C110.4,68.2,110.8,67.8,111.3,67.8z"/>
		<path class="st7" d="M111.3,67.8h13.5c0.4,0,0.7,0.3,0.6,0.8c-0.1,0.4-0.5,0.8-1,0.8h-13.5c-0.4,0-0.7-0.3-0.6-0.8
			C110.4,68.2,110.8,67.8,111.3,67.8z"/>
		<path class="st8" d="M92.7,72.2c0.8-2.9,3.7-5.2,6.6-5.2h7.1c0.6,0,0.9,0.5,0.8,1.1l-0.1,0.5c-0.4,1.4,0.5,2.6,1.9,2.6h16.5
			c1.4,0,2.9-1.1,3.2-2.6l0.1-0.5c0.2-0.6,0.8-1.1,1.3-1.1h7.1c2.9,0,4.6,2.3,3.8,5.2l-0.3,1.2H92.4L92.7,72.2z"/>
		<path class="st9" d="M132.9,70.2h-0.1l0.1-0.2c0,0,0-0.1,0-0.1h-2.4c0,0-0.1,0-0.1,0.1l-0.3,1.1c0,0,0,0.1,0,0.1h2.4
			c0,0,0.1,0,0.1-0.1l0.1-0.2h0.1c0,0,0.1,0,0.1-0.1L132.9,70.2C133,70.3,132.9,70.2,132.9,70.2L132.9,70.2z M132.3,71L132.3,71
			h-0.7l0.2-0.8h0.7c0,0,0,0,0,0L132.3,71C132.3,71,132.3,71,132.3,71z"/>
		<g>
			<path class="st9" d="M135.3,70.4h-0.4c0,0-0.1,0-0.1,0.1l-0.2,0.7h0.5L135.3,70.4C135.3,70.4,135.3,70.4,135.3,70.4z"/>
			<path class="st9" d="M136,70h-0.4c0,0-0.1,0-0.1,0.1l-0.3,1.1h0.5L136,70C136.1,70.1,136.1,70,136,70z"/>
			<path class="st9" d="M136.8,69.7h-0.4c0,0-0.1,0-0.1,0.1l-0.4,1.4h0.5L136.8,69.7C136.9,69.7,136.8,69.7,136.8,69.7z"/>
			<path class="st9" d="M137.5,69.4h-0.4c0,0-0.1,0-0.1,0.1l-0.5,1.7h0.5L137.5,69.4C137.6,69.4,137.6,69.4,137.5,69.4z"/>
		</g>
		<g>
			<path class="st9" d="M102.8,69c-0.3-0.2-0.7-0.3-1.1-0.3c-0.4,0-0.9,0.1-1.3,0.3c-0.1,0-0.1,0.1-0.1,0.2c0,0,0,0.1,0.1,0.1
				c0,0,0,0,0.1,0c0.4-0.2,0.8-0.3,1.2-0.3c0.4,0,0.7,0.1,1,0.3c0.1,0,0.1,0,0.2,0C102.9,69.1,102.9,69,102.8,69z"/>
			<path class="st9" d="M102.3,69.6c-0.2-0.2-0.5-0.2-0.8-0.2c-0.3,0-0.6,0.1-0.9,0.2c-0.1,0-0.1,0.1-0.1,0.2s0.1,0.1,0.2,0
				c0.3-0.1,0.5-0.2,0.8-0.2c0.3,0,0.5,0.1,0.7,0.2c0,0,0,0,0.1,0c0,0,0.1,0,0.1-0.1C102.4,69.7,102.4,69.6,102.3,69.6z"/>
			<path class="st9" d="M101.8,70.2c-0.1-0.1-0.3-0.1-0.5-0.1c-0.2,0-0.4,0-0.5,0.1c-0.1,0-0.1,0.1-0.1,0.2c0,0.1,0.1,0.1,0.2,0
				c0.1-0.1,0.3-0.1,0.4-0.1c0.1,0,0.3,0,0.4,0.1c0,0,0,0,0.1,0c0,0,0.1,0,0.1-0.1C101.8,70.3,101.8,70.2,101.8,70.2z"/>
			<path class="st9" d="M101.3,70.8C101.3,70.8,101.3,70.8,101.3,70.8C101.3,70.8,101.3,70.8,101.3,70.8c0-0.1-0.1-0.1-0.2-0.1
				c-0.1,0-0.2,0.1-0.3,0.1c0,0,0,0,0,0c0,0,0,0,0,0c0,0,0,0,0,0c0,0,0,0.1-0.1,0.1c0,0.1,0,0.3,0.2,0.3c0,0,0,0,0,0c0,0,0,0,0,0
				c0.1,0,0.3-0.1,0.3-0.3C101.4,70.9,101.4,70.8,101.3,70.8C101.4,70.8,101.3,70.8,101.3,70.8z"/>
		</g>
		<path class="st8" d="M136.6,104.6c0.2,0,0.4-0.1,0.4-0.3l3-11.1c0-0.2-0.1-0.3-0.2-0.3h-0.4c-0.2,0-0.4,0.1-0.4,0.3l-3,11.1
			c0,0.2,0.1,0.3,0.2,0.3H136.6z"/>
		<g>
			<path class="st9" d="M104.2,85.2c0.4,0,0.7-0.2,0.8-0.7l0.3-1.2h-1l-0.1,0.3h0.6l-0.2,0.9c-0.1,0.2-0.2,0.3-0.3,0.3
				c-0.1,0-0.2-0.1-0.3-0.2l-0.3,0.3C103.8,85.1,104,85.2,104.2,85.2L104.2,85.2z M107.7,85.1h0.4l-0.3-1.8h-0.4l-1.3,1.8h0.4
				l0.3-0.4h0.8L107.7,85.1L107.7,85.1z M107,84.4l0.5-0.7l0.1,0.7H107L107,84.4z M111.1,83.4l-0.3,1.1l-0.6-1.1h-0.3l-0.5,1.8h0.4
				l0.3-1.1l0.6,1.1h0.3l0.5-1.8H111.1L111.1,83.4z M113.3,85.2c0.5,0,0.9-0.3,1-0.8l0.3-1h-0.4l-0.3,1c-0.1,0.3-0.3,0.5-0.5,0.5
				c-0.3,0-0.4-0.1-0.3-0.5l0.3-1H113l-0.3,1C112.6,84.9,112.8,85.2,113.3,85.2L113.3,85.2z M116.9,85.1h0.4l-0.3-1.8h-0.4l-1.3,1.8
				h0.4l0.3-0.4h0.8L116.9,85.1L116.9,85.1z M116.3,84.4l0.5-0.7l0.1,0.7H116.3L116.3,84.4z M120.2,85.1l-0.2-0.6
				c0.3-0.1,0.4-0.3,0.5-0.6c0.1-0.4-0.1-0.7-0.6-0.7h-0.8l-0.5,1.8h0.4l0.1-0.5h0.4h0l0.2,0.5H120.2L120.2,85.1z M120.1,84
				c-0.1,0.2-0.2,0.3-0.5,0.3h-0.3l0.2-0.6h0.3C120,83.7,120.1,83.8,120.1,84L120.1,84z M123.6,83.4h-0.4l-0.7,0.8l-0.3-0.8h-0.4
				l0.4,1.2l-0.2,0.6h0.4l0.2-0.6L123.6,83.4z"/>
			<g>
				<path class="st10" d="M128,85.4c-0.1,0-0.2,0-0.2-0.1c-0.1-0.1-0.1-0.3,0-0.4l0.9-0.7l-0.5-0.6c-0.1-0.1-0.1-0.3,0.1-0.4
					c0.1-0.1,0.3-0.1,0.4,0.1l0.6,0.9c0.1,0.1,0.1,0.3-0.1,0.4l-1.1,0.9C128.1,85.4,128.1,85.4,128,85.4z"/>
				<path class="st10" d="M98.8,85.4c-0.1,0-0.2,0-0.2-0.1l-0.6-0.9c-0.1-0.1-0.1-0.3,0.1-0.4l1.1-0.9c0.1-0.1,0.3-0.1,0.4,0
					c0.1,0.1,0.1,0.3,0,0.4l-0.9,0.7L99,85c0.1,0.1,0.1,0.3-0.1,0.4C98.9,85.4,98.9,85.4,98.8,85.4z"/>
			</g>
			<g>
				<path class="st9" d="M129.5,87.1H96.2c-1.6,0-2.5-1.3-2.1-2.8c0.4-1.6,2-2.8,3.6-2.8H131c1.6,0,2.5,1.3,2.1,2.8
					C132.7,85.8,131.1,87.1,129.5,87.1L129.5,87.1z M96.3,86.8h33.3c0.7,0,1.4-0.3,2-0.7c0.6-0.5,1-1.1,1.2-1.8
					c0.1-0.2,0.1-0.5,0.1-0.7c0-0.4-0.1-0.8-0.4-1.2c-0.2-0.3-0.6-0.5-1-0.7c-0.2,0-0.4-0.1-0.6-0.1H97.7c-0.7,0-1.4,0.3-2,0.7
					c-0.6,0.5-1,1.1-1.2,1.8c-0.1,0.2-0.1,0.5-0.1,0.7c0,0.4,0.1,0.8,0.4,1.2c0.2,0.3,0.6,0.5,1,0.7C95.9,86.8,96.1,86.8,96.3,86.8z
					"/>
			</g>
			<g>
				<path class="st10" d="M122.3,114.2H89c-0.1,0-0.1-0.1-0.1-0.1c0-0.1,0.1-0.1,0.1-0.1h33.3c0.1,0,0.1,0.1,0.1,0.1
					C122.5,114.1,122.4,114.2,122.3,114.2z"/>
				<path class="st10" d="M117.2,133.1H83.9c-0.1,0-0.1-0.1-0.1-0.1c0-0.1,0.1-0.1,0.1-0.1h33.3c0.1,0,0.1,0.1,0.1,0.1
					C117.4,133.1,117.3,133.1,117.2,133.1z"/>
			</g>
			<path class="st9" d="M104.6,143.2H91c-1.6,0-2.5-1.3-2.1-2.8c0.4-1.6,2-2.8,3.6-2.8h13.6c1.6,0,2.5,1.3,2.1,2.8
				C107.8,141.9,106.2,143.2,104.6,143.2z"/>
			<g>
				<g>
					<g>
						<path class="st9" d="M90.5,118.1c-0.6,0-1.2,0.2-1.7,0.6c-0.5,0.4-0.9,0.9-1,1.5c0,0.2-0.1,0.4-0.1,0.5c0,0.3,0.1,0.6,0.3,0.9
							c0.2,0.2,0.4,0.4,0.7,0.5c0.1,0,0.3,0.1,0.5,0.1c0.6,0,1.2-0.2,1.7-0.6c0.5-0.4,0.9-0.9,1-1.5c0-0.2,0.1-0.4,0.1-0.5
							c0-0.3-0.1-0.6-0.3-0.9c-0.2-0.2-0.4-0.4-0.7-0.5C90.8,118.1,90.6,118.1,90.5,118.1L90.5,118.1z M90.5,117.7
							c-1.4,0-2.7,1.1-3.1,2.5c-0.4,1.4,0.4,2.5,1.8,2.5c1.4,0,2.7-1.1,3.1-2.5C92.6,118.8,91.8,117.7,90.5,117.7z"/>
					</g>
					<path class="st9" d="M89.4,119.2c0,0.4,0,0.7,0.3,1c0.1,0.1,0.2,0.1,0.3,0c0.4-0.2,0.6-0.6,0.8-1
						C91,118.5,89.5,118.5,89.4,119.2z"/>
					<path class="st9" d="M89.7,120.7c-0.8,0-1.6,0.4-2.2,0.9c0.3,0.6,0.9,0.9,1.7,0.9c0.8,0,1.6-0.4,2.2-0.9
						C91,121.1,90.4,120.7,89.7,120.7z"/>
				</g>
				<path class="st9" d="M110.8,122.3H93.3c-0.2,0-0.3-0.2-0.3-0.4c0.1-0.2,0.3-0.4,0.5-0.4H111c0.2,0,0.3,0.2,0.3,0.4
					C111.2,122.1,111,122.3,110.8,122.3z"/>
				<path class="st9" d="M119.8,120.2H94.4c-0.4,0-0.7-0.4-0.6-0.8c0.1-0.4,0.6-0.8,1-0.8h25.5c0.4,0,0.7,0.4,0.6,0.8
					C120.8,119.8,120.3,120.2,119.8,120.2z"/>
				<path class="st9" d="M118.9,125.3H92.6c-0.2,0-0.3-0.2-0.3-0.4c0.1-0.2,0.3-0.4,0.5-0.4h26.4c0.2,0,0.3,0.2,0.3,0.4
					C119.3,125.1,119.1,125.3,118.9,125.3z"/>
				<path class="st9" d="M118.4,127.3H92c-0.2,0-0.3-0.2-0.3-0.4c0.1-0.2,0.3-0.4,0.5-0.4h26.4c0.2,0,0.3,0.2,0.3,0.4
					C118.8,127.1,118.6,127.3,118.4,127.3z"/>
				<path class="st9" d="M108.9,129.3H91.5c-0.2,0-0.3-0.2-0.3-0.4c0.1-0.2,0.3-0.4,0.5-0.4h17.4c0.2,0,0.3,0.2,0.3,0.4
					C109.3,129.1,109.1,129.3,108.9,129.3z"/>
			</g>
			<g>
				<path class="st10" d="M94.4,109.9C94.4,109.9,94.3,109.9,94.4,109.9c-0.1,0-0.2-0.1-0.1-0.2l5.3-19.9c0-0.1,0.1-0.1,0.2-0.1
					c0.1,0,0.1,0.1,0.1,0.2l-5.3,19.9C94.5,109.9,94.4,109.9,94.4,109.9z"/>
				<path class="st10" d="M99.3,109.9C99.3,109.9,99.3,109.9,99.3,109.9c-0.1,0-0.2-0.1-0.1-0.2l5.3-19.9c0-0.1,0.1-0.1,0.2-0.1
					c0.1,0,0.1,0.1,0.1,0.2l-5.3,19.9C99.5,109.9,99.4,109.9,99.3,109.9z"/>
				<path class="st10" d="M104.3,109.9C104.3,109.9,104.3,109.9,104.3,109.9c-0.1,0-0.2-0.1-0.1-0.2l5.3-19.9c0-0.1,0.1-0.1,0.2-0.1
					c0.1,0,0.1,0.1,0.1,0.2l-5.3,19.9C104.4,109.9,104.4,109.9,104.3,109.9z"/>
				<path class="st10" d="M109.3,109.9C109.3,109.9,109.2,109.9,109.3,109.9c-0.1,0-0.2-0.1-0.1-0.2l5.3-19.9c0-0.1,0.1-0.1,0.2-0.1
					c0.1,0,0.1,0.1,0.1,0.2l-5.3,19.9C109.4,109.9,109.3,109.9,109.3,109.9z"/>
				<path class="st10" d="M114.2,109.9C114.2,109.9,114.2,109.9,114.2,109.9c-0.1,0-0.2-0.1-0.1-0.2l5.3-19.9c0-0.1,0.1-0.1,0.2-0.1
					c0.1,0,0.1,0.1,0.1,0.2l-5.3,19.9C114.4,109.9,114.3,109.9,114.2,109.9z"/>
				<path class="st10" d="M119.2,109.9C119.2,109.9,119.2,109.9,119.2,109.9c-0.1,0-0.2-0.1-0.1-0.2l5.3-19.9c0-0.1,0.1-0.1,0.2-0.1
					c0.1,0,0.1,0.1,0.1,0.2l-5.3,19.9C119.3,109.9,119.3,109.9,119.2,109.9z"/>
			</g>
			<g>
				<path class="st10" d="M127.8,93.6H94.5c-0.1,0-0.1-0.1-0.1-0.1c0-0.1,0.1-0.1,0.1-0.1h33.3c0.1,0,0.1,0.1,0.1,0.1
					C127.9,93.6,127.9,93.6,127.8,93.6z"/>
				<path class="st10" d="M126.7,97.9H93.4c-0.1,0-0.1-0.1-0.1-0.1c0-0.1,0.1-0.1,0.1-0.1h33.3c0.1,0,0.1,0.1,0.1,0.1
					C126.8,97.8,126.7,97.9,126.7,97.9z"/>
				<path class="st10" d="M125.5,102.1H92.2c-0.1,0-0.1-0.1-0.1-0.1c0-0.1,0.1-0.1,0.1-0.1h33.3c0.1,0,0.1,0.1,0.1,0.1
					C125.7,102,125.6,102.1,125.5,102.1z"/>
				<path class="st10" d="M124.4,106.3H91.1c-0.1,0-0.1-0.1-0.1-0.1c0-0.1,0.1-0.1,0.1-0.1h33.3c0.1,0,0.1,0.1,0.1,0.1
					C124.5,106.3,124.5,106.3,124.4,106.3z"/>
			</g>
			<path class="st9" d="M86,148.1c-0.3,0-0.6,0.3-0.7,0.6c-0.1,0.3,0.1,0.6,0.4,0.6c0.3,0,0.6-0.3,0.7-0.6
				C86.5,148.3,86.4,148.1,86,148.1L86,148.1z M107,148.1c-0.3,0-0.6,0.3-0.7,0.6c-0.1,0.3,0.1,0.6,0.4,0.6c0.3,0,0.6-0.3,0.7-0.6
				C107.5,148.3,107.3,148.1,107,148.1L107,148.1z M101.8,148.1c-0.3,0-0.6,0.3-0.7,0.6c-0.1,0.3,0.1,0.6,0.4,0.6s0.6-0.3,0.7-0.6
				C102.3,148.3,102.1,148.1,101.8,148.1L101.8,148.1z M96.5,148.1c-0.3,0-0.6,0.3-0.7,0.6c-0.1,0.3,0.1,0.6,0.4,0.6
				c0.3,0,0.6-0.3,0.7-0.6C97,148.3,96.8,148.1,96.5,148.1L96.5,148.1z M91.3,148.1c-0.3,0-0.6,0.3-0.7,0.6
				c-0.1,0.3,0.1,0.6,0.4,0.6c0.3,0,0.6-0.3,0.7-0.6C91.8,148.3,91.6,148.1,91.3,148.1z"/>
			<path class="st8" d="M119.3,94.4C119.2,94.4,119.2,94.4,119.3,94.4l-0.7,2.5c0,0,0,0,0,0h3.2c0,0,0,0,0,0l0.7-2.4c0,0,0,0,0,0
				H119.3z"/>
		</g>
	</g>
	<g>
		<path class="st7" d="M185,159.9h37.9c4.4,0,7-3.6,5.8-7.9l-21.4-79.7c-1.2-4.4-5.7-7.9-10.1-7.9h-37.9c-4.4,0-7,3.6-5.8,7.9
			l21.4,79.7C176.1,156.3,180.6,159.9,185,159.9z"/>
		<path class="st8" d="M187.7,159.9h37.9c4.4,0,7-3.6,5.8-7.9L210,72.2c-1.2-4.4-5.7-7.9-10.1-7.9h-37.9c-4.4,0-7,3.6-5.8,7.9
			l21.4,79.7C178.8,156.3,183.3,159.9,187.7,159.9z"/>
		<path class="st9" d="M162.5,66c-3.4,0-5.5,2.8-4.6,6.2l21.4,79.7c0.9,3.4,4.5,6.2,7.9,6.2h37.9c3.4,0,5.5-2.8,4.6-6.2l-21.4-79.7
			c-0.9-3.4-4.5-6.2-7.9-6.2H162.5z"/>
		<path class="st0" d="M200.7,67h-7.1c-0.6,0-0.9,0.5-0.8,1.1l0.1,0.5c0.4,1.4-0.5,2.6-1.9,2.6h-16.5c-1.4,0-2.9-1.1-3.2-2.6
			l-0.1-0.5c-0.2-0.6-0.8-1.1-1.3-1.1h-7.1c-2.9,0-4.6,2.3-3.8,5.2l21.4,79.7c0.8,2.9,3.7,5.2,6.6,5.2h37.9c2.9,0,4.6-2.3,3.8-5.2
			l-21.4-79.7C206.5,69.3,203.6,67,200.7,67z"/>
		<path class="st7" d="M188.7,67.8h-13.5c-0.4,0-0.7,0.3-0.6,0.8c0.1,0.4,0.5,0.8,1,0.8h13.5c0.4,0,0.7-0.3,0.6-0.8
			C189.6,68.2,189.2,67.8,188.7,67.8z"/>
		<path class="st8" d="M207.3,72.2c-0.8-2.9-3.7-5.2-6.6-5.2h-7.1c-0.6,0-0.9,0.5-0.8,1.1l0.1,0.5c0.4,1.4-0.5,2.6-1.9,2.6h-16.5
			c-1.4,0-2.9-1.1-3.2-2.6l-0.1-0.5c-0.2-0.6-0.8-1.1-1.3-1.1h-7.1c-2.9,0-4.6,2.3-3.8,5.2l0.3,1.2h48.3L207.3,72.2z"/>
		<path class="st9" d="M198.1,70.2H198l-0.1-0.2c0,0,0-0.1-0.1-0.1h-2.4c0,0-0.1,0,0,0.1l0.3,1.1c0,0,0,0.1,0.1,0.1h2.4
			c0,0,0.1,0,0-0.1l-0.1-0.2h0.1c0,0,0.1,0,0-0.1L198.1,70.2C198.2,70.3,198.2,70.2,198.1,70.2L198.1,70.2z M197.9,71L197.9,71h-0.7
			l-0.2-0.8h0.7c0,0,0,0,0,0L197.9,71C198,71,197.9,71,197.9,71z"/>
		<g>
			<path class="st9" d="M200.6,70.4h-0.4c0,0-0.1,0,0,0.1l0.2,0.7h0.5L200.6,70.4C200.7,70.4,200.6,70.4,200.6,70.4z"/>
			<path class="st9" d="M201.2,70h-0.4c0,0-0.1,0,0,0.1l0.3,1.1h0.5L201.2,70C201.2,70.1,201.2,70,201.2,70z"/>
			<path class="st9" d="M201.7,69.7h-0.4c0,0-0.1,0,0,0.1l0.4,1.4h0.5L201.7,69.7C201.8,69.7,201.8,69.7,201.7,69.7z"/>
			<path class="st9" d="M202.3,69.4H202c0,0-0.1,0,0,0.1l0.5,1.7h0.5L202.3,69.4C202.4,69.4,202.4,69.4,202.3,69.4z"/>
		</g>
		<g>
			<path class="st9" d="M167.4,69c-0.4-0.2-0.9-0.3-1.3-0.3c-0.4,0-0.8,0.1-1.1,0.3c-0.1,0-0.1,0.1,0,0.2c0,0,0.1,0.1,0.1,0.1
				c0,0,0,0,0.1,0c0.3-0.2,0.6-0.3,1-0.3c0.4,0,0.8,0.1,1.2,0.3c0.1,0,0.1,0,0.2,0C167.5,69.1,167.4,69,167.4,69z"/>
			<path class="st9" d="M167.2,69.6c-0.3-0.2-0.6-0.2-0.9-0.2c-0.3,0-0.6,0.1-0.8,0.2c-0.1,0-0.1,0.1,0,0.2c0.1,0.1,0.1,0.1,0.2,0
				c0.2-0.1,0.4-0.2,0.7-0.2s0.5,0.1,0.8,0.2c0,0,0,0,0.1,0c0,0,0.1,0,0.1-0.1C167.3,69.7,167.3,69.6,167.2,69.6z"/>
			<path class="st9" d="M167,70.2c-0.2-0.1-0.4-0.1-0.5-0.1c-0.2,0-0.3,0-0.5,0.1c-0.1,0-0.1,0.1,0,0.2c0.1,0.1,0.1,0.1,0.2,0
				c0.1-0.1,0.2-0.1,0.4-0.1c0.1,0,0.3,0,0.4,0.1c0,0,0,0,0.1,0c0,0,0.1,0,0.1-0.1C167.1,70.3,167.1,70.2,167,70.2z"/>
			<path class="st9" d="M166.9,70.8C166.9,70.8,166.9,70.8,166.9,70.8C166.9,70.8,166.9,70.8,166.9,70.8c-0.1-0.1-0.2-0.1-0.3-0.1
				c-0.1,0-0.2,0.1-0.2,0.1c0,0,0,0,0,0c0,0,0,0,0,0c0,0,0,0,0,0c0,0,0,0.1,0,0.1c0,0.1,0.2,0.3,0.3,0.3c0,0,0,0,0,0c0,0,0,0,0,0
				c0.1,0,0.2-0.1,0.2-0.3C166.9,70.9,166.9,70.8,166.9,70.8C166.9,70.8,166.9,70.8,166.9,70.8z"/>
		</g>
		<path class="st8" d="M163.4,104.6c-0.2,0-0.4-0.1-0.4-0.3l-3-11.1c0-0.2,0.1-0.3,0.2-0.3h0.4c0.2,0,0.4,0.1,0.4,0.3l3,11.1
			c0,0.2-0.1,0.3-0.2,0.3H163.4L163.4,104.6z M159.9,90.1c0.2,0,0.3-0.1,0.2-0.3l-1-3.6c0-0.2-0.2-0.3-0.4-0.3h-0.4
			c-0.2,0-0.3,0.1-0.2,0.3l1,3.6c0,0.2,0.2,0.3,0.4,0.3H159.9L159.9,90.1z M167.6,119c0.2,0,0.3-0.1,0.2-0.3l-3-11.1
			c0-0.2-0.2-0.3-0.4-0.3h-0.4c-0.2,0-0.3,0.1-0.2,0.3l3,11.1c0,0.2,0.2,0.3,0.4,0.3H167.6z"/>
		<g>
			<g>
				<path class="st10" d="M201.2,85.4c-0.1,0-0.1,0-0.2-0.1c-0.1-0.1-0.2-0.3-0.1-0.4l0.5-0.6l-0.9-0.7c-0.1-0.1-0.1-0.3,0-0.4
					c0.1-0.1,0.3-0.1,0.4,0L202,84c0.1,0.1,0.1,0.3,0.1,0.4l-0.6,0.9C201.4,85.4,201.3,85.4,201.2,85.4z"/>
				<path class="st10" d="M172,85.4c-0.1,0-0.1,0-0.2-0.1l-1.1-0.9c-0.1-0.1-0.1-0.3-0.1-0.4l0.6-0.9c0.1-0.1,0.3-0.2,0.4-0.1
					c0.1,0.1,0.2,0.3,0.1,0.4l-0.5,0.6l0.9,0.7c0.1,0.1,0.1,0.3,0,0.4C172.2,85.4,172.1,85.4,172,85.4z"/>
			</g>
			<g>
				<path class="st9" d="M203.8,87.1h-33.3c-1.6,0-3.2-1.3-3.6-2.8c-0.4-1.6,0.5-2.8,2.1-2.8h33.3c1.6,0,3.2,1.3,3.6,2.8
					C206.3,85.8,205.3,87.1,203.8,87.1L203.8,87.1z M170.4,86.8h33.3c0.2,0,0.4,0,0.6-0.1c0.4-0.1,0.8-0.3,1-0.7
					c0.2-0.3,0.4-0.7,0.4-1.2c0-0.2,0-0.4-0.1-0.7h0c-0.2-0.7-0.6-1.3-1.2-1.8c-0.6-0.5-1.3-0.7-2-0.7H169c-0.2,0-0.4,0-0.6,0.1
					c-0.4,0.1-0.8,0.3-1,0.7c-0.2,0.3-0.4,0.7-0.4,1.2c0,0.2,0,0.4,0.1,0.7c0.2,0.7,0.6,1.3,1.2,1.8C169,86.5,169.7,86.8,170.4,86.8
					z"/>
			</g>
			<g>
				<path class="st9" d="M172.8,89.8c-0.9,0-1.4,0.7-1.2,1.6c0.2,0.9,1.1,1.6,2,1.6c0.9,0,1.4-0.7,1.2-1.6
					C174.6,90.5,173.7,89.8,172.8,89.8z"/>
				<path class="st9" d="M177.8,89.8c-0.9,0-1.4,0.7-1.2,1.6c0.2,0.9,1.1,1.6,2,1.6c0.9,0,1.4-0.7,1.2-1.6
					C179.6,90.5,178.7,89.8,177.8,89.8z"/>
				<path class="st9" d="M182.8,89.8c-0.9,0-1.4,0.7-1.2,1.6c0.2,0.9,1.1,1.6,2,1.6c0.9,0,1.4-0.7,1.2-1.6
					C184.6,90.5,183.7,89.8,182.8,89.8z"/>
				<path class="st9" d="M187.9,89.8c-0.9,0-1.4,0.7-1.2,1.6c0.2,0.9,1.1,1.6,2,1.6c0.9,0,1.4-0.7,1.2-1.6
					C189.7,90.5,188.7,89.8,187.9,89.8z"/>
				<path class="st9" d="M192.9,89.8c-0.9,0-1.4,0.7-1.2,1.6c0.2,0.9,1.1,1.6,2,1.6s1.4-0.7,1.2-1.6
					C194.7,90.5,193.8,89.8,192.9,89.8z"/>
				<path class="st8" d="M197.9,89.8c-0.9,0-1.4,0.7-1.2,1.6c0.2,0.9,1.1,1.6,2,1.6s1.4-0.7,1.2-1.6
					C199.7,90.5,198.8,89.8,197.9,89.8z"/>
				<path class="st9" d="M202.9,89.8c-0.9,0-1.4,0.7-1.2,1.6c0.2,0.9,1.1,1.6,2,1.6c0.9,0,1.4-0.7,1.2-1.6
					C204.7,90.5,203.8,89.8,202.9,89.8z"/>
				<g>
					<path class="st9" d="M174.3,95.3c-0.9,0-1.4,0.7-1.2,1.6c0.2,0.9,1.1,1.6,2,1.6c0.9,0,1.4-0.7,1.2-1.6
						C176.1,96,175.2,95.3,174.3,95.3z"/>
					<path class="st9" d="M179.3,95.3c-0.9,0-1.4,0.7-1.2,1.6c0.2,0.9,1.1,1.6,2,1.6c0.9,0,1.4-0.7,1.2-1.6
						C181.1,96,180.2,95.3,179.3,95.3z"/>
					<path class="st9" d="M184.3,95.3c-0.9,0-1.4,0.7-1.2,1.6c0.2,0.9,1.1,1.6,2,1.6c0.9,0,1.4-0.7,1.2-1.6
						C186.1,96,185.2,95.3,184.3,95.3z"/>
					<path class="st9" d="M189.3,95.3c-0.9,0-1.4,0.7-1.2,1.6c0.2,0.9,1.1,1.6,2,1.6c0.9,0,1.4-0.7,1.2-1.6
						C191.1,96,190.2,95.3,189.3,95.3z"/>
					<path class="st9" d="M194.3,95.3c-0.9,0-1.4,0.7-1.2,1.6c0.2,0.9,1.1,1.6,2,1.6c0.9,0,1.4-0.7,1.2-1.6
						C196.1,96,195.2,95.3,194.3,95.3z"/>
					<path class="st9" d="M199.4,95.3c-0.9,0-1.4,0.7-1.2,1.6c0.2,0.9,1.1,1.6,2,1.6c0.9,0,1.4-0.7,1.2-1.6
						C201.2,96,200.2,95.3,199.4,95.3z"/>
					<path class="st9" d="M204.4,95.3c-0.9,0-1.4,0.7-1.2,1.6c0.2,0.9,1.1,1.6,2,1.6c0.9,0,1.4-0.7,1.2-1.6
						C206.2,96,205.3,95.3,204.4,95.3z"/>
				</g>
				<g>
					<path class="st9" d="M175.7,100.8c-0.9,0-1.4,0.7-1.2,1.6c0.2,0.9,1.1,1.6,2,1.6c0.9,0,1.4-0.7,1.2-1.6
						C177.5,101.5,176.6,100.8,175.7,100.8z"/>
					<path class="st9" d="M180.8,100.8c-0.9,0-1.4,0.7-1.2,1.6c0.2,0.9,1.1,1.6,2,1.6c0.9,0,1.4-0.7,1.2-1.6
						C182.6,101.5,181.6,100.8,180.8,100.8z"/>
					<path class="st9" d="M185.8,100.8c-0.9,0-1.4,0.7-1.2,1.6c0.2,0.9,1.1,1.6,2,1.6c0.9,0,1.4-0.7,1.2-1.6
						C187.6,101.5,186.7,100.8,185.8,100.8z"/>
					<path class="st9" d="M190.8,100.8c-0.9,0-1.4,0.7-1.2,1.6c0.2,0.9,1.1,1.6,2,1.6c0.9,0,1.4-0.7,1.2-1.6
						C192.6,101.5,191.7,100.8,190.8,100.8z"/>
					<path class="st9" d="M195.8,100.8c-0.9,0-1.4,0.7-1.2,1.6c0.2,0.9,1.1,1.6,2,1.6c0.9,0,1.4-0.7,1.2-1.6
						C197.6,101.5,196.7,100.8,195.8,100.8z"/>
					<path class="st9" d="M200.8,100.8c-0.9,0-1.4,0.7-1.2,1.6c0.2,0.9,1.1,1.6,2,1.6s1.4-0.7,1.2-1.6
						C202.6,101.5,201.7,100.8,200.8,100.8z"/>
					<path class="st9" d="M205.8,100.8c-0.9,0-1.4,0.7-1.2,1.6c0.2,0.9,1.1,1.6,2,1.6c0.9,0,1.4-0.7,1.2-1.6
						C207.6,101.5,206.7,100.8,205.8,100.8z"/>
				</g>
				<path class="st9" d="M177.2,106.2c-0.9,0-1.4,0.7-1.2,1.6c0.2,0.9,1.1,1.6,2,1.6c0.9,0,1.4-0.7,1.2-1.6
					C179,106.9,178.1,106.2,177.2,106.2z"/>
				<path class="st9" d="M182.2,106.2c-0.9,0-1.4,0.7-1.2,1.6c0.2,0.9,1.1,1.6,2,1.6c0.9,0,1.4-0.7,1.2-1.6
					C184,106.9,183.1,106.2,182.2,106.2z"/>
				<path class="st9" d="M187.2,106.2c-0.9,0-1.4,0.7-1.2,1.6c0.2,0.9,1.1,1.6,2,1.6c0.9,0,1.4-0.7,1.2-1.6
					C189,106.9,188.1,106.2,187.2,106.2z"/>
				<path class="st9" d="M192.3,106.2c-0.9,0-1.4,0.7-1.2,1.6c0.2,0.9,1.1,1.6,2,1.6c0.9,0,1.4-0.7,1.2-1.6
					C194,106.9,193.1,106.2,192.3,106.2z"/>
				<g>
					<path class="st9" d="M197.3,106.5c-0.1,0-0.2,0-0.3,0c-0.2,0.1-0.4,0.2-0.5,0.3c-0.1,0.1-0.2,0.3-0.2,0.6c0,0.1,0,0.2,0,0.3
						c0.1,0.4,0.4,0.7,0.7,1l0,0c0.3,0.3,0.7,0.4,1.1,0.4c0.1,0,0.2,0,0.3,0c0.2-0.1,0.4-0.2,0.5-0.3c0.1-0.1,0.2-0.3,0.2-0.6
						c0-0.1,0-0.2,0-0.3c-0.1-0.4-0.4-0.7-0.7-1C198,106.7,197.6,106.5,197.3,106.5L197.3,106.5z M197.3,106.2
						c-0.9,0-1.4,0.7-1.2,1.6c0.2,0.9,1.1,1.6,2,1.6s1.4-0.7,1.2-1.6C199.1,106.9,198.2,106.2,197.3,106.2z"/>
				</g>
				<g>
					<path class="st9" d="M202.3,106.5c-0.1,0-0.2,0-0.3,0c-0.2,0.1-0.4,0.2-0.5,0.3c-0.1,0.1-0.2,0.3-0.2,0.6c0,0.1,0,0.2,0,0.3
						c0.1,0.4,0.4,0.7,0.7,1l0,0c0.3,0.3,0.7,0.4,1.1,0.4c0.1,0,0.2,0,0.3,0c0.2-0.1,0.4-0.2,0.5-0.3c0.1-0.1,0.2-0.3,0.2-0.6
						c0-0.1,0-0.2,0-0.3c-0.1-0.4-0.4-0.7-0.7-1C203,106.7,202.7,106.5,202.3,106.5L202.3,106.5z M202.3,106.2
						c-0.9,0-1.4,0.7-1.2,1.6c0.2,0.9,1.1,1.6,2,1.6s1.4-0.7,1.2-1.6C204.1,106.9,203.2,106.2,202.3,106.2z"/>
				</g>
				<g>
					<path class="st9" d="M207.3,106.5c-0.1,0-0.2,0-0.3,0c-0.2,0.1-0.4,0.2-0.5,0.3c-0.1,0.1-0.2,0.3-0.2,0.6c0,0.1,0,0.2,0,0.3
						c0.1,0.4,0.4,0.7,0.7,1c0.3,0.3,0.7,0.4,1.1,0.4c0.1,0,0.2,0,0.3,0c0.2-0.1,0.4-0.2,0.5-0.3c0.1-0.1,0.2-0.3,0.2-0.6
						c0-0.1,0-0.2,0-0.3c-0.1-0.4-0.4-0.7-0.7-1l0,0C208.1,106.7,207.7,106.5,207.3,106.5L207.3,106.5z M207.3,106.2
						c-0.9,0-1.4,0.7-1.2,1.6c0.2,0.9,1.1,1.6,2,1.6c0.9,0,1.4-0.7,1.2-1.6C209.1,106.9,208.2,106.2,207.3,106.2z"/>
				</g>
			</g>
			<g>
				<path class="st10" d="M211,114.2h-33.3c-0.1,0-0.1-0.1-0.1-0.1c0-0.1,0.1-0.1,0.1-0.1H211c0.1,0,0.1,0.1,0.1,0.1
					C211.1,114.1,211.1,114.2,211,114.2z"/>
				<path class="st10" d="M216.1,133.1h-33.3c-0.1,0-0.1-0.1-0.1-0.1s0.1-0.1,0.1-0.1h33.3c0.1,0,0.1,0.1,0.1,0.1
					S216.2,133.1,216.1,133.1z"/>
			</g>
			<path class="st9" d="M209,143.2h-13.6c-1.6,0-3.2-1.3-3.6-2.8c-0.4-1.6,0.5-2.8,2.1-2.8h13.6c1.6,0,3.2,1.3,3.6,2.8
				C211.4,141.9,210.5,143.2,209,143.2z"/>
			<g>
				<g>
					<g>
						<path class="st9" d="M181.1,118.1c-0.2,0-0.3,0-0.5,0.1c-0.3,0.1-0.6,0.3-0.7,0.5c-0.2,0.2-0.3,0.5-0.3,0.9
							c0,0.2,0,0.4,0.1,0.5c0.2,0.6,0.5,1.1,1,1.5c0.5,0.4,1.1,0.6,1.7,0.6c0.2,0,0.3,0,0.5-0.1c0.3-0.1,0.6-0.3,0.7-0.5
							c0.2-0.2,0.3-0.5,0.3-0.9c0-0.2,0-0.4-0.1-0.5c-0.2-0.6-0.5-1.1-1-1.5C182.3,118.4,181.7,118.1,181.1,118.1L181.1,118.1z
							 M181.1,117.7c-1.4,0-2.2,1.1-1.8,2.5c0.4,1.4,1.8,2.5,3.1,2.5c1.4,0,2.2-1.1,1.8-2.5C183.9,118.8,182.5,117.7,181.1,117.7z"
							/>
					</g>
					<path class="st9" d="M180.9,119.2c0.2,0.4,0.4,0.7,0.8,1c0.1,0.1,0.2,0.1,0.3,0c0.2-0.2,0.3-0.6,0.3-1
						C182.1,118.5,180.6,118.5,180.9,119.2z"/>
					<path class="st9" d="M181.9,120.7c-0.8,0-1.4,0.4-1.7,0.9c0.6,0.6,1.4,0.9,2.2,0.9c0.8,0,1.4-0.4,1.7-0.9
						C183.5,121.1,182.7,120.7,181.9,120.7z"/>
				</g>
				<path class="st9" d="M203.9,122.3h-17.4c-0.2,0-0.4-0.2-0.5-0.4c-0.1-0.2,0.1-0.4,0.3-0.4h17.4c0.2,0,0.4,0.2,0.5,0.4
					C204.2,122.1,204.1,122.3,203.9,122.3z"/>
				<path class="st9" d="M211.8,120.2h-25.5c-0.4,0-0.9-0.4-1-0.8c-0.1-0.4,0.1-0.8,0.6-0.8h25.5c0.4,0,0.9,0.4,1,0.8
					C212.5,119.8,212.3,120.2,211.8,120.2z"/>
				<path class="st9" d="M213.6,125.3h-26.4c-0.2,0-0.4-0.2-0.5-0.4c-0.1-0.2,0.1-0.4,0.3-0.4h26.4c0.2,0,0.4,0.2,0.5,0.4
					C214,125.1,213.8,125.3,213.6,125.3z"/>
				<path class="st9" d="M214.2,127.3h-26.4c-0.2,0-0.4-0.2-0.5-0.4c-0.1-0.2,0.1-0.4,0.3-0.4H214c0.2,0,0.4,0.2,0.5,0.4
					C214.5,127.1,214.4,127.3,214.2,127.3z"/>
				<path class="st9" d="M205.8,129.3h-17.4c-0.2,0-0.4-0.2-0.5-0.4c-0.1-0.2,0.1-0.4,0.3-0.4h17.4c0.2,0,0.4,0.2,0.5,0.4
					C206.1,129.1,206,129.3,205.8,129.3z"/>
			</g>
			<path class="st9" d="M193,148.1c-0.3,0-0.5,0.3-0.4,0.6c0.1,0.3,0.4,0.6,0.7,0.6c0.3,0,0.5-0.3,0.4-0.6
				C193.6,148.3,193.3,148.1,193,148.1L193,148.1z M214,148.1c-0.3,0-0.5,0.3-0.4,0.6c0.1,0.3,0.4,0.6,0.7,0.6
				c0.3,0,0.5-0.3,0.4-0.6C214.6,148.3,214.3,148.1,214,148.1L214,148.1z M208.7,148.1c-0.3,0-0.5,0.3-0.4,0.6
				c0.1,0.3,0.4,0.6,0.7,0.6c0.3,0,0.5-0.3,0.4-0.6C209.3,148.3,209,148.1,208.7,148.1L208.7,148.1z M203.5,148.1
				c-0.3,0-0.5,0.3-0.4,0.6c0.1,0.3,0.4,0.6,0.7,0.6c0.3,0,0.5-0.3,0.4-0.6C204.1,148.3,203.8,148.1,203.5,148.1L203.5,148.1z
				 M198.2,148.1c-0.3,0-0.5,0.3-0.4,0.6c0.1,0.3,0.4,0.6,0.7,0.6c0.3,0,0.5-0.3,0.4-0.6C198.8,148.3,198.5,148.1,198.2,148.1z"/>
			<path class="st9" d="M176.6,83.7l-0.1-0.3h-1.4l0.5,1.8h0.4l-0.2-0.7h0.8l-0.1-0.3h-0.8l-0.1-0.5H176.6L176.6,83.7z M178.7,84.8
				l-0.1-0.4h0.8l-0.1-0.3h-0.8l-0.1-0.4h0.9l-0.1-0.3h-1.4l0.5,1.8h1.4l-0.1-0.3H178.7L178.7,84.8z M182.2,84.2
				c0.1-0.1,0.2-0.2,0.1-0.4c-0.1-0.3-0.4-0.5-0.8-0.5h-0.9l0.5,1.8h0.9c0.5,0,0.7-0.2,0.6-0.5C182.6,84.4,182.5,84.3,182.2,84.2
				L182.2,84.2z M181.6,83.7c0.2,0,0.3,0.1,0.4,0.2c0,0.1-0.1,0.2-0.3,0.2h-0.4l-0.1-0.4H181.6L181.6,83.7z M182,84.8h-0.5l-0.1-0.4
				h0.5c0.2,0,0.3,0.1,0.4,0.2C182.3,84.8,182.2,84.8,182,84.8L182,84.8z M185.8,85.1l-0.6-0.6c0.2-0.1,0.3-0.3,0.2-0.6
				c-0.1-0.4-0.5-0.7-1-0.7h-0.8l0.5,1.8h0.4l-0.1-0.5h0.4h0l0.5,0.5H185.8L185.8,85.1z M185.1,84c0.1,0.2,0,0.3-0.3,0.3h-0.3
				l-0.2-0.6h0.3C184.8,83.7,185,83.8,185.1,84L185.1,84z M188,85.2c0.5,0,0.7-0.3,0.6-0.8l-0.3-1h-0.4l0.3,1c0.1,0.3,0,0.5-0.3,0.5
				c-0.3,0-0.4-0.1-0.5-0.5l-0.3-1h-0.4l0.3,1C187.1,84.9,187.5,85.2,188,85.2L188,85.2z M191.6,85.1h0.4l-1.3-1.8h-0.4l-0.3,1.8
				h0.4l0.1-0.4h0.8L191.6,85.1L191.6,85.1z M190.6,84.4l0.1-0.7l0.5,0.7H190.6L190.6,84.4z M194.9,85.1l-0.6-0.6
				c0.2-0.1,0.3-0.3,0.2-0.6c-0.1-0.4-0.5-0.7-1-0.7h-0.8l0.5,1.8h0.4l-0.1-0.5h0.4h0l0.5,0.5H194.9L194.9,85.1z M194.1,84
				c0.1,0.2,0,0.3-0.3,0.3h-0.3l-0.2-0.6h0.3C193.9,83.7,194.1,83.8,194.1,84L194.1,84z M197.3,83.4h-0.4l-0.3,0.8l-0.7-0.8h-0.4
				l1,1.2l0.2,0.6h0.4l-0.2-0.6L197.3,83.4z"/>
		</g>
	</g>
</g>
<g>
	<polygon class="st9" points="150.1,182.7 153.6,186.1 168.4,186.1 164.7,182.7 	"/>
	<polygon class="st9" points="50.2,195.9 61.5,195.9 65.1,199.6 54.1,199.6 	"/>
	<path class="st9" d="M179.9,205.7h11.3l3.6,3.6h-11L179.9,205.7L179.9,205.7z M167.4,201l3.5,3.4h14.8L182,201L167.4,201L167.4,201
		z M166.1,205.7l3.9,3.6h11l-3.6-3.6H166.1z"/>
</g>
<ellipse class="st9" cx="92" cy="190.9" rx="33.2" ry="1"/>
<ellipse class="st9" cx="210.8" cy="190.9" rx="33.2" ry="1"/>
<g>
	<path class="st11" d="M67.9,123.4c0,0,1.6,1.6,1.6,2.8c0,1.2-1.3,3.2-1.9,2.7c-0.5-0.5,0-2,0-2l-2.1-1.3L67.9,123.4z"/>
	<g>
		<path class="st12" d="M80.8,99.7c0.4,0.2,1.2-1.8,1.6-1.7c0.1,0.9,1.1,0.8,0.9,1.7C82.2,99.7,80.8,99.7,80.8,99.7z"/>
		<path class="st11" d="M82.4,97.2c0,0-0.3,1.8,0,3c0.2,0.9-3.2,1-3.2,0c0-0.6,0.4-3.3,0.4-3.3L82.4,97.2z"/>
		<path class="st13" d="M82.5,96.2c1.3-1.3,2.1-8.3,0.6-8.7c-0.7-0.2-2.7,2.1-3.3,3.6c-0.3-0.6-0.9-1.2-1.2-1.2
			c-0.3,0.1-1.2,1.9-1.1,3.8c-0.3-0.5-0.7-0.7-0.8-0.7c-0.2,0.1,0.3,5.6,5.9,5.6C83,98.6,82.5,96.2,82.5,96.2z"/>
		<path class="st11" d="M82.8,93.7c-0.5,0.2-0.7,1.5-0.6,2.7c0,0,0,0.1,0,0c-0.1-0.2-0.5-0.4-0.7-0.1c-0.3,0.6,1.1,3.4,1.7,3.4
			C83.8,99.7,83.7,93.4,82.8,93.7z"/>
	</g>
	<path class="st11" d="M114.6,101.9l0.8-2.2c0.2-0.5,0.5-0.9,1-1.1c1-0.5,2.5-1.2,2.6-1c0.1,0.3-1.3,1.3-1.3,1.3s1.2,0.7,1,1.4
		c-0.1,0.6-1.4,0.7-1.4,0.7v1.4L114.6,101.9z"/>
	<path class="st12" d="M118.9,97.6C118.9,97.6,118.9,97.6,118.9,97.6c-0.6,0.4-1.4,1.1-1.8,1.3c0,0,1.4,0.7,1.1,1.3
		c-0.3,0.5-2.8,0.5-3.4,1l-0.1,0.1c0,0.2,0.3,0.4,0.6,0.7l1.9,0.3V101c0,0,1.3-0.1,1.4-0.7c0.1-0.6-1-1.4-1-1.4S119,97.9,118.9,97.6
		z"/>
	<path class="st14" d="M82.4,100.1C65.7,97.3,43.8,113,59.1,128c2.7,2.7,7.3,1.5,8.4-2.2c0.2-0.7,0.3-1.5,0.4-2.3c0,0-3-3.8-0.9-7.1
		c2.1-3.3,5.3-2.9,5.3-2.9l14.1-1.6c0,0,6.2,9.1,20.2,6.2c13.9-2.9,20.8-16.5,8.6-16.9c-3.1-0.1-5.3,6.8-14.6,4.7
		C91.3,103.8,89.4,101.2,82.4,100.1z"/>
	<path class="st15" d="M74.3,104.9c-11.1,2.2-10.8,11.1-8.7,17.5c0.8,2.6,0.7,4.5,0.2,6c0.8-0.6,1.4-1.5,1.7-2.6
		c0.2-0.7,0.3-1.5,0.4-2.3c0,0-3-3.8-0.9-7.1c2.1-3.3,5.3-2.9,5.3-2.9l8.6-1C80.2,107.6,78.3,104.1,74.3,104.9z"/>
	<path class="st16" d="M70.1,122.9c0,0-6,11.2,2.1,27.1c0,0-10.4,16.4,8.5,41.3c0,0-1.4-24.3,1.4-34.2c2.8-9.9,0-35.5,0-35.5
		L70.1,122.9z"/>
	<path class="st17" d="M82.1,157.1c1.7-6,1.3-17.9,0.8-26.2l-7.2-0.3c0,0-1.4,12.7,1,18.6c2.4,5.9-7.4,22.1,4,42.2
		C80.7,191.3,79.3,167,82.1,157.1z"/>
	<path class="st16" d="M91.3,122.9c0,0,4.8,12.4,5,27c0.2,14.6,4,32.4,7.8,41.4c0,0-25.4-20.9-18.3-40.5c0,0-10.1-8.3-10.1-22.1
		C75.7,114.9,91.3,122.9,91.3,122.9z"/>
	<path class="st14" d="M74.7,103.9c0,0-4.5,11.9-4.6,19c6.5,1.7,13.6,1.5,21.2,0c0,0,0.3-9.3-2.1-16.6
		C86.8,99,74.7,103.9,74.7,103.9z"/>
	<path class="st15" d="M91,115.9c0,0-3.5-2.1-5.6-4.9l1.6,12.6c1.5-0.2,2.9-0.4,4.2-0.7C91.3,122.9,91.4,119.9,91,115.9z"/>
	<path class="st15" d="M121.5,106.5L121.5,106.5c0,0-11.7,14.3-30.4,9.4c3.3,2,8.4,3.7,15.6,2.2
		C114.9,116.3,120.7,110.8,121.5,106.5z"/>
	<path class="st17" d="M91.3,122.9c3.5,12.8,1.4,28.3,2.1,41.8c0.7,13.5,10.7,26.6,10.7,26.6c-3.8-9-7.6-26.8-7.8-41.4
		C96.1,135.3,91.3,122.9,91.3,122.9z"/>
	<path class="st13" d="M104,191.3h2.1c0.1,0,0.2-0.1,0.1-0.2c-0.5-0.4-1.7-1.3-2.8-1.3C103.6,190.4,103.8,190.9,104,191.3z"/>
	<path class="st13" d="M80.7,191.3h2.1c0.1,0,0.2-0.1,0.1-0.2c-0.5-0.4-1.1-1.3-2.3-1.2C80.6,190.4,80.7,190.8,80.7,191.3z"/>
</g>
<g>
	<path class="st12" d="M218.2,97.3c-0.4,0.2-1.3-1.9-1.6-1.7c-0.1,0.9-1.1,0.8-0.9,1.7C216.7,97.3,218.2,97.3,218.2,97.3z"/>
	<path class="st11" d="M216.5,94.7c0,0,0.3,1.8,0,3.1c-0.2,0.9,3.2,1,3.2,0c0-0.6-0.4-3.3-0.4-3.3L216.5,94.7z"/>
	<path class="st11" d="M216.1,91.1c0.5,0.2,0.7,1.6,0.6,2.7c0,0,0,0.1,0,0c0.1-0.2,0.5-0.4,0.7-0.1c0.4,0.7-1.1,3.5-1.7,3.5
		C215.1,97.3,215.2,90.9,216.1,91.1z"/>
	<path class="st18" d="M226.3,141.5c1.2-0.4,2.4-0.8,3.6-1.4c0.8-11.8-2.5-19-2.5-19l-12.4-2.7c0,0,0.7,14.2,3.8,24.2
		C221.3,142.6,223.8,142.3,226.3,141.5z"/>
	<path class="st11" d="M229.2,146.2c0.4-2.1,0.6-4.2,0.7-6.1c-1.1,0.6-2.3,1.1-3.6,1.4c-2.5,0.7-5,1.1-7.6,1.1
		c0.7,2.1,1.4,4.1,2.3,5.7c5,8.8,8.9,42.9,8.9,42.9C242,157,229.2,146.2,229.2,146.2z"/>
	<path class="st12" d="M227.4,153.1c-4.7-8.1-4.9-10.7-4.9-10.7c-1.2,0.2-2.5,0.2-3.7,0.2c0.7,2.1,1.4,4.1,2.3,5.7
		c5,8.8,8.9,42.9,8.9,42.9S232.1,161.2,227.4,153.1z"/>
	<path class="st18" d="M219.4,142.6c2.7-5.4,6.1-14,5.3-21.5l-15.3,0.8c0,0-2.1,6.6-2.3,17.4C210.8,141.6,215.1,142.6,219.4,142.6z"
		/>
	<path class="st19" d="M207.1,139.3c1.4,0.9,2.8,1.6,4.4,2.1l2.3-18.2l-4.2-1.3l-0.1,0C209.4,121.9,207.3,128.5,207.1,139.3z"/>
	<path class="st11" d="M207.1,139.3c0,2.6,0,5.5,0.3,8.6c1.2,15.7-3.8,38-4.9,43.2c0,0,22.5-25.5,13.9-43.1c0,0,1.4-2.2,3-5.5
		C215.1,142.6,210.8,141.6,207.1,139.3z"/>
	<path class="st11" d="M218.1,99.7c0,0-11.4-2.9-14.4-7.2c0,0-0.9-2-1.8-2.2c-0.8-0.2-3.9,1.4-3.4,1.6c0.5,0.2,1.7-0.4,1.7-0.4
		s0.9,1.5,2.2,1.2c0,0,2.3,9.1,9.6,11.5C219.4,106.5,218.1,99.7,218.1,99.7z"/>
	<path class="st11" d="M202.5,109.5c0,0-4.8,5.8-12.8,3.3c0,0-1.7-1.9-2.3-2.2c-0.6-0.2-3.1,1.5-2.6,1.8c0.5,0.3,1.4-0.3,1.4-0.3
		s0.2,1.7,2.4,1.3c0,0,7.8,8.5,18.1,3.4L202.5,109.5z"/>
	<path class="st12" d="M214.1,103.2c-6.6-2.8-11.4-10.9-11.4-10.9c-1.4,0.4-2.5-1.2-2.5-1.2c-0.4,0.4-1.1,0.7-1.6,0.8
		c0.6,0.1,1.6-0.4,1.6-0.4s0.9,1.5,2.2,1.2c0,0,2.3,9.1,9.6,11.5c1.7,0.5,3,0.6,3.9,0.3C215.6,104,215.1,103.6,214.1,103.2z"/>
	<path class="st12" d="M205.2,114.4c-0.3,0.1-0.6,0.3-0.9,0.5c-7,4.3-15.8-1.7-15.8-1.7c-1.9,0.4-2.3-1.5-2.3-1.5
		c-0.5,0.4-1.1,0.5-1.6,0.6c0,0,0,0.1,0.1,0.1c0.5,0.3,1.4-0.3,1.4-0.3s0.2,1.7,2.4,1.3c0,0,7.8,8.5,18.1,3.4L205.2,114.4z"/>
	<path class="st16" d="M222.8,97.4c0,0-6.5-0.9-10.6,2.4c-4.1,3.2-9.7,9.7-9.7,9.7s1.4,6.2,4.4,9.6c0,0,2.5-1.5,5.2-4.6l-2.7,7.5
		c0,0,4.6,2.4,9.1,0.8c4.5-1.6,6.8-1.8,8.9-1.6L222.8,97.4z"/>
	<path class="st17" d="M217.7,97.5c1.2,4.1,4,12.9,8.4,17.2l-3.4-17.3C222.8,97.4,220.5,97.1,217.7,97.5z"/>
	<path class="st13" d="M217.4,93.8c-0.1-0.3-0.6-0.1-0.7,0.1c0,0,0,0,0,0c0.1-1.2-0.1-2.6-0.6-2.7c-0.3-0.1-0.5,0.6-0.6,1.5
		c-2.6-2.4-6.3-7.9-5-9c0.8-0.7,4.6,0.7,6,1.7c6.7-1.2,17.8,5,17.9,7.3c0,0.7-1.1,1.8-6.2,1.3c7,3.7,11.9,13.6,12.4,15.3
		c1.9,5.9-11.9,9.2-23.6-13.6C217.3,95,217.6,94.2,217.4,93.8z"/>
	<path class="st17" d="M215.6,109.5c-1.2,2.2-3.6,5-3.6,5l-2.7,7.5c0,0,1.9,1,4.4,1.3L215.6,109.5z"/>
	<path class="st19" d="M219.4,142.6c1,0,2-0.1,3.1-0.2c1-4.4,0.9-9.7,0.9-9.7C222.5,136,219.4,142.5,219.4,142.6z"/>
	<path class="st12" d="M212.5,155.5c-1.5-10.9-1-14.1-1-14.1c-1.5-0.5-3-1.2-4.4-2.1c0,2.6,0,5.5,0.3,8.6c1.2,15.7-3.8,38-4.9,43.2
		C202.5,191.1,214,166.4,212.5,155.5z"/>
	<path class="st13" d="M202.5,191.1h-2.9c-0.1,0-0.2-0.2-0.1-0.2c0.6-0.5,2-1.5,3.4-1.6L202.5,191.1z"/>
	<path class="st13" d="M230,191.1h-2.9c-0.1,0-0.2-0.2-0.1-0.2c0.6-0.5,1.4-1.5,2.8-1.5L230,191.1z"/>
</g>
<g>
	<g>
		
			<ellipse transform="matrix(0.9998 -2.172380e-02 2.172380e-02 0.9998 -1.4288 5.2794)" class="st14" cx="242.3" cy="68.4" rx="9.8" ry="9.8"/>
		<path class="st14" d="M234.8,73l2.9,2.9l-6.9,4.3c-0.1,0.1-0.2,0.1-0.3,0c-0.1-0.1-0.1-0.2,0-0.3L234.8,73z"/>
		<path class="st0" d="M242.3,63.2c-1.4,0-2.8,0.6-3.7,1.5c-0.9,0.9-1.5,2.3-1.5,3.7c0,1.1,0.4,2.2,1,3.1c1.1-1,2.6-1.7,4.3-1.7
			s3.1,0.6,4.3,1.7c0.6-0.9,1-1.9,1-3.1c0-1.4-0.6-2.8-1.5-3.7C245,63.7,243.7,63.2,242.3,63.2L242.3,63.2z M240.6,66
			c-0.3-1.8,3.7-1.8,3.4,0c-0.2,0.9-0.6,1.9-1.4,2.5c-0.2,0.2-0.5,0.2-0.7,0C241.2,67.9,240.8,66.9,240.6,66L240.6,66z M242.3,62.1
			c3.5,0,6.3,2.8,6.3,6.3c0,3.5-2.8,6.3-6.3,6.3c-3.5,0-6.3-2.8-6.3-6.3C236,64.9,238.8,62.1,242.3,62.1z"/>
	</g>
	<g>
		<ellipse transform="matrix(0.8474 -0.531 0.531 0.8474 -31.5587 42.2517)" class="st16" cx="57.7" cy="76" rx="9.8" ry="9.8"/>
		<path class="st16" d="M65.2,80.6l-2.9,2.9l6.9,4.3c0.1,0.1,0.2,0.1,0.3,0c0.1-0.1,0.1-0.2,0-0.3L65.2,80.6z"/>
		<path class="st0" d="M57.7,70.8c-1.4,0-2.8,0.6-3.7,1.5c-0.9,0.9-1.5,2.3-1.5,3.7c0,1.4,0.6,2.8,1.5,3.7c0.9,0.9,2.3,1.5,3.7,1.5
			c1.4,0,2.8-0.6,3.7-1.5c0.9-0.9,1.5-2.3,1.5-3.7c0-1.4-0.6-2.8-1.5-3.7C60.5,71.4,59.2,70.8,57.7,70.8L57.7,70.8z M56.1,76
			c0-0.7,0.5-1.3,1.1-1.5v-1.8c0-0.3,0.2-0.5,0.5-0.5c0.3,0,0.5,0.2,0.5,0.5v1.8c0.5,0.2,0.8,0.5,1,1h1.8c0.3,0,0.5,0.2,0.5,0.5
			c0,0.3-0.2,0.5-0.5,0.5h-1.8c-0.2,0.6-0.8,1.1-1.5,1.1C56.8,77.7,56.1,76.9,56.1,76L56.1,76z M57.2,76c0-0.3,0.2-0.5,0.5-0.5
			c0.3,0,0.5,0.2,0.5,0.5c0,0.3-0.2,0.5-0.5,0.5C57.4,76.6,57.2,76.3,57.2,76L57.2,76z M51.4,76c0-3.5,2.8-6.3,6.3-6.3
			c3.5,0,6.3,2.8,6.3,6.3c0,3.5-2.8,6.3-6.3,6.3C54.2,82.3,51.4,79.5,51.4,76z"/>
	</g>
</g>
<path class="st9" d="M255.9,85.3c-3,0-5.3,2.4-5.3,5.3c0,1.9,2.3,5.8,3.9,8.2c0.2,0.3,0.5,0.4,0.8,0.4h0.3v0.4H255v0.9
	c0,0.2,0.2,0.4,0.4,0.4h0.9c0.2,0,0.4-0.2,0.4-0.4v-0.9h-0.5v-0.4h0.3c0.3,0,0.6-0.2,0.8-0.4c1.6-2.4,3.9-6.3,3.9-8.2
	C261.2,87.7,258.8,85.3,255.9,85.3z"/>
<g>
	<path class="st16" d="M188.2,38.7H219c1,0,2,0.8,2.3,1.8l4.4,16.4c0.3,1-0.3,1.8-1.3,1.8h-30.8c-1,0-2-0.8-2.3-1.8l-4.4-16.4
		C186.6,39.5,187.2,38.7,188.2,38.7z"/>
	<g>
		<path class="st0" d="M197.2,47.3h0.6l-0.6-2.2h0.9l-0.1-0.5h-2.4l0.1,0.5h0.9L197.2,47.3L197.2,47.3z M199.7,45.2
			c-0.3,0-0.5,0.1-0.6,0.3l-0.3-1h-0.6l0.8,2.9h0.6l-0.3-1.1c-0.1-0.4,0.1-0.6,0.4-0.6c0.3,0,0.5,0.2,0.6,0.5l0.3,1.1h0.6l-0.3-1.2
			C200.7,45.5,200.2,45.2,199.7,45.2L199.7,45.2z M202.7,45.2h0.6l0.6,2.1h-0.6l-0.1-0.3c-0.1,0.2-0.3,0.3-0.6,0.3
			c-0.5,0-1-0.3-1.2-1l-0.3-1.2h0.6l0.3,1.1c0.1,0.4,0.3,0.5,0.6,0.5c0.3,0,0.4-0.2,0.3-0.6L202.7,45.2L202.7,45.2z M204.6,45.5
			l-0.1-0.3h-0.6l0.6,2.1h0.6l-0.3-1c-0.1-0.4,0.1-0.6,0.4-0.6c0,0,0.1,0,0.1,0l-0.2-0.6C204.9,45.2,204.7,45.3,204.6,45.5
			L204.6,45.5z M206.9,47.4c0.6,0,0.9-0.3,0.8-0.7c-0.2-0.8-1.4-0.5-1.5-0.8c0-0.1,0.1-0.2,0.3-0.2c0.2,0,0.4,0,0.7,0.2l0.1-0.4
			c-0.2-0.1-0.6-0.2-0.9-0.2c-0.6,0-0.9,0.3-0.8,0.7c0.2,0.8,1.4,0.5,1.5,0.8c0,0.1-0.1,0.2-0.3,0.2c-0.3,0-0.6-0.1-0.8-0.2
			l-0.1,0.4C206.1,47.3,206.5,47.4,206.9,47.4L206.9,47.4z M209,44.4h0.6l0.8,2.9h-0.6l-0.1-0.2c-0.1,0.2-0.3,0.3-0.6,0.3
			c-0.6,0-1.2-0.4-1.4-1.1c-0.2-0.7,0.2-1.1,0.8-1.1c0.3,0,0.5,0.1,0.7,0.3L209,44.4L209,44.4z M209.2,46.9c0.3,0,0.5-0.2,0.4-0.6
			c-0.1-0.4-0.4-0.6-0.7-0.6c-0.3,0-0.5,0.2-0.4,0.6C208.5,46.6,208.8,46.9,209.2,46.9L209.2,46.9z M211.3,45.2
			c-0.3,0-0.7,0.1-0.8,0.3l0.3,0.4c0.1-0.1,0.3-0.2,0.6-0.2c0.3,0,0.5,0.2,0.6,0.4h-0.5c-0.6,0-0.8,0.3-0.7,0.6
			c0.1,0.4,0.5,0.6,1,0.6c0.3,0,0.5-0.1,0.6-0.3l0.1,0.3h0.6l-0.3-1.2C212.4,45.5,211.9,45.2,211.3,45.2L211.3,45.2z M211.7,47
			c-0.2,0-0.4-0.1-0.4-0.3c0-0.1,0-0.2,0.3-0.2h0.4l0.1,0.2C212.1,46.9,211.9,47,211.7,47L211.7,47z M214.3,45.2h0.6l-0.4,2.3
			c-0.1,0.5-0.3,0.7-0.7,0.7c-0.2,0-0.5-0.1-0.6-0.2l0.1-0.4c0.1,0.1,0.3,0.1,0.4,0.1c0.2,0,0.2-0.1,0.3-0.3l0,0l-1.5-2.1h0.6l1,1.4
			L214.3,45.2z"/>
		<path class="st0" d="M200.5,50.2l0.1,0.5h0.6l0.6,2.3h0.6l-0.7-2.8H200.5L200.5,50.2z M204.1,53c-0.7,0-1.3-0.5-1.6-1.4
			c-0.2-0.9,0.1-1.4,0.8-1.4c0.7,0,1.3,0.5,1.6,1.4C205.2,52.5,204.8,53,204.1,53L204.1,53z M204,52.5c0.3,0,0.5-0.3,0.3-0.9
			c-0.2-0.6-0.5-0.9-0.8-0.9c-0.3,0-0.5,0.3-0.3,0.9C203.4,52.2,203.7,52.5,204,52.5L204,52.5z M206.7,51.6c0.2,0,0.3-0.2,0.3-0.4
			c-0.1-0.2-0.3-0.4-0.5-0.4c-0.2,0-0.3,0.2-0.3,0.4C206.3,51.4,206.5,51.6,206.7,51.6L206.7,51.6z M207.1,53c0.2,0,0.3-0.2,0.3-0.4
			c-0.1-0.2-0.3-0.4-0.5-0.4c-0.2,0-0.3,0.2-0.3,0.4C206.7,52.8,206.9,53,207.1,53L207.1,53z M209.6,52.4l0.5-0.6
			c0.3-0.4,0.3-0.6,0.2-0.9c-0.1-0.5-0.6-0.8-1.2-0.8c-0.5,0-0.8,0.2-1,0.5l0.5,0.3c0.1-0.2,0.3-0.3,0.5-0.3c0.3,0,0.5,0.1,0.5,0.3
			c0,0.1,0,0.3-0.2,0.5l-0.8,1l0.1,0.4h2.1l-0.1-0.5H209.6L209.6,52.4z M212.4,53c-0.7,0-1.3-0.5-1.6-1.4c-0.2-0.9,0.1-1.4,0.8-1.4
			c0.7,0,1.3,0.5,1.6,1.4C213.5,52.5,213.1,53,212.4,53L212.4,53z M212.3,52.5c0.3,0,0.5-0.3,0.3-0.9c-0.2-0.6-0.5-0.9-0.8-0.9
			c-0.3,0-0.5,0.3-0.3,0.9C211.7,52.2,211.9,52.5,212.3,52.5z"/>
	</g>
	<path class="st16" d="M210.7,58.4l2.2,8.1c0,0.1,0,0.2-0.1,0.2c-0.1,0-0.2,0-0.2-0.1l-5.5-8.2H210.7z"/>
</g>
<g>
	<path class="st20" d="M111.8,38.7H81c-1,0-2,0.8-2.3,1.8l-4.4,16.4c-0.3,1,0.3,1.8,1.3,1.8h30.8c1,0,2-0.8,2.3-1.8l4.4-16.4
		C113.4,39.5,112.8,38.7,111.8,38.7z"/>
	<g>
		<path class="st0" d="M83.8,47.4c0.5,0,0.9-0.2,1.3-0.5l-0.3-0.4c-0.2,0.2-0.5,0.3-0.8,0.3c-0.5,0-0.8-0.4-0.6-0.9
			c0.1-0.5,0.6-0.9,1.1-0.9c0.3,0,0.5,0.1,0.6,0.3l0.5-0.4c-0.2-0.3-0.5-0.5-1-0.5c-0.9,0-1.7,0.6-1.9,1.4
			C82.4,46.8,82.9,47.4,83.8,47.4L83.8,47.4z M86.3,47.4c-0.7,0-1-0.5-0.9-1.1c0.2-0.6,0.8-1.1,1.5-1.1c0.7,0,1,0.5,0.9,1.1
			C87.6,46.9,87,47.4,86.3,47.4L86.3,47.4z M86.4,46.9c0.3,0,0.6-0.2,0.7-0.6c0.1-0.4-0.1-0.6-0.4-0.6c-0.3,0-0.6,0.2-0.7,0.6
			C85.9,46.6,86.1,46.9,86.4,46.9L86.4,46.9z M89.7,45.2c-0.3,0-0.6,0.1-0.8,0.3l0.1-0.2h-0.6l-0.6,2.1h0.6l0.3-1.1
			c0.1-0.4,0.4-0.6,0.7-0.6c0.3,0,0.4,0.2,0.3,0.5l-0.3,1.1H90l0.3-1.2C90.5,45.5,90.2,45.2,89.7,45.2L89.7,45.2z M91.8,45.2
			c0.1-0.2,0.2-0.3,0.4-0.3c0.1,0,0.2,0,0.2,0.1l0.3-0.4c-0.1-0.1-0.3-0.1-0.4-0.1c-0.5,0-0.9,0.3-1,0.8l0,0.1h-0.3l-0.1,0.5h0.3
			l-0.4,1.6h0.6l0.4-1.6h0.5l0.1-0.5L91.8,45.2L91.8,45.2L91.8,45.2z M94.5,46.3c0,0,0,0.1-0.1,0.2h-1.6c0,0.3,0.2,0.4,0.5,0.4
			c0.2,0,0.4-0.1,0.6-0.2l0.2,0.4c-0.3,0.2-0.6,0.3-1,0.3c-0.7,0-1.1-0.5-0.9-1.1c0.2-0.6,0.8-1.1,1.4-1.1
			C94.3,45.2,94.6,45.6,94.5,46.3L94.5,46.3z M93.5,45.6c-0.3,0-0.5,0.2-0.6,0.4h1C94,45.8,93.8,45.6,93.5,45.6L93.5,45.6z
			 M95.7,45.5l0.1-0.3h-0.6l-0.6,2.1h0.6l0.3-1c0.1-0.4,0.4-0.6,0.7-0.6c0,0,0.1,0,0.1,0l0.2-0.6C96.2,45.2,95.9,45.3,95.7,45.5
			L95.7,45.5z M98.6,46.3c0,0,0,0.1-0.1,0.2H97c0,0.3,0.2,0.4,0.5,0.4c0.2,0,0.4-0.1,0.6-0.2l0.2,0.4c-0.3,0.2-0.6,0.3-1,0.3
			c-0.7,0-1.1-0.5-0.9-1.1c0.2-0.6,0.8-1.1,1.4-1.1C98.4,45.2,98.8,45.6,98.6,46.3L98.6,46.3z M97.7,45.6c-0.3,0-0.5,0.2-0.6,0.4h1
			C98.1,45.8,98,45.6,97.7,45.6L97.7,45.6z M100.6,45.2c-0.3,0-0.6,0.1-0.8,0.3l0.1-0.2h-0.6l-0.6,2.1h0.6l0.3-1.1
			c0.1-0.4,0.4-0.6,0.7-0.6c0.3,0,0.4,0.2,0.3,0.5l-0.3,1.1h0.6l0.3-1.2C101.4,45.5,101.1,45.2,100.6,45.2L100.6,45.2z M102.5,47.4
			c0.4,0,0.9-0.2,1.1-0.5l-0.4-0.3c-0.2,0.2-0.4,0.3-0.6,0.3c-0.3,0-0.5-0.2-0.4-0.6c0.1-0.4,0.4-0.6,0.7-0.6c0.2,0,0.3,0.1,0.4,0.3
			l0.5-0.3c-0.1-0.3-0.4-0.5-0.8-0.5c-0.7,0-1.3,0.5-1.5,1.1C101.5,46.9,101.8,47.4,102.5,47.4L102.5,47.4z M106.2,46.3
			c0,0,0,0.1-0.1,0.2h-1.6c0,0.3,0.2,0.4,0.5,0.4c0.2,0,0.4-0.1,0.6-0.2l0.2,0.4c-0.3,0.2-0.6,0.3-1,0.3c-0.7,0-1.1-0.5-0.9-1.1
			c0.2-0.6,0.8-1.1,1.4-1.1C106,45.2,106.3,45.6,106.2,46.3L106.2,46.3z M105.2,45.6c-0.3,0-0.5,0.2-0.6,0.4h1
			C105.7,45.8,105.5,45.6,105.2,45.6z"/>
		<path class="st0" d="M87.1,50.2L87,50.7h0.6L86.9,53h0.6l0.7-2.8H87.1L87.1,50.2z M90.9,51.9l-0.1,0.5h-0.5L90.1,53h-0.6l0.2-0.6
			h-1.5l0.1-0.4l1.8-1.8h0.7l-1.7,1.7h0.7l0.1-0.5h0.6l-0.1,0.5H90.9L90.9,51.9z M92.7,51.6c0.2,0,0.4-0.2,0.5-0.4
			c0.1-0.2-0.1-0.4-0.3-0.4c-0.2,0-0.4,0.2-0.5,0.4C92.3,51.4,92.4,51.6,92.7,51.6L92.7,51.6z M92.3,53c0.2,0,0.4-0.2,0.5-0.4
			c0.1-0.2-0.1-0.4-0.3-0.4c-0.2,0-0.4,0.2-0.5,0.4C91.9,52.8,92.1,53,92.3,53L92.3,53z M95.8,51.3l0.8-0.7l0.1-0.4h-1.9l-0.1,0.5
			h1.2l-0.7,0.6L95,51.8h0.3c0.4,0,0.5,0.1,0.4,0.3c-0.1,0.2-0.3,0.4-0.6,0.4c-0.3,0-0.6-0.1-0.7-0.2L94,52.7c0.2,0.2,0.6,0.3,1,0.3
			c0.8,0,1.3-0.4,1.4-0.9C96.5,51.7,96.3,51.4,95.8,51.3L95.8,51.3z M97.6,53c-0.7,0-1-0.5-0.8-1.4c0.2-0.9,0.9-1.4,1.6-1.4
			c0.7,0,1,0.5,0.8,1.4C98.9,52.5,98.3,53,97.6,53L97.6,53z M97.7,52.5c0.3,0,0.6-0.3,0.8-0.9c0.2-0.6,0-0.9-0.3-0.9
			c-0.3,0-0.6,0.3-0.8,0.9C97.3,52.2,97.4,52.5,97.7,52.5z"/>
	</g>
	<path class="st20" d="M89.3,58.4l-2.2,8.1c0,0.1,0,0.2,0.1,0.2c0.1,0,0.2,0,0.2-0.1l5.5-8.2H89.3z"/>
</g>
</svg>
