<svg xmlns="http://www.w3.org/2000/svg" viewBox="0 0 48 48" width="96px" height="96px"><path fill="#64B5F6" d="M34.865,36.186l1.888-0.393l-0.521-2.596c0,0-0.67-2.918,0.91-5.094c-1.041-1.449-4.959-0.734-5.664,1.18c2.256,1.275,2.862,4.308,2.862,4.308L34.865,36.186z"/><path fill="#64B5F6" d="M41.865 36.698c0 0-4.917.038-5.112-.905-.196-.943-2.084-.552-1.888.393.195.943-4.327 2.871-4.327 2.871L30.732 40l11.328-2.359L41.865 36.698zM12.568 38.825l-1.948-.5.532-2.06c0 0 .838-3.011-.701-5.354 1.153-1.459 5.201-.526 5.843 1.503-2.411 1.22-3.196 4.354-3.196 4.354L12.568 38.825z"/><path fill="#64B5F6" d="M5.252,39.02c0,0,5.117,0.277,5.368-0.69c0.249-0.979,2.196-0.479,1.948,0.5c-0.252,0.974,4.366,3.198,4.366,3.198L16.686,43L5,39.992L5.252,39.02z"/><path fill="#90CAF9" d="M22.691 23.676c-1.054 4.273-4.701 10.215-9.57 8.961l0 0c-4.869-1.251-5.156-8.21-4.061-12.469C10.155 15.904 14.262 8 14.262 8L24 10.506C24 10.506 23.745 19.401 22.691 23.676zM25.739 20.629c.819 4.139 4.048 9.99 8.77 9.007l0 0c4.72-.981 5.306-7.629 4.446-11.757C38.096 13.75 34.514 6 34.514 6l-9.438 1.965C25.073 7.965 24.919 16.49 25.739 20.629z"/><g><path fill="#E3F2FD" d="M11.385 14.002c-.953 2.143-1.883 4.448-2.324 6.166-1.096 4.259-.809 11.218 4.061 12.469 4.869 1.254 8.517-4.688 9.57-8.961.627-2.541.969-6.707 1.146-9.674H11.385zM37.052 12H25.084c.05 2.777.205 6.359.655 8.629.819 4.139 4.048 9.99 8.77 9.007 4.72-.981 5.306-7.629 4.446-11.757C38.616 16.248 37.854 14.059 37.052 12z"/></g><g><path fill="#B2EBF2" d="M38.459 16.002H25.232c.103 1.704.258 3.369.507 4.627.819 4.139 4.048 9.99 8.77 9.007 4.72-.981 5.306-7.629 4.446-11.757C38.837 17.313 38.664 16.674 38.459 16.002zM9.751 18.002c-.282.777-.523 1.516-.69 2.166-1.096 4.259-.809 11.218 4.061 12.469 4.869 1.254 8.517-4.688 9.57-8.961.373-1.514.645-3.604.841-5.674H9.751z"/></g><g><path fill="#FFF" d="M13.578 14c-.594 1.303-1.199 2.7-1.696 4-.372.973-.685 1.89-.884 2.666-.538 2.09-.612 4.553-.192 6.428.454 2.029 1.4 3.243 2.813 3.605.276.072.552.107.819.107.035 0 .069-.012.104-.014-.792-.605-1.356-1.62-1.675-3.041-.42-1.875-.346-4.338.192-6.428.243-.946.652-2.107 1.135-3.328.526-1.33 1.139-2.729 1.723-4 .549-1.197 1.071-2.28 1.467-3.078l-2.063-.584C14.86 11.27 14.227 12.578 13.578 14zM29.639 19.954c-.211-1.062-.353-2.47-.447-3.954-.088-1.34-.135-2.736-.162-4C29.007 10.922 29 9.941 29 9.188l-1.938.406c0 .663.004 1.492.021 2.406.022 1.244.067 2.643.149 4 .096 1.58.242 3.1.468 4.24.6 3.026 2.847 7.505 5.764 7.505.207 0 .421-.022.636-.067.271-.056.514-.152.75-.273C32.204 26.891 30.2 22.786 29.639 19.954zM18 19A1 1 0 1 0 18 21 1 1 0 1 0 18 19z"/><path fill="#FFF" d="M15 23A1 1 0 1 0 15 25 1 1 0 1 0 15 23zM17 27A1 1 0 1 0 17 29 1 1 0 1 0 17 27zM33 18A1 1 0 1 0 33 20 1 1 0 1 0 33 18zM36 22A1 1 0 1 0 36 24 1 1 0 1 0 36 22z"/></g></svg>