<?xml version="1.0" encoding="utf-8"?>
<!-- Generator: Adobe Illustrator 24.2.1, SVG Export Plug-In . SVG Version: 6.00 Build 0)  -->
<svg version="1.1" id="_x3C_Layer_x3E_" xmlns="http://www.w3.org/2000/svg" xmlns:xlink="http://www.w3.org/1999/xlink" x="0px"
	 y="0px" viewBox="0 0 300 234.1" style="enable-background:new 0 0 300 234.1;" xml:space="preserve">
<style type="text/css">
	.st0{fill-rule:evenodd;clip-rule:evenodd;fill:#FFFFFF;}
	.st1{fill-rule:evenodd;clip-rule:evenodd;fill:url(#SVGID_1_);}
	.st2{fill-rule:evenodd;clip-rule:evenodd;fill:url(#SVGID_2_);}
	.st3{fill-rule:evenodd;clip-rule:evenodd;fill:url(#SVGID_3_);}
	.st4{fill-rule:evenodd;clip-rule:evenodd;fill:#BAC8FF;}
	.st5{fill-rule:evenodd;clip-rule:evenodd;fill:#DBE4FF;}
	.st6{fill-rule:evenodd;clip-rule:evenodd;fill:#7B93F6;}
	.st7{fill-rule:evenodd;clip-rule:evenodd;fill:#E64980;}
	.st8{fill-rule:evenodd;clip-rule:evenodd;fill:url(#SVGID_4_);}
	.st9{fill-rule:evenodd;clip-rule:evenodd;fill:#FFECF3;}
	.st10{fill-rule:evenodd;clip-rule:evenodd;fill:#F8A0C0;}
	.st11{fill-rule:evenodd;clip-rule:evenodd;fill:#FAC0D5;}
	.st12{fill-rule:evenodd;clip-rule:evenodd;fill:#FAD0E0;}
	.st13{fill-rule:evenodd;clip-rule:evenodd;fill:#D6336C;}
	.st14{fill-rule:evenodd;clip-rule:evenodd;fill:#212529;}
	.st15{fill-rule:evenodd;clip-rule:evenodd;fill:#FFA8A8;}
	.st16{fill-rule:evenodd;clip-rule:evenodd;fill:#FF8787;}
	.st17{fill-rule:evenodd;clip-rule:evenodd;fill:#FFD43B;}
	.st18{fill-rule:evenodd;clip-rule:evenodd;fill:#FAB005;}
	.st19{fill-rule:evenodd;clip-rule:evenodd;}
	.st20{fill-rule:evenodd;clip-rule:evenodd;fill:#4B6EF3;}
	.st21{fill-rule:evenodd;clip-rule:evenodd;fill:#2F5DDD;}
	.st22{fill-rule:evenodd;clip-rule:evenodd;fill:#FBDE69;}
	.st23{fill-rule:evenodd;clip-rule:evenodd;fill:#E5791F;}
	.st24{fill-rule:evenodd;clip-rule:evenodd;fill:#ED8C1D;}
	.st25{fill-rule:evenodd;clip-rule:evenodd;fill:#F9C228;}
	.st26{fill-rule:evenodd;clip-rule:evenodd;fill:#F49F1D;}
</style>
<rect class="st0" width="300" height="234.1"/>
<g>
	<linearGradient id="SVGID_1_" gradientUnits="userSpaceOnUse" x1="149.9989" y1="92.0604" x2="150.0005" y2="220.5536">
		<stop  offset="0" style="stop-color:#FCE5EF"/>
		<stop  offset="1" style="stop-color:#FFFFFF"/>
	</linearGradient>
	<polygon class="st1" points="216.3,183.2 214.8,183.2 207.8,183.2 203.1,183.2 199.8,183.2 194.7,183.2 192.7,183.2 180.1,183.2 
		178.1,183.2 134.6,183.2 113.1,183.2 83.4,183.2 76.2,183.2 72.1,183.2 71.3,183.2 66.6,183.2 55.6,183.2 52.3,183.2 52.3,172.5 
		55.6,172.5 55.6,157.4 56.9,157.4 56.9,153.2 65.3,153.2 65.3,157.4 66.6,157.4 66.6,177.9 71.3,177.9 71.3,152.1 71.3,152.1 
		71.3,147.4 75.6,147.4 79.3,152.1 83.4,152.1 83.4,173.5 99.7,173.5 99.7,140.1 104.4,140.1 108.6,145 113.1,145 113.1,160.8 
		134.6,160.8 134.6,138.5 137.2,138.5 137.2,133.1 150.3,133.1 150.3,138.5 152.9,138.5 152.9,167.8 159.5,167.8 159.5,142.4 
		164.3,142.4 168.5,144 173,144 173,164.5 178.1,164.5 178.1,138.2 180.1,138.2 180.1,130.8 192.7,130.8 192.7,138.2 194.7,138.2 
		194.7,173.9 199.8,173.9 199.8,165.4 199.8,165.4 199.8,162.7 202.6,162.7 203.1,163.3 203.1,154.3 207.9,154.3 212.1,158.6 
		216.6,158.6 216.6,170.4 227.3,170.4 227.3,157.6 229,157.6 229,153.3 230.4,153.3 230.4,146.1 236.3,146.1 236.3,153.3 
		237.6,153.3 237.6,157.6 239.3,157.6 239.3,173.4 241.3,174.4 247.7,174.4 247.7,183.2 239.3,183.2 227.3,183.2 216.6,183.2 	"/>
	<linearGradient id="SVGID_2_" gradientUnits="userSpaceOnUse" x1="149.9999" y1="162.0139" x2="150" y2="196.9896">
		<stop  offset="0" style="stop-color:#DBE4FF"/>
		<stop  offset="1" style="stop-color:#FFFFFF"/>
	</linearGradient>
	<path class="st2" d="M275.7,185.5c-8.3-1.6-17.1-2.9-26.3-3.9c1-0.6,1.9-1.3,1.8-1.6c-0.2-0.4-2.7-0.5-3.5,0.1
		c0.8-1.4,2-4.7,1.5-5.1c-0.5-0.3-2.8,2.4-3.5,3.4c0.6-2.9,1.2-6.3,0.4-6.4c-0.8-0.1-2.1,4.3-2.5,5.6c-0.3-1.4-1.7-2.6-2.1-2.4
		c-0.4,0.2-0.1,2.2,0.2,2.8c-1.4-0.8-5.2-2.4-5.5-2c-0.3,0.4,2.5,3.2,3.9,3.9c-1.5-0.3-2.5-0.5-2.7-0.1c-0.1,0.1,0.1,0.4,0.5,0.6
		c-21.2-1.9-43.9-2.6-66.4-2.7c0-0.1,0-0.1,0-0.1c-0.4-0.7-2-0.5-4.5-0.2c2.4-1,7.5-5.2,7.1-5.9c-0.4-0.7-7,1.4-9.5,2.5
		c0.6-1,1.4-4.3,0.7-4.7c-0.7-0.4-3.2,1.5-4,3.7c-0.5-2.1-1.9-9.6-3.2-9.6c-1.3,0-0.9,5.8-0.4,10.6c-0.9-1.6-4.3-6.5-5.2-6
		c-0.9,0.5,0.6,6.2,1.6,8.6c-1.2-1-5.4-1.3-5.8-0.6c-0.2,0.3,0.5,1.1,1.4,1.9c-29.4,0.5-57.3,2-79.3,3.6c0.2-0.2,0.3-0.4,0.2-0.5
		c-0.2-0.4-2.7-0.5-3.5,0.1c0.8-1.4,2-4.7,1.5-5.1c-0.5-0.3-2.8,2.4-3.5,3.4c0.6-2.9,1.2-6.3,0.4-6.4c-0.8-0.1-2.1,4.3-2.5,5.6
		c-0.3-1.4-1.7-2.6-2.1-2.4c-0.4,0.2-0.1,2.2,0.2,2.8c-1.4-0.8-5.2-2.4-5.5-2c-0.3,0.4,2.5,3.2,3.9,3.9c-1.5-0.3-2.5-0.5-2.7-0.1
		c-0.2,0.2,0.9,1,1.9,1.6c-1.2,0.1-2.4,0.2-3.5,0.3c0.3-0.2,0.5-0.4,0.4-0.5c-0.1-0.1-1,0-1.2,0.2c0.2-0.5,0.5-1.7,0.3-1.8
		c-0.2-0.1-0.8,0.9-1,1.3c0.1-1,0.1-2.2-0.2-2.2c-0.3,0-0.5,1.6-0.6,2c-0.2-0.5-0.7-0.8-0.9-0.7c-0.1,0.1,0.1,0.8,0.2,1
		c-0.5-0.2-1.9-0.6-2-0.5c-0.1,0.1,1,1,1.5,1.2c-0.5,0-0.9-0.1-0.9,0.1c0,0.1,0.2,0.2,0.5,0.4c-16.8,1.4-27,2.5-27,2.5H275.7z"/>
	<linearGradient id="SVGID_3_" gradientUnits="userSpaceOnUse" x1="218.0238" y1="49.4266" x2="218.0239" y2="71.6896">
		<stop  offset="0" style="stop-color:#FCE5EF"/>
		<stop  offset="1" style="stop-color:#FFFFFF"/>
	</linearGradient>
	<path class="st3" d="M177.3,65.2h81.4c0,0-6.1-0.4-10.2-3.9c-4.1-3.5-6-8.4-9.9-7.8c-3.9,0.6-1.9,5.3-1.9,5.3s-6.7-8.4-19.4-8
		c-12.8,0.3-7.4,8.5-7.4,8.5s-4.7-3.6-9-1.3c-4.3,2.3,0,5.3,4.4,4.6C205.3,62.6,204.5,64.1,177.3,65.2z"/>
	<g>
		<path class="st4" d="M88.5,89V40.2c0-5.6,4.6-10.2,10.2-10.2h102.6c5.6,0,10.2,4.6,10.2,10.2V89c0,5.6-4.6,10.2-10.2,10.2H98.7
			C93.1,99.2,88.5,94.6,88.5,89z"/>
		<path class="st5" d="M209.4,89c0,4.4-3.6,8-8,8H98.7c-4.4,0-8-3.6-8-8V40.2c0-4.4,3.6-8,8-8h102.6c4.4,0,8,3.6,8,8V89z"/>
		<path class="st0" d="M208,40.2v9.1c0,0.8-0.6,1.4-1.4,1.4h-0.6c-1.8,0-3.3,1.5-3.3,3.3v21.2c0,1.8,1.5,3.3,3.3,3.3h0.6
			c0.8,0,1.4,0.6,1.4,1.4V89c0,3.7-3,6.7-6.7,6.7H98.7c-3.7,0-6.7-3-6.7-6.7V40.2c0-3.7,3-6.7,6.7-6.7h102.6
			C205,33.5,208,36.5,208,40.2z"/>
		<path class="st6" d="M207,55.9v17.4c0,0.5-0.4,1-1,1c-0.5,0-1-0.4-1-1V55.9c0-0.5,0.4-1,1-1C206.5,54.9,207,55.4,207,55.9z"/>
		<path class="st6" d="M207,55.9v17.4c0,0.5-0.4,1-1,1c-0.5,0-1-0.4-1-1V55.9c0-0.5,0.4-1,1-1C206.5,54.9,207,55.4,207,55.9z"/>
		<g>
			<path class="st4" d="M201.3,33.5c3.7,0,6.7,3,6.7,6.7v9.1c0,0.8-0.6,1.4-1.4,1.4h-0.6c-1.8,0-3.3,1.5-3.3,3.3v21.2
				c0,1.8,1.5,3.3,3.3,3.3h0.6c0.8,0,1.4,0.6,1.4,1.4V89c0,3.7-3,6.7-6.7,6.7h-1.6V33.5H201.3z"/>
		</g>
		<path class="st5" d="M203.9,84.6v-0.2h0.3c0,0,0.1,0,0.1-0.1v-3.1c0,0,0-0.1-0.1-0.1h-1.4c0,0-0.1,0-0.1,0.1v3.1
			c0,0,0,0.1,0.1,0.1h0.3v0.2c0,0,0,0.1,0.1,0.1L203.9,84.6C203.8,84.7,203.9,84.6,203.9,84.6L203.9,84.6z M202.9,84.1L202.9,84.1
			v-0.8h1v0.8c0,0,0,0,0,0L202.9,84.1C203,84.1,202.9,84.1,202.9,84.1z"/>
		<g>
			<path class="st5" d="M203.7,87.7v-0.5c0,0,0-0.1-0.1-0.1h-1v0.6L203.7,87.7C203.7,87.8,203.7,87.8,203.7,87.7z"/>
			<path class="st5" d="M204.1,88.6v-0.5c0,0,0-0.1-0.1-0.1h-1.4v0.6L204.1,88.6C204.1,88.7,204.1,88.6,204.1,88.6z"/>
			<path class="st5" d="M204.5,89.4V89c0,0,0-0.1-0.1-0.1h-1.8v0.6L204.5,89.4C204.5,89.5,204.5,89.5,204.5,89.4z"/>
			<path class="st5" d="M205,90.3v-0.5c0,0,0-0.1-0.1-0.1h-2.2v0.6L205,90.3C204.9,90.4,205,90.3,205,90.3z"/>
		</g>
		<g>
			<path class="st5" d="M205.5,45.4c0.3-0.5,0.4-1,0.4-1.6c0-0.6-0.1-1.1-0.4-1.6c0-0.1-0.1-0.1-0.2-0.1c-0.1,0-0.1,0.1-0.1,0.1
				c0,0,0,0.1,0,0.1c0.2,0.4,0.4,0.9,0.4,1.4c0,0.5-0.1,1-0.4,1.4c0,0.1,0,0.2,0.1,0.2C205.4,45.5,205.5,45.5,205.5,45.4z"/>
			<path class="st5" d="M204.7,45c0.2-0.3,0.3-0.7,0.3-1.1c0-0.4-0.1-0.8-0.3-1.1c0-0.1-0.1-0.1-0.2-0.1c-0.1,0-0.1,0.1-0.1,0.2
				c0.2,0.3,0.3,0.6,0.3,1c0,0.3-0.1,0.7-0.3,1c0,0,0,0.1,0,0.1c0,0.1,0,0.1,0.1,0.1C204.6,45.1,204.7,45.1,204.7,45z"/>
			<path class="st5" d="M204,44.5c0.1-0.2,0.2-0.4,0.2-0.7c0-0.2-0.1-0.5-0.2-0.7c0-0.1-0.1-0.1-0.2-0.1c-0.1,0-0.1,0.1-0.1,0.2
				c0.1,0.1,0.1,0.3,0.1,0.5c0,0.2,0,0.3-0.1,0.5c0,0,0,0.1,0,0.1c0,0.1,0,0.1,0.1,0.1C203.8,44.6,203.9,44.6,204,44.5z"/>
			<path class="st5" d="M203.2,44.2C203.2,44.2,203.2,44.2,203.2,44.2C203.2,44.2,203.2,44.2,203.2,44.2c0.1-0.1,0.2-0.2,0.2-0.3
				c0-0.1-0.1-0.2-0.2-0.3c0,0,0,0,0,0c0,0,0,0,0,0c0,0,0,0,0,0c0,0-0.1,0-0.2,0c-0.2,0-0.3,0.1-0.3,0.3c0,0,0,0,0,0c0,0,0,0,0,0
				c0,0.2,0.2,0.3,0.3,0.3C203.1,44.2,203.1,44.2,203.2,44.2C203.2,44.2,203.2,44.2,203.2,44.2z"/>
		</g>
		<g>
			<g>
				<path class="st5" d="M100,41.8h41.3c1,0,1.8,0.8,1.8,1.8v16.5c0,1-0.8,1.8-1.8,1.8H100c-1,0-1.8-0.8-1.8-1.8V43.6
					C98.2,42.6,99,41.8,100,41.8L100,41.8z M141.3,42.1H100c-0.4,0-0.8,0.2-1.1,0.4c-0.3,0.3-0.4,0.7-0.4,1.1v16.5
					c0,0.4,0.2,0.8,0.4,1.1c0.3,0.3,0.7,0.4,1.1,0.4h41.3c0.4,0,0.8-0.2,1.1-0.4c0.3-0.3,0.4-0.7,0.4-1.1V43.6
					c0-0.4-0.2-0.8-0.4-1.1C142.1,42.2,141.8,42.1,141.3,42.1z"/>
			</g>
			<path class="st7" d="M109.9,44.8h-7.8c-0.5,0-0.8,0.4-0.8,0.8v7.8c0,0.5,0.4,0.8,0.8,0.8h7.8c0.5,0,0.8-0.4,0.8-0.8v-7.8
				C110.8,45.2,110.4,44.8,109.9,44.8z"/>
			<path class="st5" d="M114.3,51.5c-0.3,0-0.5-0.2-0.5-0.5c0-0.3,0.2-0.5,0.5-0.5h25.3c0.3,0,0.5,0.2,0.5,0.5
				c0,0.3-0.2,0.5-0.5,0.5H114.3z"/>
			<path class="st5" d="M122,47.8h-7.2c-0.6,0-1-0.5-1-1c0-0.6,0.5-1,1-1h7.2c0.6,0,1,0.5,1,1C123.1,47.3,122.6,47.8,122,47.8z"/>
			<g>
				<path class="st5" d="M138.2,48.6h-11.3c-1,0-1.9-0.8-1.9-1.9c0-1,0.8-1.9,1.9-1.9h11.3c1,0,1.9,0.8,1.9,1.9
					C140.1,47.8,139.2,48.6,138.2,48.6L138.2,48.6z M126.8,48.2h11.3c0.4,0,0.8-0.2,1.1-0.4c0.3-0.3,0.4-0.7,0.4-1.1
					c0-0.4-0.2-0.8-0.4-1.1c-0.3-0.3-0.7-0.4-1.1-0.4h-11.3c-0.4,0-0.8,0.2-1.1,0.4c-0.3,0.3-0.4,0.7-0.4,1.1c0,0.4,0.2,0.8,0.4,1.1
					C126,48.1,126.4,48.2,126.8,48.2z"/>
			</g>
			<path class="st7" d="M127.8,46l0.2,0.4l0.4,0.1c0,0,0,0,0,0c0,0,0,0,0,0l-0.3,0.3l0.1,0.4c0,0,0,0,0,0c0,0,0,0,0,0l-0.4-0.2
				l-0.4,0.2c0,0,0,0,0,0c0,0,0,0,0,0l0.1-0.4l-0.3-0.3c0,0,0,0,0,0c0,0,0,0,0,0l0.4-0.1L127.8,46C127.7,46,127.7,45.9,127.8,46
				C127.8,45.9,127.8,46,127.8,46z"/>
			<path class="st7" d="M130.2,46l0.2,0.4l0.4,0.1c0,0,0,0,0,0c0,0,0,0,0,0l-0.3,0.3l0.1,0.4c0,0,0,0,0,0c0,0,0,0,0,0l-0.4-0.2
				l-0.4,0.2c0,0,0,0,0,0c0,0,0,0,0,0l0.1-0.4l-0.3-0.3c0,0,0,0,0,0c0,0,0,0,0,0l0.4-0.1L130.2,46C130.1,46,130.1,45.9,130.2,46
				C130.2,45.9,130.2,46,130.2,46z"/>
			<path class="st7" d="M132.6,46l0.2,0.4l0.4,0.1c0,0,0,0,0,0c0,0,0,0,0,0l-0.3,0.3l0.1,0.4c0,0,0,0,0,0c0,0,0,0,0,0l-0.4-0.2
				l-0.4,0.2c0,0,0,0,0,0c0,0,0,0,0,0l0.1-0.4l-0.3-0.3c0,0,0,0,0,0c0,0,0,0,0,0l0.4-0.1L132.6,46C132.5,46,132.5,45.9,132.6,46
				C132.5,45.9,132.5,46,132.6,46z"/>
			<path class="st7" d="M134.9,46l0.2,0.4l0.4,0.1c0,0,0,0,0,0c0,0,0,0,0,0l-0.3,0.3l0.1,0.4c0,0,0,0,0,0c0,0,0,0,0,0l-0.4-0.2
				l-0.4,0.2c0,0,0,0,0,0c0,0,0,0,0,0l0.1-0.4l-0.3-0.3c0,0,0,0,0,0c0,0,0,0,0,0l0.4-0.1L134.9,46C134.9,46,134.9,45.9,134.9,46
				C134.9,45.9,134.9,46,134.9,46z"/>
			<path class="st5" d="M137.3,46l0.2,0.4l0.4,0.1c0,0,0,0,0,0c0,0,0,0,0,0l-0.3,0.3l0.1,0.4c0,0,0,0,0,0c0,0,0,0,0,0l-0.4-0.2
				l-0.4,0.2c0,0,0,0,0,0c0,0,0,0,0,0l0.1-0.4l-0.3-0.3c0,0,0,0,0,0c0,0,0,0,0,0l0.4-0.1L137.3,46C137.3,46,137.3,45.9,137.3,46
				C137.3,45.9,137.3,46,137.3,46z"/>
			<path class="st5" d="M114.3,53.6c-0.3,0-0.5-0.2-0.5-0.5c0-0.3,0.2-0.5,0.5-0.5h25.3c0.3,0,0.5,0.2,0.5,0.5
				c0,0.3-0.2,0.5-0.5,0.5H114.3z"/>
			<path class="st5" d="M114.3,55.7c-0.3,0-0.5-0.2-0.5-0.5c0-0.3,0.2-0.5,0.5-0.5h25.3c0.3,0,0.5,0.2,0.5,0.5
				c0,0.3-0.2,0.5-0.5,0.5H114.3z"/>
			<path class="st5" d="M130.1,57.9h-15.8c-0.3,0-0.5-0.2-0.5-0.5c0-0.3,0.2-0.5,0.5-0.5h15.8c0.3,0,0.5,0.2,0.5,0.5
				C130.5,57.7,130.3,57.9,130.1,57.9z"/>
			<path class="st0" d="M106,46.4c-0.5,0-0.9,0.1-1.3,0.3c0,0,0,0-0.1,0.1c0,0,0,0.1,0,0.1l0.2,0.3c0,0,0.1,0.1,0.1,0
				c0.3-0.1,0.7-0.2,1-0.2c0.4,0,0.7,0.1,1,0.2c0,0,0.1,0,0.1,0l0-0.1l0.2-0.3c0,0,0-0.1,0-0.1c0,0,0,0-0.1-0.1
				C107,46.5,106.5,46.4,106,46.4L106,46.4z M104.2,47c-0.7,0.5-1.2,1.3-1.3,2.3c0,0,0,0.1,0,0.1c0,0,0,0,0.1,0h0.4
				c0.1,0,0.1,0,0.1-0.1c0.1-0.7,0.5-1.4,1-1.8c0,0,0.1-0.1,0-0.1l-0.2-0.3C104.3,47,104.3,47,104.2,47
				C104.2,46.9,104.2,46.9,104.2,47L104.2,47z M102.9,49.9c0.1,0.9,0.6,1.8,1.3,2.3c0,0,0.1,0,0.1,0c0,0,0.1,0,0.1,0l0.2-0.3
				c0,0,0-0.1,0-0.1c-0.6-0.4-1-1.1-1-1.8c0-0.1,0-0.1-0.1-0.1H103C102.9,49.8,102.9,49.8,102.9,49.9
				C102.9,49.8,102.9,49.8,102.9,49.9L102.9,49.9z M104.7,52.5c0.4,0.2,0.9,0.3,1.3,0.3c0.5,0,0.9-0.1,1.3-0.3c0,0,0,0,0.1-0.1
				c0,0,0-0.1,0-0.1l-0.2-0.3c0,0-0.1-0.1-0.1,0c-0.3,0.1-0.7,0.2-1,0.2c-0.4,0-0.7-0.1-1-0.2c0,0-0.1,0-0.1,0l-0.2,0.3
				C104.7,52.4,104.6,52.4,104.7,52.5C104.7,52.4,104.7,52.5,104.7,52.5L104.7,52.5z M107.9,52.2c0.7-0.5,1.2-1.3,1.3-2.3
				c0,0,0-0.1,0-0.1c0,0,0,0-0.1,0h-0.4c-0.1,0-0.1,0-0.1,0.1c-0.1,0.7-0.5,1.4-1,1.8c0,0-0.1,0.1,0,0.1l0.2,0.3
				C107.8,52.2,107.8,52.2,107.9,52.2C107.8,52.2,107.9,52.2,107.9,52.2L107.9,52.2z M109.2,49.3c-0.1-0.9-0.6-1.8-1.3-2.3
				c0,0-0.1,0-0.1,0c0,0-0.1,0-0.1,0l-0.2,0.3l0,0c0,0,0,0.1,0,0.1c0.6,0.4,1,1.1,1,1.8c0,0.1,0,0.1,0.1,0.1h0.4
				C109.1,49.4,109.2,49.4,109.2,49.3C109.2,49.3,109.2,49.3,109.2,49.3L109.2,49.3z M106,47.4c-0.3,0-0.6,0.1-0.8,0.2
				c0,0,0,0-0.1,0.1c0,0,0,0.1,0,0.1l0.8,1.3c0,0,0,0,0.1,0c0,0,0.1,0,0.1,0l0.8-1.3c0,0,0-0.1,0-0.1c0,0,0,0-0.1-0.1
				C106.6,47.4,106.3,47.4,106,47.4L106,47.4z M104.7,47.8C104.7,47.8,104.7,47.8,104.7,47.8c0.1,0,0.1,0,0.1,0l0.8,1.3
				c0,0,0,0.1,0,0.1c0,0,0,0-0.1,0H104c0,0-0.1,0-0.1,0c0,0,0,0,0-0.1C103.9,48.7,104.2,48.2,104.7,47.8L104.7,47.8z M103.9,49.9
				C103.9,49.8,103.9,49.8,103.9,49.9c0-0.1,0.1-0.1,0.1-0.1h1.6c0,0,0.1,0,0.1,0c0,0,0,0.1,0,0.1l-0.8,1.3c0,0,0,0-0.1,0
				c0,0-0.1,0-0.1,0C104.2,50.9,103.9,50.4,103.9,49.9L103.9,49.9z M105.2,51.6c0.3,0.1,0.5,0.2,0.8,0.2c0.3,0,0.6-0.1,0.8-0.2
				c0,0,0,0,0.1-0.1c0,0,0-0.1,0-0.1L106,50l0,0l-0.9,1.5C105.2,51.5,105.2,51.5,105.2,51.6C105.2,51.6,105.2,51.6,105.2,51.6
				L105.2,51.6z M107.4,51.3C107.4,51.3,107.3,51.3,107.4,51.3c-0.1,0-0.1,0-0.1,0l-0.8-1.3c0,0,0-0.1,0-0.1c0,0,0,0,0.1,0h1.6
				c0,0,0.1,0,0.1,0c0,0,0,0,0,0.1C108.1,50.4,107.8,50.9,107.4,51.3L107.4,51.3z M108.2,49.2C108.2,49.3,108.2,49.3,108.2,49.2
				c0,0.1-0.1,0.1-0.1,0.1h-1.6c0,0-0.1,0-0.1,0c0,0,0-0.1,0-0.1l0.8-1.3c0,0,0,0,0.1,0c0,0,0.1,0,0.1,0
				C107.8,48.2,108.1,48.7,108.2,49.2L108.2,49.2z M106,47.8c0.1,0,0.2,0.1,0.2,0.2c0,0.1-0.1,0.2-0.2,0.2c-0.1,0-0.2-0.1-0.2-0.2
				C105.8,47.9,105.9,47.8,106,47.8L106,47.8z M107.6,48.7c0.1,0.1,0,0.2-0.1,0.3c-0.1,0.1-0.2,0-0.3-0.1c-0.1-0.1,0-0.2,0.1-0.3
				C107.4,48.5,107.5,48.6,107.6,48.7L107.6,48.7z M107.6,50.5c-0.1,0.1-0.2,0.1-0.3,0.1c-0.1-0.1-0.1-0.2-0.1-0.3
				c0.1-0.1,0.2-0.1,0.3-0.1C107.6,50.2,107.6,50.4,107.6,50.5L107.6,50.5z M106,51.4c-0.1,0-0.2-0.1-0.2-0.2c0-0.1,0.1-0.2,0.2-0.2
				c0.1,0,0.2,0.1,0.2,0.2C106.2,51.3,106.1,51.4,106,51.4L106,51.4z M104.5,50.5c-0.1-0.1,0-0.2,0.1-0.3c0.1-0.1,0.2,0,0.3,0.1
				c0.1,0.1,0,0.2-0.1,0.3C104.7,50.6,104.5,50.6,104.5,50.5L104.5,50.5z M104.5,48.7c0.1-0.1,0.2-0.1,0.3-0.1
				c0.1,0.1,0.1,0.2,0.1,0.3c-0.1,0.1-0.2,0.1-0.3,0.1C104.5,48.9,104.4,48.8,104.5,48.7z"/>
			<g>
				<path class="st5" d="M100,67.3h41.3c1,0,1.8,0.8,1.8,1.8v16.5c0,1-0.8,1.8-1.8,1.8H100c-1,0-1.8-0.8-1.8-1.8V69.1
					C98.2,68.1,99,67.3,100,67.3L100,67.3z M141.3,67.6H100c-0.4,0-0.8,0.2-1.1,0.4c-0.3,0.3-0.4,0.7-0.4,1.1v16.5
					c0,0.4,0.2,0.8,0.4,1.1c0.3,0.3,0.7,0.4,1.1,0.4h41.3c0.4,0,0.8-0.2,1.1-0.4c0.3-0.3,0.4-0.7,0.4-1.1V69.1
					c0-0.4-0.2-0.8-0.4-1.1C142.1,67.8,141.8,67.6,141.3,67.6z"/>
			</g>
			<path class="st7" d="M109.9,70.4h-7.8c-0.5,0-0.8,0.4-0.8,0.8V79c0,0.5,0.4,0.8,0.8,0.8h7.8c0.5,0,0.8-0.4,0.8-0.8v-7.8
				C110.8,70.8,110.4,70.4,109.9,70.4z"/>
			<path class="st5" d="M114.3,77.1c-0.3,0-0.5-0.2-0.5-0.5c0-0.3,0.2-0.5,0.5-0.5h25.3c0.3,0,0.5,0.2,0.5,0.5
				c0,0.3-0.2,0.5-0.5,0.5H114.3z"/>
			<path class="st5" d="M122,73.3h-7.2c-0.6,0-1-0.5-1-1c0-0.6,0.5-1,1-1h7.2c0.6,0,1,0.5,1,1C123.1,72.9,122.6,73.3,122,73.3z"/>
			<g>
				<path class="st5" d="M138.2,74.2h-11.3c-1,0-1.9-0.8-1.9-1.9c0-1,0.8-1.9,1.9-1.9h11.3c1,0,1.9,0.8,1.9,1.9
					C140.1,73.3,139.2,74.2,138.2,74.2L138.2,74.2z M126.8,73.8h11.3c0.4,0,0.8-0.2,1.1-0.4c0.3-0.3,0.4-0.7,0.4-1.1
					c0-0.4-0.2-0.8-0.4-1.1c-0.3-0.3-0.7-0.4-1.1-0.4h-11.3c-0.4,0-0.8,0.2-1.1,0.4l0,0c-0.3,0.3-0.4,0.7-0.4,1.1
					c0,0.4,0.2,0.8,0.4,1.1C126,73.6,126.4,73.8,126.8,73.8z"/>
			</g>
			<path class="st7" d="M127.8,71.5l0.2,0.4l0.4,0.1c0,0,0,0,0,0c0,0,0,0,0,0l-0.3,0.3l0.1,0.4c0,0,0,0,0,0c0,0,0,0,0,0l-0.4-0.2
				l-0.4,0.2c0,0,0,0,0,0c0,0,0,0,0,0l0.1-0.4l-0.3-0.3c0,0,0,0,0,0c0,0,0,0,0,0l0.4-0.1L127.8,71.5
				C127.7,71.5,127.7,71.5,127.8,71.5C127.8,71.5,127.8,71.5,127.8,71.5z"/>
			<path class="st7" d="M130.2,71.5l0.2,0.4l0.4,0.1c0,0,0,0,0,0c0,0,0,0,0,0l-0.3,0.3l0.1,0.4c0,0,0,0,0,0c0,0,0,0,0,0l-0.4-0.2
				l-0.4,0.2c0,0,0,0,0,0c0,0,0,0,0,0l0.1-0.4l-0.3-0.3c0,0,0,0,0,0c0,0,0,0,0,0l0.4-0.1L130.2,71.5
				C130.1,71.5,130.1,71.5,130.2,71.5C130.2,71.5,130.2,71.5,130.2,71.5z"/>
			<path class="st7" d="M132.6,71.5l0.2,0.4l0.4,0.1c0,0,0,0,0,0c0,0,0,0,0,0l-0.3,0.3l0.1,0.4c0,0,0,0,0,0c0,0,0,0,0,0l-0.4-0.2
				l-0.4,0.2c0,0,0,0,0,0c0,0,0,0,0,0l0.1-0.4l-0.3-0.3c0,0,0,0,0,0c0,0,0,0,0,0l0.4-0.1L132.6,71.5
				C132.5,71.5,132.5,71.5,132.6,71.5C132.5,71.5,132.5,71.5,132.6,71.5z"/>
			<path class="st5" d="M134.9,71.5l0.2,0.4l0.4,0.1c0,0,0,0,0,0c0,0,0,0,0,0l-0.3,0.3l0.1,0.4c0,0,0,0,0,0c0,0,0,0,0,0l-0.4-0.2
				l-0.4,0.2c0,0,0,0,0,0c0,0,0,0,0,0l0.1-0.4l-0.3-0.3c0,0,0,0,0,0c0,0,0,0,0,0l0.4-0.1L134.9,71.5
				C134.9,71.5,134.9,71.5,134.9,71.5C134.9,71.5,134.9,71.5,134.9,71.5z"/>
			<path class="st5" d="M137.3,71.5l0.2,0.4L138,72c0,0,0,0,0,0c0,0,0,0,0,0l-0.3,0.3l0.1,0.4c0,0,0,0,0,0c0,0,0,0,0,0l-0.4-0.2
				l-0.4,0.2c0,0,0,0,0,0c0,0,0,0,0,0l0.1-0.4l-0.3-0.3c0,0,0,0,0,0c0,0,0,0,0,0l0.4-0.1L137.3,71.5
				C137.3,71.5,137.3,71.5,137.3,71.5C137.3,71.5,137.3,71.5,137.3,71.5z"/>
			<path class="st5" d="M114.3,79.2c-0.3,0-0.5-0.2-0.5-0.5c0-0.3,0.2-0.5,0.5-0.5h25.3c0.3,0,0.5,0.2,0.5,0.5
				c0,0.3-0.2,0.5-0.5,0.5H114.3z"/>
			<path class="st5" d="M114.3,81.3c-0.3,0-0.5-0.2-0.5-0.5c0-0.3,0.2-0.5,0.5-0.5h25.3c0.3,0,0.5,0.2,0.5,0.5
				c0,0.3-0.2,0.5-0.5,0.5H114.3z"/>
			<path class="st5" d="M130.1,83.4h-15.8c-0.3,0-0.5-0.2-0.5-0.5c0-0.3,0.2-0.5,0.5-0.5h15.8c0.3,0,0.5,0.2,0.5,0.5
				C130.5,83.2,130.3,83.4,130.1,83.4z"/>
			<g>
				<path class="st5" d="M150.4,41.8h41.3c1,0,1.8,0.8,1.8,1.8v16.5c0,1-0.8,1.8-1.8,1.8h-41.3c-1,0-1.8-0.8-1.8-1.8V43.6
					C148.6,42.6,149.4,41.8,150.4,41.8L150.4,41.8z M191.7,42.1h-41.3c-0.4,0-0.8,0.2-1.1,0.4c-0.3,0.3-0.4,0.7-0.4,1.1v16.5
					c0,0.4,0.2,0.8,0.4,1.1c0.3,0.3,0.7,0.4,1.1,0.4h41.3c0.4,0,0.8-0.2,1.1-0.4c0.3-0.3,0.4-0.7,0.4-1.1V43.6
					c0-0.4-0.2-0.8-0.4-1.1C192.5,42.2,192.1,42.1,191.7,42.1z"/>
			</g>
			<path class="st7" d="M160.3,44.8h-7.8c-0.5,0-0.8,0.4-0.8,0.8v7.8c0,0.5,0.4,0.8,0.8,0.8h7.8c0.5,0,0.8-0.4,0.8-0.8v-7.8
				C161.1,45.2,160.7,44.8,160.3,44.8z"/>
			<path class="st5" d="M164.6,51.5c-0.3,0-0.5-0.2-0.5-0.5c0-0.3,0.2-0.5,0.5-0.5h25.3c0.3,0,0.5,0.2,0.5,0.5
				c0,0.3-0.2,0.5-0.5,0.5H164.6z"/>
			<path class="st5" d="M172.4,47.8h-7.2c-0.6,0-1-0.5-1-1c0-0.6,0.5-1,1-1h7.2c0.6,0,1,0.5,1,1C173.4,47.3,172.9,47.8,172.4,47.8z"
				/>
			<g>
				<path class="st5" d="M188.5,48.6h-11.3c-1,0-1.9-0.8-1.9-1.9c0-1,0.8-1.9,1.9-1.9h11.3c1,0,1.9,0.8,1.9,1.9
					C190.4,47.8,189.6,48.6,188.5,48.6L188.5,48.6z M177.2,48.2h11.3c0.4,0,0.8-0.2,1.1-0.4c0.3-0.3,0.4-0.7,0.4-1.1
					c0-0.4-0.2-0.8-0.4-1.1c-0.3-0.3-0.7-0.4-1.1-0.4h-11.3c-0.4,0-0.8,0.2-1.1,0.4c-0.3,0.3-0.4,0.7-0.4,1.1c0,0.4,0.2,0.8,0.4,1.1
					C176.4,48.1,176.8,48.2,177.2,48.2z"/>
			</g>
			<path class="st7" d="M178.1,46l0.2,0.4l0.4,0.1c0,0,0,0,0,0c0,0,0,0,0,0l-0.3,0.3l0.1,0.4c0,0,0,0,0,0c0,0,0,0,0,0l-0.4-0.2
				l-0.4,0.2c0,0,0,0,0,0c0,0,0,0,0,0l0.1-0.4l-0.3-0.3c0,0,0,0,0,0c0,0,0,0,0,0l0.4-0.1L178.1,46C178,46,178.1,45.9,178.1,46
				C178.1,45.9,178.1,46,178.1,46z"/>
			<path class="st7" d="M180.5,46l0.2,0.4l0.4,0.1c0,0,0,0,0,0c0,0,0,0,0,0l-0.3,0.3l0.1,0.4c0,0,0,0,0,0c0,0,0,0,0,0l-0.4-0.2
				l-0.4,0.2c0,0,0,0,0,0c0,0,0,0,0,0l0.1-0.4l-0.3-0.3c0,0,0,0,0,0c0,0,0,0,0,0l0.4-0.1L180.5,46C180.4,46,180.4,45.9,180.5,46
				C180.5,45.9,180.5,46,180.5,46z"/>
			<path class="st7" d="M182.9,46l0.2,0.4l0.4,0.1c0,0,0,0,0,0c0,0,0,0,0,0l-0.3,0.3l0.1,0.4c0,0,0,0,0,0c0,0,0,0,0,0l-0.4-0.2
				l-0.4,0.2c0,0,0,0,0,0c0,0,0,0,0,0l0.1-0.4l-0.3-0.3c0,0,0,0,0,0c0,0,0,0,0,0l0.4-0.1L182.9,46C182.8,46,182.8,45.9,182.9,46
				C182.9,45.9,182.9,46,182.9,46z"/>
			<path class="st5" d="M185.3,46l0.2,0.4l0.4,0.1c0,0,0,0,0,0c0,0,0,0,0,0l-0.3,0.3l0.1,0.4c0,0,0,0,0,0c0,0,0,0,0,0l-0.4-0.2
				l-0.4,0.2c0,0,0,0,0,0c0,0,0,0,0,0l0.1-0.4l-0.3-0.3c0,0,0,0,0,0c0,0,0,0,0,0l0.4-0.1L185.3,46C185.2,46,185.2,45.9,185.3,46
				C185.2,45.9,185.3,46,185.3,46z"/>
			<path class="st5" d="M187.6,46l0.2,0.4l0.4,0.1c0,0,0,0,0,0c0,0,0,0,0,0l-0.3,0.3l0.1,0.4c0,0,0,0,0,0c0,0,0,0,0,0l-0.4-0.2
				l-0.4,0.2c0,0,0,0,0,0c0,0,0,0,0,0l0.1-0.4l-0.3-0.3c0,0,0,0,0,0c0,0,0,0,0,0l0.4-0.1L187.6,46C187.6,46,187.6,45.9,187.6,46
				C187.6,45.9,187.6,46,187.6,46z"/>
			<path class="st5" d="M164.6,53.6c-0.3,0-0.5-0.2-0.5-0.5c0-0.3,0.2-0.5,0.5-0.5h25.3c0.3,0,0.5,0.2,0.5,0.5
				c0,0.3-0.2,0.5-0.5,0.5H164.6z"/>
			<path class="st5" d="M164.6,55.7c-0.3,0-0.5-0.2-0.5-0.5c0-0.3,0.2-0.5,0.5-0.5h25.3c0.3,0,0.5,0.2,0.5,0.5
				c0,0.3-0.2,0.5-0.5,0.5H164.6z"/>
			<path class="st5" d="M180.4,57.9h-15.8c-0.3,0-0.5-0.2-0.5-0.5c0-0.3,0.2-0.5,0.5-0.5h15.8c0.3,0,0.5,0.2,0.5,0.5
				C180.9,57.7,180.7,57.9,180.4,57.9z"/>
			<g>
				<path class="st5" d="M150.4,67.3h41.3c1,0,1.8,0.8,1.8,1.8v16.5c0,1-0.8,1.8-1.8,1.8h-41.3c-1,0-1.8-0.8-1.8-1.8V69.1
					C148.6,68.1,149.4,67.3,150.4,67.3L150.4,67.3z M191.7,67.6h-41.3c-0.4,0-0.8,0.2-1.1,0.4c-0.3,0.3-0.4,0.7-0.4,1.1v16.5
					c0,0.4,0.2,0.8,0.4,1.1c0.3,0.3,0.7,0.4,1.1,0.4h41.3c0.4,0,0.8-0.2,1.1-0.4c0.3-0.3,0.4-0.7,0.4-1.1V69.1
					c0-0.4-0.2-0.8-0.4-1.1C192.5,67.8,192.1,67.6,191.7,67.6z"/>
			</g>
			<path class="st7" d="M160.3,70.4h-7.8c-0.5,0-0.8,0.4-0.8,0.8V79c0,0.5,0.4,0.8,0.8,0.8h7.8c0.5,0,0.8-0.4,0.8-0.8v-7.8
				C161.1,70.8,160.7,70.4,160.3,70.4z"/>
			<path class="st5" d="M164.6,77.1c-0.3,0-0.5-0.2-0.5-0.5c0-0.3,0.2-0.5,0.5-0.5h25.3c0.3,0,0.5,0.2,0.5,0.5
				c0,0.3-0.2,0.5-0.5,0.5H164.6z"/>
			<path class="st5" d="M172.4,73.3h-7.2c-0.6,0-1-0.5-1-1c0-0.6,0.5-1,1-1h7.2c0.6,0,1,0.5,1,1C173.4,72.9,172.9,73.3,172.4,73.3z"
				/>
			<g>
				<path class="st5" d="M188.5,74.2h-11.3c-1,0-1.9-0.8-1.9-1.9c0-1,0.8-1.9,1.9-1.9h11.3c1,0,1.9,0.8,1.9,1.9
					C190.4,73.3,189.6,74.2,188.5,74.2L188.5,74.2z M177.2,73.8h11.3c0.4,0,0.8-0.2,1.1-0.4c0.3-0.3,0.4-0.7,0.4-1.1
					c0-0.4-0.2-0.8-0.4-1.1c-0.3-0.3-0.7-0.4-1.1-0.4h-11.3c-0.4,0-0.8,0.2-1.1,0.4l0,0c-0.3,0.3-0.4,0.7-0.4,1.1
					c0,0.4,0.2,0.8,0.4,1.1C176.4,73.6,176.8,73.8,177.2,73.8z"/>
			</g>
			<path class="st7" d="M178.1,71.5l0.2,0.4l0.4,0.1c0,0,0,0,0,0c0,0,0,0,0,0l-0.3,0.3l0.1,0.4c0,0,0,0,0,0c0,0,0,0,0,0l-0.4-0.2
				l-0.4,0.2c0,0,0,0,0,0c0,0,0,0,0,0l0.1-0.4l-0.3-0.3c0,0,0,0,0,0c0,0,0,0,0,0l0.4-0.1L178.1,71.5C178,71.5,178.1,71.5,178.1,71.5
				C178.1,71.5,178.1,71.5,178.1,71.5z"/>
			<path class="st7" d="M180.5,71.5l0.2,0.4l0.4,0.1c0,0,0,0,0,0c0,0,0,0,0,0l-0.3,0.3l0.1,0.4c0,0,0,0,0,0c0,0,0,0,0,0l-0.4-0.2
				l-0.4,0.2c0,0,0,0,0,0c0,0,0,0,0,0l0.1-0.4l-0.3-0.3c0,0,0,0,0,0c0,0,0,0,0,0l0.4-0.1L180.5,71.5
				C180.4,71.5,180.4,71.5,180.5,71.5C180.5,71.5,180.5,71.5,180.5,71.5z"/>
			<path class="st7" d="M182.9,71.5l0.2,0.4l0.4,0.1c0,0,0,0,0,0c0,0,0,0,0,0l-0.3,0.3l0.1,0.4c0,0,0,0,0,0c0,0,0,0,0,0l-0.4-0.2
				l-0.4,0.2c0,0,0,0,0,0c0,0,0,0,0,0l0.1-0.4l-0.3-0.3c0,0,0,0,0,0c0,0,0,0,0,0l0.4-0.1L182.9,71.5
				C182.8,71.5,182.8,71.5,182.9,71.5C182.9,71.5,182.9,71.5,182.9,71.5z"/>
			<path class="st7" d="M185.3,71.5l0.2,0.4l0.4,0.1c0,0,0,0,0,0c0,0,0,0,0,0l-0.3,0.3l0.1,0.4c0,0,0,0,0,0c0,0,0,0,0,0l-0.4-0.2
				l-0.4,0.2c0,0,0,0,0,0c0,0,0,0,0,0l0.1-0.4l-0.3-0.3c0,0,0,0,0,0c0,0,0,0,0,0l0.4-0.1L185.3,71.5
				C185.2,71.5,185.2,71.5,185.3,71.5C185.2,71.5,185.3,71.5,185.3,71.5z"/>
			<path class="st7" d="M187.6,71.5l0.2,0.4l0.4,0.1c0,0,0,0,0,0c0,0,0,0,0,0l-0.3,0.3l0.1,0.4c0,0,0,0,0,0c0,0,0,0,0,0l-0.4-0.2
				l-0.4,0.2c0,0,0,0,0,0c0,0,0,0,0,0l0.1-0.4l-0.3-0.3c0,0,0,0,0,0c0,0,0,0,0,0l0.4-0.1L187.6,71.5
				C187.6,71.5,187.6,71.5,187.6,71.5C187.6,71.5,187.6,71.5,187.6,71.5z"/>
			<path class="st5" d="M164.6,79.2c-0.3,0-0.5-0.2-0.5-0.5c0-0.3,0.2-0.5,0.5-0.5h25.3c0.3,0,0.5,0.2,0.5,0.5
				c0,0.3-0.2,0.5-0.5,0.5H164.6z"/>
			<path class="st5" d="M164.6,81.3c-0.3,0-0.5-0.2-0.5-0.5c0-0.3,0.2-0.5,0.5-0.5h25.3c0.3,0,0.5,0.2,0.5,0.5
				c0,0.3-0.2,0.5-0.5,0.5H164.6z"/>
			<path class="st5" d="M180.4,83.4h-15.8c-0.3,0-0.5-0.2-0.5-0.5c0-0.3,0.2-0.5,0.5-0.5h15.8c0.3,0,0.5,0.2,0.5,0.5
				C180.9,83.2,180.7,83.4,180.4,83.4z"/>
			<path class="st0" d="M154.4,52.8h4c0.6,0,1.1-0.5,1.2-1.1c0,0,0-0.1,0-0.1c0,0,0,0-0.1,0h-6.2c0,0-0.1,0-0.1,0c0,0,0,0,0,0.1
				C153.2,52.3,153.7,52.8,154.4,52.8L154.4,52.8z M153.7,49.4h1.2c0,0,0,0,0,0l1.4,0.6c0,0,0,0,0.1,0l1.4-0.6c0,0,0,0,0,0h1.2
				c0.3,0,0.5,0.2,0.5,0.5c0,0.3-0.2,0.5-0.5,0.5h-5.4c-0.3,0-0.5-0.2-0.5-0.5C153.2,49.6,153.4,49.4,153.7,49.4L153.7,49.4z
				 M153.3,50.8h6.2c0.1,0,0.1,0,0.1,0.1v0.2c0,0.1,0,0.1-0.1,0.1h-6.2c-0.1,0-0.1,0-0.1-0.1L153.3,50.8
				C153.2,50.8,153.2,50.8,153.3,50.8L153.3,50.8z M153.3,48.4h6.2c0.1,0,0.1,0,0.1,0.1v0.4c0,0.1,0,0.1-0.1,0.1h-6.2
				c-0.1,0-0.1,0-0.1-0.1L153.3,48.4C153.2,48.4,153.2,48.4,153.3,48.4L153.3,48.4z M154.4,46.4h4c0.7,0,1.2,0.5,1.2,1.2v0.3
				c0,0.1,0,0.1-0.1,0.1h-6.2c-0.1,0-0.1,0-0.1-0.1v-0.3C153.2,46.9,153.7,46.4,154.4,46.4z"/>
			<path class="st0" d="M104,78.3h4c0.7,0,1.2-0.5,1.2-1.2V77c0-0.1,0-0.1-0.1-0.1h-6.2c-0.1,0-0.1,0-0.1,0.1v0.1
				C102.8,77.8,103.4,78.3,104,78.3L104,78.3z M107.4,72.1c-0.1,0-0.2,0-0.3,0.1c0.1,0.2,0.1,0.3,0.1,0.5c0,0.1,0,0.3-0.1,0.4h-0.4
				c0.1-0.1,0.1-0.3,0.1-0.4c0-0.4-0.4-0.8-0.8-0.8c-0.4,0-0.8,0.4-0.8,0.8c0,0.1,0,0.3,0.1,0.4h-0.4c0-0.1-0.1-0.3-0.1-0.4
				c0-0.2,0-0.4,0.1-0.5c-0.1-0.1-0.2-0.1-0.3-0.1c-0.3,0-0.6,0.3-0.6,0.6c0,0.2,0.1,0.3,0.2,0.4H104c-0.7,0-1.2,0.5-1.2,1.2v0.1
				c0,0.1,0,0.1,0.1,0.1h6.2c0.1,0,0.1,0,0.1-0.1v-0.1c0-0.7-0.5-1.2-1.2-1.2h-0.2c0.1-0.1,0.2-0.2,0.2-0.4
				C108,72.4,107.8,72.1,107.4,72.1L107.4,72.1z M102.9,74.9h6.2c0.1,0,0.1,0,0.1,0.1v0.4c0,0.1,0,0.1-0.1,0.1h-6.2
				c-0.1,0-0.1,0-0.1-0.1L102.9,74.9C102.8,75,102.9,74.9,102.9,74.9L102.9,74.9z M102.9,75.9h6.2c0.1,0,0.1,0,0.1,0.1v0.4
				c0,0.1,0,0.1-0.1,0.1h-6.2c-0.1,0-0.1,0-0.1-0.1L102.9,75.9C102.8,76,102.9,75.9,102.9,75.9z"/>
			<path class="st0" d="M156.4,71.9c-0.7,0-1.2,0.5-1.2,1.2c0,0.3,0.1,0.6,0.3,0.8h1.8c0.2-0.2,0.3-0.5,0.3-0.8
				C157.6,72.5,157,71.9,156.4,71.9L156.4,71.9z M154.7,72.6c-0.4,0.2-0.7,0.6-0.7,1.1c0,0,0,0.1,0,0.1c0,0.1,0,0.1,0.1,0.1h0.7
				c0,0,0.1,0,0.1,0c0,0,0-0.1,0-0.1c-0.1-0.2-0.1-0.4-0.1-0.7c0-0.1,0-0.3,0-0.4c0,0,0-0.1,0-0.1C154.7,72.6,154.7,72.6,154.7,72.6
				L154.7,72.6z M157.9,73.9h0.7c0.1,0,0.1,0,0.1-0.1c0,0,0-0.1,0-0.1c0-0.5-0.3-0.9-0.7-1.1c0,0-0.1,0-0.1,0c0,0,0,0.1,0,0.1
				c0,0.1,0,0.2,0,0.4c0,0.2,0,0.5-0.1,0.7C157.8,73.8,157.8,73.9,157.9,73.9C157.8,73.9,157.9,73.9,157.9,73.9L157.9,73.9z
				 M156.4,74.3h2c0.1,0,0.2,0.1,0.2,0.2c0,0,0,0.1,0,0.1l-2,3.6c-0.1,0.1-0.2,0.1-0.3,0.1c0,0-0.1,0-0.1-0.1l-2-3.6
				c-0.1-0.1,0-0.2,0.1-0.3c0,0,0.1,0,0.1,0L156.4,74.3L156.4,74.3L156.4,74.3L156.4,74.3z"/>
		</g>
	</g>
	<linearGradient id="SVGID_4_" gradientUnits="userSpaceOnUse" x1="53.1827" y1="54.2819" x2="53.1842" y2="105.3938">
		<stop  offset="0" style="stop-color:#FCE5EF"/>
		<stop  offset="1" style="stop-color:#FFFFFF"/>
	</linearGradient>
	<circle class="st8" cx="53.2" cy="73.9" r="16.6"/>
	<g>
		<ellipse class="st9" cx="150" cy="200.1" rx="106.6" ry="3.9"/>
	</g>
	<g>
		<g>
			<path class="st10" d="M66.1,189.4c0,0-6.1-9.6-5.5-11.1c0.5-1.6,6.1,3.5,6.1,3.5l0.5,7.6H66.1z"/>
		</g>
		<g>
			<path class="st11" d="M67.4,190.3c0,0-6.1-14.8-4.2-18.4c0.5-0.9,4.2,4.9,4.2,4.9s0.7-9.8,2.7-9.9c2.1-0.1,2.6,6.5,2.6,6.5
				s1.8-3.2,2.2-2.9c0.5,0.2,0.6,3.7,0.6,3.7s3.4-5.4,4.2-4.9c0.8,0.5-0.8,12.3-6,21.7L67.4,190.3z"/>
		</g>
		<g>
			<path class="st10" d="M78.3,189.8c0,0,4.8-4.5,5.4-6.4c0.6-1.9-2.1-0.3-2.1-0.3s2.6-8.2,1.6-9.2c-1-1.1-5.7,6.3-5.7,6.3
				s-0.7-5.3-2.2-5.3c-1.5,0-1.2,11-1.2,11L78.3,189.8z"/>
		</g>
		<g>
			<path class="st12" d="M76.7,189.6c0,0,3-7.7,1.9-8.6c-1.1-0.9-2.8,2.1-2.8,2.1s-0.1-6.2-1.8-6.2c-1.7,0-2,7-2,7s-2-3.2-3.1-2.8
				c-1,0.4,1.3,6.8,2.9,8.5C73.4,191.3,76.7,189.6,76.7,189.6z"/>
		</g>
		<g>
			<path class="st12" d="M67.4,198.7h11.5c0.2,0,0.3-0.1,0.4-0.3c1.1-3.5,1.7-7,1.9-10.5H65.1c0.1,3.5,0.8,7,1.9,10.5
				C67.1,198.6,67.2,198.7,67.4,198.7z"/>
		</g>
		<g>
			<path class="st11" d="M64.1,188.7h18c0.1,0,0.2-0.1,0.2-0.2V187c0-0.1-0.1-0.2-0.2-0.2h-18c-0.1,0-0.2,0.1-0.2,0.2v1.5
				C63.9,188.6,64,188.7,64.1,188.7z"/>
		</g>
	</g>
	<g>
		<g>
			<path class="st11" d="M193.5,127.6h-87.1c-0.7,0-1.2-0.6-1.2-1.2c0-0.7,0.6-1.2,1.2-1.2h87.1c0.7,0,1.2,0.6,1.2,1.2
				C194.8,127,194.2,127.6,193.5,127.6z"/>
		</g>
		<g>
			<path class="st10" d="M193.5,126.7h-87.1c-0.5,0-1-0.3-1.2-0.8c-0.1,0.1-0.1,0.3-0.1,0.4c0,0.7,0.6,1.2,1.2,1.2h87.1
				c0.7,0,1.2-0.6,1.2-1.2c0-0.2,0-0.3-0.1-0.4C194.5,126.4,194.1,126.7,193.5,126.7z"/>
		</g>
	</g>
	<g>
		<rect x="95" y="147.1" class="st11" width="1.8" height="48.3"/>
	</g>
	<g>
		<rect x="95" y="147.1" class="st10" width="1.8" height="3.9"/>
	</g>
	<g>
		<g>
			<path class="st11" d="M105,143.4H86.6c-1.3,0-2.4,1.1-2.4,2.4c0,1.3,1.1,2.4,2.4,2.4H105c1.3,0,2.4-1.1,2.4-2.4
				C107.5,144.5,106.4,143.4,105,143.4z"/>
		</g>
		<g>
			<path class="st10" d="M105,148.3H86.6c-1.3,0-2.4-1.1-2.4-2.4c0-0.3,0.1-0.6,0.2-0.9c0.4,0.9,1.2,1.6,2.3,1.6H105
				c1,0,1.9-0.6,2.3-1.6c0.1,0.3,0.2,0.6,0.2,0.9C107.5,147.2,106.4,148.3,105,148.3z"/>
		</g>
	</g>
	<g>
		<path class="st7" d="M117.5,137.9c0,0-13.4,13-10.1,37.1c0,0,7.1-13.6,11.4-18.6c4.2-5,8.5-11,8.5-17.1
			C127.2,133.2,117.5,137.9,117.5,137.9z"/>
		<path class="st13" d="M115.1,154c-6,6.6-7.8,21-7.8,21c0.1-0.1,7.1-13.6,11.4-18.6c4.2-5,8.5-11,8.5-17.1c0-4.4-5-3.2-7.8-2.2
			C119.7,141.5,118.4,150.4,115.1,154z"/>
		<path class="st7" d="M84.5,131.4c0,0,1,13.4,10.9,13.4c9.9,0,24.1-5.5,24.1-5.5s1.5,17.2,22.4,28.4c0,0-6.3-13.9-8.5-20.1
			c-2.2-6.2-3.2-18.1-10.9-18.8C114.7,128.3,91.9,129.9,84.5,131.4z"/>
		<path class="st14" d="M141.9,167.8l2.5-1.7c0.1-0.1,0.1-0.2,0-0.2c-0.6-0.1-1.9-0.3-3.2,0.3C141.2,166.2,141.6,167.4,141.9,167.8z
			"/>
		<path class="st13" d="M89.3,131.5l-0.9-0.7c-1.6,0.2-2.9,0.4-3.9,0.6c0,0,1,13.4,10.9,13.4c9.9,0,24.1-5.5,24.1-5.5
			C91.4,142.3,89.3,131.5,89.3,131.5z"/>
		<path class="st14" d="M107.3,175l2.7,1.3c0.1,0,0.2,0,0.1-0.1c-0.2-0.6-0.9-1.9-2.1-2.6C108.1,173.5,107.5,174.6,107.3,175z"/>
		<path class="st15" d="M114.2,102.6c0,0,11.2-4,17.8-8.1c0,0,0.7-1.6,2.2-2.2c1.4-0.6-0.5,0.6-0.6,1c-0.1,0.4,0.2,0.7,0.4,1.3
			c0.2,0.7-0.9,0-0.9,0s-9.5,11.9-16.7,15.5C109.2,113.9,114.2,102.6,114.2,102.6z"/>
		<path class="st16" d="M116.4,110.2c7.2-3.7,16.7-15.5,16.7-15.5s0.7,0.4,0.8,0.2c-0.4-0.1-0.9-0.5-0.9-0.5c-7,8.3-16.4,12-16.4,12
			c-0.6-1.2-2.4-3.8-2.4-3.8l-1.5,4.9C112.2,110,112.7,112.1,116.4,110.2z"/>
		<path class="st17" d="M104.3,104.8c0,0,4-0.2,9.9-2.2c0,0,2.8,6,3.1,9.2l-7.7,1.6L104.3,104.8z"/>
		<path class="st18" d="M109.6,113.3l7.7-1.6c-0.1-1.4-0.8-3.3-1.4-5.1h0c-5.1,2.3-8.4-1.4-8.4-1.4v4.5L109.6,113.3z"/>
		<path class="st15" d="M115.6,114.1c0,0,9.9,7.7,16.7,9.3c0,0,2.9-1.2,3.5-0.6c0.6,0.6,2.4,2.6,1.8,2.3c-0.6-0.3-1.7-1-1.7-1
			s-0.6,1-3,1s-20.1-1.3-23.8-4.5C105.4,117.4,115.6,114.1,115.6,114.1z"/>
		<path class="st19" d="M102.8,103.5c0,0,5.4-3.4,7.5-10.2c2.2-6.8-6.5-0.6-6.5-0.6s-5.2-1.8-12.1-1c-6.8,0.8-14.6,5.1-2.6,8
			c0,0-17.7,8-22.9,20.1C61.2,132,96.8,136.7,102.8,103.5z"/>
		<g>
			<g>
				<g>
					<g>
						<g>
							<g>
								<path class="st15" d="M102.8,103.5c0.2-0.6,0.1-2.1,0.1-2.1c-1-1.2-0.9-2.2-0.2-1.8c0,0,0.1,0,0.1,0
									c-0.1-1.1,0.4-1.7,0.9-1.9c0.7-0.3,1.6,0.3,2.1,1.4c0.7,1.7,0.6,3.5,0,3.8c-0.3,0.1-0.7,0-1-0.2c0,0.8,0.7,1.6,0.1,1.9
									C104.1,104.9,102.6,103.9,102.8,103.5z"/>
							</g>
							<path class="st14" d="M104.2,100c0.1-0.2,0.5-0.4,0.8-0.2c0-0.2-0.2-0.5-0.6-0.4C104.1,99.5,103.9,99.9,104.2,100z"/>
							<path class="st0" d="M105.9,101c0.1,0.2,0,0.5,0,0.7c-0.5,0.2-1.1,0.1-1.4-0.5C104.9,101.3,105.7,101.3,105.9,101z"/>
						</g>
						<path class="st16" d="M103.4,101.7c0,0,0.4,0.4,1.3,1c0,0.6,0.4,1.2,0.3,1.6C104.3,103.9,103.6,102.7,103.4,101.7z"/>
					</g>
				</g>
			</g>
		</g>
		<path class="st17" d="M102.5,103.5c0,0-16.9,9.5-18,27.9c6.4,0.4,12.4-0.3,18.1-2l-1.7-8.5c0,0,5.6-1.4,7.8-5.3
			C111,111.8,102.5,103.5,102.5,103.5z"/>
		<path class="st16" d="M109.1,120.6c3.8,3.2,21.5,4.5,23.8,4.5s3-1,3-1s1.1,0.7,1.7,1c0.1,0.1,0.1,0,0.1-0.1
			c-0.8-0.3-2.1-1.2-2.1-1.2c-7.4,3-23-3.8-23-3.8c2.1-2.4,2.9-5.9,2.9-5.9S105.4,117.4,109.1,120.6z"/>
		<path class="st17" d="M103.4,103.3c6.3,0.5,6.2,6.6,12.2,10.8l0,0c0,0-2.6,5.4-6.6,8.2c0,0-5.7-3.5-7.9-9.1c-1.6-4-0.2-7.4,0.6-9
			C102,103.6,102.7,103.3,103.4,103.3z"/>
		<path class="st18" d="M111.9,119.6c-8.2-3.3-9.8-11.2-10.1-15.6c-0.9,1.5-2.4,5-0.8,9.2c2.2,5.5,7.9,9.1,7.9,9.1
			C110,121.5,111,120.6,111.9,119.6z"/>
		<path class="st18" d="M100.1,116.5l0.8,4.4c0,0,0.9-0.2,2.1-0.7C101,119.3,100.1,116.5,100.1,116.5z"/>
		<path class="st18" d="M96.5,108c-5,4.5-11.4,12.3-12,23.4c1.6,0.1,3.3,0.1,4.9,0.1C87.6,120.9,96.4,108.1,96.5,108z"/>
		<path class="st13" d="M141.9,167.8c0-0.1-6.3-13.9-8.5-20.1c-1.9-5.5-2.9-15.3-8.4-18.1c3.5,5.6,3.6,9.5,4.7,19.4
			C130.7,158.9,141.7,167.6,141.9,167.8C141.9,167.8,141.9,167.8,141.9,167.8L141.9,167.8z"/>
	</g>
	<g>
		<rect x="199.7" y="147.1" class="st11" width="1.8" height="48.3"/>
	</g>
	<g>
		<rect x="199.7" y="147.1" class="st10" width="1.8" height="3.9"/>
	</g>
	<g>
		<g>
			<path class="st11" d="M209.8,143.4h-18.4c-1.3,0-2.4,1.1-2.4,2.4c0,1.3,1.1,2.4,2.4,2.4h18.4c1.3,0,2.4-1.1,2.4-2.4
				C212.2,144.5,211.1,143.4,209.8,143.4z"/>
		</g>
		<g>
			<path class="st10" d="M209.8,148.3h-18.4c-1.3,0-2.4-1.1-2.4-2.4c0-0.3,0.1-0.6,0.2-0.9c0.4,0.9,1.2,1.6,2.3,1.6h18.4
				c1,0,1.9-0.6,2.3-1.6c0.1,0.3,0.2,0.6,0.2,0.9C212.2,147.2,211.1,148.3,209.8,148.3z"/>
		</g>
	</g>
	<g>
		<path class="st15" d="M191.2,102.4c0,0-15.7-6-20.9-14.8c0,0,0.7-1-0.6-2c-1.2-1-1.5-0.7-0.7,0.3c0.8,1,0.5,1-0.5,1.7
			c-1,0.7,0.4,0.2,0.8,0.3c0,0,5.5,18.9,18.5,24.3L191.2,102.4z"/>
		<path class="st20" d="M198.1,127.6c0,0-23.6,8.4-25.7,13.7c-2.1,5.3-3.5,25.3-10.1,39.6c0,0,17-12.5,19-26.9
			c2-14.4,29-20.7,29-20.7S208.8,125.1,198.1,127.6z"/>
		<path class="st16" d="M188.8,107.9c-10-2.9-19.4-20.3-19.4-20.3c-0.2,0-0.7,0.1-1.2,0.3c-0.2,0.3,0.8-0.1,1.1,0.1
			c0,0,5.5,18.9,18.5,24.3l1.4-4.2C189.1,108,189,108,188.8,107.9z"/>
		<path class="st21" d="M162.3,180.8c1.1-0.8,17-13,19-26.9c1-6.9,7.6-11.9,14.4-15.3c-8.7-5.4-16.2-6.7-17,4.2
			C176.9,168.9,163.3,180.1,162.3,180.8z"/>
		<path class="st5" d="M204.5,102.5c0,0-6.8,2-13.3-0.1c0,0-3.8,7.6-4.1,11.7c0,0,7.4,2.8,12.2,1.5
			C204.2,114.4,204.5,102.5,204.5,102.5z"/>
		<path class="st4" d="M204.4,104.7l-4.2-1c0,0-7.4,4.9-11.3,4.1c0,0,0,0,0,0c-0.8,2.1-1.6,4.5-1.7,6.2c0,0,7.4,2.8,12.2,1.5
			C202.9,114.7,204,108.2,204.4,104.7z"/>
		<path class="st15" d="M190.4,112c0,0-10.5,7.7-22.7,11.3c0,0-1.9-1-2.8-0.5c-0.9,0.4-2.9,2.3-2.6,2.3c0.3,0,2.4-1.1,2.4-1.1
			s0.4,1.1,3,1.1c2.6,0,24.9-0.7,31.3-3.9L190.4,112z"/>
		<path class="st20" d="M216.9,130.2c0,0,1.8,17.9-33.7,14.7c0,0,9.1,7.4,12.6,34.1c0,0-16.7-21.8-24.5-28.7s4.9-20.4,30.8-21.2
			C202.1,129.1,212.4,128.2,216.9,130.2z"/>
		<path class="st16" d="M164.9,123.6l-2.6,1.5c0.3,0,2.4-1.1,2.4-1.1s0.4,1.1,3,1.1c2.6,0,24.9-0.7,31.3-3.9l-8.7-9.2
			c0,2.5,3,7.2,3,7.2C168.8,127.3,164.9,123.6,164.9,123.6z"/>
		<path class="st21" d="M183.2,144.9c35.5,3.2,33.7-14.7,33.7-14.7c-1.4-0.6-3.3-0.9-5.3-1.1l-1,1
			C210.6,130.1,205.5,140.7,183.2,144.9z"/>
		<path class="st5" d="M205.1,102.1c0,0,11.7,4.2,11.8,28.1c0,0-13.7,0.6-18.8-2.6L205.1,102.1z"/>
		<g>
			<path class="st15" d="M204,99.7c0,0-1.8,2.7-1.6,4.4c1.1-0.2,2.7-1.5,2.7-1.9c0-0.5,0.1-1.2,0.1-1.2L204,99.7z"/>
			<g>
				<path class="st16" d="M204.2,100.9c-0.4,0-0.7,0-1,0.1c-0.3,0.7-0.7,1.5-0.8,2.2C203.4,102.6,204,102,204.2,100.9z"/>
			</g>
			<g>
				<g>
					<g>
						<path class="st14" d="M202.5,99.7c-0.7-1.4-0.4-4-0.1-4.1c0.3-0.2,0.9,0.1,1.2,0.3c0-1.4,1.1-4.1,1.9-4.1
							c0.6,0,1.5,2.5,1.6,3.9c0.4-0.4,1.1-0.7,1.3-0.6c0.3,0.1,0.4,1.9-0.3,3.4c0.4-0.3,0.8-0.4,0.9-0.3c0.2,0.2-1.1,3-4.6,2.9
							C203.9,101,202.5,99.7,202.5,99.7z"/>
					</g>
					<path class="st15" d="M204.8,99.9C204.8,99.9,204.7,99.9,204.8,99.9c0.6-0.9,0.6-2.2-0.2-2.6c-1.4-0.7-3.4,4.1-2.7,4.6
						c0.8,0.6,4-1.2,3.7-1.9C205.5,99.7,205,99.8,204.8,99.9z"/>
					<g>
						<path class="st14" d="M204.4,99.2c0-0.2-0.3-0.5-0.6-0.3C204.1,98.9,204.4,99.1,204.4,99.2z"/>
					</g>
					<path class="st0" d="M202.2,100.3c-0.1,0.2-0.2,0.6-0.2,0.7c0.2,0.2,1.3,0.4,1.8-0.5C203.6,100.7,202.3,100.6,202.2,100.3z"/>
				</g>
			</g>
		</g>
		<path class="st14" d="M195.8,179l-2.5,1.7c-0.1,0.1-0.2,0-0.2-0.1c0.1-0.6,0.6-2,1.6-2.9C194.8,177.7,195.6,178.6,195.8,179z"/>
		<path class="st14" d="M162.3,180.9l-2.5-1.7c-0.1-0.1-0.1-0.2,0-0.2c0.6-0.1,1.9-0.3,3.2,0.3C163,179.3,162.5,180.5,162.3,180.9z"
			/>
		<path class="st5" d="M205.1,102.1c-5.5,0-11.3,7.4-14.7,9.9c0,0,3.5,7.3,10.1,11.1c0,0,4.4-3.1,5.9-8.1
			C208,110,205.1,102.1,205.1,102.1z"/>
		<path class="st4" d="M194.8,118.3c1.5,1.7,3.4,3.5,5.7,4.8c0,0,4.4-3.1,5.9-8.1c1-3.4,0.1-8-0.7-10.7
			C205.8,104.2,206.3,113.9,194.8,118.3z"/>
		<path class="st4" d="M210.6,130.1c3.5,0.2,6.3,0,6.3,0c0-12.4-3.2-19.5-6.3-23.4C210.6,106.7,214.6,117,210.6,130.1z"/>
		<path class="st21" d="M183.2,156.7c-7.9-5.5-12.5-8-13.8-13.3c-0.9,2.5-0.3,5,1.9,6.9c7.8,6.9,24.5,28.7,24.5,28.7
			S191.1,162.2,183.2,156.7z"/>
		<path class="st21" d="M198.1,127.6c-2.5,0.3-5.6,1.7-7,2.7l0,0c3.6-0.7,6.9-1.1,10.7-1.3l0,0C200.4,128.7,199.1,128.2,198.1,127.6
			z"/>
	</g>
	<g>
		<path class="st7" d="M236.1,65.9c-5.6,0-10.1,4.5-10.1,10.1c0,5.6,4.5,10.1,10.1,10.1c5.6,0,10.1-4.5,10.1-10.1
			C246.2,70.4,241.7,65.9,236.1,65.9z"/>
		<path class="st0" d="M232.6,75.4c-0.3-0.3-0.3-0.8,0-1.2c0.3-0.3,0.8-0.3,1.2,0l2.3,2.3l5.1-5.1c0.3-0.3,0.8-0.3,1.2,0
			c0.3,0.3,0.3,0.8,0,1.2l-5.7,5.7c-0.3,0.3-0.8,0.3-1.2,0L232.6,75.4L232.6,75.4z M236.1,69.5c-3.6,0-6.5,2.9-6.5,6.5
			c0,3.6,2.9,6.5,6.5,6.5c3.6,0,6.5-2.9,6.5-6.5c0-0.7-0.1-1.3-0.3-1.9c0-0.1-0.1-0.1-0.1-0.1c-0.1,0-0.1,0-0.2,0.1l-0.7,0.7
			c-0.1,0.1-0.1,0.1-0.1,0.2c0.1,0.4,0.1,0.7,0.1,1.1c0,2.9-2.4,5.3-5.3,5.3c-2.9,0-5.3-2.4-5.3-5.3c0-2.9,2.4-5.3,5.3-5.3
			c1.2,0,2.4,0.4,3.3,1.1c0.1,0.1,0.2,0.1,0.3,0l0.6-0.6c0,0,0.1-0.1,0.1-0.2c0-0.1,0-0.1-0.1-0.1C239,70.1,237.6,69.5,236.1,69.5z"
			/>
		<path class="st7" d="M228.3,80.8l3,3l-7.1,4.4c-0.1,0.1-0.3,0.1-0.3,0c-0.1-0.1-0.1-0.2,0-0.3L228.3,80.8z"/>
	</g>
	<g>
		
			<ellipse transform="matrix(0.5553 -0.8316 0.8316 0.5553 -34.8099 86.9942)" class="st20" cx="63.9" cy="76" rx="10.1" ry="10.1"/>
		<path class="st0" d="M60.5,75.4c-0.3-0.3-0.3-0.8,0-1.2c0.3-0.3,0.8-0.3,1.2,0l2.3,2.3l5.1-5.1c0.3-0.3,0.8-0.3,1.2,0
			c0.3,0.3,0.3,0.8,0,1.2l-5.7,5.7c-0.3,0.3-0.8,0.3-1.2,0L60.5,75.4L60.5,75.4z M63.9,69.5c-3.6,0-6.5,2.9-6.5,6.5
			c0,3.6,2.9,6.5,6.5,6.5c3.6,0,6.5-2.9,6.5-6.5c0-0.7-0.1-1.3-0.3-1.9c0-0.1-0.1-0.1-0.1-0.1c-0.1,0-0.1,0-0.2,0.1l-0.7,0.7
			c-0.1,0.1-0.1,0.1-0.1,0.2c0.1,0.4,0.1,0.7,0.1,1.1c0,2.9-2.4,5.3-5.3,5.3c-2.9,0-5.3-2.4-5.3-5.3c0-2.9,2.4-5.3,5.3-5.3
			c1.2,0,2.4,0.4,3.3,1.1c0.1,0.1,0.2,0.1,0.3,0l0.6-0.6c0,0,0.1-0.1,0.1-0.2c0-0.1,0-0.1-0.1-0.1C66.9,70.1,65.5,69.5,63.9,69.5z"
			/>
		<path class="st20" d="M71.7,80.8l-3,3l7.1,4.4c0.1,0.1,0.3,0.1,0.3,0c0.1-0.1,0.1-0.2,0-0.3L71.7,80.8z"/>
	</g>
	<g>
		<path class="st11" d="M145.9,125.1h5.7c0.1,0,0.1-0.1,0.1-0.1l0.4-9h-6.7l0.4,9C145.8,125,145.9,125.1,145.9,125.1z"/>
		<path class="st10" d="M145.4,116h6.7l0,0.5l-0.4,8.4c0,0.1-0.1,0.1-0.1,0.1h-1.6c0,0,0.1-0.1,0.1-0.1l0.3-8.4h-5L145.4,116z"/>
		<path class="st5" d="M145.7,114.5l0.1-0.4c0-0.1,0.1-0.2,0.2-0.2h5.7c0.1,0,0.1,0.1,0.2,0.2l0.1,0.4c0,0.1,0.1,0.2,0.2,0.2h0.5
			c0.1,0,0.2,0.1,0.2,0.2v1c0,0.1-0.1,0.2-0.2,0.2h-7.4c-0.1,0-0.2-0.1-0.2-0.2v-1c0-0.1,0.1-0.2,0.2-0.2h0.4
			C145.6,114.7,145.7,114.6,145.7,114.5z"/>
		<path class="st4" d="M150.9,115.9v-1c0-0.1-0.1-0.2-0.1-0.2h-0.4c-0.1,0-0.1-0.1-0.1-0.2l-0.1-0.4c0-0.1-0.1-0.2-0.1-0.2h1.5
			c0.1,0,0.1,0.1,0.2,0.2l0.1,0.4c0,0.1,0.1,0.2,0.2,0.2h0.5c0.1,0,0.2,0.1,0.2,0.2v1c0,0.1-0.1,0.2-0.2,0.2h-1.8
			C150.9,116.1,150.9,116,150.9,115.9z"/>
		<path class="st7" d="M148.9,120.6c0,1.4-1.4,2.6-3.2,2.7l-0.2-5.5C147.4,117.9,148.9,119.1,148.9,120.6z"/>
	</g>
	<g>
		<path class="st22" d="M229,169c0.4,0,0.7,0,1.1,0c0,0,0,0,0,0c-2.3,0.1-5.1,1.1-5.9,3.5l0,0c-0.1,0.1-0.1,0.3-0.2,0.4l-0.9-0.4
			C223.8,170.1,226.6,169.1,229,169z"/>
		<path class="st23" d="M235.6,172l-0.8,0.5c-0.7-1.6-2.7-2.3-4.7-2.4c0,0,0,0,0,0C232.1,170,234.5,170.5,235.6,172z"/>
		<path class="st24" d="M230,169C230,169,230,169,230,169c2.4-0.1,5.6,0.6,6.7,3l-0.9,0.5c-0.1-0.2-0.2-0.3-0.3-0.5
			c-1-1.5-3.4-2.1-5.5-1.9c0,0,0,0,0,0c-2.5,0.1-4.5,1.2-5,2.7l-0.9-0.4l0,0C224.9,170.1,227.7,169.1,230,169z"/>
		<path class="st25" d="M212.8,199h34.1c0.4,0,0.7-0.3,0.7-0.7v-25.7c0-0.4-0.3-0.7-0.7-0.7h-34.1c-0.4,0-0.7,0.3-0.7,0.7v25.7
			C212.1,198.7,212.4,199,212.8,199z"/>
		<path class="st26" d="M218.9,174.2v21.7c0,0.9,0.6,1.6,1.4,1.6h27.4l0,0v0.9c0,0.4-0.3,0.7-0.7,0.7h-34.1c-0.4,0-0.7-0.3-0.7-0.7
			v-24.1c0-0.9,0.6-1.6,1.4-1.6h3.9C218.2,172.6,218.9,173.3,218.9,174.2z"/>
		<path class="st26" d="M237.4,171.6h3.4c0.1,0,0.1,0,0.1,0.1v26c0,0.1,0,0.1-0.1,0.1h-3.4c-0.1,0-0.1,0-0.1-0.1L237.4,171.6
			C237.3,171.7,237.4,171.6,237.4,171.6z"/>
		<path class="st26" d="M223.9,171.6h3.4c0.1,0,0.1,0,0.1,0.1v26c0,0.1,0,0.1-0.1,0.1h-3.4c-0.1,0-0.1,0-0.1-0.1L223.9,171.6
			C223.8,171.7,223.9,171.6,223.9,171.6z"/>
		<path class="st24" d="M237.3,186.4h3.6v2.2h-3.6V186.4L237.3,186.4z M236.5,186.5v2.1c0,0.2,0.2,0.4,0.4,0.4h4.5
			c0.2,0,0.4-0.2,0.4-0.4v-2.1c0-0.2-0.2-0.4-0.4-0.4h-4.5C236.7,186,236.5,186.2,236.5,186.5z"/>
		<path class="st24" d="M223.8,186.4h3.6v2.2h-3.6V186.4L223.8,186.4z M223,186.5v2.1c0,0.2,0.2,0.4,0.4,0.4h4.5
			c0.2,0,0.4-0.2,0.4-0.4v-2.1c0-0.2-0.2-0.4-0.4-0.4h-4.5C223.2,186,223,186.2,223,186.5z"/>
		<path class="st24" d="M238.9,188.8h0.6v-0.8c0-0.2-0.1-0.3-0.3-0.3l0,0c-0.2,0-0.3,0.1-0.3,0.3V188.8z"/>
		<path class="st24" d="M225.3,188.8h0.6v-0.8c0-0.2-0.1-0.3-0.3-0.3l0,0c-0.2,0-0.3,0.1-0.3,0.3V188.8z"/>
		<path class="st24" d="M237.3,191.4v-0.7c0.6,0.3,1.2,0.4,1.8,0.4c0.6,0,1.2-0.1,1.8-0.4v0.7c-0.6,0.3-1.2,0.4-1.8,0.4
			C238.5,191.8,237.9,191.6,237.3,191.4z"/>
		<path class="st24" d="M223.8,191.4v-0.7c0.6,0.3,1.2,0.4,1.8,0.4c0.6,0,1.2-0.1,1.8-0.4v0.7c-0.6,0.3-1.2,0.4-1.8,0.4
			C225,191.8,224.4,191.6,223.8,191.4z"/>
		<path class="st24" d="M238.8,184c0,0.2,0.2,0.4,0.4,0.4c0.2,0,0.4-0.2,0.4-0.4c0-0.2-0.2-0.4-0.4-0.4
			C238.9,183.5,238.8,183.7,238.8,184z"/>
		<ellipse class="st24" cx="239.1" cy="179.9" rx="0.4" ry="0.4"/>
		<path class="st24" d="M225.2,184c0,0.2,0.2,0.4,0.4,0.4c0.2,0,0.4-0.2,0.4-0.4c0-0.2-0.2-0.4-0.4-0.4
			C225.4,183.5,225.2,183.7,225.2,184z"/>
		<path class="st24" d="M225.2,179.9c0,0.2,0.2,0.4,0.4,0.4c0.2,0,0.4-0.2,0.4-0.4c0-0.2-0.2-0.4-0.4-0.4
			C225.4,179.5,225.2,179.7,225.2,179.9z"/>
	</g>
	<path class="st10" d="M199.7,194.2h1.8c0.2,0,0.4,0.2,0.4,0.4c0,0.2-0.2,0.4-0.4,0.4h-1.8c-0.2,0-0.4-0.2-0.4-0.4
		C199.4,194.3,199.5,194.2,199.7,194.2z"/>
	<polygon class="st11" points="210.8,198.7 190.5,198.7 199.7,194.9 201.5,194.9 	"/>
	<path class="st10" d="M190.5,198.7h20.3c0.2,0,0.4,0.2,0.4,0.4c0,0.2-0.2,0.4-0.4,0.4h-20.3c-0.2,0-0.4-0.2-0.4-0.4
		C190.1,198.8,190.3,198.7,190.5,198.7z"/>
	<path class="st10" d="M94.8,194.2h1.8c0.2,0,0.4,0.2,0.4,0.4c0,0.2-0.2,0.4-0.4,0.4h-1.8c-0.2,0-0.4-0.2-0.4-0.4
		C94.4,194.3,94.6,194.2,94.8,194.2z"/>
	<polygon class="st11" points="105.9,198.7 85.6,198.7 94.8,194.9 96.6,194.9 	"/>
	<path class="st10" d="M85.6,198.7h20.3c0.2,0,0.4,0.2,0.4,0.4c0,0.2-0.2,0.4-0.4,0.4H85.6c-0.2,0-0.4-0.2-0.4-0.4
		C85.2,198.8,85.4,198.7,85.6,198.7z"/>
	<g>
		<rect x="149.1" y="127.6" class="st11" width="1.8" height="67.8"/>
	</g>
	<g>
		<rect x="149.1" y="127.6" class="st10" width="1.8" height="3.9"/>
	</g>
	<path class="st10" d="M149.1,194.2h1.8c0.2,0,0.4,0.2,0.4,0.4c0,0.2-0.2,0.4-0.4,0.4h-1.8c-0.2,0-0.4-0.2-0.4-0.4
		C148.7,194.3,148.9,194.2,149.1,194.2z"/>
	<polygon class="st11" points="160.1,198.7 139.9,198.7 149.1,194.9 150.9,194.9 	"/>
	<path class="st10" d="M139.9,198.7h20.3c0.2,0,0.4,0.2,0.4,0.4c0,0.2-0.2,0.4-0.4,0.4h-20.3c-0.2,0-0.4-0.2-0.4-0.4
		C139.5,198.8,139.6,198.7,139.9,198.7z"/>
</g>
</svg>
