<?xml version="1.0" encoding="utf-8"?>
<!-- Generator: Adobe Illustrator 24.2.1, SVG Export Plug-In . SVG Version: 6.00 Build 0)  -->
<svg version="1.1" id="_x3C_Layer_x3E_" xmlns="http://www.w3.org/2000/svg" xmlns:xlink="http://www.w3.org/1999/xlink" x="0px"
	 y="0px" viewBox="0 0 300 234.1" style="enable-background:new 0 0 300 234.1;" xml:space="preserve">
<style type="text/css">
	.st0{fill-rule:evenodd;clip-rule:evenodd;fill:#FFFFFF;}
	.st1{fill-rule:evenodd;clip-rule:evenodd;fill:#DBE4FF;}
	.st2{fill-rule:evenodd;clip-rule:evenodd;fill:url(#SVGID_1_);}
	.st3{fill-rule:evenodd;clip-rule:evenodd;fill:url(#SVGID_2_);}
	.st4{fill-rule:evenodd;clip-rule:evenodd;fill:url(#SVGID_3_);}
	.st5{fill-rule:evenodd;clip-rule:evenodd;fill:url(#SVGID_4_);}
	.st6{fill-rule:evenodd;clip-rule:evenodd;fill:url(#SVGID_5_);}
	.st7{fill-rule:evenodd;clip-rule:evenodd;fill:#E64980;}
	.st8{fill-rule:evenodd;clip-rule:evenodd;fill:#D6336C;}
	.st9{fill-rule:evenodd;clip-rule:evenodd;fill:#212529;}
	.st10{fill-rule:evenodd;clip-rule:evenodd;fill:#7B93F6;}
	.st11{fill-rule:evenodd;clip-rule:evenodd;fill:#BAC8FF;}
	.st12{fill-rule:evenodd;clip-rule:evenodd;fill:#FFD43B;}
	.st13{fill-rule:evenodd;clip-rule:evenodd;fill:#FAB005;}
	.st14{fill-rule:evenodd;clip-rule:evenodd;fill:#FFA8A8;}
	.st15{fill-rule:evenodd;clip-rule:evenodd;fill:#F39D00;}
	.st16{fill-rule:evenodd;clip-rule:evenodd;fill:#FF8787;}
	.st17{fill-rule:evenodd;clip-rule:evenodd;fill:#2E3134;}
	.st18{fill-rule:evenodd;clip-rule:evenodd;fill:#4C6EF4;}
	.st19{fill-rule:evenodd;clip-rule:evenodd;fill:#93A3D2;}
	.st20{fill-rule:evenodd;clip-rule:evenodd;fill:#2F5DDD;}
	.st21{fill-rule:evenodd;clip-rule:evenodd;fill:#FDFDFD;}
</style>
<rect class="st0" width="300" height="234.1"/>
<g>
	<ellipse class="st1" cx="76.5" cy="210.7" rx="30.7" ry="1.3"/>
	<linearGradient id="SVGID_1_" gradientUnits="userSpaceOnUse" x1="98.7646" y1="65.1369" x2="98.7647" y2="75.6316">
		<stop  offset="0" style="stop-color:#FCE5EF"/>
		<stop  offset="1" style="stop-color:#FFFFFF"/>
	</linearGradient>
	<path class="st2" d="M123.5,72.6H74c0,0,3.7-0.2,6.2-1.8c2.5-1.7,3.7-4,6-3.7c2.4,0.3,1.2,2.5,1.2,2.5s4.1-3.9,11.8-3.8
		s4.5,4,4.5,4s2.9-1.7,5.5-0.6c2.6,1.1,0,2.5-2.7,2.2C106.5,71.3,107,72,123.5,72.6z"/>
	<linearGradient id="SVGID_2_" gradientUnits="userSpaceOnUse" x1="228.8504" y1="73.1535" x2="228.8505" y2="95.2882">
		<stop  offset="0" style="stop-color:#FCE5EF"/>
		<stop  offset="1" style="stop-color:#FFFFFF"/>
	</linearGradient>
	<path class="st3" d="M188.4,88.8h81c0,0-6.1-0.4-10.1-3.9c-4-3.5-6-8.4-9.9-7.8c-3.9,0.6-1.9,5.3-1.9,5.3s-6.6-8.3-19.3-8
		c-12.7,0.3-7.3,8.5-7.3,8.5s-4.7-3.6-9-1.3c-4.3,2.2,0,5.3,4.4,4.6C216.2,86.2,215.5,87.7,188.4,88.8z"/>
	<linearGradient id="SVGID_3_" gradientUnits="userSpaceOnUse" x1="167.1742" y1="11.4729" x2="167.1745" y2="187.6984">
		<stop  offset="0" style="stop-color:#DBE4FF"/>
		<stop  offset="1" style="stop-color:#FFFFFF"/>
	</linearGradient>
	<path class="st4" d="M256.1,155.1v-17.5l-22-10.8v26.2h-10.2V70.5l-6-1.4v-2.3l5.9,1.4l-0.2-9.1l-31.2-7.4l0.2,9.1l4.3,1V64
		l-37.2-9v66.4h-34.9V50.5h1.2v-3.1h-1.2h-4.4v-2.4h-3.2V34.1h1v-1.3h-1.6c0,0,0,0,0-0.1c0-1.6-1.1-3-2.6-3.4V23
		c0-0.5-0.4-0.9-0.9-0.9c-0.5,0-0.9,0.4-0.9,0.9v6.5c-1.5,0.4-2.5,1.8-2.5,3.3c0,0,0,0,0,0.1H108v1.3h1.1v10.9h-3.1v2.4h-4.3h-1.4
		v3.1h1.4v76.4H82.7V164h-6.1v-14.8l-8.9,4.8v-4c5.4-0.1,9.7-1.3,9.7-2.7c0-1.5-4.8-2.7-10.7-2.7S56,145.8,56,147.3
		c0,1.5,4.8,2.7,10.7,2.7v4.6l-7.5,4V197h218.5C277.7,197,284.5,163.6,256.1,155.1L256.1,155.1z M197.9,62L197.9,62l19.1,4.6v2.3
		l-19.1-4.6V62z"/>
	<linearGradient id="SVGID_4_" gradientUnits="userSpaceOnUse" x1="151.7457" y1="162.9934" x2="151.7458" y2="188.5528">
		<stop  offset="0" style="stop-color:#DBE4FF"/>
		<stop  offset="1" style="stop-color:#FFFFFF"/>
	</linearGradient>
	<path class="st5" d="M37.8,185.5c7.5-1.6,15.5-2.9,23.8-3.9c-0.9-0.6-1.8-1.3-1.6-1.6c0.2-0.4,2.5-0.5,3.2,0.1
		c-0.7-1.4-1.8-4.7-1.4-5.1c0.4-0.3,2.6,2.4,3.2,3.4c-0.5-2.9-1.1-6.3-0.4-6.4c0.7-0.1,1.9,4.3,2.3,5.6c0.3-1.4,1.6-2.6,1.9-2.4
		c0.4,0.2,0.1,2.2-0.1,2.8c1.3-0.8,4.8-2.4,5-2c0.3,0.4-2.3,3.2-3.5,3.9c1.3-0.3,2.2-0.5,2.5-0.1c0.1,0.1-0.1,0.4-0.5,0.6
		c5.2-0.5,10.5-0.9,15.9-1.3c-2.9-3.3-2.2-6.4-0.2-5.6c-2.6-6.9,3.5-7.9,5.7-6.8c1.6-3.3,4.5-2.5,5.7-0.3c3.1-3.3,9.9-1.6,9.9,3
		c2.9-1.1,4.4,1.2,2.9,3.3c2.9-0.4,2.9,2.4,0.9,5.3c6.5-0.2,12.9-0.3,19.4-0.3c0-0.1,0-0.1,0-0.1c0.3-0.7,1.8-0.5,4.1-0.2
		c-2.1-1-6.8-5.2-6.4-5.9c0.4-0.7,6.3,1.4,8.6,2.5c-0.5-1-1.3-4.3-0.7-4.7c0.6-0.4,2.9,1.5,3.6,3.7c0.4-2.1,1.8-9.6,2.9-9.6
		s0.8,5.8,0.4,10.6c0.9-1.6,3.9-6.5,4.7-6c0.8,0.5-0.5,6.2-1.5,8.6c1.1-1,4.9-1.3,5.2-0.6c0.2,0.3-0.4,1.1-1.3,1.9
		c26.7,0.5,52,2,71.9,3.6c-0.2-0.2-0.3-0.4-0.2-0.5c0.2-0.4,2.5-0.5,3.2,0.1c-0.7-1.4-1.8-4.7-1.4-5.1c0.4-0.3,2.6,2.4,3.2,3.4
		c-0.5-2.9-1.1-6.3-0.4-6.4c0.7-0.1,1.9,4.3,2.3,5.6c0.3-1.4,1.6-2.6,1.9-2.4c0.4,0.2,0.1,2.2-0.1,2.8c1.3-0.8,4.8-2.4,5-2
		c0.3,0.4-2.3,3.2-3.5,3.9c1.3-0.3,2.2-0.5,2.5-0.1c0.1,0.2-0.8,1-1.7,1.6c1.1,0.1,2.1,0.2,3.2,0.3c-0.2-0.2-0.4-0.4-0.4-0.5
		c0.1-0.1,0.9,0,1.1,0.2c-0.2-0.5-0.4-1.7-0.2-1.8c0.2-0.1,0.8,0.9,0.9,1.3c-0.1-1-0.1-2.2,0.1-2.2c0.2,0,0.5,1.6,0.5,2
		c0.2-0.5,0.6-0.8,0.8-0.7c0.1,0.1,0,0.8-0.2,1c0.5-0.2,1.7-0.6,1.8-0.5c0.1,0.1-0.9,1-1.4,1.2c0.5,0,0.8-0.1,0.8,0.1
		c0,0.1-0.2,0.2-0.5,0.4c15.2,1.4,24.5,2.5,24.5,2.5H37.8z"/>
	<linearGradient id="SVGID_5_" gradientUnits="userSpaceOnUse" x1="149.5558" y1="174.6734" x2="149.5558" y2="206.4664">
		<stop  offset="0" style="stop-color:#FCE5EF"/>
		<stop  offset="1" style="stop-color:#FFFFFF"/>
	</linearGradient>
	<path class="st6" d="M277.5,197.2c0,0-18.6-4.9-43.9-9.2c3.1-0.3,6.3-0.7,6.2-1c-0.1-0.4-5.6-1-7.7-0.7c2.7-0.9,8-3.3,7.2-3.7
		c-0.8-0.4-8,1.3-10.2,1.9c3.5-2.2,7.4-4.8,5.8-5c-1.6-0.2-7.9,3-9.8,3.9c0.3-1.2-1.8-2.5-2.8-2.4c-1.1,0-2,1.8-1.8,2.3
		c-2.5-1-9.7-3.1-10.6-2.9c-0.9,0.2,3.1,3.1,5.5,4c-3-0.6-5-1-5.8-0.7c-0.4,0.1,0.4,0.6,1.6,1.1c-8.4-1-17.1-1.8-25.8-2.2
		c0,0,0.1,0,0-0.1c-0.3-0.3-2.1-0.3-4.7-0.2c2.6-0.3,8.5-1.8,8.2-2c-0.3-0.3-7.6,0.3-10.3,0.6c0.8-0.4,2-1.6,1.3-1.8
		c-0.7-0.2-3.5,0.5-4.6,1.3c-0.2-0.8-0.9-3.8-2.3-3.8c-1.4,0-1.6,2.2-1.7,4.1c-0.8-0.6-3.8-2.7-4.8-2.5c-1,0.2-0.1,2.4,0.7,3.4
		c-1.2-0.4-5.5-0.7-6-0.4c-0.3,0.2,1,0.7,2.5,1.2c-32.7,0.8-80.2,6.5-111.1,10.6c1.5-0.7,2.6-1.4,2.3-1.5c-0.6-0.2-6.8,1.1-9.1,1.7
		c0.4-0.4,0.3-1.7-0.5-1.8c-0.8-0.1-2.9,0.8-3.1,1.7c-1.1-0.8-4.6-3.4-5.9-3.3c-1.3,0.1,0.7,2.3,2.5,4c-1.4-0.5-6.2-2.1-7-1.9
		c-0.8,0.3,2.3,2.3,4,3.1c-1.5-0.3-5.9,0-6.1,0.2c-0.1,0.1,0.8,0.4,2,0.6c-6.1,0.9-9.7,1.4-9.7,1.4H277.5z"/>
	<ellipse class="st1" cx="196.8" cy="209.9" rx="34.1" ry="1.5"/>
	<path class="st7" d="M198.9,129.8c0,0-6.7,21.2-8.1,36c-1.3,14.8-13,43.4-13,43.4s29.4-20,25.7-44.9c0,0,13.8-18.1,13.6-28.9
		C216.7,124.6,198.9,129.8,198.9,129.8z"/>
	<path class="st8" d="M203.5,164.3c0,0,13.8-18.1,13.6-28.9c-0.1-4.1-2.8-5.9-6.1-6.6c-4.3,8.1-13.5,26.2-13.9,34.3
		c-0.5,10.7-2.8,26.6-19.3,46.1C177.8,209.2,207.2,189.3,203.5,164.3z"/>
	<path class="st9" d="M177.8,209.2h-3.6c-0.1,0-0.1-0.1,0-0.2l4.5-2C178.6,207.1,178.2,208.3,177.8,209.2z"/>
	<g>
		<path class="st10" d="M147.8,189.7h45.1c5.2,0,8.3-4.2,6.9-9.4l-25.4-94.8c-1.4-5.2-6.8-9.4-12-9.4h-45.1c-5.2,0-8.3,4.2-6.9,9.4
			l25.4,94.8C137.2,185.5,142.6,189.7,147.8,189.7z"/>
		<path class="st11" d="M151,189.7h45.1c5.2,0,8.3-4.2,6.9-9.4l-25.4-94.8c-1.4-5.2-6.8-9.4-12-9.4h-45.1c-5.2,0-8.3,4.2-6.9,9.4
			l25.4,94.8C140.5,185.5,145.8,189.7,151,189.7z"/>
		<path class="st1" d="M121.1,78c-4.1,0-6.5,3.3-5.4,7.4l25.4,94.8c1.1,4.1,5.3,7.4,9.4,7.4h45.1c4.1,0,6.5-3.3,5.4-7.4l-25.4-94.8
			c-1.1-4.1-5.3-7.4-9.4-7.4H121.1z"/>
		<path class="st0" d="M166.5,79.2h-8.4c-0.7,0-1.1,0.6-0.9,1.3l0.2,0.6c0.5,1.7-0.5,3-2.2,3h-19.6c-1.7,0-3.4-1.4-3.9-3l-0.2-0.6
			c-0.2-0.7-0.9-1.3-1.6-1.3h-8.4c-3.4,0-5.5,2.8-4.6,6.2l25.4,94.8c0.9,3.4,4.5,6.2,7.9,6.2h45.1c3.4,0,5.5-2.8,4.6-6.2l-25.4-94.8
			C173.4,82,169.9,79.2,166.5,79.2z"/>
		<path class="st10" d="M152.3,80.2h-16.1c-0.5,0-0.8,0.4-0.7,0.9c0.1,0.5,0.6,0.9,1.1,0.9h16.1c0.5,0,0.8-0.4,0.7-0.9
			C153.3,80.6,152.8,80.2,152.3,80.2z"/>
		<g>
			<path class="st11" d="M174.4,85.4c-0.9-3.4-4.5-6.2-7.9-6.2h-8.4c-0.7,0-1.1,0.6-0.9,1.3l0.2,0.6c0.5,1.7-0.5,3-2.2,3h-19.6
				c-1.7,0-3.4-1.4-3.9-3l-0.2-0.6c-0.2-0.7-0.9-1.3-1.6-1.3h-8.4c-3.4,0-5.5,2.8-4.6,6.2l0.4,1.4h57.5L174.4,85.4z"/>
		</g>
		<path class="st1" d="M163.4,83.1h-0.2l-0.1-0.3c0,0-0.1-0.1-0.1-0.1h-2.8c0,0-0.1,0-0.1,0.1l0.4,1.3c0,0,0.1,0.1,0.1,0.1h2.8
			c0,0,0.1,0,0.1-0.1l-0.1-0.3h0.2c0,0,0.1,0,0.1-0.1L163.4,83.1C163.5,83.1,163.5,83.1,163.4,83.1L163.4,83.1z M163.2,83.9
			L163.2,83.9h-0.8l-0.3-0.9h0.8c0,0,0,0,0,0L163.2,83.9C163.2,83.9,163.2,83.9,163.2,83.9z"/>
		<g>
			<path class="st1" d="M166.4,83.2h-0.4c0,0-0.1,0-0.1,0.1l0.2,0.9h0.6L166.4,83.2C166.4,83.3,166.4,83.2,166.4,83.2z"/>
			<path class="st1" d="M167,82.8h-0.4c0,0-0.1,0-0.1,0.1l0.3,1.3h0.6L167,82.8C167.1,82.9,167.1,82.8,167,82.8z"/>
			<path class="st1" d="M167.7,82.4h-0.4c0,0-0.1,0-0.1,0.1l0.4,1.7h0.6L167.7,82.4C167.8,82.5,167.8,82.4,167.7,82.4z"/>
			<path class="st1" d="M168.4,82.1H168c0,0-0.1,0-0.1,0.1l0.6,2.1h0.6L168.4,82.1C168.5,82.1,168.5,82.1,168.4,82.1z"/>
		</g>
		<g>
			<path class="st1" d="M126.8,81.5c-0.5-0.3-1.1-0.4-1.6-0.4c-0.5,0-1,0.1-1.4,0.4c-0.1,0-0.1,0.1,0,0.2c0,0,0.1,0.1,0.2,0.1
				c0,0,0.1,0,0.1,0c0.3-0.2,0.8-0.4,1.2-0.4c0.5,0,0.9,0.1,1.4,0.4c0.1,0,0.2,0,0.2-0.1C127,81.7,126.9,81.6,126.8,81.5z"/>
			<path class="st1" d="M126.6,82.3c-0.4-0.2-0.7-0.3-1.1-0.3c-0.4,0-0.7,0.1-1,0.3c-0.1,0-0.1,0.1,0,0.2c0.1,0.1,0.2,0.1,0.2,0.1
				c0.2-0.2,0.5-0.2,0.8-0.2c0.3,0,0.6,0.1,0.9,0.2c0,0,0.1,0,0.1,0c0.1,0,0.1,0,0.1-0.1C126.7,82.4,126.7,82.3,126.6,82.3z"/>
			<path class="st1" d="M126.4,83c-0.2-0.1-0.4-0.2-0.7-0.2c-0.2,0-0.4,0.1-0.6,0.2c-0.1,0-0.1,0.1,0,0.2c0.1,0.1,0.2,0.1,0.2,0.1
				c0.1-0.1,0.3-0.1,0.4-0.1c0.2,0,0.3,0,0.5,0.1c0,0,0.1,0,0.1,0c0.1,0,0.1,0,0.1-0.1C126.5,83.1,126.5,83,126.4,83z"/>
			<path class="st1" d="M126.2,83.7C126.2,83.7,126.2,83.7,126.2,83.7C126.2,83.7,126.2,83.7,126.2,83.7c-0.1-0.1-0.2-0.2-0.3-0.2
				c-0.1,0-0.2,0.1-0.2,0.2c0,0,0,0,0,0c0,0,0,0,0,0c0,0,0,0,0,0c0,0,0,0.1,0,0.1c0,0.2,0.2,0.3,0.4,0.3c0,0,0,0,0,0s0,0,0,0
				c0.2,0,0.3-0.1,0.2-0.3C126.3,83.8,126.3,83.8,126.2,83.7C126.3,83.7,126.2,83.7,126.2,83.7z"/>
		</g>
		<path class="st11" d="M122.1,123.9c-0.2,0-0.4-0.2-0.5-0.4l-3.6-13.3c-0.1-0.2,0.1-0.4,0.3-0.4h0.4c0.2,0,0.4,0.2,0.5,0.4
			l3.6,13.3c0.1,0.2-0.1,0.4-0.3,0.4H122.1L122.1,123.9z M118,106.7c0.2,0,0.3-0.2,0.3-0.4l-1.1-4.2c-0.1-0.2-0.3-0.4-0.5-0.4h-0.4
			c-0.2,0-0.3,0.2-0.3,0.4l1.1,4.2c0.1,0.2,0.3,0.4,0.5,0.4H118L118,106.7z M127.2,141c0.2,0,0.3-0.2,0.3-0.4l-3.6-13.3
			c-0.1-0.2-0.3-0.4-0.5-0.4H123c-0.2,0-0.3,0.2-0.3,0.4l3.6,13.3c0.1,0.2,0.3,0.4,0.5,0.4H127.2z"/>
		<g>
			<path class="st1" d="M155.2,175.7c-0.4,0-0.6,0.3-0.5,0.7c0.1,0.4,0.5,0.7,0.8,0.7s0.6-0.3,0.5-0.7
				C156,176,155.6,175.7,155.2,175.7L155.2,175.7z M180.2,175.7c-0.4,0-0.6,0.3-0.5,0.7c0.1,0.4,0.5,0.7,0.8,0.7
				c0.4,0,0.6-0.3,0.5-0.7C180.9,176,180.6,175.7,180.2,175.7L180.2,175.7z M174,175.7c-0.4,0-0.6,0.3-0.5,0.7
				c0.1,0.4,0.5,0.7,0.8,0.7c0.4,0,0.6-0.3,0.5-0.7C174.7,176,174.3,175.7,174,175.7L174,175.7z M167.7,175.7
				c-0.4,0-0.6,0.3-0.5,0.7c0.1,0.4,0.5,0.7,0.8,0.7c0.4,0,0.6-0.3,0.5-0.7C168.5,176,168.1,175.7,167.7,175.7L167.7,175.7z
				 M161.5,175.7c-0.4,0-0.6,0.3-0.5,0.7c0.1,0.4,0.5,0.7,0.8,0.7s0.6-0.3,0.5-0.7C162.2,176,161.8,175.7,161.5,175.7z"/>
			<g>
				<g>
					<path class="st1" d="M127,96.4h43c0.9,0,1.9,0.7,2.1,1.7l3,11.1c0.2,0.9-0.3,1.7-1.2,1.7h-43c-0.9,0-1.9-0.7-2.1-1.7l-3-11.1
						C125.6,97.1,126.1,96.4,127,96.4L127,96.4z M170.1,96.7h-43c-0.1,0-0.2,0-0.3,0c-0.2,0.1-0.4,0.2-0.5,0.3
						c-0.1,0.2-0.2,0.4-0.2,0.6c0,0.1,0,0.2,0,0.4l3,11.1c0.1,0.4,0.4,0.8,0.7,1c0.3,0.3,0.7,0.4,1.1,0.4h43c0.1,0,0.2,0,0.3,0
						c0.2-0.1,0.4-0.2,0.5-0.3c0.1-0.2,0.2-0.4,0.2-0.6c0-0.1,0-0.2,0-0.4l-3-11.1c-0.1-0.4-0.4-0.8-0.7-1
						C170.9,96.8,170.5,96.7,170.1,96.7z"/>
				</g>
				<path class="st1" d="M136.9,99.2h-7.2c-0.4,0-0.7,0.3-0.6,0.8l1.9,7.2c0.1,0.4,0.6,0.8,1,0.8h7.2c0.4,0,0.7-0.3,0.6-0.8
					l-1.9-7.2C137.8,99.6,137.4,99.2,136.9,99.2z"/>
				<g>
					<path class="st1" d="M142.6,105.4c-0.2,0-0.5-0.2-0.6-0.4c-0.1-0.2,0.1-0.4,0.3-0.4h28.2c0.2,0,0.5,0.2,0.6,0.4
						c0.1,0.2-0.1,0.4-0.3,0.4H142.6z"/>
					<path class="st1" d="M162.6,107.3h-19.4c-0.2,0-0.5-0.2-0.6-0.4c-0.1-0.2,0.1-0.4,0.3-0.4h19.4c0.2,0,0.5,0.2,0.6,0.4
						C163,107.1,162.8,107.3,162.6,107.3z"/>
				</g>
				<path class="st1" d="M153.5,101.9h-11.2c-0.5,0-1.1-0.4-1.2-1c-0.1-0.5,0.2-1,0.7-1h11.2c0.5,0,1.1,0.4,1.2,1
					C154.3,101.5,154,101.9,153.5,101.9z"/>
				<path class="st0" d="M134.9,101.6l-0.1-0.4h-1.8l0.1,0.4H134.9L134.9,101.6z M136.4,105.3l0.1,0.4c0,0.1,0,0.1-0.1,0.1h-0.4
					c-0.1,0-0.1,0-0.1-0.1l-0.1-0.4c0-0.1,0-0.1,0.1-0.1h0.4C136.4,105.3,136.4,105.3,136.4,105.3L136.4,105.3z M135.9,103.3
					l0.4,1.5c0,0.1,0,0.1-0.1,0.1h-0.4c-0.1,0-0.1,0-0.1-0.1l-0.4-1.5c0-0.1,0-0.1,0.1-0.1h0.4C135.8,103.2,135.9,103.3,135.9,103.3
					L135.9,103.3z M135.3,105.3l0.1,0.4c0,0.1,0,0.1-0.1,0.1h-0.6c-0.1,0-0.1,0-0.1-0.1l-0.1-0.4c0-0.1,0-0.1,0.1-0.1h0.6
					C135.3,105.3,135.3,105.3,135.3,105.3L135.3,105.3z M134.8,103.3l0.4,1.5c0,0.1,0,0.1-0.1,0.1h-0.6c-0.1,0-0.1,0-0.1-0.1
					l-0.4-1.5c0-0.1,0-0.1,0.1-0.1h0.6C134.7,103.2,134.8,103.3,134.8,103.3L134.8,103.3z M133.9,102.3h0.6c0.1,0,0.1,0,0.1,0.1
					l0.1,0.4c0,0.1,0,0.1-0.1,0.1H134c-0.1,0-0.1,0-0.1-0.1L133.9,102.3C133.8,102.3,133.8,102.3,133.9,102.3L133.9,102.3z
					 M134.1,105.3l0.1,0.4c0,0.1,0,0.1-0.1,0.1h-0.4c-0.1,0-0.1,0-0.1-0.1l-0.1-0.4c0-0.1,0-0.1,0.1-0.1h0.4
					C134,105.3,134,105.3,134.1,105.3L134.1,105.3z M133.5,103.3l0.4,1.5c0,0.1,0,0.1-0.1,0.1h-0.4c-0.1,0-0.1,0-0.1-0.1l-0.4-1.5
					c0-0.1,0-0.1,0.1-0.1h0.4C133.4,103.2,133.5,103.3,133.5,103.3L133.5,103.3z M132.8,102.3h0.4c0.1,0,0.1,0,0.1,0.1l0.1,0.4
					c0,0.1,0,0.1-0.1,0.1h-0.4c-0.1,0-0.1,0-0.1-0.1L132.8,102.3C132.7,102.3,132.7,102.3,132.8,102.3L132.8,102.3z M135.2,102.3
					h0.4c0.1,0,0.1,0,0.1,0.1l0.1,0.4c0,0.1,0,0.1-0.1,0.1h-0.4c-0.1,0-0.1,0-0.1-0.1L135.2,102.3
					C135.1,102.3,135.1,102.3,135.2,102.3L135.2,102.3z M132.3,100.6h2.8c0.1,0,0.1,0,0.1,0.1l0.1,0.4c0,0.1,0,0.1-0.1,0.1h-0.1
					l0.1,0.4h0.6h0.1c0.1,0,0.1,0,0.1,0.1l0,0.2c0,0.1,0,0.1-0.1,0.1h-0.1l0.2,0.9h1c0.1,0,0.1,0,0.1,0.1l0,0.2c0,0.1,0,0.1-0.1,0.1
					h-0.1l0.8,2.9h0.1c0.1,0,0.1,0,0.1,0.1l0,0.2c0,0.1,0,0.1-0.1,0.1h-5.7c-0.1,0-0.1,0-0.1-0.1l0-0.2c0-0.1,0-0.1,0.1-0.1h0.1
					l-0.8-2.9h-0.1c-0.1,0-0.1,0-0.1-0.1l0-0.2c0-0.1,0-0.1,0.1-0.1h1l-0.2-0.9h-0.1c-0.1,0-0.1,0-0.1-0.1l0-0.2
					c0-0.1,0-0.1,0.1-0.1h0.1h0.6l-0.1-0.4h-0.1c-0.1,0-0.1,0-0.1-0.1L132.3,100.6C132.3,100.7,132.3,100.6,132.3,100.6z"/>
				<g>
					<path class="st1" d="M168.8,102.7h-10.5c-1,0-1.9-0.8-2.2-1.7c-0.3-1,0.3-1.7,1.3-1.7h10.5c1,0,1.9,0.8,2.2,1.7
						C170.4,101.9,169.8,102.7,168.8,102.7L168.8,102.7z M158.3,102.4h10.5c0.1,0,0.2,0,0.3,0c0.2-0.1,0.4-0.2,0.5-0.4
						c0.1-0.2,0.2-0.4,0.2-0.6c0-0.1,0-0.2,0-0.4c-0.1-0.4-0.4-0.7-0.7-1c-0.3-0.3-0.7-0.4-1.1-0.4h-10.5c-0.1,0-0.2,0-0.3,0
						c-0.2,0.1-0.4,0.2-0.5,0.4c-0.1,0.2-0.2,0.4-0.2,0.6c0,0.1,0,0.2,0,0.4c0.1,0.4,0.4,0.7,0.7,1
						C157.5,102.2,157.9,102.4,158.3,102.4z"/>
				</g>
				<path class="st7" d="M158.6,100.3l0.3,0.4l0.4,0.1c0,0,0,0,0,0c0,0,0,0,0,0l-0.2,0.3l0.2,0.4c0,0,0,0,0,0c0,0,0,0,0,0l-0.4-0.2
					l-0.3,0.2c0,0,0,0,0,0c0,0,0,0,0,0l0-0.4l-0.4-0.3c0,0,0,0,0,0c0,0,0,0,0,0l0.4-0.1L158.6,100.3
					C158.5,100.3,158.5,100.3,158.6,100.3C158.6,100.3,158.6,100.3,158.6,100.3z"/>
				<path class="st7" d="M160.8,100.3l0.3,0.4l0.4,0.1c0,0,0,0,0,0c0,0,0,0,0,0l-0.2,0.3l0.2,0.4c0,0,0,0,0,0c0,0,0,0,0,0l-0.4-0.2
					l-0.3,0.2c0,0,0,0,0,0c0,0,0,0,0,0l0-0.4l-0.4-0.3c0,0,0,0,0,0c0,0,0,0,0,0l0.4-0.1L160.8,100.3
					C160.7,100.3,160.7,100.3,160.8,100.3C160.8,100.3,160.8,100.3,160.8,100.3z"/>
				<path class="st7" d="M163,100.3l0.3,0.4l0.4,0.1c0,0,0,0,0,0c0,0,0,0,0,0l-0.2,0.3l0.2,0.4c0,0,0,0,0,0c0,0,0,0,0,0l-0.4-0.2
					l-0.3,0.2c0,0,0,0,0,0c0,0,0,0,0,0l0-0.4l-0.4-0.3c0,0,0,0,0,0c0,0,0,0,0,0l0.4-0.1L163,100.3
					C162.9,100.3,162.9,100.3,163,100.3C163,100.3,163,100.3,163,100.3z"/>
				<path class="st7" d="M165.2,100.3l0.3,0.4l0.4,0.1c0,0,0,0,0,0c0,0,0,0,0,0l-0.2,0.3l0.2,0.4c0,0,0,0,0,0c0,0,0,0,0,0l-0.4-0.2
					l-0.3,0.2c0,0,0,0,0,0c0,0,0,0,0,0l0-0.4l-0.4-0.3c0,0,0,0,0,0c0,0,0,0,0,0l0.4-0.1L165.2,100.3
					C165.1,100.3,165.1,100.3,165.2,100.3C165.2,100.3,165.2,100.3,165.2,100.3z"/>
				<path class="st7" d="M167.4,100.3l0.3,0.4l0.4,0.1c0,0,0,0,0,0c0,0,0,0,0,0l-0.2,0.3l0.2,0.4c0,0,0,0,0,0c0,0,0,0,0,0l-0.4-0.2
					l-0.3,0.2c0,0,0,0,0,0c0,0,0,0,0,0l0-0.4l-0.4-0.3c0,0,0,0,0,0c0,0,0,0,0,0l0.4-0.1L167.4,100.3
					C167.3,100.3,167.3,100.3,167.4,100.3C167.4,100.3,167.4,100.3,167.4,100.3z"/>
			</g>
			<g>
				<g>
					<path class="st1" d="M131.8,114.4h43c0.9,0,1.9,0.7,2.1,1.7l3,11.1c0.2,0.9-0.3,1.7-1.2,1.7h-43c-0.9,0-1.9-0.7-2.1-1.7
						l-3-11.1C130.4,115.1,130.9,114.4,131.8,114.4L131.8,114.4z M174.9,114.6h-43c-0.1,0-0.2,0-0.3,0c-0.2,0.1-0.4,0.2-0.5,0.3
						c-0.1,0.2-0.2,0.4-0.2,0.6c0,0.1,0,0.2,0,0.4l3,11.1c0.1,0.4,0.4,0.8,0.7,1c0.3,0.3,0.7,0.4,1.1,0.4h43c0.1,0,0.2,0,0.3,0
						c0.2-0.1,0.4-0.2,0.5-0.3c0.1-0.2,0.2-0.4,0.2-0.6c0-0.1,0-0.2,0-0.4l-3-11.1c-0.1-0.4-0.4-0.8-0.7-1
						C175.7,114.8,175.3,114.6,174.9,114.6z"/>
				</g>
				<path class="st1" d="M141.7,117.2h-7.2c-0.4,0-0.7,0.3-0.6,0.8l1.9,7.2c0.1,0.4,0.6,0.8,1,0.8h7.2c0.4,0,0.7-0.3,0.6-0.8
					l-1.9-7.2C142.6,117.5,142.2,117.2,141.7,117.2z"/>
				<g>
					<path class="st1" d="M147.4,123.3c-0.2,0-0.5-0.2-0.6-0.4c-0.1-0.2,0.1-0.4,0.3-0.4h28.2c0.2,0,0.5,0.2,0.6,0.4
						c0.1,0.2-0.1,0.4-0.3,0.4H147.4z"/>
					<path class="st1" d="M167.4,125.3H148c-0.2,0-0.5-0.2-0.6-0.4c-0.1-0.2,0.1-0.4,0.3-0.4h19.4c0.2,0,0.5,0.2,0.6,0.4
						C167.8,125.1,167.6,125.3,167.4,125.3z"/>
				</g>
				<path class="st1" d="M158.3,119.9H147c-0.5,0-1.1-0.4-1.2-1c-0.1-0.5,0.2-1,0.7-1h11.2c0.5,0,1.1,0.4,1.2,1
					C159.1,119.5,158.8,119.9,158.3,119.9z"/>
				<g>
					<path class="st1" d="M173.7,120.7h-10.5c-1,0-1.9-0.8-2.2-1.7c-0.3-1,0.3-1.7,1.3-1.7h10.5c1,0,1.9,0.8,2.2,1.7
						C175.2,119.9,174.6,120.7,173.7,120.7L173.7,120.7z M163.1,120.3h10.5c0.1,0,0.2,0,0.3,0c0.2-0.1,0.4-0.2,0.5-0.4
						c0.1-0.2,0.2-0.4,0.2-0.6c0-0.1,0-0.2,0-0.4c-0.1-0.4-0.4-0.7-0.7-1c-0.3-0.3-0.7-0.4-1.1-0.4h-10.5c-0.1,0-0.2,0-0.3,0
						c-0.2,0.1-0.4,0.2-0.5,0.4c-0.1,0.2-0.2,0.4-0.2,0.6c0,0.1,0,0.2,0,0.4c0.1,0.4,0.4,0.7,0.7,1
						C162.3,120.2,162.7,120.3,163.1,120.3z"/>
				</g>
				<path class="st7" d="M163.4,118.2l0.3,0.4l0.4,0.1c0,0,0,0,0,0c0,0,0,0,0,0l-0.2,0.3l0.2,0.4c0,0,0,0,0,0c0,0,0,0,0,0l-0.4-0.2
					l-0.3,0.2c0,0,0,0,0,0c0,0,0,0,0,0l0-0.4l-0.4-0.3c0,0,0,0,0,0c0,0,0,0,0,0l0.4-0.1L163.4,118.2
					C163.3,118.2,163.3,118.2,163.4,118.2C163.4,118.2,163.4,118.2,163.4,118.2z"/>
				<path class="st7" d="M165.6,118.2l0.3,0.4l0.4,0.1c0,0,0,0,0,0c0,0,0,0,0,0l-0.2,0.3l0.2,0.4c0,0,0,0,0,0c0,0,0,0,0,0l-0.4-0.2
					l-0.3,0.2c0,0,0,0,0,0c0,0,0,0,0,0l0-0.4l-0.4-0.3c0,0,0,0,0,0c0,0,0,0,0,0l0.4-0.1L165.6,118.2
					C165.5,118.2,165.5,118.2,165.6,118.2C165.6,118.2,165.6,118.2,165.6,118.2z"/>
				<path class="st7" d="M167.8,118.2l0.3,0.4l0.4,0.1c0,0,0,0,0,0c0,0,0,0,0,0l-0.2,0.3l0.2,0.4c0,0,0,0,0,0c0,0,0,0,0,0l-0.4-0.2
					l-0.3,0.2c0,0,0,0,0,0c0,0,0,0,0,0l0-0.4l-0.4-0.3c0,0,0,0,0,0c0,0,0,0,0,0l0.4-0.1L167.8,118.2
					C167.7,118.2,167.7,118.2,167.8,118.2C167.8,118.2,167.8,118.2,167.8,118.2z"/>
				<path class="st1" d="M170,118.2l0.3,0.4l0.4,0.1c0,0,0,0,0,0c0,0,0,0,0,0l-0.2,0.3l0.2,0.4c0,0,0,0,0,0c0,0,0,0,0,0l-0.4-0.2
					l-0.3,0.2c0,0,0,0,0,0c0,0,0,0,0,0l0-0.4l-0.4-0.3c0,0,0,0,0,0c0,0,0,0,0,0l0.4-0.1L170,118.2
					C169.9,118.2,169.9,118.2,170,118.2C170,118.2,170,118.2,170,118.2z"/>
				<path class="st1" d="M172.2,118.2l0.3,0.4l0.4,0.1c0,0,0,0,0,0c0,0,0,0,0,0l-0.2,0.3l0.2,0.4c0,0,0,0,0,0c0,0,0,0,0,0l-0.4-0.2
					l-0.3,0.2c0,0,0,0,0,0c0,0,0,0,0,0l0-0.4l-0.4-0.3c0,0,0,0,0,0c0,0,0,0,0,0l0.4-0.1L172.2,118.2
					C172.1,118.2,172.1,118.2,172.2,118.2C172.2,118.2,172.2,118.2,172.2,118.2z"/>
				<path class="st0" d="M135.7,118.6h4.2c0.1,0,0.1,0,0.1,0.1l0,0.2c0,0.1,0,0.1-0.1,0.1h-0.1l0.5,1.8l1.9,1.5l0.5,1.8h0.1
					c0.1,0,0.1,0,0.1,0.1l0,0.2c0,0.1,0,0.1-0.1,0.1h-5.7c-0.1,0-0.1,0-0.1-0.1l0-0.2c0-0.1,0-0.1,0.1-0.1h0.1l-1.4-5.2h-0.1
					c-0.1,0-0.1,0-0.1-0.1L135.7,118.6C135.6,118.6,135.6,118.6,135.7,118.6L135.7,118.6z M136.4,119.3
					C136.4,119.3,136.3,119.4,136.4,119.3l0.1,0.6c0,0.1,0.1,0.1,0.1,0.1h0.4c0.1,0,0.1,0,0.1-0.1l-0.1-0.6c0-0.1-0.1-0.1-0.1-0.1
					H136.4L136.4,119.3z M140.1,122.7C140,122.7,140,122.7,140.1,122.7l0.1,0.6c0,0.1,0.1,0.1,0.1,0.1h0.4c0.1,0,0.1,0,0.1-0.1
					l-0.1-0.6c0-0.1-0.1-0.1-0.1-0.1H140.1L140.1,122.7z M139.2,122.7C139.1,122.7,139.1,122.7,139.2,122.7l0.1,0.6
					c0,0.1,0.1,0.1,0.1,0.1h0.4c0.1,0,0.1,0,0.1-0.1l-0.1-0.6c0-0.1-0.1-0.1-0.1-0.1H139.2L139.2,122.7z M138.2,122.7
					C138.2,122.7,138.2,122.7,138.2,122.7l0.1,0.6c0,0.1,0.1,0.1,0.1,0.1h0.4c0.1,0,0.1,0,0.1-0.1l-0.1-0.6c0-0.1-0.1-0.1-0.1-0.1
					H138.2L138.2,122.7z M137.3,122.7C137.3,122.7,137.2,122.7,137.3,122.7l0.1,0.6c0,0.1,0.1,0.1,0.1,0.1h0.4c0.1,0,0.1,0,0.1-0.1
					l-0.1-0.6c0-0.1-0.1-0.1-0.1-0.1H137.3L137.3,122.7z M139.8,121.6C139.7,121.6,139.7,121.6,139.8,121.6l0.1,0.6
					c0,0.1,0.1,0.1,0.1,0.1h0.4c0.1,0,0.1,0,0.1-0.1l-0.1-0.6c0-0.1-0.1-0.1-0.1-0.1H139.8L139.8,121.6z M138.9,121.6
					C138.8,121.6,138.8,121.6,138.9,121.6l0.1,0.6c0,0.1,0.1,0.1,0.1,0.1h0.4c0.1,0,0.1,0,0.1-0.1l-0.1-0.6c0-0.1-0.1-0.1-0.1-0.1
					H138.9L138.9,121.6z M137.9,121.6C137.9,121.6,137.9,121.6,137.9,121.6l0.1,0.6c0,0.1,0.1,0.1,0.1,0.1h0.4c0.1,0,0.1,0,0.1-0.1
					l-0.1-0.6c0-0.1-0.1-0.1-0.1-0.1H137.9L137.9,121.6z M137,121.6C137,121.6,136.9,121.6,137,121.6l0.1,0.6c0,0.1,0.1,0.1,0.1,0.1
					h0.4c0.1,0,0.1,0,0.1-0.1l-0.1-0.6c0-0.1-0.1-0.1-0.1-0.1H137L137,121.6z M139.5,120.5C139.4,120.5,139.4,120.5,139.5,120.5
					l0.1,0.6c0,0.1,0.1,0.1,0.1,0.1h0.4c0.1,0,0.1,0,0.1-0.1l-0.1-0.6c0-0.1-0.1-0.1-0.1-0.1H139.5L139.5,120.5z M138.6,120.5
					C138.5,120.5,138.5,120.5,138.6,120.5l0.1,0.6c0,0.1,0.1,0.1,0.1,0.1h0.4c0.1,0,0.1,0,0.1-0.1l-0.1-0.6c0-0.1-0.1-0.1-0.1-0.1
					H138.6L138.6,120.5z M137.6,120.5C137.6,120.5,137.6,120.5,137.6,120.5l0.1,0.6c0,0.1,0.1,0.1,0.1,0.1h0.4c0.1,0,0.1,0,0.1-0.1
					l-0.1-0.6c0-0.1-0.1-0.1-0.1-0.1H137.6L137.6,120.5z M136.7,120.5C136.7,120.5,136.6,120.5,136.7,120.5l0.1,0.6
					c0,0.1,0.1,0.1,0.1,0.1h0.4c0.1,0,0.1,0,0.1-0.1l-0.1-0.6c0-0.1-0.1-0.1-0.1-0.1H136.7L136.7,120.5z M139.2,119.3
					C139.1,119.3,139.1,119.4,139.2,119.3l0.1,0.6c0,0.1,0.1,0.1,0.1,0.1h0.4c0.1,0,0.1,0,0.1-0.1l-0.1-0.6c0-0.1-0.1-0.1-0.1-0.1
					H139.2L139.2,119.3z M138.3,119.3C138.2,119.3,138.2,119.4,138.3,119.3l0.1,0.6c0,0.1,0.1,0.1,0.1,0.1h0.4c0.1,0,0.1,0,0.1-0.1
					l-0.1-0.6c0-0.1-0.1-0.1-0.1-0.1H138.3L138.3,119.3z M137.3,119.3C137.3,119.3,137.3,119.4,137.3,119.3l0.1,0.6
					c0,0.1,0.1,0.1,0.1,0.1h0.4c0.1,0,0.1,0,0.1-0.1l-0.1-0.6c0-0.1-0.1-0.1-0.1-0.1H137.3z"/>
			</g>
			<g>
				<g>
					<path class="st1" d="M136.6,132.2h43c0.9,0,1.9,0.7,2.1,1.7l3,11.1c0.2,0.9-0.3,1.7-1.2,1.7h-43c-0.9,0-1.9-0.7-2.1-1.7
						l-3-11.1C135.2,133,135.7,132.2,136.6,132.2L136.6,132.2z M179.7,132.5h-43c-0.1,0-0.2,0-0.3,0c-0.2,0.1-0.4,0.2-0.5,0.3
						c-0.1,0.2-0.2,0.4-0.2,0.6c0,0.1,0,0.2,0,0.4l3,11.1c0.1,0.4,0.4,0.8,0.7,1c0.3,0.3,0.7,0.4,1.1,0.4h43c0.1,0,0.2,0,0.3,0
						c0.2-0.1,0.4-0.2,0.5-0.3c0.1-0.2,0.2-0.4,0.2-0.6c0-0.1,0-0.2,0-0.4l-3-11.1c-0.1-0.4-0.4-0.8-0.7-1
						C180.5,132.7,180.1,132.5,179.7,132.5z"/>
				</g>
				<path class="st1" d="M146.5,135h-7.2c-0.4,0-0.7,0.3-0.6,0.8l1.9,7.2c0.1,0.4,0.6,0.8,1,0.8h7.2c0.4,0,0.7-0.3,0.6-0.8l-1.9-7.2
					C147.4,135.4,147,135,146.5,135z"/>
				<g>
					<path class="st1" d="M152.2,141.2c-0.2,0-0.5-0.2-0.6-0.4c-0.1-0.2,0.1-0.4,0.3-0.4h28.2c0.2,0,0.5,0.2,0.6,0.4
						c0.1,0.2-0.1,0.4-0.3,0.4H152.2z"/>
					<path class="st1" d="M172.2,143.2h-19.4c-0.2,0-0.5-0.2-0.6-0.4c-0.1-0.2,0.1-0.4,0.3-0.4H172c0.2,0,0.5,0.2,0.6,0.4
						C172.6,143,172.4,143.2,172.2,143.2z"/>
				</g>
				<path class="st1" d="M163.1,137.8h-11.2c-0.5,0-1.1-0.4-1.2-1c-0.1-0.5,0.2-1,0.7-1h11.2c0.5,0,1.1,0.4,1.2,1
					C163.9,137.3,163.6,137.8,163.1,137.8z"/>
				<g>
					<path class="st1" d="M178.4,138.5H168c-1,0-1.9-0.8-2.2-1.7c-0.3-1,0.3-1.7,1.3-1.7h10.5c1,0,1.9,0.8,2.2,1.7
						C180,137.7,179.4,138.5,178.4,138.5L178.4,138.5z M167.9,138.2h10.5c0.1,0,0.2,0,0.3,0c0.2-0.1,0.4-0.2,0.5-0.4
						c0.1-0.2,0.2-0.4,0.2-0.6c0-0.1,0-0.2,0-0.4c-0.1-0.4-0.4-0.7-0.7-1c-0.3-0.3-0.7-0.4-1.1-0.4h-10.5c-0.1,0-0.2,0-0.3,0
						c-0.2,0.1-0.4,0.2-0.5,0.4c-0.1,0.2-0.2,0.4-0.2,0.6c0,0.1,0,0.2,0,0.4c0.1,0.4,0.4,0.7,0.7,1
						C167.1,138,167.5,138.2,167.9,138.2z"/>
				</g>
				<path class="st7" d="M168.2,136.1l0.3,0.4l0.4,0.1c0,0,0,0,0,0c0,0,0,0,0,0l-0.2,0.3l0.2,0.4c0,0,0,0,0,0c0,0,0,0,0,0l-0.4-0.2
					l-0.3,0.2c0,0,0,0,0,0c0,0,0,0,0,0l0-0.4l-0.4-0.3c0,0,0,0,0,0c0,0,0,0,0,0l0.4-0.1L168.2,136.1
					C168.1,136.1,168.1,136.1,168.2,136.1C168.2,136.1,168.2,136.1,168.2,136.1z"/>
				<path class="st7" d="M170.4,136.1l0.3,0.4l0.4,0.1c0,0,0,0,0,0c0,0,0,0,0,0l-0.2,0.3l0.2,0.4c0,0,0,0,0,0c0,0,0,0,0,0l-0.4-0.2
					l-0.3,0.2c0,0,0,0,0,0c0,0,0,0,0,0l0-0.4l-0.4-0.3c0,0,0,0,0,0c0,0,0,0,0,0l0.4-0.1L170.4,136.1
					C170.3,136.1,170.3,136.1,170.4,136.1C170.4,136.1,170.4,136.1,170.4,136.1z"/>
				<path class="st7" d="M172.6,136.1l0.3,0.4l0.4,0.1c0,0,0,0,0,0c0,0,0,0,0,0l-0.2,0.3l0.2,0.4c0,0,0,0,0,0c0,0,0,0,0,0l-0.4-0.2
					l-0.3,0.2c0,0,0,0,0,0c0,0,0,0,0,0l0-0.4l-0.4-0.3c0,0,0,0,0,0c0,0,0,0,0,0l0.4-0.1L172.6,136.1
					C172.5,136.1,172.5,136.1,172.6,136.1C172.6,136.1,172.6,136.1,172.6,136.1z"/>
				<path class="st7" d="M174.8,136.1l0.3,0.4l0.4,0.1c0,0,0,0,0,0c0,0,0,0,0,0l-0.2,0.3l0.2,0.4c0,0,0,0,0,0c0,0,0,0,0,0l-0.4-0.2
					l-0.3,0.2c0,0,0,0,0,0c0,0,0,0,0,0l0-0.4l-0.4-0.3c0,0,0,0,0,0c0,0,0,0,0,0l0.4-0.1L174.8,136.1
					C174.7,136.1,174.7,136.1,174.8,136.1C174.8,136.1,174.8,136.1,174.8,136.1z"/>
				<path class="st1" d="M177,136.1l0.3,0.4l0.4,0.1c0,0,0,0,0,0c0,0,0,0,0,0l-0.2,0.3l0.2,0.4c0,0,0,0,0,0c0,0,0,0,0,0l-0.4-0.2
					l-0.3,0.2c0,0,0,0,0,0c0,0,0,0,0,0l0-0.4l-0.4-0.3c0,0,0,0,0,0c0,0,0,0,0,0l0.4-0.1L177,136.1
					C176.9,136.1,176.9,136.1,177,136.1C177,136.1,177,136.1,177,136.1z"/>
				<path class="st0" d="M141.9,142L141.9,142l-1-4.2h-0.1c-0.1,0-0.1,0-0.1-0.1l0-0.2c0-0.1,0-0.1,0.1-0.1h1.2
					c0.2-0.6,0.7-0.9,1.5-0.9c0.7,0,1.4,0.4,1.9,0.9h1.2c0.1,0,0.1,0,0.1,0.1l0,0.2c0,0.1,0,0.1-0.1,0.1h-0.1l1.1,4.2h0.1
					c0.1,0,0.1,0,0.1,0.1l0,0.2c0,0.1,0,0.1-0.1,0.1H142c-0.1,0-0.1,0-0.1-0.1L141.9,142C141.9,142,141.9,142,141.9,142L141.9,142z
					 M141.5,138.1C141.4,138.1,141.4,138.2,141.5,138.1l0.1,0.8c0,0.1,0.1,0.1,0.1,0.1h0.7c0.1,0,0.1,0,0.1-0.1l-0.2-0.7
					c0-0.1-0.1-0.1-0.1-0.1H141.5L141.5,138.1z M146,140.7C146,140.7,145.9,140.8,146,140.7l0.1,0.8c0,0.1,0.1,0.1,0.1,0.1h0.7
					c0.1,0,0.1,0,0.1-0.1l-0.2-0.7c0-0.1-0.1-0.1-0.1-0.1H146L146,140.7z M142.1,140.7C142.1,140.7,142.1,140.8,142.1,140.7l0.1,0.8
					c0,0.1,0.1,0.1,0.1,0.1h0.7c0.1,0,0.1,0,0.1-0.1l-0.2-0.7c0-0.1-0.1-0.1-0.1-0.1H142.1L142.1,140.7z M145.7,139.4
					C145.6,139.4,145.6,139.5,145.7,139.4l0.1,0.8c0,0.1,0.1,0.1,0.1,0.1h0.7c0.1,0,0.1,0,0.1-0.1l-0.2-0.7c0-0.1-0.1-0.1-0.1-0.1
					H145.7L145.7,139.4z M144.4,139.4C144.3,139.4,144.3,139.5,144.4,139.4l0.1,0.8c0,0.1,0.1,0.1,0.1,0.1h0.7c0.1,0,0.1,0,0.1-0.1
					l-0.2-0.7c0-0.1-0.1-0.1-0.1-0.1H144.4L144.4,139.4z M143.1,139.4C143,139.4,143,139.5,143.1,139.4l0.1,0.8
					c0,0.1,0.1,0.1,0.1,0.1h0.7c0.1,0,0.1,0,0.1-0.1l-0.2-0.7c0-0.1-0.1-0.1-0.1-0.1H143.1L143.1,139.4z M141.8,139.4
					C141.7,139.4,141.7,139.5,141.8,139.4l0.1,0.8c0,0.1,0.1,0.1,0.1,0.1h0.7c0.1,0,0.1,0,0.1-0.1l-0.2-0.7c0-0.1-0.1-0.1-0.1-0.1
					H141.8L141.8,139.4z M145.3,138.1C145.3,138.1,145.2,138.2,145.3,138.1l0.1,0.8c0,0.1,0.1,0.1,0.1,0.1h0.7c0.1,0,0.1,0,0.1-0.1
					l-0.2-0.7c0-0.1-0.1-0.1-0.1-0.1H145.3L145.3,138.1z M144,138.1C144,138.1,144,138.2,144,138.1l0.1,0.8c0,0.1,0.1,0.1,0.1,0.1
					h0.7c0.1,0,0.1,0,0.1-0.1l-0.2-0.7c0-0.1-0.1-0.1-0.1-0.1H144L144,138.1z M142.7,138.1C142.7,138.1,142.7,138.2,142.7,138.1
					l0.1,0.8c0,0.1,0.1,0.1,0.1,0.1h0.7c0.1,0,0.1,0,0.1-0.1l-0.2-0.7c0-0.1-0.1-0.1-0.1-0.1H142.7L142.7,138.1z M144.7,140.7
					C144.7,140.7,144.6,140.8,144.7,140.7l0.2,1.2c0,0.1,0.1,0.1,0.1,0.1h0.7c0.1,0,0.1,0,0.1-0.1l-0.3-1.1c0-0.1-0.1-0.1-0.1-0.1
					H144.7L144.7,140.7z M144.5,142C144.6,142,144.6,142,144.5,142l-0.2-1.2c0-0.1-0.1-0.1-0.1-0.1h-0.7c-0.1,0-0.1,0-0.1,0.1
					l0.3,1.1c0,0.1,0.1,0.1,0.1,0.1H144.5z"/>
			</g>
			<g>
				<g>
					<path class="st1" d="M141.5,150.4h43c0.9,0,1.9,0.7,2.1,1.7l3,11.1c0.2,0.9-0.3,1.7-1.2,1.7h-43c-0.9,0-1.9-0.7-2.1-1.7
						l-3-11.1C140,151.1,140.6,150.4,141.5,150.4L141.5,150.4z M184.5,150.7h-43c-0.1,0-0.2,0-0.3,0c-0.2,0.1-0.4,0.2-0.5,0.3
						c-0.1,0.2-0.2,0.4-0.2,0.6c0,0.1,0,0.2,0,0.4l3,11.1c0.1,0.4,0.4,0.8,0.7,1c0.3,0.3,0.7,0.4,1.1,0.4h43c0.1,0,0.2,0,0.3,0
						c0.2-0.1,0.4-0.2,0.5-0.3c0.1-0.2,0.2-0.4,0.2-0.6c0-0.1,0-0.2,0-0.4l-3-11.1c-0.1-0.4-0.4-0.8-0.7-1
						C185.3,150.8,184.9,150.7,184.5,150.7z"/>
				</g>
				<path class="st1" d="M151.4,153.2h-7.2c-0.4,0-0.7,0.3-0.6,0.8l1.9,7.2c0.1,0.4,0.6,0.8,1,0.8h7.2c0.4,0,0.7-0.3,0.6-0.8
					l-1.9-7.2C152.3,153.5,151.8,153.2,151.4,153.2z"/>
				<g>
					<path class="st1" d="M157.1,159.4c-0.2,0-0.5-0.2-0.6-0.4c-0.1-0.2,0.1-0.4,0.3-0.4h28.2c0.2,0,0.5,0.2,0.6,0.4
						c0.1,0.2-0.1,0.4-0.3,0.4H157.1z"/>
					<path class="st1" d="M177,161.3h-19.4c-0.2,0-0.5-0.2-0.6-0.4c-0.1-0.2,0.1-0.4,0.3-0.4h19.4c0.2,0,0.5,0.2,0.6,0.4
						C177.4,161.1,177.3,161.3,177,161.3z"/>
				</g>
				<path class="st1" d="M167.9,155.9h-11.2c-0.5,0-1.1-0.4-1.2-1c-0.1-0.5,0.2-1,0.7-1h11.2c0.5,0,1.1,0.4,1.2,1
					C168.8,155.5,168.5,155.9,167.9,155.9z"/>
				<g>
					<path class="st1" d="M183.3,156.7h-10.5c-1,0-1.9-0.8-2.2-1.7c-0.3-1,0.3-1.7,1.3-1.7h10.5c1,0,1.9,0.8,2.2,1.7
						C184.8,155.9,184.3,156.7,183.3,156.7L183.3,156.7z M172.7,156.3h10.5c0.1,0,0.2,0,0.3,0c0.2-0.1,0.4-0.2,0.5-0.4
						c0.1-0.2,0.2-0.4,0.2-0.6c0-0.1,0-0.2,0-0.4c-0.1-0.4-0.4-0.7-0.7-1c-0.3-0.3-0.7-0.4-1.1-0.4H172c-0.1,0-0.2,0-0.3,0
						c-0.2,0.1-0.4,0.2-0.5,0.4c-0.1,0.2-0.2,0.4-0.2,0.6c0,0.1,0,0.2,0,0.4c0.1,0.4,0.4,0.7,0.7,1
						C172,156.2,172.3,156.3,172.7,156.3z"/>
				</g>
				<path class="st7" d="M173,154.3l0.3,0.4l0.4,0.1c0,0,0,0,0,0c0,0,0,0,0,0l-0.2,0.3l0.2,0.4c0,0,0,0,0,0c0,0,0,0,0,0l-0.4-0.2
					l-0.3,0.2c0,0,0,0,0,0c0,0,0,0,0,0l0-0.4l-0.4-0.3c0,0,0,0,0,0c0,0,0,0,0,0l0.4-0.1L173,154.3C173,154.2,173,154.2,173,154.3
					C173,154.2,173,154.2,173,154.3z"/>
				<path class="st1" d="M175.2,154.3l0.3,0.4l0.4,0.1c0,0,0,0,0,0c0,0,0,0,0,0l-0.2,0.3l0.2,0.4c0,0,0,0,0,0c0,0,0,0,0,0l-0.4-0.2
					l-0.3,0.2c0,0,0,0,0,0c0,0,0,0,0,0l0-0.4l-0.4-0.3c0,0,0,0,0,0c0,0,0,0,0,0l0.4-0.1L175.2,154.3
					C175.2,154.2,175.2,154.2,175.2,154.3C175.2,154.2,175.2,154.2,175.2,154.3z"/>
				<path class="st1" d="M177.4,154.3l0.3,0.4l0.4,0.1c0,0,0,0,0,0c0,0,0,0,0,0L178,155l0.2,0.4c0,0,0,0,0,0c0,0,0,0,0,0l-0.4-0.2
					l-0.3,0.2c0,0,0,0,0,0c0,0,0,0,0,0l0-0.4l-0.4-0.3c0,0,0,0,0,0c0,0,0,0,0,0l0.4-0.1L177.4,154.3
					C177.4,154.2,177.4,154.2,177.4,154.3C177.4,154.2,177.4,154.2,177.4,154.3z"/>
				<path class="st1" d="M179.7,154.3l0.3,0.4l0.4,0.1c0,0,0,0,0,0c0,0,0,0,0,0l-0.2,0.3l0.2,0.4c0,0,0,0,0,0c0,0,0,0,0,0l-0.4-0.2
					l-0.3,0.2c0,0,0,0,0,0c0,0,0,0,0,0l0-0.4l-0.4-0.3c0,0,0,0,0,0c0,0,0,0,0,0l0.4-0.1L179.7,154.3
					C179.6,154.2,179.6,154.2,179.7,154.3C179.6,154.2,179.6,154.2,179.7,154.3z"/>
				<path class="st1" d="M181.9,154.3l0.3,0.4l0.4,0.1c0,0,0,0,0,0c0,0,0,0,0,0l-0.2,0.3l0.2,0.4c0,0,0,0,0,0c0,0,0,0,0,0l-0.4-0.2
					l-0.3,0.2c0,0,0,0,0,0c0,0,0,0,0,0l0-0.4l-0.4-0.3c0,0,0,0,0,0c0,0,0,0,0,0l0.4-0.1L181.9,154.3
					C181.8,154.2,181.8,154.2,181.9,154.3C181.8,154.2,181.8,154.2,181.9,154.3z"/>
				<path class="st0" d="M147.1,159h0.7c0.1,0,0.1,0,0.1,0.1l0.1,0.6c0,0.1,0,0.1-0.1,0.1h-0.7c-0.1,0-0.1,0-0.1-0.1L147.1,159
					C147,159.1,147,159,147.1,159L147.1,159z M149.6,159h0.7c0.1,0,0.1,0,0.1,0.1l0.2,0.9c0,0.1,0,0.1-0.1,0.1h-0.7
					c-0.1,0-0.1,0-0.1-0.1L149.6,159C149.6,159.1,149.6,159,149.6,159L149.6,159z M148.3,159h0.7c0.1,0,0.1,0,0.1,0.1l0.2,0.9
					c0,0.1,0,0.1-0.1,0.1h-0.7c-0.1,0-0.1,0-0.1-0.1L148.3,159C148.3,159.1,148.3,159,148.3,159L148.3,159z M149.4,155.7h0.7
					c0.1,0,0.1,0,0.1,0.1l0.1,0.6c0,0.1,0,0.1-0.1,0.1h-0.7c-0.1,0-0.1,0-0.1-0.1L149.4,155.7C149.3,155.8,149.3,155.7,149.4,155.7
					L149.4,155.7z M148.1,155.7h0.7c0.1,0,0.1,0,0.1,0.1l0.1,0.6c0,0.1,0,0.1-0.1,0.1h-0.7c-0.1,0-0.1,0-0.1-0.1L148.1,155.7
					C148,155.8,148.1,155.7,148.1,155.7L148.1,155.7z M146.8,155.7h0.7c0.1,0,0.1,0,0.1,0.1l0.1,0.6c0,0.1,0,0.1-0.1,0.1H147
					c-0.1,0-0.1,0-0.1-0.1L146.8,155.7C146.7,155.8,146.8,155.7,146.8,155.7L146.8,155.7z M149.7,156.8h0.7c0.1,0,0.1,0,0.1,0.1
					l0.1,0.6c0,0.1,0,0.1-0.1,0.1h-0.7c-0.1,0-0.1,0-0.1-0.1L149.7,156.8C149.6,156.9,149.6,156.8,149.7,156.8L149.7,156.8z
					 M148.4,156.8h0.7c0.1,0,0.1,0,0.1,0.1l0.1,0.6c0,0.1,0,0.1-0.1,0.1h-0.7c-0.1,0-0.1,0-0.1-0.1L148.4,156.8
					C148.3,156.9,148.4,156.8,148.4,156.8L148.4,156.8z M147.1,156.8h0.7c0.1,0,0.1,0,0.1,0.1l0.1,0.6c0,0.1,0,0.1-0.1,0.1h-0.7
					c-0.1,0-0.1,0-0.1-0.1L147.1,156.8C147,156.9,147.1,156.8,147.1,156.8L147.1,156.8z M150,157.9h0.7c0.1,0,0.1,0,0.1,0.1l0.1,0.6
					c0,0.1,0,0.1-0.1,0.1h-0.7c-0.1,0-0.1,0-0.1-0.1L150,157.9C149.9,158,149.9,157.9,150,157.9L150,157.9z M148.7,157.9h0.7
					c0.1,0,0.1,0,0.1,0.1l0.1,0.6c0,0.1,0,0.1-0.1,0.1h-0.7c-0.1,0-0.1,0-0.1-0.1L148.7,157.9C148.6,158,148.6,157.9,148.7,157.9
					L148.7,157.9z M147.4,157.9h0.7c0.1,0,0.1,0,0.1,0.1l0.1,0.6c0,0.1,0,0.1-0.1,0.1h-0.7c-0.1,0-0.1,0-0.1-0.1L147.4,157.9
					C147.3,158,147.4,157.9,147.4,157.9L147.4,157.9z M150.9,159h0.7c0.1,0,0.1,0,0.1,0.1l0.1,0.6c0,0.1,0,0.1-0.1,0.1h-0.7
					c-0.1,0-0.1,0-0.1-0.1L150.9,159C150.8,159.1,150.9,159,150.9,159L150.9,159z M146.8,154.6C146.7,154.6,146.7,154.7,146.8,154.6
					l0,0.4h-0.6h-0.1c-0.1,0-0.1,0-0.1,0.1l0,0.2c0,0.1,0.1,0.1,0.1,0.1h0.1l0.7,2.7l-0.5,0.6l0.4,1.5h-0.1c-0.1,0-0.1,0-0.1,0.1
					l0,0.2c0,0.1,0.1,0.1,0.1,0.1h5.7c0.1,0,0.1,0,0.1-0.1l0-0.2c0-0.1-0.1-0.1-0.1-0.1h-0.1l-0.4-1.5l-0.8-0.6l-0.7-2.7h0.2
					c0.1,0,0.1,0,0.1-0.1l0-0.2c0-0.1-0.1-0.1-0.1-0.1h-0.2h-0.6l-0.1-0.3c0-0.1-0.1-0.1-0.1-0.1H146.8z"/>
			</g>
			<g>
				<path class="st1" d="M183.6,168.7h-31.4c-0.2,0-0.5-0.2-0.6-0.4c-0.1-0.2,0.1-0.4,0.3-0.4h31.4c0.2,0,0.5,0.2,0.6,0.4
					C184,168.5,183.9,168.7,183.6,168.7z"/>
				<path class="st1" d="M178.9,171.1h-20.7c-0.2,0-0.5-0.2-0.6-0.4c-0.1-0.2,0.1-0.4,0.3-0.4h20.7c0.2,0,0.5,0.2,0.6,0.4
					C179.3,170.9,179.2,171.1,178.9,171.1z"/>
			</g>
		</g>
	</g>
	<g>
		<path class="st7" d="M205.3,133.5c0,0-2.5,18.1,2.5,34.5s9.9,32.7,11,41.2c0,0,12.3-28.6,1.3-45.2c0,0,6.1-13.2-0.7-29.8
			C212.6,117.6,205.3,133.5,205.3,133.5z"/>
		<path class="st8" d="M219.4,134.2c-3.2-7.9-6.6-8.4-9.2-6.8c0,0.8,0.3,1.7,0.9,2.8c7.6,13.5,8.8,29.9,9,33.2c0,0.4,0,0.6,0,0.6
			S226.2,150.8,219.4,134.2z"/>
		<path class="st12" d="M206.1,108.1l-7.2,21.8c0,0,9.4,7.1,18.2,5.6c8.8-1.6,3.5-24.6,3.5-24.6L206.1,108.1z"/>
		<path class="st13" d="M221.9,119.5l-8.2-2.5c0,0-2.3,8.7-12.2,14.5c3.4,2,9.6,4.9,15.6,3.9C222.2,134.5,222.5,126.2,221.9,119.5z"
			/>
		<path class="st14" d="M194,104.6c0,0-14.6-1.4-21.5-7.3c-3-2.6-4-1.3-5.3,0.6c-1.2,1.9,1.6-0.3,1.6-0.3s0.3,1.4,1.2,1.4
			c0.9,0.1,1.5-0.3,1.5-0.3s4.4,12.7,21.8,19L194,104.6z"/>
		<path class="st15" d="M224.8,139.4c0,0-9.7-5.2-14.3-12.6C210.5,126.8,221.3,126.4,224.8,139.4z"/>
		<path class="st14" d="M210.5,126.8c0,0-8.9,12-27.8,7.4c0,0-0.5-2.9-2.9-2.4c-2.4,0.5-3.8,1.7-3.1,1.6c0.8,0,2.1-0.4,2.1-0.4
			s-0.1,2.3,2.2,2.1c0,0,17.4,21.5,43.1,0.5C224.1,135.8,217.3,126.6,210.5,126.8z"/>
		<path class="st16" d="M181,135.3c0,0,17.4,21.5,43.1,0.5c0,0-6.8-9.2-13.6-8.9c4.1,2,7.1,4.9,7.1,4.9
			c-17.8,16.3-36.4,2.9-36.4,2.9c-2.1,0.3-2.1-2-2.1-2c-0.6,0.3-1.8,0.5-2.6,0.7c0,0,0.1,0.1,0.2,0.1c0.8,0,2.1-0.4,2.1-0.4
			S178.8,135.4,181,135.3z"/>
		<path class="st12" d="M224.8,139.4c0,0,7.4-27.8-9.7-35.5c-4.3-1.9-10.4,1.9-21.1,0.6c0,0-2.8,6.3-1.2,14.9c0,0,14.2,1.8,21-2.4
			c0,0-0.3,5.6-3.2,9.8C210.5,126.8,220.8,128.6,224.8,139.4z"/>
		<g>
			<path class="st14" d="M213.5,101.3c0,0-2.2,3.2-1.9,5.3c1.3-0.3,3.2-1.9,3.2-2.3c0-0.6,0.1-1.4,0.1-1.4L213.5,101.3z"/>
			<g>
				<path class="st16" d="M213.7,102.8c-0.4,0-0.9,0.1-1.2,0.1c-0.4,0.8-0.8,1.8-1,2.7C212.8,104.8,213.5,104,213.7,102.8z"/>
			</g>
			<g>
				<g>
					<g>
						<path class="st9" d="M211.6,101.2c-0.8-1.7-0.5-4.8-0.2-5c0.3-0.2,1.1,0.2,1.4,0.4c-0.1-1.7,1.3-4.9,2.2-4.9
							c0.7,0,1.9,3.1,2,4.8c0.5-0.4,1.3-0.9,1.6-0.7c0.3,0.2,0.5,2.3-0.3,4.2c0.5-0.4,0.9-0.5,1.1-0.3c0.2,0.2-1.4,3.6-5.6,3.6
							C213.4,102.9,211.6,101.2,211.6,101.2z"/>
					</g>
					<path class="st14" d="M214.4,101.5C214.4,101.5,214.3,101.4,214.4,101.5c0.7-1.1,0.8-2.6-0.2-3.1c-1.6-0.9-4.1,5-3.3,5.6
						c0.9,0.7,4.8-1.5,4.5-2.3C215.2,101.2,214.6,101.4,214.4,101.5z"/>
					<g>
						<path class="st9" d="M214,100.7c0-0.3-0.4-0.5-0.7-0.4C213.5,100.3,213.9,100.5,214,100.7z"/>
					</g>
					<path class="st0" d="M211.3,102c-0.1,0.2-0.2,0.7-0.2,0.9c0.3,0.2,1.6,0.4,2.2-0.6C212.9,102.4,211.4,102.4,211.3,102z"/>
				</g>
			</g>
		</g>
		<path class="st9" d="M218.8,209.2h-3.6c-0.1,0-0.1-0.1,0-0.2l3.3-1.8C218.5,207.2,218.7,208.2,218.8,209.2z"/>
		<path class="st16" d="M193.3,117.7l0.3-5.3c-0.4-0.1-0.8-0.2-1.2-0.3c-10.7-1.8-20.8-14-20.8-14c-2.7,1.2-2.6-1.1-2.6-1.1
			c-0.3,0.5-1.5,1.2-2.1,1.5c0,0.5,1.9-1,1.9-1s0.3,1.4,1.2,1.4c0.9,0.1,1.5-0.3,1.5-0.3S175.9,111.3,193.3,117.7z"/>
		<path class="st13" d="M204.9,111.8c0,0-6.2,1.2-12.5,0.4c-0.2,2.1-0.1,4.6,0.4,7.3c0,0,4.4,0.6,9.4,0.3L204.9,111.8z"/>
		<path class="st13" d="M217,105c0,0,7.7,12.5,1.3,25.5c0,0,0,0,0,0c2.5,1.9,5,4.7,6.5,8.9C224.8,139.4,231.6,113.8,217,105z"/>
		<path class="st16" d="M169.7,98.4c0,0,0.2-0.7,1-0.7c0,0-0.9-0.3-1.5,0.3C169.2,98,169.3,98.5,169.7,98.4z"/>
		<path class="st8" d="M217.6,180.2c-5.3-12.6-8.5-12.4-11.6-19.5c0,0,0,0,0,0c0.4,2.4,1,4.9,1.7,7.3c5,16.5,9.9,32.7,11,41.2
			C218.8,209.2,223,192.8,217.6,180.2z"/>
	</g>
	<g>
		
			<ellipse transform="matrix(0.9999 -1.665983e-02 1.665983e-02 0.9999 -1.5237 3.9791)" class="st7" cx="238.1" cy="93.4" rx="8.1" ry="8.1"/>
		<path class="st0" d="M235.3,92.9c-0.3-0.3-0.3-0.7,0-0.9c0.3-0.3,0.7-0.3,0.9,0l1.8,1.8l4.1-4.1c0.3-0.3,0.7-0.3,0.9,0
			c0.3,0.3,0.3,0.7,0,0.9l-4.5,4.5c-0.3,0.3-0.7,0.3-0.9,0L235.3,92.9L235.3,92.9z M238.1,88.3c-2.9,0-5.2,2.3-5.2,5.2
			c0,2.9,2.3,5.2,5.2,5.2c2.9,0,5.2-2.3,5.2-5.2c0-0.5-0.1-1-0.2-1.5c0-0.1-0.1-0.1-0.1-0.1c-0.1,0-0.1,0-0.2,0l-0.5,0.5
			c0,0-0.1,0.1,0,0.1c0.1,0.3,0.1,0.6,0.1,0.9c0,2.3-1.9,4.2-4.2,4.2c-2.3,0-4.2-1.9-4.2-4.2c0-2.3,1.9-4.2,4.2-4.2
			c1,0,1.9,0.3,2.6,0.9c0.1,0.1,0.2,0,0.2,0l0.5-0.5c0,0,0-0.1,0-0.1c0,0,0-0.1-0.1-0.1C240.4,88.7,239.3,88.3,238.1,88.3z"/>
		<path class="st7" d="M231.9,97.2l2.4,2.4l-5.6,3.5c-0.1,0.1-0.2,0-0.3,0c-0.1-0.1-0.1-0.2,0-0.3L231.9,97.2z"/>
	</g>
	<g>
		<path class="st12" d="M127,90.2H93.2c-1.7,0-2.8,1.4-2.3,3.1l6.3,23.4c0.5,1.7,2.2,3.1,4,3.1H135c1.7,0,2.8-1.4,2.3-3.1L131,93.4
			C130.5,91.6,128.8,90.2,127,90.2z"/>
		<path class="st0" d="M109.5,98.7l-0.3-1.2h5.8l0.3,1.2H109.5L109.5,98.7z M110.9,110.6l0.3,1.2c0,0.2,0.2,0.3,0.4,0.3h1.2
			c0.2,0,0.3-0.1,0.2-0.3l-0.3-1.2c0-0.2-0.2-0.3-0.4-0.3h-1.2C111,110.3,110.9,110.4,110.9,110.6L110.9,110.6z M109.2,104.2
			l1.2,4.6c0,0.2,0.2,0.3,0.4,0.3h1.2c0.2,0,0.3-0.1,0.2-0.3l-1.2-4.6c0-0.2-0.2-0.3-0.4-0.3h-1.2
			C109.3,103.9,109.2,104,109.2,104.2L109.2,104.2z M114.4,110.6l0.3,1.2c0,0.2,0.2,0.3,0.4,0.3h1.7c0.2,0,0.3-0.1,0.2-0.3l-0.3-1.2
			c0-0.2-0.2-0.3-0.4-0.3h-1.7C114.5,110.3,114.4,110.4,114.4,110.6L114.4,110.6z M112.7,104.2l1.2,4.6c0,0.2,0.2,0.3,0.4,0.3h1.7
			c0.2,0,0.3-0.1,0.2-0.3l-1.2-4.6c0-0.2-0.2-0.3-0.4-0.3h-1.7C112.7,103.9,112.7,104,112.7,104.2L112.7,104.2z M113.9,101h-1.7
			c-0.2,0-0.3,0.1-0.2,0.3l0.3,1.2c0,0.2,0.2,0.3,0.4,0.3h1.7c0.2,0,0.3-0.1,0.2-0.3l-0.3-1.2C114.2,101.1,114,101,113.9,101
			L113.9,101z M118.5,110.6l0.3,1.2c0,0.2,0.2,0.3,0.4,0.3h1.2c0.2,0,0.3-0.1,0.2-0.3l-0.3-1.2c0-0.2-0.2-0.3-0.4-0.3h-1.2
			C118.5,110.3,118.4,110.4,118.5,110.6L118.5,110.6z M116.8,104.2l1.2,4.6c0,0.2,0.2,0.3,0.4,0.3h1.2c0.2,0,0.3-0.1,0.2-0.3
			l-1.2-4.6c0-0.2-0.2-0.3-0.4-0.3H117C116.8,103.9,116.7,104,116.8,104.2L116.8,104.2z M117.4,101h-1.2c-0.2,0-0.3,0.1-0.2,0.3
			l0.3,1.2c0,0.2,0.2,0.3,0.4,0.3h1.2c0.2,0,0.3-0.1,0.2-0.3l-0.3-1.2C117.7,101.1,117.5,101,117.4,101L117.4,101z M109.8,101h-1.2
			c-0.2,0-0.3,0.1-0.2,0.3l0.3,1.2c0,0.2,0.2,0.3,0.4,0.3h1.2c0.2,0,0.3-0.1,0.2-0.3l-0.3-1.2C110.1,101.1,110,101,109.8,101
			L109.8,101z M116,95.8h-8.7c-0.2,0-0.3,0.1-0.2,0.3l0.3,1.2c0,0.2,0.2,0.3,0.4,0.3h0.3l0.3,1.2h-1.7h-0.3c-0.2,0-0.3,0.1-0.2,0.3
			l0.2,0.6c0,0.2,0.2,0.3,0.4,0.3h0.3l0.8,2.9h-3.2c-0.2,0-0.3,0.1-0.2,0.3l0.2,0.6c0,0.2,0.2,0.3,0.4,0.3h0.3l2.5,9.3h-0.3
			c-0.2,0-0.3,0.1-0.2,0.3l0.2,0.6c0,0.2,0.2,0.3,0.4,0.3h18c0.2,0,0.3-0.1,0.2-0.3l-0.2-0.6c0-0.2-0.2-0.3-0.4-0.3H125l-2.5-9.3
			h0.3c0.2,0,0.3-0.1,0.2-0.3l-0.2-0.6c0-0.2-0.2-0.3-0.4-0.3h-3.2l-0.8-2.9h0.3c0.2,0,0.3-0.1,0.2-0.3l-0.2-0.6
			c0-0.2-0.2-0.3-0.4-0.3h-0.3h-1.7l-0.3-1.2h0.3c0.2,0,0.3-0.1,0.2-0.3l-0.3-1.2C116.3,95.9,116.1,95.8,116,95.8z"/>
	</g>
	<g>
		<path class="st7" d="M77.6,100.3c-2.7,0-11.3,0-13.5,0c-4.2,0-7.2,5.7-3.5,9.8c-3.7,7.2-12.2,33.1,9.9,33.1
			C74.8,133.9,77.6,100.3,77.6,100.3z"/>
		<path class="st17" d="M80.9,92.5c-1.4-0.4-3.6,1.3-4.5,2.1c-9.7,0-13.6,12.4-12.1,14.1c0.5,0.6,3.1-0.3,4.4-1.4
			c-2.8,3.4,3.8,18,6.9,18.9c4.3,1.2,4.6-12.6,4.6-12.6l-2.5-12.4C80.6,100.7,83.3,93.2,80.9,92.5z"/>
		<path class="st17" d="M93.7,209.7c-0.7-0.6-3-1.3-3-1.3l0.4,1.5c0,0,2.1,0,2.6,0C93.7,209.9,93.8,209.8,93.7,209.7z"/>
		<path class="st17" d="M62.7,209.7c-0.7-0.6-2.6-1.3-2.6-1.3l0.4,1.5c0,0,1.6,0,2.1,0C62.7,209.9,62.8,209.8,62.7,209.7z"/>
		<path class="st14" d="M81.6,130.1c10.2,25.2,5.2,56.8,9.4,79.8c-6.9-8.4-15.9-23.8-13.4-44.8c0-6-7.1-14.7-7.1-35H81.6z"/>
		<path class="st16" d="M87,151.4c-0.9-6.4-2.3-12.8-4.4-18.8l-11.4,6.6c1.6,14,6.6,20.9,6.6,25.9C80.8,152.8,84.9,156.2,87,151.4z"
			/>
		<path class="st18" d="M73.1,150.2c3.3,1.5,11.8,1.1,14.8-0.6c-0.6-7.5-3.1-17.3-5-20.8c-3.3,0.7-5.2,3-5.2,3l-0.5,12.8L73.1,150.2
			z"/>
		<path class="st14" d="M79.6,129.8c0,36.7-19.1,56.1-19.1,80.2c-7.2-20.9-2.9-37.6,1.3-44.8c0.2-13.7-0.5-24.2,7.5-35
			C73.1,125.1,79.6,129.8,79.6,129.8z"/>
		<path class="st19" d="M59.4,116.6c1.7,4.5,5.1,2.9,7.5,5.5c1.2-4.3,0.7-7.1,0.7-7.1l-4.1-1.1L59.4,116.6z"/>
		<path class="st14" d="M63.4,113.4c-5,4.8-7.3,17.1-2.4,17.1c-0.5-2.1,4.3-10.1,6.8-13.3C65.9,115.6,63.4,113.4,63.4,113.4z"/>
		<path class="st16" d="M61.2,126.4l1.1-0.1c1.2-2.5,3-5.5,4.5-7.6l-1.6-1.1C65.2,117.5,61.8,122.4,61.2,126.4z"/>
		<path class="st1" d="M75.6,104.9c-8.7,0-13.2,5.9-16.1,11.6c2.6,0.1,6.2,2.4,7.5,5.5C70.3,119.6,75.6,116,75.6,104.9z"/>
		<path class="st14" d="M89.6,113.7c4.1,4.9,8.2,16.7,3.6,16.7c0.5-2.1-5.2-9.3-7.7-12.4C87.5,116.5,89.6,113.7,89.6,113.7z"/>
		<path class="st16" d="M88.4,116.3c2,2.6,3.8,6,4.2,8.8c0.4,2.9-6.2-6.1-6.2-6.1L88.4,116.3z"/>
		<path class="st1" d="M75.6,104.9c9.7,0,13.5,6.3,15,9.3c-1.1,3.5-4.5,6-6.8,6.6C81.6,118.8,75.6,111.9,75.6,104.9z"/>
		<path class="st11" d="M89.3,116.7c-3.2-5.9-7.6-7.3-8.6-9.3l0.5,1.9l1,10c0.3,0.4,0.7,0.7,1,1l0.8,0.4
			C85.8,120.2,87.9,118.8,89.3,116.7z"/>
		<path class="st14" d="M84.2,112c-0.5-0.7-1.4-0.7-1.4-0.7l0.2,1.1L84.2,112z"/>
		<path class="st7" d="M77.7,105c1.1,0,4.2,4.9,4.2,8.2c0,4.9,1.4,12.6,1.4,0.3C83.3,107.7,78.8,104.4,77.7,105z"/>
		<path class="st20" d="M81.5,151c-0.4-3.6-1.3-10.4-2.6-14.4l-1.5,0.9l-0.3,7l-3,4.2l-0.2,1.7C75.8,151.1,78.7,151.2,81.5,151z"/>
		<path class="st14" d="M83,113.8c0,4.2,4.2,16.6,10.2,16.6c2.6,0,2-4.7-0.3-5.6c-2-0.7-7.9-9.2-8.7-12.9h-3.3
			C81.3,113.2,82.3,113.6,83,113.8z"/>
		<path class="st18" d="M78.3,151.7c-5.7,1.8-13.8,0.4-16.8-2.2c0-8.5,5.9-17.9,8.1-20.6c3.1-0.1,10.7,1.5,10.7,1.5
			C81.8,133.1,79.3,147,78.3,151.7z"/>
		<path class="st20" d="M72.4,129.2c-1.1-0.1-2.1-0.2-2.8-0.2c-1.8,2.2-6,8.7-7.6,15.7C69,140.6,70.8,134.4,72.4,129.2z"/>
		<path class="st1" d="M83.6,130.5c1.9-2.2,1.2-12.7,1.2-16.8c0-0.1-0.1-0.2-0.2-0.3c-3.3-2.5-5.1-5.7-6.7-7.9
			c-5.2-1.3-10.7,7.9-9.4,24.6C73.3,127.9,80.5,134.2,83.6,130.5z"/>
		<path class="st11" d="M75.5,113.6c-0.8,4.1-3.8,11-3.8,11s-3,4.8-3.1,5.1c0,0,0,0,0,0c0,0,0.1,0.1,0.2,0.3c1-0.4,2.1-0.5,3.3-0.3
			C71.8,127,76.6,123.2,75.5,113.6z"/>
		<path class="st14" d="M73.2,112c0.5-0.7,1.4-0.7,1.4-0.7l-0.2,1.1L73.2,112z"/>
		<path class="st7" d="M71.5,105.4c1.1,0,2.7,4.5,2.7,7.8c0,4.9-7.9,17.6-16,17.6l2.7,7.1c4.6,0,14.9-12.1,14.9-24.4
			C75.8,106.8,72.2,104.4,71.5,105.4z"/>
		<path class="st14" d="M74.4,113.8c-0.8,4.9-6.4,16.6-13.3,16.6c-2.6,0-2-4.7,0.3-5.6c2-0.7,9.4-5.9,11.9-12.9h3.1
			c0.1,0,0.2,0.1,0.2,0.2C76,113.3,75.1,113.6,74.4,113.8z"/>
		<path class="st14" d="M74.4,104.9c0.3-0.6,0.4-2.3,0.4-2.3c-0.9-1.4-0.7-2.5,0-2c0,0,0.1,0,0.1,0c0-1.2,0.6-1.8,1.3-2
			c0.8-0.2,1.7,0.5,2.1,1.8c0.6,2,0.2,3.9-0.5,4.1c-0.3,0.1-0.7-0.1-1.1-0.3c-0.1,0.9,0.5,1.9-0.2,2.1
			C75.6,106.7,74.2,105.4,74.4,104.9z"/>
		<path class="st17" d="M76.4,101.4c0.1-0.2,0.6-0.4,0.9-0.1c0-0.2-0.2-0.6-0.6-0.5C76.4,100.7,76.1,101.2,76.4,101.4z"/>
		<path class="st21" d="M78.1,102.7c0,0.2,0,0.6-0.1,0.7c-0.6,0.2-1.2-0.1-1.5-0.7C77,102.9,77.9,102.9,78.1,102.7z"/>
		<path class="st16" d="M75.4,103.1c0,0,0.4,0.5,1.3,1.2c-0.1,0.6,0.2,1.4,0.1,1.8C76,105.6,75.4,104.2,75.4,103.1z"/>
		<path class="st16" d="M60.5,210c0-14.7,7.1-27.6,12.6-43.7C68.6,176,58,181.1,60.5,210z"/>
		<path class="st16" d="M77.3,174.1c0.5,16.5,7.9,28.7,13.8,35.8c-4.4-7.4-6.4-18.3-7.9-25C82.2,180.4,79.3,180.5,77.3,174.1z"/>
	</g>
</g>
</svg>
