<svg xmlns="http://www.w3.org/2000/svg" viewBox="0 0 128 128" width="64px" height="64px"><path fill="#fff" d="M64 14A50 50 0 1 0 64 114A50 50 0 1 0 64 14Z"/><path fill="#444b54" d="M64,117c-29.2,0-53-23.8-53-53s23.8-53,53-53s53,23.8,53,53S93.2,117,64,117z M64,17c-25.9,0-47,21.1-47,47s21.1,47,47,47s47-21.1,47-47S89.9,17,64,17z"/><path fill="#444b54" d="M86.5 67h-30c-1.7 0-3-1.3-3-3s1.3-3 3-3h30c1.7 0 3 1.3 3 3S88.2 67 86.5 67zM41.5 67c-.2 0-.4 0-.6-.1-.2 0-.4-.1-.6-.2-.2-.1-.3-.2-.5-.3-.2-.1-.3-.2-.4-.4-.1-.1-.3-.3-.4-.5-.1-.2-.2-.3-.3-.5-.1-.2-.1-.4-.2-.6 0-.2-.1-.4-.1-.6 0-.8.3-1.6.9-2.1.7-.7 1.7-1 2.7-.8.2 0 .4.1.6.2.2.1.4.2.5.3.2.1.3.2.4.4.6.6.9 1.3.9 2.1 0 .2 0 .4-.1.6 0 .2-.1.4-.2.6-.1.2-.2.4-.3.5-.1.2-.2.3-.4.5-.1.1-.3.3-.5.4-.2.1-.3.2-.5.3-.2.1-.4.1-.6.2C41.9 67 41.7 67 41.5 67zM86.5 82h-30c-1.7 0-3-1.3-3-3s1.3-3 3-3h30c1.7 0 3 1.3 3 3S88.2 82 86.5 82zM41.5 82c-.2 0-.4 0-.6-.1-.2 0-.4-.1-.6-.2-.2-.1-.3-.2-.5-.3-.2-.1-.3-.2-.4-.4-.6-.6-.9-1.3-.9-2.1s.3-1.6.9-2.1c.7-.7 1.7-1 2.7-.8.2 0 .4.1.6.2.2.1.4.2.5.3.2.1.3.2.4.4.1.1.3.3.4.5.1.2.2.3.3.5.1.2.1.4.2.6 0 .2.1.4.1.6 0 .8-.3 1.6-.9 2.1-.1.1-.3.3-.4.4-.2.1-.3.2-.5.3-.2.1-.4.1-.6.2C41.9 82 41.7 82 41.5 82zM86.5 52h-30c-1.7 0-3-1.3-3-3s1.3-3 3-3h30c1.7 0 3 1.3 3 3S88.2 52 86.5 52zM41.5 52c-.2 0-.4 0-.6-.1-.2 0-.4-.1-.6-.2-.2-.1-.3-.2-.5-.3-.2-.1-.3-.2-.4-.4-.6-.6-.9-1.3-.9-2.1s.3-1.6.9-2.1c.1-.1.3-.3.4-.4.2-.1.3-.2.5-.3.2-.1.4-.1.6-.2 1-.2 2 .1 2.7.8.1.1.3.3.4.5.1.2.2.3.3.5.1.2.1.4.2.6 0 .2.1.4.1.6 0 .8-.3 1.6-.9 2.1C43.1 51.7 42.3 52 41.5 52z"/></svg>