<?xml version="1.0" encoding="utf-8"?>
<!-- Generator: Adobe Illustrator 15.1.0, SVG Export Plug-In . SVG Version: 6.00 Build 0)  -->
<!DOCTYPE svg PUBLIC "-//W3C//DTD SVG 1.1//EN" "http://www.w3.org/Graphics/SVG/1.1/DTD/svg11.dtd">
<svg version="1.1" id="Layer_1" xmlns="http://www.w3.org/2000/svg" xmlns:xlink="http://www.w3.org/1999/xlink" x="0px" y="0px"
	 width="442.897px" height="127.041px" viewBox="0 0 442.897 127.041" enable-background="new 0 0 442.897 127.041"
	 xml:space="preserve">
<g>
	<g>
		<path fill="#FFFFFF" d="M197.417,48.787c4.068,2.287,7.297,5.565,9.685,9.836c2.386,4.271,3.581,9.229,3.581,14.879
			c0,5.648-1.195,10.627-3.581,14.93c-2.388,4.305-5.616,7.615-9.685,9.936c-4.069,2.32-8.591,3.48-13.567,3.48
			c-7.197,0-12.576-2.118-16.141-6.355v5.447h-18.258v-74.85h19.166v24.916c3.697-3.766,8.776-5.648,15.232-5.648
			C188.826,45.357,193.348,46.501,197.417,48.787z M188.086,83.134c2.152-2.319,3.229-5.53,3.229-9.633
			c0-4.035-1.076-7.195-3.229-9.482c-2.152-2.285-4.91-3.43-8.271-3.43c-3.363,0-6.121,1.145-8.271,3.43
			c-2.153,2.287-3.229,5.447-3.229,9.482c0,4.103,1.075,7.313,3.229,9.633c2.15,2.32,4.908,3.48,8.271,3.48
			C183.176,86.615,185.934,85.455,188.086,83.134z"/>
		<path fill="#FFFFFF" d="M245.434,47.223c3.127-1.243,6.708-1.866,10.743-1.866v17.25c-1.75-0.202-3.195-0.303-4.338-0.303
			c-4.103,0-7.313,1.109-9.634,3.328c-2.32,2.22-3.479,5.617-3.479,10.189v25.117h-19.167V46.265h18.259v6.557
			C239.767,50.334,242.307,48.468,245.434,47.223z"/>
		<path fill="#FFFFFF" d="M307.724,51.56c4.774,4.137,7.162,10.477,7.162,19.016v30.363H297.03v-7.061
			c-2.758,5.313-8.138,7.969-16.14,7.969c-4.237,0-7.903-0.74-10.995-2.219c-3.095-1.479-5.432-3.48-7.012-6.002
			c-1.58-2.522-2.37-5.397-2.37-8.625c0-5.178,1.982-9.195,5.951-12.055c3.968-2.857,10.088-4.287,18.359-4.287h10.896
			c-0.338-5.783-4.204-8.676-11.602-8.676c-2.622,0-5.28,0.421-7.969,1.261c-2.69,0.842-4.978,2.002-6.859,3.48l-6.456-13.013
			c3.026-2.018,6.708-3.582,11.046-4.691s8.69-1.664,13.063-1.664C296.021,45.357,302.947,47.425,307.724,51.56z M292.088,88.128
			c1.68-1.075,2.891-2.656,3.632-4.741v-4.741h-8.272c-5.583,0-8.372,1.85-8.372,5.548c0,1.683,0.638,3.026,1.916,4.035
			c1.277,1.009,3.026,1.513,5.246,1.513C288.456,89.742,290.406,89.205,292.088,88.128z"/>
		<path fill="#FFFFFF" d="M383.582,46.265l-22.597,54.674h-19.771l-22.495-54.674h19.671l13.113,33.39l13.82-33.39H383.582z"/>
		<path fill="#FFFFFF" d="M442.595,78.445H402.85c0.807,2.824,2.37,4.992,4.69,6.506s5.229,2.27,8.726,2.27
			c2.623,0,4.893-0.369,6.81-1.109c1.916-0.739,3.849-1.949,5.8-3.632l10.088,10.491c-5.313,5.918-13.081,8.877-23.303,8.877
			c-6.39,0-12.004-1.211-16.846-3.631c-4.842-2.422-8.592-5.783-11.248-10.088c-2.657-4.303-3.984-9.18-3.984-14.627
			c0-5.38,1.294-10.205,3.884-14.477c2.588-4.27,6.169-7.615,10.743-10.037c4.572-2.42,9.717-3.631,15.434-3.631
			c5.448,0,10.391,1.127,14.829,3.379c4.438,2.254,7.952,5.516,10.542,9.785c2.588,4.271,3.884,9.331,3.884,15.182
			C442.897,73.838,442.796,75.417,442.595,78.445z M406.329,61.498c-1.984,1.682-3.245,3.969-3.782,6.859h22.395
			c-0.539-2.891-1.8-5.178-3.783-6.859c-1.984-1.681-4.456-2.522-7.414-2.522C410.784,58.975,408.313,59.817,406.329,61.498z"/>
	</g>
	<g>
		<path fill="#2196f3" d="M123.609,101.816l-13.302-36.838c0.692,2.643,1.052,5.479,1.052,8.523c0,5.648-1.195,10.627-3.58,14.93
			c-2.389,4.305-5.617,7.615-9.686,9.936s-8.59,3.48-13.566,3.48c-7.197,0-12.576-2.118-16.141-6.355v5.447H51.268l61.621,13.387
			C120.163,115.903,126.281,108.767,123.609,101.816z"/>
		<path fill="#2196f3" d="M72.221,64.019c-2.154,2.287-3.229,5.447-3.229,9.482c0,4.103,1.074,7.313,3.229,9.633
			c2.15,2.32,4.908,3.48,8.271,3.48c3.361,0,6.119-1.16,8.271-3.48c2.152-2.319,3.229-5.53,3.229-9.633
			c0-4.035-1.076-7.195-3.229-9.482c-2.152-2.285-4.91-3.43-8.271-3.43C77.129,60.589,74.371,61.734,72.221,64.019z"/>
		<path fill="#2196f3" d="M69.295,51.005c3.697-3.766,8.775-5.648,15.232-5.648c4.977,0,9.498,1.145,13.566,3.43
			c4.068,2.287,7.297,5.565,9.686,9.836c0.279,0.501,0.54,1.013,0.787,1.533L89.011,6c-2.427-6.299-10.513-8.039-15.315-3.292
			L50.951,26.089h18.344V51.005z"/>
		<path fill="#2196f3" d="M7.381,91.405l42.748,9.287V26.935L2.784,75.605C-2.494,80.828,0.117,89.829,7.381,91.405z"/>
	</g>
</g>
</svg>
