<svg fill="#ffffff" xmlns="http://www.w3.org/2000/svg" viewBox="0 0 32 32" width="64px" height="64px"><path d="M 17 7 L 17 9 L 21 9 L 21 7 Z M 5 10 L 5 12 L 9 12 L 9 10 Z M 17 10 L 17 12 L 21 12 L 21 10 Z M 5 13 L 5 15 L 9 15 L 9 13 Z M 17 13 L 17 15 L 21 15 L 21 13 Z M 23 13 L 23 15 L 27 15 L 27 13 Z M 5 16 L 5 18 L 9 18 L 9 16 Z M 11 16 L 11 18 L 15 18 L 15 16 Z M 17 16 L 17 18 L 21 18 L 21 16 Z M 23 16 L 23 18 L 27 18 L 27 16 Z M 5 19 L 5 21 L 9 21 L 9 19 Z M 11 19 L 11 21 L 15 21 L 15 19 Z M 17 19 L 17 21 L 21 21 L 21 19 Z M 23 19 L 23 21 L 27 21 L 27 19 Z M 5 22 L 5 24 L 9 24 L 9 22 Z M 11 22 L 11 24 L 15 24 L 15 22 Z M 17 22 L 17 24 L 21 24 L 21 22 Z M 23 22 L 23 24 L 27 24 L 27 22 Z M 5 25 L 5 27 L 9 27 L 9 25 Z M 11 25 L 11 27 L 15 27 L 15 25 Z M 17 25 L 17 27 L 21 27 L 21 25 Z M 23 25 L 23 27 L 27 27 L 27 25 Z"/></svg>