<svg fill="#ffffff" xmlns="http://www.w3.org/2000/svg" viewBox="0 0 128 128" width="64px" height="64px"><path d="M 64 11 C 62.3 11 61 12.3 61 14 L 61 55 C 61 56.7 62.3 58 64 58 C 65.7 58 67 56.7 67 55 L 67 37 L 94 37 C 95.2 37 96.300781 36.299609 96.800781 35.099609 C 97.300781 33.899609 96.999609 32.700781 96.099609 31.800781 C 93.999609 29.800781 92.900391 27 92.900391 24 C 92.900391 21 94.099219 18.199609 96.199219 16.099609 C 96.999219 15.299609 97.200781 14.000391 96.800781 12.900391 C 96.300781 11.700391 95.2 11 94 11 L 64 11 z M 67 17 L 88.400391 17 C 86.400391 21.4 86.400391 26.6 88.400391 31 L 67 31 L 67 17 z M 64 67.050781 C 63.275 67.050781 62.55 67.300781 62 67.800781 L 2 121.80078 C 0.8 122.90078 0.70078125 124.8 1.8007812 126 C 2.9007813 127.2 4.8 127.29922 6 126.19922 L 64 74 L 83.400391 91.5 L 74 100 L 66 92.800781 L 65.900391 92.699219 C 65.800391 92.599219 65.699609 92.6 65.599609 92.5 C 65.499609 92.4 65.400391 92.400391 65.400391 92.400391 C 65.300391 92.400391 65.199609 92.300781 65.099609 92.300781 C 64.999609 92.300781 64.900781 92.199219 64.800781 92.199219 C 64.700781 92.199219 64.6 92.199609 64.5 92.099609 L 64.199219 92.099609 L 63.900391 92.099609 L 63.599609 92.099609 L 63.300781 92.099609 C 63.200781 92.099609 63.1 92.099219 63 92.199219 C 62.9 92.199219 62.799219 92.300781 62.699219 92.300781 C 62.599219 92.300781 62.500391 92.400391 62.400391 92.400391 C 62.300391 92.400391 62.199219 92.5 62.199219 92.5 C 62.099219 92.6 62.000391 92.599219 61.900391 92.699219 L 61.800781 92.800781 L 53.800781 100 L 50.800781 97.300781 C 49.600781 96.200781 47.699609 96.3 46.599609 97.5 C 45.499609 98.7 45.600781 100.59922 46.800781 101.69922 L 51.800781 106.19922 C 52.600781 106.69922 53.3 107 54 107 C 54.7 107 55.4 106.69922 56 106.19922 L 64 99 L 72 106.19922 C 72.6 106.69922 73.3 107 74 107 C 74.7 107 75.4 106.69922 76 106.19922 L 87.900391 95.5 L 122 126.19922 C 122.6 126.69922 123.3 127 124 127 C 124.8 127 125.59922 126.7 126.19922 126 C 127.29922 124.8 127.2 122.90078 126 121.80078 L 66 67.800781 C 65.45 67.300781 64.725 67.050781 64 67.050781 z"/></svg>