<?xml version="1.0" encoding="utf-8"?>
<!-- Generator: Adobe Illustrator 24.1.3, SVG Export Plug-In . SVG Version: 6.00 Build 0)  -->
<svg version="1.1" id="Layer_1" xmlns="http://www.w3.org/2000/svg" xmlns:xlink="http://www.w3.org/1999/xlink" x="0px" y="0px"
	 viewBox="0 0 64 64" style="enable-background:new 0 0 64 64;" xml:space="preserve">
<style type="text/css">
	.st0{fill:#202020;}
</style>
<path class="st0" d="M18.5,3.1c-0.9,0-1.5,0.7-1.5,1.5s0.6,1.5,1.5,1.5H22v3.5c0,0.9,0.6,1.5,1.5,1.5h35.2c0.6,0,1.2,0.3,1.6,0.8
	s0.5,1.2,0.2,1.8l-6.8,20.6c-0.8,2.2-2.9,3.8-5.2,3.8H22c-2.8,0-5,2.2-5,5s2.2,5,5,5h18.8c1.8,0,3.2,1.5,3.2,3.2
	c0,0.8,0.7,1.5,1.5,1.5s1.5-0.7,1.5-1.5c0-3.5-2.8-6.2-6.2-6.2H22c-1.1,0-2-0.9-2-2s0.9-2,2-2h26.5c3.7,0,6.9-2.3,8-5.8l6.8-20.6
	c0.5-1.6,0.3-3.2-0.7-4.5c-0.9-1.3-2.4-2.1-4-2.1H25V4.6c0-0.8-0.6-1.5-1.5-1.5H18.5z M7.5,18.1c-0.8,0-1.5,0.6-1.5,1.5
	s0.7,1.5,1.5,1.5h10c0.9,0,1.5-0.6,1.5-1.5s-0.6-1.5-1.5-1.5H7.5z M2,28c-0.1,0-0.2,0-0.3,0c-0.1,0-0.2,0-0.3,0.1s-0.1,0.1-0.2,0.2
	S1,28.4,1,28.5c-0.3,0.2-0.5,0.6-0.5,1c0,0.4,0.2,0.8,0.5,1c0,0.1,0.2,0.2,0.2,0.2c0.1,0,0.1,0.1,0.2,0.2s0.2,0,0.3,0.1H2
	c0.1,0,0.2,0,0.3,0c0.1,0,0.2-0.1,0.3-0.1c0.1,0,0.2-0.1,0.2-0.1c0.1,0,0.2-0.1,0.2-0.2c0.3-0.2,0.5-0.6,0.5-1c0-0.4-0.2-0.8-0.5-1
	l-0.2-0.2c-0.1,0-0.1-0.1-0.2-0.2s-0.2,0-0.3-0.1C2.2,28,2.1,28,2,28z M10,28.1c-0.9,0-1.5,0.6-1.5,1.5c0,0.8,0.6,1.5,1.5,1.5h15
	c0.9,0,1.5-0.7,1.5-1.5c0-0.9-0.6-1.5-1.5-1.5H10z M22,51.1c-2.8,0-5,2.2-5,5s2.2,5,5,5s5-2.2,5-5S24.8,51.1,22,51.1z M39.5,52.1
	c-0.4,0-0.8,0.2-1,0.5c-1,1-1.5,2.2-1.5,3.5c0,2.8,2.2,5,5,5s5-2.2,5-5c0-0.8-0.7-1.5-1.5-1.5S44,55.2,44,56.1c0,1.1-0.9,2-2,2
	s-2-0.9-2-2c0-0.5,0.2-1.1,0.6-1.4c0.5-0.6,0.5-1.5-0.1-2.1C40.3,52.2,39.9,52.1,39.5,52.1z M22,54.1c1.1,0,2,0.9,2,2s-0.9,2-2,2
	s-2-0.9-2-2S20.9,54.1,22,54.1z"/>
</svg>
