<svg fill="#2196f3" xmlns="http://www.w3.org/2000/svg" viewBox="0 0 50 50" width="50px" height="50px"><path d="M 13 4 C 12.449219 4 12 4.449219 12 5 L 12 24 L 6 24 C 5.449219 24 5 24.449219 5 25 L 5 45 C 5 45.550781 5.449219 46 6 46 L 22 46 C 22.550781 46 23 45.550781 23 45 L 23 43 L 43 43 C 43.550781 43 44 42.550781 44 42 L 44 5 C 44 4.449219 43.550781 4 43 4 Z M 14 6 L 42 6 L 42 41 L 23 41 L 23 25 C 23 24.449219 22.550781 24 22 24 L 14 24 Z M 18 12 L 18 14 L 33 14 L 33 12 Z M 35 12 L 35 14 L 38 14 L 38 12 Z M 18 16 L 18 18 L 31 18 L 31 16 Z M 35 16 L 35 18 L 38 18 L 38 16 Z M 18 20 L 18 22 L 33 22 L 33 20 Z M 35 20 L 35 22 L 38 22 L 38 20 Z M 25 24 L 25 26 L 33 26 L 33 24 Z M 35 24 L 35 26 L 38 26 L 38 24 Z M 7 26 L 21 26 L 21 44 L 7 44 Z M 9 28 L 9 30 L 19 30 L 19 28 Z M 25 28 L 25 30 L 31 30 L 31 28 Z M 35 28 L 35 30 L 38 30 L 38 28 Z M 9 32 L 9 34 L 11 34 L 11 32 Z M 13 32 L 13 34 L 15 34 L 15 32 Z M 17 32 L 17 34 L 19 34 L 19 32 Z M 25 32 L 25 34 L 33 34 L 33 32 Z M 35 32 L 35 34 L 38 34 L 38 32 Z M 9 36 L 9 38 L 11 38 L 11 36 Z M 13 36 L 13 38 L 15 38 L 15 36 Z M 17 36 L 17 38 L 19 38 L 19 36 Z M 9 40 L 9 42 L 11 42 L 11 40 Z M 13 40 L 13 42 L 15 42 L 15 40 Z M 17 40 L 17 42 L 19 42 L 19 40 Z"/></svg>