<svg xmlns="http://www.w3.org/2000/svg" viewBox="0 0 128 128" width="64px" height="64px"><path fill="#fff" d="M96,119H32c-5.5,0-10-4.5-10-10V19c0-5.5,4.5-10,10-10h54c11,0,20,9,20,20v80C106,114.5,101.5,119,96,119z"/><path fill="#fff" d="M16 89.3V113c0 3.3 2.7 6 6 6h0c3.3 0 6-2.7 6-6V89M106 29l-10 0c-5.5 0-10-4.5-10-10l0-4 0-6h0C97 9 106 18 106 29L106 29z"/><path fill="#71c2ff" d="M49 122c-5 0-9-4-9-9V92.5c0-1.7 1.3-3 3-3s3 1.3 3 3V113c0 1.7 1.3 3 3 3s3-1.3 3-3V81.5c0-1.7 1.3-3 3-3s3 1.3 3 3V113C58 118 54 122 49 122zM22 92c-1.7 0-3-1.3-3-3V62c0-1.7 1.3-3 3-3s3 1.3 3 3v27C25 90.7 23.7 92 22 92z"/><path fill="#71c2ff" d="M22,122c-5,0-9-4-9-9v-12.8c0-1.7,1.3-3,3-3s3,1.3,3,3V113c0,1.7,1.3,3,3,3s3-1.3,3-3l0.5-23.6c0-1.7,1.4-3,3.1-2.9c1.7,0,3,1.4,2.9,3.1L31,113.1C31,118,27,122,22,122z"/><path fill="#71c2ff" d="M28 92H16c-1.7 0-3-1.3-3-3s1.3-3 3-3h12c1.7 0 3 1.3 3 3S29.7 92 28 92zM49 85.5c-3.8 0-7.7-1.5-10.6-4.4-2.8-2.8-4.4-6.6-4.4-10.6s1.6-7.8 4.4-10.6c1.2-1.2 3.1-1.2 4.2 0 1.2 1.2 1.2 3.1 0 4.2-1.7 1.7-2.6 4-2.6 6.4s.9 4.7 2.6 6.4c3.5 3.5 9.2 3.5 12.7 0 1.7-1.7 2.6-4 2.6-6.4s-.9-4.7-2.6-6.4c-1.2-1.2-1.2-3.1 0-4.2 1.2-1.2 3.1-1.2 4.2 0 2.8 2.8 4.4 6.6 4.4 10.6s-1.6 7.8-4.4 10.6C56.7 84 52.8 85.5 49 85.5z"/><g><path fill="#444b54" d="M109,29c0-12.7-10.3-23-23-23H32c-7.2,0-13,5.8-13,13v25c0,1.7,1.3,3,3,3s3-1.3,3-3V19c0-3.9,3.1-7,7-7h51v7c0,7.2,5.8,13,13,13h7v77c0,3.9-3.1,7-7,7H70c-1.7,0-3,1.3-3,3s1.3,3,3,3h26c7.2,0,13-5.8,13-13V29z M89,19v-6.7c7,1.2,12.5,6.7,13.7,13.7H96C92.1,26,89,22.9,89,19z"/></g></svg>