<?xml version="1.0" encoding="utf-8"?>
<!-- Generator: Adobe Illustrator 15.1.0, SVG Export Plug-In . SVG Version: 6.00 Build 0)  -->
<!DOCTYPE svg PUBLIC "-//W3C//DTD SVG 1.1//EN" "http://www.w3.org/Graphics/SVG/1.1/DTD/svg11.dtd">
<svg version="1.1" id="Layer_1" xmlns="http://www.w3.org/2000/svg" xmlns:xlink="http://www.w3.org/1999/xlink" x="0px" y="0px"
	 width="92.125px" height="3.194px" viewBox="0 0 92.125 3.194" enable-background="new 0 0 92.125 3.194" xml:space="preserve">
<path fill="#ffffff" d="M92.125,1.996V3.19l-0.006,0.004l-3.072-2l-3.068,2l-3.068-2l-3.072,2l-3.074-2l-3.068,2l-3.067-2l-3.073,2
	l-3.072-2l-3.068,2l-3.068-2l-3.072,2l-3.074-2l-3.068,2l-3.069-2l-3.072,2l-3.074-2l-3.068,2l-3.068-2l-3.073,2l-3.073-2l-3.068,2
	l-3.068-2l-3.073,2l-3.073-2l-3.068,2l-3.068-2l-3.074,2l-3.073-2L0,3.194V2l3.068-2l3.073,2l3.075-2l3.067,2l3.068-2l3.073,2
	l3.074-2l3.067,2l3.068-2l3.073,2l3.074-2l3.067,2l3.068-2l3.074,2l3.072-2l3.069,2l3.067-2l3.075,2l3.072-2l3.068,2l3.068-2
	l3.072,2l3.074-2l3.066,2l3.068-2l3.074,2l3.072-2l3.068,2l3.068-2l3.072,2L92.125,1.996z"/>
</svg>
