<svg fill="#fbc02d" xmlns="http://www.w3.org/2000/svg" viewBox="0 0 32 32" width="64px" height="64px"><path d="M 15 3 C 8.953125 3 4 7.953125 4 14 C 4 16.164063 4.839844 17.976563 5.59375 19.59375 C 6.347656 21.210938 7 22.628906 7 24.09375 L 7 29 L 9 29 L 9 24.09375 C 9 22.058594 8.152344 20.355469 7.40625 18.75 C 6.660156 17.144531 6 15.636719 6 14 C 6 9.386719 9.519531 5.570313 14 5.0625 L 14 12.15625 C 12.28125 12.601563 11 14.148438 11 16 C 11 18.199219 12.800781 20 15 20 C 15.78125 20 16.507813 19.769531 17.125 19.375 L 19 20.65625 C 19.074219 21.414063 19.722656 22 20.5 22 C 21.328125 22 22 21.328125 22 20.5 C 22 19.671875 21.328125 19 20.5 19 C 20.394531 19 20.285156 19.011719 20.1875 19.03125 L 18.5 17.875 C 18.804688 17.3125 19 16.683594 19 16 C 19 14.148438 17.71875 12.601563 16 12.15625 L 16 5.03125 C 19.164063 5.289063 20.980469 6.757813 22.09375 8.21875 C 23.324219 9.828125 23.625 11.40625 23.625 11.40625 L 23.65625 11.53125 L 23.71875 11.65625 L 26.375 17 C 26.449219 17.171875 26.441406 17.304688 26.4375 17.34375 L 26.375 17.34375 C 25.839844 17.523438 24.75 17.84375 24.75 17.84375 L 24 18.03125 L 24 21 C 24 21.667969 23.625 22.4375 23.03125 23.03125 C 22.4375 23.625 21.667969 24 21 24 L 19 24 L 19 29 L 21 29 L 21 26 C 22.332031 26 23.5625 25.375 24.46875 24.46875 C 25.375 23.5625 26 22.332031 26 21 L 26 19.53125 C 26.339844 19.433594 26.566406 19.402344 26.9375 19.28125 C 26.96875 19.273438 27 19.257813 27.03125 19.25 L 27.03125 19.21875 C 27.675781 19.015625 28.214844 18.480469 28.375 17.90625 C 28.546875 17.296875 28.4375 16.734375 28.21875 16.21875 L 28.21875 16.1875 L 28.1875 16.15625 L 25.53125 10.8125 L 25.5 10.75 C 25.421875 10.398438 25.023438 8.789063 23.65625 7 C 22.136719 5.007813 19.394531 3 15 3 Z M 15 14 C 16.117188 14 17 14.882813 17 16 C 17 17.117188 16.117188 18 15 18 C 13.882813 18 13 17.117188 13 16 C 13 14.882813 13.882813 14 15 14 Z"/></svg>