<svg xmlns="http://www.w3.org/2000/svg" viewBox="0 0 128 128" width="128px" height="128px"><path fill="#eac39c" d="M74.1,64.6C83.4,61.1,92,54.4,89,39.9l-6.7-18.4c0.6,1.5-0.4-1.3-2.6-7.4c-3.6-0.7-7.3-1-11.1-1 C55.7,13.2,43.8,17,34,23.6l10.9,28.1C49.3,63.3,62.4,69,74.1,64.6"/><path fill="#ceab8a" d="M87.3,54.6c-0.6-7.2-4.1-13.2-7.2-17.1L79.7,37L64.9,23.1c-0.2-0.2-0.5-0.5-0.7-0.8 c-0.6-0.6-1.5-1.4-2.6-2.5c-1.5-1.4-3.4-3.2-5.7-5.4c-8,1.6-15.4,4.8-21.9,9.2l10.9,28.1C49.3,63.3,62.4,69,74.1,64.6 C79.4,62.6,84.4,59.6,87.3,54.6"/><path fill="#454b54" d="M87.9,40c-1.2,0-2.4-0.8-2.8-2l-5.7-15.5c-0.1-0.2-0.3-1.1-0.5-1.7c-0.4-1.1-1.1-2.9-2.1-5.7 c-0.6-1.6,0.2-3.3,1.8-3.8c1.6-0.6,3.3,0.2,3.8,1.8c0.9,2.5,1.6,4.4,2.1,5.7c0.2,0.5,0.4,1.1,0.5,1.6l0.1,0.2l0,0L90.7,36 c0.6,1.6-0.2,3.3-1.8,3.8C88.6,40,88.2,40,87.9,40z"/><path fill="#fff" d="M81.3,45.4c19.2,0,34.7,15.3,34.7,34.2s-15.5,34.2-34.7,34.2S46.6,98.5,46.6,79.6 C46.6,60.7,62.1,45.4,81.3,45.4"/><path fill="#64b5f6" d="M81.3,97.1c-1.6,0-3-1.2-3.2-2.7c-1.2-0.4-2.3-1-3.2-1.9c-1-0.9-1.8-2-2.3-3.3 c-0.4-0.8-0.4-1.7-0.1-2.5s0.9-1.5,1.8-1.8c0.4-0.2,0.9-0.3,1.3-0.3c1.3,0,2.5,0.8,3,2c0.2,0.5,0.5,0.8,0.7,1.1 c0.3,0.2,0.6,0.4,0.9,0.5c0.9,0.3,2.2,0.3,2.9,0c0.3-0.1,0.6-0.3,0.7-0.5c0.2-0.2,0.4-0.5,0.5-0.8c0.1-0.4,0.2-0.8,0.2-1.3 c0-0.8-0.2-1.1-0.2-1.2c-0.2-0.3-0.4-0.5-0.7-0.7c-0.4-0.2-0.9-0.5-1.4-0.6c-0.7-0.2-1.5-0.4-2.3-0.7c-0.9-0.2-1.8-0.5-2.6-0.9 c-1-0.4-2-1-2.8-1.6c-0.8-0.7-1.5-1.6-2-2.7s-0.8-2.4-0.8-3.9c0-1.1,0.2-2.2,0.6-3.2c0.4-1.1,1-2.1,1.8-2.9c0.8-0.9,1.9-1.6,3.1-2.1 c0.3-0.1,0.6-0.2,0.9-0.3c0.3-1.5,1.6-2.5,3.2-2.5s2.9,1.1,3.2,2.6c0.3,0.1,0.6,0.2,0.9,0.3c1.2,0.5,2.3,1.3,3.1,2.3 c0.8,0.9,1.4,2,1.8,3.1c0.3,0.8,0.2,1.7-0.2,2.5c-0.4,0.8-1.1,1.4-1.9,1.6c-0.3,0.1-0.7,0.2-1,0.2c-1.4,0-2.7-0.9-3.1-2.3 c-0.1-0.3-0.3-0.6-0.5-0.9c-0.2-0.2-0.4-0.4-0.7-0.5c-0.2-0.1-0.7-0.2-1.5-0.2c-0.6,0-1.2,0.1-1.6,0.2s-0.6,0.3-0.8,0.5 c-0.2,0.2-0.3,0.4-0.4,0.7c-0.1,0.3-0.2,0.6-0.2,0.9c0,0.8,0.1,1.2,0.1,1.2c0.1,0.3,0.3,0.4,0.4,0.5c0.2,0.2,0.5,0.4,0.9,0.5 c0.6,0.2,1.3,0.5,1.9,0.6c0.8,0.2,1.7,0.5,2.5,0.7c1.1,0.3,2.1,0.8,3.1,1.4c1.1,0.7,2,1.7,2.7,2.8c0.8,1.3,1.2,2.8,1.2,4.6 c0,1.1-0.2,2.3-0.5,3.3c-0.4,1.2-1,2.3-1.8,3.2c-0.8,0.9-1.9,1.7-3.1,2.2c-0.3,0.1-0.7,0.3-1.1,0.4C84.1,96,82.8,97.1,81.3,97.1"/><path fill="#ecf1f6" d="M81.4,71c-0.6,0-1.2,0.1-1.6,0.2s-0.6,0.3-0.8,0.5c-0.2,0.2-0.3,0.4-0.4,0.7 c-0.1,0.3-0.2,0.6-0.2,0.9c0,0.8,0.1,1.2,0.1,1.2c0.1,0.3,0.3,0.4,0.4,0.5c0.2,0.2,0.5,0.4,0.9,0.5c0.1,0,0.1,0,0.2,0.1 c1.2-1.5,2.2-2.9,3-4.3c0,0-0.1,0-0.1-0.1C82.7,71.1,82.2,71,81.4,71 M72.1,70.7c-0.5,0.6-1,1.1-1.5,1.7c-4.5,4.8-10.7,7.3-16.9,7.3 c-2.3,0-4.7-0.4-7-1.1c0,0.3,0,0.6,0,0.9c0,3.1,0.4,6,1.2,8.8c1.9,0.3,3.8,0.5,5.8,0.5c8.1,0,15.8-3.1,21.7-8.4 c-0.3-0.2-0.6-0.4-0.9-0.6c-0.8-0.7-1.5-1.6-2-2.7s-0.8-2.4-0.8-3.9C71.7,72.4,71.8,71.6,72.1,70.7 M81.4,45.4 c-2.3,0-4.5,0.2-6.6,0.6c4.8,7.6,3.8,14.4,0.6,20.1c0.6-0.4,1.2-0.7,1.9-1c0.3-0.1,0.6-0.2,0.9-0.3c0.3-1.5,1.6-2.5,3.2-2.5 s2.9,1.1,3.2,2.6c0.3,0.1,0.6,0.2,0.9,0.3c0.1,0.1,0.3,0.1,0.4,0.2c2.7-7.6,1.5-14.4-0.8-19.8c-1.1-0.1-2.2-0.2-3.2-0.2 C81.6,45.4,81.5,45.4,81.4,45.4"/><path fill="#64b5f6" d="M81.3,62.3c-1.6,0-2.9,1-3.2,2.5c-0.3,0.1-0.6,0.2-0.9,0.3c-0.7,0.3-1.3,0.6-1.9,1 c-0.9,1.6-2,3.2-3.2,4.6c-0.3,0.8-0.4,1.7-0.4,2.6c0,1.5,0.3,2.8,0.8,3.9s1.2,2,2,2.7c0.3,0.2,0.6,0.4,0.9,0.6 c0.7-0.6,1.3-1.3,2-1.9c1-1,1.8-2,2.6-3c-0.1,0-0.1-0.1-0.2-0.1c-0.4-0.1-0.7-0.3-0.9-0.5c-0.1-0.1-0.3-0.2-0.4-0.5 c0,0-0.1-0.4-0.1-1.2c0-0.3,0.1-0.6,0.2-0.9s0.2-0.5,0.4-0.7c0.2-0.2,0.4-0.4,0.8-0.5s1-0.2,1.6-0.2c0.8,0,1.3,0.1,1.5,0.2 c0,0,0.1,0,0.1,0.1c1.2-2,2.1-4,2.8-5.9c-0.1-0.1-0.3-0.1-0.4-0.2c-0.3-0.1-0.6-0.2-0.9-0.3C84.2,63.4,82.9,62.3,81.3,62.3"/><path fill="#454b54" d="M81.3,116.8c-17,0-32-11.4-36.4-27.6c-0.4-1.6,0.5-3.2,2.1-3.7c1.6-0.4,3.2,0.5,3.7,2.1 c3.7,13.6,16.3,23.2,30.6,23.2c17.5,0,31.7-14,31.7-31.2S98.8,48.4,81.3,48.4c-7.6,0-15,2.7-20.7,7.6c-1.3,1.1-3.2,0.9-4.2-0.3 c-1.1-1.3-0.9-3.2,0.3-4.2c6.8-5.9,15.6-9.1,24.6-9.1c20.8,0,37.7,16.7,37.7,37.2S102.1,116.8,81.3,116.8z"/><path fill="#f0d6bf" d="M70.6,72.4c6.8-7.3,11.6-17.2,2.2-29.1L58.2,29.6c1.7,1.5-3.3-3.2-12.6-12C30.5,23.5,18.4,35.2,12,50 l26.1,23.7C47.4,82.2,62,81.6,70.6,72.4"/><path fill="#fff" d="M73.7,47.4c-4.6-3.5-15-11-18.3-12.5c-2.9-1.3-5.9-2.3-8.9-1.2c-10,3.6-14.2,11.8-16,17.3 c-1,3.1,0.6,6.1,2.1,9c1.4,2.9,9.7,13.7,14,17.6c3.5,3.2,17.1,2.1,24.1-5.4C78.3,64,80.7,52.8,73.7,47.4"/><path fill="#ecf1f6" d="M49.2,33.2c-0.9,0-1.8,0.1-2.7,0.5l0,0c-3.9,1.4,1.3,3.6,4.2,4.9c0,0,14.6,12.7,18.3,17.1 c4.7,5.4,4.7,11.8-2.9,20.1c0.8-0.4,1.5-0.9,2.1-1.4c0.7-0.5,1.4-1.1,2-1.7c0.1-0.1,0.3-0.3,0.4-0.4c7.6-8.2,10.1-19.3,3.2-24.8 l-0.1-0.1c-4.6-3.5-15-11-18.3-12.5C53.4,34,51.3,33.2,49.2,33.2"/><path fill="#454b54" d="M53.6,82.7c-6.3,0-12.6-2.2-17.6-6.8L10,52.2c-1.2-1.1-1.3-3-0.2-4.2s3-1.3,4.2-0.2l26.1,23.7 c8.1,7.4,20.8,6.8,28.3-1.2S77,55,72,47.3c-0.7-1.1-1.7-2.2-2.9-3.3L56.2,31.7c-0.1-0.1-0.2-0.2-0.3-0.4c-1.1-1-4.1-3.9-12.3-11.7 c-1.2-1.1-1.3-3-0.1-4.2c1.1-1.2,3-1.3,4.2-0.1c4.1,3.9,7.3,6.9,9.5,9c1.1,1.1,2,1.9,2.6,2.4c0.2,0.2,0.4,0.4,0.7,0.7l0,0l0,0l0,0 l12.8,12C74.8,41,76,42.5,77,44c6.6,10.1,5.1,20.3-4.2,30.4C67.7,79.9,60.7,82.7,53.6,82.7z"/></svg>