<?xml version="1.0" encoding="utf-8"?>
<!-- Generator: Adobe Illustrator 15.1.0, SVG Export Plug-In . SVG Version: 6.00 Build 0)  -->
<!DOCTYPE svg PUBLIC "-//W3C//DTD SVG 1.1//EN" "http://www.w3.org/Graphics/SVG/1.1/DTD/svg11.dtd">
<svg version="1.1" id="Layer_1" xmlns="http://www.w3.org/2000/svg" xmlns:xlink="http://www.w3.org/1999/xlink" x="0px" y="0px"
	 width="183px" height="137px" viewBox="0 0 183 137" enable-background="new 0 0 183 137" xml:space="preserve">
<g>
	<rect fill="#FFFFFF" width="183" height="137"/>
	<g>
		<g>
			
				<radialGradient id="SVGID_1_" cx="151.7402" cy="49472.2188" r="10.0359" gradientTransform="matrix(3.1852 0 0 0.3011 -391.825 -14814.9014)" gradientUnits="userSpaceOnUse">
				<stop  offset="0" style="stop-color:#CDCCCC"/>
				<stop  offset="1" style="stop-color:#FFFFFF"/>
			</radialGradient>
			<path fill="url(#SVGID_1_)" d="M124.293,81.188c0,1.68-14.67,3.035-32.795,3.035c-18.113,0-32.79-1.355-32.79-3.035
				s14.677-3.047,32.79-3.047C109.623,78.141,124.293,79.508,124.293,81.188z"/>
			<g>
				<path fill="#F79421" d="M103.727,50.208c0,6.719-5.443,12.165-12.16,12.165c-6.724,0-12.168-5.445-12.168-12.165
					c0-6.714,5.444-12.164,12.168-12.164C98.283,38.044,103.727,43.494,103.727,50.208z"/>
				<g>
					<path fill="#2AAAE2" d="M77.117,58.087c-1.223-2.295-1.925-4.909-1.925-7.682c0-7.227,4.722-13.364,11.246-15.498v-8.293
						C75.449,28.957,67.175,38.73,67.175,50.406c0,2.685,0.451,5.258,1.269,7.682H77.117z"/>
					<path fill="#2AAAE2" d="M104.373,29.809v10.62c2.148,2.759,3.438,6.212,3.438,9.977c0,8.994-7.309,16.313-16.313,16.313
						c-3.785,0-7.261-1.309-10.034-3.482v9.301c3.064,1.396,6.454,2.189,10.034,2.189c13.407,0,24.323-10.906,24.323-24.32
						C115.82,41.727,111.232,34.114,104.373,29.809z"/>
				</g>
			</g>
		</g>
		<g>
			<g>
				<path fill="#202020" d="M61.899,98.904c0.996,0,1.811-0.395,2.443-1.182l1.301,1.338c-1.031,1.162-2.248,1.742-3.646,1.742
					c-1.4,0-2.553-0.441-3.459-1.326c-0.904-0.885-1.357-2-1.357-3.348s0.461-2.473,1.385-3.373
					c0.922-0.902,2.051-1.352,3.385-1.352c1.492,0,2.74,0.566,3.744,1.703l-1.26,1.43c-0.643-0.797-1.439-1.197-2.393-1.197
					c-0.762,0-1.414,0.25-1.957,0.748c-0.541,0.498-0.813,1.17-0.813,2.016c0,0.844,0.256,1.523,0.768,2.035
					C60.552,98.648,61.171,98.904,61.899,98.904z"/>
				<path fill="#202020" d="M74.69,99.443c-0.918,0.898-2.049,1.346-3.393,1.346s-2.475-0.447-3.393-1.346
					c-0.92-0.896-1.379-2.012-1.379-3.346c0-1.336,0.459-2.451,1.379-3.348c0.918-0.898,2.049-1.346,3.393-1.346
					s2.475,0.447,3.393,1.346c0.918,0.896,1.379,2.012,1.379,3.348C76.069,97.432,75.608,98.547,74.69,99.443z M74.001,96.104
					c0-0.811-0.26-1.502-0.779-2.074s-1.16-0.857-1.918-0.857s-1.396,0.285-1.916,0.857c-0.521,0.572-0.781,1.264-0.781,2.074
					s0.26,1.5,0.781,2.066c0.52,0.568,1.158,0.852,1.916,0.852s1.398-0.283,1.918-0.852C73.741,97.604,74.001,96.914,74.001,96.104z
					"/>
				<path fill="#202020" d="M85.923,94.979l-2.457,4.967h-1.209l-2.443-4.967v5.721h-2.029v-9.088h2.744l2.34,4.992l2.352-4.992
					h2.73v9.088h-2.027V94.979z"/>
				<path fill="#202020" d="M96.446,92.424c0.637,0.543,0.954,1.375,0.954,2.496c0,1.123-0.325,1.943-0.979,2.463
					c-0.654,0.521-1.654,0.781-2.996,0.781h-1.209v2.535h-2.029v-9.088h3.211C94.794,91.611,95.81,91.883,96.446,92.424z M94.958,96
					c0.242-0.273,0.363-0.672,0.363-1.197c0-0.523-0.158-0.896-0.475-1.117s-0.807-0.332-1.475-0.332h-1.156v3.055h1.363
					C94.255,96.408,94.716,96.271,94.958,96z"/>
				<path fill="#202020" d="M104.928,100.699l-0.846-1.963h-3.809l-0.846,1.963H97.27l3.928-9.088h1.963l3.926,9.088H104.928z
					 M102.184,94.316l-1.143,2.639h2.275L102.184,94.316z"/>
				<path fill="#202020" d="M114.496,91.611h2.027v9.088h-2.027l-4.328-5.695v5.695h-2.029v-9.088h1.898l4.459,5.85V91.611z"/>
				<path fill="#202020" d="M122.672,100.699h-2.027v-3.588l-3.146-5.5h2.197l1.963,3.381l1.963-3.381h2.197l-3.146,5.5V100.699z"/>
			</g>
			<g>
				<path fill="#8E8E8E" d="M60.396,106.695c-0.207,0-0.375,0.041-0.508,0.125c-0.131,0.084-0.197,0.211-0.197,0.381
					s0.066,0.301,0.197,0.391c0.133,0.09,0.414,0.188,0.844,0.291s0.754,0.25,0.973,0.438c0.217,0.188,0.326,0.465,0.326,0.832
					c0,0.365-0.139,0.662-0.414,0.891c-0.275,0.227-0.639,0.342-1.086,0.342c-0.656,0-1.238-0.227-1.746-0.678l0.443-0.535
					c0.424,0.369,0.865,0.553,1.32,0.553c0.229,0,0.41-0.049,0.543-0.146c0.135-0.1,0.201-0.229,0.201-0.391
					s-0.063-0.287-0.189-0.379c-0.125-0.09-0.342-0.172-0.65-0.246c-0.309-0.072-0.543-0.141-0.701-0.203
					c-0.16-0.063-0.303-0.143-0.428-0.242c-0.248-0.189-0.371-0.477-0.371-0.865c0-0.387,0.141-0.688,0.424-0.896
					c0.281-0.211,0.631-0.314,1.047-0.314c0.268,0,0.533,0.043,0.797,0.131s0.492,0.213,0.684,0.373l-0.377,0.533
					c-0.125-0.111-0.293-0.203-0.504-0.275C60.81,106.73,60.601,106.695,60.396,106.695z"/>
				<path fill="#8E8E8E" d="M65.126,110.336v-4.193h0.709v3.521h1.914v0.672H65.126z"/>
				<path fill="#8E8E8E" d="M74.132,109.758c-0.424,0.414-0.947,0.621-1.572,0.621c-0.623,0-1.146-0.207-1.57-0.621
					c-0.426-0.414-0.637-0.93-0.637-1.549c0-0.617,0.211-1.133,0.637-1.547c0.424-0.414,0.947-0.621,1.57-0.621
					c0.625,0,1.148,0.207,1.572,0.621s0.637,0.93,0.637,1.547C74.769,108.828,74.556,109.344,74.132,109.758z M73.614,107.133
					c-0.287-0.297-0.639-0.445-1.055-0.445s-0.766,0.148-1.053,0.445c-0.285,0.295-0.428,0.654-0.428,1.076s0.143,0.781,0.428,1.078
					c0.287,0.295,0.637,0.443,1.053,0.443s0.768-0.148,1.055-0.443c0.285-0.297,0.428-0.656,0.428-1.078
					S73.899,107.428,73.614,107.133z"/>
				<path fill="#8E8E8E" d="M80.786,108.297h0.709v1.434c-0.396,0.436-0.963,0.654-1.699,0.654c-0.619,0-1.139-0.205-1.557-0.613
					c-0.418-0.406-0.627-0.924-0.627-1.547c0-0.625,0.213-1.145,0.639-1.561s0.941-0.623,1.545-0.623s1.105,0.176,1.506,0.527
					l-0.377,0.541c-0.164-0.141-0.33-0.238-0.496-0.291c-0.166-0.055-0.359-0.082-0.578-0.082c-0.424,0-0.781,0.137-1.068,0.41
					c-0.287,0.275-0.432,0.635-0.432,1.08c0,0.447,0.141,0.805,0.42,1.074c0.279,0.271,0.619,0.406,1.018,0.406
					c0.396,0,0.73-0.086,0.998-0.258V108.297z"/>
				<path fill="#8E8E8E" d="M85.196,109.383l-0.42,0.953h-0.756l1.848-4.193h0.756l1.848,4.193h-0.756l-0.42-0.953H85.196z
					 M87.009,108.729L86.245,107l-0.762,1.729H87.009z"/>
				<path fill="#8E8E8E" d="M94.417,106.143h0.709v4.193h-0.768l-2.377-3.059v3.059h-0.707v-4.193h0.707l2.436,3.133V106.143z"/>
				<path fill="#8E8E8E" d="M103.957,106.791v3.545h-0.707v-3.545h-1.273v-0.648h3.254v0.648H103.957z"/>
				<path fill="#8E8E8E" d="M111.164,106.143v0.666h-2.238v1.109h2.01v0.631h-2.01v1.121h2.309v0.666h-3.018v-4.193H111.164z"/>
				<path fill="#8E8E8E" d="M116.846,110.336l-1.033-1.578h-0.029l-1.033,1.578h-0.881l1.439-2.154l-1.338-2.039h0.877l0.936,1.416
					h0.029l0.936-1.416h0.877l-1.338,2.039l1.439,2.154H116.846z"/>
				<path fill="#8E8E8E" d="M122.203,106.791v3.545h-0.709v-3.545h-1.271v-0.648h3.252v0.648H122.203z"/>
			</g>
		</g>
	</g>
</g>
</svg>
