<?xml version="1.0" encoding="utf-8"?>
<!-- Generator: Adobe Illustrator 15.1.0, SVG Export Plug-In . SVG Version: 6.00 Build 0)  -->
<!DOCTYPE svg PUBLIC "-//W3C//DTD SVG 1.1//EN" "http://www.w3.org/Graphics/SVG/1.1/DTD/svg11.dtd">
<svg version="1.1" id="Layer_1" xmlns="http://www.w3.org/2000/svg" xmlns:xlink="http://www.w3.org/1999/xlink" x="0px" y="0px"
	 width="183px" height="136.999px" viewBox="0 0 183 136.999" enable-background="new 0 0 183 136.999" xml:space="preserve">
<g>
	<rect fill="#FFFFFF" width="183" height="136.999"/>
	<g>
		<g>
			
				<radialGradient id="SVGID_1_" cx="165.6885" cy="49511.8555" r="8.237" gradientTransform="matrix(3.6971 0 0 0.2158 -521.068 -10601.624)" gradientUnits="userSpaceOnUse">
				<stop  offset="0" style="stop-color:#CDCCCC"/>
				<stop  offset="1" style="stop-color:#FFFFFF"/>
			</radialGradient>
			<path fill="url(#SVGID_1_)" d="M122.721,83.046c0,0.978-13.985,1.777-31.235,1.777c-17.232,0-31.205-0.8-31.205-1.777
				c0-0.99,13.973-1.801,31.205-1.801C108.735,81.245,122.721,82.056,122.721,83.046z"/>
			<g>
				<g>
					<g>
						<path fill="#8DC641" d="M110.332,34.412c-1.847,0.354-3.637-0.88-3.976-2.732c-0.342-1.858,0.877-3.654,2.734-3.991
							c1.854-0.349,3.636,0.875,3.974,2.739C113.407,32.285,112.196,34.069,110.332,34.412z"/>
						<path fill="#8DC641" d="M116.649,33.218c-2.48,4.287-7.211,5.866-10.766,3.407c-3.563-2.436-3.785-7.422-0.676-11.287
							c-1.623,1.207-4.66,3.614-4.912,10.424c-0.285,7.25-3.023,13.355-3.115,13.557c0.16-0.154,4.866-4.906,11.526-7.765
							C114.951,38.866,116.11,35.16,116.649,33.218z"/>
					</g>
					<g>
						<path fill="#8DC641" d="M72.651,34.412c1.859,0.354,3.633-0.88,3.985-2.732c0.343-1.858-0.892-3.654-2.737-3.991
							c-1.859-0.349-3.643,0.875-3.986,2.739C69.57,32.285,70.8,34.069,72.651,34.412z"/>
						<path fill="#8DC641" d="M66.334,33.218c2.487,4.287,7.204,5.866,10.768,3.407c3.567-2.436,3.789-7.422,0.685-11.287
							c1.625,1.207,4.643,3.614,4.905,10.424c0.281,7.25,3.015,13.355,3.118,13.557c-0.162-0.154-4.873-4.906-11.533-7.765
							C68.039,38.866,66.872,35.16,66.334,33.218z"/>
					</g>
				</g>
				<g>
					<g>
						<path fill="#1072BA" d="M110.332,69.639c-1.847-0.35-3.637,0.881-3.976,2.731c-0.342,1.847,0.877,3.637,2.734,3.976
							c1.854,0.354,3.636-0.876,3.974-2.729C113.407,71.765,112.196,69.992,110.332,69.639z"/>
						<path fill="#1072BA" d="M116.649,70.839c-2.48-4.277-7.211-5.866-10.766-3.408c-3.563,2.436-3.785,7.405-0.676,11.253
							c-1.623-1.196-4.66-3.603-4.912-10.383c-0.285-7.239-3.023-13.346-3.115-13.552c0.16,0.16,4.866,4.917,11.526,7.765
							C114.951,65.194,116.11,68.895,116.649,70.839z"/>
					</g>
					<g>
						<path fill="#1072BA" d="M72.651,69.639c1.859-0.35,3.633,0.881,3.985,2.731c0.343,1.847-0.892,3.637-2.737,3.976
							c-1.859,0.354-3.643-0.876-3.986-2.729C69.57,71.765,70.8,69.992,72.651,69.639z"/>
						<path fill="#1072BA" d="M66.334,70.839c2.487-4.277,7.204-5.866,10.768-3.408c3.567,2.436,3.789,7.405,0.685,11.253
							c1.625-1.196,4.643-3.603,4.905-10.383c0.281-7.239,3.015-13.346,3.118-13.552c-0.162,0.16-4.873,4.917-11.533,7.765
							C68.039,65.194,66.872,68.895,66.334,70.839z"/>
					</g>
				</g>
			</g>
		</g>
		<g>
			<g>
				<path fill="#202020" d="M61.899,100.181c0.996,0,1.811-0.395,2.443-1.182l1.301,1.338c-1.031,1.162-2.248,1.742-3.646,1.742
					c-1.4,0-2.553-0.441-3.459-1.326c-0.904-0.885-1.357-2-1.357-3.348s0.461-2.473,1.385-3.373
					c0.922-0.902,2.051-1.352,3.385-1.352c1.492,0,2.74,0.566,3.744,1.703l-1.26,1.43c-0.643-0.797-1.439-1.197-2.393-1.197
					c-0.762,0-1.414,0.25-1.957,0.748c-0.541,0.498-0.813,1.17-0.813,2.016c0,0.844,0.256,1.523,0.768,2.035
					C60.552,99.925,61.171,100.181,61.899,100.181z"/>
				<path fill="#202020" d="M74.69,100.72c-0.918,0.898-2.049,1.346-3.393,1.346s-2.475-0.447-3.393-1.346
					c-0.92-0.896-1.379-2.012-1.379-3.346c0-1.336,0.459-2.451,1.379-3.348c0.918-0.898,2.049-1.346,3.393-1.346
					s2.475,0.447,3.393,1.346c0.918,0.896,1.379,2.012,1.379,3.348C76.069,98.708,75.608,99.823,74.69,100.72z M74.001,97.38
					c0-0.811-0.26-1.502-0.779-2.074s-1.16-0.857-1.918-0.857s-1.396,0.285-1.916,0.857c-0.521,0.572-0.781,1.264-0.781,2.074
					s0.26,1.5,0.781,2.066c0.52,0.568,1.158,0.852,1.916,0.852s1.398-0.283,1.918-0.852C73.741,98.88,74.001,98.19,74.001,97.38z"/>
				<path fill="#202020" d="M85.923,96.255l-2.457,4.967h-1.209l-2.443-4.967v5.721h-2.029v-9.088h2.744l2.34,4.992l2.352-4.992
					h2.73v9.088h-2.027V96.255z"/>
				<path fill="#202020" d="M96.446,93.7c0.637,0.543,0.955,1.375,0.955,2.496c0,1.123-0.326,1.943-0.98,2.463
					c-0.654,0.521-1.654,0.781-2.996,0.781h-1.209v2.535h-2.029v-9.088h3.211C94.794,92.888,95.81,93.159,96.446,93.7z
					 M94.958,97.276c0.242-0.273,0.363-0.672,0.363-1.197c0-0.523-0.158-0.896-0.475-1.117s-0.807-0.332-1.475-0.332h-1.156v3.055
					h1.363C94.255,97.685,94.716,97.548,94.958,97.276z"/>
				<path fill="#202020" d="M104.929,101.976l-0.846-1.963h-3.809l-0.846,1.963h-2.158l3.928-9.088h1.963l3.926,9.088H104.929z
					 M102.185,95.593l-1.143,2.639h2.275L102.185,95.593z"/>
				<path fill="#202020" d="M114.497,92.888h2.027v9.088h-2.027l-4.328-5.695v5.695h-2.029v-9.088h1.898l4.459,5.85V92.888z"/>
				<path fill="#202020" d="M122.673,101.976h-2.027v-3.588l-3.146-5.5h2.197l1.963,3.381l1.963-3.381h2.197l-3.146,5.5V101.976z"/>
			</g>
			<g>
				<path fill="#8E8E8E" d="M60.396,107.971c-0.207,0-0.375,0.042-0.508,0.126c-0.131,0.084-0.197,0.211-0.197,0.381
					s0.066,0.3,0.197,0.39c0.133,0.09,0.414,0.188,0.844,0.291c0.43,0.104,0.754,0.25,0.973,0.438
					c0.217,0.188,0.326,0.465,0.326,0.831c0,0.365-0.139,0.662-0.414,0.891c-0.275,0.228-0.639,0.342-1.086,0.342
					c-0.656,0-1.238-0.226-1.746-0.678l0.443-0.534c0.424,0.368,0.865,0.552,1.32,0.552c0.229,0,0.41-0.049,0.543-0.146
					c0.135-0.099,0.201-0.229,0.201-0.391c0-0.161-0.063-0.287-0.189-0.378c-0.125-0.09-0.342-0.172-0.65-0.246
					c-0.309-0.073-0.543-0.142-0.701-0.203c-0.16-0.063-0.303-0.144-0.428-0.243c-0.248-0.188-0.371-0.477-0.371-0.864
					s0.141-0.688,0.424-0.897c0.281-0.21,0.631-0.314,1.047-0.314c0.268,0,0.533,0.044,0.797,0.132s0.492,0.212,0.684,0.372
					l-0.377,0.534c-0.125-0.112-0.293-0.204-0.504-0.276C60.81,108.006,60.601,107.971,60.396,107.971z"/>
				<path fill="#8E8E8E" d="M65.126,111.612v-4.194h0.709v3.522h1.914v0.672H65.126z"/>
				<path fill="#8E8E8E" d="M74.132,111.033c-0.424,0.414-0.947,0.621-1.572,0.621c-0.623,0-1.146-0.207-1.57-0.621
					c-0.426-0.414-0.637-0.93-0.637-1.548s0.211-1.134,0.637-1.548c0.424-0.414,0.947-0.621,1.57-0.621
					c0.625,0,1.148,0.207,1.572,0.621s0.637,0.93,0.637,1.548S74.556,110.619,74.132,111.033z M73.614,108.408
					c-0.287-0.296-0.639-0.444-1.055-0.444s-0.766,0.148-1.053,0.444c-0.285,0.296-0.428,0.655-0.428,1.077s0.143,0.781,0.428,1.077
					c0.287,0.296,0.637,0.443,1.053,0.443s0.768-0.147,1.055-0.443c0.285-0.296,0.428-0.655,0.428-1.077
					S73.899,108.704,73.614,108.408z"/>
				<path fill="#8E8E8E" d="M80.786,109.572h0.709v1.434c-0.396,0.437-0.963,0.654-1.699,0.654c-0.619,0-1.139-0.204-1.557-0.612
					c-0.418-0.407-0.627-0.924-0.627-1.548s0.213-1.144,0.639-1.56s0.941-0.624,1.545-0.624s1.105,0.176,1.506,0.528l-0.377,0.54
					c-0.164-0.141-0.33-0.237-0.496-0.291c-0.166-0.055-0.359-0.081-0.578-0.081c-0.424,0-0.781,0.137-1.068,0.41
					c-0.287,0.274-0.432,0.635-0.432,1.08c0,0.446,0.141,0.805,0.42,1.074c0.279,0.271,0.619,0.405,1.018,0.405
					c0.396,0,0.73-0.086,0.998-0.258V109.572z"/>
				<path fill="#8E8E8E" d="M85.196,110.658l-0.42,0.954h-0.756l1.848-4.194h0.756l1.848,4.194h-0.756l-0.42-0.954H85.196z
					 M87.009,110.004l-0.764-1.728l-0.762,1.728H87.009z"/>
				<path fill="#8E8E8E" d="M94.417,107.418h0.709v4.194h-0.768l-2.377-3.06v3.06h-0.707v-4.194h0.707l2.436,3.133V107.418z"/>
				<path fill="#8E8E8E" d="M103.958,108.066v3.546h-0.707v-3.546h-1.273v-0.648h3.254v0.648H103.958z"/>
				<path fill="#8E8E8E" d="M111.165,107.418v0.666h-2.238v1.11h2.01v0.63h-2.01v1.122h2.309v0.666h-3.018v-4.194H111.165z"/>
				<path fill="#8E8E8E" d="M116.847,111.612l-1.033-1.578h-0.029l-1.033,1.578h-0.881l1.439-2.154l-1.338-2.04h0.877l0.936,1.416
					h0.029l0.936-1.416h0.877l-1.338,2.04l1.439,2.154H116.847z"/>
				<path fill="#8E8E8E" d="M122.204,108.066v3.546h-0.709v-3.546h-1.271v-0.648h3.252v0.648H122.204z"/>
			</g>
		</g>
	</g>
</g>
</svg>
