<svg fill="#ffffff" xmlns="http://www.w3.org/2000/svg" viewBox="0 0 32 32" width="64px" height="64px"><path d="M 16 3 C 12.144531 3 9 6.144531 9 10 C 9 11.128906 9.445313 12.351563 10.03125 13.6875 C 10.617188 15.023438 11.363281 16.4375 12.125 17.75 C 13.648438 20.375 15.1875 22.5625 15.1875 22.5625 L 16 23.75 L 16.8125 22.5625 C 16.8125 22.5625 18.351563 20.375 19.875 17.75 C 20.636719 16.4375 21.382813 15.023438 21.96875 13.6875 C 22.554688 12.351563 23 11.128906 23 10 C 23 6.144531 19.855469 3 16 3 Z M 16 5 C 18.773438 5 21 7.226563 21 10 C 21 10.527344 20.695313 11.648438 20.15625 12.875 C 19.617188 14.101563 18.863281 15.476563 18.125 16.75 C 17.054688 18.597656 16.507813 19.398438 16 20.15625 C 15.492188 19.398438 14.945313 18.597656 13.875 16.75 C 13.136719 15.476563 12.382813 14.101563 11.84375 12.875 C 11.304688 11.648438 11 10.527344 11 10 C 11 7.226563 13.226563 5 16 5 Z M 16 8 C 14.894531 8 14 8.894531 14 10 C 14 11.105469 14.894531 12 16 12 C 17.105469 12 18 11.105469 18 10 C 18 8.894531 17.105469 8 16 8 Z M 10.90625 19.4375 C 7.035156 20.140625 4 21.679688 4 24 C 4 27.28125 10.035156 29 16 29 C 21.964844 29 28 27.28125 28 24 C 28 21.679688 24.964844 20.140625 21.09375 19.4375 L 19.875 21.28125 C 23.652344 21.828125 26 23.089844 26 24 C 26 25.195313 22.011719 27 16 27 C 9.988281 27 6 25.195313 6 24 C 6 23.089844 8.347656 21.828125 12.125 21.28125 Z"/></svg>