<svg fill="#202020" xmlns="http://www.w3.org/2000/svg" viewBox="0 0 50 50" width="100px" height="100px"><path d="M 32.6875 2 C 31.882813 2 31.078125 2.296875 30.46875 2.90625 L 6.9375 26.4375 C 5.71875 27.660156 5.714844 29.6875 6.9375 30.90625 L 7.40625 31.375 L 2.125 44.65625 C 2.113281 44.6875 2.101563 44.71875 2.09375 44.75 C 1.832031 45.648438 2.089844 46.617188 2.75 47.28125 C 3.375 47.90625 4.105469 48.078125 4.90625 48 C 4.917969 48 4.925781 48 4.9375 48 C 5.019531 48.011719 5.105469 48.011719 5.1875 48 L 46 48 C 46.359375 48.003906 46.695313 47.816406 46.878906 47.503906 C 47.058594 47.191406 47.058594 46.808594 46.878906 46.496094 C 46.695313 46.183594 46.359375 45.996094 46 46 L 10.21875 46 L 18.6875 42.65625 L 19.09375 43.0625 C 19.707031 43.675781 20.507813 44 21.3125 44 C 22.117188 44 22.953125 43.675781 23.5625 43.0625 L 47.09375 19.53125 C 48.304688 18.3125 48.265625 16.347656 47.0625 15.125 C 47.054688 15.117188 47.070313 15.101563 47.0625 15.09375 L 34.90625 2.90625 C 34.296875 2.296875 33.492188 2 32.6875 2 Z M 32.6875 4 C 32.984375 4 33.273438 4.117188 33.5 4.34375 L 45.65625 16.5 C 46.105469 16.949219 46.113281 17.667969 45.65625 18.125 L 29.65625 34.125 L 15.875 20.34375 L 31.875 4.34375 C 32.101563 4.117188 32.390625 4 32.6875 4 Z M 14.46875 21.75 L 28.25 35.53125 L 26.0625 37.71875 L 12.28125 23.9375 Z M 10.875 25.34375 L 24.65625 39.125 L 22.125 41.65625 C 21.898438 41.882813 21.609375 42 21.3125 42 C 21.015625 42 20.726563 41.882813 20.5 41.65625 L 9.375 30.5625 C 9.335938 30.515625 9.296875 30.476563 9.25 30.4375 L 8.34375 29.5 C 7.894531 29.050781 7.890625 28.328125 8.34375 27.875 Z M 8.9375 32.90625 L 17.125 41.09375 L 4.84375 46 C 4.835938 46 4.824219 46 4.8125 46 C 4.574219 46.011719 4.0625 45.785156 4.15625 45.875 C 4.007813 45.726563 3.972656 45.511719 4.03125 45.3125 Z"/></svg>