<svg xmlns="http://www.w3.org/2000/svg" viewBox="0 0 48 48" width="96px" height="96px"><path fill="#795548" d="M15,36.002c13-6,12-26.001,12-26.001h2c0,0,2,22.001-8.89,29.784L15,36.002z"/><path fill="#388E3C" d="M12 13c-.022-1.81.703-3.625 1.874-5.051 1.173-1.419 2.959-2.523 4.939-2.84 1.979-.335 3.977.126 5.548 1.013C25.942 7.021 27.202 8.282 28 9.89c-1.773-.26-3.287-.625-4.702-.809-1.411-.195-2.665-.215-3.835-.025-1.17.19-2.319.6-3.542 1.267C14.693 10.986 13.443 11.965 12 13zM41 13l-3.489-1.77c-1.026-.504-1.952-.881-2.835-1.119-.884-.24-1.76-.371-2.84-.369C30.753 9.73 29.526 9.9 28 10c.529-1.433 1.573-2.561 2.967-3.281C32.35 6 34.143 5.794 35.736 6.256c1.604.439 2.932 1.434 3.836 2.613C40.465 10.064 41.045 11.457 41 13z"/><path fill="#4CAF50" d="M28 10c-1.877 1.025-3.264 1.927-4.362 2.842-1.096.913-1.846 1.79-2.584 2.797-.731 1.006-1.444 2.197-2.218 3.604C18.043 20.646 17.254 22.232 16 24c-1.245-1.775-1.757-3.747-1.764-5.805.015-2.041.604-4.229 1.971-6.093 1.334-1.873 3.495-3.261 5.707-3.634C24.118 8.101 26.359 8.545 28 10zM38 25c-1.162-1.688-1.957-3.114-2.699-4.45-.725-1.331-1.373-2.517-2.005-3.606-.64-1.09-1.244-2.091-2.052-3.178C30.445 12.659 29.399 11.529 28 10c1.847-.937 3.972-.902 5.902-.133 1.932.77 3.583 2.298 4.586 4.071 1.025 1.774 1.469 3.754 1.416 5.655C39.821 21.494 39.324 23.387 38 25z"/><path fill="#2196F3" d="M43,37.001c0,0-1,2-4,2s-4-2-4-2s-1,2-4,2s-4-2-4-2s-1,2-4,2s-4-2-4-2s-1,2-4,2s-4-2-4-2s-1,2-4,2v4h4h32V37.001z"/><path fill="#FFC107" d="M5,43l27,0.001c0,0-9-8-27-9V43z"/><g><path fill="#8BC34A" d="M28 10c-4 5-5 16-5 16M28 10c.115 1.865.158 3.221.072 4.587-.092 1.343-.289 2.618-.636 3.884-.341 1.266-.831 2.514-1.509 3.765C25.23 23.488 24.386 24.73 23 26c-1.101-1.541-1.521-3.094-1.712-4.619-.165-1.525-.042-3.037.362-4.497.402-1.458 1.084-2.872 2.093-4.132C24.763 11.523 26.128 10.352 28 10z"/></g></svg>