<svg xmlns="http://www.w3.org/2000/svg" viewBox="0 0 48 48" width="96px" height="96px"><path fill="#3F51B5" d="M28.4 4.3L29.2 6.2 31.3 6.4 29.7 7.7 30.2 9.8 28.4 8.7 26.6 9.8 27.1 7.7 25.5 6.4 27.6 6.2zM36 7.7L36.7 9.5 38.6 9.6 37.2 10.8 37.6 12.7 36 11.7 34.4 12.7 34.8 10.8 33.4 9.6 35.3 9.5zM19.6 4.3L18.8 6.2 16.7 6.4 18.3 7.7 17.8 9.8 19.6 8.7 21.4 9.8 20.9 7.7 22.5 6.4 20.4 6.2zM12 7.7L11.3 9.5 9.4 9.6 10.8 10.8 10.4 12.7 12 11.7 13.6 12.7 13.2 10.8 14.6 9.6 12.7 9.5z"/><path fill="#2196F3" d="M42 41L6 41 6 17 24 11 42 17z"/><g><path fill="#7AC0F8" d="M31 22H37V27H31zM21 22H27V27H21zM11 22H17V27H11zM31 30H37V35H31zM11 30H17V35H11zM20 30H28V43H20zM24 9L6 15 6 17 24 11 42 17 42 15z"/><path fill="#7AC0F8" d="M6 41H42V43H6z"/></g></svg>