<?xml version="1.0" encoding="utf-8"?>
<!-- Generator: Adobe Illustrator 24.2.1, SVG Export Plug-In . SVG Version: 6.00 Build 0)  -->
<svg version="1.1" id="_x3C_Layer_x3E_" xmlns="http://www.w3.org/2000/svg" xmlns:xlink="http://www.w3.org/1999/xlink" x="0px"
	 y="0px" viewBox="0 0 300 234.1" style="enable-background:new 0 0 300 234.1;" xml:space="preserve">
<style type="text/css">
	.st0{fill-rule:evenodd;clip-rule:evenodd;fill:#FFFFFF;}
	.st1{fill-rule:evenodd;clip-rule:evenodd;fill:url(#SVGID_1_);}
	.st2{fill-rule:evenodd;clip-rule:evenodd;fill:url(#SVGID_2_);}
	.st3{fill-rule:evenodd;clip-rule:evenodd;fill:url(#SVGID_3_);}
	.st4{fill-rule:evenodd;clip-rule:evenodd;fill:url(#SVGID_4_);}
	.st5{fill-rule:evenodd;clip-rule:evenodd;fill:url(#SVGID_5_);}
	.st6{fill-rule:evenodd;clip-rule:evenodd;fill:url(#SVGID_6_);}
	.st7{fill-rule:evenodd;clip-rule:evenodd;fill:url(#SVGID_7_);}
	.st8{fill-rule:evenodd;clip-rule:evenodd;fill:#7B93F6;}
	.st9{fill-rule:evenodd;clip-rule:evenodd;fill:#BAC8FF;}
	.st10{fill-rule:evenodd;clip-rule:evenodd;fill:#DBE4FF;}
	.st11{fill-rule:evenodd;clip-rule:evenodd;fill:#FFECF3;}
	.st12{fill-rule:evenodd;clip-rule:evenodd;fill:#C2235B;}
	.st13{fill-rule:evenodd;clip-rule:evenodd;fill:#FFA8A8;}
	.st14{fill-rule:evenodd;clip-rule:evenodd;fill:#FF8787;}
	.st15{fill-rule:evenodd;clip-rule:evenodd;fill:#E64980;}
	.st16{fill-rule:evenodd;clip-rule:evenodd;fill:#D6336C;}
	.st17{fill-rule:evenodd;clip-rule:evenodd;fill:#FAC0D5;}
	.st18{fill-rule:evenodd;clip-rule:evenodd;fill:#F8AE05;}
	.st19{fill-rule:evenodd;clip-rule:evenodd;fill:#F39D00;}
	.st20{fill-rule:evenodd;clip-rule:evenodd;fill:#FAB005;}
	.st21{fill-rule:evenodd;clip-rule:evenodd;fill:#8FA6FF;}
	.st22{fill-rule:evenodd;clip-rule:evenodd;fill:#FFD43B;}
	.st23{fill-rule:evenodd;clip-rule:evenodd;fill:#212529;}
	.st24{fill-rule:evenodd;clip-rule:evenodd;fill:#F8A0C0;}
	.st25{fill-rule:evenodd;clip-rule:evenodd;fill:url(#SVGID_8_);}
	.st26{fill-rule:evenodd;clip-rule:evenodd;fill:#2F5DDD;}
	.st27{fill-rule:evenodd;clip-rule:evenodd;fill:#D6336B;}
	.st28{fill:#FFFFFF;}
</style>
<rect class="st0" width="300" height="234.1"/>
<g>
	<linearGradient id="SVGID_1_" gradientUnits="userSpaceOnUse" x1="63.0602" y1="58.968" x2="63.0603" y2="101.5875">
		<stop  offset="0" style="stop-color:#FCE3ED"/>
		<stop  offset="1" style="stop-color:#FFFFFF"/>
	</linearGradient>
	<circle class="st1" cx="63.1" cy="78.6" r="15.3"/>
	<linearGradient id="SVGID_2_" gradientUnits="userSpaceOnUse" x1="214.818" y1="67.841" x2="214.8181" y2="91.4392">
		<stop  offset="0" style="stop-color:#FCE5EF"/>
		<stop  offset="1" style="stop-color:#FFFFFF"/>
	</linearGradient>
	<path class="st2" d="M171.7,84.6H258c0,0-6.5-0.4-10.8-4.1c-4.3-3.7-6.4-8.9-10.5-8.3c-4.1,0.6-2,5.7-2,5.7s-7.1-8.9-20.6-8.5
		c-13.5,0.3-7.8,9.1-7.8,9.1s-5-3.8-9.6-1.4c-4.6,2.4,0,5.7,4.7,4.9C201.4,81.8,200.5,83.4,171.7,84.6z"/>
	<linearGradient id="SVGID_3_" gradientUnits="userSpaceOnUse" x1="67.6388" y1="42.7765" x2="67.6388" y2="53.965">
		<stop  offset="0" style="stop-color:#FCE5EF"/>
		<stop  offset="1" style="stop-color:#FFFFFF"/>
	</linearGradient>
	<path class="st3" d="M94,50.7H41.3c0,0,4-0.2,6.6-2c2.6-1.8,3.9-4.2,6.4-3.9c2.5,0.3,1.2,2.7,1.2,2.7s4.3-4.2,12.6-4
		c8.3,0.2,4.8,4.3,4.8,4.3s3.1-1.8,5.9-0.7c2.8,1.1,0,2.7-2.9,2.3C75.9,49.4,76.4,50.1,94,50.7z"/>
	<linearGradient id="SVGID_4_" gradientUnits="userSpaceOnUse" x1="201.2484" y1="106.7547" x2="201.2485" y2="168.5822">
		<stop  offset="0" style="stop-color:#FCE3ED"/>
		<stop  offset="1" style="stop-color:#FFFFFF"/>
	</linearGradient>
	<polygon class="st4" points="246.1,161.8 239,161.8 225,161.8 220.7,161.8 209.3,161.8 200.5,161.8 198.5,161.8 183.1,161.8 
		182.2,161.8 167.1,161.8 155.8,161.8 145,161.8 145,154.7 155.8,154.7 155.8,130.2 159.8,130.2 163.3,133.8 167.1,133.8 
		167.1,146.2 167.7,145.4 178.6,145.4 178.6,123.2 180.8,123.2 180.8,116.8 184.2,116.8 184.2,111.1 194.9,111.1 194.9,116.8 
		198.3,116.8 198.3,123.2 200.5,123.2 200.5,146.1 209.3,146.1 209.3,133.1 209.3,133.1 209.3,129.7 213.3,129.7 216.8,133.1 
		220.7,133.1 220.7,148.1 225,148.1 225,128.8 226.6,128.8 226.6,123.4 238.3,123.4 238.3,128.8 240,128.8 240,155 246.1,155 
		246.1,140.6 250.2,140.6 253.7,143.8 257.5,143.8 257.5,161.8 	"/>
	<g>
		<linearGradient id="SVGID_5_" gradientUnits="userSpaceOnUse" x1="230.6733" y1="55.097" x2="230.6733" y2="163.7307">
			<stop  offset="0" style="stop-color:#F3A1C0"/>
			<stop  offset="1" style="stop-color:#FFFFFF"/>
		</linearGradient>
		<path class="st5" d="M218.5,106.6h0.8v-4.1h-0.8V106.6L218.5,106.6z M216.2,106.6h0.8v-4.1h-0.8V106.6L216.2,106.6z M223,106.5
			h0.8v-4.1H223V106.5L223,106.5z M220.7,106.6h0.8v-4.1h-0.8V106.6L220.7,106.6z M227.6,106.5h0.8v-4.1h-0.8V106.5L227.6,106.5z
			 M225.3,106.5h0.8v-4.1h-0.8V106.5L225.3,106.5z M218.5,113h0.8v-4.1h-0.8V113L218.5,113z M216.2,113h0.8v-4.1h-0.8V113L216.2,113
			z M223,112.9h0.8v-4.1H223V112.9L223,112.9z M220.7,113h0.8v-4.1h-0.8V113L220.7,113z M227.6,112.9h0.8v-4.1h-0.8V112.9
			L227.6,112.9z M225.3,112.9h0.8v-4.1h-0.8V112.9L225.3,112.9z M244.8,149.1h0.8V145h-0.8V149.1L244.8,149.1z M242.5,149.1h0.8V145
			h-0.8V149.1L242.5,149.1z M241.2,138.6h0.8v-4.1h-0.8V138.6L241.2,138.6z M238.9,138.6h0.8v-4.1h-0.8V138.6L238.9,138.6z
			 M217.1,100.3v-2h2.6v-7.5h1.3v7.5h3.3v2h5.9v47.1h5.7v4.2h1.6v-23.8h2.5l3.8,6.5h3.1v5.4v22.9h-9.3h-23.2v-62.3H217.1z"/>
		<linearGradient id="SVGID_6_" gradientUnits="userSpaceOnUse" x1="72.6059" y1="55.0958" x2="72.6059" y2="163.7291">
			<stop  offset="0" style="stop-color:#F3A1C0"/>
			<stop  offset="1" style="stop-color:#FFFFFF"/>
		</linearGradient>
		<path class="st6" d="M90,83.7h-1.2v-5.9H90V83.7L90,83.7z M93.3,83.7h-1.2v-5.9h1.2V83.7L93.3,83.7z M83.5,83.7h-1.2v-5.9h1.2
			V83.7L83.5,83.7z M86.8,83.7h-1.2v-5.9h1.2V83.7L86.8,83.7z M77,83.7h-1.2v-5.9H77V83.7L77,83.7z M80.3,83.7h-1.2v-5.9h1.2V83.7
			L80.3,83.7z M90,92.9h-1.2V87H90V92.9L90,92.9z M93.3,92.9h-1.2V87h1.2V92.9L93.3,92.9z M83.5,92.8h-1.2v-5.9h1.2V92.8L83.5,92.8z
			 M86.8,92.9h-1.2V87h1.2V92.9L86.8,92.9z M77,92.8h-1.2v-5.9H77V92.8L77,92.8z M80.3,92.8h-1.2v-5.9h1.2V92.8L80.3,92.8z
			 M52.4,144.5h-1.2v-5.9h1.2V144.5L52.4,144.5z M55.7,144.5h-1.2v-5.9h1.2V144.5L55.7,144.5z M57.6,129.6h-1.2v-5.9h1.2V129.6
			L57.6,129.6z M60.9,129.6h-1.2v-5.9h1.2V129.6L60.9,129.6z M92,74.7v-2.9h-3.8V61h-1.8v10.8h-4.7v2.9h-8.4v67.4h-8.2v6h-2.3v-34
			h-3.5l-5.4,9.3h-4.5v7.7v32.7h13.4h33.1v-89H92z"/>
	</g>
	<linearGradient id="SVGID_7_" gradientUnits="userSpaceOnUse" x1="149.9998" y1="138.7266" x2="150" y2="178.2774">
		<stop  offset="0" style="stop-color:#DBE4FF"/>
		<stop  offset="1" style="stop-color:#FFFFFF"/>
	</linearGradient>
	<path class="st7" d="M270.3,165.6c-7.9-1.6-16.3-2.8-25.1-3.9c1-0.6,1.9-1.3,1.7-1.6c-0.2-0.4-2.6-0.5-3.4,0.1
		c0.7-1.4,1.9-4.7,1.4-5c-0.5-0.3-2.7,2.4-3.3,3.3c0.6-2.9,1.1-6.3,0.4-6.4c-0.7-0.1-2,4.3-2.4,5.5c-0.3-1.4-1.6-2.6-2.1-2.4
		c-0.4,0.2-0.1,2.2,0.1,2.8c-1.4-0.8-5-2.4-5.3-2c-0.3,0.4,2.4,3.1,3.7,3.9c-1.4-0.3-2.3-0.5-2.6-0.1c-0.1,0.1,0.1,0.4,0.5,0.6
		c-20.2-1.9-42-2.6-63.5-2.7c0-0.1,0-0.1,0-0.1c-0.3-0.7-1.9-0.5-4.3-0.2c2.2-1,7.1-5.2,6.7-5.9c-0.4-0.7-6.7,1.4-9.1,2.5
		c0.6-1,1.3-4.3,0.7-4.7c-0.6-0.4-3,1.5-3.8,3.7c-0.4-2.1-1.9-9.5-3.1-9.5c-1.2,0-0.8,5.8-0.4,10.6c-0.9-1.6-4.1-6.5-4.9-6
		c-0.8,0.5,0.6,6.2,1.5,8.6c-1.2-1-5.1-1.3-5.5-0.6c-0.2,0.3,0.4,1.1,1.4,1.9c-24.7,0.4-48.2,1.7-67.8,3l0-3.4
		c2.9-0.3,5.2-3.8,5.2-8.2c0-4.5-4.9-20-5.5-20c-0.6,0-5.5,15.4-5.5,20c0,4.4,2.3,8,5.2,8.2l0,3.5c-2.5,0.2-5,0.3-7.3,0.5
		c0.2-0.2,0.3-0.4,0.2-0.5c-0.2-0.4-2.6-0.5-3.4,0.1c0.7-1.4,1.9-4.7,1.4-5c-0.5-0.3-2.7,2.4-3.3,3.3c0.6-2.9,1.1-6.3,0.4-6.4
		c-0.7-0.1-2,4.3-2.4,5.5c-0.3-1.4-1.6-2.6-2.1-2.4c-0.4,0.2-0.1,2.2,0.1,2.8c-1.4-0.8-5-2.4-5.3-2c-0.3,0.4,2.4,3.1,3.7,3.9
		c-1.4-0.3-2.3-0.5-2.6-0.1c-0.1,0.2,0.9,1,1.8,1.6c-1.1,0.1-2.3,0.2-3.3,0.3c0.3-0.2,0.4-0.4,0.4-0.5c-0.1-0.1-0.9,0-1.1,0.2
		c0.2-0.5,0.4-1.7,0.3-1.8c-0.2-0.1-0.8,0.9-1,1.3c0.1-1,0.1-2.2-0.2-2.2c-0.3,0-0.5,1.6-0.6,2c-0.2-0.5-0.7-0.8-0.8-0.7
		c-0.1,0.1,0.1,0.8,0.2,1c-0.5-0.2-1.8-0.6-1.9-0.5c-0.1,0.1,1,1,1.4,1.2c-0.5,0-0.8-0.1-0.9,0.1c0,0.1,0.2,0.2,0.5,0.4
		c-16.1,1.4-25.9,2.5-25.9,2.5H270.3z"/>
	<g>
		<path class="st8" d="M163.8,172.2h-46.2c-5.3,0-8.5-4.3-7.1-9.7l26.1-97.3c1.4-5.3,6.9-9.7,12.3-9.7h46.2c5.3,0,8.5,4.3,7.1,9.7
			l-26.1,97.3C174.7,167.8,169.2,172.2,163.8,172.2z"/>
		<path class="st9" d="M160.6,172.2h-46.2c-5.3,0-8.5-4.3-7.1-9.7l26.1-97.3c1.4-5.3,6.9-9.7,12.3-9.7h46.2c5.3,0,8.5,4.3,7.1,9.7
			l-26.1,97.3C171.4,167.8,165.9,172.2,160.6,172.2z"/>
		<path class="st10" d="M191.3,57.6c4.2,0,6.7,3.4,5.6,7.6l-26.1,97.3c-1.1,4.2-5.5,7.6-9.7,7.6h-46.2c-4.2,0-6.7-3.4-5.6-7.6
			l26.1-97.3c1.1-4.2,5.5-7.6,9.7-7.6H191.3z"/>
		<path class="st8" d="M159.3,59.8h16.5c0.5,0,0.8,0.4,0.7,0.9c-0.1,0.5-0.7,0.9-1.2,0.9h-16.5c-0.5,0-0.8-0.4-0.7-0.9
			C158.3,60.2,158.8,59.8,159.3,59.8z"/>
		<path class="st8" d="M159.3,59.8h16.5c0.5,0,0.8,0.4,0.7,0.9c-0.1,0.5-0.7,0.9-1.2,0.9h-16.5c-0.5,0-0.8-0.4-0.7-0.9
			C158.3,60.2,158.8,59.8,159.3,59.8z"/>
		<g>
			<path class="st8" d="M136.6,65.2c0.9-3.5,4.6-6.4,8.1-6.4h8.6c0.7,0,1.1,0.6,0.9,1.3l-0.2,0.6c-0.5,1.7,0.6,3.1,2.3,3.1h20.1
				c1.7,0,3.5-1.4,4-3.1l0.2-0.6c0.2-0.7,0.9-1.3,1.6-1.3h8.6c3.5,0,5.6,2.9,4.7,6.4l-0.4,1.5h-59L136.6,65.2z"/>
		</g>
		<path class="st10" d="M185.7,62.7h-0.2l0.1-0.3c0,0,0-0.1-0.1-0.1h-2.9c0,0-0.1,0-0.1,0.1l-0.4,1.3c0,0,0,0.1,0.1,0.1h2.9
			c0,0,0.1,0,0.1-0.1l0.1-0.3h0.2c0,0,0.1,0,0.1-0.1L185.7,62.7C185.8,62.8,185.7,62.7,185.7,62.7L185.7,62.7z M185,63.6L185,63.6
			h-0.8l0.3-1h0.8c0,0,0,0,0,0L185,63.6C185,63.6,185,63.6,185,63.6z"/>
		<g>
			<path class="st10" d="M188.6,62.9h-0.4c0,0-0.1,0-0.1,0.1l-0.2,0.9h0.6L188.6,62.9C188.7,62.9,188.6,62.9,188.6,62.9z"/>
			<path class="st10" d="M189.5,62.5h-0.4c0,0-0.1,0-0.1,0.1l-0.4,1.3h0.6L189.5,62.5C189.6,62.5,189.6,62.5,189.5,62.5z"/>
			<path class="st10" d="M190.4,62.1H190c0,0-0.1,0-0.1,0.1l-0.5,1.7h0.6L190.4,62.1C190.5,62.1,190.5,62.1,190.4,62.1z"/>
			<path class="st10" d="M191.4,61.7h-0.4c0,0-0.1,0-0.1,0.1l-0.6,2.1h0.6L191.4,61.7C191.4,61.7,191.4,61.7,191.4,61.7z"/>
		</g>
		<g>
			<path class="st10" d="M149,61.2c-0.4-0.3-0.9-0.4-1.4-0.4c-0.5,0-1.1,0.1-1.6,0.4c-0.1,0-0.1,0.1-0.1,0.2c0,0,0.1,0.1,0.1,0.1
				c0,0,0.1,0,0.1,0c0.5-0.2,1-0.4,1.4-0.4c0.5,0,0.9,0.1,1.2,0.4c0.1,0,0.2,0,0.2-0.1C149.1,61.3,149.1,61.2,149,61.2z"/>
			<path class="st10" d="M148.4,61.9c-0.3-0.2-0.6-0.3-1-0.3c-0.4,0-0.8,0.1-1.1,0.3c-0.1,0-0.1,0.1-0.1,0.2c0,0.1,0.1,0.1,0.2,0.1
				c0.3-0.2,0.7-0.2,1-0.2c0.3,0,0.6,0.1,0.8,0.2c0,0,0,0,0.1,0c0.1,0,0.1,0,0.2-0.1C148.4,62.1,148.4,62,148.4,61.9z"/>
			<path class="st10" d="M147.7,62.7c-0.2-0.1-0.4-0.2-0.6-0.2c-0.2,0-0.5,0.1-0.7,0.2c-0.1,0-0.1,0.1-0.1,0.2
				c0,0.1,0.1,0.1,0.2,0.1c0.2-0.1,0.3-0.1,0.5-0.1c0.2,0,0.3,0,0.4,0.1c0,0,0,0,0.1,0c0.1,0,0.1,0,0.2-0.1
				C147.8,62.8,147.8,62.7,147.7,62.7z"/>
			<path class="st10" d="M147.2,63.4C147.2,63.4,147.2,63.4,147.2,63.4C147.2,63.4,147.2,63.4,147.2,63.4c0-0.1-0.1-0.2-0.2-0.2
				c-0.1,0-0.2,0.1-0.3,0.2c0,0,0,0,0,0c0,0,0,0,0,0c0,0,0,0,0,0c0,0-0.1,0.1-0.1,0.1c0,0.2,0.1,0.3,0.2,0.3c0,0,0,0,0,0
				c0,0,0,0,0,0c0.2,0,0.3-0.1,0.4-0.3C147.2,63.5,147.2,63.5,147.2,63.4C147.2,63.4,147.2,63.4,147.2,63.4z"/>
		</g>
		<path class="st9" d="M190.2,104.7c0.2,0,0.4-0.2,0.5-0.4l3.6-13.6c0.1-0.2-0.1-0.4-0.3-0.4h-0.5c-0.2,0-0.4,0.2-0.5,0.4l-3.6,13.6
			c-0.1,0.2,0.1,0.4,0.3,0.4H190.2z"/>
		<g>
			<path class="st9" d="M195.2,66.7l-25.7,95.8c-0.9,3.5-4.6,6.4-8.1,6.4h-46.2c-3.5,0-5.6-2.9-4.7-6.4l25.7-95.8H195.2z"/>
			<path class="st0" d="M195.2,66.7l-2.5,9.4l-11.8,14l-34.3-23.4H195.2L195.2,66.7z M190.1,85.6l-5.8,6.9l3.4,2.3L190.1,85.6
				L190.1,85.6z M185.8,101.7l-11.4,42.4l-15.5-10.6L185.8,101.7L185.8,101.7z M173,149.6l-19.3-13.2l-12.2,14.4l22.1,15.1l7.3-8.6
				L173,149.6L173,149.6z M158.5,168.9h-32.3l11.8-14L158.5,168.9L158.5,168.9z M115.8,168.9h-0.6c-2.6,0-4.4-1.5-4.8-3.7
				L115.8,168.9L115.8,168.9z M111.3,159.4l11,7.5l12.2-14.4l-18.1-12.3L111.3,159.4L111.3,159.4z M118,134.7l5.2-19.2l27.1,18.5
				L138,148.4L118,134.7L118,134.7z M124.6,110l7.1,4.9l27.8-32.9l-20.3-13.9l-4.9,5.8L124.6,110L124.6,110z M163,84.3l-12.2,14.5
				l20.3,13.9l12.2-14.5L163,84.3L163,84.3z M135.1,117.2l20.3,13.9l12.2-14.4l-20.3-13.9L135.1,117.2z"/>
			<path class="st10" d="M195.2,66.7l-1.5,5.7l-12.8,15.1l-17.1-11.7l2.7-3.2l14.3,9.8l13.3-15.8H195.2L195.2,66.7z M189.1,89.3
				l-0.9,3.3l-1.2-0.8L189.1,89.3L189.1,89.3z M184.8,105.4l-2.3,8.7l-3.2-2.2L184.8,105.4L184.8,105.4z M181.9,116.3l-4-2.7
				l-7.5,8.8l4.2,2.9l7-8.3L181.9,116.3L181.9,116.3z M179.9,123.8l-1.1,4.3l-1.6-1.1L179.9,123.8L179.9,123.8z M178.2,130.2
				l-1.4,5.1l-4.3,5l-4.2-2.9l7.5-8.8L178.2,130.2L178.2,130.2z M172.4,151.7l-0.5,1.8l-8.3,9.8l-9-6.2l2.7-3.2l6.3,4.3l4-4.7
				l-6.3-4.3l2.7-3.2L172.4,151.7L172.4,151.7z M154.8,168.9h-7.4l-1.6-1.1l2.7-3.2l3,2L154.8,168.9L154.8,168.9z M132.7,168.9
				l2.1-2.5l3.3,2.3l3.3-3.9l3,2l2.7-3.2l-3-2l-6-4.1l-6,7.1l-3.6,4.3H132.7L132.7,168.9z M111.9,157.3l1.2-4.3l5.3,3.6l4-4.7
				l-6.5-4.4l2.7-3.2l13.2,9l-9.5,11.2L111.9,157.3L111.9,157.3z M114.9,146l2.3-2.8l-1.3-0.9L114.9,146L114.9,146z M118.5,132.6
				l0.8-3.1l0.7-0.9l3.5,2.4l4-4.7l-3.5-2.4l2.7-3.2l13,8.8l-2.7,3.2l-3.5-2.4l-4,4.7l3.5,2.4l-2.7,3.2L118.5,132.6L118.5,132.6z
				 M120.4,125.7l2.4-2.8l2.7-3.2l-3-2L120.4,125.7L120.4,125.7z M125.2,107.9l1.2-4.3l5.4,3.7l9.1-10.8l2.7,1.9l-11.9,14
				L125.2,107.9L125.2,107.9z M127.5,99.3l4.2,2.9l2.5-3l-5.7-3.9L127.5,99.3L127.5,99.3z M129.1,93.1l6.5,4.4l5.2-6.2l-1.4-0.9
				l1.9-2.3l1.4,0.9l3.1-3.7l-6.7-4.6l-3.1,3.7l1.4,0.9l-1.9,2.3l-1.4-0.9l-4.8,5.7L129.1,93.1L129.1,93.1z M131.3,85l2-7.4l5.9-7
				l8.1,5.5l-2.7,3.2l-5.4-3.7L131.3,85L131.3,85z M150.3,66.7l3.4,2.3l8.7,6l2.7-3.2l-7.4-5.1H150.3L150.3,66.7z M165.2,66.7
				l15.7,10.7l2.9-3.4l-4.8-3.3l3.4-4H165.2L165.2,66.7z M153.7,138.9l-9.5,11.2l9,6.2l2.7-3.2l-6.3-4.3l4-4.7l6.3,4.3l2.7-3.2
				L153.7,138.9L153.7,138.9z M141.2,130.4l-2.7,3.2l3.6,2.5l-4,4.7l-3.6-2.5l-2.7,3.2l6.3,4.3l9.5-11.2L141.2,130.4L141.2,130.4z
				 M143.3,115.2l1.3-1.5l-2.7-1.9l-4,4.8l8.1,5.5l2.7-3.2L143.3,115.2L143.3,115.2z M143.3,110.2l2.7,1.9l1.3-1.5l5.4,3.7l2.7-3.2
				l-8.1-5.5L143.3,110.2L143.3,110.2z M150.1,119.8l5.4,3.7l1.3-1.5l2.7,1.9l-4,4.8l-8.1-5.5L150.1,119.8L150.1,119.8z
				 M158.2,120.3l1.3-1.5l-5.4-3.7l2.7-3.2l8.1,5.5l-4,4.8L158.2,120.3L158.2,120.3z M148.7,77.1l-2.7,3.2l5.4,3.7l-9.1,10.8
				l2.7,1.9l11.9-14L148.7,77.1L148.7,77.1z M163,86.9l-9.5,11.2l5,3.4l2.7-3.2l-2.2-1.5l4-4.8l2.2,1.5l2.7-3.2L163,86.9L163,86.9z
				 M172,98.1l-4,4.8l-2.7,3.2l3.9,2.6c1.1,0.8,3,0.3,4.1-1l5.4-6.4c1.1-1.3,1.1-3,0-3.8l-3.9-2.6L172,98.1L172,98.1z M169.3,91.2
				l4,2.7l-2.7,3.2l-4-2.7L169.3,91.2L169.3,91.2z M162.6,99.2l4,2.7l-2.7,3.2l-4-2.7L162.6,99.2L162.6,99.2z M165.9,135.7l-4.2-2.9
				l7.5-8.8l4.2,2.9L165.9,135.7z"/>
		</g>
	</g>
	<g>
		<path class="st11" d="M160,197.3c0,1.4-17.1,2.6-38.2,2.6c-21.1,0-38.2-1.2-38.2-2.6c0-1.4,17.1-2.6,38.2-2.6
			C142.9,194.7,160,195.9,160,197.3z"/>
	</g>
	<g>
		<path class="st12" d="M93,143.1c0,0,14.4,10.5,35,8.5C128,151.6,110.8,135.7,93,143.1z"/>
		<path class="st13" d="M132,126c0,0,3.1,15.7,2.6,30.2c-0.5,14.5,0.8,32.4,3.6,41.4c0,0-19.9-22.3-15.1-43.1l-6.9-22.9L132,126z"/>
		<path class="st13" d="M109.1,121.7c0,0-4.5,17.2-3.1,30.2c0,0-13.5,13.8-3.3,45.8c0,0,7.2-30.8,11.7-38c4.5-7.2,7.8-23.1,7.8-23.1
			L109.1,121.7z"/>
		<path class="st14" d="M102.7,197.6c0.1-0.5,7.2-30.9,11.7-38c2.7-4.3,5-11.9,6.4-17.2l-8.1-9.9c0,0,3.3,11.2-3.1,22
			C103.2,165.3,102.7,197.1,102.7,197.6z"/>
		<path class="st15" d="M111.6,117.2c0,0-8.5,3.9-18.7,25.9c0,0,8.3-1.9,14.2,0c5.9,1.9,14.6,9.4,23,8.4c8.4-1,13.8-6.3,13.8-6.3
			s-6.7-20.5-14.6-27.5C121.5,110.6,111.6,117.2,111.6,117.2z"/>
		<path class="st14" d="M134.6,156.2c0.2-5.2-0.1-10.6-0.6-15.4c-3.1-2.4-4.9-3.6-4.1-2.3c2.8,4.5-1.1,13.7-0.6,28.3
			c0.5,14.6,8.9,30.7,8.9,30.7h0C135.4,188.6,134.1,170.7,134.6,156.2z"/>
		<path class="st13" d="M130.3,98.3c0,0,2.9,2.2,6.6,1.7c3.4-0.5,5.9-3.8,6.6-5.7c0.2-0.4,0.4-0.8,0.8-1c0.4-0.3,0.9-0.6,0.9-0.4
			c-0.1,0.3-0.8,1-0.8,1s0.9,0.8,0.8,1.4c-0.1,0.6-1.1,0.8-1.1,0.8s-2.2,13.4-12.9,11.2C120.6,105,130.3,98.3,130.3,98.3z"/>
		<path class="st16" d="M129.4,117.7c-1.8-1.6-3.7-2.5-5.6-2.9l1.7,3.9c0,0,8.6,21.8-3.7,31.6c2.8,1,5.6,1.7,8.4,1.3
			c8.4-1,13.8-6.3,13.8-6.3S137.3,124.8,129.4,117.7z"/>
		<path class="st14" d="M128,106.2c0.8,0.4,1.8,0.8,3.2,1.1c10.7,2.2,12.9-11.2,12.9-11.2s1-0.2,1.1-0.8c0.1-0.6-0.8-1.4-0.8-1.4
			s0.8-0.7,0.8-1c0,0-0.8,0.8-1.1,1c0,0,1.1,0.9,0.8,1.4c-0.4,0.5-1,0.5-1,0.5s-3.3,9.7-10.7,9.3c0,0-1.1-4.6-2.8-6.8
			c0,0-0.5,0.3-1.1,0.9C128.7,100.8,128.3,103.8,128,106.2z"/>
		<g>
			<path class="st17" d="M113.5,92.9c0,0,8.2-0.6,16.8,5.4c0,0,2.6,5.6,1.2,10.9c0,0-4.2-0.8-7.1-4.1c0,0,3.1,4.3,4.9,12.7
				c0,0-12.4,3.7-17.2,0C107.3,114,113.5,92.9,113.5,92.9z"/>
		</g>
		<g>
			<g>
				<path class="st14" d="M117.4,92.9c0.4,0.2,1.2-1.8,1.5-1.7c0.1,0.8,1.1,0.8,0.9,1.7C118.8,92.9,117.4,92.9,117.4,92.9z"/>
			</g>
			<g>
				<path class="st13" d="M119,90.4c0,0-0.2,1.7,0,3c0.2,0.9-3.2,1-3.2,0c0-0.6,0.4-3.3,0.4-3.3L119,90.4z"/>
			</g>
			<g>
				<path class="st13" d="M119.4,86.9c-0.5,0.2-0.7,1.5-0.6,2.7c0,0,0,0.1,0,0c-0.1-0.1-0.5-0.4-0.7-0.1c-0.4,0.7,1.1,3.4,1.7,3.4
					C120.4,92.9,120.3,86.7,119.4,86.9z"/>
			</g>
		</g>
		<path class="st18" d="M108.6,91c-4.1,0-6.2,0-7.8,0c-3.7,0-8.6,7.6-8.6,12.5c-4.8,3.5-7.8,18.8-1.2,18.8c6.6,0,13.1,0,13.1,0
			l3.6-18l0.3-11.4v-1.4L108.6,91z"/>
		<path class="st19" d="M114.7,104.7c0,0-1.2,5.1-3.9,7.8c0-3.2-3.8-19.9-2.2-21.5c-2.2,0-2.9,7.9-2.9,12.5
			c-3.3,2.2-4.2,8.7-3.7,13.5c0.1,0.8-0.4,1.6-1.2,1.9c-1.8,0.7-4.3,1-6.6,1c-2.5,0-6.1-0.3-6.9-2.3c0.2,2.7,1.4,4.7,3.7,4.7
			c6.6,0,13.1,0,13.1,0h0c1.1,0,3.3,0,4.7,0c2.5,0,6.3-11.5,6.8-13.1C116.1,107.7,115.7,105.3,114.7,104.7z"/>
		<path class="st19" d="M90.5,105c-0.9,3.4,2.1,5,4.9,5c3.6,0,7-1.3,8.7-3c1.7-1.8,1.6-3.5,1.6-3.5l-7.5,2.2L90.5,105z"/>
		<path class="st20" d="M105.7,103.5c-1.9,0-13,0-14,0c-2.7,0-2.4,5.6,3.3,5.6C101.7,109,103.4,105.2,105.7,103.5z"/>
		<path class="st19" d="M96.4,108c0,0.3-0.5,0.5-1.2,0.5c-0.6,0-1.2-0.2-1.2-0.5c0-0.3,0.5-0.5,1.2-0.5
			C95.9,107.6,96.4,107.8,96.4,108z"/>
		<path class="st9" d="M104.9,115.1c0,0.6-0.4,1.1-0.9,1.1c-0.5,0-0.9-0.5-0.9-1.1c0-0.6,0.4-1.1,0.9-1.1
			C104.5,113.9,104.9,114.4,104.9,115.1z"/>
		<path class="st21" d="M105.6,118.2c0,0.5-0.3,0.8-0.6,0.8c-0.3,0-0.6-0.4-0.6-0.8c0-0.5,0.3-0.8,0.6-0.8
			C105.4,117.4,105.6,117.7,105.6,118.2z"/>
		<path class="st22" d="M100.4,117.2c0,0.6-0.5,1.1-1.1,1.1c-0.6,0-1.1-0.5-1.1-1.1c0-0.6,0.5-1.1,1.1-1.1
			C99.9,116.1,100.4,116.6,100.4,117.2z"/>
		<g>
			<path class="st23" d="M118.3,89.4c0.1-0.1,0.5,0.1,0.5,0.2c0,0,0,0,0,0c-0.1-1,0.1-2.5,0.6-2.6c0.3-0.1,0.5,0.5,0.6,1.3
				c2.3-2.1,5.4-6.8,4.3-7.8c-0.7-0.6-4,0.6-5.2,1.5c-5.8-1-15.4,4.3-15.5,6.3c0,0.6,0.9,1.6,5.3,1.1c-6.1,3.2-12.6,23.2-3.9,34.6
				c2.3,3.1,18.3-0.6,13.6-33.2C118.4,90.3,118,89.7,118.3,89.4z"/>
		</g>
		<g>
			<path class="st23" d="M138.2,197.6h2.2c0.2,0,0.3-0.2,0.1-0.3c-0.5-0.4-1.5-1.1-2.8-1.1C137.9,196.7,138,197.1,138.2,197.6z"/>
		</g>
		<g>
			<path class="st23" d="M102.7,197.6h2.2c0.2,0,0.3-0.2,0.1-0.3c-0.5-0.4-1.6-1.1-2-1.1C102.9,196.7,102.8,197.1,102.7,197.6z"/>
		</g>
		<path class="st24" d="M125.5,118.6c2.3-0.4,3.9-0.9,3.9-0.9c-1.8-8.4-4.9-12.7-4.9-12.7l-3.6-3.9C120.9,101.1,124,112,125.5,118.6
			z"/>
	</g>
	<linearGradient id="SVGID_8_" gradientUnits="userSpaceOnUse" x1="211.0834" y1="172.6217" x2="211.0834" y2="127.3865">
		<stop  offset="0" style="stop-color:#DBE4FF"/>
		<stop  offset="1" style="stop-color:#BAC8FF"/>
	</linearGradient>
	<path class="st25" d="M205.6,175.3c2.8-4.1,6.3-10.8,8.9-17.9c0,0.1,0,0.1,0,0.2c0,0,0,0.1,0,0.1c0,0.1,0,0.1,0,0.2
		c0,0,0,0.1,0,0.1c0,0.1,0,0.1,0,0.2c0,0,0,0,0,0.1c0,0.1,0,0.2,0,0.2c0,0,0,0,0,0.1c0,0.1,0,0.2,0,0.3v0c0.5,4.8,2.4,12.2,5.1,16.5
		c-2.6,0-5.5,0-8.6,0C209.2,175.3,207.3,175.3,205.6,175.3L205.6,175.3z M220.9,134.8L220.9,134.8l-0.1,0.2L220.9,134.8L220.9,134.8
		z M220.4,175.4c-0.1,0-0.3-0.1-0.3-0.1c1.2-9,0.5-21.8-1-31.8c0,0,0,0,0.1,0c0,0,0.1,0,0.1,0c0.1,0,0.2-0.1,0.3-0.1
		c0,0,0.1,0,0.1,0c0.1-0.1,0.3-0.1,0.4-0.2c0,0,0.1,0,0.1,0c0.1,0,0.2-0.1,0.3-0.1c0,0,0.1,0,0.1,0c0.2-0.1,0.5-0.3,0.7-0.4
		c0,0,0.1,0,0.1,0c0.1-0.1,0.2-0.1,0.3-0.2c0,0,0,0,0,0c0.1-0.1,0.2-0.1,0.3-0.2l0,0c0.1-0.1,0.2-0.1,0.3-0.2c0,0,0,0,0,0
		c0.2-0.2,0.4-0.3,0.5-0.5l0,0c0.1-0.1,0.2-0.2,0.2-0.2l0,0c0.2-0.2,0.3-0.4,0.4-0.5l0,0c0.1-0.2,0.3-0.4,0.4-0.6v0
		c0.9-1.6,1.1-3.3,1.1-4.5v0c0-0.1,0-0.1,0-0.2l0,0c0-0.1,0-0.1,0-0.2v0c0-0.1,0-0.2,0-0.3v0c0,0,0-0.1,0-0.1l0,0c0,0,0-0.1,0-0.1v0
		c0-0.1,0-0.2,0-0.2l0,0c0,0,0-0.1,0-0.1l0,0c0,0,0,0,0-0.1c0.1-0.2,0.1-0.5,0-0.7l1.5-1.8h0l-0.3-0.3c0,0,0,0-0.1,0h-2.4
		c0,0-0.1,0-0.1,0l-2.9,3.6c0,0,0,0.1,0,0.1l0.2,0.2h2.5c0,0,0.1,0,0.1,0l0.5-0.6c-0.7,2.9-2.7,3.9-4.7,4.1c-0.2,0-0.3,0-0.5,0
		c-0.1-0.6-0.2-1.1-0.2-1.7c0.3-1,0.3-2,0.1-3c0.8-2.4-1.1-4.3-2.8-4.9c0-0.2,0.1-0.5,0-0.9c0.5-0.6,0.8-1.7,0.7-1.8
		c-0.1-0.1-0.4-0.1-0.6,0c0.3-0.6,0.2-2.1-0.2-2.2c-0.3-0.1-1.1,0.9-1.4,1.5c-0.1-0.2-0.4-0.5-0.5-0.5c-0.1,0-0.5,0.8-0.5,1.6
		c-0.1-0.2-0.3-0.3-0.4-0.3c-0.1,0.1,0,1.3,1.2,1.9c0,0.1,0,0.2-0.1,0.2c-0.7-0.7-2.2-0.7-4.5-0.7c-2.1,0-6.9,3-8.5,9.7
		c-0.1,0-0.1,0-0.2,0.1l0,0c0,0-0.1,0.1-0.1,0.1c0,0,0,0-0.1,0c0,0-0.1,0.1-0.1,0.1c0,0-0.1,0.1-0.1,0.1l0,0
		c-0.1,0.1-0.1,0.1-0.2,0.2c-1,1.6-1.5,5.4-0.5,8.4c0.1,0.3,0.2,0.6,0.4,0.9l0,0c0.1,0.1,0.1,0.3,0.2,0.4l0,0
		c0.1,0.1,0.1,0.2,0.2,0.4c0,0,0,0,0,0c0.1,0.1,0.1,0.2,0.2,0.3c0,0,0,0,0,0.1c0.1,0.1,0.2,0.2,0.2,0.3c0,0,0,0.1,0.1,0.1
		c0.1,0.1,0.2,0.2,0.2,0.2c0,0,0.1,0.1,0.1,0.1c0.1,0.1,0.2,0.2,0.3,0.3l0,0c0.6,0.4,1.2,0.8,1.7,1c0.4,0.2,0.9,0.4,1.3,0.5
		c1.3,0.4,2.5,0.5,3.5,0.5c0,0,0,0.1,0,0.1c0,0.2,0,0.5,0,0.7c0,0.1,0,0.1,0,0.2c0,0.2,0,0.5,0,0.7c0,0.1,0,0.2,0,0.2
		c0,0.3,0,0.6,0,0.9c-1.2,1.9-4.5,13.2-3.3,20.5c-9.1,0.1-15.8,0.2-15.8,0.5c0,0.3,9.8,0.5,21.9,0.5s21.9-0.2,21.9-0.5
		C232.9,175.6,227.8,175.4,220.4,175.4L220.4,175.4z M226.2,131.3h-0.5H226.2L226.2,131.3z"/>
	<g>
		<g>
			<path class="st22" d="M110.7,34.2h35.4c1.8,0,2.9,1.5,2.4,3.3L141.9,62c-0.5,1.8-2.4,3.3-4.2,3.3h-35.4c-1.8,0-2.9-1.5-2.4-3.3
				l6.6-24.5C107,35.6,108.9,34.2,110.7,34.2z"/>
			<path class="st0" d="M118.4,54.3c0.5,0,1.1-0.4,1.2-1c0.1-0.5-0.2-1-0.7-1c-0.5,0-1.1,0.4-1.2,1
				C117.5,53.9,117.8,54.3,118.4,54.3L118.4,54.3z M127.6,54.3c0.5,0,1.1-0.4,1.2-1c0.1-0.5-0.2-1-0.7-1s-1.1,0.4-1.2,1
				C126.8,53.9,127.1,54.3,127.6,54.3L127.6,54.3z M120.1,41.1h3.7l0.2-0.6c0.1-0.3,0.4-0.6,0.7-0.6h4.3c0.3,0,0.5,0.3,0.4,0.6
				l-0.2,0.6h3.7c0.7,0,1.1,0.6,0.9,1.3l-1.2,4.4h0.6c0.3,0,0.5,0.3,0.4,0.6l-0.7,2.8c-0.1,0.3-0.4,0.6-0.7,0.6h-0.6l-1.2,4.4
				c-0.2,0.7-0.9,1.3-1.6,1.3l-0.6,2.4c-0.1,0.3-0.4,0.6-0.7,0.6h-1.9c-0.3,0-0.5-0.3-0.4-0.6l0.6-2.4H119l-0.6,2.4
				c-0.1,0.3-0.4,0.6-0.7,0.6h-1.9c-0.3,0-0.5-0.3-0.4-0.6l0.6-2.4c-0.7,0-1.1-0.6-0.9-1.3l1.2-4.4h-0.6c-0.3,0-0.5-0.3-0.4-0.6
				l0.7-2.8c0.1-0.3,0.4-0.6,0.7-0.6h0.6l1.2-4.4C118.7,41.7,119.4,41.1,120.1,41.1L120.1,41.1z M120.7,43.2c-0.2,0-0.3,0.1-0.4,0.3
				l-1.9,6.9c0,0.2,0.1,0.3,0.2,0.3h10.6c0.2,0,0.3-0.1,0.4-0.3l1.9-6.9c0-0.2-0.1-0.3-0.2-0.3H120.7z"/>
		</g>
		<path class="st22" d="M117,65.2h3.1h3.1l16.9,13.7c0.1,0.1,0.1,0.2,0,0.3c-0.1,0.1-0.2,0.1-0.3,0.1L117,65.2z"/>
	</g>
	<g>
		<path class="st15" d="M215.3,77.6h-34.2c-1.7,0-3.5,1.4-4,3.2l-6.3,23.7c-0.5,1.7,0.6,3.2,2.3,3.2h34.2c1.7,0,3.5-1.4,4-3.2
			l6.3-23.7C218.1,79,217,77.6,215.3,77.6z"/>
		<path class="st0" d="M199.1,96.3c0.7,0,1.1,0.5,0.9,1.2c-0.2,0.7-0.9,1.2-1.5,1.2s-1.1-0.5-0.9-1.2
			C197.8,96.9,198.5,96.3,199.1,96.3L199.1,96.3z M203.7,83.2H202c-0.3,0-0.6,0.2-0.6,0.5l-0.5,1.7c-0.1,0.3,0.1,0.5,0.4,0.5h1.7
			c0.3,0,0.6-0.2,0.6-0.5l0.5-1.7C204.1,83.4,204,83.2,203.7,83.2L203.7,83.2z M191.4,83.2h-1.7c-0.3,0-0.6,0.2-0.6,0.5l-0.5,1.7
			c-0.1,0.3,0.1,0.5,0.4,0.5h1.7c0.3,0,0.6-0.2,0.6-0.5l0.5-1.7C191.8,83.4,191.7,83.2,191.4,83.2L191.4,83.2z M190.8,88.5
			c-0.1,0.3,0.1,0.5,0.4,0.5h1.7c0.3,0,0.6-0.2,0.6-0.5l0.5-1.7c0.1-0.3-0.1-0.5-0.4-0.5h-1.7c-0.3,0-0.6,0.2-0.6,0.5L190.8,88.5
			L190.8,88.5z M197.5,83.2h-1.7c-0.3,0-0.6,0.2-0.6,0.5l-0.5,1.7c-0.1,0.3,0.1,0.5,0.4,0.5h1.7c0.3,0,0.6-0.2,0.6-0.5l0.5-1.7
			C198,83.4,197.8,83.2,197.5,83.2L197.5,83.2z M196.9,88.5c-0.1,0.3,0.1,0.5,0.4,0.5h1.7c0.3,0,0.6-0.2,0.6-0.5l0.5-1.7
			c0.1-0.3-0.1-0.5-0.4-0.5h-1.7c-0.3,0-0.6,0.2-0.6,0.5L196.9,88.5L196.9,88.5z M190,91.2c-0.7,0-1.5,0.6-1.7,1.3l-0.7,2.6h-0.1
			c-1.4,0-2.8,1.1-3.2,2.5c-0.3,1.1,0.2,2.1,1.1,2.4l-0.4,1.5c-0.1,0.3,0.1,0.5,0.4,0.5h1.8c0.3,0,0.6-0.2,0.7-0.5l0.4-1.4h7.6
			l-0.4,1.4c-0.1,0.3,0.1,0.5,0.4,0.5h1.8c0.3,0,0.6-0.2,0.7-0.5l0.4-1.5c1.1-0.3,2.1-1.3,2.4-2.4c0.4-1.4-0.5-2.5-1.8-2.5h-0.1
			l0.7-2.6c0.2-0.7-0.2-1.3-1-1.3h-1.9l0.1-0.6c0.1-0.3-0.1-0.5-0.4-0.5h-4.2c-0.3,0-0.6,0.2-0.7,0.5l-0.1,0.6H190L190,91.2z
			 M198.1,95.1h-9.1l0.7-2.6c0,0,0-0.1,0.1-0.1h9c0,0,0,0,0,0.1L198.1,95.1L198.1,95.1z M187.2,96.3c0.7,0,1.1,0.5,0.9,1.2
			c-0.2,0.7-0.9,1.2-1.5,1.2c-0.7,0-1.1-0.5-0.9-1.2C185.8,96.9,186.5,96.3,187.2,96.3L187.2,96.3z M195.6,96.3
			c0.7,0,1.1,0.5,0.9,1.2c-0.2,0.7-0.9,1.2-1.5,1.2H190c-0.7,0-1.1-0.5-0.9-1.2c0.2-0.7,0.9-1.2,1.5-1.2H195.6z"/>
	</g>
	<path class="st22" d="M153.8,135.8c-1.1,0-2.1,0.9-2.1,2.1c0,1,1.5,2.9,1.9,3.4c0,0,0.1,0.1,0.1,0.1c0.1,0,0.1,0,0.1-0.1
		c0.4-0.5,1.9-2.4,1.9-3.4C155.9,136.8,155,135.8,153.8,135.8L153.8,135.8z M153.8,139L153.8,139c-0.6,0-1.1-0.5-1.1-1.1
		c0-0.6,0.5-1.1,1.1-1.1c0.6,0,1.1,0.5,1.1,1.1C154.9,138.5,154.4,139,153.8,139z"/>
	<path class="st26" d="M161.4,111.8c-1.5,0-2.7,1.2-2.7,2.7c0,1.3,2,3.8,2.6,4.5c0,0.1,0.1,0.1,0.2,0.1c0.1,0,0.1,0,0.2-0.1
		c0.6-0.7,2.6-3.2,2.6-4.5C164.2,113,162.9,111.8,161.4,111.8L161.4,111.8z M161.4,116L161.4,116c-0.8,0-1.4-0.6-1.4-1.4
		c0-0.8,0.6-1.4,1.4-1.4c0.8,0,1.4,0.6,1.4,1.4C162.9,115.3,162.2,116,161.4,116z"/>
	<g>
		<path class="st27" d="M147.4,73.7c-3.4,0-6.2,2.8-6.2,6.2c0,3,4.8,9,6,10.4c0.1,0.1,0.1,0.1,0.2,0.1c0.1,0,0.2,0,0.2-0.1
			c1.1-1.4,6-7.4,6-10.4C153.6,76.4,150.8,73.7,147.4,73.7L147.4,73.7z M147.4,83.1L147.4,83.1c-1.8,0-3.3-1.5-3.3-3.3
			c0-1.8,1.5-3.3,3.3-3.3c1.8,0,3.3,1.5,3.3,3.3C150.7,81.7,149.2,83.1,147.4,83.1z"/>
		<g>
			<path class="st28" d="M155.5,134.7c-0.1,0-0.2,0-0.2-0.1c-0.2-0.1-0.2-0.4,0-0.5l0.5-0.6c0.1-0.2,0.4-0.2,0.5,0
				c0.2,0.1,0.2,0.4,0,0.5l-0.5,0.6C155.7,134.7,155.6,134.7,155.5,134.7z"/>
			<path class="st28" d="M157.6,132.2c-0.1,0-0.2,0-0.2-0.1c-0.2-0.1-0.2-0.4,0-0.5l1-1.1c0.1-0.2,0.4-0.2,0.5,0
				c0.2,0.1,0.2,0.4,0,0.5l-1,1.1C157.8,132.2,157.7,132.2,157.6,132.2z M160.2,129.2c-0.1,0-0.2,0-0.2-0.1c-0.2-0.1-0.2-0.4,0-0.5
				l1-1.1c0.1-0.2,0.4-0.2,0.5,0c0.2,0.1,0.2,0.4,0,0.5l-1,1.1C160.4,129.1,160.3,129.2,160.2,129.2z M162.8,126.1
				c-0.1,0-0.2,0-0.2-0.1c-0.2-0.1-0.2-0.4,0-0.5l1-1.1c0.1-0.2,0.4-0.2,0.5,0c0.2,0.1,0.2,0.4,0,0.5l-1,1.1
				C163,126,162.9,126.1,162.8,126.1z M165.4,123c-0.1,0-0.2,0-0.2-0.1c-0.2-0.1-0.2-0.4,0-0.5l1-1.1c0.1-0.2,0.4-0.2,0.5,0
				c0.2,0.1,0.2,0.4,0,0.5l-1,1.1C165.6,123,165.5,123,165.4,123z M168,120c-0.1,0-0.2,0-0.2-0.1c-0.2-0.1-0.2-0.4,0-0.5l1-1.1
				c0.1-0.2,0.4-0.2,0.5,0c0.2,0.1,0.2,0.4,0,0.5l-1,1.1C168.2,119.9,168.1,120,168,120z"/>
			<path class="st28" d="M170.6,116.9c-0.1,0-0.2,0-0.2-0.1c-0.2-0.1-0.2-0.4,0-0.5l0.2-0.3l-0.3-0.2c-0.2-0.1-0.2-0.4-0.1-0.5
				c0.1-0.2,0.4-0.2,0.5-0.1l0.7,0.5c0.1,0.1,0.1,0.2,0.2,0.3c0,0.1,0,0.2-0.1,0.3l-0.5,0.6C170.8,116.8,170.7,116.9,170.6,116.9z"
				/>
			<path class="st28" d="M168.3,114.4c-0.1,0-0.1,0-0.2-0.1l-1.3-0.9c-0.2-0.1-0.2-0.4-0.1-0.5c0.1-0.2,0.4-0.2,0.5-0.1l1.3,0.9
				c0.2,0.1,0.2,0.4,0.1,0.5C168.6,114.3,168.4,114.4,168.3,114.4z M164.9,112.1c-0.1,0-0.1,0-0.2-0.1l-1.3-0.9
				c-0.2-0.1-0.2-0.4-0.1-0.5c0.1-0.2,0.4-0.2,0.5-0.1l1.3,0.9c0.2,0.1,0.2,0.4,0.1,0.5C165.2,112,165,112.1,164.9,112.1z
				 M161.5,109.7c-0.1,0-0.1,0-0.2-0.1l-1.3-0.9c-0.2-0.1-0.2-0.4-0.1-0.5c0.1-0.2,0.4-0.2,0.5-0.1l1.3,0.9c0.2,0.1,0.2,0.4,0.1,0.5
				C161.8,109.7,161.7,109.7,161.5,109.7z M158.1,107.4c-0.1,0-0.1,0-0.2-0.1l-1.3-0.9c-0.2-0.1-0.2-0.4-0.1-0.5
				c0.1-0.2,0.4-0.2,0.5-0.1l1.3,0.9c0.2,0.1,0.2,0.4,0.1,0.5C158.4,107.4,158.3,107.4,158.1,107.4z M154.7,105.1
				c-0.1,0-0.1,0-0.2-0.1l-1.3-0.9c-0.2-0.1-0.2-0.4-0.1-0.5c0.1-0.2,0.4-0.2,0.5-0.1l1.3,0.9c0.2,0.1,0.2,0.4,0.1,0.5
				C155,105,154.9,105.1,154.7,105.1z M151.4,102.8c-0.1,0-0.1,0-0.2-0.1l-1.3-0.9c-0.2-0.1-0.2-0.4-0.1-0.5
				c0.1-0.2,0.4-0.2,0.5-0.1l1.3,0.9c0.2,0.1,0.2,0.4,0.1,0.5C151.6,102.7,151.5,102.8,151.4,102.8z"/>
			<path class="st28" d="M148,100.5c-0.1,0-0.1,0-0.2-0.1l-0.7-0.5c-0.1-0.1-0.1-0.2-0.2-0.3c0-0.1,0-0.2,0.1-0.3l0.5-0.6
				c0.1-0.2,0.4-0.2,0.5,0c0.2,0.1,0.2,0.4,0,0.5l-0.2,0.3l0.3,0.2c0.2,0.1,0.2,0.4,0.1,0.5C148.2,100.4,148.1,100.5,148,100.5z"/>
			<path class="st28" d="M149.9,97c-0.1,0-0.2,0-0.2-0.1c-0.2-0.1-0.2-0.4,0-0.5l1.2-1.5c0.1-0.2,0.4-0.2,0.5,0
				c0.2,0.1,0.2,0.4,0,0.5l-1.2,1.5C150.1,96.9,150,97,149.9,97z"/>
			<path class="st28" d="M153.1,93.1c-0.1,0-0.2,0-0.2-0.1c-0.2-0.1-0.2-0.4,0-0.5l0.5-0.6c0.1-0.2,0.4-0.2,0.5,0
				c0.2,0.1,0.2,0.4,0,0.5l-0.5,0.6C153.4,93.1,153.3,93.1,153.1,93.1z"/>
		</g>
	</g>
</g>
</svg>
