<svg xmlns="http://www.w3.org/2000/svg" viewBox="0 0 48 48" width="96px" height="96px"><path fill="#43A047" d="M21,38C18,35,8,23.3,8,15S15.7,2,24,2s16,4.7,16,13s-9.9,19.9-13,23H21z"/><path fill="#FDD835" d="M24 2c0 0-10 2.9-10 13s9 23 9 23h1c0 0-4-12-4-23S24 2 24 2zM24 2c0 0 4 2.2 4 13s-4 23-4 23h1c0 0 9-13 9-23S24 2 24 2z"/><path fill="#FFB300" d="M20.1,18c-2,1.3-4,1.4-5.9,0c-0.2-1-0.3-2-0.3-3c0-1.1,0.1-2.1,0.3-3c1.8,1.4,3.8,1.3,5.8,0C20,12.9,20,13.9,20,15C20,16,20,17,20.1,18z M33.7,12c-1.8,1.4-3.8,1.3-5.8,0c0.1,0.9,0.1,1.9,0.1,3c0,1,0,2-0.1,3c2,1.3,4,1.4,5.9,0c0.2-1,0.3-2,0.3-3C34,13.9,33.9,12.9,33.7,12z"/><path fill="#2E7D32" d="M39.6,18c-1.2,1.6-4,1-5.9,0c0.2-1,0.3-2,0.3-3c0-1.1-0.1-2.1-0.3-3c3,1.4,5.5,1.3,6,0c0.2,0.9,0.3,1.9,0.3,3C40,16,39.9,17,39.6,18z M14.3,12c-1.9,1-4.8,1.6-6,0C8.1,12.9,8,13.9,8,15c0,1,0.1,2,0.4,3c1.2,1.6,4,1,5.9,0c-0.2-1-0.3-2-0.3-3C14,13.9,14.1,12.9,14.3,12z M20,15c0,1,0,2,0.1,3c2.6,1.3,5.2,1.3,7.8,0c0.1-1,0.1-2,0.1-3c0-1.1,0-2.1-0.1-3c-2.6,1.3-5.2,1.3-7.8,0C20,12.9,20,13.9,20,15z"/><path fill="#CFD8DC" d="M21,37h2v4h-2V37z M25,37v4h2v-4H25z"/><path fill="#FB8C00" d="M21,40v4c0,0.5,0.5,1,1,1h4c0.5,0,1-0.5,1-1v-4H21z"/><path fill="#5D4037" d="M18.3,35c1.1,1.3,2.1,2.4,2.7,3h6c0.7-0.7,1.6-1.7,2.7-3H18.3z"/></svg>