<svg xmlns="http://www.w3.org/2000/svg" viewBox="0 0 128 128" width="64px" height="64px"><path fill="#fff" d="M64 14A50 50 0 1 0 64 114A50 50 0 1 0 64 14Z"/><path fill="#444b54" d="M64,117c-29.2,0-53-23.8-53-53s23.8-53,53-53s53,23.8,53,53S93.2,117,64,117z M64,17c-25.9,0-47,21.1-47,47s21.1,47,47,47s47-21.1,47-47S89.9,17,64,17z"/><path fill="#444b54" d="M80 67H55c-1.7 0-3-1.3-3-3s1.3-3 3-3h25c1.7 0 3 1.3 3 3S81.7 67 80 67zM45 67c-.2 0-.4 0-.6-.1-.2 0-.4-.1-.6-.2-.2-.1-.3-.2-.5-.3-.2-.1-.3-.2-.5-.4C42.3 65.6 42 64.8 42 64s.3-1.6.9-2.1c.1-.1.3-.3.4-.4.2-.1.3-.2.5-.3.2-.1.4-.1.6-.2 1-.2 2 .1 2.7.8.6.6.9 1.3.9 2.1s-.3 1.6-.9 2.1c-.1.1-.3.3-.5.4-.2.1-.3.2-.5.3-.2.1-.4.1-.6.2C45.4 67 45.2 67 45 67z"/><path fill="#444b54" d="M70,77c-0.8,0-1.5-0.3-2.1-0.9c-1.2-1.2-1.2-3.1,0-4.2l7.9-7.9l-7.9-7.9c-1.2-1.2-1.2-3.1,0-4.2c1.2-1.2,3.1-1.2,4.2,0l10,10c1.2,1.2,1.2,3.1,0,4.2l-10,10C71.5,76.7,70.8,77,70,77z"/></svg>