<svg xmlns="http://www.w3.org/2000/svg" viewBox="0 0 128 128" width="64px" height="64px"><path fill="#fff" d="M22,19v90c0,5.5,4.5,10,10,10h63.8c5.5,0,10-4.5,10-10l0.1-80C106,18,97,9,86,9H32C26.5,9,22,13.5,22,19z"/><path fill="#71c2ff" d="M64,87c-1.7,0-3-1.3-3-3V53c0-1.7,1.3-3,3-3s3,1.3,3,3v31C67,85.7,65.7,87,64,87z"/><path fill="#71c2ff" d="M76 56H52c-1.7 0-3-1.3-3-3s1.3-3 3-3h24c1.7 0 3 1.3 3 3S77.7 56 76 56zM76 122H37c-1.7 0-3-1.3-3-3s1.3-3 3-3h39c1.7 0 3 1.3 3 3S77.7 122 76 122zM91 122c-.8 0-1.6-.3-2.1-.9-.6-.6-.9-1.3-.9-2.1s.3-1.6.9-2.1c1.1-1.1 3.1-1.1 4.2 0 .6.6.9 1.3.9 2.1s-.3 1.6-.9 2.1C92.6 121.7 91.8 122 91 122zM91 107H37c-1.7 0-3-1.3-3-3s1.3-3 3-3h54c1.7 0 3 1.3 3 3S92.7 107 91 107z"/><g><path fill="#444b54" d="M105.8 107c1.7 0 3-1.3 3-3l.1-62c0-1.7-1.3-3-3-3 0 0 0 0 0 0-1.7 0-3 1.3-3 3l-.1 62C102.8 105.7 104.2 107 105.8 107 105.8 107 105.8 107 105.8 107zM109 28.6c-.1-6-2.5-11.6-6.7-15.9C97.9 8.4 92.2 6 86 6c0 0 0 0 0 0 0 0 0 0 0 0 0 0 0 0 0 0H32c-7.2 0-13 5.8-13 13v85c0 1.7 1.3 3 3 3s3-1.3 3-3V19c0-3.9 3.1-7 7-7h51l0 7c0 7.2 5.8 13 13 13h9.6c.1 0 .2 0 .4 0 0 0 0 0 0 0 1.2 0 2.3-.8 2.8-1.8.2-.4.3-.8.3-1.2C109 28.9 109 28.8 109 28.6zM89 19l0-6.7c3.4.6 6.5 2.2 9 4.7 2.5 2.5 4.1 5.6 4.7 9H96C92.1 26 89 22.9 89 19z"/></g></svg>