<svg xmlns="http://www.w3.org/2000/svg" viewBox="0 0 128 128" width="64px" height="64px"><path fill="#fff" d="M76 114H116V127H76z"/><path fill="#71c2ff" d="M13 1A10 10 0 1 0 13 21 10 10 0 1 0 13 1zM43 1c-5.5 0-10 4.5-10 10 0 5.5 4.5 10 10 10h30V1H43z"/><path fill="#444b54" d="M116,127c-1.7,0-3-1.3-3-3v-7H79v7c0,1.7-1.3,3-3,3s-3-1.3-3-3v-10c0-1.7,1.3-3,3-3h40c1.7,0,3,1.3,3,3v10C119,125.7,117.7,127,116,127z"/><path fill="#fff" d="M119.7,104c1.5-4.1,2.3-8.4,2.3-12.8V61.3c0-4.8-3.5-9-8.2-9.8l-28.9-5.2c-2.9-0.5-4.9-3-4.9-5.9L80,11c0-3.9-3.1-7-7-7h0c-3.9,0-7,3.1-7,7v56.1c0,3.3-3.3,5.6-6.4,4.4l0,0c-3.5-1.4-7-2.5-10.6-3.2c-1.3-0.3-2.6-0.5-3.9-0.7l-4-0.6c-4.4-0.6-8.4,2.5-9,6.8c-0.6,4.4,2.5,8.4,6.8,9l4,0.6C56.4,85.3,68.4,92.8,76,104"/><path fill="#444b54" d="M119.7,107c-0.3,0-0.7-0.1-1.1-0.2c-1.6-0.6-2.3-2.3-1.8-3.9c1.4-3.8,2.1-7.7,2.1-11.8V61.3c0-3.4-2.4-6.3-5.7-6.9l-28.9-5.2c-4.3-0.8-7.4-4.5-7.4-8.9V11c0-2.2-1.8-4-4-4s-4,1.8-4,4v56.1c0,2.5-1.3,4.9-3.4,6.3c-2.1,1.4-4.8,1.7-7.1,0.8c-3.6-1.4-7-2.4-10.1-3.1c-1.2-0.2-2.5-0.5-3.7-0.6l-4-0.6c-1.3-0.2-2.6,0.2-3.7,1c-1.1,0.8-1.8,2-1.9,3.3c-0.2,1.3,0.2,2.6,1,3.7c0.8,1.1,2,1.8,3.3,1.9l4,0.6c14.2,2,27,9.9,35.2,21.8c0.9,1.4,0.6,3.2-0.8,4.2c-1.4,0.9-3.2,0.6-4.2-0.8c-7.2-10.5-18.5-17.5-31-19.2l-4-0.6c-2.9-0.4-5.5-1.9-7.3-4.3c-1.8-2.3-2.5-5.2-2.1-8.1c0.4-2.9,1.9-5.5,4.3-7.3c2.3-1.8,5.2-2.5,8.1-2.1l4,0.6c1.4,0.2,2.7,0.4,4.1,0.7c3.5,0.7,7.2,1.8,11.1,3.4c0.7,0.3,1.3,0,1.6-0.2c0.2-0.2,0.7-0.6,0.7-1.4V11c0-5.5,4.5-10,10-10s10,4.5,10,10v29.4c0,1.5,1,2.7,2.5,3l28.9,5.2c6.2,1.1,10.7,6.5,10.7,12.8v29.9c0,4.7-0.8,9.4-2.5,13.9C122,106.3,120.9,107,119.7,107z"/></svg>