<svg id="f047582e-ab7e-428a-aefb-6e8e6ccab74a" data-name="Layer 1" xmlns="http://www.w3.org/2000/svg" width="64" height="64" viewBox="0 0 64 64"><path d="M57,48.75v-35a5.0147,5.0147,0,0,0-5-5H12a5.0147,5.0147,0,0,0-5,5v35H2v1.5a5.0147,5.0147,0,0,0,5,5H57a5.0147,5.0147,0,0,0,5-5v-1.5Z" fill="#fff"/><path d="M37,50.25H27a1.5,1.5,0,0,1,0-3H37a1.5,1.5,0,0,1,0,3Z" fill="#444b54"/><path d="M57,56.75H7a6.487,6.487,0,0,1-6.5-6.5v-1.5A1.4732,1.4732,0,0,1,2,47.25H19.5a1.5,1.5,0,0,1,0,3H3.5A3.4785,3.4785,0,0,0,7,53.75H57a3.4785,3.4785,0,0,0,3.5-3.5h-16a1.5,1.5,0,0,1,0-3H62a1.4732,1.4732,0,0,1,1.5,1.5v1.5A6.487,6.487,0,0,1,57,56.75Z" fill="#444b54"/><path d="M57,44.75a1.4732,1.4732,0,0,1-1.5-1.5V13.75a3.4785,3.4785,0,0,0-3.5-3.5H12a3.4785,3.4785,0,0,0-3.5,3.5v29.5a1.5,1.5,0,0,1-3,0V13.75A6.487,6.487,0,0,1,12,7.25H52a6.487,6.487,0,0,1,6.5,6.5v29.5A1.4732,1.4732,0,0,1,57,44.75Z" fill="#444b54"/><path d="M45.7316,36.5785l-4.8-4.8,3.8-.85a1.4885,1.4885,0,0,0,1.15-1.4,1.56,1.56,0,0,0-1.1-1.5l-11.05-3.15a1.43,1.43,0,0,0-1.45.4,1.4582,1.4582,0,0,0-.4,1.45l3.15,11a1.5,1.5,0,0,0,1.45,1.1h.05a1.4448,1.4448,0,0,0,1.4-1.15l.85-3.75,4.8,4.8a1.45,1.45,0,0,0,2.1,0A1.4683,1.4683,0,0,0,45.7316,36.5785Z" fill="#444b54"/></svg>