<svg fill="#ffffff" xmlns="http://www.w3.org/2000/svg" viewBox="0 0 48 48" width="96px" height="96px"><path fill="none" stroke="#ffffff" stroke-linecap="round" stroke-linejoin="round" stroke-miterlimit="10" stroke-width="3" d="M41.5,11.5v25c0,2.209-1.791,4-4,4h-27c-2.209,0-4-1.791-4-4v-25c0-2.209,1.791-4,4-4h27C39.709,7.5,41.5,9.291,41.5,11.5z"/><rect width="7" height="14" x="28.5" y="20.5" fill="none" stroke="#ffffff" stroke-linecap="round" stroke-linejoin="round" stroke-miterlimit="10" stroke-width="3"/><rect width="10" height="8" x="12.5" y="20.5" fill="none" stroke="#ffffff" stroke-linecap="round" stroke-linejoin="round" stroke-miterlimit="10" stroke-width="3"/><line x1="12.5" x2="22.5" y1="34.5" y2="34.5" fill="none" stroke="#ffffff" stroke-linecap="round" stroke-linejoin="round" stroke-miterlimit="10" stroke-width="3"/><path d="M37.5,6h-27C7.468,6,5,8.468,5,11.5v2C5,14.328,5.672,15,6.5,15h35c0.828,0,1.5-0.672,1.5-1.5v-2C43,8.468,40.532,6,37.5,6z M10.5,12C9.672,12,9,11.328,9,10.5S9.672,9,10.5,9S12,9.672,12,10.5S11.328,12,10.5,12z M15.5,12c-0.828,0-1.5-0.672-1.5-1.5	S14.672,9,15.5,9S17,9.672,17,10.5S16.328,12,15.5,12z M37.5,12h-16c-0.828,0-1.5-0.672-1.5-1.5S20.672,9,21.5,9h16	c0.828,0,1.5,0.672,1.5,1.5S38.328,12,37.5,12z"/></svg>