<svg fill="#ffffff" xmlns="http://www.w3.org/2000/svg" viewBox="0 0 32 32" width="64px" height="64px"><path d="M 6.7070312 3.2929688 L 5.2929688 4.7070312 L 7.7070312 7.1210938 C 7.8947265 7.308789 8 7.5635338 8 7.828125 L 8 22.173828 C 7.5048156 22.337676 7.0684471 22.604882 6.7519531 22.960938 C 6.2353472 23.542119 6 24.277778 6 25 C 6 25.722222 6.2353472 26.457882 6.7519531 27.039062 C 7.268559 27.620244 8.0833335 28 9 28 C 9.9166665 28 10.731441 27.620244 11.248047 27.039062 C 11.523973 26.728646 11.715442 26.372969 11.837891 26 L 20.162109 26 C 20.284558 26.372969 20.476027 26.728646 20.751953 27.039062 C 21.268559 27.620244 22.083334 28 23 28 C 23.916666 28 24.731441 27.620244 25.248047 27.039062 C 25.764653 26.457881 26 25.722222 26 25 C 26 24.277778 25.764653 23.542118 25.248047 22.960938 C 24.931553 22.604882 24.495184 22.337676 24 22.173828 L 24 11 L 10 11 L 10 7.828125 C 10 7.0327162 9.6833984 6.2693361 9.1210938 5.7070312 L 6.7070312 3.2929688 z M 10 13 L 22 13 L 22 22.173828 C 21.504816 22.337676 21.068447 22.604882 20.751953 22.960938 C 20.476027 23.271354 20.284558 23.627031 20.162109 24 L 11.837891 24 C 11.715442 23.627031 11.523973 23.271354 11.248047 22.960938 C 10.931553 22.604882 10.495184 22.337676 10 22.173828 L 10 13 z M 14 15 L 14 17 L 18 17 L 18 15 L 14 15 z M 9 24 C 9.4166663 24 9.6018927 24.120244 9.7519531 24.289062 C 9.9020136 24.457881 10 24.722222 10 25 C 10 25.277778 9.9020136 25.542118 9.7519531 25.710938 C 9.6018927 25.879756 9.4166663 26 9 26 C 8.5833337 26 8.3981073 25.879756 8.2480469 25.710938 C 8.0979864 25.542119 8 25.277778 8 25 C 8 24.722222 8.0979864 24.457882 8.2480469 24.289062 C 8.3981073 24.120244 8.5833337 24 9 24 z M 23 24 C 23.416666 24 23.601893 24.120244 23.751953 24.289062 C 23.902014 24.457881 24 24.722222 24 25 C 24 25.277778 23.90201 25.542118 23.751953 25.710938 C 23.601893 25.879756 23.416666 26 23 26 C 22.583334 26 22.398107 25.879756 22.248047 25.710938 C 22.097986 25.542119 22 25.277778 22 25 C 22 24.722222 22.097986 24.457882 22.248047 24.289062 C 22.398107 24.120244 22.583334 24 23 24 z"/></svg>