<svg fill="#ffffff" xmlns="http://www.w3.org/2000/svg" viewBox="0 0 32 32" width="64px" height="64px"><path d="M 23 4.53125 L 23 19.5625 C 22.410156 19.222656 21.730469 19 21 19 C 18.789063 19 17 20.789063 17 23 C 17 25.210938 18.789063 27 21 27 C 23.210938 27 25 25.210938 25 23 L 25 7.5 L 28.625 8.9375 L 29.375 7.0625 L 24.375 5.0625 Z M 5 5 L 5 7 L 21 7 L 21 5 Z M 5 10 L 5 12 L 21 12 L 21 10 Z M 5 15 L 5 17 L 21 17 L 21 15 Z M 5 20 L 5 22 L 15.09375 22 C 15.214844 21.28125 15.460938 20.609375 15.8125 20 Z M 5 25 L 5 27 L 16.53125 27 C 16.011719 26.421875 15.609375 25.746094 15.34375 25 Z"/></svg>