<?xml version="1.0" encoding="utf-8"?>
<!-- Generator: Adobe Illustrator 24.1.3, SVG Export Plug-In . SVG Version: 6.00 Build 0)  -->
<svg version="1.1" id="Layer_1" xmlns="http://www.w3.org/2000/svg" xmlns:xlink="http://www.w3.org/1999/xlink" x="0px" y="0px"
	 viewBox="0 0 165 110" style="enable-background:new 0 0 165 110;" xml:space="preserve">
<style type="text/css">
	.st0{opacity:0.25;}
	.st1{fill:#FFFFFF;}
	.st2{fill-rule:evenodd;clip-rule:evenodd;fill:#FFFFFF;}
</style>
<g class="st0">
	<polygon class="st1" points="61.3,38.3 67.7,38.3 57.2,71.4 49.3,71.4 38.5,38.5 45,38.5 53.4,63.8 	"/>
	<rect x="61.3" y="38.3" class="st2" width="59.5" height="5.7"/>
	<path class="st1" d="M68.7,71.4h-5.8l6.5-22.4h6l6.5,22.4H76l-0.7-2.9h-5.9L68.7,71.4z M74.3,63.7l-2-8l-1.9,8H74.3z"/>
	<polygon class="st1" points="89.4,48.9 95.9,61.1 95.7,56 95.7,48.9 101.4,48.9 101.4,71.4 95.8,71.4 89.3,59.2 89.6,64.3 
		89.6,71.4 83.9,71.4 83.9,48.9 	"/>
	<path class="st1" d="M119.9,55.4h-5.6c-0.1-0.7-0.4-1.2-0.9-1.5c-0.3-0.3-0.8-0.5-1.5-0.5c-1.3,0-2,0.4-2,1.3
		c0,0.8,1.2,1.6,3.5,2.3c4.6,1.4,6.9,3.7,6.9,7.1c-0.1,5-2.9,7.5-8.4,7.6c-4.8-0.2-7.5-2.7-8.1-7.3h5.7c0.2,0.8,0.5,1.4,1,1.8
		c0.5,0.3,1,0.5,1.7,0.5c1.7,0,2.6-0.5,2.6-1.6c0-0.9-1.1-1.7-3.4-2.3c-4.7-1.4-7-3.8-7-7.3c0.1-4.6,2.7-7,7.8-7.2
		C116.7,48.4,119.3,50.8,119.9,55.4z"/>
	<path class="st1" d="M126.2,48.3h-0.3c0,1-0.8,1.8-1.8,1.8c-1,0-1.8-0.8-1.8-1.8c0-1,0.8-1.8,1.8-1.8c1,0,1.8,0.8,1.8,1.8H126.2
		h0.3c0-1.3-1-2.3-2.3-2.3c-1.3,0-2.3,1-2.3,2.3c0,1.3,1,2.3,2.3,2.3c1.3,0,2.3-1,2.3-2.3H126.2z"/>
	<path class="st1" d="M125.4,49.5L125.4,49.5l-0.6,0.1l-0.9-1.1l-0.2,0v0.7c0,0.2,0.1,0.3,0.3,0.3v0.1h-1v-0.1
		c0.3,0,0.4-0.1,0.3-0.4v-1.6c0-0.2-0.1-0.3-0.3-0.3v-0.1h1c0.6,0,0.9,0.2,0.9,0.6c0,0.3-0.2,0.6-0.7,0.6l0.8,0.9
		C125.2,49.4,125.3,49.5,125.4,49.5z M123.7,47.4v0.9c0.6,0,0.9-0.2,0.9-0.5c0-0.3-0.2-0.5-0.6-0.5
		C123.8,47.2,123.7,47.3,123.7,47.4z"/>
</g>
</svg>
