<svg fill="#ffffff" xmlns="http://www.w3.org/2000/svg" viewBox="0 0 30 30" width="90px" height="90px"><path d="M 5 4 C 3.3550302 4 2 5.3550302 2 7 L 2 20 C 2 20.768584 2.3041249 21.466647 2.7871094 22 L 0 22 C 0 23.657 1.343 25 3 25 L 7 25 L 7 22 L 7 21 L 5 21 C 4.4349698 21 4 20.56503 4 20 L 4 7 C 4 6.4349698 4.4349698 6 5 6 L 25 6 L 25 4 L 5 4 z M 18 8 C 16.897 8 16 8.897 16 10 L 16 11 L 18 11 L 18 10 L 28 10 L 28 23 L 24 23 C 24 23.552 23.552 24 23 24 C 22.448 24 22 23.552 22 23 L 21 23 L 21 26 L 28 26 C 29.103 26 30 25.103 30 24 L 30 10 C 30 8.897 29.103 8 28 8 L 18 8 z M 11 13 C 9.895 13 9 13.895 9 15 L 9 25 C 9 26.105 9.895 27 11 27 L 17 27 C 18.105 27 19 26.105 19 25 L 19 15 C 19 13.895 18.105 13 17 13 L 11 13 z M 11 15 L 17 15 L 17 25 L 15 25 C 15 25.552 14.537 26 14 26 C 13.463 26 13 25.552 13 25 L 11 25 L 11 15 z"/></svg>