<svg xmlns="http://www.w3.org/2000/svg" viewBox="0 0 128 128" width="64px" height="64px"><path fill="#E1ECE7" d="M104,49c0-23-19.5-41.5-42.8-39.9C41.1,10.5,25,27,24.1,47C23.4,61.3,30.2,74,40.8,81.6C46,85.3,49,91.3,49,97.7V109h30V97.7c0-6.5,3.2-12.5,8.5-16.3C97.5,74.2,104,62.3,104,49z"/><path fill="#A1C4B7" d="M64,48.6V81c0,11.2,5.6,21.7,15,28l0,0V97.7c0-6.5,3.2-12.5,8.5-16.3C97.5,74.2,104,62.3,104,49c0-0.6,0-1.1,0-1.6C103,21.5,64,22.7,64,48.6z"/><path fill="#FFF" d="M68.4,52l-7.2-1.8c-2.4-0.6-4.1-2.8-4.1-5.3c0-3,2.4-5.4,5.4-5.4H66c2.8,0,5,2.2,5,5c0,1.7,1.3,3,3,3s3-1.3,3-3c0-5.7-4.4-10.4-10-10.9v-2.1c0-1.7-1.3-3-3-3s-3,1.3-3,3v2.1c-5.6,0.7-10,5.5-10,11.3c0,5.3,3.6,9.8,8.6,11.1l7.2,1.8c2.4,0.6,4.1,2.8,4.1,5.3c0,3-2.4,5.4-5.4,5.4H62c-2.8,0-5-2.2-5-5c0-1.7-1.3-3-3-3s-3,1.3-3,3c0,5.7,4.4,10.4,10,10.9v2.1c0,1.7,1.3,3,3,3s3-1.3,3-3v-2.1c5.6-0.7,10-5.5,10-11.3C77,57.8,73.4,53.3,68.4,52z"/><path fill="#454B54" d="M79,100.7c-1.7,0-3-1.3-3-3c0-7.4,3.6-14.4,9.7-18.8C95.3,72,101,60.8,101,49c0-10.2-4.3-20.1-11.8-27.1c-7.6-7.1-17.5-10.6-27.9-9.9C42.7,13.4,28,28.5,27.1,47.2c-0.6,12.7,5.2,24.6,15.5,32c1.3,1,1.7,2.8,0.7,4.2c-1,1.3-2.8,1.7-4.2,0.7c-12-8.5-18.7-22.4-18-37.1C22.1,25.1,39.3,7.6,61,6.1c12.1-0.8,23.6,3.2,32.4,11.5C102.1,25.7,107,37.1,107,49c0,13.7-6.7,26.8-17.8,34.8c-4.5,3.3-7.2,8.5-7.2,13.9C82,99.4,80.7,100.7,79,100.7z"/><path fill="#FFF" d="M81.1 99L64 99 46.9 99 46.9 109 81.1 109 81.1 99 81.1 99"/><path fill="#454B54" d="M81.1 112H46.9c-1.7 0-3-1.3-3-3V99c0-1.7 1.3-3 3-3h34.2c.8 0 1.6.3 2.1.9s.9 1.3.9 2.1l-.1 10C84 110.7 82.7 112 81.1 112zM49.9 106h28.2l0-4H49.9V106zM66 122h-4c-1.7 0-3-1.3-3-3s1.3-3 3-3h4c1.7 0 3 1.3 3 3S67.7 122 66 122z"/></svg>