<?xml version="1.0"?><svg fill="#ffffff" xmlns="http://www.w3.org/2000/svg" viewBox="0 0 128 128" width="64px" height="64px">    <path d="M 33.5 9 C 26.3 9 20.5 14.8 20.5 22 L 20.5 102 C 20.5 109.2 26.3 115 33.5 115 L 94.5 115 C 101.7 115 107.5 109.2 107.5 102 L 107.5 22 C 107.5 14.8 101.7 9 94.5 9 L 33.5 9 z M 33.5 15 L 94.5 15 C 98.4 15 101.5 18.1 101.5 22 L 101.5 102 C 101.5 105.9 98.4 109 94.5 109 L 33.5 109 C 29.6 109 26.5 105.9 26.5 102 L 26.5 22 C 26.5 18.1 29.6 15 33.5 15 z M 40.5 31 C 38.8 31 37.5 32.3 37.5 34 C 37.5 35.7 38.8 37 40.5 37 L 85.5 37 C 87.2 37 88.5 35.7 88.5 34 C 88.5 32.3 87.2 31 85.5 31 L 40.5 31 z M 40.5 46 C 38.8 46 37.5 47.3 37.5 49 C 37.5 50.7 38.8 52 40.5 52 L 85.5 52 C 87.2 52 88.5 50.7 88.5 49 C 88.5 47.3 87.2 46 85.5 46 L 40.5 46 z M 40.5 61 C 38.8 61 37.5 62.3 37.5 64 C 37.5 65.7 38.8 67 40.5 67 L 61 67 C 62.7 67 64 65.7 64 64 C 64 62.3 62.7 61 61 61 L 40.5 61 z M 71.019531 80.615234 C 70.0625 80.626953 69.125 81.087891 68.5 81.900391 L 62.900391 90.400391 L 59.400391 85.800781 C 58.400391 84.500781 56.499219 84.199219 55.199219 85.199219 C 53.899219 86.199219 53.599609 88.100391 54.599609 89.400391 L 60.5 97.300781 C 61.1 98.100781 62 98.5 63 98.5 L 63.099609 98.5 C 64.099609 98.5 64.999609 97.899609 65.599609 97.099609 L 73.5 85.199219 C 74.4 83.899219 73.999219 81.999609 72.699219 81.099609 C 72.174219 80.762109 71.59375 80.608203 71.019531 80.615234 z"/></svg>