<svg xmlns="http://www.w3.org/2000/svg" viewBox="0 0 128 128" width="64px" height="64px"><path fill="#fff" d="M114,111V41c0-5.5-4.5-10-10-10H24c-5.5,0-10,4.5-10,10v70H4v3c0,5.5,4.5,10,10,10h100c5.5,0,10-4.5,10-10v-3H114z"/><path fill="#71c2ff" d="M37 81H45V99H37z"/><path fill="#71c2ff" d="M45 102h-8c-1.7 0-3-1.3-3-3V81c0-1.7 1.3-3 3-3h8c1.7 0 3 1.3 3 3v18C48 100.7 46.7 102 45 102zM40 96h2V84h-2V96zM60 61H68V99H60z"/><path fill="#71c2ff" d="M68,102h-8c-1.7,0-3-1.3-3-3V61c0-1.7,1.3-3,3-3h8c1.7,0,3,1.3,3,3v38C71,100.7,69.7,102,68,102z M63,96h2V64h-2V96z"/><g><path fill="#71c2ff" d="M83 71H91V99H83z"/><path fill="#71c2ff" d="M91,102h-8c-1.7,0-3-1.3-3-3V71c0-1.7,1.3-3,3-3h8c1.7,0,3,1.3,3,3v28C94,100.7,92.7,102,91,102z M86,96h2V74h-2V96z"/></g><g><path fill="#444b54" d="M74,114H54c-1.7,0-3-1.3-3-3s1.3-3,3-3h20c1.7,0,3,1.3,3,3S75.7,114,74,114z"/></g><g><path fill="#444b54" d="M114,127H14c-7.2,0-13-5.8-13-13v-3c0-1.7,1.3-3,3-3h35c1.7,0,3,1.3,3,3s-1.3,3-3,3H7c0,3.9,3.1,7,7,7h100c3.9,0,7-3.1,7-7H89c-1.7,0-3-1.3-3-3s1.3-3,3-3h35c1.7,0,3,1.3,3,3v3C127,121.2,121.2,127,114,127z"/></g><g><path fill="#444b54" d="M114,102c-1.7,0-3-1.3-3-3V41c0-3.9-3.1-7-7-7H24c-3.9,0-7,3.1-7,7v58c0,1.7-1.3,3-3,3s-3-1.3-3-3V41c0-7.2,5.8-13,13-13h80c7.2,0,13,5.8,13,13v58C117,100.7,115.7,102,114,102z"/></g></svg>