<svg fill="#2196f3" xmlns="http://www.w3.org/2000/svg" viewBox="0 0 50 50" width="100px" height="100px"><path d="M 28.992188 9 C 23.810763 9 19.615553 11.897891 17.53125 16.257812 C 16.385683 15.502053 15.081248 15 13.640625 15 C 9.9389475 15 7.280744 17.979203 7.0664062 21.564453 C 5.3307704 22.147681 3.6536312 23.049581 2.3730469 24.513672 C 0.92455934 26.169727 -2.9605947e-16 28.456049 0 31.330078 C 0 36.658457 4.340656 41 9.6699219 41 L 32 41 L 32 39 L 9.6699219 39 C 5.4211878 39 2 35.577699 2 31.330078 C 2 28.873107 2.7436438 27.128023 3.8789062 25.830078 C 5.0141688 24.532133 6.5808774 23.680505 8.265625 23.214844 L 9.0273438 23.003906 L 9 22.214844 C 8.9949995 22.074829 8.9863281 22.006569 8.9863281 22 C 8.9863281 19.151158 10.860341 17 13.640625 17 C 15.072914 17 16.299809 17.47787 17.183594 18.363281 L 18.287109 19.46875 L 18.830078 18.003906 C 20.410567 13.732713 24.14873 11 28.992188 11 C 35.177681 11 40 15.81618 40 22 C 40 22.455098 39.962077 22.912902 39.904297 23.380859 L 39.765625 24.503906 L 40.896484 24.503906 C 41.016484 24.503906 41.035082 24.501953 40.955078 24.501953 C 44.673419 24.501953 48 28.297785 48 32.099609 L 50 32.099609 C 50 27.520619 46.465382 23.322181 41.949219 22.730469 C 41.965324 22.486104 42 22.253648 42 22 C 42 14.76382 36.228693 9 28.992188 9 z M 32.998047 30.998047 A 2 2 0 0 0 32.998047 34.998047 A 2 2 0 0 0 32.998047 30.998047 z M 38 34 C 38 36.121 36.214 37.929 34 38 L 34 39.939453 C 37.286 39.939453 40 37.253 40 34 L 38 34 z M 43 34 C 43 39 39 43 34 43 L 34 44.998047 C 40.142 44.998047 45.070047 40.071 44.998047 34 L 43 34 z M 48 34 C 48 41.714 41.714 48 34 48 L 34 50 C 42.786 49.929 49.929 42.786 50 34 L 48 34 z"/></svg>