<?xml version="1.0" encoding="utf-8"?>
<!-- Generator: Adobe Illustrator 24.2.0, SVG Export Plug-In . SVG Version: 6.00 Build 0)  -->
<svg version="1.1" id="Layer_1" xmlns="http://www.w3.org/2000/svg" xmlns:xlink="http://www.w3.org/1999/xlink" x="0px" y="0px"
	 viewBox="0 0 165 110" style="enable-background:new 0 0 165 110;" xml:space="preserve">
<style type="text/css">
	.st0{opacity:0.5;}
	.st1{fill:#FFFFFF;}
	.st2{clip-path:url(#SVGID_3_);fill:#FFFFFF;}
</style>
<g class="st0">
	<path class="st1" d="M109.7,75.1h8.5v2.2h-6v2.3h5.3v2.2h-5.3v2.2h6.1v2.2h-8.5L109.7,75.1L109.7,75.1z M100,75.1h2.5v9h5.6v2.2
		H100V75.1z M93.6,86.5c-0.9,0-1.6-0.2-2.3-0.5c-0.7-0.3-1.4-0.7-1.8-1.3c-0.5-0.5-0.9-1.2-1.2-1.8c-0.3-0.7-0.4-1.5-0.4-2.2l0,0
		c0-0.8,0.1-1.6,0.4-2.2c0.3-0.7,0.7-1.4,1.2-1.8c0.5-0.5,1.2-1,1.8-1.3c0.7-0.3,1.6-0.5,2.4-0.5c0.5,0,1,0,1.5,0.1
		c0.4,0.1,0.9,0.2,1.2,0.4c0.4,0.2,0.7,0.3,1,0.6c0.3,0.2,0.6,0.5,0.9,0.7l-1.6,1.7c-0.5-0.4-0.9-0.7-1.4-1c-0.5-0.2-1-0.3-1.6-0.3
		c-0.5,0-0.9,0.1-1.4,0.3c-0.4,0.2-0.8,0.4-1.1,0.8c-0.3,0.3-0.5,0.7-0.7,1.2c-0.2,0.4-0.2,0.9-0.2,1.4l0,0c0,0.5,0.1,1,0.2,1.4
		c0.2,0.4,0.4,0.8,0.7,1.2c0.3,0.3,0.6,0.6,1.1,0.8c0.4,0.2,0.9,0.3,1.4,0.3c0.7,0,1.2-0.1,1.6-0.4c0.5-0.2,0.9-0.6,1.4-1l1.6,1.6
		c-0.3,0.3-0.6,0.6-0.9,0.9c-0.3,0.3-0.7,0.5-1.1,0.7c-0.4,0.2-0.8,0.3-1.3,0.4C94.6,86.5,94.1,86.5,93.6,86.5z M80.2,81.8l-4.4-6.8
		h2.9l2.7,4.6l2.7-4.6H87l-4.4,6.8v4.5h-2.5L80.2,81.8L80.2,81.8z M70.7,86.5c-0.9,0-1.6-0.2-2.3-0.5c-0.7-0.3-1.4-0.7-1.8-1.3
		c-0.5-0.5-0.9-1.2-1.2-1.8C65,82.2,65,81.5,65,80.7l0,0c0-0.8,0.1-1.6,0.4-2.2c0.3-0.7,0.7-1.4,1.2-1.8c0.5-0.5,1.2-1,1.8-1.3
		c0.7-0.3,1.6-0.5,2.4-0.5c0.5,0,1,0,1.5,0.1c0.4,0.1,0.9,0.2,1.2,0.4c0.4,0.2,0.7,0.3,1,0.6c0.3,0.2,0.6,0.5,0.9,0.7l-1.6,1.8
		c-0.5-0.4-0.9-0.7-1.4-1c-0.5-0.2-1-0.3-1.6-0.3c-0.5,0-0.9,0.1-1.4,0.3c-0.4,0.2-0.8,0.4-1.1,0.8c-0.3,0.3-0.5,0.7-0.7,1.2
		c-0.1,0.3-0.2,0.8-0.2,1.2l0,0c0,0.5,0.1,1,0.2,1.4c0.2,0.4,0.4,0.8,0.7,1.2c0.3,0.3,0.6,0.6,1.1,0.8c0.4,0.2,0.9,0.3,1.4,0.3
		c0.7,0,1.2-0.1,1.6-0.4c0.5-0.2,0.9-0.6,1.4-1l1.6,1.6c-0.3,0.3-0.6,0.6-0.9,0.9c-0.3,0.3-0.7,0.5-1.1,0.7
		c-0.4,0.2-0.8,0.3-1.3,0.4C71.6,86.5,71.2,86.5,70.7,86.5z M60.3,75.1h2.5v11.2h-2.5V75.1z M48.8,75.1H54c1.3,0,2.2,0.3,2.9,1
		c0.5,0.5,0.8,1.2,0.8,1.9l0,0c0,0.3,0,0.6-0.1,0.9c-0.1,0.3-0.2,0.5-0.3,0.7c-0.1,0.2-0.3,0.4-0.5,0.5c-0.2,0.2-0.4,0.3-0.6,0.4
		c0.7,0.3,1.2,0.6,1.6,1c0.4,0.4,0.6,1,0.6,1.7l0,0c0,0.5-0.1,1-0.3,1.4s-0.5,0.7-0.9,1c-0.4,0.4-0.8,0.6-1.4,0.7
		c-0.5,0.1-1.1,0.2-1.7,0.2h-5.3V75.1z M53.5,79.6c0.6,0,1-0.1,1.3-0.3c0.3-0.2,0.5-0.5,0.5-0.9l0,0c0-0.4-0.1-0.7-0.4-0.9
		c-0.3-0.2-0.7-0.3-1.2-0.3h-2.4v2.4L53.5,79.6L53.5,79.6z M54.1,84.2c0.6,0,1-0.1,1.3-0.3c0.3-0.2,0.5-0.5,0.5-1l0,0
		c0-0.4-0.1-0.7-0.4-0.9c-0.3-0.2-0.8-0.3-1.4-0.3h-2.9v2.5L54.1,84.2L54.1,84.2z"/>
	<g>
		<g>
			<path id="SVGID_1_" class="st1" d="M90,27.7c-0.8-1.4-0.3-3.1,1.1-3.9c1.4-0.8,3.1-0.3,3.9,1.1c1.5,2.5,2.9,5.1,4.4,7.7
				C92.1,32.5,93.5,33.8,90,27.7 M66.6,54.6c0-1.6,1.3-2.8,2.8-2.8c1.6,0,2.8,1.3,2.8,2.8c0,3.7-1.6,7.1-4,9.5c-2.4,2.4-5.8,4-9.5,4
				c-3.7,0-7.1-1.6-9.5-4c-2.4-2.4-4-5.8-4-9.5s1.6-7.1,4-9.5s5.8-4,9.5-4h8l-4.6-7.9c-0.8-1.4-0.3-3.1,1.1-3.9
				c1.4-0.8,3.1-0.3,3.9,1.1l6.9,12c0.3,0.5,0.5,1,0.5,1.6c0,1.6-1.3,2.8-2.8,2.8h-13c-2.1,0-4.1,0.9-5.5,2.3
				c-1.5,1.5-2.3,3.4-2.3,5.5s0.9,4.1,2.3,5.5c1.5,1.5,3.4,2.3,5.5,2.3c2.1,0,4.1-0.9,5.5-2.3C65.7,58.8,66.6,56.7,66.6,54.6z
				 M92.8,54.6c0-1.6,1.3-2.8,2.8-2.8c1.6,0,2.8,1.3,2.8,2.8c0,2.1,0.9,4.1,2.3,5.5c1.5,1.5,3.4,2.3,5.5,2.3s4.1-0.9,5.5-2.3
				c1.5-1.5,2.3-3.4,2.3-5.5s-0.9-4.1-2.3-5.5c-1.5-1.5-3.4-2.3-5.5-2.3h-13c-1.1,0-2-0.6-2.5-1.6l-6.4-10.6h-4.9L89,51.3
				c0.8,1.4,0.3,3.1-1.1,3.9c-0.2,0.1-0.5,0.2-0.7,0.3l0,0l-4.8,1.3l0.8,1.4c0.8,1.4,0.3,3.1-1.1,3.9c-1.4,0.8-3.1,0.3-3.9-1.1
				l-2.5-4.5c-0.2-0.2-0.3-0.5-0.4-0.8c-0.4-1.5,0.5-3,2-3.5l4.8-1.3L72.1,33.4c-0.3-0.5-0.5-1-0.5-1.6c0-1.6,1.3-2.8,2.8-2.8h11.4
				l0,0c1,0,1.8,0.5,2.4,1.4l6.6,10.8h11.3c3.7,0,7.1,1.6,9.5,4c2.4,2.4,4,5.8,4,9.5s-1.6,7.1-4,9.5c-2.4,2.4-5.8,4-9.5,4
				s-7.1-1.6-9.5-4C94.3,61.7,92.8,58.4,92.8,54.6z"/>
		</g>
		<g>
			<defs>
				<path id="SVGID_2_" d="M90,27.7c-0.8-1.4-0.3-3.1,1.1-3.9c1.4-0.8,3.1-0.3,3.9,1.1c1.5,2.5,2.9,5.1,4.4,7.7
					C92.1,32.5,93.5,33.8,90,27.7 M66.6,54.6c0-1.6,1.3-2.8,2.8-2.8c1.6,0,2.8,1.3,2.8,2.8c0,3.7-1.6,7.1-4,9.5
					c-2.4,2.4-5.8,4-9.5,4c-3.7,0-7.1-1.6-9.5-4c-2.4-2.4-4-5.8-4-9.5s1.6-7.1,4-9.5s5.8-4,9.5-4h8l-4.6-7.9
					c-0.8-1.4-0.3-3.1,1.1-3.9c1.4-0.8,3.1-0.3,3.9,1.1l6.9,12c0.3,0.5,0.5,1,0.5,1.6c0,1.6-1.3,2.8-2.8,2.8h-13
					c-2.1,0-4.1,0.9-5.5,2.3c-1.5,1.5-2.3,3.4-2.3,5.5s0.9,4.1,2.3,5.5c1.5,1.5,3.4,2.3,5.5,2.3c2.1,0,4.1-0.9,5.5-2.3
					C65.7,58.8,66.6,56.7,66.6,54.6z M92.8,54.6c0-1.6,1.3-2.8,2.8-2.8c1.6,0,2.8,1.3,2.8,2.8c0,2.1,0.9,4.1,2.3,5.5
					c1.5,1.5,3.4,2.3,5.5,2.3s4.1-0.9,5.5-2.3c1.5-1.5,2.3-3.4,2.3-5.5s-0.9-4.1-2.3-5.5c-1.5-1.5-3.4-2.3-5.5-2.3h-13
					c-1.1,0-2-0.6-2.5-1.6l-6.4-10.6h-4.9L89,51.3c0.8,1.4,0.3,3.1-1.1,3.9c-0.2,0.1-0.5,0.2-0.7,0.3l0,0l-4.8,1.3l0.8,1.4
					c0.8,1.4,0.3,3.1-1.1,3.9c-1.4,0.8-3.1,0.3-3.9-1.1l-2.5-4.5c-0.2-0.2-0.3-0.5-0.4-0.8c-0.4-1.5,0.5-3,2-3.5l4.8-1.3L72.1,33.4
					c-0.3-0.5-0.5-1-0.5-1.6c0-1.6,1.3-2.8,2.8-2.8h11.4l0,0c1,0,1.8,0.5,2.4,1.4l6.6,10.8h11.3c3.7,0,7.1,1.6,9.5,4
					c2.4,2.4,4,5.8,4,9.5s-1.6,7.1-4,9.5c-2.4,2.4-5.8,4-9.5,4s-7.1-1.6-9.5-4C94.3,61.7,92.8,58.4,92.8,54.6z"/>
			</defs>
			<clipPath id="SVGID_3_">
				<use xlink:href="#SVGID_2_"  style="overflow:visible;"/>
			</clipPath>
			<rect x="45.3" y="23.1" class="st2" width="74.4" height="45"/>
		</g>
	</g>
</g>
</svg>
