<?xml version="1.0" encoding="utf-8"?>
<!-- Generator: Adobe Illustrator 15.1.0, SVG Export Plug-In . SVG Version: 6.00 Build 0)  -->
<!DOCTYPE svg PUBLIC "-//W3C//DTD SVG 1.1//EN" "http://www.w3.org/Graphics/SVG/1.1/DTD/svg11.dtd">
<svg version="1.1" id="Layer_1" xmlns="http://www.w3.org/2000/svg" xmlns:xlink="http://www.w3.org/1999/xlink" x="0px" y="0px"
	 width="182.999px" height="137px" viewBox="0 0 182.999 137" enable-background="new 0 0 182.999 137" xml:space="preserve">
<g>
	<rect fill="#FFFFFF" width="182.999" height="137"/>
	<g>
		<g>
			
				<radialGradient id="SVGID_1_" cx="151.6631" cy="49512.4609" r="10.4968" gradientTransform="matrix(2.9283 0 0 0.2703 -352.6178 -13301.3145)" gradientUnits="userSpaceOnUse">
				<stop  offset="0" style="stop-color:#CDCCCC"/>
				<stop  offset="1" style="stop-color:#FFFFFF"/>
			</radialGradient>
			<path fill="url(#SVGID_1_)" d="M123.052,81.903c0,1.583-14.121,2.853-31.559,2.853c-17.429,0-31.546-1.27-31.546-2.853
				c0-1.573,14.117-2.854,31.546-2.854C108.931,79.049,123.052,80.33,123.052,81.903z"/>
			<g>
				
					<linearGradient id="SVGID_2_" gradientUnits="userSpaceOnUse" x1="70.0635" y1="92.5112" x2="86.728" y2="92.5112" gradientTransform="matrix(0.9825 -0.1865 0.1865 0.9825 2.849 -34.545)">
					<stop  offset="0.2501" style="stop-color:#00A99D"/>
					<stop  offset="0.6067" style="stop-color:#8DC641"/>
				</linearGradient>
				<path fill="url(#SVGID_2_)" d="M98.954,28.678c1.586,2.081,2.745,4.54,3.26,7.273c1.596,8.427-3.196,16.569-10.972,19.456
					c0.629-0.04,1.264-0.097,1.904-0.223c7.999-1.521,13.258-9.24,11.742-17.25C104.145,34.047,101.938,30.805,98.954,28.678z"/>
				
					<linearGradient id="SVGID_3_" gradientUnits="userSpaceOnUse" x1="57.6191" y1="90.1938" x2="80.0747" y2="90.1938" gradientTransform="matrix(0.9825 -0.1865 0.1865 0.9825 2.849 -34.545)">
					<stop  offset="0.2501" style="stop-color:#00A99D"/>
					<stop  offset="0.6067" style="stop-color:#8DC641"/>
				</linearGradient>
				<path fill="url(#SVGID_3_)" d="M98.292,38.861c-1.167-6.158-5.684-10.824-11.311-12.488c-3.527,0.881-6.46,2.968-8.438,5.747
					c0.492-0.149,0.989-0.274,1.51-0.383c7.318-1.39,14.385,3.419,15.775,10.749c0.914,4.814-0.881,9.497-4.277,12.562
					c2.094-2.414,3.116-5.724,2.481-9.103c-1.121-5.895-6.793-9.749-12.676-8.634c-2.064,0.384-3.854,1.344-5.288,2.665
					c-0.047,1.132,0.01,2.282,0.232,3.448c0.035,0.212,0.098,0.4,0.145,0.606c1.32-1.475,3.115-2.562,5.215-2.957
					c5.064-0.966,9.959,2.373,10.926,7.439c0.463,2.464-0.091,4.877-1.362,6.832c-0.021,0.023-0.039,0.046-0.067,0.063
					c0.035,0,0.057-0.005,0.086,0C96.565,51.932,99.55,45.482,98.292,38.861z"/>
			</g>
			<g>
				
					<linearGradient id="SVGID_4_" gradientUnits="userSpaceOnUse" x1="66.8428" y1="116.7759" x2="85.0459" y2="116.7759" gradientTransform="matrix(0.9825 -0.1865 0.1865 0.9825 2.849 -34.545)">
					<stop  offset="0.2501" style="stop-color:#00A99D"/>
					<stop  offset="0.6067" style="stop-color:#8DC641"/>
				</linearGradient>
				<path fill="url(#SVGID_4_)" d="M110.325,75.596c-2.602,0.319-5.299,0.085-7.929-0.847c-8.079-2.864-12.698-11.104-11.279-19.273
					c-0.274,0.565-0.545,1.148-0.762,1.755c-2.722,7.672,1.309,16.106,8.987,18.833C103.07,77.374,106.981,77.099,110.325,75.596z"
					/>
				
					<linearGradient id="SVGID_5_" gradientUnits="userSpaceOnUse" x1="69.7783" y1="112.23" x2="96.2432" y2="112.23" gradientTransform="matrix(0.9825 -0.1865 0.1865 0.9825 2.849 -34.545)">
					<stop  offset="0.2501" style="stop-color:#00A99D"/>
					<stop  offset="0.6067" style="stop-color:#8DC641"/>
				</linearGradient>
				<path fill="url(#SVGID_5_)" d="M101.871,69.902c5.898,2.092,12.205,0.531,16.47-3.483c1.014-3.493,0.692-7.072-0.708-10.193
					c-0.12,0.509-0.257,1.006-0.43,1.504c-2.491,7.026-10.198,10.703-17.23,8.216c-4.626-1.642-7.771-5.541-8.69-10.022
					c1.034,3.024,3.362,5.579,6.615,6.729c5.642,1.994,11.834-0.955,13.836-6.604c0.697-1.966,0.776-3.996,0.365-5.906
					c-0.956-0.612-1.985-1.144-3.1-1.532c-0.2-0.08-0.4-0.12-0.6-0.189c0.606,1.899,0.646,3.986-0.068,5.999
					c-1.72,4.865-7.062,7.409-11.932,5.694c-2.367-0.852-4.175-2.543-5.221-4.619c-0.005-0.028-0.018-0.063-0.022-0.086
					c-0.011,0.018-0.018,0.046-0.039,0.069C91.442,61.811,95.501,67.649,101.871,69.902z"/>
			</g>
			<g>
				
					<linearGradient id="SVGID_6_" gradientUnits="userSpaceOnUse" x1="42.1738" y1="100.8032" x2="69.9531" y2="100.8032" gradientTransform="matrix(0.9825 -0.1865 0.1865 0.9825 2.849 -34.545)">
					<stop  offset="0.2501" style="stop-color:#00A99D"/>
					<stop  offset="0.6067" style="stop-color:#8DC641"/>
				</linearGradient>
				<path fill="url(#SVGID_6_)" d="M64.065,61.793c1.023-2.396,2.596-4.619,4.724-6.426c6.542-5.546,15.98-5.374,22.328-0.028
					c-0.338-0.532-0.715-1.046-1.121-1.543c-5.273-6.226-14.58-6.987-20.801-1.721C66.176,54.63,64.449,58.146,64.065,61.793z"/>
				
					<linearGradient id="SVGID_7_" gradientUnits="userSpaceOnUse" x1="43.8374" y1="112.7954" x2="69.979" y2="112.7954" gradientTransform="matrix(0.9825 -0.1865 0.1865 0.9825 2.849 -34.545)">
					<stop  offset="0.2501" style="stop-color:#00A99D"/>
					<stop  offset="0.6067" style="stop-color:#8DC641"/>
				</linearGradient>
				<path fill="url(#SVGID_7_)" d="M73.243,57.363c-4.774,4.042-6.604,10.262-5.278,15.98c2.493,2.631,5.759,4.162,9.143,4.517
					c-0.366-0.348-0.731-0.72-1.068-1.12c-4.814-5.689-4.111-14.203,1.578-19.028c3.744-3.173,8.708-3.917,13.036-2.464
					c-3.127-0.629-6.513,0.097-9.142,2.327c-4.569,3.865-5.136,10.72-1.265,15.283c1.35,1.584,3.065,2.687,4.916,3.292
					c1.007-0.519,1.984-1.142,2.889-1.907c0.166-0.132,0.303-0.287,0.463-0.425c-1.943-0.423-3.762-1.451-5.14-3.081
					c-3.333-3.934-2.854-9.834,1.091-13.167c1.916-1.63,4.288-2.333,6.609-2.19c0.029,0.011,0.058,0.023,0.081,0.028
					c-0.011-0.028-0.023-0.045-0.039-0.068C85.467,52.417,78.39,53.001,73.243,57.363z"/>
			</g>
		</g>
		<g>
			<g>
				<path fill="#202020" d="M61.899,99.147c0.996,0,1.811-0.395,2.443-1.182l1.301,1.338c-1.031,1.162-2.248,1.742-3.646,1.742
					c-1.4,0-2.553-0.441-3.459-1.326c-0.904-0.885-1.357-2-1.357-3.348s0.461-2.473,1.385-3.373
					c0.922-0.902,2.051-1.352,3.385-1.352c1.492,0,2.74,0.566,3.744,1.703l-1.26,1.43c-0.643-0.797-1.439-1.197-2.393-1.197
					c-0.762,0-1.414,0.25-1.957,0.748c-0.541,0.498-0.813,1.17-0.813,2.016c0,0.844,0.256,1.523,0.768,2.035
					C60.552,98.891,61.171,99.147,61.899,99.147z"/>
				<path fill="#202020" d="M74.69,99.686c-0.918,0.898-2.049,1.346-3.393,1.346s-2.475-0.447-3.393-1.346
					c-0.92-0.896-1.379-2.012-1.379-3.346c0-1.336,0.459-2.451,1.379-3.348c0.918-0.898,2.049-1.346,3.393-1.346
					s2.475,0.447,3.393,1.346c0.918,0.896,1.379,2.012,1.379,3.348C76.069,97.674,75.608,98.79,74.69,99.686z M74.001,96.346
					c0-0.811-0.26-1.502-0.779-2.074s-1.16-0.857-1.918-0.857s-1.396,0.285-1.916,0.857c-0.521,0.572-0.781,1.264-0.781,2.074
					s0.26,1.5,0.781,2.066c0.52,0.568,1.158,0.852,1.916,0.852s1.398-0.283,1.918-0.852C73.741,97.846,74.001,97.157,74.001,96.346z
					"/>
				<path fill="#202020" d="M85.923,95.221l-2.457,4.967h-1.209l-2.443-4.967v5.721h-2.029v-9.088h2.744l2.34,4.992l2.352-4.992
					h2.73v9.088h-2.027V95.221z"/>
				<path fill="#202020" d="M96.446,92.667c0.637,0.543,0.955,1.375,0.955,2.496c0,1.123-0.326,1.943-0.98,2.463
					c-0.654,0.521-1.654,0.781-2.996,0.781h-1.209v2.535h-2.029v-9.088h3.211C94.794,91.854,95.81,92.125,96.446,92.667z
					 M94.958,96.243c0.242-0.273,0.363-0.672,0.363-1.197c0-0.523-0.158-0.896-0.475-1.117s-0.807-0.332-1.475-0.332h-1.156v3.055
					h1.363C94.255,96.651,94.716,96.514,94.958,96.243z"/>
				<path fill="#202020" d="M104.929,100.942l-0.846-1.963h-3.809l-0.846,1.963h-2.158l3.928-9.088h1.963l3.926,9.088H104.929z
					 M102.185,94.559l-1.143,2.639h2.275L102.185,94.559z"/>
				<path fill="#202020" d="M114.497,91.854h2.027v9.088h-2.027l-4.328-5.695v5.695h-2.029v-9.088h1.898l4.459,5.85V91.854z"/>
				<path fill="#202020" d="M122.673,100.942h-2.027v-3.588l-3.146-5.5h2.197l1.963,3.381l1.963-3.381h2.197l-3.146,5.5V100.942z"/>
			</g>
			<g>
				<path fill="#8E8E8E" d="M60.396,106.937c-0.207,0-0.375,0.042-0.508,0.126c-0.131,0.084-0.197,0.211-0.197,0.381
					s0.066,0.3,0.197,0.39c0.133,0.09,0.414,0.188,0.844,0.291c0.43,0.104,0.754,0.25,0.973,0.438
					c0.217,0.188,0.326,0.465,0.326,0.831c0,0.365-0.139,0.662-0.414,0.891c-0.275,0.228-0.639,0.342-1.086,0.342
					c-0.656,0-1.238-0.226-1.746-0.678l0.443-0.534c0.424,0.368,0.865,0.552,1.32,0.552c0.229,0,0.41-0.049,0.543-0.146
					c0.135-0.099,0.201-0.229,0.201-0.391c0-0.161-0.063-0.287-0.189-0.378c-0.125-0.09-0.342-0.172-0.65-0.246
					c-0.309-0.073-0.543-0.142-0.701-0.203c-0.16-0.063-0.303-0.144-0.428-0.243c-0.248-0.188-0.371-0.477-0.371-0.864
					s0.141-0.688,0.424-0.897c0.281-0.21,0.631-0.314,1.047-0.314c0.268,0,0.533,0.044,0.797,0.132s0.492,0.212,0.684,0.372
					l-0.377,0.534c-0.125-0.112-0.293-0.204-0.504-0.276C60.81,106.972,60.601,106.937,60.396,106.937z"/>
				<path fill="#8E8E8E" d="M65.126,110.579v-4.194h0.709v3.522h1.914v0.672H65.126z"/>
				<path fill="#8E8E8E" d="M74.132,110c-0.424,0.414-0.947,0.621-1.572,0.621c-0.623,0-1.146-0.207-1.57-0.621
					c-0.426-0.414-0.637-0.93-0.637-1.548s0.211-1.134,0.637-1.548c0.424-0.414,0.947-0.621,1.57-0.621
					c0.625,0,1.148,0.207,1.572,0.621s0.637,0.93,0.637,1.548S74.556,109.585,74.132,110z M73.614,107.375
					c-0.287-0.296-0.639-0.444-1.055-0.444s-0.766,0.148-1.053,0.444c-0.285,0.296-0.428,0.655-0.428,1.077s0.143,0.781,0.428,1.077
					c0.287,0.296,0.637,0.443,1.053,0.443s0.768-0.147,1.055-0.443c0.285-0.296,0.428-0.655,0.428-1.077
					S73.899,107.67,73.614,107.375z"/>
				<path fill="#8E8E8E" d="M80.786,108.539h0.709v1.434c-0.396,0.437-0.963,0.654-1.699,0.654c-0.619,0-1.139-0.204-1.557-0.612
					c-0.418-0.407-0.627-0.924-0.627-1.548s0.213-1.144,0.639-1.56s0.941-0.624,1.545-0.624s1.105,0.176,1.506,0.528l-0.377,0.54
					c-0.164-0.141-0.33-0.237-0.496-0.291c-0.166-0.055-0.359-0.081-0.578-0.081c-0.424,0-0.781,0.137-1.068,0.41
					c-0.287,0.274-0.432,0.635-0.432,1.08c0,0.446,0.141,0.805,0.42,1.074c0.279,0.271,0.619,0.405,1.018,0.405
					c0.396,0,0.73-0.086,0.998-0.258V108.539z"/>
				<path fill="#8E8E8E" d="M85.196,109.625l-0.42,0.954h-0.756l1.848-4.194h0.756l1.848,4.194h-0.756l-0.42-0.954H85.196z
					 M87.009,108.97l-0.764-1.728l-0.762,1.728H87.009z"/>
				<path fill="#8E8E8E" d="M94.417,106.384h0.709v4.194h-0.768l-2.377-3.06v3.06h-0.707v-4.194h0.707l2.436,3.133V106.384z"/>
				<path fill="#8E8E8E" d="M103.958,107.033v3.546h-0.707v-3.546h-1.273v-0.648h3.254v0.648H103.958z"/>
				<path fill="#8E8E8E" d="M111.165,106.384v0.666h-2.238v1.11h2.01v0.63h-2.01v1.122h2.309v0.666h-3.018v-4.194H111.165z"/>
				<path fill="#8E8E8E" d="M116.847,110.579L115.813,109h-0.029l-1.033,1.578h-0.881l1.439-2.154l-1.338-2.04h0.877l0.936,1.416
					h0.029l0.936-1.416h0.877l-1.338,2.04l1.439,2.154H116.847z"/>
				<path fill="#8E8E8E" d="M122.204,107.033v3.546h-0.709v-3.546h-1.271v-0.648h3.252v0.648H122.204z"/>
			</g>
		</g>
	</g>
</g>
</svg>
