<?xml version="1.0" encoding="utf-8"?>
<!-- Generator: Adobe Illustrator 15.1.0, SVG Export Plug-In . SVG Version: 6.00 Build 0)  -->
<!DOCTYPE svg PUBLIC "-//W3C//DTD SVG 1.1//EN" "http://www.w3.org/Graphics/SVG/1.1/DTD/svg11.dtd">
<svg version="1.1" id="Layer_1" xmlns="http://www.w3.org/2000/svg" xmlns:xlink="http://www.w3.org/1999/xlink" x="0px" y="0px"
	 width="183px" height="137px" viewBox="0 0 183 137" enable-background="new 0 0 183 137" xml:space="preserve">
<g>
	<rect fill="#FFFFFF" width="183" height="137"/>
	<g>
		<g>
			
				<radialGradient id="SVGID_1_" cx="26.1143" cy="49544.4258" r="10.2045" gradientTransform="matrix(2.6971 0 0 0.2928 21.0664 -14426.0254)" gradientUnits="userSpaceOnUse">
				<stop  offset="0" style="stop-color:#CDCCCC"/>
				<stop  offset="1" style="stop-color:#FFFFFF"/>
			</radialGradient>
			<path fill="url(#SVGID_1_)" d="M119.715,80.587c0,1.658-12.643,3.002-28.223,3.002c-15.575,0-28.205-1.344-28.205-3.002
				c0-1.664,12.63-3.014,28.205-3.014C107.072,77.574,119.715,78.923,119.715,80.587z"/>
			<linearGradient id="SVGID_2_" gradientUnits="userSpaceOnUse" x1="78.2998" y1="82.811" x2="109.5018" y2="28.7675">
				<stop  offset="0.2724" style="stop-color:#EC2227"/>
				<stop  offset="0.7176" style="stop-color:#FBB03C"/>
			</linearGradient>
			<path fill="url(#SVGID_2_)" d="M116.73,54.27h-13.867c-1.627,0-2.967-1.205-3.207-2.776v-9.505c0-0.021-0.006-0.028-0.006-0.049
				c0.223-1.584,1.572-2.825,3.213-2.825h4.26c1.789,0,3.26-1.469,3.26-3.256v-4.697c0-1.798-1.471-3.268-3.26-3.268h-4.688
				c-1.796,0-3.265,1.47-3.265,3.268v4.303c0,1.792-1.475,3.268-3.266,3.268H87.1c-1.795,0-3.264-1.476-3.264-3.268v-4.303
				c0-1.798-1.471-3.268-3.266-3.268h-4.688c-1.795,0-3.264,1.47-3.264,3.268v4.697c0,1.787,1.469,3.256,3.264,3.256h4.254
				c1.642,0,2.996,1.241,3.214,2.825c0,0.021-0.007,0.028-0.007,0.049v9.505c-0.233,1.571-1.583,2.776-3.207,2.776H66.271
				c-1.79,0-3.247,1.464-3.247,3.26v14.578c0,1.799,1.457,3.26,3.247,3.26h14.586c1.788,0,3.258-1.461,3.258-3.26V58.249
				c0-1.795,1.469-3.259,3.266-3.259h8.238c1.797,0,3.259,1.464,3.259,3.259v13.858c0,1.799,1.477,3.26,3.271,3.26h14.582
				c1.793,0,3.244-1.461,3.244-3.26V57.529C119.975,55.733,118.523,54.27,116.73,54.27z"/>
		</g>
		<g>
			<g>
				<path fill="#202020" d="M61.9,97.625c0.996,0,1.811-0.395,2.443-1.182l1.301,1.338c-1.031,1.162-2.248,1.742-3.646,1.742
					c-1.4,0-2.553-0.441-3.459-1.326c-0.904-0.885-1.357-2-1.357-3.348s0.461-2.473,1.385-3.373
					c0.922-0.902,2.051-1.352,3.385-1.352c1.492,0,2.74,0.566,3.744,1.703l-1.26,1.43c-0.643-0.797-1.439-1.197-2.393-1.197
					c-0.762,0-1.414,0.25-1.957,0.748c-0.541,0.498-0.813,1.17-0.813,2.016c0,0.844,0.256,1.523,0.768,2.035
					C60.552,97.37,61.171,97.625,61.9,97.625z"/>
				<path fill="#202020" d="M74.691,98.165c-0.918,0.898-2.049,1.346-3.393,1.346s-2.475-0.447-3.393-1.346
					c-0.92-0.896-1.379-2.012-1.379-3.346c0-1.336,0.459-2.451,1.379-3.348c0.918-0.898,2.049-1.346,3.393-1.346
					s2.475,0.447,3.393,1.346c0.917,0.896,1.378,2.012,1.378,3.348C76.069,96.153,75.608,97.268,74.691,98.165z M74.001,94.825
					c0-0.811-0.26-1.502-0.779-2.074s-1.16-0.857-1.918-0.857s-1.396,0.285-1.916,0.857c-0.521,0.572-0.781,1.264-0.781,2.074
					s0.26,1.5,0.781,2.066c0.52,0.568,1.158,0.852,1.916,0.852s1.398-0.283,1.918-0.852C73.742,96.325,74.001,95.635,74.001,94.825z
					"/>
				<path fill="#202020" d="M85.922,93.7l-2.457,4.967h-1.209L79.813,93.7v5.721h-2.029v-9.088h2.744l2.34,4.992l2.352-4.992h2.73
					v9.088h-2.027V93.7z"/>
				<path fill="#202020" d="M96.446,91.145c0.637,0.543,0.955,1.375,0.955,2.496c0,1.123-0.326,1.943-0.98,2.463
					c-0.654,0.521-1.654,0.781-2.996,0.781h-1.209v2.535h-2.029v-9.088h3.211C94.794,90.333,95.81,90.604,96.446,91.145z
					 M94.958,94.721c0.242-0.273,0.363-0.672,0.363-1.197c0-0.523-0.158-0.896-0.475-1.117s-0.807-0.332-1.475-0.332h-1.157v3.055
					h1.364C94.255,95.129,94.716,94.993,94.958,94.721z"/>
				<path fill="#202020" d="M104.929,99.42l-0.846-1.963h-3.809l-0.846,1.963h-2.158l3.928-9.088h1.963l3.926,9.088H104.929z
					 M102.185,93.038l-1.143,2.639h2.275L102.185,93.038z"/>
				<path fill="#202020" d="M114.497,90.333h2.027v9.088h-2.027l-4.328-5.695v5.695h-2.029v-9.088h1.898l4.459,5.85V90.333z"/>
				<path fill="#202020" d="M122.673,99.42h-2.027v-3.588l-3.146-5.5h2.197l1.963,3.381l1.963-3.381h2.197l-3.146,5.5V99.42z"/>
			</g>
			<g>
				<path fill="#8E8E8E" d="M60.396,105.416c-0.207,0-0.375,0.042-0.508,0.126c-0.131,0.084-0.197,0.211-0.197,0.381
					s0.066,0.3,0.197,0.39c0.133,0.09,0.414,0.188,0.844,0.291c0.43,0.104,0.754,0.25,0.973,0.438
					c0.217,0.188,0.326,0.465,0.326,0.831c0,0.365-0.139,0.662-0.414,0.891c-0.275,0.228-0.639,0.342-1.086,0.342
					c-0.656,0-1.238-0.226-1.746-0.678l0.443-0.534c0.424,0.368,0.865,0.552,1.32,0.552c0.229,0,0.41-0.049,0.543-0.146
					c0.135-0.099,0.201-0.229,0.201-0.391c0-0.161-0.063-0.287-0.189-0.378c-0.125-0.09-0.342-0.172-0.65-0.246
					c-0.309-0.073-0.543-0.142-0.701-0.203c-0.16-0.063-0.303-0.144-0.428-0.243c-0.248-0.188-0.371-0.477-0.371-0.864
					s0.141-0.688,0.424-0.897c0.281-0.21,0.631-0.314,1.047-0.314c0.268,0,0.533,0.044,0.797,0.132s0.492,0.212,0.684,0.372
					l-0.377,0.534c-0.125-0.112-0.293-0.204-0.504-0.276C60.81,105.451,60.601,105.416,60.396,105.416z"/>
				<path fill="#8E8E8E" d="M65.126,109.057v-4.194h0.709v3.522h1.914v0.672H65.126z"/>
				<path fill="#8E8E8E" d="M74.132,108.478c-0.424,0.414-0.947,0.621-1.572,0.621c-0.623,0-1.146-0.207-1.57-0.621
					c-0.426-0.414-0.637-0.93-0.637-1.548s0.211-1.134,0.637-1.548c0.424-0.414,0.947-0.621,1.57-0.621
					c0.625,0,1.148,0.207,1.572,0.621s0.637,0.93,0.637,1.548S74.556,108.064,74.132,108.478z M73.615,105.853
					c-0.287-0.296-0.639-0.444-1.055-0.444s-0.766,0.148-1.053,0.444c-0.285,0.296-0.428,0.655-0.428,1.077s0.143,0.781,0.428,1.077
					c0.287,0.296,0.637,0.443,1.053,0.443s0.768-0.147,1.055-0.443c0.285-0.296,0.428-0.655,0.428-1.077
					S73.9,106.149,73.615,105.853z"/>
				<path fill="#8E8E8E" d="M80.786,107.017h0.709v1.434c-0.396,0.437-0.963,0.654-1.699,0.654c-0.619,0-1.139-0.204-1.557-0.612
					c-0.418-0.407-0.627-0.924-0.627-1.548s0.213-1.144,0.639-1.56s0.941-0.624,1.545-0.624s1.105,0.176,1.506,0.528l-0.377,0.54
					c-0.164-0.141-0.33-0.237-0.496-0.291c-0.166-0.055-0.359-0.081-0.578-0.081c-0.424,0-0.781,0.137-1.068,0.41
					c-0.287,0.274-0.432,0.635-0.432,1.08c0,0.446,0.141,0.805,0.42,1.074c0.279,0.271,0.619,0.405,1.018,0.405
					c0.396,0,0.73-0.086,0.998-0.258V107.017z"/>
				<path fill="#8E8E8E" d="M85.196,108.103l-0.42,0.954H84.02l1.848-4.194h0.756l1.848,4.194h-0.756l-0.42-0.954H85.196z
					 M87.008,107.449l-0.764-1.728l-0.762,1.728H87.008z"/>
				<path fill="#8E8E8E" d="M94.417,104.863h0.709v4.194h-0.768l-2.377-3.06v3.06h-0.707v-4.194h0.707l2.436,3.133V104.863z"/>
				<path fill="#8E8E8E" d="M103.958,105.511v3.546h-0.707v-3.546h-1.273v-0.648h3.254v0.648H103.958z"/>
				<path fill="#8E8E8E" d="M111.165,104.863v0.666h-2.238v1.11h2.01v0.63h-2.01v1.122h2.309v0.666h-3.018v-4.194H111.165z"/>
				<path fill="#8E8E8E" d="M116.847,109.057l-1.033-1.578h-0.029l-1.033,1.578h-0.881l1.439-2.154l-1.338-2.04h0.877l0.936,1.416
					h0.029l0.936-1.416h0.877l-1.338,2.04l1.439,2.154H116.847z"/>
				<path fill="#8E8E8E" d="M122.204,105.511v3.546h-0.709v-3.546h-1.271v-0.648h3.252v0.648H122.204z"/>
			</g>
		</g>
	</g>
</g>
</svg>
