<svg fill="#ef6c00" xmlns="http://www.w3.org/2000/svg" viewBox="0 0 32 32" width="64px" height="64px"><path d="M 12 4.7988281 L 5 9.4648438 L 5 27 L 18 27 L 19 27 L 27 27 L 27 5 L 22.117188 5 L 21.117188 13 L 19 13 L 19 9.4648438 L 12 4.7988281 z M 23.882812 7 L 25 7 L 25 25 L 19 25 L 19 15 L 22.882812 15 L 23.882812 7 z M 12 7.2011719 L 17 10.535156 L 17 25 L 7 25 L 7 10.535156 L 12 7.2011719 z M 9 13 L 9 15 L 11 15 L 11 13 L 9 13 z M 13 13 L 13 15 L 15 15 L 15 13 L 13 13 z M 9 17 L 9 19 L 11 19 L 11 17 L 9 17 z M 13 17 L 13 19 L 15 19 L 15 17 L 13 17 z M 21 17 L 21 19 L 23 19 L 23 17 L 21 17 z M 9 21 L 9 23 L 11 23 L 11 21 L 9 21 z M 13 21 L 13 23 L 15 23 L 15 21 L 13 21 z M 21 21 L 21 23 L 23 23 L 23 21 L 21 21 z"/></svg>