<svg fill="#2196f3" xmlns="http://www.w3.org/2000/svg" viewBox="0 0 50 50" width="50px" height="50px"><path d="M 9 3 C 7.355469 3 6 4.355469 6 6 L 6 8.832031 C 5.980469 8.941406 5.980469 9.050781 6 9.15625 L 6 39.832031 C 5.980469 39.941406 5.980469 40.050781 6 40.15625 L 6 44 C 6 45.644531 7.355469 47 9 47 L 29 47 C 30.644531 47 32 45.644531 32 44 L 32 40.167969 C 32.019531 40.058594 32.019531 39.949219 32 39.84375 L 32 9.167969 C 32.019531 9.058594 32.019531 8.949219 32 8.84375 L 32 6 C 32 4.355469 30.644531 3 29 3 Z M 9 5 L 29 5 C 29.554688 5 30 5.445313 30 6 L 30 8 L 8 8 L 8 6 C 8 5.445313 8.445313 5 9 5 Z M 8 10 L 30 10 L 30 39 L 8 39 Z M 40.636719 12.363281 L 39.21875 13.78125 C 42.144531 16.4375 44 20.246094 44 24.5 C 44 28.496094 42.367188 32.117188 39.742188 34.742188 L 41.144531 36.144531 C 44.136719 33.160156 46 29.050781 46 24.5 C 46 19.695313 43.921875 15.382813 40.636719 12.363281 Z M 36.394531 16.605469 L 34.96875 18.03125 C 36.816406 19.585938 38 21.902344 38 24.5 C 38 26.84375 37.03125 28.953125 35.492188 30.492188 L 36.90625 31.90625 C 38.808594 30.007813 40 27.394531 40 24.5 C 40 21.351563 38.597656 18.53125 36.394531 16.605469 Z M 8 41 L 30 41 L 30 44 C 30 44.554688 29.554688 45 29 45 L 9 45 C 8.445313 45 8 44.554688 8 44 Z M 16 42 C 15.640625 41.996094 15.304688 42.183594 15.121094 42.496094 C 14.941406 42.808594 14.941406 43.191406 15.121094 43.503906 C 15.304688 43.816406 15.640625 44.003906 16 44 L 22 44 C 22.359375 44.003906 22.695313 43.816406 22.878906 43.503906 C 23.058594 43.191406 23.058594 42.808594 22.878906 42.496094 C 22.695313 42.183594 22.359375 41.996094 22 42 Z"/></svg>