<svg fill="#fbc02d" xmlns="http://www.w3.org/2000/svg" viewBox="0 0 32 32" width="64px" height="64px"><path d="M 14.34375 2.328125 L 20.339844 18.818359 L 21.449219 17.707031 L 30.833984 8.3242188 L 14.34375 2.328125 z M 17.6875 5.671875 L 27.199219 9.1289062 L 24.878906 11.449219 L 21.722656 8.2929688 L 20.308594 9.7070312 L 23.464844 12.863281 L 21.146484 15.181641 L 17.6875 5.671875 z M 9 7 C 6.243 7 4 9.243 4 12 L 4 25 L 16 25 L 16 29 L 18 29 L 18 25 L 28 25 L 28 13.986328 L 26 15.986328 L 26 23 L 14 23 L 14 12 C 14 10.872064 13.607252 9.8390569 12.970703 9 L 14.642578 9 L 13.914062 7 L 9 7 z M 9 9 C 10.668484 9 12 10.331516 12 12 L 12 23 L 6 23 L 6 12 C 6 10.346 7.346 9 9 9 z M 7 13 L 7 15 L 11 15 L 11 13 L 7 13 z"/></svg>