<svg fill="#ffffff" xmlns="http://www.w3.org/2000/svg" viewBox="0 0 32 32" width="64px" height="64px"><path d="M 15.003906 1 L 15.003906 2.019531 C 14.582031 2.058594 13.410156 2.210938 12.179688 2.828125 C 10.828125 3.507813 9.445313 4.9375 9.132813 7.144531 C 8.402344 7.28125 7.777344 7.53125 7.429688 8.015625 C 6.949219 8.6875 7 9.386719 7 9.726563 L 7 12 L 9.003906 12 C 9.003906 14.40625 10.234375 16.539063 12.09375 17.796875 C 8.519531 19.324219 6.003906 22.875 6.003906 27 L 8.003906 27 C 8.003906 24.761719 8.914063 22.746094 10.390625 21.296875 L 12.789063 24.34375 L 16.003906 22.203125 L 19.28125 24.386719 L 21.449219 21.140625 C 23.019531 22.597656 24.003906 24.679688 24.003906 27 L 26.003906 27 C 26.003906 22.875 23.488281 19.324219 19.914063 17.796875 C 21.773438 16.539063 23.003906 14.40625 23.003906 12 L 25 12 L 25 9.726563 C 25.003906 9.472656 25.140625 8.777344 24.671875 8.054688 C 24.324219 7.523438 23.664063 7.269531 22.875 7.136719 C 22.5625 4.925781 21.199219 3.492188 19.859375 2.816406 C 18.558594 2.160156 17.339844 2.035156 17.003906 2.011719 L 17.003906 1 Z M 17.003906 4.03125 C 17.289063 4.058594 18.0625 4.152344 18.957031 4.601563 C 19.835938 5.046875 20.632813 5.6875 20.902344 7 L 20.003906 7 L 20.003906 9 L 22.003906 9 C 22.953125 9 23.019531 9.179688 22.996094 9.144531 C 22.96875 9.109375 23.003906 9.273438 23 9.726563 L 23 10 L 9 10 L 9 9.726563 C 9 9.363281 9.042969 9.199219 9.054688 9.183594 C 9.066406 9.167969 9.160156 9 10 9 L 12.003906 9 L 12.003906 7 L 11.109375 7 C 11.382813 5.707031 12.183594 5.0625 13.074219 4.617188 C 13.941406 4.183594 14.671875 4.078125 15.003906 4.042969 L 15.003906 6.0625 L 17.003906 6.0625 Z M 11.003906 12 L 21.003906 12 C 21.003906 14.773438 18.777344 17 16.003906 17 C 13.230469 17 11.003906 14.773438 11.003906 12 Z M 16.003906 19 C 17.390625 19 18.691406 19.347656 19.828125 19.964844 L 18.726563 21.613281 L 16.003906 19.796875 L 13.21875 21.65625 L 11.984375 20.085938 C 13.164063 19.398438 14.535156 19 16.003906 19 Z"/></svg>