<svg xmlns="http://www.w3.org/2000/svg" viewBox="0 0 48 48" width="96px" height="96px"><polygon fill="#2a97f3" points="26,10.77 32.106,12.479 29.102,18.075 28.462,14.034"/><polygon fill="#2a97f3" points="27.318,3.737 40.306,8.982 35.073,21.999 34.84,11.314"/><path fill="#64b5f7" d="M29.373,14.638c-0.385,0-0.75-0.227-0.911-0.604c-0.215-0.504,0.02-1.087,0.523-1.301l13.666-5.829 c0.503-0.216,1.084,0.02,1.299,0.524c0.215,0.504-0.02,1.087-0.523,1.301l-13.666,5.829 C29.634,14.612,29.503,14.638,29.373,14.638z"/><rect width="40" height="13" x="4" y="30.999" fill="#c5cae9"/><rect width="12" height="14" x="8" y="16.999" fill="#9fa8da"/><polygon fill="#3f51b5" points="17,16.999 11,16.999 8,11.999 8,7.999 20,7.999 20,11.999"/><rect width="2" height="6" x="13" y="1.999" fill="#9fa8da"/><rect width="11" height="4" x="8" y="34.999" fill="#5c6bc1"/><rect width="5" height="9" x="34" y="34.999" fill="#5c6bc1"/><rect width="11" height="4" x="21" y="34.999" fill="#5c6bc1"/></svg>