<svg xmlns="http://www.w3.org/2000/svg" viewBox="0 0 48 48" width="96px" height="96px"><path fill="#D32F2F" d="M3 10H45V39H3z"/><path fill="#D32F2F" d="M24 31A5 5 0 1 0 24 41A5 5 0 1 0 24 31Z"/><path fill="#4C0808" d="M24 33A3 3 0 1 0 24 39A3 3 0 1 0 24 33Z"/><path fill="#D7CCC8" d="M40 7L25 10 23 10 8 7 6 12 6 36 42 36 42 12z"/><path fill="#BCAAA4" d="M8 33.001L23 33.001 23 36 25 36 25 33.001 40 33 42 36 6 36z"/><path fill="#EFEBE9" d="M40 7c0 0-15 0-15 3s0 26 0 26c0-3 15-3 15-3V7zM8 7c0 0 15 0 15 3s0 26 0 26c0-3-15-3-15-3V7z"/><g><path fill="#BCAAA4" d="M27 21.385c1.901-.699 6.209-1.252 11-1.376V18c-3.672.075-8.117.388-11 1.34V21.385zM27 25.385c1.901-.699 6.209-1.252 11-1.376V22c-3.672.075-8.117.388-11 1.34V25.385zM27 17.385c1.901-.699 6.209-1.252 11-1.376V14c-3.672.075-8.117.388-11 1.34V17.385zM27 11.34v2.045c1.901-.699 6.209-1.252 11-1.376V10C34.328 10.075 29.883 10.388 27 11.34zM32 26.366c-1.854.207-3.61.515-5 .974v2.045c1.043-.384 2.826-.72 5-.969V26.366zM21 21.385c-1.901-.699-6.209-1.252-11-1.376V18c3.672.075 8.117.388 11 1.34V21.385zM21 25.385c-1.901-.699-6.209-1.252-11-1.376V22c3.672.075 8.117.388 11 1.34V25.385zM21 29.385c-1.901-.699-6.209-1.252-11-1.376V26c3.672.075 8.117.388 11 1.34V29.385zM21 17.385c-1.901-.699-6.209-1.252-11-1.376V14c3.672.075 8.117.388 11 1.34V17.385zM21 11.34v2.045c-1.901-.699-6.209-1.252-11-1.376V10C13.672 10.075 18.117 10.388 21 11.34zM23 10H25V36H23z"/></g></svg>