<svg xmlns="http://www.w3.org/2000/svg" viewBox="0 0 48 48" width="96px" height="96px"><path fill="#90caf9" d="M41,24c0,8.835-7.165,16-16,16S9,32.835,9,24S16.165,8,25,8S41,15.165,41,24z"/><path fill="#64b5f6" d="M35.182,24c0,5.622-4.559,10.182-10.182,10.182S14.818,29.622,14.818,24S19.378,13.818,25,13.818 S35.182,18.378,35.182,24z"/><path fill="#bbdefb" d="M25,38.091c-7.77,0-14.091-6.321-14.091-14.091S17.23,9.909,25,9.909S39.091,16.23,39.091,24 S32.77,38.091,25,38.091z M25,11.909c-6.667,0-12.091,5.424-12.091,12.091S18.333,36.091,25,36.091S37.091,30.667,37.091,24 S31.667,11.909,25,11.909z"/><path fill="#0d47a1" d="M46 26.031V25h-3v1.031V37.57c0 .789.696 1.43 1.556 1.43h.893C46.304 39 47 38.359 47 37.57L46 26.031zM5.332 22L5 21H3l-.336 1L2 37.582C2 38.364 2.598 39 3.332 39h1.332C5.402 39 6 38.364 6 37.582L5.332 22z"/><path fill="#2196f3" d="M46 26.031h-3V10c0-.625.375-1 1-1s1 .5 1.5 1.25c1.024 1.536 2.5 5.647 2.5 11.25C48 23.607 47.375 25.156 46 26.031zM6 9v9H5V9H3v9H2V9H.668L0 19l2.664 3h2.668L8 19 7.336 9H6z"/></svg>