<svg xmlns="http://www.w3.org/2000/svg" viewBox="0 0 128 128" width="64px" height="64px"><path fill="#fff" d="M57,69H27c-2.8,0-5,2.2-5,5v40c0,2.8,2.2,5,5,5h30c2.8,0,5-2.2,5-5V74C62,71.2,59.8,69,57,69z"/><path fill="#71c2ff" d="M57,122H27c-4.4,0-8-3.6-8-8V74c0-4.4,3.6-8,8-8h30c4.4,0,8,3.6,8,8v40C65,118.4,61.4,122,57,122z M27,72c-1.1,0-2,0.9-2,2v40c0,1.1,0.9,2,2,2h30c1.1,0,2-0.9,2-2V74c0-1.1-0.9-2-2-2H27z"/><g><path fill="#444b54" d="M21.8 57c.2 0 .4 0 .6-.1.2 0 .4-.1.6-.2.2-.1.4-.2.5-.3.2-.1.3-.2.4-.4.6-.6.9-1.3.9-2.1s-.3-1.6-.9-2.1c-1.1-1.1-3.1-1.1-4.2 0-.1.1-.3.3-.4.5-.1.2-.2.3-.3.5-.1.2-.1.4-.2.6 0 .2-.1.4-.1.6 0 .8.3 1.6.9 2.1C20.2 56.7 21 57 21.8 57zM29 12.4c.3 0 .6 0 .8-.1 1.6-.5 2.5-2.1 2-3.7C31.4 7 29.7 6 28.1 6.5s-2.5 2.1-2.1 3.7C26.5 11.5 27.7 12.4 29 12.4zM21.8 25.1c1.7 0 3-1.4 3-3 0-1.6-1.3-3-3-3-1.7 0-3 1.4-3 3C18.8 23.7 20.1 25.1 21.8 25.1zM21.8 41c1.7 0 3-1.4 3-3 0-1.7-1.3-3-3-3-1.7 0-3 1.3-3 3C18.8 39.7 20.1 41 21.8 41zM105.9 98.6L105.9 98.6c1.7 0 3-1.3 3-3 0-1.7-1.3-3-3-3-1.6 0-3 1.3-3 3C102.9 97.3 104.2 98.6 105.9 98.6zM106 60.7c-1.6 0-3 1.3-3 3 0 1.6 1.3 3 3 3h0c1.6 0 3-1.3 3-3C109 62.1 107.7 60.7 106 60.7zM104.8 13c-1.6.5-2.4 2.2-1.9 3.8.4 1.3 1.6 2.1 2.9 2.1.3 0 .6 0 .9-.1 1.6-.5 2.4-2.2 1.9-3.8C108 13.4 106.3 12.5 104.8 13zM104.7 114.5c.3.1.5.1.8.1 1.3 0 2.5-.9 2.9-2.2.4-1.6-.5-3.2-2.1-3.7-1.6-.4-3.2.5-3.7 2.1C102.2 112.4 103.1 114 104.7 114.5zM90 119c0 1.7 1.4 3 3 3 1.7 0 3-1.3 3-3 0-1.7-1.3-3-3-3C91.3 116 90 117.3 90 119zM106.2 28.8c-1.7 0-3 1.3-3 3 0 1.7 1.3 3 3 3 0 0 0 0 0 0 1.6 0 3-1.3 3-3C109.1 30.1 107.8 28.8 106.2 28.8zM105.9 82.7C105.9 82.7 105.9 82.7 105.9 82.7c1.7 0 3-1.3 3-3 0-1.6-1.3-3-3-3-1.7 0-3 1.3-3 3C102.9 81.3 104.3 82.7 105.9 82.7zM106.1 44.8c-1.7 0-3 1.3-3 3 0 1.6 1.3 3 3 3 0 0 0 0 0 0 1.6 0 3-1.3 3-3C109.1 46.1 107.8 44.8 106.1 44.8zM92.8 6c-1.7 0-3 1.3-3 3 0 1.7 1.3 3 3 3 1.7 0 3-1.3 3-3C95.8 7.3 94.4 6 92.8 6zM76.8 6A3 3 0 1 0 76.8 12 3 3 0 1 0 76.8 6zM47.9 9c0-1.7-1.3-3-3-3-1.7 0-3 1.3-3 3 0 1.7 1.3 3 3 3C46.5 12 47.9 10.7 47.9 9zM60.8 6A3 3 0 1 0 60.8 12 3 3 0 1 0 60.8 6zM78.1 116.2c-.2-.1-.4-.1-.6-.2-.4-.1-.8-.1-1.2 0-.2 0-.4.1-.6.2-.2.1-.3.2-.5.3-.2.1-.3.2-.5.4-.6.6-.9 1.3-.9 2.1 0 .2 0 .4.1.6 0 .2.1.4.2.6.1.2.2.4.3.5.1.2.2.3.4.4.1.1.3.3.5.4.2.1.3.2.5.3.2.1.4.1.6.2.2 0 .4.1.6.1.2 0 .4 0 .6-.1.2 0 .4-.1.6-.2.2-.1.4-.2.5-.3.2-.1.3-.2.4-.4.1-.1.3-.3.4-.4.1-.2.2-.3.3-.5.1-.2.1-.4.2-.6 0-.2.1-.4.1-.6 0-.8-.3-1.6-.9-2.1-.1-.1-.3-.3-.4-.4C78.5 116.4 78.3 116.3 78.1 116.2z"/></g></svg>