<svg xmlns="http://www.w3.org/2000/svg" viewBox="0 0 128 128" width="64px" height="64px"><path fill="#c7d7e2" d="M59.7,72.2h12c11.8,0,23,4.7,31.4,13l0,0v-13c7.2,0,13-5.8,13-13V33.3c0-7.2-5.8-13-13-13H59.7 c-7.2,0-13,5.8-13,13v25.9C46.7,66.4,52.5,72.2,59.7,72.2z"/><path fill="#454b54" d="M103,88.2c-0.8,0-1.5-0.3-2.1-0.9c-3.1-3.1-6.6-5.6-10.5-7.6c-1.5-0.8-2.1-2.6-1.3-4 c0.7-1.5,2.6-2.1,4-1.3c2.4,1.2,4.7,2.7,6.9,4.3v-6.4c0-1.7,1.3-3,3-3c5.5,0,10-4.5,10-10v-26c0-5.5-4.5-10-10-10H59.7 c-5.5,0-10,4.5-10,10c0,1.7-1.3,3-3,3s-3-1.3-3-3c0-8.8,7.2-16,16-16H103c8.8,0,16,7.2,16,16v25.9c0,7.8-5.6,14.3-13,15.7v10.3 c0,1.2-0.7,2.3-1.9,2.8C103.8,88.1,103.4,88.2,103,88.2z"/><path fill="#fff" d="M68.3,94.7h-12c-11.8,0-23,4.7-31.4,13v-13c-7.2,0-13-5.8-13-13V55.8c0-7.2,5.8-13,13-13h43.3 c7.2,0,13,5.8,13,13v25.9C81.3,88.9,75.5,94.7,68.3,94.7"/><path fill="#dadbdd" d="M64 58.2H29.3c-1.7 0-3 1.3-3 3 0 1.7 1.3 3 3 3H64c1.7 0 3-1.3 3-3C67 59.5 65.7 58.2 64 58.2M42.3 71.2h-13c-1.7 0-3 1.3-3 3 0 1.7 1.3 3 3 3h13c1.7 0 3-1.3 3-3C45.3 72.5 44 71.2 42.3 71.2"/><path fill="#454b54" d="M25,110.7c-0.4,0-0.8-0.1-1.1-0.2c-1.1-0.5-1.9-1.6-1.9-2.8V97.4C14.6,96,9,89.5,9,81.7V55.8 c0-8.8,7.2-16,16-16h43.3c8.8,0,16,7.2,16,16v25.9c0,8.8-7.2,16-16,16h-12c-11,0-21.4,4.3-29.2,12.1C26.5,110.4,25.8,110.7,25,110.7 z M25,45.8c-5.5,0-10,4.5-10,10v25.9c0,5.5,4.5,10,10,10c1.7,0,3,1.3,3,3v6.4c8.1-6.1,18-9.4,28.4-9.4h12c5.5,0,10-4.5,10-10V55.8 c0-5.5-4.5-10-10-10H25z"/></svg>