<svg id="a2e2eae2-0df3-430b-931a-aec6fff43ab0" data-name="Layer 1" xmlns="http://www.w3.org/2000/svg" width="64" height="64" viewBox="0 0 64 64"><rect x="13.4907" y="17.5" width="15" height="15" fill="#fff"/><rect x="13.4907" y="39.5" width="15" height="15" fill="#fff"/><path d="M28.4907,16h-15a1.4732,1.4732,0,0,0-1.5,1.5v15a1.4732,1.4732,0,0,0,1.5,1.5h15a1.4733,1.4733,0,0,0,1.5-1.5v-15A1.4733,1.4733,0,0,0,28.4907,16Zm-1.5,15h-12V19h12Z" fill="#444b54"/><path d="M28.4907,38h-15a1.4732,1.4732,0,0,0-1.5,1.5v15a1.4732,1.4732,0,0,0,1.5,1.5h15a1.4733,1.4733,0,0,0,1.5-1.5v-15A1.4733,1.4733,0,0,0,28.4907,38Zm-1.5,15h-12V41h12Z" fill="#444b54"/><rect x="35.5093" y="9.5" width="15" height="15" fill="#fff"/><rect x="35.5093" y="31.5" width="15" height="15" fill="#fff"/><path d="M50.5093,8h-15a1.4733,1.4733,0,0,0-1.5,1.5v15a1.4733,1.4733,0,0,0,1.5,1.5h15a1.4732,1.4732,0,0,0,1.5-1.5V9.5A1.4732,1.4732,0,0,0,50.5093,8Zm-1.5,15h-12V11h12Z" fill="#444b54"/><path d="M50.5093,30h-15a1.4733,1.4733,0,0,0-1.5,1.5v15a1.4733,1.4733,0,0,0,1.5,1.5h15a1.4732,1.4732,0,0,0,1.5-1.5v-15A1.4732,1.4732,0,0,0,50.5093,30Zm-1.5,15h-12V33h12Z" fill="#444b54"/></svg>