<svg fill="#ffffff" xmlns="http://www.w3.org/2000/svg" viewBox="0 0 32 32" width="64px" height="64px"><path d="M 21.5 5 C 20.851563 5 20.335938 5.230469 19.8125 5.5 C 19.289063 5.769531 18.769531 6.105469 18.3125 6.4375 C 17.398438 7.101563 16.6875 7.75 16.6875 7.75 L 15.875 8.5 L 16.6875 9.25 C 16.6875 9.25 17.398438 9.898438 18.3125 10.5625 C 18.769531 10.894531 19.289063 11.230469 19.8125 11.5 C 20.335938 11.769531 20.851563 12 21.5 12 C 23.421875 12 25 10.421875 25 8.5 C 25 6.578125 23.421875 5 21.5 5 Z M 21.5 7 C 22.339844 7 23 7.660156 23 8.5 C 23 9.339844 22.339844 10 21.5 10 C 21.457031 10 21.101563 9.917969 20.71875 9.71875 C 20.335938 9.519531 19.90625 9.230469 19.5 8.9375 C 19.203125 8.722656 19.199219 8.6875 18.96875 8.5 C 19.199219 8.3125 19.203125 8.277344 19.5 8.0625 C 19.90625 7.769531 20.335938 7.480469 20.71875 7.28125 C 21.101563 7.082031 21.457031 7 21.5 7 Z M 14.5 10.4375 C 14.011719 10.488281 13.527344 10.703125 13.1875 11.09375 L 10.4375 14.25 L 10.40625 14.28125 C 9.679688 15.175781 10.023438 16.589844 11.09375 17.03125 L 15.53125 18.875 L 15.53125 18.90625 L 14.625 23.875 L 16.59375 24.25 L 17.5 19.25 C 17.667969 18.332031 17.171875 17.390625 16.3125 17.03125 L 12.1875 15.3125 L 14.71875 12.40625 L 19.21875 15.78125 L 19.5 16 L 25 16 L 25 14 L 20.1875 14 L 15.90625 10.8125 C 15.492188 10.5 14.988281 10.386719 14.5 10.4375 Z M 8.5 18 C 6.03125 18 4 20.03125 4 22.5 C 4 24.96875 6.03125 27 8.5 27 C 10.96875 27 13 24.96875 13 22.5 C 13 20.03125 10.96875 18 8.5 18 Z M 23.5 18 C 21.03125 18 19 20.03125 19 22.5 C 19 24.96875 21.03125 27 23.5 27 C 25.96875 27 28 24.96875 28 22.5 C 28 20.03125 25.96875 18 23.5 18 Z M 8.5 20 C 9.878906 20 11 21.121094 11 22.5 C 11 23.878906 9.878906 25 8.5 25 C 7.121094 25 6 23.878906 6 22.5 C 6 21.121094 7.121094 20 8.5 20 Z M 23.5 20 C 24.878906 20 26 21.121094 26 22.5 C 26 23.878906 24.878906 25 23.5 25 C 22.121094 25 21 23.878906 21 22.5 C 21 21.121094 22.121094 20 23.5 20 Z"/></svg>