<svg fill="#ffffff" xmlns="http://www.w3.org/2000/svg" viewBox="0 0 32 32" width="64px" height="64px"><path d="M 6 4 L 6 6 L 9.5800781 6 C 8.7999865 7.247894 7 10.335496 7 14 L 9 14 C 9 10.5 11.832031 6.0546875 11.832031 6.0546875 L 12 5.8027344 L 12 4 L 6 4 z M 16 4 C 14.354937 4 13 5.3549372 13 7 L 13 11 C 13 12.645063 14.354937 14 16 14 C 17.645063 14 19 12.645063 19 11 L 19 7 C 19 5.3549372 17.645063 4 16 4 z M 16 6 C 16.562937 6 17 6.4370628 17 7 L 17 11 C 17 11.562937 16.562937 12 16 12 C 15.437063 12 15 11.562937 15 11 L 15 7 C 15 6.4370628 15.437063 6 16 6 z M 23.5 6 C 22.130937 6 21 7.1309372 21 8.5 C 21 9.2083333 21.412541 9.8118834 21.828125 10.158203 C 22.243709 10.504523 22.677734 10.707031 23.052734 10.894531 C 23.427734 11.082031 23.743709 11.254523 23.890625 11.376953 C 24.037541 11.499383 24 11.458333 24 11.5 C 24 11.786937 23.786937 12 23.5 12 C 23.213063 12 23 11.786937 23 11.5 L 21 11.5 C 21 12.869063 22.130937 14 23.5 14 C 24.869063 14 26 12.869063 26 11.5 C 26 10.791667 25.587459 10.188117 25.171875 9.8417969 C 24.756291 9.4954771 24.322266 9.2929688 23.947266 9.1054688 C 23.572266 8.9179688 23.256291 8.7454771 23.109375 8.6230469 C 22.962459 8.5006167 23 8.5416667 23 8.5 C 23 8.2130628 23.213063 8 23.5 8 C 23.786937 8 24 8.2130628 24 8.5 L 26 8.5 C 26 7.1309372 24.869063 6 23.5 6 z M 4 16 C 4 22.615466 9.3845336 28 16 28 C 22.615466 28 28 22.615466 28 16 L 26 16 C 26 21.534534 21.534534 26 16 26 C 10.465466 26 6 21.534534 6 16 L 4 16 z M 11 16 C 11 18.749516 13.250484 21 16 21 C 18.749516 21 21 18.749516 21 16 L 19 16 C 19 17.668484 17.668484 19 16 19 C 14.331516 19 13 17.668484 13 16 L 11 16 z M 15 16 C 15 16.552 15.448 17 16 17 C 16.552 17 17 16.552 17 16 L 15 16 z M 10.947266 19.638672 L 9.0566406 21.529297 L 10.470703 22.943359 L 12.361328 21.052734 L 10.947266 19.638672 z"/></svg>