<svg fill="#ffffff" xmlns="http://www.w3.org/2000/svg" viewBox="0 0 32 32" width="64px" height="64px"><path d="M 3 6 L 3 25 L 13 25 C 14.103 25 15 25.897 15 27 L 17 27 C 17 25.897 17.897 25 19 25 L 29 25 L 29 6 L 19 6 C 17.807 6 16.733 6.5254219 16 7.3574219 C 15.267 6.5254219 14.193 6 13 6 L 3 6 z M 5 8 L 13 8 C 14.103 8 15 8.897 15 10 L 15 11 L 17 11 L 17 10 C 17 8.897 17.897 8 19 8 L 27 8 L 27 23 L 19 23 C 18.267335 23 17.591478 23.216973 17 23.5625 L 17 23 L 15 23 L 15 23.5625 C 14.408522 23.216973 13.732665 23 13 23 L 5 23 L 5 8 z M 15 13 L 15 16 L 17 16 L 17 13 L 15 13 z M 15 18 L 15 21 L 17 21 L 17 18 L 15 18 z"/></svg>