<?xml version="1.0" encoding="utf-8"?>
<!-- Generator: Adobe Illustrator 24.1.3, SVG Export Plug-In . SVG Version: 6.00 Build 0)  -->
<svg version="1.1" id="Layer_1" xmlns="http://www.w3.org/2000/svg" xmlns:xlink="http://www.w3.org/1999/xlink" x="0px" y="0px"
	 viewBox="0 0 165 110" style="enable-background:new 0 0 165 110;" xml:space="preserve">
<style type="text/css">
	.st0{opacity:0.25;}
	.st1{fill-rule:evenodd;clip-rule:evenodd;fill:#FFFFFF;}
</style>
<g class="st0">
	<g>
		<g>
			<g>
				<path class="st1" d="M126.8,51.6c0-0.1,2.5-1.3,0.3-2.8L83.7,36.8c0,0-1.7-0.3-3.8,0.4L37.8,48.8c0,0-2.4,1.5,0.7,2.6l42.1,11.8
					c0,0,1.8,1.2,3.7,0C82.4,64.4,126.8,51.7,126.8,51.6L126.8,51.6z M115.3,51.2c0-0.1,1.9-0.9,0.2-2l-32.3-8.7
					c0,0-1.3-0.2-2.8,0.3L49,49.2c0,0-1.8,1,0.5,1.9l31.3,8.5c0,0,1.4,0.8,2.7,0C82.2,60.4,115.3,51.3,115.3,51.2L115.3,51.2z"/>
				<path class="st1" d="M103.7,51c0-0.1,1.2-0.6,0.1-1.3L83.3,44c0,0-0.8-0.1-1.8,0.2l-19.9,5.5c0,0-1.1,0.7,0.3,1.2l19.9,5.6
					c0,0,0.9,0.6,1.7,0C82.7,57,103.7,51,103.7,51L103.7,51z M91.2,50.4c0,0,0.5-0.3,0.1-0.5l-8.7-2.4c0,0-0.3-0.1-0.8,0.1l-8.4,2.3
					c0,0-0.5,0.3,0.1,0.5l8.4,2.3c0,0,0.4,0.2,0.7,0C82.4,53,91.2,50.4,91.2,50.4L91.2,50.4z"/>
			</g>
			<g>
				<path class="st1" d="M44.3,69.7c0,0.1-0.3,1.1,0.8,1.4l2.7,0c0,0,0.6-0.1,0.5-1.2l0-3.3c0,0,0-0.8,1-1l3.3,0
					c0,0,0.9,0.4,0.9,0.8l0,6c0,0-0.3,0.7-0.8,0.7l-12,0c0,0-1.3-0.3-1.6-1.6L39,66.6c0,0,0.1-0.7,1-0.9h3.4c0,0,0.9,0.2,0.9,1
					l0,1.2C44.3,67.8,44.3,69.6,44.3,69.7L44.3,69.7z"/>
				<path class="st1" d="M70.2,65.6c0,0,2.5-0.2,3.2,2.2v4.7c0,0-0.2,0.4-0.9,0.6h-2.6c0,0-0.6-0.3-0.8-0.7l0-3.9
					c0,0-0.2-0.6-0.9-0.7c0,0-0.7-0.1-0.9,0.7l0,3.8c0,0-0.2,0.7-1,0.7h-2.6c0,0-0.4-0.1-0.7-0.7l0-3.8c0,0-0.2-0.7-1-0.7
					c0,0-0.8-0.1-0.9,1v3.7c0,0-0.1,0.7-0.8,0.7h-2.6c0,0-0.7-0.3-0.8-0.8v-5.7c0,0,0.1-0.9,1.2-1l10.9,0
					C69,65.6,70.1,65.6,70.2,65.6L70.2,65.6z"/>
			</g>
			<path class="st1" d="M77.6,65.5c0-0.1-0.7,0.2-1,0.8l0,6.2c0,0,0.4,0.6,0.9,0.6l12.2,0c0,0,1.9-0.7,1.7-2.1c0,0-0.1-0.9-1.2-1.7
				c0,0,1.1-1.1,1-2c0,0-0.5-1.6-2.3-1.9h-8.2C80.8,65.5,77.7,65.6,77.6,65.5L77.6,65.5z M81.6,67.2h4.2c0.5,0,0.8,0.4,0.8,0.9l0,0
				c0,0.5-0.4,0.9-0.8,0.9h-4.2c-0.5,0-0.8-0.4-0.8-0.9l0,0C80.8,67.6,81.2,67.2,81.6,67.2L81.6,67.2z M81.6,70h4.3
				c0.5,0,0.9,0.4,0.9,0.9v0c0,0.5-0.4,0.9-0.9,0.9h-4.3c-0.5,0-0.9-0.4-0.9-0.9v0C80.8,70.4,81.2,70,81.6,70L81.6,70z"/>
		</g>
		<path class="st1" d="M105.1,65.5c0,0,2.6-0.2,3.5,1.6c0,0,0.6,1.6-0.8,2.6c0,0-0.8,0.4,0,1c0,0,1.3,0.9,1.3,1.7
			c0,0,0.1,0.6-0.9,0.8l-3.2,0c0,0-0.7-0.1-0.9-0.5l-1-1.1c0,0,0.1-0.3-2-0.6h-1.7c0,0-0.7,0.2-0.7,0.9c0,0,0.1,0.7-0.2,1
			c0,0-0.1,0.4-0.8,0.4l-2.9,0c0,0-0.6,0-0.8-0.8l0-6c0,0,0.1-0.7,0.8-0.9h8.4C103.3,65.5,105.1,65.6,105.1,65.5L105.1,65.5z
			 M99,67.1h4.4c0.5,0,0.9,0.4,0.9,1l0,0c0,0.5-0.4,1-0.9,1H99c-0.5,0-0.9-0.4-0.9-1l0,0C98.1,67.6,98.5,67.1,99,67.1L99,67.1z"/>
	</g>
	<path class="st1" d="M114.1,65.6h9.8c1.4,0,2.5,1.3,2.5,2.8v2.1c0,1.5-1.1,2.8-2.5,2.8h-9.8c-1.4,0-2.5-1.3-2.5-2.8v-2.1
		C111.5,66.8,112.7,65.6,114.1,65.6L114.1,65.6z M118,67.2h2c0.8,0,1.5,0.8,1.5,1.7v1.3c0,0.9-0.7,1.7-1.5,1.7h-2
		c-0.8,0-1.5-0.8-1.5-1.7v-1.3C116.4,67.9,117.1,67.2,118,67.2L118,67.2z"/>
</g>
</svg>
