<?xml version="1.0"?><svg fill="#ffffff" xmlns="http://www.w3.org/2000/svg" viewBox="0 0 128 128" width="64px" height="64px">    <path d="M 46 0.5 C 40.5 0.5 36 5 36 10.5 C 36 16 40.5 20.5 46 20.5 L 62 20.5 C 66.3 20.5 69.900391 17.8 71.400391 14 L 91 14 C 94.9 14 98 17.1 98 21 L 98 61 C 98 62.7 99.3 64 101 64 C 102.7 64 104 62.7 104 61 L 104 21 C 104 13.8 98.2 8 91 8 L 71.699219 8 C 70.599219 3.7 66.7 0.5 62 0.5 L 46 0.5 z M 46 6.5 L 62 6.5 C 64.2 6.5 66 8.3 66 10.5 C 66 12.7 64.2 14.5 62 14.5 L 46 14.5 C 43.8 14.5 42 12.7 42 10.5 C 42 8.3 43.8 6.5 46 6.5 z M 17 8 C 9.8 8 4 13.8 4 21 L 4 114 C 4 121.2 9.8 127 17 127 L 69 127 C 70.7 127 72 125.7 72 124 C 72 122.3 70.7 121 69 121 L 17 121 C 13.1 121 10 117.9 10 114 L 10 21 C 10 17.1 13.1 14 17 14 L 27 14 C 28.7 14 30 12.7 30 11 C 30 9.3 28.7 8 27 8 L 17 8 z M 54 42 C 52.3 42 51 43.3 51 45 L 51 45.400391 C 46.3 46.700391 42.900391 50.999609 42.900391 56.099609 C 42.900391 59.699609 44.599609 62.999609 47.599609 65.099609 L 56.900391 71.599609 C 58.300391 72.599609 59.199219 74.100781 59.199219 75.800781 C 59.199219 78.600781 56.899609 80.900391 54.099609 80.900391 C 52.099609 80.900391 50.200391 79.700781 49.400391 77.800781 C 48.700391 76.300781 47 75.599219 45.5 76.199219 C 44 76.899219 43.300391 78.599609 43.900391 80.099609 C 45.300391 83.199609 47.899609 85.500391 51.099609 86.400391 L 51.099609 87 C 51.099609 88.7 52.399609 90 54.099609 90 C 55.799609 90 57.099609 88.7 57.099609 87 L 57.099609 86.599609 C 61.699609 85.299609 65.099609 81.000391 65.099609 75.900391 C 65.099609 72.200391 63.300781 68.799219 60.300781 66.699219 L 51 60.300781 C 49.7 59.300781 48.900391 57.799609 48.900391 56.099609 C 48.900391 53.299609 51.2 51 54 51 C 56.1 51 57.899219 52.199609 58.699219 54.099609 C 59.299219 55.599609 61.099609 56.299219 62.599609 55.699219 C 64.099609 55.099219 64.799219 53.300781 64.199219 51.800781 C 62.899219 48.600781 60.2 46.300391 57 45.400391 L 57 45 C 57 43.3 55.7 42 54 42 z M 101 75 C 86.7 75 75 86.7 75 101 C 75 115.3 86.7 127 101 127 C 115.3 127 127 115.3 127 101 C 127 86.7 115.3 75 101 75 z M 101 81 C 112 81 121 90 121 101 C 121 112 112 121 101 121 C 90 121 81 112 81 101 C 81 90 90 81 101 81 z M 101 88 C 99.3 88 98 89.3 98 91 L 98 101 C 98 102.7 99.3 104 101 104 L 111 104 C 112.7 104 114 102.7 114 101 C 114 99.3 112.7 98 111 98 L 104 98 L 104 91 C 104 89.3 102.7 88 101 88 z"/></svg>