<svg fill="#2196f3" xmlns="http://www.w3.org/2000/svg" viewBox="0 0 50 50" width="50px" height="50px"><path d="M 21.46875 2 C 16.890625 2 13.558594 3.859375 11.8125 6.59375 C 10.171875 9.164063 9.984375 12.421875 11.09375 15.4375 C 10.679688 15.980469 10.347656 16.6875 10.46875 17.71875 C 10.605469 18.898438 10.925781 19.746094 11.375 20.34375 C 11.609375 20.652344 11.925781 20.683594 12.21875 20.84375 C 12.367188 21.816406 12.585938 22.824219 12.9375 23.65625 C 13.140625 24.136719 13.355469 24.566406 13.59375 24.9375 C 13.699219 25.097656 13.882813 25.203125 14 25.34375 L 14 28.75 C 13.691406 29.511719 13.050781 30.109375 12.03125 30.6875 C 10.964844 31.289063 9.546875 31.832031 8.125 32.53125 C 6.703125 33.230469 5.25 34.101563 4.09375 35.4375 C 2.9375 36.773438 2.136719 38.570313 2 40.9375 C 1.984375 41.214844 2.082031 41.484375 2.269531 41.683594 C 2.460938 41.886719 2.722656 42 3 42 L 25.625 42 C 27.703125 45.582031 31.570313 48 36 48 C 42.617188 48 48 42.617188 48 36 C 48 29.4375 42.699219 24.085938 36.15625 24 C 36.128906 23.289063 36.121094 22.613281 36.125 21.875 C 36.207031 21.773438 36.359375 21.707031 36.4375 21.59375 C 36.660156 21.277344 36.871094 20.914063 37.0625 20.5 C 37.390625 19.792969 37.609375 18.9375 37.75 18.09375 C 37.988281 17.949219 38.25 17.9375 38.4375 17.6875 C 38.839844 17.152344 39.101563 16.417969 39.21875 15.40625 C 39.289063 14.785156 39.230469 14.226563 39.03125 13.75 C 38.972656 13.609375 38.773438 13.566406 38.6875 13.4375 C 38.941406 12.859375 39.210938 12.292969 39.28125 11.5625 C 39.382813 10.515625 39.324219 9.332031 39.03125 8.1875 C 38.738281 7.042969 38.222656 5.9375 37.34375 5.0625 C 36.609375 4.332031 35.558594 3.871094 34.375 3.71875 L 33.8125 2.5625 C 33.644531 2.214844 33.292969 1.996094 32.90625 2 C 29.6875 2 27.1875 3.101563 25.5625 4.8125 C 24.84375 4.398438 24 4.136719 23.0625 4.03125 L 22.375 2.5625 C 22.207031 2.214844 21.855469 1.996094 21.46875 2 Z M 20.84375 4.0625 L 21.46875 5.34375 C 21.636719 5.691406 21.988281 5.910156 22.375 5.90625 C 23.636719 5.90625 24.480469 6.328125 25.15625 7 C 25.832031 7.671875 26.316406 8.636719 26.59375 9.71875 C 26.871094 10.800781 26.9375 11.980469 26.84375 12.96875 C 26.75 13.957031 26.445313 14.773438 26.25 15.03125 C 26.050781 15.28125 25.980469 15.613281 26.070313 15.925781 C 26.15625 16.234375 26.386719 16.484375 26.6875 16.59375 C 26.6875 16.605469 26.675781 16.597656 26.6875 16.625 C 26.75 16.773438 26.832031 17.074219 26.78125 17.5 C 26.671875 18.441406 26.441406 18.914063 26.28125 19.125 C 26.121094 19.335938 26.035156 19.316406 26.0625 19.3125 C 25.582031 19.355469 25.199219 19.738281 25.15625 20.21875 C 25.070313 21.046875 24.746094 22.050781 24.375 22.84375 C 24.191406 23.238281 24.011719 23.574219 23.84375 23.8125 C 23.734375 23.96875 23.632813 24.082031 23.59375 24.125 C 23.28125 24.304688 23.089844 24.640625 23.09375 25 C 23.09375 25.945313 23 27.945313 23 29 C 23 29.117188 23.023438 29.234375 23.0625 29.34375 C 23.40625 30.308594 24.066406 31.015625 24.84375 31.59375 C 24.300781 32.960938 24 34.441406 24 36 C 24 37.40625 24.242188 38.746094 24.6875 40 L 4.21875 40 C 4.46875 38.640625 4.921875 37.558594 5.625 36.75 C 6.511719 35.726563 7.714844 34.960938 9.03125 34.3125 C 10.347656 33.664063 11.742188 33.148438 13 32.4375 C 14.257813 31.726563 15.421875 30.792969 15.9375 29.34375 C 15.976563 29.234375 16 29.117188 16 29 L 16 25 C 15.992188 24.652344 15.800781 24.332031 15.5 24.15625 C 15.5 24.160156 15.5 24.140625 15.46875 24.125 C 15.433594 24.082031 15.371094 23.984375 15.28125 23.84375 C 15.128906 23.609375 14.949219 23.273438 14.78125 22.875 C 14.445313 22.082031 14.148438 21.074219 14.0625 20.21875 C 14.019531 19.738281 13.636719 19.355469 13.15625 19.3125 C 13.183594 19.316406 13.128906 19.335938 12.96875 19.125 C 12.808594 18.914063 12.578125 18.441406 12.46875 17.5 C 12.375 16.707031 12.789063 16.425781 12.71875 16.46875 C 13.136719 16.203125 13.296875 15.671875 13.09375 15.21875 C 11.960938 12.585938 12.140625 9.816406 13.5 7.6875 C 14.78125 5.679688 17.175781 4.222656 20.84375 4.0625 Z M 32.34375 4.125 L 32.78125 5.03125 C 32.949219 5.378906 33.300781 5.597656 33.6875 5.59375 C 34.710938 5.59375 35.363281 5.929688 35.90625 6.46875 C 36.449219 7.007813 36.867188 7.796875 37.09375 8.6875 C 37.320313 9.578125 37.359375 10.558594 37.28125 11.375 C 37.203125 12.191406 36.945313 12.855469 36.8125 13.03125 C 36.632813 13.273438 36.574219 13.578125 36.644531 13.871094 C 36.71875 14.160156 36.917969 14.402344 37.1875 14.53125 C 37.226563 14.625 37.257813 14.851563 37.21875 15.1875 C 37.128906 15.960938 36.953125 16.351563 36.84375 16.5 C 36.789063 16.574219 36.761719 16.589844 36.75 16.59375 C 36.292969 16.648438 35.929688 17.011719 35.875 17.46875 C 35.804688 18.140625 35.554688 18.972656 35.25 19.625 C 35.097656 19.953125 34.914063 20.246094 34.78125 20.4375 C 34.679688 20.582031 34.554688 20.683594 34.5625 20.6875 C 34.285156 20.878906 34.121094 21.195313 34.125 21.53125 C 34.125 22.425781 34.117188 23.234375 34.15625 24.15625 C 30.597656 24.710938 27.550781 26.820313 25.75 29.78125 C 25.398438 29.449219 25.148438 29.097656 25 28.71875 C 25.007813 27.804688 25.082031 26.355469 25.09375 25.34375 C 25.207031 25.214844 25.363281 25.121094 25.46875 24.96875 C 25.722656 24.605469 25.960938 24.171875 26.1875 23.6875 C 26.578125 22.851563 26.871094 21.839844 27.03125 20.84375 C 27.324219 20.683594 27.640625 20.652344 27.875 20.34375 C 28.324219 19.746094 28.613281 18.898438 28.75 17.71875 C 28.832031 17.007813 28.75 16.371094 28.53125 15.84375 C 28.449219 15.648438 28.21875 15.574219 28.09375 15.40625 C 28.414063 14.722656 28.757813 14.054688 28.84375 13.15625 C 28.960938 11.9375 28.871094 10.554688 28.53125 9.21875 C 28.253906 8.125 27.773438 7.0625 27.0625 6.15625 C 28.191406 5.015625 29.9375 4.253906 32.34375 4.125 Z M 36 26 C 41.535156 26 46 30.464844 46 36 C 46 41.535156 41.535156 46 36 46 C 30.464844 46 26 41.535156 26 36 C 26 34.652344 26.269531 33.359375 26.75 32.1875 C 27.058594 31.980469 27.226563 31.621094 27.1875 31.25 C 28.871094 28.113281 32.179688 26 36 26 Z M 36.78125 27.03125 L 36.65625 29.03125 L 37.375 29.125 L 37.4375 29.15625 L 37.46875 29.15625 L 37.53125 28.84375 L 37.9375 27.21875 L 37.875 27.1875 L 37.75 27.1875 L 36.96875 27.0625 L 36.90625 27.03125 Z M 34.59375 27.125 L 34.25 27.1875 L 34.125 27.1875 L 33.53125 27.34375 L 34.03125 29.28125 L 34.53125 29.15625 L 34.625 29.125 L 34.90625 29.09375 Z M 39.96875 27.9375 L 39.09375 29.75 L 39.28125 29.8125 L 39.375 29.875 L 39.875 30.1875 L 40.90625 28.46875 L 40.34375 28.125 L 40.28125 28.09375 L 40.25 28.0625 Z M 31.46875 28.21875 L 31 28.5 L 30.9375 28.5625 L 30.5625 28.84375 L 31.78125 30.4375 L 32.03125 30.21875 L 32.09375 30.1875 L 32.125 30.15625 L 32.5 29.9375 Z M 42.625 29.9375 L 41.15625 31.28125 L 41.375 31.5 L 41.4375 31.59375 L 41.71875 31.96875 L 43.3125 30.75 L 42.96875 30.3125 L 42.90625 30.25 Z M 28.96875 30.40625 L 28.5625 30.9375 L 28.5 31 L 28.34375 31.28125 L 30.0625 32.3125 L 30.1875 32.0625 L 30.21875 32.03125 L 30.5625 31.59375 Z M 33.84375 31.5 L 33 36.125 L 34.53125 36.125 C 34.699219 35.894531 35.054688 35.46875 35.8125 35.46875 C 36.082031 35.46875 37.25 35.566406 37.25 37.03125 C 37.25 37.550781 36.953125 38.65625 35.8125 38.65625 C 34.753906 38.65625 34.476563 37.757813 34.4375 37.375 L 32.75 37.375 C 32.734375 38.382813 33.441406 40.03125 35.84375 40.03125 C 38.128906 40.03125 38.96875 38.136719 38.96875 37.03125 C 38.96875 36.453125 38.65625 34.1875 36.375 34.1875 C 35.410156 34.1875 34.980469 34.582031 34.75 34.8125 L 34.71875 34.8125 L 35.0625 32.90625 L 38.5 32.90625 L 38.5 31.5 Z M 44.375 32.75 L 42.5 33.4375 L 42.65625 33.875 L 42.65625 33.90625 L 42.6875 33.96875 L 42.78125 34.28125 L 44.71875 33.78125 L 44.59375 33.375 L 44.59375 33.28125 Z M 27.4375 33.25 L 27.40625 33.28125 L 27.40625 33.375 L 27.1875 34.125 L 27.1875 34.25 L 27.15625 34.40625 L 29.125 34.6875 L 29.125 34.625 L 29.15625 34.53125 L 29.3125 33.96875 L 29.3125 33.9375 L 29.34375 33.875 L 28.65625 33.6875 Z M 43 35.9375 L 43 36.0625 L 42.96875 36.65625 L 42.9375 36.84375 L 44.9375 37.125 L 44.9375 36.96875 L 44.96875 36.90625 L 44.96875 36.875 L 45 36.0625 L 44 36 L 43.84375 36 Z M 29.03125 36.46875 L 27.03125 36.5625 L 27.03125 36.90625 L 27.0625 36.96875 L 27.15625 37.625 L 29.125 37.34375 L 29.03125 36.78125 Z M 42.5 38.53125 L 42.46875 38.6875 L 42.4375 38.71875 L 42.4375 38.78125 L 42.15625 39.34375 L 43.9375 40.21875 L 44.28125 39.5625 L 44.28125 39.5 L 44.3125 39.46875 L 44.40625 39.21875 Z M 29.65625 38.90625 L 27.84375 39.78125 L 28.0625 40.25 L 28.09375 40.28125 L 28.125 40.34375 L 28.34375 40.75 L 30.0625 39.6875 L 29.875 39.375 L 29.8125 39.28125 Z M 41.15625 40.71875 L 40.53125 41.34375 L 41.875 42.8125 L 42.34375 42.40625 L 42.40625 42.34375 L 42.65625 42.0625 Z M 31.125 41 L 29.78125 42.5 L 30.25 42.90625 L 30.3125 42.96875 L 30.59375 43.1875 L 31.78125 41.59375 L 31.59375 41.4375 L 31.5 41.375 Z M 39.125 42.25 L 38.78125 42.4375 L 38.3125 42.59375 L 39 44.46875 L 39.46875 44.3125 L 39.5 44.28125 L 39.5625 44.28125 L 40 44.0625 Z M 33.21875 42.4375 L 32.53125 44.3125 L 33.28125 44.59375 L 33.375 44.59375 L 33.5625 44.65625 L 34.0625 42.71875 Z M 36.6875 42.96875 L 36.0625 43 L 35.8125 43 L 35.71875 45 L 36.0625 45 L 36.78125 44.96875 Z"/></svg>