<svg fill="#ffffff" xmlns="http://www.w3.org/2000/svg" viewBox="0 0 32 32" width="64px" height="64px"><path d="M 26 3 C 24.199219 3 22.628906 4.1875 20.96875 5.4375 C 20.652344 5.675781 20.328125 5.921875 20 6.15625 L 20 8.53125 C 20.761719 8.054688 21.496094 7.550781 22.1875 7.03125 C 23.574219 5.988281 24.871094 5 26 5 C 27.566406 5 27.894531 6.289063 27.96875 6.84375 C 27.5625 7.765625 25.578125 11.753906 20.75 13.03125 L 20.28125 13.15625 L 20.09375 13.5625 C 18.65625 16.605469 16.476563 18.160156 16.4375 18.1875 L 8.15625 24.59375 C 7.285156 23.472656 5.703125 21.335938 4.90625 19.59375 C 4.691406 19.125 4.519531 18.625 4.375 18.1875 C 5.425781 18.300781 6.898438 18.085938 8.59375 16.78125 C 11.039063 14.902344 11.003906 12.085938 11 11.96875 L 10.96875 11.09375 L 10.09375 11 C 9.914063 10.980469 8.988281 10.816406 8.96875 10.46875 C 9.199219 10.164063 10.683594 9.933594 11.90625 10 C 11.960938 10.007813 12.371094 10.042969 13 10.0625 L 13 8.0625 C 12.449219 8.042969 12.085938 8.003906 12.0625 8 C 11.53125 7.96875 8.816406 7.878906 7.625 9 C 7.21875 9.382813 7 9.867188 7 10.40625 C 7 11.621094 7.875 12.414063 8.90625 12.78125 C 8.757813 13.457031 8.355469 14.464844 7.375 15.21875 C 5.269531 16.835938 3.855469 16.027344 3.8125 16 L 3.28125 15.625 L 1.875 16.53125 L 2.03125 17.21875 C 2.046875 17.289063 2.40625 18.90625 3.09375 20.40625 C 4.265625 22.972656 6.773438 26.074219 7.125 26.5 C 7.144531 26.523438 7.214844 26.617188 7.21875 26.625 C 7.425781 26.984375 8.65625 29 11 29 C 12.121094 29 13.101563 28.433594 14.0625 27.71875 C 15.023438 27.003906 15.964844 26.089844 16.8125 25.1875 C 18.464844 23.429688 19.6875 21.769531 19.75 21.6875 C 19.75 21.683594 19.8125 21.59375 19.8125 21.59375 C 22.902344 18.246094 25.503906 15.597656 27.3125 13.3125 C 29.054688 11.109375 30.148438 9.164063 30 7.15625 L 30 6.96875 C 30 6.941406 30 6.902344 30 6.875 C 29.914063 5.484375 28.980469 3 26 3 Z M 17 6 L 17 10 L 19 10 L 19 6 Z M 14 7 L 14 11 L 16 11 L 16 7 Z M 24.40625 13.6875 C 22.78125 15.535156 20.660156 17.699219 18.25 20.3125 L 18.21875 20.375 L 18.1875 20.40625 C 18.1875 20.40625 16.9375 22.113281 15.34375 23.8125 C 14.546875 24.660156 13.648438 25.496094 12.84375 26.09375 C 12.039063 26.691406 11.304688 27 11 27 C 10.386719 27 9.835938 26.5625 9.4375 26.15625 L 17.59375 19.8125 C 17.898438 19.597656 20.089844 17.976563 21.6875 14.84375 C 22.695313 14.539063 23.609375 14.148438 24.40625 13.6875 Z"/></svg>