<?xml version="1.0" encoding="UTF-8"?><svg id="Layer_2" xmlns="http://www.w3.org/2000/svg" xmlns:xlink="http://www.w3.org/1999/xlink" viewBox="0 0 1225.47 298.38"><defs><style>.cls-1{fill:url(#linear-gradient-2);}.cls-2{fill:url(#linear-gradient-6);}.cls-3{fill:url(#linear-gradient-10);}.cls-4{fill:url(#linear-gradient-5);}.cls-5{fill:url(#linear-gradient-7);}.cls-6{fill:url(#linear-gradient-9);}.cls-7{fill:url(#linear-gradient-3);}.cls-8{fill:url(#linear-gradient);}.cls-9{fill:url(#linear-gradient-4);}.cls-10{fill:url(#linear-gradient-8);}</style><linearGradient id="linear-gradient" x1="0" y1="55.03" x2="1203.22" y2="55.03" gradientTransform="matrix(1, 0, 0, 1, 0, 0)" gradientUnits="userSpaceOnUse"><stop offset=".06" stop-color="#abe1ff"/><stop offset="1" stop-color="#d7edfd" stop-opacity="0"/></linearGradient><linearGradient id="linear-gradient-2" x1="2.16" y1="78.08" x2="1205.68" y2="78.08" xlink:href="#linear-gradient"/><linearGradient id="linear-gradient-3" x1="4.39" y1="101.07" x2="1208.15" y2="101.07" xlink:href="#linear-gradient"/><linearGradient id="linear-gradient-4" x1="6.62" y1="123.47" x2="1210.62" y2="123.47" xlink:href="#linear-gradient"/><linearGradient id="linear-gradient-5" x1="8.85" y1="137.01" x2="1213.1" y2="137.01" xlink:href="#linear-gradient"/><linearGradient id="linear-gradient-6" x1="11.08" y1="150.47" x2="1215.57" y2="150.47" xlink:href="#linear-gradient"/><linearGradient id="linear-gradient-7" x1="13.31" y1="163.89" x2="1218.05" y2="163.89" xlink:href="#linear-gradient"/><linearGradient id="linear-gradient-8" x1="15.54" y1="177.25" x2="1220.52" y2="177.25" xlink:href="#linear-gradient"/><linearGradient id="linear-gradient-9" x1="17.78" y1="190.56" x2="1222.99" y2="190.56" xlink:href="#linear-gradient"/><linearGradient id="linear-gradient-10" x1="20.01" y1="203.8" x2="1225.47" y2="203.8" xlink:href="#linear-gradient"/></defs><g id="Graphic_Elements"><g><path class="cls-8" d="M1202.51,110.06c-.22-.23-22.47-22.85-66.85-47.27-40.97-22.53-109.71-51.24-204.55-60.03-104.27-9.67-184.31,22.18-261.7,52.99-58.31,23.21-118.61,47.2-187.74,52.14-116.73,8.33-212.01-16.07-281.59-33.9-25.66-6.57-47.83-12.25-66.15-15.01C69.6,49.31,.94,67.31,.26,67.49l-.26-.97c.69-.18,69.54-18.24,134.06-8.53,18.38,2.77,40.56,8.45,66.25,15.03,69.51,17.81,164.71,42.19,281.27,33.87,68.98-4.93,129.2-28.89,187.44-52.07C746.54,23.97,826.67-7.92,931.2,1.77c95.03,8.81,163.92,37.58,204.98,60.17,44.5,24.49,66.83,47.2,67.05,47.42l-.72,.7Z"/><path class="cls-1" d="M1205,131c-3.91-3.6-97.68-88.46-273.21-103.49-28.2-2.31-56.26-1.62-83.4,2.04-59,7.97-113.14,27.14-165.49,45.67-63.58,22.51-129.33,45.79-202.03,47.63-23.62,.59-48.03-.46-74.62-3.24-69.95-7.29-132.38-23.08-182.53-35.76-34.04-8.61-63.44-16.04-87.78-19.14-60.23-7.67-126.42,7.87-133.37,10.97l-.41-.91c6.99-3.12,73.47-18.75,133.9-11.05,24.4,3.11,53.83,10.55,87.9,19.17,50.13,12.68,112.51,28.45,182.39,35.74,26.55,2.77,50.92,3.82,74.49,3.23,72.54-1.83,135.29-24.05,201.72-47.57,52.41-18.55,106.6-37.74,165.69-45.72,27.21-3.68,55.34-4.36,83.62-2.05,175.87,15.06,269.89,100.14,273.8,103.76l-.68,.73Z"/><path class="cls-7" d="M1207.47,151.92c-.93-.86-101.07-86.69-275-99.67-28.18-2.1-56.22-1-83.36,3.29-51.25,8.09-100.79,23.72-148.69,38.83-67.83,21.4-137.9,43.51-212.24,43.51-2.7,0-5.4-.03-8.12-.09-22.75-.5-46.81-2.97-73.55-7.56-54.82-9.41-105.48-22.55-150.17-34.15-45.89-11.91-85.51-22.19-118.41-25.67-61.56-6.51-124.34,9.53-133.15,13.46l-.41-.91c8.85-3.95,71.91-20.08,133.66-13.54,32.97,3.49,72.63,13.78,118.55,25.7,44.67,11.59,95.31,24.73,150.08,34.13,26.69,4.58,50.7,7.05,73.41,7.55,77.2,1.71,149.81-21.22,220.03-43.37,47.94-15.12,97.5-30.76,148.83-38.87,27.22-4.3,55.34-5.41,83.59-3.3,174.26,13.01,274.67,99.07,275.6,99.93l-.68,.73Z"/><path class="cls-9" d="M1209.95,172.84c-3.52-3.25-31.67-24.42-80.46-46.54-42.88-19.45-111.74-43.79-196.33-49.3-28.49-1.86-56.52-.33-83.32,4.54-42.29,7.68-85.08,19.81-126.46,31.54-78.96,22.38-160.6,45.52-244.1,39.67-22.81-1.6-45.84-5.38-72.49-11.89-36.21-8.85-70.61-18.51-103.88-27.86-63.03-17.7-117.46-32.99-162.95-36.87-57.32-4.89-118.32,9.43-132.94,15.95l-.41-.91c15.18-6.77,75.13-21.01,133.43-16.03,45.58,3.89,100.06,19.19,163.14,36.91,33.26,9.34,67.66,19,103.85,27.85,26.59,6.5,49.57,10.27,72.32,11.86,83.33,5.85,164.89-17.27,243.76-39.63,41.4-11.74,84.22-23.87,126.55-31.57,26.87-4.88,54.99-6.41,83.56-4.55,84.74,5.52,153.72,29.91,196.68,49.39,48.91,22.18,77.18,43.45,80.72,46.72l-.68,.73Z"/><path class="cls-4" d="M1212.42,193.77c-5.25-4.84-36.37-25.64-85.01-46.25-43.43-18.4-112.27-41.28-193.57-45.78-28.92-1.6-56.94,.35-83.28,5.79-31.56,6.52-63.17,14.73-96.63,23.42-90.3,23.46-183.67,47.71-275.45,36.74-22.67-2.71-46.03-8.01-71.42-16.22-11.93-3.85-23.77-7.73-35.5-11.56-84.65-27.68-164.61-53.82-229.59-58.07-56.31-3.69-114.23,10.19-132.72,18.44l-.41-.91c22.33-9.96,81.04-21.94,133.19-18.53,65.1,4.27,145.12,30.42,229.84,58.12,11.73,3.83,23.57,7.71,35.49,11.56,25.33,8.18,48.63,13.48,71.23,16.18,91.6,10.94,184.88-13.29,275.09-36.72,33.47-8.7,65.09-16.91,96.68-23.43,26.42-5.46,54.53-7.42,83.53-5.81,81.45,4.51,150.4,27.42,193.9,45.86,48.76,20.66,80.01,41.56,85.29,46.43l-.68,.73Z"/><path class="cls-2" d="M1214.89,214.69c-6.75-6.23-40.99-26.74-89.56-45.92-43.94-17.35-112.7-38.77-190.8-42.29-29.45-1.32-57.45,1.04-83.24,7.04-17.88,4.16-36,8.66-55.19,13.42-100.67,24.99-214.77,53.32-318.41,35.7-23.16-3.94-46.17-10.66-70.36-20.55-89.28-36.52-182.97-70.83-263.34-74.54-50.38-2.32-105.87,9.05-132.5,20.93l-.41-.91c26.73-11.93,82.42-23.35,132.96-21.02,80.53,3.71,174.32,38.05,263.68,74.61,24.11,9.87,47.06,16.57,70.14,20.49,103.44,17.58,217.43-10.72,318.01-35.68,19.19-4.76,37.32-9.26,55.21-13.43,25.87-6.02,53.97-8.4,83.51-7.06,78.24,3.53,147.12,24.98,191.13,42.36,48.69,19.22,83.07,39.84,89.87,46.11l-.68,.73Z"/><path class="cls-5" d="M1217.37,235.61c-6.91-6.38-41.61-26.29-94.11-45.55-44.39-16.29-113.05-36.25-188.04-38.82-30.07-1.03-58.06,1.75-83.19,8.29-76.26,19.82-182.17,47.34-282.81,47.34-31.66,0-62.79-2.72-92.32-9.27-23.52-5.21-46.84-13.59-69.29-24.88-100.88-50.76-188.89-77.49-261.6-79.44-52.01-1.39-103.91,10.76-132.29,23.42l-.41-.91c28.48-12.71,80.57-24.9,132.72-23.51,72.86,1.95,161.01,28.71,262.02,79.54,22.38,11.26,45.61,19.61,69.06,24.8,123.15,27.29,274.51-12.04,374.66-38.07,25.22-6.55,53.3-9.35,83.48-8.32,75.12,2.58,143.89,22.57,188.35,38.88,52.63,19.31,87.48,39.33,94.44,45.76l-.68,.73Z"/><path class="cls-10" d="M1219.84,256.53c-8.04-7.42-44.95-26.9-98.66-45.16-44.79-15.23-113.3-33.73-185.27-35.39-30.8-.71-58.77,2.5-83.15,9.53-63.26,18.25-126.66,31.08-183.33,37.1-74.94,7.96-139.98,4.57-193.32-10.08-24.33-6.68-47.29-16.51-68.22-29.22-62.72-38.07-158.72-83.61-259.86-84.33-44.93-.32-95.52,9.61-132.07,25.91l-.41-.91c36.67-16.36,87.44-26.34,132.48-26,101.37,.73,197.54,46.34,260.37,84.48,20.86,12.66,43.72,22.45,67.97,29.11,53.22,14.61,118.14,17.99,192.95,10.05,56.61-6.01,119.95-18.83,183.16-37.07,24.48-7.06,52.56-10.28,83.45-9.57,72.1,1.66,140.71,20.19,185.57,35.44,54.44,18.51,90.68,37.68,99.02,45.38l-.68,.73Z"/><path class="cls-6" d="M1222.32,277.45c-20.74-19.14-161.23-75.36-285.72-76.73-31.59-.34-59.57,3.28-83.11,10.78-55.79,17.78-120.88,30-183.3,34.41-74.77,5.28-142.16-1.1-194.87-18.43-25.21-8.29-47.8-19.58-67.16-33.56-79.83-57.65-169.78-89.26-253.8-89.26-1.44,0-2.88,0-4.32,.03-45.29,.59-92.11,10.67-131.85,28.4l-.41-.91c39.86-17.78,86.83-27.9,132.25-28.49,85.46-1.09,177.34,30.65,258.72,89.42,19.27,13.92,41.77,25.16,66.88,33.42,111.34,36.61,269.85,18.35,377.56-15.98,23.64-7.54,51.7-11.19,83.42-10.83,124.73,1.38,265.58,57.79,286.39,77l-.68,.73Z"/><path class="cls-3" d="M1224.79,298.38c-14.48-13.37-78.92-38.94-151.75-55.7-52.68-12.12-151.16-28.91-218.82-5.18-62.59,21.95-150.16,34.15-228.56,31.84-44.56-1.32-85.19-7.01-120.75-16.92-39.66-11.05-72.12-27.16-96.47-47.89-53.14-45.22-115.14-75.66-179.31-88.02-34.1-6.57-68.66-8-102.72-4.26-35.99,3.96-71.65,13.73-105.99,29.05l-.41-.91c34.44-15.36,70.2-25.17,106.29-29.13,34.16-3.75,68.82-2.32,103.01,4.27,64.34,12.39,126.5,42.91,179.77,88.24,24.24,20.63,56.57,36.67,96.09,47.68,35.49,9.89,76.04,15.57,120.52,16.88,78.27,2.31,165.72-9.87,228.2-31.78,67.9-23.81,166.59-6.99,219.38,5.15,72.99,16.79,137.63,42.48,152.21,55.94l-.68,.73Z"/></g></g></svg>