<svg fill="#fbc02d" xmlns="http://www.w3.org/2000/svg" viewBox="0 0 50 50" width="50px" height="50px"><path d="M 21.878906 3.3007812 C 18.193906 3.3837813 15.500047 4.5094375 13.873047 6.6484375 C 11.947047 9.1824375 11.585875 13.065312 12.796875 18.195312 C 12.383875 18.726312 12.012375 19.576328 12.109375 20.736328 C 12.405375 22.895328 13.225531 23.785391 13.894531 24.150391 C 14.202531 25.900391 15.049391 27.825094 15.900391 28.746094 L 15.900391 32.308594 C 15.289391 33.683594 13.300766 34.479484 11.009766 35.396484 C 7.1457656 36.942484 2.3359531 38.866312 2.0019531 44.945312 L 1.9433594 46 L 29.617188 46 C 29.251187 45.367 28.945266 44.699 28.697266 44 L 4.1210938 44 C 4.8500938 40.015 8.3529531 38.612906 11.751953 37.253906 C 13.764734 36.448347 15.691792 35.672584 16.890625 34.375 C 17.208816 34.670334 17.588616 34.919563 17.992188 35.126953 C 19.070626 35.681151 20.457143 36 22 36 C 23.554762 36 24.946074 35.6495 26.017578 35.083984 C 26.397508 34.883466 26.754445 34.65136 27.060547 34.382812 C 27.546695 34.890812 28.136401 35.323582 28.804688 35.705078 C 29.045687 35.077078 29.336781 34.47825 29.675781 33.90625 C 28.898781 33.44825 28.299 32.936828 28 32.298828 L 28 28.746094 C 28.846 27.830094 29.690953 25.919734 30.001953 24.177734 C 30.713953 23.827734 31.591875 22.936594 31.796875 20.683594 C 31.891875 19.557594 31.580297 18.729312 31.154297 18.195312 C 32.003297 15.467313 32.748172 10.793266 30.951172 7.8222656 C 30.099172 6.4132656 28.799031 5.5285469 27.082031 5.1855469 C 26.116031 3.9655469 24.300906 3.3007812 21.878906 3.3007812 z M 21.902344 5.2988281 C 23.793344 5.2988281 25.154672 5.7755156 25.638672 6.6035156 L 25.882812 7.0214844 L 26.359375 7.0898438 C 27.691375 7.2778437 28.633234 7.8554219 29.240234 8.8574219 C 30.688234 11.252422 29.926594 15.734109 29.058594 18.162109 L 28.742188 18.986328 L 29.535156 19.382812 C 29.624156 19.445812 29.864688 19.790813 29.804688 20.507812 C 29.669688 21.987812 29.199609 22.382391 29.099609 22.400391 L 28.189453 22.400391 L 28.103516 23.306641 C 27.922516 25.202641 26.865906 27.159641 26.503906 27.431641 L 26 27.71875 L 26 32.5 C 26 32.48889 25.81248 32.931922 25.083984 33.316406 C 24.355488 33.70089 23.245238 34 22 34 C 20.742857 34 19.627812 33.718459 18.90625 33.347656 C 18.184688 32.976854 18 32.585897 18 32.5 A 1.0001 1.0001 0 0 0 17.900391 32.054688 L 17.900391 28.300781 L 17.921875 27.732422 L 17.417969 27.443359 C 17.036969 27.159359 15.977875 25.200688 15.796875 23.304688 L 15.783203 22.408203 L 14.873047 22.408203 C 14.731047 22.353203 14.285656 21.879578 14.097656 20.517578 C 14.028656 19.678578 14.456078 19.332031 14.455078 19.332031 L 15.044922 18.939453 L 14.871094 18.253906 C 13.658094 13.470906 13.858797 9.973375 15.466797 7.859375 C 16.705797 6.229375 18.879344 5.3668281 21.902344 5.2988281 z M 46.984375 28.986328 A 1.0001 1.0001 0 0 0 46 30 L 46 31.625 L 40.388672 38.037109 A 2 2 0 0 0 40 38 A 2 2 0 0 0 38 40 A 2 2 0 0 0 40 42 A 2 2 0 0 0 42 40 A 2 2 0 0 0 41.890625 39.357422 L 47.453125 33 L 49 33 A 1.0001 1.0001 0 1 0 49 31 L 48 31 L 48 30 A 1.0001 1.0001 0 0 0 46.984375 28.986328 z M 40 30 C 34.486 30 30 34.486 30 40 C 30 45.514 34.486 50 40 50 C 45.514 50 50 45.514 50 40 C 50 38.097 49.455297 36.323594 48.529297 34.808594 L 47.134766 36.402344 C 47.683766 37.485344 48 38.705 48 40 C 48 44.411 44.411 48 40 48 C 35.589 48 32 44.411 32 40 C 32 35.589 35.589 32 40 32 C 40.919 32 41.797141 32.162219 42.619141 32.449219 L 44.019531 30.851562 C 42.787531 30.307562 41.43 30 40 30 z M 40 34 C 36.691 34 34 36.691 34 40 C 34 43.309 36.691 46 40 46 C 43.309 46 46 43.309 46 40 C 46 39.324 45.882781 38.676312 45.675781 38.070312 L 43.998047 39.986328 C 43.998047 39.990328 44 39.995 44 40 C 44 42.206 42.206 44 40 44 C 37.794 44 36 42.206 36 40 C 36 37.977 37.514797 36.318687 39.466797 36.054688 L 41.162109 34.115234 C 40.786109 34.041234 40.398 34 40 34 z"/></svg>