<?xml version="1.0" encoding="utf-8"?>
<!-- Generator: Adobe Illustrator 15.1.0, SVG Export Plug-In . SVG Version: 6.00 Build 0)  -->
<!DOCTYPE svg PUBLIC "-//W3C//DTD SVG 1.1//EN" "http://www.w3.org/Graphics/SVG/1.1/DTD/svg11.dtd">
<svg version="1.1" id="Layer_1" xmlns="http://www.w3.org/2000/svg" xmlns:xlink="http://www.w3.org/1999/xlink" x="0px" y="0px"
	 width="183px" height="136.999px" viewBox="0 0 183 136.999" enable-background="new 0 0 183 136.999" xml:space="preserve">
<g>
	<rect fill="#FFFFFF" width="183" height="136.999"/>
	<g>
		<g>
			
				<radialGradient id="SVGID_1_" cx="151.3716" cy="49618.4531" r="12.9294" gradientTransform="matrix(2.9233 0 0 0.2587 -351.0034 -12761.3818)" gradientUnits="userSpaceOnUse">
				<stop  offset="0" style="stop-color:#CDCCCC"/>
				<stop  offset="1" style="stop-color:#FFFFFF"/>
			</radialGradient>
			<path fill="url(#SVGID_1_)" d="M130.267,74.908c0,1.866-17.354,3.369-38.773,3.369c-21.396,0-38.762-1.503-38.762-3.369
				c0-1.853,17.365-3.363,38.762-3.363C112.914,71.545,130.267,73.056,130.267,74.908z"/>
			<g>
				
					<linearGradient id="SVGID_2_" gradientUnits="userSpaceOnUse" x1="-179.4067" y1="130.5059" x2="-153.6329" y2="167.0302" gradientTransform="matrix(-0.436 0.9 -0.9 -0.436 140.8354 263.8293)">
					<stop  offset="0.3933" style="stop-color:#8DC641"/>
					<stop  offset="0.7499" style="stop-color:#2AAAE2"/>
				</linearGradient>
				<path fill="url(#SVGID_2_)" d="M95.738,51.3c-1.059-1.546-6.982-7.353-8.457-8.782c-0.428-0.995-1.012-2.084-1.842-3.159
					c-1.16-1.526-2.76-3.067-4.836-4.274c-2.088-1.186-4.592-2.003-7.434-2.141c-2.715-0.125-5.758,0.472-8.479,1.907
					c-2.729,1.43-5.141,3.708-6.787,6.573c-0.807,1.435-1.395,2.999-1.801,4.634c-0.379,1.598-0.469,3.519-0.4,4.957
					c0.172,1.844,0.504,3.417,1.098,5.049c0.629,1.583,1.453,3.099,2.492,4.45c2.082,2.682,4.912,4.729,8.016,5.844
					c1.58,0.532,3.09,0.92,4.805,1.006c0.914,0.092,1.52,0.037,2.217,0.043c0.951-0.063,1.59-0.154,2.381-0.281
					c3.006-0.579,5.705-1.87,7.844-3.518c2.139-1.661,3.711-3.662,4.791-5.586c1.109-1.939,1.658-3.827,1.988-5.4
					c0.127-0.558,0.195-1.137,0.254-1.698l0.078-0.029L95.738,51.3z M84.439,55.448c-0.674,1.39-1.686,2.882-3.154,4.18
					c-1.459,1.28-3.348,2.348-5.547,2.913c-0.521,0.117-1.201,0.24-1.613,0.304c-0.662,0.048-1.439,0.137-1.928,0.085
					c-1.08,0.029-2.389-0.205-3.572-0.525c-2.42-0.707-4.74-2.15-6.529-4.184c-0.881-1.02-1.613-2.184-2.207-3.43
					c-0.561-1.223-0.928-2.685-1.133-3.911c-0.166-1.652-0.16-2.833,0.059-4.285c0.262-1.383,0.668-2.738,1.285-4.003
					c1.24-2.521,3.213-4.656,5.551-6.066c2.334-1.418,4.953-2.124,7.549-2.172c2.486-0.026,4.945,0.58,6.953,1.575
					c2.018,1.004,3.635,2.375,4.848,3.785c0.801,0.909,1.385,1.841,1.859,2.733c-0.549,1.401-3.553,8.959-5.254,11.166l3.807-1.031
					C85.229,53.458,84.943,54.433,84.439,55.448z"/>
				
					<linearGradient id="SVGID_3_" gradientUnits="userSpaceOnUse" x1="235.0747" y1="986.0869" x2="260.8485" y2="1022.6112" gradientTransform="matrix(0.436 0.9 0.9 -0.436 -908.5689 263.8293)">
					<stop  offset="0.3933" style="stop-color:#8DC641"/>
					<stop  offset="0.7499" style="stop-color:#2AAAE2"/>
				</linearGradient>
				<path fill="url(#SVGID_3_)" d="M91.342,50.894l0.074,0.029c0.057,0.561,0.131,1.141,0.25,1.698
					c0.332,1.573,0.887,3.461,1.99,5.4c1.086,1.924,2.654,3.925,4.793,5.586c2.137,1.647,4.834,2.938,7.842,3.518
					c0.791,0.127,1.432,0.219,2.381,0.281c0.697-0.006,1.303,0.049,2.217-0.043c1.715-0.086,3.225-0.474,4.803-1.006
					c3.104-1.115,5.936-3.162,8.016-5.844c1.041-1.352,1.863-2.867,2.494-4.45c0.605-1.633,0.926-3.205,1.096-5.049
					c0.07-1.438-0.021-3.359-0.398-4.957c-0.4-1.635-0.996-3.199-1.807-4.634c-1.643-2.865-4.049-5.144-6.781-6.573
					c-2.723-1.435-5.764-2.032-8.473-1.907c-2.844,0.138-5.346,0.955-7.434,2.141c-2.08,1.207-3.676,2.748-4.844,4.274
					c-0.828,1.075-1.406,2.165-1.834,3.159c-1.475,1.429-7.404,7.236-8.46,8.782L91.342,50.894z M97.595,52.581l3.803,1.031
					c-1.705-2.207-4.701-9.765-5.25-11.166c0.469-0.893,1.053-1.824,1.854-2.733c1.211-1.41,2.826-2.781,4.848-3.785
					c2.008-0.995,4.465-1.602,6.953-1.575c2.596,0.049,5.215,0.754,7.553,2.172c2.338,1.41,4.305,3.545,5.545,6.066
					c0.625,1.265,1.031,2.62,1.287,4.003c0.217,1.452,0.229,2.633,0.063,4.285c-0.211,1.227-0.572,2.688-1.133,3.911
					c-0.598,1.246-1.324,2.41-2.211,3.43c-1.791,2.033-4.111,3.477-6.531,4.184c-1.178,0.32-2.49,0.555-3.572,0.525
					c-0.486,0.052-1.264-0.037-1.928-0.085c-0.412-0.063-1.092-0.187-1.611-0.304c-2.201-0.565-4.088-1.633-5.545-2.913
					c-1.465-1.298-2.482-2.79-3.156-4.18C98.058,54.433,97.773,53.458,97.595,52.581z"/>
			</g>
		</g>
		<g>
			<g>
				<path fill="#202020" d="M61.899,92.593c0.996,0,1.811-0.395,2.443-1.182l1.301,1.338c-1.031,1.162-2.248,1.742-3.646,1.742
					c-1.4,0-2.553-0.441-3.459-1.326c-0.904-0.885-1.357-2-1.357-3.348s0.461-2.473,1.385-3.373
					c0.922-0.902,2.051-1.352,3.385-1.352c1.492,0,2.74,0.566,3.744,1.703l-1.26,1.43c-0.643-0.797-1.439-1.197-2.393-1.197
					c-0.762,0-1.414,0.25-1.957,0.748c-0.541,0.498-0.813,1.17-0.813,2.016c0,0.844,0.256,1.523,0.768,2.035
					C60.552,92.337,61.171,92.593,61.899,92.593z"/>
				<path fill="#202020" d="M74.69,93.132c-0.918,0.898-2.049,1.346-3.393,1.346s-2.475-0.447-3.393-1.346
					c-0.92-0.896-1.379-2.012-1.379-3.346c0-1.336,0.459-2.451,1.379-3.348c0.918-0.898,2.049-1.346,3.393-1.346
					s2.475,0.447,3.393,1.346c0.918,0.896,1.379,2.012,1.379,3.348C76.069,91.12,75.608,92.235,74.69,93.132z M74.001,89.792
					c0-0.811-0.26-1.502-0.779-2.074s-1.16-0.857-1.918-0.857s-1.396,0.285-1.916,0.857c-0.521,0.572-0.781,1.264-0.781,2.074
					s0.26,1.5,0.781,2.066c0.52,0.568,1.158,0.852,1.916,0.852s1.398-0.283,1.918-0.852C73.741,91.292,74.001,90.603,74.001,89.792z
					"/>
				<path fill="#202020" d="M85.923,88.667l-2.457,4.967h-1.209l-2.443-4.967v5.721h-2.029V85.3h2.744l2.34,4.992L85.22,85.3h2.73
					v9.088h-2.027V88.667z"/>
				<path fill="#202020" d="M96.447,86.112c0.637,0.543,0.955,1.375,0.955,2.496c0,1.123-0.326,1.943-0.98,2.463
					c-0.654,0.521-1.654,0.781-2.996,0.781h-1.209v2.535h-2.029V85.3h3.211C94.794,85.3,95.81,85.571,96.447,86.112z M94.958,89.688
					c0.242-0.273,0.363-0.672,0.363-1.197c0-0.523-0.158-0.896-0.475-1.117s-0.807-0.332-1.475-0.332h-1.157v3.055h1.364
					C94.255,90.097,94.716,89.96,94.958,89.688z"/>
				<path fill="#202020" d="M104.928,94.388l-0.846-1.963h-3.809l-0.846,1.963h-2.157l3.927-9.088h1.963l3.926,9.088H104.928z
					 M102.184,88.005l-1.143,2.639h2.275L102.184,88.005z"/>
				<path fill="#202020" d="M114.497,85.3h2.027v9.088h-2.027l-4.328-5.695v5.695h-2.029V85.3h1.898l4.459,5.85V85.3z"/>
				<path fill="#202020" d="M122.672,94.388h-2.027V90.8l-3.146-5.5h2.197l1.963,3.381l1.963-3.381h2.197l-3.146,5.5V94.388z"/>
			</g>
			<g>
				<path fill="#8E8E8E" d="M60.396,100.383c-0.207,0-0.375,0.042-0.508,0.126c-0.131,0.084-0.197,0.211-0.197,0.381
					s0.066,0.3,0.197,0.39c0.133,0.09,0.414,0.188,0.844,0.291c0.43,0.104,0.754,0.25,0.973,0.438
					c0.217,0.188,0.326,0.465,0.326,0.831c0,0.365-0.139,0.662-0.414,0.891c-0.275,0.228-0.639,0.342-1.086,0.342
					c-0.656,0-1.238-0.226-1.746-0.678l0.443-0.534c0.424,0.368,0.865,0.552,1.32,0.552c0.229,0,0.41-0.049,0.543-0.146
					c0.135-0.099,0.201-0.229,0.201-0.391c0-0.161-0.063-0.287-0.189-0.378c-0.125-0.09-0.342-0.172-0.65-0.246
					c-0.309-0.073-0.543-0.142-0.701-0.203c-0.16-0.063-0.303-0.144-0.428-0.243c-0.248-0.188-0.371-0.477-0.371-0.864
					s0.141-0.688,0.424-0.897c0.281-0.21,0.631-0.314,1.047-0.314c0.268,0,0.533,0.044,0.797,0.132s0.492,0.212,0.684,0.372
					l-0.377,0.534c-0.125-0.112-0.293-0.204-0.504-0.276C60.81,100.418,60.601,100.383,60.396,100.383z"/>
				<path fill="#8E8E8E" d="M65.126,104.024V99.83h0.709v3.522h1.914v0.672H65.126z"/>
				<path fill="#8E8E8E" d="M74.132,103.445c-0.424,0.414-0.947,0.621-1.572,0.621c-0.623,0-1.146-0.207-1.57-0.621
					c-0.426-0.414-0.637-0.93-0.637-1.548s0.211-1.134,0.637-1.548c0.424-0.414,0.947-0.621,1.57-0.621
					c0.625,0,1.148,0.207,1.572,0.621s0.637,0.93,0.637,1.548S74.556,103.031,74.132,103.445z M73.614,100.82
					c-0.287-0.296-0.639-0.444-1.055-0.444s-0.766,0.148-1.053,0.444c-0.285,0.296-0.428,0.655-0.428,1.077s0.143,0.781,0.428,1.077
					c0.287,0.296,0.637,0.443,1.053,0.443s0.768-0.147,1.055-0.443c0.285-0.296,0.428-0.655,0.428-1.077
					S73.899,101.116,73.614,100.82z"/>
				<path fill="#8E8E8E" d="M80.786,101.984h0.709v1.434c-0.396,0.437-0.963,0.654-1.699,0.654c-0.619,0-1.139-0.204-1.557-0.612
					c-0.418-0.407-0.627-0.924-0.627-1.548s0.213-1.144,0.639-1.56s0.941-0.624,1.545-0.624s1.105,0.176,1.506,0.528l-0.377,0.54
					c-0.164-0.141-0.33-0.237-0.496-0.291c-0.166-0.055-0.359-0.081-0.578-0.081c-0.424,0-0.781,0.137-1.068,0.41
					c-0.287,0.274-0.432,0.635-0.432,1.08c0,0.446,0.141,0.805,0.42,1.074c0.279,0.271,0.619,0.405,1.018,0.405
					c0.396,0,0.73-0.086,0.998-0.258V101.984z"/>
				<path fill="#8E8E8E" d="M85.196,103.07l-0.42,0.954h-0.756l1.848-4.194h0.756l1.848,4.194h-0.756l-0.42-0.954H85.196z
					 M87.009,102.416l-0.764-1.728l-0.762,1.728H87.009z"/>
				<path fill="#8E8E8E" d="M94.417,99.83h0.709v4.194h-0.768l-2.377-3.06v3.06h-0.707V99.83h0.707l2.436,3.133V99.83z"/>
				<path fill="#8E8E8E" d="M103.958,100.479v3.546h-0.707v-3.546h-1.273V99.83h3.254v0.648H103.958z"/>
				<path fill="#8E8E8E" d="M111.165,99.83v0.666h-2.238v1.11h2.01v0.63h-2.01v1.122h2.309v0.666h-3.018V99.83H111.165z"/>
				<path fill="#8E8E8E" d="M116.846,104.024l-1.033-1.578h-0.029l-1.033,1.578h-0.881l1.439-2.154l-1.338-2.04h0.877l0.936,1.416
					h0.029l0.936-1.416h0.877l-1.338,2.04l1.439,2.154H116.846z"/>
				<path fill="#8E8E8E" d="M122.204,100.479v3.546h-0.709v-3.546h-1.271V99.83h3.252v0.648H122.204z"/>
			</g>
		</g>
	</g>
</g>
</svg>
