<?xml version="1.0" encoding="utf-8"?>
<!-- Generator: Adobe Illustrator 15.1.0, SVG Export Plug-In . SVG Version: 6.00 Build 0)  -->
<!DOCTYPE svg PUBLIC "-//W3C//DTD SVG 1.1//EN" "http://www.w3.org/Graphics/SVG/1.1/DTD/svg11.dtd">
<svg version="1.1" id="Layer_1" xmlns="http://www.w3.org/2000/svg" xmlns:xlink="http://www.w3.org/1999/xlink" x="0px" y="0px"
	 width="183px" height="137px" viewBox="0 0 183 137" enable-background="new 0 0 183 137" xml:space="preserve">
<g>
	<rect fill="#FFFFFF" width="183" height="137"/>
	<g>
		<g>
			
				<radialGradient id="SVGID_1_" cx="111.0034" cy="49903.6914" r="11.5716" gradientTransform="matrix(2.5344 0 0 0.2366 -189.828 -11721.2539)" gradientUnits="userSpaceOnUse">
				<stop  offset="0" style="stop-color:#CDCCCC"/>
				<stop  offset="1" style="stop-color:#FFFFFF"/>
			</radialGradient>
			<path fill="url(#SVGID_1_)" d="M121.554,85.957c0,1.533-13.458,2.762-30.057,2.762c-16.598,0-30.052-1.229-30.052-2.762
				c0-1.509,13.454-2.756,30.052-2.756C108.096,83.201,121.554,84.448,121.554,85.957z"/>
			<g>
				<g>
					<path fill="#F79421" d="M83.071,22.075c4.842,2.301,4.859,6.226,1.948,8.431c-2.916,2.301-6.93,2.521-11.012,1.238
						c1.344,1.035,3.894,2.062,9.49,2.876c7.646,1.112,9.983,10.351,9.983,10.351s1.281-8.233-0.674-13.499
						C90.337,24.848,85.351,22.521,83.071,22.075z"/>
					<path fill="#F79421" d="M82,28.851c-1.354,1.446-3.567,1.446-4.917,0c-1.366-1.447-1.366-3.797,0-5.232
						c1.35-1.446,3.563-1.446,4.917,0C83.35,25.054,83.35,27.403,82,28.851z"/>
				</g>
				<g>
					<path fill="#8DC641" d="M118.598,41.932c-2.189,5.137-5.872,5.143-7.929,2.044c-2.163-3.113-2.368-7.378-1.139-11.718
						c-0.983,1.418-1.955,4.137-2.734,10.097c-1.057,8.119-9.771,10.566-9.771,10.566s7.73,1.398,12.699-0.684
						C115.968,49.639,118.17,44.345,118.598,41.932z"/>
					<path fill="#8DC641" d="M112.224,40.768c-1.361-1.452-1.35-3.799,0.017-5.234c1.361-1.447,3.563-1.442,4.923,0.017
						c1.36,1.446,1.35,3.791-0.022,5.226C115.792,42.22,113.584,42.215,112.224,40.768z"/>
				</g>
				<g>
					<path fill="#F79421" d="M99.823,79.656c-4.827-2.338-4.827-6.258-1.898-8.45c2.938-2.276,6.945-2.484,11.022-1.17
						c-1.332-1.043-3.882-2.095-9.485-2.936c-7.638-1.152-9.907-10.408-9.907-10.408s-1.339,8.222,0.594,13.498
						C92.584,76.837,97.557,79.199,99.823,79.656z"/>
					<path fill="#F79421" d="M100.943,72.875c1.354-1.44,3.562-1.424,4.912,0.034c1.354,1.447,1.343,3.797-0.024,5.231
						c-1.366,1.436-3.572,1.431-4.905-0.034C99.565,76.66,99.576,74.31,100.943,72.875z"/>
				</g>
				<g>
					<path fill="#8DC641" d="M64.413,59.585c2.208-5.13,5.89-5.115,7.937-1.996c2.144,3.13,2.321,7.401,1.075,11.724
						c0.989-1.412,1.989-4.117,2.778-10.079c1.104-8.117,9.829-10.515,9.829-10.515s-7.725-1.436-12.705,0.608
						C67.072,51.895,64.842,57.18,64.413,59.585z"/>
					<path fill="#8DC641" d="M70.777,60.796c1.35,1.446,1.332,3.797-0.04,5.224c-1.372,1.434-3.579,1.417-4.911-0.046
						c-1.366-1.447-1.339-3.797,0.034-5.221C67.22,59.319,69.427,59.345,70.777,60.796z"/>
				</g>
			</g>
		</g>
		<g>
			<g>
				<path fill="#202020" d="M61.9,103.446c0.996,0,1.811-0.395,2.443-1.182l1.301,1.338c-1.031,1.162-2.248,1.742-3.646,1.742
					c-1.4,0-2.553-0.441-3.459-1.326c-0.904-0.885-1.357-2-1.357-3.348s0.461-2.473,1.385-3.373
					c0.922-0.902,2.051-1.352,3.385-1.352c1.492,0,2.74,0.566,3.744,1.703l-1.26,1.43c-0.643-0.797-1.439-1.197-2.393-1.197
					c-0.762,0-1.414,0.25-1.957,0.748c-0.541,0.498-0.813,1.17-0.813,2.016c0,0.844,0.256,1.523,0.768,2.035
					C60.552,103.19,61.171,103.446,61.9,103.446z"/>
				<path fill="#202020" d="M74.691,103.985c-0.918,0.898-2.049,1.346-3.393,1.346s-2.475-0.447-3.393-1.346
					c-0.92-0.896-1.379-2.012-1.379-3.346c0-1.336,0.459-2.451,1.379-3.348c0.918-0.898,2.049-1.346,3.393-1.346
					s2.475,0.447,3.393,1.346c0.917,0.896,1.378,2.012,1.378,3.348C76.069,101.973,75.608,103.088,74.691,103.985z M74.001,100.645
					c0-0.811-0.26-1.502-0.779-2.074s-1.16-0.857-1.918-0.857s-1.396,0.285-1.916,0.857c-0.521,0.572-0.781,1.264-0.781,2.074
					s0.26,1.5,0.781,2.066c0.52,0.568,1.158,0.852,1.916,0.852s1.398-0.283,1.918-0.852
					C73.742,102.145,74.001,101.456,74.001,100.645z"/>
				<path fill="#202020" d="M85.922,99.52l-2.457,4.967h-1.209l-2.443-4.967v5.721h-2.029v-9.088h2.744l2.34,4.992l2.352-4.992h2.73
					v9.088h-2.027V99.52z"/>
				<path fill="#202020" d="M96.446,96.965c0.637,0.543,0.955,1.375,0.955,2.496c0,1.123-0.326,1.943-0.98,2.463
					c-0.654,0.521-1.654,0.781-2.996,0.781h-1.209v2.535h-2.029v-9.088h3.211C94.793,96.153,95.809,96.424,96.446,96.965z
					 M94.958,100.542c0.242-0.273,0.363-0.672,0.363-1.197c0-0.523-0.158-0.896-0.475-1.117s-0.807-0.332-1.475-0.332h-1.156v3.055
					h1.363C94.254,100.95,94.715,100.813,94.958,100.542z"/>
				<path fill="#202020" d="M104.928,105.241l-0.846-1.963h-3.809l-0.846,1.963H97.27l3.928-9.088h1.963l3.926,9.088H104.928z
					 M102.184,98.858l-1.143,2.639h2.275L102.184,98.858z"/>
				<path fill="#202020" d="M114.497,96.153h2.027v9.088h-2.027l-4.328-5.695v5.695h-2.029v-9.088h1.898l4.459,5.85V96.153z"/>
				<path fill="#202020" d="M122.672,105.241h-2.027v-3.588l-3.146-5.5h2.197l1.963,3.381l1.963-3.381h2.197l-3.146,5.5V105.241z"/>
			</g>
			<g>
				<path fill="#8E8E8E" d="M60.396,111.236c-0.207,0-0.375,0.042-0.508,0.126c-0.131,0.084-0.197,0.211-0.197,0.381
					s0.066,0.3,0.197,0.39c0.133,0.09,0.414,0.188,0.844,0.291c0.43,0.104,0.754,0.25,0.973,0.438
					c0.217,0.188,0.326,0.465,0.326,0.831c0,0.365-0.139,0.662-0.414,0.891c-0.275,0.228-0.639,0.342-1.086,0.342
					c-0.656,0-1.238-0.226-1.746-0.678l0.443-0.534c0.424,0.368,0.865,0.552,1.32,0.552c0.229,0,0.41-0.049,0.543-0.146
					c0.135-0.099,0.201-0.229,0.201-0.391c0-0.161-0.063-0.287-0.189-0.378c-0.125-0.09-0.342-0.172-0.65-0.246
					c-0.309-0.073-0.543-0.142-0.701-0.203c-0.16-0.063-0.303-0.144-0.428-0.243c-0.248-0.188-0.371-0.477-0.371-0.864
					s0.141-0.688,0.424-0.897c0.281-0.21,0.631-0.314,1.047-0.314c0.268,0,0.533,0.044,0.797,0.132s0.492,0.212,0.684,0.372
					l-0.377,0.534c-0.125-0.112-0.293-0.204-0.504-0.276C60.81,111.271,60.601,111.236,60.396,111.236z"/>
				<path fill="#8E8E8E" d="M65.126,114.877v-4.194h0.709v3.522h1.914v0.672H65.126z"/>
				<path fill="#8E8E8E" d="M74.132,114.298c-0.424,0.414-0.947,0.621-1.572,0.621c-0.623,0-1.146-0.207-1.57-0.621
					c-0.426-0.414-0.637-0.93-0.637-1.548s0.211-1.134,0.637-1.548c0.424-0.414,0.947-0.621,1.57-0.621
					c0.625,0,1.148,0.207,1.572,0.621s0.637,0.93,0.637,1.548S74.556,113.884,74.132,114.298z M73.615,111.673
					c-0.287-0.296-0.639-0.444-1.055-0.444s-0.766,0.148-1.053,0.444c-0.285,0.296-0.428,0.655-0.428,1.077s0.143,0.781,0.428,1.077
					c0.287,0.296,0.637,0.443,1.053,0.443s0.768-0.147,1.055-0.443c0.285-0.296,0.428-0.655,0.428-1.077
					S73.9,111.969,73.615,111.673z"/>
				<path fill="#8E8E8E" d="M80.786,112.837h0.709v1.434c-0.396,0.437-0.963,0.654-1.699,0.654c-0.619,0-1.139-0.204-1.557-0.612
					c-0.418-0.407-0.627-0.924-0.627-1.548s0.213-1.144,0.639-1.56s0.941-0.624,1.545-0.624s1.105,0.176,1.506,0.528l-0.377,0.54
					c-0.164-0.141-0.33-0.237-0.496-0.291c-0.166-0.055-0.359-0.081-0.578-0.081c-0.424,0-0.781,0.137-1.068,0.41
					c-0.287,0.274-0.432,0.635-0.432,1.08c0,0.446,0.141,0.805,0.42,1.074c0.279,0.271,0.619,0.405,1.018,0.405
					c0.396,0,0.73-0.086,0.998-0.258V112.837z"/>
				<path fill="#8E8E8E" d="M85.196,113.923l-0.42,0.954H84.02l1.848-4.194h0.756l1.848,4.194h-0.756l-0.42-0.954H85.196z
					 M87.008,113.269l-0.764-1.728l-0.762,1.728H87.008z"/>
				<path fill="#8E8E8E" d="M94.417,110.683h0.709v4.194h-0.768l-2.377-3.06v3.06h-0.707v-4.194h0.707l2.436,3.133V110.683z"/>
				<path fill="#8E8E8E" d="M103.958,111.332v3.546h-0.707v-3.546h-1.273v-0.648h3.254v0.648H103.958z"/>
				<path fill="#8E8E8E" d="M111.165,110.683v0.666h-2.238v1.11h2.01v0.63h-2.01v1.122h2.309v0.666h-3.018v-4.194H111.165z"/>
				<path fill="#8E8E8E" d="M116.846,114.877l-1.033-1.578h-0.029l-1.033,1.578h-0.881l1.439-2.154l-1.338-2.04h0.877l0.936,1.416
					h0.029l0.936-1.416h0.877l-1.338,2.04l1.439,2.154H116.846z"/>
				<path fill="#8E8E8E" d="M122.204,111.332v3.546h-0.709v-3.546h-1.271v-0.648h3.252v0.648H122.204z"/>
			</g>
		</g>
	</g>
</g>
</svg>
