<?xml version="1.0" encoding="utf-8"?>
<!-- Generator: Adobe Illustrator 15.1.0, SVG Export Plug-In . SVG Version: 6.00 Build 0)  -->
<!DOCTYPE svg PUBLIC "-//W3C//DTD SVG 1.1//EN" "http://www.w3.org/Graphics/SVG/1.1/DTD/svg11.dtd">
<svg version="1.1" id="Layer_1" xmlns="http://www.w3.org/2000/svg" xmlns:xlink="http://www.w3.org/1999/xlink" x="0px" y="0px"
	 width="183px" height="137px" viewBox="0 0 183 137" enable-background="new 0 0 183 137" xml:space="preserve">
<g>
	<rect fill="#FFFFFF" width="183" height="137"/>
	<g>
		<g>
			
				<radialGradient id="SVGID_1_" cx="145.4849" cy="49850.2344" r="8.1502" gradientTransform="matrix(3.4667 0 0 0.28 -412.8503 -13884.1563)" gradientUnits="userSpaceOnUse">
				<stop  offset="0" style="stop-color:#CDCCCC"/>
				<stop  offset="1" style="stop-color:#FFFFFF"/>
			</radialGradient>
			<path fill="url(#SVGID_1_)" d="M120.516,73.921c0,1.26-13.002,2.283-29.023,2.283c-16.021,0-29.006-1.023-29.006-2.283
				c0-1.281,12.984-2.305,29.006-2.305C107.514,71.617,120.516,72.64,120.516,73.921z"/>
			<g>
				<g>
					<path fill="#F79421" d="M59.206,38.308c-2.967,3.73-4.471,8.624-3.762,13.723c0.045,0.338,0.126,0.668,0.183,1.008
						c2.385-6.791,8.388-12.046,16.01-13.101c8.209-1.129,15.929,2.936,19.862,9.677c-0.005-0.063,0-0.135,0-0.197
						c-3.053-9.712-12.739-16.101-23.173-14.666C64.929,35.214,61.841,36.479,59.206,38.308z"/>
					<path fill="#F79421" d="M75.93,43.185c-9.074,1.255-15.409,9.617-14.162,18.693c0.085,0.633,0.222,1.258,0.371,1.867
						c2.688,2.115,5.953,3.482,9.475,3.822c-1.527-1.842-2.579-4.102-2.933-6.641c-1.001-7.291,4.088-14.006,11.377-15.012
						c4.397-0.609,8.59,1.023,11.437,4.005c0-0.063,0-0.134,0-0.212C87.999,45.029,82.127,42.333,75.93,43.185z"/>
					<path fill="#F79421" d="M73.311,60.791c0.366,2.594,1.572,4.861,3.299,6.572c8.553-1.541,14.688-8.895,14.884-17.389
						c-2.321-1.703-5.295-2.553-8.372-2.132C76.845,48.714,72.448,54.509,73.311,60.791z"/>
				</g>
				<g>
					<path fill="#8DC641" d="M123.797,38.308c2.963,3.73,4.465,8.624,3.762,13.723c-0.051,0.338-0.125,0.668-0.193,1.008
						c-2.379-6.791-8.383-12.046-16.004-13.101c-8.217-1.129-15.928,2.936-19.858,9.677c0-0.063-0.006-0.135,0-0.197
						c3.059-9.712,12.739-16.101,23.168-14.666C118.069,35.214,121.157,36.479,123.797,38.308z"/>
					<path fill="#8DC641" d="M107.063,43.185c9.072,1.255,15.418,9.617,14.168,18.693c-0.092,0.633-0.225,1.258-0.377,1.867
						c-2.682,2.115-5.941,3.482-9.469,3.822c1.525-1.842,2.578-4.102,2.932-6.641c1.008-7.291-4.082-14.006-11.377-15.012
						c-4.398-0.609-8.588,1.023-11.43,4.005c0-0.063,0-0.134-0.006-0.212C94.997,45.029,100.87,42.333,107.063,43.185z"/>
					<path fill="#8DC641" d="M109.686,60.791c-0.359,2.594-1.572,4.861-3.293,6.572c-8.561-1.541-14.684-8.895-14.883-17.389
						c2.317-1.703,5.288-2.553,8.364-2.132C106.153,48.714,110.543,54.509,109.686,60.791z"/>
				</g>
			</g>
		</g>
		<g>
			<g>
				<path fill="#202020" d="M61.9,90.969c0.996,0,1.811-0.395,2.443-1.182l1.301,1.338c-1.031,1.162-2.248,1.742-3.646,1.742
					c-1.4,0-2.553-0.441-3.459-1.326c-0.904-0.885-1.357-2-1.357-3.348s0.461-2.473,1.385-3.373
					c0.922-0.902,2.051-1.352,3.385-1.352c1.492,0,2.74,0.566,3.744,1.703l-1.26,1.43c-0.643-0.797-1.439-1.197-2.393-1.197
					c-0.762,0-1.414,0.25-1.957,0.748c-0.541,0.498-0.813,1.17-0.813,2.016c0,0.844,0.256,1.523,0.768,2.035
					C60.553,90.713,61.172,90.969,61.9,90.969z"/>
				<path fill="#202020" d="M74.691,91.508c-0.918,0.898-2.049,1.346-3.393,1.346s-2.475-0.447-3.393-1.346
					c-0.92-0.896-1.379-2.012-1.379-3.346c0-1.336,0.459-2.451,1.379-3.348c0.918-0.898,2.049-1.346,3.393-1.346
					s2.475,0.447,3.393,1.346c0.917,0.896,1.378,2.012,1.378,3.348C76.07,89.497,75.609,90.612,74.691,91.508z M74.002,88.168
					c0-0.811-0.26-1.502-0.779-2.074s-1.16-0.857-1.918-0.857s-1.396,0.285-1.916,0.857c-0.521,0.572-0.781,1.264-0.781,2.074
					s0.26,1.5,0.781,2.066c0.52,0.568,1.158,0.852,1.916,0.852s1.398-0.283,1.918-0.852C73.742,89.668,74.002,88.979,74.002,88.168z
					"/>
				<path fill="#202020" d="M85.923,87.043l-2.457,4.967h-1.209l-2.443-4.967v5.721h-2.029v-9.088h2.744l2.34,4.992l2.352-4.992
					h2.73v9.088h-2.027V87.043z"/>
				<path fill="#202020" d="M96.446,84.489c0.637,0.543,0.955,1.375,0.955,2.496c0,1.123-0.326,1.943-0.98,2.463
					c-0.654,0.521-1.654,0.781-2.996,0.781h-1.208v2.535h-2.029v-9.088h3.21C94.793,83.676,95.809,83.948,96.446,84.489z
					 M94.958,88.065c0.242-0.273,0.363-0.672,0.363-1.197c0-0.523-0.158-0.896-0.475-1.117s-0.807-0.332-1.475-0.332h-1.156v3.055
					h1.363C94.254,88.473,94.715,88.336,94.958,88.065z"/>
				<path fill="#202020" d="M104.928,92.764l-0.846-1.963h-3.809l-0.846,1.963H97.27l3.928-9.088h1.963l3.926,9.088H104.928z
					 M102.184,86.381l-1.143,2.639h2.275L102.184,86.381z"/>
				<path fill="#202020" d="M114.497,83.676h2.027v9.088h-2.027l-4.328-5.695v5.695h-2.029v-9.088h1.898l4.459,5.85V83.676z"/>
				<path fill="#202020" d="M122.672,92.764h-2.027v-3.588l-3.146-5.5h2.197l1.963,3.381l1.963-3.381h2.197l-3.146,5.5V92.764z"/>
			</g>
			<g>
				<path fill="#8E8E8E" d="M60.396,98.759c-0.207,0-0.375,0.042-0.508,0.126c-0.131,0.084-0.197,0.211-0.197,0.381
					s0.066,0.3,0.197,0.39c0.133,0.09,0.414,0.188,0.844,0.291c0.43,0.104,0.754,0.25,0.973,0.438
					c0.217,0.188,0.326,0.465,0.326,0.831c0,0.365-0.139,0.662-0.414,0.891c-0.275,0.228-0.639,0.342-1.086,0.342
					c-0.656,0-1.238-0.226-1.746-0.678l0.443-0.534c0.424,0.368,0.865,0.552,1.32,0.552c0.229,0,0.41-0.049,0.543-0.146
					c0.135-0.099,0.201-0.229,0.201-0.391c0-0.161-0.063-0.287-0.189-0.378c-0.125-0.09-0.342-0.172-0.65-0.246
					c-0.309-0.073-0.543-0.142-0.701-0.203c-0.16-0.063-0.303-0.144-0.428-0.243c-0.248-0.188-0.371-0.477-0.371-0.864
					s0.141-0.688,0.424-0.897c0.281-0.21,0.631-0.314,1.047-0.314c0.268,0,0.533,0.044,0.797,0.132s0.492,0.212,0.684,0.372
					l-0.377,0.534c-0.125-0.112-0.293-0.204-0.504-0.276C60.811,98.794,60.602,98.759,60.396,98.759z"/>
				<path fill="#8E8E8E" d="M65.127,102.401v-4.194h0.709v3.522h1.914v0.672H65.127z"/>
				<path fill="#8E8E8E" d="M74.133,101.822c-0.424,0.414-0.947,0.621-1.572,0.621c-0.623,0-1.146-0.207-1.57-0.621
					c-0.426-0.414-0.637-0.93-0.637-1.548s0.211-1.134,0.637-1.548c0.424-0.414,0.947-0.621,1.57-0.621
					c0.625,0,1.148,0.207,1.572,0.621s0.637,0.93,0.637,1.548S74.557,101.408,74.133,101.822z M73.615,99.197
					c-0.287-0.296-0.639-0.444-1.055-0.444s-0.766,0.148-1.053,0.444c-0.285,0.296-0.428,0.655-0.428,1.077s0.143,0.781,0.428,1.077
					c0.287,0.296,0.637,0.443,1.053,0.443s0.768-0.147,1.055-0.443c0.285-0.296,0.428-0.655,0.428-1.077S73.9,99.493,73.615,99.197z
					"/>
				<path fill="#8E8E8E" d="M80.786,100.361h0.709v1.434c-0.396,0.437-0.963,0.654-1.699,0.654c-0.619,0-1.139-0.204-1.557-0.612
					c-0.418-0.407-0.627-0.924-0.627-1.548s0.213-1.144,0.639-1.56s0.941-0.624,1.545-0.624s1.105,0.176,1.506,0.528l-0.377,0.54
					c-0.164-0.141-0.33-0.237-0.496-0.291c-0.166-0.055-0.359-0.081-0.578-0.081c-0.424,0-0.781,0.137-1.068,0.41
					c-0.287,0.274-0.432,0.635-0.432,1.08c0,0.446,0.141,0.805,0.42,1.074c0.279,0.271,0.619,0.405,1.018,0.405
					c0.396,0,0.73-0.086,0.998-0.258V100.361z"/>
				<path fill="#8E8E8E" d="M85.196,101.447l-0.42,0.954h-0.756l1.848-4.194h0.756l1.848,4.194h-0.756l-0.42-0.954H85.196z
					 M87.009,100.792l-0.764-1.728l-0.762,1.728H87.009z"/>
				<path fill="#8E8E8E" d="M94.417,98.207h0.709v4.194h-0.768l-2.376-3.06v3.06h-0.707v-4.194h0.707l2.435,3.133V98.207z"/>
				<path fill="#8E8E8E" d="M103.958,98.855v3.546h-0.707v-3.546h-1.273v-0.648h3.254v0.648H103.958z"/>
				<path fill="#8E8E8E" d="M111.165,98.207v0.666h-2.238v1.11h2.01v0.63h-2.01v1.122h2.309v0.666h-3.018v-4.194H111.165z"/>
				<path fill="#8E8E8E" d="M116.846,102.401l-1.033-1.578h-0.029l-1.033,1.578h-0.881l1.439-2.154l-1.338-2.04h0.877l0.936,1.416
					h0.029l0.936-1.416h0.877l-1.338,2.04l1.439,2.154H116.846z"/>
				<path fill="#8E8E8E" d="M122.204,98.855v3.546h-0.709v-3.546h-1.271v-0.648h3.252v0.648H122.204z"/>
			</g>
		</g>
	</g>
</g>
</svg>
