<?xml version="1.0"?><svg fill="#2196f3" xmlns="http://www.w3.org/2000/svg" viewBox="0 0 128 128" width="64px" height="64px">    <path d="M 82.787109 13.425781 C 82.399609 13.400781 81.999609 13.449609 81.599609 13.599609 L 68.099609 18.5 C 66.499609 19.1 65.700781 20.800781 66.300781 22.300781 L 67.599609 25.800781 L 25.5 41.199219 C 24.8 41.499219 24.100781 42.000781 23.800781 42.800781 C 23.500781 43.500781 23.399219 44.299609 23.699219 45.099609 L 26.099609 51.699219 L 7.8007812 58.300781 C 6.2007812 58.900781 5.4 60.599609 6 62.099609 L 11.300781 76.699219 C 11.600781 77.399219 12.100391 78.100391 12.900391 78.400391 C 13.300391 78.600391 13.699219 78.699219 14.199219 78.699219 C 14.499219 78.699219 14.899219 78.6 15.199219 78.5 L 33.5 71.800781 L 35.900391 78.400391 C 36.200391 79.100391 36.7 79.799609 37.5 80.099609 C 37.9 80.299609 38.300781 80.400391 38.800781 80.400391 C 39.100781 80.400391 39.500781 80.299219 39.800781 80.199219 L 56.199219 74.199219 C 57.799219 73.599219 58.6 71.900391 58 70.400391 C 57.4 68.800391 55.699219 67.999609 54.199219 68.599609 L 40.599609 73.5 L 30.400391 45.800781 L 69.599609 31.5 L 79.699219 59.199219 L 70 62.800781 C 68.4 63.400781 67.599219 65.099609 68.199219 66.599609 C 68.799219 68.199609 70.5 69.000391 72 68.400391 L 81.800781 64.800781 L 83.099609 68.300781 C 83.399609 69.000781 83.899219 69.7 84.699219 70 C 85.099219 70.2 85.5 70.300781 86 70.300781 C 86.3 70.300781 86.7 70.199609 87 70.099609 L 100.5 65.199219 C 102.1 64.599219 102.90078 62.900391 102.30078 61.400391 L 85.5 15.400391 C 85.2 14.700391 84.700391 13.999219 83.900391 13.699219 C 83.550391 13.549219 83.174609 13.450781 82.787109 13.425781 z M 80.800781 20.300781 L 95.5 60.699219 L 87.699219 63.5 L 86.400391 60 L 74.300781 26.699219 L 73 23.199219 L 80.800781 20.300781 z M 16.441406 44.603516 C 16.061719 44.587891 15.675781 44.650781 15.300781 44.800781 L 7.5996094 47.599609 C 5.9996094 48.199609 5.2007812 49.900391 5.8007812 51.400391 C 6.2007813 52.600391 7.3996094 53.400391 8.5996094 53.400391 C 8.8996094 53.400391 9.1996094 53.399219 9.5996094 53.199219 L 17.300781 50.400391 C 18.900781 49.800391 19.699609 48.099609 19.099609 46.599609 C 18.649609 45.399609 17.580469 44.650391 16.441406 44.603516 z M 59.242188 56.603516 C 58.8625 56.587891 58.474609 56.650781 58.099609 56.800781 C 56.499609 57.400781 55.700781 59.099609 56.300781 60.599609 L 76 115 L 28.300781 115 L 39.400391 88.599609 C 40.000391 87.099609 39.300781 85.299219 37.800781 84.699219 C 36.300781 84.099219 34.500391 84.800781 33.900391 86.300781 L 21.900391 114.90039 L 21.900391 115.09961 L 17.900391 115.09961 C 16.200391 115.09961 14.900391 116.39961 14.900391 118.09961 C 14.900391 119.79961 16.200391 121.09961 17.900391 121.09961 L 109.19922 121.09961 C 110.79922 120.99961 112.09961 119.7 112.09961 118 C 112.09961 116.3 110.79961 115 109.09961 115 L 82.400391 115 L 61.900391 58.599609 C 61.450391 57.399609 60.38125 56.650391 59.242188 56.603516 z M 28.199219 57.300781 L 31.400391 66.199219 L 15.900391 71.900391 L 12.699219 63 L 28.199219 57.300781 z M 4.9003906 115.07422 C 4.1253906 115.07422 3.3507813 115.35039 2.8007812 115.90039 C 2.3007812 116.50039 1.9003906 117.2 1.9003906 118 C 1.9003906 118.8 2.2007813 119.59961 2.8007812 120.09961 C 3.3007812 120.69961 4.1003906 121 4.9003906 121 C 5.7003906 121 6.5 120.69961 7 120.09961 C 7.6 119.49961 7.9003906 118.8 7.9003906 118 C 7.9003906 117.2 7.6 116.40039 7 115.90039 C 6.45 115.35039 5.6753906 115.07422 4.9003906 115.07422 z"/></svg>