<svg fill="#fbc02d" xmlns="http://www.w3.org/2000/svg" viewBox="0 0 32 32" width="64px" height="64px"><path d="M 21.84375 4.046875 C 20.890625 4.050781 19.84375 4.113281 18.714844 4.257813 C 15.425781 4.683594 12.128906 5.660156 10.050781 6.703125 C 7.394531 8.035156 5.804688 9.128906 4.820313 9.984375 C 3.832031 10.84375 3.390625 11.574219 3.296875 11.71875 C 2.996094 12.171875 2.980469 12.625 3.007813 13.015625 C 3.035156 13.402344 3.125 13.765625 3.234375 14.113281 C 3.449219 14.804688 3.75 15.429688 3.914063 15.765625 C 4.425781 16.800781 5.511719 17.296875 6.492188 16.855469 C 6.695313 16.761719 6.882813 16.652344 7.207031 16.472656 C 7.53125 16.292969 7.929688 16.066406 8.328125 15.84375 C 9.132813 15.390625 9.988281 14.90625 10.152344 14.820313 L 10.15625 14.820313 L 10.15625 14.816406 C 10.957031 14.390625 11.15625 13.664063 11.3125 12.914063 L 11.3125 12.917969 C 11.398438 12.496094 11.484375 11.742188 11.609375 10.757813 C 11.730469 9.789063 11.855469 8.738281 11.929688 8.125 C 13.597656 7.425781 15.882813 6.757813 18.296875 6.382813 C 18.390625 6.503906 18.84375 7.085938 19.449219 7.859375 C 20.117188 8.714844 20.8125 9.601563 21.171875 10 C 21.683594 10.566406 22.300781 11 23 11 L 27 11 C 27.679688 11 28.40625 10.695313 28.738281 10.136719 C 29.070313 9.578125 29.027344 9.066406 28.992188 8.652344 L 28.992188 8.648438 C 28.960938 8.28125 28.894531 7.589844 28.71875 6.882813 C 28.632813 6.53125 28.523438 6.171875 28.34375 5.828125 C 28.164063 5.480469 27.921875 5.101563 27.433594 4.867188 C 26.816406 4.570313 25.867188 4.335938 24.386719 4.171875 C 23.644531 4.089844 22.792969 4.039063 21.84375 4.046875 Z M 7.335938 4.144531 C 5.558594 5.148438 4.28125 6.050781 3.34375 6.84375 L 4.632813 8.375 C 5.460938 7.671875 6.636719 6.839844 8.320313 5.886719 Z M 23.425781 6.117188 C 23.695313 6.125 23.945313 6.136719 24.167969 6.160156 C 25.445313 6.300781 26.339844 6.585938 26.511719 6.65625 C 26.519531 6.667969 26.539063 6.683594 26.5625 6.738281 C 26.632813 6.871094 26.714844 7.105469 26.777344 7.363281 C 26.90625 7.878906 26.972656 8.496094 27 8.820313 C 27.003906 8.90625 27 8.945313 26.996094 9 L 23 9 C 23.015625 9 23.019531 9.0625 22.660156 8.664063 C 22.457031 8.4375 21.683594 7.472656 21.023438 6.628906 C 20.855469 6.410156 20.851563 6.410156 20.703125 6.214844 C 21.636719 6.171875 22.617188 6.105469 23.425781 6.117188 Z M 9.78125 9.21875 C 9.726563 9.671875 9.683594 10.035156 9.625 10.507813 C 9.503906 11.484375 9.355469 12.492188 9.355469 12.5 L 9.351563 12.503906 C 9.25 13.003906 9.011719 13.160156 9.214844 13.050781 C 8.925781 13.207031 8.148438 13.648438 7.347656 14.097656 C 6.945313 14.324219 6.550781 14.546875 6.234375 14.722656 C 5.988281 14.859375 5.855469 14.929688 5.78125 14.96875 C 5.757813 14.953125 5.734375 14.929688 5.710938 14.878906 L 5.710938 14.875 L 5.707031 14.875 C 5.5625 14.585938 5.300781 14.027344 5.140625 13.515625 C 5.0625 13.261719 5.011719 13.023438 5 12.875 C 4.996094 12.804688 5.003906 12.769531 5.007813 12.757813 C 5.195313 12.464844 5.363281 12.164063 6.132813 11.5 C 6.753906 10.957031 8.234375 10.089844 9.78125 9.21875 Z M 13 11 L 13 13.542969 C 12.652344 13.796875 11.402344 14.683594 9.792969 16.292969 C 7.976563 18.109375 6 20.417969 6 23 L 6 28 L 10.414063 28 L 11.414063 27 L 22.585938 27 L 23.585938 28 L 28 28 L 28 23 C 28 20.417969 26.023438 18.109375 24.207031 16.292969 C 22.597656 14.683594 21.347656 13.796875 21 13.542969 L 21 11 L 18 11 L 18 12 L 16 12 L 16 11 Z M 24 12 L 24 14 L 28 14 L 28 12 Z M 4.976563 12.804688 C 4.96875 12.816406 4.972656 12.808594 4.964844 12.824219 L 4.960938 12.824219 C 4.964844 12.816406 4.972656 12.808594 4.976563 12.804688 Z M 15 14 L 19 14 L 19 14.515625 L 19.417969 14.8125 C 19.417969 14.8125 21.109375 16.023438 22.792969 17.707031 C 24.476563 19.390625 26 21.582031 26 23 L 26 26 L 24.414063 26 L 23.414063 25 L 10.585938 25 L 9.585938 26 L 8 26 L 8 23 C 8 21.582031 9.523438 19.390625 11.207031 17.707031 C 12.890625 16.023438 14.582031 14.8125 14.582031 14.8125 L 15 14.515625 Z M 13 18 L 13 20 L 15 20 L 15 18 Z M 16 18 L 16 20 L 18 20 L 18 18 Z M 19 18 L 19 20 L 21 20 L 21 18 Z M 13 21 L 13 23 L 15 23 L 15 21 Z M 16 21 L 16 23 L 18 23 L 18 21 Z M 19 21 L 19 23 L 21 23 L 21 21 Z"/></svg>