<svg fill="#2196f3" xmlns="http://www.w3.org/2000/svg" viewBox="0 0 50 50" width="50px" height="50px"><path d="M 39 1 C 33.488666 1 29 5.4886661 29 11 C 29 16.511334 33.488666 21 39 21 C 41.819 21 44.363594 19.822453 46.183594 17.939453 C 45.957594 17.967453 45.733 18 45.5 18 C 44.79 18 44.113234 17.861234 43.490234 17.615234 C 42.208234 18.488234 40.664 19 39 19 C 34.569334 19 31 15.430666 31 11 C 31 6.5693339 34.569334 3 39 3 C 43.430666 3 47 6.5693339 47 11 L 47 12.5 C 47 13.327 46.327 14 45.5 14 C 44.673 14 44 13.327 44 12.5 L 44 11 C 44 9.7777779 43.597986 8.5421194 42.748047 7.5859375 C 41.898108 6.6297556 40.583333 6 39 6 C 37.416667 6 36.101892 6.6297556 35.251953 7.5859375 C 34.402014 8.5421194 34 9.7777779 34 11 C 34 12.222222 34.402014 13.457881 35.251953 14.414062 C 36.101892 15.370245 37.416667 16 39 16 C 40.524355 16 41.795127 15.412373 42.646484 14.515625 C 43.281059 15.410743 44.321633 16 45.5 16 C 47.43 16 49 14.43 49 12.5 L 49 11 C 49 5.4886661 44.511334 1 39 1 z M 8 8 C 5.794 8 4 9.794 4 12 L 4 34 C 4 34.732221 4.2118795 35.409099 4.5566406 36 L 2 36 A 1.0001 1.0001 0 0 0 1 37 C 1 39.749516 3.2504839 42 6 42 L 44 42 C 46.749516 42 49 39.749516 49 37 A 1.0001 1.0001 0 0 0 48 36 L 45.443359 36 C 45.788121 35.409099 46 34.732221 46 34 L 46 20.732422 C 45.375 21.182422 44.707 21.574437 44 21.898438 L 44 34 C 44 35.103 43.103 36 42 36 L 8 36 C 6.897 36 6 35.103 6 34 L 6 12 C 6 10.897 6.897 10 8 10 L 27.050781 10 C 27.107781 9.314 27.225578 8.648 27.392578 8 L 8 8 z M 39 8 C 40.083333 8 40.768559 8.3702444 41.251953 8.9140625 C 41.735347 9.4578806 42 10.222222 42 11 C 42 11.777778 41.735347 12.542119 41.251953 13.085938 C 40.768559 13.629755 40.083333 14 39 14 C 37.916667 14 37.231441 13.629756 36.748047 13.085938 C 36.264653 12.542118 36 11.777778 36 11 C 36 10.222222 36.264653 9.4578806 36.748047 8.9140625 C 37.231441 8.3702444 37.916667 8 39 8 z M 3.4121094 38 L 8 38 L 42 38 L 46.587891 38 C 46.150803 39.112465 45.275852 40 44 40 L 6 40 C 4.7241482 40 3.8491966 39.112465 3.4121094 38 z"/></svg>