<svg fill="#ffffff" xmlns="http://www.w3.org/2000/svg" viewBox="0 0 32 32" width="64px" height="64px"><path d="M 16 4 C 9.382813 4 4 9.382813 4 16 C 4 22.617188 9.382813 28 16 28 C 20.175781 28 23.847656 25.867188 26 22.625 L 26 25 C 26 27.746094 28.253906 30 31 30 L 32 30 L 32 28 L 31 28 C 29.34375 28 28 26.65625 28 25 L 28 16 C 28 9.382813 22.617188 4 16 4 Z M 16 6 C 21.535156 6 26 10.464844 26 16 C 26 21.535156 21.535156 26 16 26 C 10.464844 26 6 21.535156 6 16 C 6 10.464844 10.464844 6 16 6 Z M 16 7 C 14.867188 7 13.8125 7.21875 13.8125 7.21875 L 12.75 7.4375 L 13.03125 8.46875 L 13.84375 11.375 L 14.03125 12.09375 L 14.8125 12.09375 C 15.378906 12.09375 15.765625 12 16 12 C 16.234375 12 16.621094 12.09375 17.1875 12.09375 L 17.96875 12.09375 L 18.15625 11.375 L 18.96875 8.46875 L 19.25 7.4375 L 18.1875 7.21875 C 18.1875 7.21875 17.132813 7 16 7 Z M 16 9 C 16.34375 9 16.417969 9.027344 16.71875 9.0625 L 16.46875 10.03125 C 16.296875 10.011719 16.222656 10 16 10 C 15.777344 10 15.703125 10.011719 15.53125 10.03125 L 15.28125 9.0625 C 15.582031 9.027344 15.65625 9 16 9 Z M 7.4375 12.75 L 7.21875 13.8125 C 7.21875 13.8125 7 14.867188 7 16 C 7 17.132813 7.21875 18.1875 7.21875 18.1875 L 7.4375 19.25 L 8.46875 18.96875 L 11.375 18.15625 L 12.09375 17.96875 L 12.09375 17.1875 C 12.09375 16.621094 12 16.234375 12 16 C 12 15.765625 12.09375 15.378906 12.09375 14.8125 L 12.09375 14.03125 L 11.375 13.84375 L 8.46875 13.03125 Z M 24.5625 12.75 L 23.53125 13.03125 L 20.625 13.84375 L 19.90625 14.03125 L 19.90625 14.8125 C 19.90625 15.378906 20 15.765625 20 16 C 20 16.234375 19.90625 16.621094 19.90625 17.1875 L 19.90625 17.96875 L 20.625 18.15625 L 23.53125 18.96875 L 24.5625 19.25 L 24.78125 18.1875 C 24.78125 18.1875 25 17.132813 25 16 C 25 14.867188 24.78125 13.8125 24.78125 13.8125 Z M 16 13 C 14.355469 13 13 14.355469 13 16 C 13 17.644531 14.355469 19 16 19 C 17.644531 19 19 17.644531 19 16 C 19 14.355469 17.644531 13 16 13 Z M 16 15 C 16.5625 15 17 15.4375 17 16 C 17 16.5625 16.5625 17 16 17 C 15.4375 17 15 16.5625 15 16 C 15 15.4375 15.4375 15 16 15 Z M 9.0625 15.28125 L 10.03125 15.53125 C 10.011719 15.703125 10 15.777344 10 16 C 10 16.222656 10.011719 16.296875 10.03125 16.46875 L 9.0625 16.71875 C 9.027344 16.417969 9 16.34375 9 16 C 9 15.65625 9.027344 15.582031 9.0625 15.28125 Z M 22.9375 15.28125 C 22.972656 15.582031 23 15.65625 23 16 C 23 16.34375 22.972656 16.417969 22.9375 16.71875 L 21.96875 16.46875 C 21.988281 16.296875 22 16.222656 22 16 C 22 15.777344 21.988281 15.703125 21.96875 15.53125 Z M 14.03125 19.90625 L 13.84375 20.625 L 13.03125 23.53125 L 12.75 24.5625 L 13.8125 24.78125 C 13.8125 24.78125 14.867188 25 16 25 C 17.132813 25 18.1875 24.78125 18.1875 24.78125 L 19.25 24.5625 L 18.96875 23.53125 L 18.15625 20.625 L 17.96875 19.90625 L 17.1875 19.90625 C 16.621094 19.90625 16.234375 20 16 20 C 15.765625 20 15.378906 19.90625 14.8125 19.90625 Z M 15.53125 21.96875 C 15.703125 21.988281 15.777344 22 16 22 C 16.222656 22 16.296875 21.988281 16.46875 21.96875 L 16.71875 22.9375 C 16.417969 22.972656 16.34375 23 16 23 C 15.65625 23 15.582031 22.972656 15.28125 22.9375 Z"/></svg>