<svg fill="#ffffff" xmlns="http://www.w3.org/2000/svg" viewBox="0 0 32 32" width="64px" height="64px"><path d="M 9 5 C 8.0833335 5 7.268559 5.3797556 6.7519531 5.9609375 C 6.2353472 6.5421194 6 7.2777779 6 8 C 6 8.7222221 6.2353472 9.4578811 6.7519531 10.039062 C 7.268559 10.620245 8.0833335 11 9 11 C 9.9166665 11 10.731441 10.620244 11.248047 10.039062 C 11.764653 9.4578811 12 8.7222221 12 8 C 12 7.2777779 11.764653 6.5421194 11.248047 5.9609375 C 10.731441 5.3797556 9.9166665 5 9 5 z M 16 5 C 15.083334 5 14.268559 5.3797556 13.751953 5.9609375 C 13.235347 6.5421194 13 7.2777779 13 8 C 13 8.7222221 13.235347 9.4578811 13.751953 10.039062 C 14.268559 10.620245 15.083334 11 16 11 C 16.916666 11 17.731441 10.620244 18.248047 10.039062 C 18.764653 9.4578811 19 8.7222221 19 8 C 19 7.2777779 18.764653 6.5421194 18.248047 5.9609375 C 17.731441 5.3797556 16.916666 5 16 5 z M 23 5 C 22.083334 5 21.268559 5.3797556 20.751953 5.9609375 C 20.235347 6.5421194 20 7.2777779 20 8 C 20 8.7222221 20.235347 9.4578811 20.751953 10.039062 C 21.268559 10.620245 22.083334 11 23 11 C 23.916666 11 24.731441 10.620244 25.248047 10.039062 C 25.764653 9.4578811 26 8.7222221 26 8 C 26 7.2777779 25.764653 6.5421194 25.248047 5.9609375 C 24.731441 5.3797556 23.916666 5 23 5 z M 9 7 C 9.4166663 7 9.6018927 7.1202444 9.7519531 7.2890625 C 9.9020136 7.4578806 10 7.7222221 10 8 C 10 8.2777779 9.9020136 8.5421194 9.7519531 8.7109375 C 9.6018927 8.8797556 9.4166663 9 9 9 C 8.5833337 9 8.3981073 8.8797556 8.2480469 8.7109375 C 8.0979864 8.5421194 8 8.2777779 8 8 C 8 7.7222221 8.0979864 7.4578806 8.2480469 7.2890625 C 8.3981073 7.1202444 8.5833337 7 9 7 z M 16 7 C 16.416666 7 16.601893 7.1202444 16.751953 7.2890625 C 16.902014 7.4578806 17 7.7222221 17 8 C 17 8.2777779 16.902014 8.5421194 16.751953 8.7109375 C 16.601893 8.8797556 16.416666 9 16 9 C 15.583334 9 15.398107 8.8797556 15.248047 8.7109375 C 15.097986 8.5421194 15 8.2777779 15 8 C 15 7.7222221 15.097986 7.4578806 15.248047 7.2890625 C 15.398107 7.1202444 15.583334 7 16 7 z M 23 7 C 23.416666 7 23.601893 7.1202444 23.751953 7.2890625 C 23.902014 7.4578806 24 7.7222221 24 8 C 24 8.2777779 23.902014 8.5421194 23.751953 8.7109375 C 23.601893 8.8797556 23.416666 9 23 9 C 22.583334 9 22.398107 8.8797556 22.248047 8.7109375 C 22.097986 8.5421194 22 8.2777779 22 8 C 22 7.7222221 22.097986 7.4578806 22.248047 7.2890625 C 22.398107 7.1202444 22.583334 7 23 7 z M 8 12 C 5.794 12 4 13.794 4 16 L 4 20.248047 L 6 21.248047 L 6 27 L 8 27 L 8 20.013672 L 6 19.013672 L 6 16 C 6 14.897 6.897 14 8 14 L 9.0058594 14 C 9.2698594 13.257 9.6784063 12.592531 10.191406 12.019531 C 10.127406 12.013531 10.065 12 10 12 L 8 12 z M 14.648438 12 C 12.638851 12 10.928088 13.510053 10.679688 15.503906 L 10.011719 19.847656 L 11.988281 20.152344 L 12.662109 15.765625 L 12.664062 15.751953 C 12.789614 14.743805 13.632022 14 14.648438 14 L 17 14 C 18.116666 14 19 14.883334 19 16 L 19 19.013672 L 17 20.013672 L 17 27 L 19 27 L 19 21.25 L 21 20.25 L 21 16 C 21 13.802666 19.197334 12 17 12 L 14.648438 12 z M 22 12 C 21.831 12 21.669859 12.029781 21.505859 12.050781 C 22.002859 12.616781 22.393391 13.276 22.650391 14 L 24 14 C 25.103 14 26 14.897 26 16 L 26 19.013672 L 24 20.013672 L 24 27 L 26 27 L 26 21.248047 L 28 20.248047 L 28 16 C 28 13.794 26.206 12 24 12 L 22 12 z M 10 21 L 10 25 L 12 25 L 12 21 L 10 21 z M 13 21 L 13 27 L 15 27 L 15 21 L 13 21 z"/></svg>