<?xml version="1.0"?><svg fill="#ffffff" xmlns="http://www.w3.org/2000/svg" viewBox="0 0 30 30" width="90px" height="90px">    <path d="M 15 1 C 7.8324839 1 2 6.8324839 2 14 C 2 19.007051 4.8422214 23.35865 9.0019531 25.527344 A 1.0002691 1.0002691 0 0 0 9.9277344 23.753906 C 6.4074661 21.9186 4 18.250949 4 14 C 4 7.9135161 8.9135161 3 15 3 C 21.086484 3 26 7.9135161 26 14 C 26 18.250949 23.593315 21.919649 20.074219 23.753906 A 1.0001 1.0001 0 1 0 20.998047 25.527344 C 25.156951 23.359601 28 19.007051 28 14 C 28 6.8324839 22.167516 1 15 1 z M 15 5 C 10.041484 5 6 9.0414839 6 14 C 6 16.535236 7.0583621 18.833285 8.7480469 20.466797 A 1.0007326 1.0007326 0 0 0 10.138672 19.027344 C 8.8203565 17.752855 8 15.980764 8 14 C 8 10.122516 11.122516 7 15 7 C 18.877484 7 22 10.122516 22 14 C 22 15.980764 21.179643 17.752855 19.861328 19.027344 A 1.0007326 1.0007326 0 1 0 21.251953 20.466797 C 22.941638 18.833285 24 16.535236 24 14 C 24 9.0414839 19.958516 5 15 5 z M 15 11 A 3 3 0 0 0 12 14 A 3 3 0 0 0 15 17 A 3 3 0 0 0 18 14 A 3 3 0 0 0 15 11 z M 15 19 C 13.343 19 12 20.343 12 22 C 12 22.148 12.023922 22.290594 12.044922 22.433594 L 12.033203 22.433594 L 12.060547 22.591797 C 12.061547 22.597797 12.0615 22.605328 12.0625 22.611328 L 13.015625 28.238281 L 13.023438 28.236328 C 13.142437 29.228328 13.977 30 15 30 C 16.023 30 16.857563 29.228328 16.976562 28.236328 L 16.984375 28.238281 L 17.9375 22.611328 C 17.9385 22.605328 17.938453 22.597797 17.939453 22.591797 L 17.966797 22.433594 L 17.955078 22.433594 C 17.976078 22.290594 18 22.148 18 22 C 18 20.343 16.657 19 15 19 z"/></svg>