<?xml version="1.0" encoding="utf-8"?>
<!-- Generator: Adobe Illustrator 24.1.3, SVG Export Plug-In . SVG Version: 6.00 Build 0)  -->
<svg version="1.1" id="Layer_1" xmlns="http://www.w3.org/2000/svg" xmlns:xlink="http://www.w3.org/1999/xlink" x="0px" y="0px"
	 viewBox="0 0 165 110" style="enable-background:new 0 0 165 110;" xml:space="preserve">
<style type="text/css">
	.st0{opacity:0.25;}
	.st1{fill:#FFFFFF;}
</style>
<g class="st0">
	<path class="st1" d="M117,64.9c0.3,0.2,0.6,0.3,1,0.3c0,0,0,0,0,0c0.3,0,0.7-0.1,1-0.3c0.3-0.2,0.6-0.4,0.7-0.7
		c0.2-0.3,0.3-0.7,0.3-1c0-0.4-0.1-0.7-0.3-1c-0.2-0.3-0.4-0.6-0.7-0.7c-0.3-0.2-0.6-0.3-1-0.3c0,0,0,0,0,0c-0.3,0-0.7,0.1-1,0.3
		c-0.3,0.2-0.6,0.4-0.7,0.7c-0.2,0.3-0.3,0.7-0.3,1c0,0.3,0.1,0.7,0.3,1C116.4,64.5,116.7,64.7,117,64.9z M116.5,62.3
		c0.1-0.3,0.4-0.5,0.6-0.6c0.3-0.1,0.5-0.2,0.8-0.2c0,0,0,0,0,0c0.3,0,0.5,0.1,0.8,0.2c0.3,0.1,0.5,0.4,0.6,0.6
		c0.1,0.3,0.2,0.5,0.2,0.8c0,0.3-0.1,0.6-0.2,0.8c-0.1,0.3-0.3,0.5-0.6,0.6c-0.3,0.1-0.5,0.2-0.8,0.2c0,0,0,0,0,0
		c-0.3,0-0.6-0.1-0.8-0.2c-0.3-0.1-0.5-0.4-0.6-0.6c-0.1-0.3-0.2-0.5-0.2-0.8C116.3,62.8,116.4,62.6,116.5,62.3z"/>
	<path class="st1" d="M117.4,63.3h0.2c0.1,0,0.2,0,0.3,0.1c0,0,0,0,0,0c0.1,0.1,0.2,0.2,0.3,0.5l0.2,0.3h0.4l-0.3-0.4
		c-0.1-0.2-0.2-0.3-0.3-0.4c0,0-0.1-0.1-0.2-0.1c0.2,0,0.3-0.1,0.4-0.2c0.1-0.1,0.2-0.3,0.2-0.4c0-0.1,0-0.2-0.1-0.3
		c-0.1-0.1-0.2-0.2-0.3-0.2c-0.1,0-0.2-0.1-0.4-0.1c0,0-0.1,0-0.1,0h-0.7v2.2h0.3V63.3z M117.4,62.4h0.4c0,0,0.1,0,0.1,0
		c0.1,0,0.2,0,0.2,0c0.1,0,0.1,0.1,0.1,0.1c0,0,0,0.1,0,0.2c0,0.1,0,0.2-0.1,0.2c-0.1,0.1-0.2,0.1-0.3,0.1c0,0-0.1,0-0.1,0h-0.4
		V62.4z"/>
	<polygon class="st1" points="66,62.6 69.1,62.6 66,57.5 63.4,53.1 52.4,59.8 54,62.6 	"/>
	<polygon class="st1" points="94.8,62.6 100.5,62.6 109.9,62.6 100.5,47 90.1,29.7 85.8,32.3 79,36.4 85.8,47.7 	"/>
	<path class="st1" d="M89.5,67.8c-1.1-0.7-2.3-1.1-3.7-1.1c0,0,0,0,0,0c-3.7,0-6.8,3.1-6.8,6.8c0,3.7,3,6.8,6.8,6.8c0,0,0,0,0,0
		c1.4,0,2.6-0.4,3.7-1.1v0.7h3.1v-6.4V62.6h-3.1V67.8z M89.5,74.2c-0.3,1.7-1.9,3-3.7,3c0,0,0,0,0,0c-2,0-3.7-1.7-3.7-3.7
		c0-2,1.7-3.7,3.7-3.7c0,0,0,0,0,0c1.8,0,3.3,1.3,3.7,3V74.2z"/>
	<path class="st1" d="M104.2,67.8c-1.1-0.7-2.3-1.1-3.7-1.1c0,0,0,0,0,0c-3.7,0-6.8,3.1-6.8,6.8c0,3.7,3,6.8,6.8,6.8c0,0,0,0,0,0
		c1.4,0,2.6-0.4,3.7-1.1v0.7h3.1v-6.4V67h-3.1V67.8z M104.2,74.2c-0.3,1.7-1.9,3-3.7,3c0,0,0,0,0,0c-2,0-3.7-1.7-3.7-3.7
		c0-2,1.7-3.7,3.7-3.7c0,0,0,0,0,0c1.8,0,3.3,1.3,3.7,3V74.2z"/>
	<path class="st1" d="M118.4,72.7c-0.1-0.1-0.3-0.1-0.5-0.2c-0.7-0.2-1.8-0.5-3.4-0.9c-1.4-0.3-2.1-0.7-2.1-1.2
		c0-0.4,0.1-0.6,0.4-0.8c0.3-0.3,0.9-0.4,1.7-0.4c0.8,0,1.4,0.2,1.8,0.5c0.2,0.2,0.4,0.6,0.5,1.2h1.1h2.2c0-1.6-0.7-2.8-2-3.5
		c-0.1,0-0.1-0.1-0.2-0.1c-0.9-0.4-2.1-0.6-3.6-0.6c-1.8,0-3.2,0.5-4.1,1.5c-0.7,0.8-1.1,1.7-1.1,2.8c0,1.4,0.7,2.4,2.1,3.1
		c0.5,0.3,1.8,0.6,3.8,1c1.4,0.3,2,0.7,2,1.3c0,0.3-0.1,0.6-0.4,0.8c-0.4,0.3-0.9,0.5-1.7,0.5c-1,0-1.7-0.2-2.2-0.5
		c-0.4-0.3-0.6-0.8-0.6-1.4h-3.5c0,1.6,0.7,2.8,2,3.5c1.1,0.6,2.5,0.9,4.2,0.9c1.2,0,2.2-0.2,3.1-0.6c0.2-0.1,0.3-0.2,0.5-0.3
		c1.4-0.8,2-2,2-3.6C120.5,74.3,119.8,73.3,118.4,72.7z"/>
	<path class="st1" d="M54.9,67.8c-1.1-0.7-2.3-1.1-3.7-1.1c0,0,0,0,0,0c-3.7,0-6.8,3.1-6.8,6.8c0,3.7,3,6.8,6.8,6.8c0,0,0,0,0,0
		c1.4,0,2.6-0.4,3.7-1.1v0.7h3.1v-6.4V67h-3.1V67.8z M54.9,74.2c-0.3,1.7-1.9,3-3.7,3c0,0,0,0,0,0c-2,0-3.7-1.7-3.7-3.7
		c0-2,1.7-3.7,3.7-3.7c0,0,0,0,0,0c1.8,0,3.3,1.3,3.7,3V74.2z"/>
	<rect x="74.4" y="62.7" class="st1" width="3.4" height="3"/>
	<rect x="74.4" y="66.7" class="st1" width="3.4" height="13.2"/>
	<path class="st1" d="M69.8,67.8c-1.1-0.7-2.3-1.1-3.7-1.1c0,0,0,0,0,0c-3.7,0-6.8,3.1-6.8,6.8c0,3.7,3,6.8,6.8,6.8c0,0,0,0,0,0
		c1.3,0,2.6-0.4,3.7-1.1v0.7h3.1v-6.4V62.6h-3.1V67.8z M69.8,74.2c-0.3,1.7-1.9,3-3.7,3c0,0,0,0,0,0c-2,0-3.7-1.7-3.7-3.7
		c0-2,1.7-3.7,3.7-3.7c0,0,0,0,0,0c1.8,0,3.3,1.3,3.7,3V74.2z"/>
	<polygon class="st1" points="89.5,62.6 85.8,56.5 76.8,41.4 66,47.9 65.7,48.1 66,48.7 74.4,62.6 85.8,62.6 	"/>
</g>
</svg>
