<?xml version="1.0" encoding="utf-8"?>
<!-- Generator: Adobe Illustrator 24.1.3, SVG Export Plug-In . SVG Version: 6.00 Build 0)  -->
<svg version="1.1" id="Layer_1" xmlns="http://www.w3.org/2000/svg" xmlns:xlink="http://www.w3.org/1999/xlink" x="0px" y="0px"
	 viewBox="0 0 64 64" style="enable-background:new 0 0 64 64;" xml:space="preserve">
<style type="text/css">
	.st0{fill:#202020;}
</style>
<path class="st0" d="M18.2,3c-0.4,0-0.7,0.1-1,0.4L8,12.6c-0.3,0.2-0.4,0.6-0.4,1v16.1c0,0.8,0.6,1.4,1.4,1.4s1.4-0.6,1.4-1.4V15
	h45.1v17c0,0.8,0.6,1.4,1.4,1.4c0.8,0,1.4-0.6,1.4-1.4V13.6c0-0.4-0.1-0.7-0.4-1l-9.2-9.2C48.4,3.1,48,3,47.6,3H18.2z M18.7,5.8
	h12.8v6.4H12.3L18.7,5.8z M34.3,5.8h12.8l6.4,6.4H34.3V5.8z M31.3,27.9c-0.9,0-1.7,0.2-2.5,0.7l-17.3,9.9c-2.4,1.4-3.9,4-3.9,6.8v13
	H4.4c-0.8,0-1.4,0.6-1.4,1.4C3,60.4,3.6,61,4.4,61H9c0.8,0,1.4-0.6,1.4-1.4V45.3c0-1.8,1-3.5,2.5-4.4l17.3-10
	c0.6-0.3,1.2-0.4,1.8-0.2c0.6,0.2,1.1,0.6,1.4,1.2c0.6,1.1,0.1,2.4-1,3.1l-7,4c-1.3,0.7-2.1,2.1-2.1,3.6c0,1.5,0.8,2.9,2.1,3.6
	c1.1,0.6,1.4,0.8,1.6,0.9c0.4,0.2,0.7,0.3,1.1,0.5c2.1,1,3.5,1.7,6.2,2C41.8,50.5,48,47.9,55,41c0.6-0.6,1.7-0.8,2.4-0.4
	c0.6,0.3,0.8,0.9,0.8,1.2c0.1,0.6-0.1,1.2-0.6,1.7C54.9,46.5,44.7,56,29.4,56c-5.2,0-11.1-1.5-15.1-2.8c-0.7-0.2-1.5,0.2-1.7,0.9
	c-0.2,0.7,0.2,1.5,0.9,1.7c4.1,1.3,10.3,2.9,15.9,2.9c11,0,22.3-5,30.2-13.3c1-1.1,1.5-2.5,1.3-4c-0.2-1.4-1-2.5-2.2-3.2
	c-1.8-1.1-4.2-0.7-5.7,0.8c-6.4,6.4-11.7,8.6-18.3,7.8c-2.3-0.3-3.5-0.8-5.4-1.7c-0.3-0.1-0.7-0.3-1.1-0.5c-0.1,0-0.4-0.2-1.4-0.7
	c-0.6-0.4-0.7-1-0.7-1.2c0-0.2,0-0.8,0.7-1.2l7-4c2.3-1.4,3.3-4.3,2.1-6.7c-0.6-1.3-1.7-2.2-3.1-2.6C32.3,27.9,31.8,27.9,31.3,27.9z
	"/>
</svg>
