<?xml version="1.0" encoding="utf-8"?>
<!-- Generator: Adobe Illustrator 24.1.3, SVG Export Plug-In . SVG Version: 6.00 Build 0)  -->
<svg version="1.1" id="Layer_1" xmlns="http://www.w3.org/2000/svg" xmlns:xlink="http://www.w3.org/1999/xlink" x="0px" y="0px"
	 viewBox="0 0 64 64" style="enable-background:new 0 0 64 64;" xml:space="preserve">
<style type="text/css">
	.st0{fill:#202020;}
</style>
<path class="st0" d="M32,3C16,3,3,16,3,32s13,29,29,29c7.8,0,15.1-3,20.5-8.5l0,0v3.7c0,0.8,0.7,1.5,1.5,1.5s1.5-0.7,1.5-1.5V49
	c0-0.8-0.7-1.5-1.5-1.5h-7.2c-0.8,0-1.5,0.7-1.5,1.5s0.7,1.5,1.5,1.5h3.4C45.3,55.3,38.8,58,32,58C17.6,58,6,46.3,6,32S17.6,6,32,6
	s26,11.6,26,26c0,0.8,0.7,1.5,1.5,1.5S61,32.8,61,32C61,16,48,3,32,3z M32,15.5c-0.9,0-1.5,0.6-1.5,1.5v10.2c-2,0.6-3.5,2.5-3.5,4.8
	c0,2.8,2.2,5,5,5c2.2,0,4.2-1.5,4.8-3.5H47c0.8,0,1.5-0.7,1.5-1.5c0-0.9-0.7-1.5-1.5-1.5H36.8c-0.5-1.5-1.7-2.8-3.2-3.2V17
	C33.5,16.1,32.8,15.5,32,15.5z M32,30c1.1,0,2,0.9,2,2c0,1.1-0.9,2-2,2c-1.1,0-2-0.9-2-2C30,30.9,30.9,30,32,30z M58.4,38
	c-0.9,0-1.7,0.7-1.7,1.6c0,0,0,0,0,0c0,0.9,0.7,1.6,1.7,1.6c0.9,0,1.6-0.7,1.6-1.6C60.1,38.8,59.3,38.1,58.4,38z"/>
</svg>
