<svg fill="#2196f3" xmlns="http://www.w3.org/2000/svg" viewBox="0 0 50 50" width="100px" height="100px"><path d="M 17.091797 3 C 15.393971 3 14 4.4014636 14 6.0996094 L 14 16 C 14 17.64562 15.360145 19 17 19 L 22.382812 19 L 24.105469 22.447266 A 1.0001 1.0001 0 0 0 25.894531 22.447266 L 27.617188 19 L 33.091797 19 C 34.731652 19 36.091797 17.64562 36.091797 16 L 36.091797 6.0996094 C 36.091797 4.4014636 34.697826 3 33 3 L 17.091797 3 z M 17.091797 5 L 33 5 C 33.602174 5 34.091797 5.4877551 34.091797 6.0996094 L 34.091797 16 C 34.091797 16.66438 33.751942 17 33.091797 17 L 27 17 A 1.0001 1.0001 0 0 0 26.105469 17.552734 L 25 19.763672 L 23.894531 17.552734 A 1.0001 1.0001 0 0 0 23 17 L 17 17 C 16.339855 17 16 16.66438 16 16 L 16 6.0996094 C 16 5.4877551 16.489623 5 17.091797 5 z M 14.03125 23 C 11.8655 23 10.110256 23.542196 8.875 24.576172 C 7.6397437 25.610148 7 27.128576 7 28.75 C 7 29.377976 7.1447151 30.01736 7.2773438 30.564453 C 7.3381257 30.815177 7.3521898 30.841507 7.4003906 31.013672 C 7.1772926 31.370475 7 31.862561 7 32.5 C 7 33.291667 7.2135165 33.971329 7.6679688 34.425781 C 7.8715135 34.629326 8.0910259 34.595035 8.3203125 34.683594 C 8.451964 35.215509 8.5865059 35.756912 8.8203125 36.195312 C 8.9816101 36.497755 9.1542803 36.769668 9.3378906 37.005859 C 9.3801106 37.060169 9.4584739 37.101029 9.5 37.152344 L 9.5 38.703125 C 9.3620466 39.001082 9.0774713 39.289889 8.4824219 39.605469 C 7.8486249 39.941598 6.9780833 40.262268 6.0722656 40.681641 C 5.166448 41.101013 4.2094607 41.626002 3.4296875 42.464844 C 2.6499143 43.303685 2.0920427 44.473609 2.0019531 45.939453 A 1.0001 1.0001 0 0 0 3 47 L 24 47 L 27 47 L 47 47 A 1.0001 1.0001 0 0 0 47.998047 45.939453 C 47.90594 44.440788 47.249604 43.24598 46.365234 42.416016 C 45.480865 41.586051 44.409447 41.076937 43.382812 40.662109 C 42.356178 40.247282 41.359594 39.924227 40.630859 39.582031 C 39.942762 39.258917 39.62407 38.95558 39.5 38.697266 L 39.5 37.150391 C 39.54144 37.099101 39.619942 37.058201 39.662109 37.003906 C 39.845459 36.767837 40.016496 36.497644 40.177734 36.195312 C 40.41148 35.757027 40.547764 35.21534 40.679688 34.683594 C 40.908974 34.595034 41.128486 34.629324 41.332031 34.425781 C 41.786484 33.971329 42 33.291667 42 32.5 C 42 31.862561 41.822707 31.370475 41.599609 31.013672 C 41.647809 30.841507 41.661879 30.815177 41.722656 30.564453 C 41.855285 30.01736 42 29.377976 42 28.75 C 42 27.693857 41.72873 26.557239 41.021484 25.617188 C 40.431158 24.832542 39.4408 24.327897 38.283203 24.150391 L 37.890625 23.490234 A 1.0001 1.0001 0 0 0 37.03125 23 C 34.8655 23 33.110256 23.542196 31.875 24.576172 C 30.639744 25.610148 30 27.128576 30 28.75 C 30 29.377976 30.144715 30.01736 30.277344 30.564453 C 30.338124 30.815177 30.352184 30.841507 30.400391 31.013672 C 30.177293 31.370475 30 31.862561 30 32.5 C 30 33.291667 30.213516 33.971329 30.667969 34.425781 C 30.871514 34.629326 31.091026 34.595035 31.320312 34.683594 C 31.451964 35.215509 31.586506 35.756912 31.820312 36.195312 C 31.98161 36.497755 32.15428 36.769668 32.337891 37.005859 C 32.380111 37.060169 32.458474 37.101029 32.5 37.152344 L 32.5 38.703125 C 32.362047 39.001082 32.077471 39.289889 31.482422 39.605469 C 30.848625 39.941598 29.978083 40.262268 29.072266 40.681641 C 28.166448 41.101013 27.20946 41.626002 26.429688 42.464844 C 25.649914 43.303685 25.092043 44.473609 25.001953 45.939453 A 1.0001 1.0001 0 0 0 25 45.970703 A 1.0001 1.0001 0 0 0 24.998047 45.939453 C 24.90594 44.440788 24.249604 43.24598 23.365234 42.416016 C 22.480865 41.586051 21.409447 41.076937 20.382812 40.662109 C 19.356178 40.247282 18.359594 39.924227 17.630859 39.582031 C 16.942762 39.258917 16.62407 38.95558 16.5 38.697266 L 16.5 37.150391 C 16.54144 37.099101 16.619942 37.058201 16.662109 37.003906 C 16.845459 36.767837 17.016496 36.497644 17.177734 36.195312 C 17.41148 35.757027 17.547764 35.21534 17.679688 34.683594 C 17.908973 34.595034 18.128486 34.629324 18.332031 34.425781 C 18.786484 33.971329 19 33.291667 19 32.5 C 19 31.862561 18.822707 31.370475 18.599609 31.013672 C 18.647809 30.841507 18.661879 30.815177 18.722656 30.564453 C 18.855285 30.01736 19 29.377976 19 28.75 C 19 27.693857 18.72873 26.557239 18.021484 25.617188 C 17.431158 24.832542 16.4408 24.327897 15.283203 24.150391 L 14.890625 23.490234 A 1.0001 1.0001 0 0 0 14.03125 23 z M 13.503906 25.070312 L 13.765625 25.509766 A 1.0001 1.0001 0 0 0 14.625 26 C 15.561972 26 16.047621 26.322864 16.421875 26.820312 C 16.796129 27.317761 17 28.056143 17 28.75 C 17 28.997024 16.894715 29.60764 16.777344 30.091797 C 16.659972 30.575954 16.544922 30.955078 16.544922 30.955078 A 1.0001 1.0001 0 0 0 16.919922 32.0625 C 16.932977 32.081805 17 32.172583 17 32.5 C 17 32.958333 16.901019 33.028671 16.917969 33.011719 C 16.93492 32.994766 16.958333 33 16.875 33 A 1.0001 1.0001 0 0 0 15.880859 33.890625 C 15.839279 34.268471 15.643836 34.823069 15.414062 35.253906 C 15.299176 35.469325 15.175713 35.656725 15.082031 35.777344 C 14.988351 35.897962 14.874116 35.946039 15.042969 35.859375 A 1.0001 1.0001 0 0 0 14.5 36.75 L 14.5 39 A 1.0001 1.0001 0 0 0 14.566406 39.355469 C 14.96323 40.396284 15.86925 40.965243 16.779297 41.392578 C 17.689344 41.819914 18.697822 42.137828 19.632812 42.515625 C 20.567804 42.893422 21.413432 43.328183 21.996094 43.875 C 22.335751 44.193762 22.572697 44.567242 22.746094 45 L 4.4238281 45 C 4.5794095 44.61548 4.631922 44.108674 4.8945312 43.826172 C 5.3944456 43.288389 6.106177 42.869221 6.9121094 42.496094 C 7.7180417 42.122966 8.6025314 41.80459 9.4199219 41.371094 C 10.237312 40.937598 11.056982 40.344641 11.433594 39.355469 A 1.0001 1.0001 0 0 0 11.5 39 L 11.5 36.75 A 1.0001 1.0001 0 0 0 10.955078 35.859375 C 11.123724 35.945725 11.009686 35.897844 10.916016 35.777344 C 10.822346 35.656848 10.700765 35.469214 10.585938 35.253906 C 10.356283 34.823291 10.160346 34.268068 10.119141 33.890625 A 1.0001 1.0001 0 0 0 9.125 33 C 9.041667 33 9.0650793 32.994799 9.0820312 33.011719 C 9.0989837 33.02867 9 32.958333 9 32.5 C 9 32.172583 9.0670231 32.081805 9.0800781 32.0625 A 1.0001 1.0001 0 0 0 9.4550781 30.955078 C 9.4550781 30.955078 9.3400278 30.575954 9.2226562 30.091797 C 9.1052849 29.60764 9 28.997024 9 28.75 C 9 27.621424 9.3774595 26.764852 10.158203 26.111328 C 10.850597 25.531757 11.992816 25.159087 13.503906 25.070312 z M 36.503906 25.070312 L 36.765625 25.509766 A 1.0001 1.0001 0 0 0 37.625 26 C 38.561972 26 39.047621 26.322864 39.421875 26.820312 C 39.796129 27.317761 40 28.056143 40 28.75 C 40 28.997024 39.894715 29.60764 39.777344 30.091797 C 39.659972 30.575954 39.544922 30.955078 39.544922 30.955078 A 1.0001 1.0001 0 0 0 39.919922 32.0625 C 39.932977 32.081805 40 32.172583 40 32.5 C 40 32.958333 39.901019 33.028671 39.917969 33.011719 C 39.93492 32.994766 39.958333 33 39.875 33 A 1.0001 1.0001 0 0 0 38.880859 33.890625 C 38.839279 34.268471 38.643836 34.823069 38.414062 35.253906 C 38.299177 35.469325 38.175713 35.656725 38.082031 35.777344 C 37.988351 35.897962 37.874116 35.946039 38.042969 35.859375 A 1.0001 1.0001 0 0 0 37.5 36.75 L 37.5 39 A 1.0001 1.0001 0 0 0 37.566406 39.355469 C 37.96323 40.396284 38.86925 40.965243 39.779297 41.392578 C 40.689344 41.819914 41.697822 42.137828 42.632812 42.515625 C 43.567803 42.893422 44.413432 43.328183 44.996094 43.875 C 45.335751 44.193762 45.572697 44.567242 45.746094 45 L 27.423828 45 C 27.579409 44.61548 27.631922 44.108674 27.894531 43.826172 C 28.394446 43.288389 29.106177 42.869221 29.912109 42.496094 C 30.718042 42.122966 31.602531 41.80459 32.419922 41.371094 C 33.237312 40.937598 34.056982 40.344641 34.433594 39.355469 A 1.0001 1.0001 0 0 0 34.5 39 L 34.5 36.75 A 1.0001 1.0001 0 0 0 33.955078 35.859375 C 34.123724 35.945725 34.009686 35.897844 33.916016 35.777344 C 33.822346 35.656848 33.700764 35.469214 33.585938 35.253906 C 33.356282 34.823291 33.160346 34.268068 33.119141 33.890625 A 1.0001 1.0001 0 0 0 32.125 33 C 32.04167 33 32.065081 32.994799 32.082031 33.011719 C 32.098985 33.02867 32 32.958333 32 32.5 C 32 32.172583 32.067018 32.081805 32.080078 32.0625 A 1.0001 1.0001 0 0 0 32.455078 30.955078 C 32.455078 30.955078 32.340028 30.575954 32.222656 30.091797 C 32.105283 29.60764 32 28.997024 32 28.75 C 32 27.621424 32.377459 26.764852 33.158203 26.111328 C 33.850597 25.531757 34.992816 25.159087 36.503906 25.070312 z"/></svg>