<svg xmlns="http://www.w3.org/2000/svg" viewBox="0 0 128 128" width="128px" height="128px"><path fill="#fff" d="M104,24h20V14c0-5.5-4.5-10-10-10h0c-5.5,0-10,4.5-10,10V24z"/><path fill="#fff" d="M114,4H30c-5.5,0-10,4.5-10,10v100h74c5.5,0,10-4.5,10-10V14C104,8.5,108.5,4,114,4L114,4z"/><path fill="#d3d8dd" d="M114,4H30c-5.5,0-10,4.5-10,10v100h74c5.5,0,10-4.5,10-10V14C104,8.5,108.5,4,114,4L114,4z"/><path fill="#fff" d="M81 62H37c-1.7 0-3-1.3-3-3s1.3-3 3-3h44c1.7 0 3 1.3 3 3S82.7 62 81 62zM71 32H47c-1.7 0-3-1.3-3-3s1.3-3 3-3h24c1.7 0 3 1.3 3 3S72.7 32 71 32zM80.2 77h-43c-1.7 0-3-1.3-3-3s1.3-3 3-3h43c1.7 0 3 1.3 3 3S81.9 77 80.2 77zM84 104V94H16v10c0 5.5 4.5 10 10 10h68C88.5 114 84 109.5 84 104z"/><path fill="#444b54" d="M114,1H30c-7.2,0-13,5.8-13,13v11c0,1.7,1.3,3,3,3s3-1.3,3-3V14c0-3.9,3.1-7,7-7h73c-1.3,2-2,4.4-2,7v90c0,3.9-3.1,7-7,7s-7-3.1-7-7V94c0-1.7-1.3-3-3-3H69c-1.7,0-3,1.3-3,3s1.3,3,3,3h12v7c0,2.6,0.8,5,2,7H66c-1.7,0-3,1.3-3,3s1.3,3,3,3h28c7.2,0,13-5.8,13-13V14c0-3.9,3.1-7,7-7s7,3.1,7,7v7h-7c-1.7,0-3,1.3-3,3s1.3,3,3,3h10c1.7,0,3-1.3,3-3V14C127,6.8,121.2,1,114,1z"/><path fill="#ff5576" d="M53 92L53 124 34 112 15 124 15 92"/><path fill="#fff" d="M34 38A30 30 0 1 0 34 98A30 30 0 1 0 34 38Z"/><path fill="#444b54" d="M67,68c0-18.2-14.8-33-33-33S1,49.8,1,68s14.8,33,33,33c5.8,0,11.3-1.5,16-4.2v21.7l-14.4-9.1c-1-0.6-2.2-0.6-3.2,0L18,118.6V102c0-1.7-1.3-3-3-3s-3,1.3-3,3v22c0,1.1,0.6,2.1,1.6,2.6c1,0.5,2.1,0.5,3.1-0.1l17.4-11l17.4,11c0.5,0.3,1,0.5,1.6,0.5c0.5,0,1-0.1,1.4-0.4c1-0.5,1.6-1.5,1.6-2.6V92.6C62.7,86.5,67,77.8,67,68z M7,68c0-14.9,12.1-27,27-27s27,12.1,27,27S48.9,95,34,95S7,82.9,7,68z"/></svg>