<svg fill="#fbc02d" xmlns="http://www.w3.org/2000/svg" viewBox="0 0 50 50" width="50px" height="50px"><path d="M 25 0 C 23.156406 0 21.659479 1.2936368 21.203125 3 L 17 3 L 10 3 C 8.346 3 7 4.346 7 6 L 7 45 C 7 46.654 8.346 48 10 48 L 31.074219 48 C 30.523219 47.386 30.033187 46.718 29.617188 46 L 10 46 C 9.449 46 9 45.552 9 45 L 9 6 C 9 5.448 9.449 5 10 5 L 16 5 L 16 8 C 16 9.6449698 17.35503 11 19 11 L 31 11 C 32.64497 11 34 9.6449698 34 8 L 34 5 L 40 5 C 40.551 5 41 5.448 41 6 L 41 28.050781 C 41.686 28.107781 42.352 28.225578 43 28.392578 L 43 6 C 43 4.346 41.654 3 40 3 L 33 3 L 28.796875 3 C 28.340521 1.2936368 26.843594 0 25 0 z M 25 2 C 26.116666 2 27 2.8833339 27 4 A 1.0001 1.0001 0 0 0 28 5 L 32 5 L 32 8 C 32 8.5650302 31.56503 9 31 9 L 19 9 C 18.43497 9 18 8.5650302 18 8 L 18 5 L 22 5 A 1.0001 1.0001 0 0 0 23 4 C 23 2.8833339 23.883334 2 25 2 z M 14 18 A 1.0001 1.0001 0 1 0 14 20 L 36 20 A 1.0001 1.0001 0 1 0 36 18 L 14 18 z M 14 24 A 1.0001 1.0001 0 1 0 14 26 L 36 26 A 1.0001 1.0001 0 1 0 36 24 L 14 24 z M 14 30 A 1.0001 1.0001 0 1 0 14 32 L 30 32 A 1.0001 1.0001 0 1 0 30 30 L 14 30 z M 40 30 C 34.5 30 30 34.5 30 40 C 30 45.5 34.5 50 40 50 C 45.5 50 50 45.5 50 40 C 50 34.5 45.5 30 40 30 z M 40 32 C 44.4 32 48 35.6 48 40 C 48 44.4 44.4 48 40 48 C 35.6 48 32 44.4 32 40 C 32 35.6 35.6 32 40 32 z M 39 34 L 39 39.5 L 35.400391 42.199219 L 36.599609 43.800781 L 41 40.5 L 41 34 L 39 34 z M 14 36 A 1.0001 1.0001 0 1 0 14 38 L 27 38 A 1.0001 1.0001 0 1 0 27 36 L 14 36 z"/></svg>