<?xml version="1.0" encoding="utf-8"?>
<!-- Generator: Adobe Illustrator 15.1.0, SVG Export Plug-In . SVG Version: 6.00 Build 0)  -->
<!DOCTYPE svg PUBLIC "-//W3C//DTD SVG 1.1//EN" "http://www.w3.org/Graphics/SVG/1.1/DTD/svg11.dtd">
<svg version="1.1" id="Layer_1" xmlns="http://www.w3.org/2000/svg" xmlns:xlink="http://www.w3.org/1999/xlink" x="0px" y="0px"
	 width="183px" height="136.999px" viewBox="0 0 183 136.999" enable-background="new 0 0 183 136.999" xml:space="preserve">
<g>
	<rect fill="#FFFFFF" width="183" height="136.999"/>
	<g>
		<g>
			
				<radialGradient id="SVGID_1_" cx="153.5874" cy="49470.5273" r="7.8848" gradientTransform="matrix(3.981 0 0 0.3152 -519.9309 -15506.2002)" gradientUnits="userSpaceOnUse">
				<stop  offset="0" style="stop-color:#CDCCCC"/>
				<stop  offset="1" style="stop-color:#FFFFFF"/>
			</radialGradient>
			<path fill="url(#SVGID_1_)" d="M123.687,86.914c0,1.384-14.402,2.498-32.183,2.498c-17.771,0-32.191-1.114-32.191-2.498
				c0-1.378,14.42-2.504,32.191-2.504C109.285,84.41,123.687,85.536,123.687,86.914z"/>
			<g>
				<g>
					<g>
						<path fill="#8DC641" d="M79.069,33.191c0.005,3.105-2.511,5.629-5.615,5.618c-3.128,0.002-5.644-2.513-5.638-5.624
							c-0.006-3.11,2.516-5.632,5.631-5.62C76.546,27.563,79.069,30.076,79.069,33.191z"/>
						<path fill="#8DC641" d="M77.936,21.505c6.181,5.311,7.318,13.442,2.282,18.458c-5.021,5.043-13.146,3.897-18.458-2.275
							c4.922,9.054,18.176,15.229,24.603,8.796c0.063-0.063,0.12-0.131,0.173-0.197c0.067-0.058,0.142-0.112,0.2-0.177
							C93.162,39.682,86.999,26.428,77.936,21.505z"/>
					</g>
					<g>
						<path fill="#2AAAE2" d="M109.567,63.687c-3.104-0.009-5.638,2.516-5.628,5.623c0,3.119,2.523,5.638,5.632,5.626
							c3.11,0.009,5.627-2.513,5.621-5.626C115.198,66.211,112.67,63.689,109.567,63.687z"/>
						<path fill="#2AAAE2" d="M121.258,64.813c-5.317-6.171-13.447-7.313-18.468-2.271c-5.042,5.019-3.899,13.145,2.276,18.455
							c-9.058-4.918-15.227-18.176-8.788-24.603c0.063-0.065,0.125-0.123,0.188-0.177c0.057-0.066,0.114-0.135,0.183-0.2
							C103.077,49.59,116.325,55.759,121.258,64.813z"/>
					</g>
				</g>
				<g>
					<g>
						<path fill="#1072BA" d="M73.447,63.684c3.111-0.006,5.627,2.517,5.622,5.623c0,3.119-2.522,5.638-5.622,5.629
							c-3.115,0.009-5.637-2.51-5.631-5.626C67.81,66.211,70.332,63.689,73.447,63.684z"/>
						<path fill="#1072BA" d="M61.761,64.818c5.312-6.177,13.437-7.321,18.458-2.281c5.036,5.022,3.898,13.148-2.282,18.459
							c9.063-4.918,15.226-18.176,8.801-24.603c-0.059-0.065-0.133-0.123-0.2-0.18c-0.053-0.063-0.098-0.128-0.173-0.194
							C79.937,49.59,66.683,55.759,61.761,64.818z"/>
					</g>
					<g>
						<path fill="#F79421" d="M103.939,33.191c-0.01,3.111,2.511,5.632,5.615,5.621c3.116,0,5.644-2.518,5.638-5.623
							c0.006-3.11-2.521-5.629-5.625-5.623C106.462,27.563,103.939,30.079,103.939,33.191z"/>
						<path fill="#F79421" d="M105.067,21.508c-6.176,5.312-7.318,13.437-2.276,18.454c5.021,5.048,13.15,3.902,18.458-2.276
							c-4.924,9.06-18.172,15.232-24.599,8.8c-0.068-0.063-0.126-0.131-0.183-0.197c-0.063-0.058-0.125-0.108-0.188-0.174
							C89.84,39.682,96.009,26.431,105.067,21.508z"/>
					</g>
				</g>
			</g>
		</g>
		<g>
			<g>
				<path fill="#202020" d="M61.9,104.014c0.996,0,1.811-0.395,2.443-1.182l1.301,1.338c-1.031,1.162-2.248,1.742-3.646,1.742
					c-1.4,0-2.553-0.441-3.459-1.326c-0.904-0.885-1.357-2-1.357-3.348s0.461-2.473,1.385-3.373
					c0.922-0.902,2.051-1.352,3.385-1.352c1.492,0,2.74,0.566,3.744,1.703l-1.26,1.43c-0.643-0.797-1.439-1.197-2.393-1.197
					c-0.762,0-1.414,0.25-1.957,0.748c-0.541,0.498-0.813,1.17-0.813,2.016c0,0.844,0.256,1.523,0.768,2.035
					C60.552,103.758,61.171,104.014,61.9,104.014z"/>
				<path fill="#202020" d="M74.691,104.553c-0.918,0.898-2.049,1.346-3.393,1.346s-2.475-0.447-3.393-1.346
					c-0.92-0.896-1.379-2.012-1.379-3.346c0-1.336,0.459-2.451,1.379-3.348c0.918-0.898,2.049-1.346,3.393-1.346
					s2.475,0.447,3.393,1.346c0.917,0.896,1.378,2.012,1.378,3.348C76.069,102.541,75.608,103.656,74.691,104.553z M74.001,101.213
					c0-0.811-0.26-1.502-0.779-2.074s-1.16-0.857-1.918-0.857s-1.396,0.285-1.916,0.857c-0.521,0.572-0.781,1.264-0.781,2.074
					s0.26,1.5,0.781,2.066c0.52,0.568,1.158,0.852,1.916,0.852s1.398-0.283,1.918-0.852
					C73.742,102.713,74.001,102.023,74.001,101.213z"/>
				<path fill="#202020" d="M85.922,100.088l-2.457,4.967h-1.209l-2.443-4.967v5.721h-2.029v-9.088h2.744l2.34,4.992l2.352-4.992
					h2.73v9.088h-2.027V100.088z"/>
				<path fill="#202020" d="M96.446,97.533c0.637,0.543,0.955,1.375,0.955,2.496c0,1.123-0.326,1.943-0.98,2.463
					c-0.654,0.521-1.654,0.781-2.996,0.781h-1.209v2.535h-2.029v-9.088h3.211C94.793,96.721,95.809,96.992,96.446,97.533z
					 M94.958,101.109c0.242-0.273,0.363-0.672,0.363-1.197c0-0.523-0.158-0.896-0.475-1.117s-0.807-0.332-1.475-0.332h-1.156v3.055
					h1.363C94.254,101.518,94.715,101.381,94.958,101.109z"/>
				<path fill="#202020" d="M104.928,105.809l-0.846-1.963h-3.809l-0.846,1.963H97.27l3.928-9.088h1.963l3.926,9.088H104.928z
					 M102.184,99.426l-1.143,2.639h2.275L102.184,99.426z"/>
				<path fill="#202020" d="M114.497,96.721h2.027v9.088h-2.027l-4.328-5.695v5.695h-2.029v-9.088h1.898l4.459,5.85V96.721z"/>
				<path fill="#202020" d="M122.672,105.809h-2.027v-3.588l-3.146-5.5h2.197l1.963,3.381l1.963-3.381h2.197l-3.146,5.5V105.809z"/>
			</g>
			<g>
				<path fill="#8E8E8E" d="M60.396,111.804c-0.207,0-0.375,0.042-0.508,0.126c-0.131,0.084-0.197,0.211-0.197,0.381
					s0.066,0.3,0.197,0.39c0.133,0.09,0.414,0.188,0.844,0.291c0.43,0.104,0.754,0.25,0.973,0.438
					c0.217,0.188,0.326,0.465,0.326,0.831c0,0.365-0.139,0.662-0.414,0.891c-0.275,0.228-0.639,0.342-1.086,0.342
					c-0.656,0-1.238-0.226-1.746-0.678l0.443-0.534c0.424,0.368,0.865,0.552,1.32,0.552c0.229,0,0.41-0.049,0.543-0.146
					c0.135-0.099,0.201-0.229,0.201-0.391c0-0.161-0.063-0.287-0.189-0.378c-0.125-0.09-0.342-0.172-0.65-0.246
					c-0.309-0.073-0.543-0.142-0.701-0.203c-0.16-0.063-0.303-0.144-0.428-0.243c-0.248-0.188-0.371-0.477-0.371-0.864
					s0.141-0.688,0.424-0.897c0.281-0.21,0.631-0.314,1.047-0.314c0.268,0,0.533,0.044,0.797,0.132s0.492,0.212,0.684,0.372
					l-0.377,0.534c-0.125-0.112-0.293-0.204-0.504-0.276C60.81,111.839,60.601,111.804,60.396,111.804z"/>
				<path fill="#8E8E8E" d="M65.126,115.445v-4.194h0.709v3.522h1.914v0.672H65.126z"/>
				<path fill="#8E8E8E" d="M74.132,114.866c-0.424,0.414-0.947,0.621-1.572,0.621c-0.623,0-1.146-0.207-1.57-0.621
					c-0.426-0.414-0.637-0.93-0.637-1.548s0.211-1.134,0.637-1.548c0.424-0.414,0.947-0.621,1.57-0.621
					c0.625,0,1.148,0.207,1.572,0.621s0.637,0.93,0.637,1.548S74.556,114.452,74.132,114.866z M73.615,112.241
					c-0.287-0.296-0.639-0.444-1.055-0.444s-0.766,0.148-1.053,0.444c-0.285,0.296-0.428,0.655-0.428,1.077s0.143,0.781,0.428,1.077
					c0.287,0.296,0.637,0.443,1.053,0.443s0.768-0.147,1.055-0.443c0.285-0.296,0.428-0.655,0.428-1.077
					S73.9,112.537,73.615,112.241z"/>
				<path fill="#8E8E8E" d="M80.786,113.405h0.709v1.434c-0.396,0.437-0.963,0.654-1.699,0.654c-0.619,0-1.139-0.204-1.557-0.612
					c-0.418-0.407-0.627-0.924-0.627-1.548s0.213-1.144,0.639-1.56s0.941-0.624,1.545-0.624s1.105,0.176,1.506,0.528l-0.377,0.54
					c-0.164-0.141-0.33-0.237-0.496-0.291c-0.166-0.055-0.359-0.081-0.578-0.081c-0.424,0-0.781,0.137-1.068,0.41
					c-0.287,0.274-0.432,0.635-0.432,1.08c0,0.446,0.141,0.805,0.42,1.074c0.279,0.271,0.619,0.405,1.018,0.405
					c0.396,0,0.73-0.086,0.998-0.258V113.405z"/>
				<path fill="#8E8E8E" d="M85.196,114.491l-0.42,0.954H84.02l1.848-4.194h0.756l1.848,4.194h-0.756l-0.42-0.954H85.196z
					 M87.008,113.837l-0.764-1.728l-0.762,1.728H87.008z"/>
				<path fill="#8E8E8E" d="M94.417,111.251h0.709v4.194h-0.768l-2.377-3.06v3.06h-0.707v-4.194h0.707l2.436,3.133V111.251z"/>
				<path fill="#8E8E8E" d="M103.958,111.899v3.546h-0.707v-3.546h-1.273v-0.648h3.254v0.648H103.958z"/>
				<path fill="#8E8E8E" d="M111.165,111.251v0.666h-2.238v1.11h2.01v0.63h-2.01v1.122h2.309v0.666h-3.018v-4.194H111.165z"/>
				<path fill="#8E8E8E" d="M116.846,115.445l-1.033-1.578h-0.029l-1.033,1.578h-0.881l1.439-2.154l-1.338-2.04h0.877l0.936,1.416
					h0.029l0.936-1.416h0.877l-1.338,2.04l1.439,2.154H116.846z"/>
				<path fill="#8E8E8E" d="M122.204,111.899v3.546h-0.709v-3.546h-1.271v-0.648h3.252v0.648H122.204z"/>
			</g>
		</g>
	</g>
</g>
</svg>
