<?xml version="1.0" encoding="utf-8"?>
<!-- Generator: Adobe Illustrator 15.1.0, SVG Export Plug-In . SVG Version: 6.00 Build 0)  -->
<!DOCTYPE svg PUBLIC "-//W3C//DTD SVG 1.1//EN" "http://www.w3.org/Graphics/SVG/1.1/DTD/svg11.dtd">
<svg version="1.1" id="Layer_1" xmlns="http://www.w3.org/2000/svg" xmlns:xlink="http://www.w3.org/1999/xlink" x="0px" y="0px"
	 width="183px" height="136.999px" viewBox="0 0 183 136.999" enable-background="new 0 0 183 136.999" xml:space="preserve">
<g>
	<rect fill="#FFFFFF" width="183" height="136.999"/>
	<g>
		<g>
			
				<radialGradient id="SVGID_1_" cx="110.9038" cy="49917.2344" r="12.1698" gradientTransform="matrix(2.5344 0 0 0.2366 -189.5823 -11722.7227)" gradientUnits="userSpaceOnUse">
				<stop  offset="0" style="stop-color:#CDCCCC"/>
				<stop  offset="1" style="stop-color:#FFFFFF"/>
			</radialGradient>
			<path fill="url(#SVGID_1_)" d="M123.093,87.705c0,1.59-14.146,2.893-31.595,2.893c-17.45,0-31.606-1.303-31.606-2.893
				c0-1.606,14.156-2.911,31.606-2.911C108.947,84.794,123.093,86.099,123.093,87.705z"/>
			<g>
				<g>
					
						<radialGradient id="SVGID_2_" cx="238.7866" cy="99.251" r="5.8441" gradientTransform="matrix(0.2108 -0.9775 0.9775 0.2108 -56.9524 239.1112)" gradientUnits="userSpaceOnUse">
						<stop  offset="0" style="stop-color:#FBB03C"/>
						<stop  offset="0.3367" style="stop-color:#FBAE39"/>
						<stop  offset="0.5834" style="stop-color:#FAA733"/>
						<stop  offset="0.8008" style="stop-color:#F99B28"/>
						<stop  offset="0.9053" style="stop-color:#F79421"/>
					</radialGradient>
					<path fill="url(#SVGID_2_)" d="M87.691,32.645c-0.938-0.974-2.043-1.829-3.318-2.524c1.877-3.405,3.735-6.803,5.609-10.2
						c2.345,1.292,4.39,2.888,6.124,4.702C93.298,27.299,90.492,29.969,87.691,32.645z"/>
					
						<radialGradient id="SVGID_3_" cx="235.9897" cy="105.001" r="4.9443" gradientTransform="matrix(0.2108 -0.9775 0.9775 0.2108 -56.9524 239.1112)" gradientUnits="userSpaceOnUse">
						<stop  offset="0" style="stop-color:#FBB03C"/>
						<stop  offset="0.3367" style="stop-color:#FBAE39"/>
						<stop  offset="0.5834" style="stop-color:#FAA733"/>
						<stop  offset="0.8008" style="stop-color:#F99B28"/>
						<stop  offset="0.9053" style="stop-color:#F79421"/>
					</radialGradient>
					<path fill="url(#SVGID_3_)" d="M92.139,34.923c-0.543-1.104-1.212-2.141-2.023-3.113c2.378-1.961,4.756-3.939,7.128-5.92
						c1.269,1.519,2.34,3.17,3.189,4.9C97.667,32.159,94.9,33.536,92.139,34.923z"/>
					
						<radialGradient id="SVGID_4_" cx="230.9155" cy="109.3389" r="4.0243" gradientTransform="matrix(0.2108 -0.9775 0.9775 0.2108 -56.9524 239.1112)" gradientUnits="userSpaceOnUse">
						<stop  offset="0" style="stop-color:#FBB03C"/>
						<stop  offset="0.3367" style="stop-color:#FBAE39"/>
						<stop  offset="0.5834" style="stop-color:#FAA733"/>
						<stop  offset="0.8008" style="stop-color:#F99B28"/>
						<stop  offset="0.9053" style="stop-color:#F79421"/>
					</radialGradient>
					<path fill="url(#SVGID_4_)" d="M94.992,39.337c-0.166-1.104-0.446-2.202-0.824-3.256c2.453-0.893,4.917-1.79,7.371-2.685
						c0.561,1.526,0.966,3.113,1.217,4.726C100.166,38.527,97.575,38.931,94.992,39.337z"/>
					
						<radialGradient id="SVGID_5_" cx="224.4243" cy="112.0107" r="2.8385" gradientTransform="matrix(0.2108 -0.9775 0.9775 0.2108 -56.9524 239.1112)" gradientUnits="userSpaceOnUse">
						<stop  offset="0" style="stop-color:#FBB03C"/>
						<stop  offset="0.3367" style="stop-color:#FBAE39"/>
						<stop  offset="0.5834" style="stop-color:#FAA733"/>
						<stop  offset="0.8008" style="stop-color:#F99B28"/>
						<stop  offset="0.9053" style="stop-color:#F79421"/>
					</radialGradient>
					<path fill="url(#SVGID_5_)" d="M96.5,44.838c0.148-0.981,0.218-1.977,0.205-2.965c2.121-0.012,4.242-0.029,6.353-0.043
						c0.007,1.315-0.073,2.636-0.274,3.948C100.691,45.46,98.6,45.152,96.5,44.838z"/>
					
						<radialGradient id="SVGID_6_" cx="216.73" cy="112.6611" r="2.2373" gradientTransform="matrix(0.2108 -0.9775 0.9775 0.2108 -56.9524 239.1112)" gradientUnits="userSpaceOnUse">
						<stop  offset="0" style="stop-color:#FBB03C"/>
						<stop  offset="0.3367" style="stop-color:#FBAE39"/>
						<stop  offset="0.5834" style="stop-color:#FAA733"/>
						<stop  offset="0.8008" style="stop-color:#F99B28"/>
						<stop  offset="0.9053" style="stop-color:#F79421"/>
					</radialGradient>
					<path fill="url(#SVGID_6_)" d="M96.186,51.075c0.378-0.743,0.691-1.507,0.967-2.278c1.498,0.523,3.002,1.048,4.506,1.575
						c-0.35,0.96-0.727,1.897-1.19,2.825C99.045,52.479,97.627,51.778,96.186,51.075z"/>
					
						<radialGradient id="SVGID_7_" cx="209.2202" cy="110.5469" r="1.9375" gradientTransform="matrix(0.2108 -0.9775 0.9775 0.2108 -56.9524 239.1112)" gradientUnits="userSpaceOnUse">
						<stop  offset="0" style="stop-color:#FBB03C"/>
						<stop  offset="0.3367" style="stop-color:#FBAE39"/>
						<stop  offset="0.5834" style="stop-color:#FAA733"/>
						<stop  offset="0.8008" style="stop-color:#F99B28"/>
						<stop  offset="0.9053" style="stop-color:#F79421"/>
					</radialGradient>
					<path fill="url(#SVGID_7_)" d="M93.219,57.416c0.497-0.483,0.948-0.989,1.378-1.506c0.886,0.735,1.783,1.475,2.664,2.209
						c-0.504,0.597-1.024,1.181-1.584,1.744C94.86,59.057,94.042,58.23,93.219,57.416z"/>
				</g>
				<g>
					
						<radialGradient id="SVGID_8_" cx="202.0894" cy="137.6621" r="6.1667" gradientTransform="matrix(0.2108 -0.9775 0.9775 0.2108 -56.9524 239.1112)" gradientUnits="userSpaceOnUse">
						<stop  offset="0" style="stop-color:#FBB03C"/>
						<stop  offset="0.3367" style="stop-color:#FBAE39"/>
						<stop  offset="0.5834" style="stop-color:#FAA733"/>
						<stop  offset="0.8008" style="stop-color:#F99B28"/>
						<stop  offset="0.9053" style="stop-color:#F79421"/>
					</radialGradient>
					<path fill="url(#SVGID_8_)" d="M114.997,65.949c1.253-0.493,2.464-1.203,3.581-2.112c2.463,3.006,4.904,6.019,7.363,9.019
						c-2.082,1.696-4.334,2.998-6.666,3.929C117.843,73.168,116.427,69.555,114.997,65.949z"/>
					
						<radialGradient id="SVGID_9_" cx="197.8101" cy="132.5928" r="4.6225" gradientTransform="matrix(0.2108 -0.9775 0.9775 0.2108 -56.9524 239.1112)" gradientUnits="userSpaceOnUse">
						<stop  offset="0" style="stop-color:#FBB03C"/>
						<stop  offset="0.3367" style="stop-color:#FBAE39"/>
						<stop  offset="0.5834" style="stop-color:#FAA733"/>
						<stop  offset="0.8008" style="stop-color:#F99B28"/>
						<stop  offset="0.9053" style="stop-color:#F79421"/>
					</radialGradient>
					<path fill="url(#SVGID_9_)" d="M111.222,69.229c1.224-0.086,2.449-0.326,3.644-0.7c0.931,2.941,1.864,5.883,2.802,8.817
						c-1.871,0.605-3.803,0.978-5.729,1.12C111.699,75.396,111.458,72.309,111.222,69.229z"/>
					
						<radialGradient id="SVGID_10_" cx="195.6636" cy="126.042" r="3.349" gradientTransform="matrix(0.2108 -0.9775 0.9775 0.2108 -56.9524 239.1112)" gradientUnits="userSpaceOnUse">
						<stop  offset="0" style="stop-color:#FBB03C"/>
						<stop  offset="0.3367" style="stop-color:#FBAE39"/>
						<stop  offset="0.5834" style="stop-color:#FAA733"/>
						<stop  offset="0.8008" style="stop-color:#F99B28"/>
						<stop  offset="0.9053" style="stop-color:#F79421"/>
					</radialGradient>
					<path fill="url(#SVGID_10_)" d="M106.049,70.224c1.092,0.258,2.212,0.406,3.333,0.446c-0.091,2.609-0.179,5.233-0.274,7.841
						c-1.643-0.057-3.252-0.273-4.844-0.635C104.86,75.321,105.46,72.771,106.049,70.224z"/>
					
						<radialGradient id="SVGID_11_" cx="195.4312" cy="118.5029" r="3.014" gradientTransform="matrix(0.2108 -0.9775 0.9775 0.2108 -56.9524 239.1112)" gradientUnits="userSpaceOnUse">
						<stop  offset="0" style="stop-color:#FBB03C"/>
						<stop  offset="0.3367" style="stop-color:#FBAE39"/>
						<stop  offset="0.5834" style="stop-color:#FAA733"/>
						<stop  offset="0.8008" style="stop-color:#F99B28"/>
						<stop  offset="0.9053" style="stop-color:#F79421"/>
					</radialGradient>
					<path fill="url(#SVGID_11_)" d="M100.387,69.555c0.859,0.507,1.758,0.946,2.671,1.312c-0.783,1.956-1.562,3.93-2.344,5.896
						c-1.212-0.475-2.418-1.059-3.562-1.736C98.227,73.206,99.313,71.387,100.387,69.555z"/>
					
						<radialGradient id="SVGID_12_" cx="197.5405" cy="111.6074" r="2.6078" gradientTransform="matrix(0.2108 -0.9775 0.9775 0.2108 -56.9524 239.1112)" gradientUnits="userSpaceOnUse">
						<stop  offset="0" style="stop-color:#FBB03C"/>
						<stop  offset="0.3367" style="stop-color:#FBAE39"/>
						<stop  offset="0.5834" style="stop-color:#FAA733"/>
						<stop  offset="0.8008" style="stop-color:#F99B28"/>
						<stop  offset="0.9053" style="stop-color:#F79421"/>
					</radialGradient>
					<path fill="url(#SVGID_12_)" d="M94.716,66.927c0.555,0.618,1.149,1.204,1.767,1.748c-1.051,1.191-2.11,2.39-3.161,3.584
						c-0.753-0.664-1.493-1.393-2.167-2.16C92.344,69.043,93.534,67.991,94.716,66.927z"/>
					
						<radialGradient id="SVGID_13_" cx="202.3745" cy="105.4355" r="1.9879" gradientTransform="matrix(0.2108 -0.9775 0.9775 0.2108 -56.9524 239.1112)" gradientUnits="userSpaceOnUse">
						<stop  offset="0" style="stop-color:#FBB03C"/>
						<stop  offset="0.3367" style="stop-color:#FBAE39"/>
						<stop  offset="0.5834" style="stop-color:#FAA733"/>
						<stop  offset="0.8008" style="stop-color:#F99B28"/>
						<stop  offset="0.9053" style="stop-color:#F79421"/>
					</radialGradient>
					<path fill="url(#SVGID_13_)" d="M89.961,61.79c0.268,0.64,0.56,1.261,0.867,1.85c-1.005,0.555-2.017,1.092-3.046,1.646
						c-0.366-0.691-0.697-1.404-1.014-2.139C87.833,62.696,88.896,62.25,89.961,61.79z"/>
				</g>
				<g>
					
						<radialGradient id="SVGID_14_" cx="183.687" cy="82.9238" r="5.1104" gradientTransform="matrix(0.2108 -0.9775 0.9775 0.2108 -56.9524 239.1112)" gradientUnits="userSpaceOnUse">
						<stop  offset="0" style="stop-color:#FBB03C"/>
						<stop  offset="0.3367" style="stop-color:#FBAE39"/>
						<stop  offset="0.5834" style="stop-color:#FAA733"/>
						<stop  offset="0.8008" style="stop-color:#F99B28"/>
						<stop  offset="0.9053" style="stop-color:#F79421"/>
					</radialGradient>
					<path fill="url(#SVGID_14_)" d="M69,74.512c-0.287,1.313-0.384,2.713-0.246,4.154c-3.859,0.354-7.719,0.703-11.59,1.057
						c-0.24-2.67-0.063-5.251,0.469-7.71C61.424,72.852,65.208,73.677,69,74.512z"/>
					
						<radialGradient id="SVGID_15_" cx="191.7456" cy="81.8057" r="4.1747" gradientTransform="matrix(0.2108 -0.9775 0.9775 0.2108 -56.9524 239.1112)" gradientUnits="userSpaceOnUse">
						<stop  offset="0" style="stop-color:#FBB03C"/>
						<stop  offset="0.3367" style="stop-color:#FBAE39"/>
						<stop  offset="0.5834" style="stop-color:#FAA733"/>
						<stop  offset="0.8008" style="stop-color:#F99B28"/>
						<stop  offset="0.9053" style="stop-color:#F79421"/>
					</radialGradient>
					<path fill="url(#SVGID_15_)" d="M68.377,69.543c-0.595,1.07-1.093,2.21-1.424,3.41c-2.979-0.854-5.941-1.724-8.908-2.584
						c0.548-1.904,1.314-3.701,2.275-5.386C63.013,66.51,65.689,68.018,68.377,69.543z"/>
					
						<radialGradient id="SVGID_16_" cx="198.1333" cy="83.3555" r="4.0809" gradientTransform="matrix(0.2108 -0.9775 0.9775 0.2108 -56.9524 239.1112)" gradientUnits="userSpaceOnUse">
						<stop  offset="0" style="stop-color:#FBB03C"/>
						<stop  offset="0.3367" style="stop-color:#FBAE39"/>
						<stop  offset="0.5834" style="stop-color:#FAA733"/>
						<stop  offset="0.8008" style="stop-color:#F99B28"/>
						<stop  offset="0.9053" style="stop-color:#F79421"/>
					</radialGradient>
					<path fill="url(#SVGID_16_)" d="M70.452,64.697c-0.829,0.764-1.567,1.604-2.241,2.519c-2.116-1.538-4.237-3.073-6.353-4.611
						c0.961-1.321,2.052-2.548,3.236-3.65C66.885,60.864,68.656,62.784,70.452,64.697z"/>
					
						<radialGradient id="SVGID_17_" cx="203.8892" cy="87.0791" r="3.456" gradientTransform="matrix(0.2108 -0.9775 0.9775 0.2108 -56.9524 239.1112)" gradientUnits="userSpaceOnUse">
						<stop  offset="0" style="stop-color:#FBB03C"/>
						<stop  offset="0.3367" style="stop-color:#FBAE39"/>
						<stop  offset="0.5834" style="stop-color:#FAA733"/>
						<stop  offset="0.8008" style="stop-color:#F99B28"/>
						<stop  offset="0.9053" style="stop-color:#F79421"/>
					</radialGradient>
					<path fill="url(#SVGID_17_)" d="M74.151,60.375c-0.886,0.423-1.744,0.92-2.556,1.478c-1.195-1.738-2.407-3.479-3.597-5.231
						c1.081-0.747,2.235-1.406,3.431-1.984C72.333,56.547,73.242,58.462,74.151,60.375z"/>
					
						<radialGradient id="SVGID_18_" cx="208.4058" cy="92.8193" r="2.4933" gradientTransform="matrix(0.2108 -0.9775 0.9775 0.2108 -56.9524 239.1112)" gradientUnits="userSpaceOnUse">
						<stop  offset="0" style="stop-color:#FBB03C"/>
						<stop  offset="0.3367" style="stop-color:#FBAE39"/>
						<stop  offset="0.5834" style="stop-color:#FAA733"/>
						<stop  offset="0.8008" style="stop-color:#F99B28"/>
						<stop  offset="0.9053" style="stop-color:#F79421"/>
					</radialGradient>
					<path fill="url(#SVGID_18_)" d="M79.52,57.139c-0.835,0.108-1.641,0.271-2.441,0.483c-0.395-1.538-0.8-3.076-1.224-4.617
						c0.995-0.26,1.99-0.464,3.003-0.592C79.068,53.982,79.291,55.558,79.52,57.139z"/>
					
						<radialGradient id="SVGID_19_" cx="210.8452" cy="100.3486" r="1.5351" gradientTransform="matrix(0.2108 -0.9775 0.9775 0.2108 -56.9524 239.1112)" gradientUnits="userSpaceOnUse">
						<stop  offset="0" style="stop-color:#FBB03C"/>
						<stop  offset="0.3367" style="stop-color:#FBAE39"/>
						<stop  offset="0.5834" style="stop-color:#FAA733"/>
						<stop  offset="0.8008" style="stop-color:#F99B28"/>
						<stop  offset="0.9053" style="stop-color:#F79421"/>
					</radialGradient>
					<path fill="url(#SVGID_19_)" d="M86.427,56.047c-0.687-0.132-1.35-0.224-2.023-0.301c0.113-1.144,0.229-2.295,0.336-3.448
						c0.778,0.081,1.55,0.198,2.333,0.349C86.86,53.78,86.638,54.914,86.427,56.047z"/>
				</g>
			</g>
		</g>
		<g>
			<g>
				<path fill="#202020" d="M61.899,105.6c0.996,0,1.811-0.395,2.443-1.182l1.301,1.338c-1.031,1.162-2.248,1.742-3.646,1.742
					c-1.4,0-2.553-0.441-3.459-1.326c-0.904-0.885-1.357-2-1.357-3.348s0.461-2.473,1.385-3.373
					c0.922-0.902,2.051-1.352,3.385-1.352c1.492,0,2.74,0.566,3.744,1.703l-1.26,1.43c-0.643-0.797-1.439-1.197-2.393-1.197
					c-0.762,0-1.414,0.25-1.957,0.748c-0.541,0.498-0.813,1.17-0.813,2.016c0,0.844,0.256,1.523,0.768,2.035
					C60.552,105.344,61.171,105.6,61.899,105.6z"/>
				<path fill="#202020" d="M74.69,106.139c-0.918,0.898-2.049,1.346-3.393,1.346s-2.475-0.447-3.393-1.346
					c-0.92-0.896-1.379-2.012-1.379-3.346c0-1.336,0.459-2.451,1.379-3.348c0.918-0.898,2.049-1.346,3.393-1.346
					s2.475,0.447,3.393,1.346c0.918,0.896,1.379,2.012,1.379,3.348C76.069,104.127,75.608,105.242,74.69,106.139z M74.001,102.799
					c0-0.811-0.26-1.502-0.779-2.074s-1.16-0.857-1.918-0.857s-1.396,0.285-1.916,0.857c-0.521,0.572-0.781,1.264-0.781,2.074
					s0.26,1.5,0.781,2.066c0.52,0.568,1.158,0.852,1.916,0.852s1.398-0.283,1.918-0.852
					C73.741,104.299,74.001,103.609,74.001,102.799z"/>
				<path fill="#202020" d="M85.923,101.674l-2.457,4.967h-1.209l-2.443-4.967v5.721h-2.029v-9.088h2.744l2.34,4.992l2.352-4.992
					h2.73v9.088h-2.027V101.674z"/>
				<path fill="#202020" d="M96.446,99.119c0.637,0.543,0.955,1.375,0.955,2.496c0,1.123-0.326,1.943-0.98,2.463
					c-0.654,0.521-1.654,0.781-2.996,0.781h-1.208v2.535h-2.029v-9.088h3.21C94.793,98.307,95.809,98.578,96.446,99.119z
					 M94.958,102.695c0.242-0.273,0.363-0.672,0.363-1.197c0-0.523-0.158-0.896-0.475-1.117s-0.807-0.332-1.475-0.332h-1.156v3.055
					h1.363C94.254,103.104,94.715,102.967,94.958,102.695z"/>
				<path fill="#202020" d="M104.928,107.395l-0.846-1.963h-3.809l-0.846,1.963H97.27l3.928-9.088h1.963l3.926,9.088H104.928z
					 M102.184,101.012l-1.143,2.639h2.275L102.184,101.012z"/>
				<path fill="#202020" d="M114.497,98.307h2.027v9.088h-2.027l-4.328-5.695v5.695h-2.029v-9.088h1.898l4.459,5.85V98.307z"/>
				<path fill="#202020" d="M122.672,107.395h-2.027v-3.588l-3.146-5.5h2.197l1.963,3.381l1.963-3.381h2.197l-3.146,5.5V107.395z"/>
			</g>
			<g>
				<path fill="#8E8E8E" d="M60.396,113.39c-0.207,0-0.375,0.042-0.508,0.126c-0.131,0.084-0.197,0.211-0.197,0.381
					s0.066,0.3,0.197,0.39c0.133,0.09,0.414,0.188,0.844,0.291c0.43,0.104,0.754,0.25,0.973,0.438
					c0.217,0.188,0.326,0.465,0.326,0.831c0,0.365-0.139,0.662-0.414,0.891c-0.275,0.228-0.639,0.342-1.086,0.342
					c-0.656,0-1.238-0.226-1.746-0.678l0.443-0.534c0.424,0.368,0.865,0.552,1.32,0.552c0.229,0,0.41-0.049,0.543-0.146
					c0.135-0.099,0.201-0.229,0.201-0.391c0-0.161-0.063-0.287-0.189-0.378c-0.125-0.09-0.342-0.172-0.65-0.246
					c-0.309-0.073-0.543-0.142-0.701-0.203c-0.16-0.063-0.303-0.144-0.428-0.243c-0.248-0.188-0.371-0.477-0.371-0.864
					s0.141-0.688,0.424-0.897c0.281-0.21,0.631-0.314,1.047-0.314c0.268,0,0.533,0.044,0.797,0.132s0.492,0.212,0.684,0.372
					l-0.377,0.534c-0.125-0.112-0.293-0.204-0.504-0.276C60.81,113.425,60.601,113.39,60.396,113.39z"/>
				<path fill="#8E8E8E" d="M65.126,117.031v-4.194h0.709v3.522h1.914v0.672H65.126z"/>
				<path fill="#8E8E8E" d="M74.132,116.452c-0.424,0.414-0.947,0.621-1.572,0.621c-0.623,0-1.146-0.207-1.57-0.621
					c-0.426-0.414-0.637-0.93-0.637-1.548s0.211-1.134,0.637-1.548c0.424-0.414,0.947-0.621,1.57-0.621
					c0.625,0,1.148,0.207,1.572,0.621s0.637,0.93,0.637,1.548S74.556,116.038,74.132,116.452z M73.614,113.827
					c-0.287-0.296-0.639-0.444-1.055-0.444s-0.766,0.148-1.053,0.444c-0.285,0.296-0.428,0.655-0.428,1.077s0.143,0.781,0.428,1.077
					c0.287,0.296,0.637,0.443,1.053,0.443s0.768-0.147,1.055-0.443c0.285-0.296,0.428-0.655,0.428-1.077
					S73.899,114.123,73.614,113.827z"/>
				<path fill="#8E8E8E" d="M80.786,114.991h0.709v1.434c-0.396,0.437-0.963,0.654-1.699,0.654c-0.619,0-1.139-0.204-1.557-0.612
					c-0.418-0.407-0.627-0.924-0.627-1.548s0.213-1.144,0.639-1.56s0.941-0.624,1.545-0.624s1.105,0.176,1.506,0.528l-0.377,0.54
					c-0.164-0.141-0.33-0.237-0.496-0.291c-0.166-0.055-0.359-0.081-0.578-0.081c-0.424,0-0.781,0.137-1.068,0.41
					c-0.287,0.274-0.432,0.635-0.432,1.08c0,0.446,0.141,0.805,0.42,1.074c0.279,0.271,0.619,0.405,1.018,0.405
					c0.396,0,0.73-0.086,0.998-0.258V114.991z"/>
				<path fill="#8E8E8E" d="M85.196,116.077l-0.42,0.954h-0.756l1.848-4.194h0.756l1.848,4.194h-0.756l-0.42-0.954H85.196z
					 M87.009,115.423l-0.764-1.728l-0.762,1.728H87.009z"/>
				<path fill="#8E8E8E" d="M94.417,112.837h0.709v4.194h-0.768l-2.376-3.06v3.06h-0.707v-4.194h0.707l2.435,3.133V112.837z"/>
				<path fill="#8E8E8E" d="M103.958,113.485v3.546h-0.707v-3.546h-1.273v-0.648h3.254v0.648H103.958z"/>
				<path fill="#8E8E8E" d="M111.165,112.837v0.666h-2.238v1.11h2.01v0.63h-2.01v1.122h2.309v0.666h-3.018v-4.194H111.165z"/>
				<path fill="#8E8E8E" d="M116.846,117.031l-1.033-1.578h-0.029l-1.033,1.578h-0.881l1.439-2.154l-1.338-2.04h0.877l0.936,1.416
					h0.029l0.936-1.416h0.877l-1.338,2.04l1.439,2.154H116.846z"/>
				<path fill="#8E8E8E" d="M122.204,113.485v3.546h-0.709v-3.546h-1.271v-0.648h3.252v0.648H122.204z"/>
			</g>
		</g>
	</g>
</g>
</svg>
