<?xml version="1.0" encoding="utf-8"?>
<!-- Generator: Adobe Illustrator 24.2.1, SVG Export Plug-In . SVG Version: 6.00 Build 0)  -->
<svg version="1.1" id="_x3C_Layer_x3E_" xmlns="http://www.w3.org/2000/svg" xmlns:xlink="http://www.w3.org/1999/xlink" x="0px"
	 y="0px" viewBox="0 0 300 234.1" style="enable-background:new 0 0 300 234.1;" xml:space="preserve">
<style type="text/css">
	.st0{fill-rule:evenodd;clip-rule:evenodd;fill:#FFFFFF;}
	.st1{fill-rule:evenodd;clip-rule:evenodd;fill:#393F44;}
	.st2{fill-rule:evenodd;clip-rule:evenodd;fill:#212529;}
	.st3{fill-rule:evenodd;clip-rule:evenodd;fill:#DBE4FF;}
	.st4{fill-rule:evenodd;clip-rule:evenodd;fill:#FDECF3;}
	.st5{fill-rule:evenodd;clip-rule:evenodd;fill:url(#SVGID_1_);}
	.st6{fill-rule:evenodd;clip-rule:evenodd;fill:url(#SVGID_2_);}
	.st7{fill-rule:evenodd;clip-rule:evenodd;fill:#F9A1C0;}
	.st8{fill-rule:evenodd;clip-rule:evenodd;fill:#FDD2E3;}
	.st9{fill-rule:evenodd;clip-rule:evenodd;fill:#FFB8D8;}
	.st10{fill-rule:evenodd;clip-rule:evenodd;fill:#BAC8FF;}
	.st11{fill-rule:evenodd;clip-rule:evenodd;fill:#FAB005;}
	.st12{fill-rule:evenodd;clip-rule:evenodd;fill:#FFD43B;}
	.st13{fill-rule:evenodd;clip-rule:evenodd;fill:#E64980;}
	.st14{fill-rule:evenodd;clip-rule:evenodd;fill:#495057;}
	.st15{fill-rule:evenodd;clip-rule:evenodd;fill:#868E96;}
	.st16{fill-rule:evenodd;clip-rule:evenodd;fill:#D6336C;}
	.st17{fill-rule:evenodd;clip-rule:evenodd;fill:#4C6EF4;}
	.st18{fill-rule:evenodd;clip-rule:evenodd;fill:#FFA8A8;}
	.st19{fill-rule:evenodd;clip-rule:evenodd;fill:#FF8787;}
	.st20{fill-rule:evenodd;clip-rule:evenodd;fill:#2F5DDD;}
	.st21{fill-rule:evenodd;clip-rule:evenodd;fill:#90A6FF;}
	.st22{fill-rule:evenodd;clip-rule:evenodd;fill:#ADB2B9;}
	.st23{fill-rule:evenodd;clip-rule:evenodd;fill:#CED2D7;}
</style>
<rect class="st0" width="300" height="234.1"/>
<g>
	<path class="st1" d="M50.3,189.2c-0.2,0-0.4-0.2-0.4-0.4v-83.2c0-0.2,0.2-0.4,0.4-0.4c0.2,0,0.4,0.2,0.4,0.4v83.2
		C50.7,189.1,50.5,189.2,50.3,189.2z"/>
	<path class="st1" d="M42.3,120.4c-0.1,0-0.2,0-0.3-0.1c-0.1-0.2-0.1-0.4,0-0.5l46.4-40.9c0.2-0.1,0.4-0.1,0.5,0
		c0.1,0.2,0.1,0.4,0,0.5l-46.4,40.9C42.4,120.4,42.4,120.4,42.3,120.4z"/>
	<path class="st1" d="M52.1,113c0,1-0.8,1.8-1.8,1.8c-1,0-1.8-0.8-1.8-1.8c0-1,0.8-1.8,1.8-1.8C51.3,111.2,52.1,112,52.1,113z"/>
	<path class="st2" d="M51.3,113c0,0.6-0.4,1-1,1c-0.6,0-1-0.5-1-1c0-0.6,0.4-1,1-1C50.8,112,51.3,112.4,51.3,113z"/>
	<path class="st1" d="M105.4,77.5c-3.4-2.3-8.1-1.7-10.8,1.6c-2.7,3.2-2.5,7.9,0.3,10.9c0.2,0.2,0.4,0.3,0.6,0.3
		c0.2,0,0.5-0.1,0.6-0.3l9.4-11.1c0.2-0.2,0.2-0.4,0.2-0.7C105.8,77.8,105.7,77.6,105.4,77.5z"/>
	<g>
		<path class="st2" d="M105.4,77.4C105.4,77.4,105.4,77.4,105.4,77.4c-0.1-0.1-0.1-0.1-0.2-0.1c0,0-0.1,0-0.1,0c0,0-0.1,0-0.1-0.1
			c0,0-0.1,0-0.1,0c0,0-0.1,0-0.1-0.1c0,0-0.1,0-0.1,0c0,0-0.1,0-0.1-0.1c0,0-0.1,0-0.1,0c0,0-0.1,0-0.1,0c0,0-0.1,0-0.1,0
			c0,0-0.1,0-0.1-0.1c0,0,0,0-0.1,0c-0.1,0-0.1-0.1-0.2-0.1c0,0,0,0-0.1,0c0,0-0.1,0-0.1,0c0,0-0.1,0-0.1,0c0,0-0.1,0-0.1,0
			c0,0-0.1,0-0.1,0c0,0-0.1,0-0.1,0c0,0-0.1,0-0.1,0c0,0-0.1,0-0.1,0c0,0-0.1,0-0.1,0c0,0-0.1,0-0.1,0c0,0-0.1,0-0.1,0
			c0,0-0.1,0-0.1,0c0,0-0.1,0-0.1,0c0,0-0.1,0-0.1,0c0,0-0.1,0-0.1,0c0,0-0.1,0-0.1,0c0,0-0.1,0-0.1,0c0,0-0.1,0-0.1,0
			c0,0-0.1,0-0.1,0c0,0-0.1,0-0.1,0c0,0-0.1,0-0.1,0c0,0-0.1,0-0.1,0c0,0-0.1,0-0.1,0c0,0-0.1,0-0.1,0c0,0,0,0-0.1,0
			c-0.1,0-0.1,0-0.2,0c0,0,0,0-0.1,0c0,0-0.1,0-0.1,0c0,0-0.1,0-0.1,0c0,0-0.1,0-0.1,0c0,0-0.1,0-0.1,0c0,0-0.1,0-0.1,0
			c0,0-0.1,0-0.1,0c0,0-0.1,0-0.1,0c0,0-0.1,0-0.1,0c0,0-0.1,0-0.1,0c0,0-0.1,0-0.1,0c0,0-0.1,0-0.1,0c0,0-0.1,0-0.1,0
			c0,0-0.1,0-0.1,0c0,0-0.1,0-0.1,0c0,0-0.1,0-0.1,0c0,0-0.1,0-0.1,0c0,0-0.1,0-0.1,0c0,0-0.1,0-0.1,0c0,0-0.1,0-0.1,0
			c0,0-0.1,0-0.1,0c0,0-0.1,0-0.1,0c0,0-0.1,0-0.1,0c0,0-0.1,0-0.1,0c0,0,0,0-0.1,0c-0.1,0-0.1,0-0.2,0c0,0,0,0-0.1,0
			c0,0-0.1,0-0.1,0c0,0-0.1,0-0.1,0c0,0-0.1,0-0.1,0c0,0-0.1,0-0.1,0c0,0-0.1,0-0.1,0c0,0-0.1,0-0.1,0c0,0-0.1,0-0.1,0
			c0,0-0.1,0-0.1,0c0,0-0.1,0-0.1,0c0,0-0.1,0-0.1,0c0,0-0.1,0-0.1,0c0,0-0.1,0-0.1,0c0,0-0.1,0-0.1,0c0,0-0.1,0-0.1,0
			c0,0-0.1,0-0.1,0c0,0-0.1,0-0.1,0c0,0-0.1,0-0.1,0c0,0-0.1,0-0.1,0c0,0-0.1,0-0.1,0.1c0,0,0,0-0.1,0c0,0-0.1,0-0.1,0.1
			c0,0,0,0-0.1,0c0,0-0.1,0-0.1,0.1c0,0,0,0-0.1,0c-0.1,0-0.1,0.1-0.2,0.1l0,0l0,0c-0.1,0-0.1,0.1-0.2,0.1c0,0,0,0-0.1,0
			c0,0-0.1,0-0.1,0.1c0,0,0,0-0.1,0c0,0-0.1,0-0.1,0.1c0,0,0,0-0.1,0c0,0-0.1,0-0.1,0.1c0,0,0,0-0.1,0.1c0,0-0.1,0-0.1,0.1
			c0,0,0,0-0.1,0.1c0,0-0.1,0-0.1,0.1c0,0,0,0-0.1,0.1c0,0-0.1,0-0.1,0.1c0,0,0,0-0.1,0.1c0,0-0.1,0.1-0.1,0.1c0,0,0,0-0.1,0.1
			c0,0-0.1,0.1-0.1,0.1c0,0,0,0-0.1,0.1c0,0-0.1,0.1-0.1,0.1c0,0,0,0-0.1,0.1c0,0-0.1,0.1-0.1,0.1c0,0,0,0-0.1,0.1
			c0,0-0.1,0.1-0.1,0.1c0,0,0,0,0,0c0,0.1-0.1,0.1-0.1,0.2c0,0.1-0.1,0.1-0.1,0.2c0,0,0,0,0,0.1c0,0-0.1,0.1-0.1,0.1c0,0,0,0,0,0.1
			c0,0,0,0.1-0.1,0.1c0,0,0,0,0,0.1c0,0,0,0.1-0.1,0.1c0,0,0,0,0,0.1c0,0,0,0.1-0.1,0.1c0,0,0,0.1,0,0.1c0,0,0,0.1-0.1,0.1
			c0,0,0,0.1,0,0.1c0,0,0,0.1-0.1,0.1c0,0,0,0.1,0,0.1c0,0,0,0.1-0.1,0.1c0,0,0,0,0,0.1c0,0,0,0.1-0.1,0.1c0,0,0,0,0,0.1
			c0,0,0,0.1-0.1,0.1c0,0,0,0.1,0,0.1c0,0,0,0.1,0,0.1c0,0,0,0,0,0.1c0,0,0,0.1-0.1,0.1c0,0,0,0,0,0.1c0,0.1,0,0.1-0.1,0.2l0,0l0,0
			c0,0.1,0,0.1-0.1,0.2c0,0,0,0,0,0.1c0,0,0,0.1,0,0.1c0,0,0,0,0,0.1c0,0,0,0.1,0,0.1c0,0,0,0.1,0,0.1c0,0,0,0.1,0,0.1
			c0,0,0,0.1,0,0.1c0,0,0,0.1,0,0.1c0,0,0,0.1,0,0.1c0,0,0,0.1,0,0.1c0,0,0,0.1,0,0.1c0,0,0,0.1,0,0.1c0,0,0,0.1,0,0.1
			c0,0,0,0.1,0,0.1c0,0,0,0.1,0,0.1c0,0,0,0.1,0,0.1c0,0,0,0.1,0,0.1c0,0,0,0.1,0,0.1c0,0,0,0.1,0,0.1c0,0,0,0.1,0,0.1
			c0,0,0,0.1,0,0.1c0,0,0,0.1,0,0.1c0,0,0,0.1,0,0.1c0,0.1,0,0.1,0,0.2l0,0c0,0.1,0,0.1,0,0.2c0,0,0,0,0,0.1c0,0,0,0.1,0,0.1
			c0,0,0,0,0,0.1c0,0,0,0.1,0,0.1c0,0,0,0.1,0,0.1c0,0,0,0.1,0,0.1c0,0,0,0.1,0,0.1c0,0,0,0.1,0,0.1c0,0,0,0.1,0,0.1
			c0,0,0,0.1,0,0.1c0,0,0,0.1,0,0.1c0,0,0,0.1,0,0.1c0,0,0,0.1,0,0.1c0,0,0,0.1,0,0.1c0,0,0,0.1,0,0.1c0,0,0,0.1,0,0.1
			c0,0,0,0.1,0,0.1c0,0,0,0.1,0,0.1c0,0,0,0.1,0,0.1c0,0,0,0.1,0,0.1c0,0,0,0.1,0,0.1c0,0,0,0.1,0,0.1c0,0,0,0.1,0,0.1
			c0,0,0,0.1,0,0.1c0,0,0,0,0,0.1c0,0.1,0,0.1,0,0.2c0,0,0,0,0,0.1c0,0,0,0.1,0,0.1c0,0,0,0,0,0.1c0,0,0,0.1,0,0.1c0,0,0,0.1,0,0.1
			c0,0,0,0.1,0,0.1c0,0,0,0.1,0,0.1c0,0,0,0.1,0,0.1c0,0,0,0.1,0,0.1c0,0,0,0.1,0,0.1c0,0,0,0.1,0,0.1c0,0,0,0.1,0,0.1
			c0,0,0,0.1,0,0.1c0,0,0,0.1,0,0.1c0,0,0,0.1,0,0.1c0,0,0,0.1,0,0.1c0,0,0,0.1,0,0.1c0,0,0,0.1,0.1,0.1c0,0,0,0.1,0,0.1
			c0,0,0,0.1,0.1,0.1c0,0,0,0,0,0.1c0,0,0,0.1,0.1,0.1c0,0,0,0,0,0.1c0,0,0,0.1,0.1,0.1c0,0,0,0,0,0.1c0,0.1,0.1,0.1,0.1,0.2
			c0,0,0,0,0,0c0,0,0.1,0.1,0.1,0.1c0,0,0,0,0,0.1c0,0,0,0.1,0.1,0.1c0,0,0,0,0.1,0.1c0,0,0,0.1,0.1,0.1c0,0,0,0,0.1,0.1
			c0,0,0,0.1,0.1,0.1c0,0,0,0,0.1,0.1c0,0,0,0.1,0.1,0.1c0,0,0,0,0.1,0.1c0,0,0,0.1,0.1,0.1c0,0,0,0,0.1,0.1c0,0,0,0,0.1,0.1
			c0.2,0.2,0.4,0.2,0.6,0.2c0.2,0,0.5-0.1,0.6-0.3l0,0c-1.2-2.7-0.8-6,1.3-8.5c2.1-2.4,5.2-3.4,8.1-2.7c0.1-0.2,0.2-0.4,0.1-0.6
			C105.8,77.8,105.7,77.6,105.4,77.4C105.5,77.5,105.4,77.5,105.4,77.4L105.4,77.4z M96.9,77.2l-0.2,0.1
			C96.8,77.3,96.8,77.2,96.9,77.2z"/>
	</g>
	<path class="st1" d="M92.8,83.5l-10.4-8.8c-0.4-0.3-0.4-0.8-0.1-1.2l4.9-5.8c0.3-0.4,0.8-0.4,1.2-0.1l10.4,8.8L92.8,83.5z"/>
	<path class="st2" d="M82.4,74.7c-0.4-0.3-0.4-0.8-0.1-1.2l0,0l4.9-5.8c0,0-4.7,6.8,5.7,15.8L82.4,74.7z"/>
	<path class="st2" d="M84.7,70.6L84.7,70.6c-0.5-0.4-0.5-1.1-0.1-1.5l0.4-0.5c0.4-0.5,1.1-0.5,1.5-0.1L84.7,70.6z"/>
	<path class="st2" d="M83.5,72.1l-0.2-0.2c-0.1-0.1-0.1-0.2,0-0.3l0.5-0.5c0.1-0.1,0.2-0.1,0.3,0l0.2,0.2L83.5,72.1z"/>
	<path class="st2" d="M89,70.1c-0.1,0.2-0.3,0.2-0.5,0c-0.2-0.1-0.2-0.4,0-0.5c0.1-0.2,0.4-0.2,0.5,0C89.1,69.8,89.1,70,89,70.1z"/>
	<path class="st2" d="M88.3,71c-0.1,0.2-0.4,0.2-0.5,0c-0.2-0.1-0.2-0.4,0-0.5c0.1-0.2,0.3-0.2,0.5,0C88.4,70.6,88.4,70.9,88.3,71z"
		/>
</g>
<path class="st3" d="M32.7,202.2h245.2c0,0-31.4-7.1-69.5-13.7c1.9-1.6,3.5-3.2,3.1-3.9c-0.5-1-6.2-0.5-7.8,0.9
	c1.4-3.5,3.4-12.1,2.2-12.8c-1.2-0.7-5.7,6.6-7,9c0.6-7.2,1.2-15.8-0.5-15.8s-3.7,11.1-4.4,14.2c-1.1-3.4-4.4-6.1-5.4-5.5
	c-0.9,0.5,0.2,5.5,1,7c-3.4-1.6-12.2-4.7-12.8-3.7c-0.4,0.7,2.8,3.9,5.9,6.4c-37.7-7.5-88.1-11.6-124.3,1.7c0.3-3,0.3-8.1-0.5-8.4
	c-0.9-0.3-3,5.5-3.6,7.4c-0.6-5.1-1.5-11.3-2.7-11c-1.2,0.3-1,8.3-1,10.7c-1.3-2.2-4-3.6-4.6-3.1c-0.6,0.5,0.9,3.9,1.7,4.8
	c-2.6-0.7-9.3-1.5-9.5-0.7c-0.2,0.8,5.5,4.2,8,4.8c-2.4,0.2-4,0.3-4.2,1.1c-0.1,0.3,1,0.9,2.4,1.3c-1.1,0.7-2.1,1.3-3,2
	c0.2-0.8,0.2-3-0.2-3.1c-0.5-0.2-1.7,1.4-1.9,3c-0.6-1.4-2.5-6.1-3.3-6c-0.8,0.2,0.3,4,1.2,7.1c-0.8-0.9-3.5-3.8-4-3.4
	c-0.5,0.4,1.2,4.1,2.2,5.5c-0.9-0.5-3.4-0.2-3.6,0.3c-0.1,0.4,1.4,1.3,2.8,2C33.4,201.4,32.7,202.2,32.7,202.2z"/>
<path class="st4" d="M277.9,201.9c0,4.1-56.9,7.4-127.1,7.4c-70.2,0-127.1-3.3-127.1-7.4c0-4.1,56.9-7.4,127.1-7.4
	C221,194.4,277.9,197.8,277.9,201.9z"/>
<linearGradient id="SVGID_1_" gradientUnits="userSpaceOnUse" x1="75.1697" y1="21.8958" x2="75.1698" y2="49.0249">
	<stop  offset="0" style="stop-color:#FCE5EC"/>
	<stop  offset="1" style="stop-color:#FFFFFF"/>
</linearGradient>
<path class="st5" d="M34.1,41.5h74c10.6,0,12.9-5.5-4.7-5.5c0,0,3.8-2,2.2-6.3c-1.6-4.2-12.7-4.5-20.6,4.3c0,0-1.8-2.6-5.5-0.9
	c-3.7,1.7-1,4.6-1,4.6S66.1,35.5,34.1,41.5z"/>
<linearGradient id="SVGID_2_" gradientUnits="userSpaceOnUse" x1="241.1621" y1="53.2868" x2="241.1622" y2="69.7512">
	<stop  offset="0" style="stop-color:#FCE5EC"/>
	<stop  offset="1" style="stop-color:#FFFFFF"/>
</linearGradient>
<path class="st6" d="M273.2,65.2h-64.1c0,0,4.8-0.2,8-2.4c3.2-2.1,4.8-5.1,7.8-4.8c3.1,0.3,1.5,3.3,1.5,3.3s5.2-5.1,15.3-4.9
	c10,0.2,5.8,5.2,5.8,5.2s3.7-2.2,7.1-0.8c3.4,1.4,0,3.3-3.5,2.8C251.2,63.6,251.8,64.5,273.2,65.2z"/>
<g>
	<g>
		<path class="st7" d="M44,191.1c0,0-8.2-12.8-7.4-14.9c0.7-2.1,8.2,4.7,8.2,4.7l0.7,10.2H44z"/>
		<path class="st8" d="M45.8,192.4c0,0-8.2-19.9-5.6-24.7c0.6-1.2,5.6,6.6,5.6,6.6s0.9-13.2,3.7-13.3c2.8-0.1,3.5,8.7,3.5,8.7
			s2.4-4.3,3-3.9c0.6,0.3,0.8,5,0.8,5s4.6-7.3,5.6-6.6c1,0.6-1.1,16.5-8.1,29.1L45.8,192.4z"/>
		<path class="st7" d="M60.3,191.6c0,0,6.5-6.1,7.3-8.6s-2.8-0.4-2.8-0.4s3.5-10.9,2.2-12.4c-1.4-1.4-7.7,8.4-7.7,8.4
			s-0.9-7.1-3-7.1c-2,0-1.6,14.7-1.6,14.7L60.3,191.6z"/>
		<path class="st9" d="M58.2,191.4c0,0,4-10.4,2.6-11.6c-1.4-1.2-3.7,2.9-3.7,2.9s-0.2-8.4-2.4-8.3c-2.2,0-2.6,9.4-2.6,9.4
			s-2.7-4.3-4.1-3.7c-1.4,0.6,1.7,9.1,3.9,11.4C53.8,193.7,58.2,191.4,58.2,191.4z"/>
		<path class="st8" d="M45.7,203.6h15.6c0.2,0,0.3-0.1,0.4-0.3c1.5-4.7,2.3-9.4,2.6-14.1H42.7c0.2,4.7,1,9.4,2.6,14.1
			C45.3,203.4,45.5,203.6,45.7,203.6z"/>
		<path class="st7" d="M41.3,190.2h24.1c0.2,0,0.3-0.1,0.3-0.3V188c0-0.2-0.1-0.3-0.3-0.3H41.3c-0.2,0-0.3,0.1-0.3,0.3v1.9
			C41,190.1,41.2,190.2,41.3,190.2z"/>
	</g>
	<g>
		<path class="st7" d="M256,190c0,0,8.2-12.8,7.4-14.9c-0.7-2.1-8.2,4.7-8.2,4.7l-0.7,10.2H256z"/>
		<path class="st8" d="M254.2,191.3c0,0,8.2-19.9,5.6-24.7c-0.6-1.2-5.6,6.6-5.6,6.6s-0.9-13.2-3.7-13.3c-2.8-0.1-3.5,8.7-3.5,8.7
			s-2.4-4.3-3-3.9c-0.6,0.3-0.8,5-0.8,5s-4.6-7.3-5.6-6.6c-1,0.6,1.1,16.5,8.1,29.1L254.2,191.3z"/>
		<path class="st7" d="M239.7,190.6c0,0-6.5-6.1-7.3-8.6c-0.9-2.6,2.8-0.4,2.8-0.4s-3.5-10.9-2.2-12.4c1.4-1.4,7.7,8.4,7.7,8.4
			s0.9-7.1,3-7.1c2,0,1.6,14.7,1.6,14.7L239.7,190.6z"/>
		<path class="st9" d="M241.8,190.3c0,0-4-10.4-2.6-11.6c1.4-1.2,3.7,2.9,3.7,2.9s0.2-8.4,2.4-8.3c2.2,0,2.6,9.4,2.6,9.4
			s2.7-4.3,4.1-3.7c1.4,0.6-1.7,9.1-3.9,11.4C246.2,192.6,241.8,190.3,241.8,190.3z"/>
		<path class="st8" d="M254.4,202.5h-15.6c-0.2,0-0.3-0.1-0.4-0.3c-1.5-4.7-2.3-9.4-2.6-14.1h21.6c-0.2,4.7-1,9.4-2.6,14.1
			C254.7,202.4,254.5,202.5,254.4,202.5z"/>
		<path class="st7" d="M258.7,189.2h-24.1c-0.2,0-0.3-0.1-0.3-0.3v-1.9c0-0.2,0.1-0.3,0.3-0.3h24.1c0.2,0,0.3,0.1,0.3,0.3v1.9
			C259,189,258.8,189.2,258.7,189.2z"/>
	</g>
</g>
<g>
	<path class="st10" d="M175.2,94.9h-31.5c-2.7,0-4.8-2.2-4.8-4.8V28.6c0-2.7,2.2-4.8,4.8-4.8h31.5c2.7,0,4.8,2.2,4.8,4.8v61.5
		C180,92.8,177.9,94.9,175.2,94.9z"/>
	<path class="st3" d="M174.5,91.4h-30.1c-1.5,0-2.7-1.2-2.7-2.7V29.2c0-1.5,1.2-2.7,2.7-2.7h30.1c1.5,0,2.7,1.2,2.7,2.7v59.6
		C177.2,90.2,176,91.4,174.5,91.4z"/>
	<path class="st3" d="M167.1,33.1h-15.2c-2.3,0-4.2,1.9-4.2,4.2c0,2.3,1.9,4.2,4.2,4.2h12.9l2.3,2.4l-0.4-2.4h0.4
		c2.3,0,4.2-1.9,4.2-4.2C171.2,35,169.4,33.1,167.1,33.1z"/>
	<path class="st10" d="M138.9,66.6V50.4h27.1c4.5,0,8.1,3.6,8.1,8.1c0,4.5-3.6,8.1-8.1,8.1H138.9z"/>
	<path class="st11" d="M165.9,63.7h-43.6c-4.5,0-8.1-3.6-8.1-8.1c0-4.5,3.6-8.1,8.1-8.1h43.6c4.5,0,8.1,3.6,8.1,8.1
		C174,60.1,170.4,63.7,165.9,63.7z"/>
	<path class="st10" d="M152.1,35.4h14.8c0.1,0,0.3,0.1,0.3,0.3c0,0.1-0.1,0.3-0.3,0.3h-14.8c-0.1,0-0.3-0.1-0.3-0.3
		C151.8,35.5,152,35.4,152.1,35.4L152.1,35.4z M152.1,38.6h8.6c0.1,0,0.3,0.1,0.3,0.3c0,0.1-0.1,0.3-0.3,0.3h-8.6
		c-0.1,0-0.3-0.1-0.3-0.3C151.8,38.7,152,38.6,152.1,38.6L152.1,38.6z M152.1,37h14.8c0.1,0,0.3,0.1,0.3,0.3c0,0.1-0.1,0.3-0.3,0.3
		h-14.8c-0.1,0-0.3-0.1-0.3-0.3C151.8,37.1,152,37,152.1,37z"/>
	<g>
		<path class="st0" d="M159.4,70.4c-10.5,0-19,3.9-19,8.8c0,4.9,8.5,8.8,19,8.8c1.5,0,2.7,1.2,2.7,2.7c0,0.9-0.4,1.7-1.1,2.2
			c-0.1,0-0.1,0.1,0,0.2c0,0.1,0.1,0.1,0.2,0.1c2.5-0.4,4.5-2.6,4.5-5.3c0-0.1,0-0.3,0-0.4c7.4-1.2,12.8-4.5,12.8-8.3
			C178.4,74.3,169.9,70.4,159.4,70.4z"/>
		<path class="st3" d="M152.6,77.8c-0.7,0-1.4,0.6-1.4,1.4c0,0.7,0.6,1.4,1.4,1.4c0.7,0,1.4-0.6,1.4-1.4
			C153.9,78.4,153.3,77.8,152.6,77.8L152.6,77.8z M166.3,77.8c-0.7,0-1.4,0.6-1.4,1.4c0,0.7,0.6,1.4,1.4,1.4c0.7,0,1.4-0.6,1.4-1.4
			C167.7,78.4,167.1,77.8,166.3,77.8L166.3,77.8z M159.4,77.8c-0.7,0-1.4,0.6-1.4,1.4c0,0.7,0.6,1.4,1.4,1.4c0.7,0,1.4-0.6,1.4-1.4
			C160.8,78.4,160.2,77.8,159.4,77.8z"/>
	</g>
	<path class="st12" d="M165.9,48.4h-43.6c-4,0-7.2,3.2-7.2,7.2h58.1C173.2,51.6,169.9,48.4,165.9,48.4z"/>
	<path class="st0" d="M123.9,52.5l0.8,1.7l1.9,0.3c0.1,0,0.1,0.1,0.1,0.1c0,0.1,0,0.1,0,0.2l-1.4,1.3l0.3,1.9c0,0.1,0,0.1-0.1,0.2
		c-0.1,0-0.1,0-0.2,0l-1.7-0.9l-1.7,0.9c-0.1,0-0.1,0-0.2,0c-0.1,0-0.1-0.1-0.1-0.2l0.3-1.9l-1.4-1.3c-0.1,0-0.1-0.1,0-0.2
		c0-0.1,0.1-0.1,0.1-0.1l1.9-0.3l0.8-1.7c0-0.1,0.1-0.1,0.2-0.1C123.8,52.4,123.9,52.5,123.9,52.5L123.9,52.5z M164.6,52.5l0.8,1.7
		l1.9,0.3c0.1,0,0.1,0.1,0.1,0.1c0,0.1,0,0.1,0,0.2l-1.4,1.3l0.3,1.9c0,0.1,0,0.1-0.1,0.2c-0.1,0-0.1,0-0.2,0l-1.7-0.9l-1.7,0.9
		c-0.1,0-0.1,0-0.2,0c-0.1,0-0.1-0.1-0.1-0.2l0.3-1.9l-1.4-1.3c-0.1,0-0.1-0.1,0-0.2c0-0.1,0.1-0.1,0.1-0.1l1.9-0.3l0.8-1.7
		c0-0.1,0.1-0.1,0.2-0.1C164.5,52.4,164.6,52.5,164.6,52.5L164.6,52.5z M154.5,52.5l0.8,1.7l1.9,0.3c0.1,0,0.1,0.1,0.1,0.1
		c0,0.1,0,0.1,0,0.2l-1.4,1.3l0.3,1.9c0,0.1,0,0.1-0.1,0.2c-0.1,0-0.1,0-0.2,0l-1.7-0.9l-1.7,0.9c-0.1,0-0.1,0-0.2,0
		c-0.1,0-0.1-0.1-0.1-0.2l0.3-1.9l-1.4-1.3c-0.1,0-0.1-0.1,0-0.2c0-0.1,0.1-0.1,0.1-0.1l1.9-0.3l0.8-1.7c0-0.1,0.1-0.1,0.2-0.1
		C154.4,52.4,154.4,52.5,154.5,52.5L154.5,52.5z M144.3,52.5l0.8,1.7l1.9,0.3c0.1,0,0.1,0.1,0.1,0.1c0,0.1,0,0.1,0,0.2l-1.4,1.3
		l0.3,1.9c0,0.1,0,0.1-0.1,0.2c-0.1,0-0.1,0-0.2,0l-1.7-0.9l-1.7,0.9c-0.1,0-0.1,0-0.2,0c-0.1,0-0.1-0.1-0.1-0.2l0.3-1.9l-1.4-1.3
		c-0.1,0-0.1-0.1,0-0.2c0-0.1,0.1-0.1,0.1-0.1l1.9-0.3l0.8-1.7c0-0.1,0.1-0.1,0.2-0.1C144.2,52.4,144.3,52.5,144.3,52.5L144.3,52.5z
		 M134.1,52.5l0.8,1.7l1.9,0.3c0.1,0,0.1,0.1,0.1,0.1c0,0.1,0,0.1,0,0.2l-1.4,1.3l0.3,1.9c0,0.1,0,0.1-0.1,0.2c-0.1,0-0.1,0-0.2,0
		l-1.7-0.9l-1.7,0.9c-0.1,0-0.1,0-0.2,0c-0.1,0-0.1-0.1-0.1-0.2l0.3-1.9l-1.4-1.3c-0.1,0-0.1-0.1,0-0.2c0-0.1,0.1-0.1,0.1-0.1
		l1.9-0.3l0.8-1.7c0-0.1,0.1-0.1,0.2-0.1C134,52.4,134.1,52.5,134.1,52.5z"/>
</g>
<g>
	<path class="st3" d="M129.9,98.7l-2.3-3.4c0.5-0.8,0.8-1.7,0.8-2.7c0-2.6-2.1-4.7-4.7-4.7c-2.6,0-4.7,2.1-4.7,4.7
		c0,2.6,2.1,4.7,4.7,4.7c1.1,0,2-0.4,2.8-1L129.9,98.7z"/>
	<path class="st0" d="M123.8,91.9c-0.2-0.6-1.1-0.9-1.6-0.5c-0.4,0.2-0.5,0.7-0.4,1.3c0.2,0.8,1.2,1.4,2,1.7c0.7-0.2,1.8-0.8,2-1.7
		c0.1-0.5,0-1-0.4-1.3C124.8,91.1,124,91.3,123.8,91.9z"/>
</g>
<g>
	<path class="st8" d="M106.4,115.5l-5.1-3.3c0.3-1.3,0.2-2.8-0.4-4.1c-1.5-3.6-5.6-5.2-9.2-3.7c-3.6,1.5-5.2,5.6-3.7,9.2
		c1.5,3.6,5.6,5.2,9.2,3.7c1.5-0.6,2.6-1.7,3.3-3L106.4,115.5z"/>
	<path class="st0" d="M94,109.8c-0.6-0.7-2-0.6-2.5,0.2c-0.3,0.6-0.3,1.3,0.2,2c0.8,1,2.6,1.3,3.7,1.1c0.9-0.7,2-2.2,1.7-3.5
		c-0.1-0.8-0.7-1.4-1.3-1.5C95,108,93.9,108.8,94,109.8z"/>
</g>
<g>
	<polygon class="st1" points="224.4,184.7 217.4,203 218.2,203 225.7,184.7 	"/>
	<polygon class="st1" points="227,184.7 233.9,203 233.2,203 225.7,184.7 	"/>
	<polygon class="st1" points="224.9,184.9 225.4,203 226,203 226.4,184.9 	"/>
	<path class="st1" d="M225.7,185.6c-0.4,0-0.7-0.3-0.7-0.7v-62.7c0-0.4,0.3-0.7,0.7-0.7c0.4,0,0.7,0.3,0.7,0.7v62.7
		C226.4,185.3,226.1,185.6,225.7,185.6z"/>
	<path class="st2" d="M227.4,185.6H224c-0.1,0-0.2-0.1-0.2-0.2v-1.6c0-0.1,0.1-0.2,0.2-0.2h3.4c0.1,0,0.2,0.1,0.2,0.2v1.6
		C227.5,185.5,227.5,185.6,227.4,185.6z"/>
	<g>
		<path class="st2" d="M229.4,98c0.4,0,0.6,0.3,0.6,0.6v4.5h-0.6H225h-1.7h-0.6V98H229.4z"/>
		<path class="st1" d="M222.7,98c0.4,0,0.6,0.3,0.6,0.6v4.5h-5.1c0.5-2.2,2.1-4.1,4.2-5C222.5,98,222.6,98,222.7,98z"/>
		<path class="st1" d="M231.8,101.4h2.7c0.1,0,0.3,0.1,0.3,0.3v1.3c0,0.1-0.1,0.3-0.3,0.3h-2.7c-0.1,0-0.3-0.1-0.3-0.3v-1.3
			C231.6,101.5,231.7,101.4,231.8,101.4z"/>
		<path class="st2" d="M227.7,123.7h-4c-0.3,0-0.5-0.2-0.5-0.5v-1.9h5v1.9C228.2,123.5,227.9,123.7,227.7,123.7z"/>
		<path class="st2" d="M219.8,112.1c0,4.2-3.1,7.7-6.9,7.7c-3.8,0-6.9-3.4-6.9-7.7c0-4.2,3.1-7.7,6.9-7.7
			C216.7,104.4,219.8,107.9,219.8,112.1z"/>
		<path class="st1" d="M206.9,112.1c0-4.1,2.8-7.4,6.4-7.7c-0.2,0-0.3,0-0.5,0c-3.8,0-6.9,3.4-6.9,7.7c0,4.2,3.1,7.7,6.9,7.7
			c0.2,0,0.3,0,0.5,0C209.8,119.5,206.9,116.2,206.9,112.1z"/>
		<path class="st1" d="M214,103h21.5c1,0,1.9,0.8,1.9,1.9V120c0,1-0.8,1.9-1.9,1.9H214c-1,0-1.9-0.8-1.9-1.9v-15.1
			C212.2,103.8,213,103,214,103z"/>
		<path class="st2" d="M217.6,103.8c-0.6,0-1.1,0.5-1.1,1.1V120c0,0.6,0.5,1.1,1.1,1.1h18c0.6,0,1.1-0.5,1.1-1.1v-15.1
			c0-0.6-0.5-1.1-1.1-1.1H217.6z"/>
		<path class="st3" d="M217.6,104.7c-0.1,0-0.2,0.1-0.2,0.2v11.4c0,0.1,0.1,0.2,0.2,0.2h18c0.1,0,0.2-0.1,0.2-0.2v-11.4
			c0-0.1-0.1-0.2-0.2-0.2H217.6z"/>
		<path class="st10" d="M217.4,107.6v8.7c0,0.1,0.1,0.2,0.2,0.2h18c0.1,0,0.2-0.1,0.2-0.2v-8.1c-4.6,0.3-8.2,4.7-10.4,3.7
			c-0.7-0.3-1.1-1.1-1.8-2C222.1,108.3,219.6,107.4,217.4,107.6z"/>
		<ellipse class="st1" cx="219.1" cy="118.8" rx="0.7" ry="1.4"/>
		<ellipse class="st2" cx="219.3" cy="118.8" rx="0.5" ry="1.1"/>
		<path class="st1" d="M222.1,118.8c0,0.8-0.3,1.4-0.7,1.4c-0.4,0-0.7-0.6-0.7-1.4c0-0.8,0.3-1.4,0.7-1.4
			C221.8,117.5,222.1,118.1,222.1,118.8z"/>
		<path class="st2" d="M222.2,118.8c0,0.6-0.2,1.1-0.5,1.1c-0.3,0-0.5-0.5-0.5-1.1c0-0.6,0.2-1.1,0.5-1.1
			C221.9,117.8,222.2,118.2,222.2,118.8z"/>
		<path class="st1" d="M224.6,118.8c0,0.8-0.3,1.4-0.7,1.4c-0.4,0-0.7-0.6-0.7-1.4c0-0.8,0.3-1.4,0.7-1.4
			C224.3,117.5,224.6,118.1,224.6,118.8z"/>
		<path class="st2" d="M224.7,118.8c0,0.6-0.2,1.1-0.5,1.1c-0.3,0-0.5-0.5-0.5-1.1c0-0.6,0.2-1.1,0.5-1.1
			C224.4,117.8,224.7,118.2,224.7,118.8z"/>
		<path class="st1" d="M227.1,118.8c0,0.8-0.3,1.4-0.7,1.4c-0.4,0-0.7-0.6-0.7-1.4c0-0.8,0.3-1.4,0.7-1.4
			C226.8,117.5,227.1,118.1,227.1,118.8z"/>
		<path class="st2" d="M227.1,118.8c0,0.6-0.2,1.1-0.5,1.1c-0.3,0-0.5-0.5-0.5-1.1c0-0.6,0.2-1.1,0.5-1.1
			C226.9,117.8,227.1,118.2,227.1,118.8z"/>
		<path class="st1" d="M229.5,118.8c0,0.8-0.3,1.4-0.7,1.4c-0.4,0-0.7-0.6-0.7-1.4c0-0.8,0.3-1.4,0.7-1.4
			C229.2,117.5,229.5,118.1,229.5,118.8z"/>
		<path class="st2" d="M229.6,118.8c0,0.6-0.2,1.1-0.5,1.1c-0.3,0-0.5-0.5-0.5-1.1c0-0.6,0.2-1.1,0.5-1.1
			C229.3,117.8,229.6,118.2,229.6,118.8z"/>
		<path class="st13" d="M235.4,117.8c0,0.4-0.1,0.6-0.3,0.6c-0.2,0-0.3-0.3-0.3-0.6c0-0.4,0.1-0.6,0.3-0.6
			C235.3,117.1,235.4,117.4,235.4,117.8z"/>
	</g>
</g>
<g>
	<path class="st14" d="M178.5,200c0,1.7-8.2,3.2-18.4,3.2s-18.4-1.4-18.4-3.2c0-1.7,8.2-3.2,18.4-3.2S178.5,198.3,178.5,200z"/>
	<rect x="141.7" y="198.8" class="st14" width="36.7" height="1.2"/>
	<path class="st15" d="M178.5,198.8c0,1.7-8.2,3.2-18.4,3.2s-18.4-1.4-18.4-3.2c0-1.7,8.2-3.2,18.4-3.2S178.5,197,178.5,198.8z"/>
	<path class="st14" d="M160,198.7L160,198.7c-1.6,0-2.8-1.3-2.8-2.8v-25.7h5.7v25.7C162.9,197.4,161.6,198.7,160,198.7z"/>
	<path class="st15" d="M159.5,198.6c1.3-0.3,2.3-1.4,2.3-2.8v-25.7h-4.5v25.7C157.2,197.2,158.2,198.4,159.5,198.6z"/>
	<polygon class="st16" points="188.3,124.2 169.9,124.2 153.3,161.6 175.5,162.2 	"/>
	<path class="st13" d="M176.2,164.6c0,0,23.6-35.9,13.5-40.1c-10.1-4.2-16.4,39.1-16.4,39.1L176.2,164.6z"/>
	<path class="st16" d="M175.3,163.6l1.2,0.4c3-4.6,22.5-35.7,13.2-39.6c-0.1-0.1-0.2-0.1-0.4-0.1
		C180.6,127.1,175.3,163.6,175.3,163.6z"/>
	<path class="st14" d="M126.4,110.4l-1.4-0.5l1-0.4c0.1,0,0.2,0,0.2,0l6.4,2.4c0.1,0,0.1,0.1,0.2,0.2l4.1,12.5c0,0.1,0,0.3-0.2,0.4
		l-0.8,0.4l-0.3-1l-5.2-2L126.4,110.4z"/>
	<path class="st2" d="M129.4,122.9l6.5,2.4l-4.2-12.8c0-0.1-0.1-0.2-0.2-0.2l-6.5-2.4l4.2,12.8C129.2,122.8,129.3,122.8,129.4,122.9
		z"/>
	<path class="st17" d="M129.5,112.5l1.3,0.5c0,0,0,0,0.1,0.1l0.6,1.7c0,0.1,0,0.1-0.1,0.1l-1.3-0.5c0,0,0,0-0.1-0.1l-0.6-1.7
		C129.4,112.6,129.5,112.5,129.5,112.5z"/>
	<path class="st18" d="M138.9,124.5c0,0-3.9,7.1-7.3,7c-3.4-0.1-2-11.2-2-11.2s1.7-1.3,0.7-2.3c0,0,0.7-1.4,0.2-1.5
		c-0.4-0.1-2.6,2.4-2.6,2.4s-0.7-1.1-1.8-0.8c-1.1,0.3,1,1.1,1,1.1s-3.4,7.7-1.7,13.4c1.8,5.7,9.1,8.9,14.8,7.2
		c5.7-1.7,9.1-9.2,9.1-9.2L138.9,124.5z"/>
	<path class="st19" d="M149.4,130.4l-10.5-5.9c1.3,1.2,4.2,5,4.2,5s-2,5.6-9,6.6c-8.1,1.1-8.6-11.8-8.6-11.8l0,0
		c-0.6,2.5-0.9,5.6,0,8.3c1.8,5.7,9.1,8.9,14.8,7.2C146,137.9,149.4,130.4,149.4,130.4z"/>
	<path class="st3" d="M161,111c-11-0.1-18.5,7.6-22.1,13.5l10.4,9.3L161,111z"/>
	<path class="st10" d="M150.3,116.8c-1.7,5.4-4.5,9.4-6.6,12l5.6,5l1.4-2.8L150.3,116.8z"/>
	<path class="st3" d="M149.4,116c0,0-6.8,19.2,0.9,32.9h13.2c0,0,7.7-26.5-2.6-37.9L149.4,116z"/>
	<path class="st17" d="M149.9,148.2c0,0-23.7,4.2-30.7,13.6c-7,9.4-1.4,21.4-4.5,41.2c0,0,18.2-17,14.4-33.9c0,0,10.6,4.2,24.2-7.4
		C166.9,150,149.9,148.2,149.9,148.2z"/>
	<path class="st20" d="M129.1,169.1c0,0,10.6,4.2,24.2-7.4c13.6-11.7-3.4-13.5-3.4-13.5s-12,10.1-24,16.5c-3.8,2-1.6,15.5-11.2,38.4
		C114.7,203,132.9,186,129.1,169.1z"/>
	<path class="st10" d="M148,138.8c-0.3,0.1-0.6,0.2-0.8,0.4c0.5,3.3,1.5,6.6,3.2,9.7h13.2c0,0,5.3-18.2,1.2-31L164,118
		C164,118,163.3,132.6,148,138.8z"/>
	<rect x="140.7" y="161.5" class="st16" width="26.4" height="11.2"/>
	<path class="st17" d="M164.2,146.1c0,0,6.7,6.6,2.1,12.8c-4.6,6.2-16.3,9.3-16.3,9.3s8.2,8.5,1.2,34.8c0,0-6.5-17.9-13-27.6
		C131.7,165.6,137.1,152.2,164.2,146.1z"/>
	<path class="st20" d="M149.9,168.2c0,0,11.7-3.1,16.3-9.3c4.6-6.2-2.1-12.8-2.1-12.8S165.6,157,149.9,168.2z"/>
	<path class="st13" d="M178.5,165.4c0-9.4-17.7-11.2-19.9,0C156.4,176.6,178.5,173.6,178.5,165.4z"/>
	<path class="st16" d="M178.5,165.4c0-2.9-1.7-5.1-4.2-6.4c-4.8-0.4-10.1,1.9-11.2,7.7c-0.6,2.9,0.5,4.9,2.4,6
		C171.3,173.1,178.5,170.1,178.5,165.4z"/>
	<path class="st18" d="M158.3,109.3c0,0-0.9,3.4,0,5c1-0.7,2.1-2.5,2-2.9c-0.2-0.5-0.3-1.2-0.3-1.2L158.3,109.3z"/>
	<path class="st19" d="M159,110.4c-0.4,0.1-0.7,0.3-1,0.5c-0.1,0.8-0.1,1.8,0,2.6C158.8,112.5,159.2,111.6,159,110.4z"/>
	<path class="st2" d="M156.7,109.8c-1.2-1.2-1.9-3.9-1.7-4.1c0.2-0.3,0.9-0.2,1.3-0.1c-0.6-1.4-0.4-4.6,0.4-4.8
		c0.6-0.2,2.5,2,3.1,3.4c0.3-0.5,0.8-1.1,1.1-1.1c0.3,0,1.1,1.8,1,3.6c0.3-0.5,0.6-0.7,0.8-0.6c0.2,0.1,0,3.5-3.6,4.7
		C158.7,110.6,156.7,109.8,156.7,109.8z"/>
	<path class="st18" d="M159.2,109.1C159.2,109.2,159.1,109.1,159.2,109.1c0.2-1.1-0.2-2.4-1.1-2.6c-1.7-0.2-1.9,5.4-1,5.7
		c1,0.3,3.6-2.7,3-3.3C159.8,108.7,159.4,109,159.2,109.1z"/>
	<path class="st2" d="M158.6,108.6c-0.1-0.2-0.5-0.3-0.7-0.1C158.1,108.5,158.5,108.5,158.6,108.6z"/>
	<path class="st0" d="M156.7,110.6c0,0.2,0.1,0.7,0.1,0.8c0.3,0.1,1.5-0.1,1.7-1.2C158.2,110.4,157,110.8,156.7,110.6z"/>
	<path class="st21" d="M177,141.6c0,0-7.4-0.8-14.2-8.8C162.9,132.8,172.9,131.6,177,141.6z"/>
	<path class="st18" d="M162.9,132.8c0,0-7.7,8.5-19,1c0,0,0.5-2.8-1-3.9c-1.6-1.1-2-1.4-2-0.9c0,0.6,1.4,1.7,1.4,1.7
		s-2.7,3.3-0.9,3.8c0.9,0.3,0.9,0.3,0.9,0.3s5.4,12.3,17.9,12.3c12.5,0,16.6-9.2,16.6-9.2S171.4,132.2,162.9,132.8z"/>
	<path class="st19" d="M162.9,132.8c6.3,2.3,8.3,5.7,8.3,5.7c-7.3,10.5-25.3,1.9-25.3,1.8c2.9,3.3,7.6,6.9,14.3,6.9
		c12.5,0,16.6-9.2,16.6-9.2S171.4,132.2,162.9,132.8z"/>
	<path class="st3" d="M161,111c0,0,19,3.3,16.1,30.6c0,0-3.2-7.8-14.2-8.8C166.7,126.4,165.1,118.9,161,111z"/>
	<path class="st10" d="M172.4,136.2c3.4,2.5,4.6,5.4,4.6,5.4C179.9,114.3,161,111,161,111S177,118.7,172.4,136.2z"/>
	<path class="st19" d="M142.8,129.9c-1.6-1.1-2-1.4-2-0.9c0,0.6,1.4,1.7,1.4,1.7s-0.7,0.9-1.1,1.8l1.5-1.8c0,0-1.6-1.2-1.3-1.4
		C141.6,129.2,142.8,129.9,142.8,129.9z"/>
	<g>
		<path class="st20" d="M116,145.7h14.4c0.2,0,0.4-0.2,0.4-0.4v-4.1c0-0.2-0.2-0.4-0.4-0.4H116c-0.2,0-0.4,0.2-0.4,0.4v4.1
			C115.6,145.5,115.8,145.7,116,145.7z"/>
		<path class="st17" d="M127.2,143.3c0,1.1-1.7,1.9-3.8,1.9c-2.1,0-3.8-0.9-3.8-1.9c0-1.1,1.7-1.9,3.8-1.9
			C125.5,141.3,127.2,142.2,127.2,143.3z"/>
	</g>
	<path class="st20" d="M135.9,169.8L135.9,169.8c0.3,2,1.1,3.9,2.3,5.6c6.4,9.8,13,27.6,13,27.6s-0.5-16.4-4.9-21.2
		C141.8,177,137,173.9,135.9,169.8z"/>
	<path class="st2" d="M114.7,203h-2.6c0,0-0.1-0.1,0-0.1c0.8-0.4,2-0.8,2.8-1C114.9,202.3,114.8,202.5,114.7,203z"/>
	<path class="st2" d="M151.1,203h-2.6c0,0-0.1-0.1,0-0.1c0.8-0.4,1.4-0.8,2.2-0.9C150.9,202.3,150.9,202.5,151.1,203z"/>
	<g>
		<path class="st1" d="M102.5,145.3L102.5,145.3c-0.3,0-0.6-0.2-0.6-0.5V140h1.1v4.8C103,145.1,102.8,145.3,102.5,145.3z"/>
		<path class="st2" d="M100.2,141.2c-0.2,0-0.3-0.1-0.4-0.3c-0.1-0.2,0-0.4,0.3-0.5l8.1-2.7c0.2-0.1,0.4,0,0.5,0.3
			c0.1,0.2,0,0.4-0.3,0.5l-8.1,2.7C100.3,141.2,100.2,141.2,100.2,141.2z"/>
		<path class="st2" d="M103.6,140.2c0,0.6-0.5,1.1-1.1,1.1c-0.6,0-1.1-0.5-1.1-1.1c0-0.6,0.5-1.1,1.1-1.1
			C103.1,139,103.6,139.6,103.6,140.2z"/>
		<path class="st1" d="M103,140.2c0,0.3-0.3,0.6-0.6,0.6c-0.3,0-0.6-0.3-0.6-0.6c0-0.3,0.3-0.6,0.6-0.6
			C102.8,139.6,103,139.9,103,140.2z"/>
		<path class="st13" d="M105.9,137.6l11.9-3.5c0.5-0.1,0.9,0.1,1.1,0.6c0.1,0.4-0.1,0.9-0.5,1.1l-11.7,4.2c-0.7,0.2-1.4-0.1-1.6-0.8
			C104.9,138.6,105.2,137.8,105.9,137.6C105.9,137.6,105.9,137.6,105.9,137.6z"/>
		<path class="st16" d="M118.9,135l-11.7,4.2c-0.7,0.2-1.4-0.1-1.6-0.8c-0.1-0.2-0.1-0.5,0-0.7c-0.5,0.3-0.7,0.9-0.5,1.5
			c0.2,0.7,1,1,1.6,0.8l11.7-4.2C118.7,135.6,119,135.3,118.9,135C118.9,135,118.9,135,118.9,135z"/>
		<path class="st2" d="M106.6,145.7h-8.5c-0.2,0-0.4-0.2-0.4-0.4l0,0c0-0.2,0.2-0.4,0.4-0.4h8.5c0.2,0,0.4,0.2,0.4,0.4l0,0
			C107,145.6,106.9,145.7,106.6,145.7z"/>
	</g>
	<rect x="197" y="148.9" class="st22" width="2.5" height="54.1"/>
	<rect x="100.8" y="148.9" class="st22" width="2.6" height="54.1"/>
	<path class="st23" d="M87.8,149.1h125.1c0.2,0,0.4-0.2,0.4-0.4v-2.5c0-0.2-0.2-0.4-0.4-0.4H87.8c-0.2,0-0.4,0.2-0.4,0.4v2.5
		C87.3,148.9,87.5,149.1,87.8,149.1z"/>
	<path class="st22" d="M87.8,149.1h125.1c0.2,0,0.4-0.2,0.4-0.4V148h-126v0.6C87.3,148.9,87.5,149.1,87.8,149.1z"/>
	<g>
		<path class="st2" d="M211.7,145.7H189c-0.3,0-0.5-0.2-0.5-0.5v-0.3c0-0.3,0.2-0.5,0.5-0.5h22.7c0.3,0,0.5,0.2,0.5,0.5v0.3
			C212.2,145.5,212,145.7,211.7,145.7z"/>
		<path class="st1" d="M211.7,144.5l6-8.2c0.3-0.4,0.2-0.7-0.2-0.7h-12.6c-0.4,0-0.9,0.3-1.2,0.7l-6,8.2H211.7z"/>
		<path class="st17" d="M209.2,138.3c-0.4,0-0.9,0.3-1.2,0.7c-0.3,0.4-0.2,0.7,0.2,0.7c0.4,0,0.9-0.3,1.2-0.7
			C209.7,138.6,209.6,138.3,209.2,138.3z"/>
	</g>
</g>
</svg>
