<svg id="a3c3d14b-61b3-4d26-b5b4-cc661f4cae83" data-name="Layer 1" xmlns="http://www.w3.org/2000/svg" width="64" height="64" viewBox="0 0 64 64"><path d="M57,48.75v-35a5.0147,5.0147,0,0,0-5-5H12a5.0147,5.0147,0,0,0-5,5v35H2v1.5a5.0147,5.0147,0,0,0,5,5H57a5.0147,5.0147,0,0,0,5-5v-1.5Z" fill="#fff"/><path d="M39.55,35.8a1.418,1.418,0,0,1-1.1-.5,1.4958,1.4958,0,0,1,.1-2.1l3.3-2.9-3.3-2.9a1.4866,1.4866,0,0,1,2-2.2l4.55,4.05a1.6058,1.6058,0,0,1,.5,1.1,1.5147,1.5147,0,0,1-.5,1.1L40.55,35.5A1.9705,1.9705,0,0,1,39.55,35.8Zm-15.1,0a1.3547,1.3547,0,0,1-1-.4L18.9,31.35a1.6058,1.6058,0,0,1-.5-1.1,1.5147,1.5147,0,0,1,.5-1.1l4.55-4.05a1.4866,1.4866,0,1,1,2,2.2l-3.3,2.95,3.3,2.9a1.4958,1.4958,0,0,1,.1,2.1A1.4741,1.4741,0,0,1,24.45,35.8Zm5.05,3.45a.7431.7431,0,0,1-.45-.1,1.4914,1.4914,0,0,1-.95-1.9l5-15a1.5021,1.5021,0,0,1,2.85.95l-5,15A1.5458,1.5458,0,0,1,29.5,39.25Z" fill="#71c2ff"/><path d="M37,50.25H27a1.5,1.5,0,0,1,0-3H37a1.5,1.5,0,0,1,0,3Z" fill="#444b54"/><path d="M57,56.75H7a6.487,6.487,0,0,1-6.5-6.5v-1.5A1.4732,1.4732,0,0,1,2,47.25H19.5a1.5,1.5,0,0,1,0,3H3.5A3.4785,3.4785,0,0,0,7,53.75H57a3.4785,3.4785,0,0,0,3.5-3.5h-16a1.5,1.5,0,0,1,0-3H62a1.4732,1.4732,0,0,1,1.5,1.5v1.5A6.487,6.487,0,0,1,57,56.75Z" fill="#444b54"/><path d="M57,44.75a1.4732,1.4732,0,0,1-1.5-1.5V13.75a3.4785,3.4785,0,0,0-3.5-3.5H12a3.4785,3.4785,0,0,0-3.5,3.5v29.5a1.5,1.5,0,0,1-3,0V13.75A6.487,6.487,0,0,1,12,7.25H52a6.487,6.487,0,0,1,6.5,6.5v29.5A1.4732,1.4732,0,0,1,57,44.75Z" fill="#444b54"/></svg>