<svg xmlns="http://www.w3.org/2000/svg" viewBox="0 0 128 128" width="64px" height="64px"><path fill="#f7f7fb" d="M102.1,23.1H25.9C21,23.1,17,27,17,31.9v64.3c0,4.899,4,8.8,8.9,8.8h76.2c4.9,0,8.9-3.9,8.9-8.8V31.9 C111,27,107,23.1,102.1,23.1"/><path fill="#e3e9f3" d="M102.1,23.1H25.9C21,23.1,17,27,17,31.9v9.7h94v-9.7C111,27,107,23.1,102.1,23.1"/><path fill="#e780b3" d="M56.5,57.9c3,0,5.7,1.3,7.5,3.3c1.8-2.1,4.5-3.3,7.5-3.3c5.5,0,10,4.4,10,9.8c0,3.1-1.4,5.8-3.7,7.6 l0,0L64,86.1L50.4,75.5l0,0c-2.4-1.8-3.9-4.6-3.9-7.8C46.5,62.4,51,57.9,56.5,57.9z"/><path fill="#454b54" d="M111,44.6H17c-1.7,0-3-1.3-3-3s1.3-3,3-3h94c1.7,0,3,1.3,3,3S112.7,44.6,111,44.6z"/><path fill="#454b54" d="M102.1,107.9H25.9c-6.5,0-11.9-5.3-11.9-11.8V31.9c0-6.5,5.3-11.8,11.9-11.8h76.2 c6.5,0,11.9,5.3,11.9,11.8v64.3C114,102.6,108.7,107.9,102.1,107.9z M25.9,26.1c-3.2,0-5.9,2.6-5.9,5.8v64.3c0,3.2,2.6,5.8,5.9,5.8 h76.2c3.2,0,5.9-2.6,5.9-5.8V31.9c0-3.2-2.6-5.8-5.9-5.8C102.1,26.1,25.9,26.1,25.9,26.1z"/><path fill="#454b54" d="M25.9 29.700000000000003A3 3 0 1 0 25.9 35.7 3 3 0 1 0 25.9 29.700000000000003zM34.8 29.700000000000003A3 3 0 1 0 34.8 35.7 3 3 0 1 0 34.8 29.700000000000003zM43.6 29.700000000000003A3 3 0 1 0 43.6 35.7 3 3 0 1 0 43.6 29.700000000000003zM110 44.6H17.8c-1.7 0-3-1.3-3-3s1.3-3 3-3H110c1.7 0 3 1.3 3 3S111.7 44.6 110 44.6z"/></svg>