<?xml version="1.0" encoding="utf-8"?>
<!-- Generator: Adobe Illustrator 24.1.3, SVG Export Plug-In . SVG Version: 6.00 Build 0)  -->
<svg version="1.1" id="Layer_1" xmlns="http://www.w3.org/2000/svg" xmlns:xlink="http://www.w3.org/1999/xlink" x="0px" y="0px"
	 viewBox="0 0 387.3 129.5" style="enable-background:new 0 0 387.3 129.5;" xml:space="preserve">
<style type="text/css">
	.st0{fill:#FFFFFF;}
</style>
<path class="st0" d="M0,103.6v-4c2.3-0.1,4.1-0.3,5.5-0.6c1.4-0.4,2.5-1,3.2-1.8c0.8-0.8,1.3-1.9,1.6-3.4s0.4-3.4,0.4-5.8V41.5
	c0-2.4-0.1-4.3-0.3-5.7s-0.6-2.6-1.3-3.4c-0.6-0.8-1.5-1.4-2.6-1.7c-1.1-0.3-2.6-0.5-4.4-0.7v-4h32.4c10.2,0,18,1.6,23.5,4.9
	s8.2,7.9,8.2,14c0,8-5.8,13.7-17.2,16.9v0.4c3.7,0,7,0.5,10,1.6c3,1,5.5,2.5,7.6,4.4s3.7,4.1,4.8,6.7c1.1,2.6,1.7,5.3,1.7,8.4
	c0,3.4-0.8,6.4-2.5,9c-1.6,2.6-4,4.7-7.1,6.5c-6,3.4-14.2,5-24.7,5H0V103.6z M31.5,59.7c3,0,5.6-0.3,7.9-0.9
	c2.2-0.6,4.1-1.4,5.6-2.5c3.2-2.2,4.8-5.7,4.8-10.4c0-4.9-1.2-8.5-3.6-10.6c-2.4-2.2-6.3-3.3-11.7-3.3h-7.2c-1.2,0-1.8,0.6-1.8,1.7
	v25.9L31.5,59.7L31.5,59.7z M39.5,97.4c10.8,0,16.2-4.9,16.2-14.6c0-6-2-10.4-5.9-13.1c-2-1.4-4.6-2.4-7.8-3s-7.1-0.9-11.8-0.9h-4.8
	V86c0,4.2,1.1,7.1,3.2,8.9C30.9,96.6,34.5,97.4,39.5,97.4z M147.2,45.4c0,5.6-1.6,10.3-4.8,14c-3.2,3.8-8.4,6.3-15.4,7.6l23.4,26.8
	c1.6,1.9,3.5,3.3,5.7,4.3s4.5,1.5,6.8,1.5v4H139l-25-30.7c-1.7-2-3.1-3.4-4.4-4.1c-1.2-0.7-2.4-1.1-3.5-1.1v19.8
	c0,2.5,0.2,4.5,0.5,6.1s1,2.8,2,3.7c1,0.9,2.5,1.5,4.4,1.8s4.5,0.5,7.7,0.5v4h-40v-4c2.2,0,4-0.2,5.4-0.5s2.5-0.9,3.2-1.7
	c0.8-0.8,1.3-2,1.6-3.5c0.3-1.5,0.4-3.4,0.4-5.8V41.5c0-2.4-0.1-4.3-0.3-5.7c-0.2-1.4-0.6-2.6-1.3-3.4c-0.7-0.8-1.6-1.4-2.9-1.7
	c-1.2-0.3-2.9-0.5-5-0.7v-4h34.9c9.8,0,17.3,1.7,22.6,5.1C144.5,34.5,147.2,39.3,147.2,45.4z M106,61.7h6.6c6.3,0,11-1.2,14.2-3.7
	c3.1-2.5,4.7-6.5,4.7-12.2c0-4.3-1.3-7.8-3.9-10.4s-6.3-3.9-10.9-3.9h-8.8c-1.2,0-1.8,0.6-1.8,1.7L106,61.7L106,61.7z M209.8,80.1
	h-28.5c-3.2,7.1-4.7,12.1-4.7,14.8c0,2,0.8,3.3,2.3,3.8s3.8,0.8,6.8,0.8v4H158v-4c1.6-0.2,3-0.5,4.2-0.8s2.2-0.8,3.1-1.4
	c0.9-0.6,1.7-1.4,2.4-2.4s1.3-2.2,1.9-3.6l26.5-66.5h7.5l24.1,58.9c1.4,3.4,2.6,6.1,3.6,8.1s2,3.4,3.1,4.5c1.1,1,2.4,1.8,3.8,2.2
	c1.4,0.4,3.3,0.7,5.6,0.9v4.1h-38.1v-4.1c3.2-0.1,5.5-0.5,7-1c1.4-0.5,2.1-1.6,2.1-3.2c0-0.9-0.2-2.2-0.7-3.6
	c-0.5-1.5-1.1-3.3-1.9-5.4L209.8,80.1z M183.6,74h24L196,43.5h-0.4L183.6,74z M276.7,86.2l13.1-33.6c1.3-3.3,2.3-6,3.1-8.1
	c0.8-2.1,1.4-3.8,1.8-5.1s0.7-2.4,0.8-3.2c0.1-0.8,0.2-1.6,0.2-2.3c0-1.6-0.6-2.7-1.8-3.2c-1.2-0.5-3.6-0.8-7.3-0.8v-4h28.6v4
	c-5.6,0-9.4,2.7-11.6,8.2l-26.5,66.5h-7.5l-24.1-58.9c-1.3-3.2-2.6-5.8-3.6-7.8c-1.1-2-2.2-3.6-3.4-4.8s-2.5-2-4-2.4
	c-1.4-0.4-3.1-0.7-5.1-0.7v-4.1h38.1V30c-1.8,0.1-3.2,0.2-4.4,0.3c-1.2,0.1-2.1,0.4-2.8,0.7c-0.7,0.3-1.1,0.7-1.4,1.2
	c-0.3,0.5-0.4,1.1-0.4,1.9c0,0.9,0.2,2.1,0.5,3.3c0.3,1.3,0.8,2.8,1.5,4.6L276.7,86.2z M342.7,60.6c4.3,0,7.8-0.1,10.4-0.4
	c2.6-0.3,4.7-0.8,6.1-1.7c1.4-0.8,2.5-2.1,3.1-3.7c0.6-1.6,1.1-3.8,1.4-6.6h3.7v29.6h-3.7c-0.4-2.7-0.9-4.8-1.6-6.5
	c-0.7-1.6-1.7-2.8-3.2-3.7c-1.5-0.8-3.5-1.4-6-1.6s-5.9-0.4-10.1-0.4v20.8c0,2.2,0.3,4,0.9,5.4c0.6,1.5,1.5,2.7,2.9,3.6
	c1.3,0.9,3.1,1.5,5.3,1.9c2.2,0.4,4.9,0.6,8.2,0.6c3.8,0,7.1-0.3,9.7-0.8c2.7-0.5,4.9-1.5,6.6-2.8s3.2-3.1,4.2-5.4
	c1.1-2.3,2-5.1,2.7-8.5h4l-1.6,23.1h-68.4v-4c2.2-0.1,4-0.3,5.4-0.6c1.4-0.3,2.5-0.9,3.2-1.7c0.7-0.8,1.2-1.9,1.5-3.4
	s0.4-3.4,0.4-5.8V41.5c0-2.4-0.1-4.3-0.4-5.7c-0.2-1.4-0.7-2.6-1.4-3.4c-0.7-0.8-1.6-1.4-2.9-1.7c-1.2-0.3-2.9-0.5-4.9-0.7v-4H382
	l0.7,19.8h-4.3c-0.4-2.8-1-5.2-1.9-7s-2.1-3.3-3.6-4.4c-1.5-1.1-3.5-1.9-6-2.3c-2.5-0.4-5.5-0.7-9-0.7h-11.4c-1.7,0-2.8,0.2-3.2,0.7
	c-0.4,0.4-0.6,1.5-0.6,3.1L342.7,60.6L342.7,60.6z"/>
</svg>
