<svg fill="#ffffff" xmlns="http://www.w3.org/2000/svg" viewBox="0 0 32 32" width="64px" height="64px"><path d="M 15 3 L 15 5.203125 C 13.746458 5.3226114 12.535738 5.5504288 11.439453 6.0566406 L 10.388672 4.2304688 L 8.6542969 5.2265625 L 9.7773438 7.1796875 C 8.8858169 7.8111722 8.1160288 8.5185317 7.4472656 9.3808594 L 5.5644531 8.1835938 L 4.4921875 9.8710938 L 6.328125 11.037109 C 5.6998636 12.251672 5.3388374 13.576229 5.203125 15 L 3 15 L 3 17 L 5.203125 17 C 5.3226112 18.253541 5.5504295 19.464262 6.0566406 20.560547 L 4.2304688 21.611328 L 5.2265625 23.345703 L 7.1796875 22.222656 C 7.8111715 23.114183 8.5185323 23.883971 9.3808594 24.552734 L 8.1835938 26.435547 L 9.8710938 27.507812 L 11.037109 25.671875 C 12.251672 26.300137 13.576228 26.661162 15 26.796875 L 15 29 L 17 29 L 17 26.796875 C 18.253542 26.677389 19.464262 26.449571 20.560547 25.943359 L 21.611328 27.769531 L 23.345703 26.773438 L 22.222656 24.820312 C 23.114183 24.188828 23.883971 23.481468 24.552734 22.619141 L 26.435547 23.816406 L 27.507812 22.128906 L 25.671875 20.962891 C 26.300136 19.748328 26.661163 18.423771 26.796875 17 L 29 17 L 29 15 L 26.796875 15 C 26.677389 13.746459 26.449571 12.535738 25.943359 11.439453 L 27.769531 10.388672 L 26.773438 8.6542969 L 24.820312 9.7773438 C 24.188828 8.8858165 23.481468 8.1160294 22.619141 7.4472656 L 23.816406 5.5644531 L 22.128906 4.4921875 L 20.962891 6.328125 C 19.748328 5.6998628 18.423772 5.3388376 17 5.203125 L 17 3 L 15 3 z M 15 7.2011719 L 15 10.080078 C 13.539619 10.29395 12.334648 10.961655 11.501953 11.898438 C 10.485347 13.042118 10 14.527778 10 16 C 10 16.709351 10.119124 17.419869 10.349609 18.095703 L 7.7558594 19.583984 C 7.2782475 18.48401 7 17.278664 7 16 C 7 11.372697 10.514824 7.7186361 15 7.2011719 z M 17 7.2011719 C 21.485176 7.7186361 25 11.372697 25 16 C 25 17.422455 24.605375 18.719926 24.021484 19.914062 L 21.527344 18.328125 C 21.831435 17.611301 22 16.82482 22 16 C 22 13.039616 19.82834 10.572078 17 10.091797 L 17 7.2011719 z M 16 12 C 18.220986 12 20 13.779015 20 16 C 20 18.220985 18.220986 20 16 20 C 14.583334 20 13.648107 19.504756 12.998047 18.773438 C 12.347987 18.042119 12 17.027778 12 16 C 12 14.972222 12.347987 13.957881 12.998047 13.226562 C 13.648107 12.495245 14.583334 12 16 12 z M 11.302734 19.853516 C 11.36869 19.93678 11.43081 20.021526 11.501953 20.101562 C 12.518559 21.245244 14.083334 22 16 22 C 17.761782 22 19.347401 21.227922 20.447266 20.009766 L 22.90625 21.572266 C 21.258504 23.615419 18.838262 25 16 25 C 13.020883 25 10.513604 23.468169 8.8769531 21.248047 L 11.302734 19.853516 z"/></svg>