<svg fill="#ef6c00" xmlns="http://www.w3.org/2000/svg" viewBox="0 0 50 50" width="100px" height="100px"><path d="M 32.15625 1 C 30.972656 1 30.070313 1.988281 30.03125 3.15625 C 28.445313 3.417969 27.128906 4.238281 26.15625 5.34375 C 25.25 4.730469 24.1875 4.285156 22.96875 4.125 C 22.917969 2.972656 22.015625 2 20.84375 2 L 19.15625 2 C 17.984375 2 17.082031 2.972656 17.03125 4.125 C 14.695313 4.425781 12.890625 5.710938 11.78125 7.375 C 10.605469 9.136719 10.132813 11.214844 10.0625 13.0625 C 9.90625 13.105469 9.792969 13.105469 9.53125 13.25 C 9.109375 13.480469 8.667969 13.910156 8.40625 14.53125 C 8.144531 15.152344 8 15.933594 8 17 L 8 17.78125 L 8.75 17.96875 C 8.75 17.96875 9.511719 18.128906 10.625 18.3125 C 10.695313 18.640625 10.761719 18.984375 10.84375 19.3125 C 10.382813 19.871094 10.023438 20.613281 10.15625 21.71875 C 10.304688 22.949219 10.644531 23.824219 11.125 24.4375 C 11.390625 24.773438 11.738281 24.804688 12.0625 24.96875 C 12.238281 26.015625 12.53125 27.0625 12.96875 27.9375 C 13.21875 28.441406 13.503906 28.90625 13.78125 29.28125 C 13.90625 29.449219 14.085938 29.546875 14.21875 29.6875 C 14.226563 30.921875 14.230469 31.949219 14.125 33.25 C 13.800781 34.035156 13.035156 34.667969 11.8125 35.28125 C 10.550781 35.914063 8.910156 36.5 7.25 37.21875 C 5.589844 37.9375 3.914063 38.8125 2.5625 40.1875 C 1.210938 41.5625 0.242188 43.449219 0.09375 45.9375 L 0.03125 47 L 40.0625 47 L 40 45.9375 C 39.90625 44.394531 39.492188 43.101563 38.875 42 L 49.96875 42 L 49.90625 40.9375 C 49.777344 38.8125 48.957031 37.15625 47.8125 35.9375 C 46.667969 34.71875 45.238281 33.910156 43.84375 33.25 C 42.449219 32.589844 41.078125 32.0625 40.03125 31.5 C 39.019531 30.957031 38.414063 30.429688 38.15625 29.8125 C 38.074219 28.761719 38.054688 27.90625 38.0625 26.90625 C 38.160156 26.796875 38.316406 26.71875 38.40625 26.59375 C 38.644531 26.265625 38.882813 25.867188 39.09375 25.4375 C 39.449219 24.707031 39.691406 23.84375 39.84375 22.96875 C 40.105469 22.824219 40.382813 22.800781 40.59375 22.53125 C 41.023438 21.984375 41.308594 21.242188 41.4375 20.1875 L 41.4375 20.15625 C 41.546875 19.242188 41.25 18.628906 40.875 18.125 C 41.039063 17.640625 41.234375 17.167969 41.375 16.34375 C 42.484375 16.152344 43.25 15.96875 43.25 15.96875 L 44 15.78125 L 44 15 C 44 14.015625 43.871094 13.300781 43.625 12.71875 C 43.378906 12.136719 42.964844 11.714844 42.5625 11.5 C 42.335938 11.378906 42.269531 11.382813 42.125 11.34375 C 42.046875 9.652344 41.578125 7.769531 40.53125 6.15625 C 39.546875 4.640625 37.976563 3.445313 35.96875 3.125 C 35.917969 1.972656 35.015625 1 33.84375 1 Z M 32.15625 3 L 33.84375 3 C 33.859375 3 34 3.0625 34 3.21875 L 34 3.8125 C 34 3.84375 34 3.875 34 3.90625 L 34 4 C 33.992188 4.074219 33.992188 4.144531 34 4.21875 L 34 10 C 33.996094 10.359375 34.183594 10.695313 34.496094 10.878906 C 34.808594 11.058594 35.191406 11.058594 35.503906 10.878906 C 35.816406 10.695313 36.003906 10.359375 36 10 L 36 5.28125 C 37.199219 5.574219 38.15625 6.191406 38.84375 7.25 C 39.722656 8.605469 40.1875 10.414063 40.1875 11.8125 C 40.1875 12.101563 40.296875 12.507813 40.53125 12.75 C 40.765625 12.992188 41.003906 13.078125 41.15625 13.125 C 41.457031 13.222656 41.574219 13.222656 41.625 13.25 C 41.675781 13.277344 41.6875 13.277344 41.78125 13.5 C 41.824219 13.601563 41.835938 13.972656 41.875 14.1875 C 40.886719 14.414063 38.109375 15 33 15 L 31.78125 15 C 31.734375 14.835938 31.65625 14.679688 31.59375 14.53125 C 31.332031 13.90625 30.894531 13.445313 30.46875 13.21875 C 30.203125 13.078125 30.097656 13.074219 29.9375 13.03125 C 29.859375 11.1875 29.359375 9.125 28.1875 7.375 C 28.023438 7.132813 27.847656 6.914063 27.65625 6.6875 C 28.296875 5.984375 29.09375 5.519531 30 5.28125 L 30 10 C 29.996094 10.359375 30.183594 10.695313 30.496094 10.878906 C 30.808594 11.058594 31.191406 11.058594 31.503906 10.878906 C 31.816406 10.695313 32.003906 10.359375 32 10 L 32 4.1875 C 32.027344 4.054688 32.027344 3.914063 32 3.78125 L 32 3.21875 C 32 3.0625 32.140625 3 32.15625 3 Z M 19.15625 4 L 20.84375 4 C 20.859375 4 21 4.0625 21 4.21875 L 21 4.8125 C 21 4.84375 21 4.875 21 4.90625 L 21 5 C 20.992188 5.074219 20.992188 5.144531 21 5.21875 L 21 11 C 20.996094 11.359375 21.183594 11.695313 21.496094 11.878906 C 21.808594 12.058594 22.191406 12.058594 22.503906 11.878906 C 22.816406 11.695313 23.003906 11.359375 23 11 L 23 6.25 C 24.53125 6.539063 25.726563 7.296875 26.53125 8.5 C 27.523438 9.976563 28 11.933594 28 13.5 C 28 13.796875 28.136719 14.191406 28.375 14.4375 C 28.613281 14.683594 28.839844 14.761719 29 14.8125 C 29.320313 14.917969 29.457031 14.960938 29.53125 15 C 29.605469 15.039063 29.667969 15.046875 29.78125 15.3125 C 29.839844 15.449219 29.859375 15.890625 29.90625 16.1875 C 29.660156 16.242188 29.296875 16.320313 28.78125 16.40625 C 28.699219 16.394531 28.613281 16.394531 28.53125 16.40625 C 28.433594 16.414063 28.339844 16.433594 28.25 16.46875 C 26.628906 16.714844 24.003906 17 20 17 C 16.183594 17 13.644531 16.769531 12 16.53125 C 11.769531 16.382813 11.484375 16.339844 11.21875 16.40625 C 10.703125 16.320313 10.339844 16.242188 10.09375 16.1875 C 10.136719 15.894531 10.160156 15.449219 10.21875 15.3125 C 10.332031 15.050781 10.390625 15.042969 10.46875 15 C 10.546875 14.957031 10.683594 14.921875 11 14.8125 C 11.160156 14.757813 11.390625 14.683594 11.625 14.4375 C 11.859375 14.191406 12 13.796875 12 13.5 C 12 11.933594 12.484375 9.976563 13.46875 8.5 C 14.273438 7.292969 15.453125 6.539063 17 6.25 L 17 11 C 16.996094 11.359375 17.183594 11.695313 17.496094 11.878906 C 17.808594 12.058594 18.191406 12.058594 18.503906 11.878906 C 18.816406 11.695313 19.003906 11.359375 19 11 L 19 5.1875 C 19.027344 5.054688 19.027344 4.914063 19 4.78125 L 19 4.21875 C 19 4.0625 19.140625 4 19.15625 4 Z M 39.25 16.65625 C 39.132813 17.15625 39.007813 17.5 38.84375 18 L 38.59375 18.75 L 39.28125 19.15625 C 39.191406 19.101563 39.546875 19.292969 39.46875 19.9375 C 39.371094 20.746094 39.160156 21.148438 39.03125 21.3125 C 38.902344 21.476563 38.871094 21.441406 38.90625 21.4375 L 38.0625 21.5 L 38 22.3125 C 37.925781 23.015625 37.613281 23.878906 37.28125 24.5625 C 37.113281 24.902344 36.960938 25.203125 36.8125 25.40625 C 36.722656 25.527344 36.660156 25.617188 36.625 25.65625 L 36.59375 25.65625 C 36.589844 25.660156 36.59375 25.6875 36.59375 25.6875 L 36.0625 25.9375 L 36.0625 26.53125 C 36.0625 27.746094 36.027344 28.765625 36.15625 30.1875 L 36.15625 30.3125 L 36.21875 30.4375 C 36.71875 31.777344 37.839844 32.621094 39.0625 33.28125 C 40.285156 33.941406 41.699219 34.445313 43 35.0625 C 44.300781 35.679688 45.472656 36.386719 46.34375 37.3125 C 47 38.011719 47.441406 38.914063 47.6875 40 L 37.34375 40 C 36.023438 38.730469 34.402344 37.902344 32.8125 37.21875 C 31.148438 36.5 29.515625 35.914063 28.25 35.28125 C 27.035156 34.671875 26.269531 34.054688 25.9375 33.28125 C 25.828125 31.964844 25.835938 30.933594 25.84375 29.6875 C 25.976563 29.542969 26.15625 29.449219 26.28125 29.28125 C 26.554688 28.902344 26.816406 28.4375 27.0625 27.9375 C 27.488281 27.0625 27.796875 26.011719 27.96875 24.96875 C 28.28125 24.804688 28.617188 24.765625 28.875 24.4375 C 29.355469 23.824219 29.695313 22.949219 29.84375 21.71875 C 29.976563 20.625 29.609375 19.902344 29.15625 19.34375 C 29.257813 19.03125 29.363281 18.707031 29.46875 18.3125 C 30.523438 18.136719 31.25 17.96875 31.25 17.96875 L 32 17.78125 L 32 17 L 33 17 C 35.507813 17 37.597656 16.851563 39.25 16.65625 Z M 12.71875 18.625 C 14.574219 18.835938 17.007813 19 20 19 C 23.007813 19 25.453125 18.839844 27.3125 18.625 C 27.253906 18.816406 27.195313 19.011719 27.125 19.21875 L 26.875 20 L 27.5625 20.40625 C 27.519531 20.378906 27.945313 20.667969 27.84375 21.5 C 27.726563 22.480469 27.492188 22.988281 27.3125 23.21875 C 27.132813 23.449219 27.039063 23.4375 27.03125 23.4375 L 26.1875 23.5 L 26.09375 24.3125 C 26 25.175781 25.652344 26.234375 25.25 27.0625 C 25.046875 27.476563 24.839844 27.839844 24.65625 28.09375 C 24.472656 28.347656 24.28125 28.488281 24.375 28.4375 L 23.84375 28.71875 L 23.84375 29.3125 C 23.84375 30.761719 23.785156 31.949219 23.9375 33.625 L 23.9375 33.75 L 24 33.875 C 24.570313 35.410156 25.890625 36.367188 27.34375 37.09375 C 28.796875 37.820313 30.464844 38.355469 32.03125 39.03125 C 33.597656 39.707031 35.03125 40.515625 36.09375 41.59375 C 36.9375 42.449219 37.46875 43.582031 37.75 45 L 2.34375 45 C 2.625 43.582031 3.128906 42.449219 3.96875 41.59375 C 5.027344 40.515625 6.503906 39.707031 8.0625 39.03125 C 9.621094 38.355469 11.269531 37.820313 12.71875 37.09375 C 14.167969 36.367188 15.492188 35.410156 16.0625 33.875 L 16.125 33.625 C 16.277344 31.949219 16.21875 30.761719 16.21875 29.3125 L 16.21875 28.71875 L 15.6875 28.4375 C 15.777344 28.484375 15.5625 28.347656 15.375 28.09375 C 15.1875 27.839844 14.957031 27.476563 14.75 27.0625 C 14.335938 26.234375 13.996094 25.167969 13.90625 24.3125 L 13.8125 23.5 L 12.96875 23.4375 C 12.960938 23.4375 12.867188 23.449219 12.6875 23.21875 C 12.507813 22.988281 12.273438 22.480469 12.15625 21.5 C 12.058594 20.667969 12.480469 20.378906 12.4375 20.40625 L 13.09375 20 L 12.90625 19.28125 C 12.835938 19.011719 12.773438 18.828125 12.71875 18.625 Z"/></svg>