<?xml version="1.0"?><svg fill="#ffffff" xmlns="http://www.w3.org/2000/svg" viewBox="0 0 128 128" width="64px" height="64px">    <path d="M 55.199219 6 C 50.299219 6 45.900781 8.4996094 43.300781 12.599609 C 42.400781 13.999609 42.800781 15.899219 44.300781 16.699219 C 45.700781 17.599219 47.600391 17.199219 48.400391 15.699219 C 49.900391 13.299219 52.399219 11.900391 55.199219 11.900391 L 72.800781 11.900391 C 77.200781 11.900391 80.800781 15.500391 80.800781 19.900391 L 80.800781 22.900391 L 19 22.900391 C 11.8 22.900391 6 28.700391 6 35.900391 L 6 55.599609 C 6 56.699609 6.6 57.599219 7.5 58.199219 C 22.9 67.399219 39.999219 72.599219 57.199219 73.699219 L 57.199219 79.300781 C 57.199219 83.700781 60.799219 87.300781 65.199219 87.300781 C 69.599219 87.300781 73.199219 83.700781 73.199219 79.300781 L 73.199219 73.5 C 89.699219 72.1 105.89961 66.999219 120.59961 58.199219 C 121.49961 57.699219 122.09961 56.699609 122.09961 55.599609 L 122.09961 36 C 121.99961 28.8 116.2 23 109 23 L 86.800781 23 L 86.800781 20 C 86.800781 12.3 80.500781 6 72.800781 6 L 55.199219 6 z M 19 29 L 109 29 C 112.9 29 116 32.1 116 36 L 116 54 C 83.8 72.6 44.2 72.6 12 54 L 12 36 C 12 32.1 15.1 29 19 29 z M 9 67.699219 C 7.3 67.699219 6 68.999219 6 70.699219 L 6 114 C 6 121.2 11.8 127 19 127 L 109 127 C 116.2 127 122 121.2 122 114 L 122 70.699219 C 122 68.999219 120.7 67.699219 119 67.699219 C 117.3 67.699219 116 68.999219 116 70.699219 L 116 114 C 116 117.9 112.9 121 109 121 L 19 121 C 15.1 121 12 117.9 12 114 L 12 70.699219 C 12 68.999219 10.7 67.699219 9 67.699219 z"/></svg>