<svg fill="#2196f3" xmlns="http://www.w3.org/2000/svg" viewBox="0 0 50 50" width="50px" height="50px"><path d="M 24 1 L 24 19 L 26 19 L 26 1 Z M 22 4.242188 C 12.824219 5.5625 5.558594 12.824219 4.234375 22 L 6.25 22 C 7.542969 13.929688 13.925781 7.550781 22 6.261719 Z M 28 4.242188 L 28 6.261719 C 36.074219 7.550781 42.457031 13.929688 43.746094 22 L 45.765625 22 C 44.441406 12.824219 37.175781 5.5625 28 4.242188 Z M 22 14.425781 C 18.34375 15.464844 15.464844 18.347656 14.425781 22 L 16.519531 22 C 17.429688 19.453125 19.449219 17.429688 22 16.527344 Z M 28 14.425781 L 28 16.527344 C 30.550781 17.429688 32.570313 19.453125 33.480469 22 L 35.574219 22 C 34.535156 18.347656 31.65625 15.464844 28 14.425781 Z M 25.003906 22 C 23.347656 22 22 23.34375 22 25 C 22 26.65625 23.347656 28 25.003906 28 C 26.660156 28 27.949219 26.65625 27.949219 25 C 27.949219 23.34375 26.660156 22 25.003906 22 Z M 1 24 L 1 26 L 19 26 L 19 24 Z M 31 24 L 31 26 L 49 26 L 49 24 Z M 4.234375 28 C 5.558594 37.175781 12.824219 44.4375 22 45.761719 L 22 43.738281 C 13.925781 42.449219 7.542969 36.070313 6.253906 28 Z M 14.425781 28 C 15.464844 31.652344 18.34375 34.535156 22 35.574219 L 22 33.472656 C 19.449219 32.570313 17.429688 30.546875 16.519531 28 Z M 33.472656 28 C 32.570313 30.550781 30.546875 32.570313 28 33.480469 L 28 35.574219 C 31.652344 34.535156 34.535156 31.65625 35.574219 28 Z M 43.738281 28 C 42.449219 36.074219 36.070313 42.457031 28 43.746094 L 28 45.765625 C 37.175781 44.441406 44.4375 37.175781 45.761719 28 Z M 24 31 L 24 49 L 26 49 L 26 31 Z"/></svg>