<svg fill="#ffffff" xmlns="http://www.w3.org/2000/svg" viewBox="0 0 128 128" width="64px" height="64px"><path d="M 34.199219 5.6992188 C 19.899219 5.6992187 7.6007813 15.800781 4.8007812 29.800781 C 0.40078125 52.300781 0.40078125 75.099609 4.8007812 97.599609 C 7.6007812 111.59961 19.899609 121.69922 34.099609 121.69922 C 35.799609 121.69922 37.099609 120.39922 37.099609 118.69922 C 37.099609 116.99922 35.799609 115.69922 34.099609 115.69922 C 22.699609 115.69922 12.899219 107.60039 10.699219 96.400391 C 6.3992188 74.700391 6.3992188 52.600391 10.699219 30.900391 C 12.899219 19.700391 22.799609 11.599609 34.099609 11.599609 C 35.099609 11.599609 35.700391 12.100391 35.900391 12.400391 C 36.200391 12.700391 36.6 13.400781 36.5 14.300781 L 34.099609 32.199219 C 33.599609 35.599219 30.699219 38.199219 27.199219 38.199219 C 22.799219 38.199219 19.400391 37.099609 19.400391 37.099609 C 18.500391 36.799609 17.499219 37 16.699219 37.5 C 15.899219 38.1 15.5 39.000391 15.5 39.900391 L 15.5 89.099609 C 15.5 90.299609 16.199219 91.300781 17.199219 91.800781 C 18.199219 92.300781 19.500391 92.100391 20.400391 91.400391 C 20.400391 91.400391 23.599219 88.800781 27.199219 88.800781 C 30.699219 88.800781 33.599609 91.400781 34.099609 94.800781 L 35.400391 104.19922 C 35.600391 105.69922 36.900391 106.80078 38.400391 106.80078 L 38.800781 106.80078 C 40.400781 106.60078 41.600391 105.10039 41.400391 103.40039 L 40.099609 94 C 39.299609 87.8 33.800391 83 27.400391 83 C 25.300391 83 23.299219 83.499609 21.699219 84.099609 L 21.699219 43.900391 C 23.299219 44.200391 25.300391 44.400391 27.400391 44.400391 C 33.800391 44.400391 39.299219 39.599219 40.199219 33.199219 L 42.599609 15.300781 C 42.899609 12.900781 42.199609 10.499609 40.599609 8.5996094 C 38.999609 6.6996094 36.699219 5.6992187 34.199219 5.6992188 z M 89 15 C 68 15 51 32 51 53 L 51 88 C 51 89.7 52.3 91 54 91 L 89 91 C 110 91 127 74 127 53 C 127 32 110 15 89 15 z M 89 21 C 106.6 21 121 35.4 121 53 C 121 70.6 106.6 85 89 85 L 57 85 L 57 53 C 57 35.4 71.4 21 89 21 z M 74 47 C 72.3 47 71 48.3 71 50 C 71 51.7 72.3 53 74 53 L 99 53 C 100.7 53 102 51.7 102 50 C 102 48.3 100.7 47 99 47 L 74 47 z M 74 62 C 72.3 62 71 63.3 71 65 C 71 66.7 72.3 68 74 68 L 99 68 C 100.7 68 102 66.7 102 65 C 102 63.3 100.7 62 99 62 L 74 62 z M 78.363281 110.69922 C 77.600781 110.69922 76.850781 110.99961 76.300781 111.59961 L 75.800781 112.09961 C 73.900781 113.99961 71.299609 115 68.599609 115 C 65.899609 114.9 63.399609 113.80078 61.599609 111.80078 C 60.999609 111.20078 60.300391 110.80078 59.400391 110.80078 C 58.600391 110.80078 57.799219 111.09922 57.199219 111.69922 C 54.499219 114.39922 50.999219 115.80078 47.199219 115.80078 C 45.499219 115.80078 44.199219 117.10078 44.199219 118.80078 C 44.199219 120.50078 45.700391 121.69922 47.400391 121.69922 C 51.800391 121.69922 56.000391 120.29922 59.400391 117.69922 C 62.000391 119.69922 65.2 120.80039 68.5 120.90039 C 72.1 121.00039 75.500391 119.90078 78.400391 117.80078 C 81.200391 120.10078 84.7 121.40039 88.5 121.40039 C 92.2 121.40039 95.600391 120.20039 98.400391 117.90039 L 101.30078 120.80078 C 102.50078 122.00078 104.4 122.00078 105.5 120.80078 C 106.7 119.60078 106.7 117.69961 105.5 116.59961 L 100.5 111.59961 C 99.3 110.39961 97.400781 110.39961 96.300781 111.59961 L 95.300781 112.59961 C 93.500781 114.39961 91.000391 115.5 88.400391 115.5 C 85.800391 115.5 83.3 114.49961 81.5 112.59961 L 80.5 111.59961 C 79.9 110.99961 79.125781 110.69922 78.363281 110.69922 z"/></svg>