<?xml version="1.0"?><svg fill="#ffffff" xmlns="http://www.w3.org/2000/svg" viewBox="0 0 30 30" width="90px" height="90px">    <path d="M 27.054688 4.0175781 L 20.580078 5.4042969 C 19.658078 5.6012969 19 6.416375 19 7.359375 L 19 18.712891 C 19 20.661891 13 19.032516 13 24.478516 C 13 25.478516 13.602797 27.998047 16.466797 27.998047 C 19.986797 27.999047 21 25.323516 21 22.353516 L 21 10.537109 L 27.080078 9.203125 C 27.617078 9.085125 28 8.6095938 28 8.0585938 L 28 4.78125 C 28 4.28325 27.540688 3.9125781 27.054688 4.0175781 z M 4 6 C 3.448 6 3 6.448 3 7 C 3 7.552 3.448 8 4 8 L 16 8 C 16.552 8 17 7.552 17 7 C 17 6.448 16.552 6 16 6 L 4 6 z M 4 11 C 3.448 11 3 11.448 3 12 C 3 12.552 3.448 13 4 13 L 16 13 C 16.552 13 17 12.552 17 12 C 17 11.448 16.552 11 16 11 L 4 11 z M 4 16 C 3.448 16 3 16.448 3 17 C 3 17.552 3.448 18 4 18 L 16 18 C 16.552 18 17 17.552 17 17 C 17 16.448 16.552 16 16 16 L 4 16 z M 4 21 C 3.448 21 3 21.448 3 22 C 3 22.552 3.448 23 4 23 L 11.134766 23 C 11.279766 22.213 11.537094 21.552 11.871094 21 L 4 21 z"/></svg>