<?xml version="1.0" encoding="utf-8"?>
<!-- Generator: Adobe Illustrator 15.1.0, SVG Export Plug-In . SVG Version: 6.00 Build 0)  -->
<!DOCTYPE svg PUBLIC "-//W3C//DTD SVG 1.1//EN" "http://www.w3.org/Graphics/SVG/1.1/DTD/svg11.dtd">
<svg version="1.1" id="Layer_1" xmlns="http://www.w3.org/2000/svg" xmlns:xlink="http://www.w3.org/1999/xlink" x="0px" y="0px"
	 width="90.078px" height="5.398px" viewBox="0 0 90.078 5.398" enable-background="new 0 0 90.078 5.398" xml:space="preserve">
<path fill="#202020" d="M90.078,3.998v1.398l-4.096-3.998l-4.09,4l-4.096-4l-4.096,4l-4.09-4l-4.098,4l-4.096-4l-4.09,4l-4.096-4
	l-4.098,4l-4.09-4l-4.095,4l-4.095-4l-4.09,4l-4.098-4l-4.096,4l-4.09-4l-4.096,4l-4.096-4l-4.089,4l-4.097-4l-4.097,4L0,5.394
	V3.994L0.006,4l4.096-4l4.096,4l4.089-4l4.097,4l4.097-4l4.09,4l4.095-4l4.097,4l4.09-4l4.096,4l4.096-4l4.089,4l4.098-4l4.096,4
	l4.09-4l4.096,4l4.098-4l4.09,4l4.096-4l4.096,4l4.09-4L90.078,3.998z"/>
</svg>
