<svg fill="#2196f3" xmlns="http://www.w3.org/2000/svg" viewBox="0 0 50 50" width="100px" height="100px"><path d="M 28 3 A 1.0001 1.0001 0 0 0 27.400391 3.1992188 L 19.435547 9.1738281 L 19.400391 9.1992188 A 1.0001 1.0001 0 0 0 19.386719 9.2109375 A 1.0001 1.0001 0 0 0 19.326172 9.2617188 A 1.0001 1.0001 0 0 0 19.320312 9.2695312 A 1.0001 1.0001 0 0 0 19.269531 9.3183594 A 1.0001 1.0001 0 0 0 19.230469 9.3632812 A 1.0001 1.0001 0 0 0 19.205078 9.3964844 A 1.0001 1.0001 0 0 0 19.181641 9.4257812 A 1.0001 1.0001 0 0 0 19.142578 9.4863281 A 1.0001 1.0001 0 0 0 19.115234 9.5351562 A 1.0001 1.0001 0 0 0 19.107422 9.5507812 A 1.0001 1.0001 0 0 0 19.068359 9.6386719 A 1.0001 1.0001 0 0 0 19.037109 9.7324219 A 1.0001 1.0001 0 0 0 19.019531 9.8046875 A 1.0001 1.0001 0 0 0 19.011719 9.8554688 A 1.0001 1.0001 0 0 0 19.005859 9.8984375 A 1.0001 1.0001 0 0 0 19.001953 9.9550781 A 1.0001 1.0001 0 0 0 19 9.9882812 A 1.0001 1.0001 0 0 0 19 10 L 19 29.847656 A 1.0001 1.0001 0 0 0 20.152344 31 L 40 31 A 1.0001 1.0001 0 0 0 40.007812 31 A 1.0001 1.0001 0 0 0 40.099609 30.994141 A 1.0001 1.0001 0 0 0 40.177734 30.984375 A 1.0001 1.0001 0 0 0 40.199219 30.980469 A 1.0001 1.0001 0 0 0 40.210938 30.978516 A 1.0001 1.0001 0 0 0 40.294922 30.955078 A 1.0001 1.0001 0 0 0 40.375 30.925781 A 1.0001 1.0001 0 0 0 40.388672 30.921875 A 1.0001 1.0001 0 0 0 40.396484 30.917969 A 1.0001 1.0001 0 0 0 40.478516 30.876953 A 1.0001 1.0001 0 0 0 40.539062 30.841797 A 1.0001 1.0001 0 0 0 40.585938 30.810547 A 1.0001 1.0001 0 0 0 40.587891 30.808594 A 1.0001 1.0001 0 0 0 40.591797 30.806641 A 1.0001 1.0001 0 0 0 40.660156 30.75 A 1.0001 1.0001 0 0 0 40.666016 30.746094 A 1.0001 1.0001 0 0 0 40.716797 30.697266 A 1.0001 1.0001 0 0 0 40.720703 30.693359 A 1.0001 1.0001 0 0 0 40.759766 30.650391 L 40.783203 30.621094 L 46.759766 23.650391 A 1.0001 1.0001 0 0 0 47 23 L 47 4 A 1.0001 1.0001 0 0 0 47 3.984375 A 1.0001 1.0001 0 0 0 46.994141 3.9003906 A 1.0001 1.0001 0 0 0 46.992188 3.8847656 A 1.0001 1.0001 0 0 0 46.990234 3.8769531 A 1.0001 1.0001 0 0 0 46.976562 3.7871094 A 1.0001 1.0001 0 0 0 46.962891 3.734375 A 1.0001 1.0001 0 0 0 46.955078 3.7050781 A 1.0001 1.0001 0 0 0 46.9375 3.65625 A 1.0001 1.0001 0 0 0 46.753906 3.34375 A 1.0001 1.0001 0 0 0 46.697266 3.2832031 A 1.0001 1.0001 0 0 0 46.685547 3.2714844 A 1.0001 1.0001 0 0 0 46.621094 3.2167969 A 1.0001 1.0001 0 0 0 46.619141 3.2167969 A 1.0001 1.0001 0 0 0 46.609375 3.2070312 A 1.0001 1.0001 0 0 0 46.541016 3.1582031 A 1.0001 1.0001 0 0 0 46.527344 3.1503906 A 1.0001 1.0001 0 0 0 46.363281 3.0683594 A 1.0001 1.0001 0 0 0 46.347656 3.0625 A 1.0001 1.0001 0 0 0 46.335938 3.0585938 A 1.0001 1.0001 0 0 0 46.154297 3.0117188 A 1.0001 1.0001 0 0 0 46.148438 3.0117188 A 1.0001 1.0001 0 0 0 46 3 L 28 3 z M 19.964844 3.484375 A 1.0001 1.0001 0 0 0 19.796875 3.5078125 C 15.425691 4.4188708 12.419313 6.6006681 10.501953 9.4550781 C 8.6320302 12.238869 7.7873116 15.61225 7.390625 19.080078 L 3.3417969 26.058594 L 3.3359375 26.066406 C 2.646307 27.307427 3.0876317 28.925449 4.3378906 29.621094 L 4.3574219 29.630859 L 7.4199219 31.162109 L 8.3984375 37.9375 L 8.4003906 37.943359 C 8.6154808 39.287826 9.3136276 40.53304 10.292969 41.470703 C 11.272309 42.408367 12.573122 43.05731 14.001953 43 L 17 43 L 17 47 A 1.0001 1.0001 0 1 0 19 47 L 19 41 L 13.941406 41 L 13.921875 41 C 13.156705 41.03069 12.347191 40.67018 11.675781 40.027344 C 11.004372 39.384507 10.51091 38.478439 10.375 37.628906 L 9.25 29.841797 L 5.3105469 27.873047 C 4.9828058 27.690692 4.897568 27.378042 5.0859375 27.039062 L 9.3066406 19.763672 L 9.3300781 19.552734 C 9.6932715 16.174456 10.511469 13.027653 12.162109 10.570312 C 13.81275 8.1129735 16.264309 6.2857857 20.203125 5.4648438 A 1.0001 1.0001 0 0 0 19.964844 3.484375 z M 28.333984 5 L 43.585938 5 L 39.585938 9 L 23 9 L 28.333984 5 z M 28 6 A 1 1 0 0 0 27 7 A 1 1 0 0 0 28 8 A 1 1 0 0 0 29 7 A 1 1 0 0 0 28 6 z M 45 6.4140625 L 45 22.630859 L 41 27.296875 L 41 10.414062 L 45 6.4140625 z M 21 11 L 39 11 L 39 29 L 22.414062 29 L 22.707031 28.707031 A 1.0001 1.0001 0 0 0 22.716797 28.697266 A 1 1 0 0 0 22.722656 28.689453 A 1.0001 1.0001 0 0 0 21.980469 26.990234 A 1.0001 1.0001 0 0 0 21.435547 27.173828 A 1.0001 1.0001 0 0 0 21.365234 27.228516 A 1 1 0 0 0 21.353516 27.236328 A 1.0001 1.0001 0 0 0 21.292969 27.292969 A 1 1 0 0 0 21.283203 27.302734 L 21 27.585938 L 21 11 z M 28 12 A 1 1 0 0 0 27 13 A 1 1 0 0 0 28 14 A 1 1 0 0 0 29 13 A 1 1 0 0 0 28 12 z M 28 15 A 1 1 0 0 0 27 16 A 1 1 0 0 0 28 17 A 1 1 0 0 0 29 16 A 1 1 0 0 0 28 15 z M 28 18 A 1 1 0 0 0 27 19 A 1 1 0 0 0 28 20 A 1 1 0 0 0 29 19 A 1 1 0 0 0 28 18 z M 28 21 A 1 1 0 0 0 27 22 A 1 1 0 0 0 28 23 A 1 1 0 0 0 29 22 A 1 1 0 0 0 28 21 z M 31 21 A 1 1 0 0 0 30 22 A 1 1 0 0 0 31 23 A 1 1 0 0 0 32 22 A 1 1 0 0 0 31 21 z M 34 21 A 1 1 0 0 0 33 22 A 1 1 0 0 0 34 23 A 1 1 0 0 0 35 22 A 1 1 0 0 0 34 21 z M 37 21 A 1 1 0 0 0 36 22 A 1 1 0 0 0 37 23 A 1 1 0 0 0 38 22 A 1 1 0 0 0 37 21 z M 43 21 A 1 1 0 0 0 42 22 A 1 1 0 0 0 43 23 A 1 1 0 0 0 44 22 A 1 1 0 0 0 43 21 z M 26 23 A 1 1 0 0 0 25 24 A 1 1 0 0 0 26 25 A 1 1 0 0 0 27 24 A 1 1 0 0 0 26 23 z M 24 25 A 1 1 0 0 0 23 26 A 1 1 0 0 0 24 27 A 1 1 0 0 0 25 26 A 1 1 0 0 0 24 25 z M 37.544922 32.988281 A 1.0001 1.0001 0 0 0 36.699219 33.558594 C 35.635856 35.722351 35 38.102996 35 40.59375 L 35 47 A 1.0001 1.0001 0 1 0 37 47 L 37 40.59375 C 37 38.442504 37.547503 36.367649 38.494141 34.441406 A 1.0001 1.0001 0 0 0 37.544922 32.988281 z"/></svg>