<svg fill="#fbc02d" xmlns="http://www.w3.org/2000/svg" viewBox="0 0 32 32" width="64px" height="64px"><path d="M 16 2 C 14.743378 2 13.85942 2.8933056 13.416016 4 L 11 4 L 10 4 L 5 4 L 5 29 L 27 29 L 27 4 L 22 4 L 21 4 L 18.583984 4 C 18.14058 2.8933056 17.256622 2 16 2 z M 16 4 C 16.56503 4 17 4.4349698 17 5 L 17 6 L 18 6 L 20 6 L 20 8 L 12 8 L 12 6 L 15 6 L 15 5 C 15 4.4349698 15.43497 4 16 4 z M 7 6 L 10 6 L 10 10 L 22 10 L 22 6 L 25 6 L 25 27 L 7 27 L 7 6 z M 10 14 L 10 16 L 12 16 L 12 14 L 10 14 z M 14 14 L 14 16 L 22 16 L 22 14 L 14 14 z M 10 18 L 10 20 L 12 20 L 12 18 L 10 18 z M 14 18 L 14 20 L 22 20 L 22 18 L 14 18 z M 10 22 L 10 24 L 12 24 L 12 22 L 10 22 z M 14 22 L 14 24 L 22 24 L 22 22 L 14 22 z"/></svg>