<svg xmlns="http://www.w3.org/2000/svg" viewBox="0 0 128 128" width="128px" height="128px"><path fill="#fff" d="M82,50c0-5.5-4.5-10-10-10H56h-1.2c-5,0-9.3,3.8-9.9,8.8L41,80h11v44h24V80h0c3.3,0,6-2.7,6-6V50z"/><path fill="#fff" d="M37 46H21c-5.5 0-10 4.5-10 10v22c0 3.7 2.6 6.8 6 7.7V118c0 3.3 2.7 6 6 6s8.7 0 12 0 6-2.7 6-6V86h6V56C47 50.5 42.5 46 37 46zM29 16A10 10 0 1 0 29 36 10 10 0 1 0 29 16zM107 46H91c-5.5 0-10 4.5-10 10v22c0 3.7 2.6 6.8 6 7.7l0 32c0 3.3 2.5 6.2 5.8 6.2 3.4.1 9 .1 12.4 0 3.3-.1 5.8-3 5.8-6.2l0-31.7h0c3.3 0 6-2.7 6-6V56C117 50.5 112.5 46 107 46zM99 16A10 10 0 1 0 99 36 10 10 0 1 0 99 16z"/><path fill="#64b5f6" d="M17 127c-1.7 0-3-1.3-3-3V87.8c-3.6-1.8-6-5.6-6-9.8V56c0-7.2 5.8-13 13-13h16c1.7 0 3 1.3 3 3s-1.3 3-3 3H21c-3.9 0-7 3.1-7 7v22c0 2.3 1.5 4.3 3.7 4.8 1.3.3 2.3 1.5 2.3 2.9V124C20 125.7 18.7 127 17 127zM29 39c-7.2 0-13-5.8-13-13s5.8-13 13-13 13 5.8 13 13S36.2 39 29 39zM29 19c-3.9 0-7 3.1-7 7s3.1 7 7 7 7-3.1 7-7S32.9 19 29 19zM87 127c-1.7 0-3-1.3-3-3V95.7c0-1.7 1.3-3 3-3s3 1.3 3 3V124C90 125.7 88.7 127 87 127zM111 126.7c-1.7 0-3-1.3-3-3V86c0-1.7 1.3-3 3-3 1.7 0 3-1.3 3-3V56c0-3.9-3.1-7-7-7H91c-1.7 0-3-1.3-3-3s1.3-3 3-3h16c7.2 0 13 5.8 13 13v24c0 3.9-2.5 7.2-6 8.5v35.3C114 125.4 112.7 126.7 111 126.7zM99 39c-7.2 0-13-5.8-13-13s5.8-13 13-13 13 5.8 13 13S106.2 39 99 39zM99 19c-3.9 0-7 3.1-7 7s3.1 7 7 7 7-3.1 7-7S102.9 19 99 19z"/><path fill="#444b54" d="M41,107c-1.7,0-3-1.3-3-3V90c0-1.7,1.3-3,3-3s3,1.3,3,3v14C44,105.7,42.7,107,41,107z"/><path fill="#fff" d="M64 10A10 10 0 1 0 64 30A10 10 0 1 0 64 10Z"/><path fill="#444b54" d="M64 33c-7.2 0-13-5.8-13-13S56.8 7 64 7s13 5.8 13 13S71.2 33 64 33zM64 13c-3.9 0-7 3.1-7 7s3.1 7 7 7 7-3.1 7-7S67.9 13 64 13zM95 121l-16 0V86.8 86v-3.5c3.5-1.2 6-4.6 6-8.5V56c0-4.5-.9-19-13-19H54.8c-6.5 0-12.1 4.9-12.9 11.4L38 79.6c-.2 1.6 1 3.1 2.6 3.3 1.6.2 3.1-1 3.3-2.6l3.9-31.2c.4-3.5 3.4-6.1 6.9-6.1H72c6.1 0 7 8.1 7 13v18c0 1.7-1.3 3-3 3-1.7 0-3 1.3-3 3v6 .8V121l-6 0V86c0-1.7-1.3-3-3-3s-3 1.3-3 3v35l-6 0V80c0-1.7-1.3-3-3-3s-3 1.3-3 3v41l-16 0c-1.7 0-3 1.3-3 3s1.3 3 3 3l62 0c1.7 0 3-1.3 3-3S96.7 121 95 121z"/></svg>