<?xml version="1.0" encoding="utf-8"?>
<!-- Generator: Adobe Illustrator 24.2.0, SVG Export Plug-In . SVG Version: 6.00 Build 0)  -->
<svg version="1.1" id="Layer_1" xmlns="http://www.w3.org/2000/svg" xmlns:xlink="http://www.w3.org/1999/xlink" x="0px" y="0px"
	 viewBox="0 0 165 110" style="enable-background:new 0 0 165 110;" xml:space="preserve">
<style type="text/css">
	.st0{opacity:0.5;}
	.st1{fill:#FFFFFF;}
</style>
<g class="st0">
	<g>
		<path class="st1" d="M50.4,59.6c0.8,0.2,1.4,0.5,1.8,1c0.4,0.5,0.6,1.1,0.6,1.8c0,0.5-0.1,0.9-0.2,1.3c-0.1,0.3-0.2,0.6-0.4,0.9
			c-0.2,0.2-0.3,0.4-0.5,0.5c-0.2,0.1-0.4,0.2-0.5,0.3c-0.2,0.1-0.3,0.1-0.4,0.1c-0.1,0-0.2,0-0.2,0c0.2,0,0.4,0,0.6,0.1
			c0.2,0,0.5,0.1,0.7,0.2c0.2,0.1,0.4,0.2,0.7,0.3c0.2,0.1,0.4,0.3,0.5,0.5c0.2,0.2,0.3,0.4,0.4,0.7c0.1,0.3,0.1,0.5,0.1,0.9
			c0,0.5-0.1,1-0.2,1.4c-0.1,0.4-0.4,0.8-0.7,1.1c-0.3,0.3-0.8,0.6-1.3,0.8c-0.5,0.2-1.2,0.3-2.1,0.3h-9v-3.4l1-0.2v-5.1l-1-0.2
			v-3.1H50.4z M48.7,63.4c0-0.3,0-0.5-0.1-0.6c-0.1-0.1-0.2-0.2-0.4-0.3c-0.2-0.1-0.3-0.1-0.5-0.1c-0.2,0-0.4,0-0.6,0h-0.7v2.2h0.7
			c0.2,0,0.4,0,0.6,0c0.2,0,0.4-0.1,0.5-0.1c0.2-0.1,0.3-0.2,0.4-0.3C48.6,63.9,48.7,63.7,48.7,63.4z M48.7,67.3
			c0-0.3,0-0.5-0.1-0.6c-0.1-0.1-0.2-0.2-0.4-0.3c-0.2-0.1-0.3-0.1-0.5-0.1c-0.2,0-0.4,0-0.6,0h-0.7v2.2h0.7c0.2,0,0.4,0,0.6,0
			c0.2,0,0.4-0.1,0.5-0.1c0.2-0.1,0.3-0.2,0.4-0.4C48.6,67.8,48.7,67.6,48.7,67.3z"/>
		<path class="st1" d="M54.8,59.6h7V63l-1,0.2V68l1,0.2v3.4h-7v-3.4l1-0.2v-4.8l-1-0.2V59.6z"/>
		<path class="st1" d="M67.9,65.4c0,0.4,0.1,0.8,0.2,1.2c0.1,0.3,0.3,0.6,0.5,0.8s0.5,0.4,0.8,0.5c0.3,0.1,0.7,0.1,1.1,0.1
			c0.5,0,1.1-0.1,1.7-0.2c0.7-0.1,1.4-0.3,2.2-0.6v3.6c-0.8,0.3-1.6,0.5-2.4,0.6c-0.8,0.1-1.6,0.2-2.3,0.2c-0.9,0-1.8-0.1-2.6-0.3
			c-0.8-0.2-1.5-0.6-2.1-1.1c-0.6-0.5-1.1-1.2-1.4-2c-0.3-0.8-0.5-1.7-0.5-2.8c0-1,0.2-2,0.5-2.7c0.3-0.8,0.8-1.4,1.4-1.9
			c0.6-0.5,1.3-0.9,2.1-1.1c0.8-0.2,1.7-0.3,2.7-0.3c0.6,0,1.2,0,1.7,0.1c0.5,0.1,0.9,0.1,1.3,0.2c0.4,0.1,0.7,0.2,1,0.3
			c0.3,0.1,0.6,0.2,0.8,0.3V64h-2.3c-0.3-0.4-0.6-0.6-0.9-0.8c-0.3-0.2-0.7-0.3-1-0.3c-0.3,0-0.6,0.1-0.8,0.2
			c-0.3,0.1-0.5,0.3-0.7,0.5c-0.2,0.2-0.4,0.5-0.5,0.8C68,64.7,67.9,65,67.9,65.4z"/>
		<path class="st1" d="M79,71.5v-3.4l1-0.2l-3.4-4.8L75.3,63v-3.4h6.6V63l-0.8,0.2l1.6,2.4l1.6-2.4L83.5,63v-3.4h6.6V63l-1.3,0.2
			l-3.4,4.8l1,0.2v3.4H79z"/>
		<path class="st1" d="M95.7,65.4c0,0.4,0.1,0.8,0.2,1.2c0.1,0.3,0.3,0.6,0.5,0.8c0.2,0.2,0.5,0.4,0.8,0.5c0.3,0.1,0.7,0.1,1.1,0.1
			c0.5,0,1.1-0.1,1.7-0.2c0.7-0.1,1.4-0.3,2.2-0.6v3.6c-0.8,0.3-1.6,0.5-2.4,0.6c-0.8,0.1-1.6,0.2-2.3,0.2c-0.9,0-1.8-0.1-2.6-0.3
			c-0.8-0.2-1.5-0.6-2.1-1.1c-0.6-0.5-1.1-1.2-1.4-2c-0.3-0.8-0.5-1.7-0.5-2.8c0-1,0.2-2,0.5-2.7c0.3-0.8,0.8-1.4,1.4-1.9
			c0.6-0.5,1.3-0.9,2.1-1.1c0.8-0.2,1.7-0.3,2.7-0.3c0.6,0,1.2,0,1.7,0.1c0.5,0.1,0.9,0.1,1.3,0.2c0.4,0.1,0.7,0.2,1,0.3
			c0.3,0.1,0.6,0.2,0.8,0.3V64h-2.3c-0.3-0.4-0.6-0.6-0.9-0.8c-0.3-0.2-0.7-0.3-1-0.3c-0.3,0-0.6,0.1-0.8,0.2
			c-0.3,0.1-0.5,0.3-0.7,0.5c-0.2,0.2-0.4,0.5-0.5,0.8C95.7,64.7,95.7,65,95.7,65.4z"/>
		<path class="st1" d="M109.7,68.6c0.2,0,0.5,0,0.7-0.1c0.2-0.1,0.4-0.1,0.6-0.2c0.2-0.1,0.4-0.2,0.5-0.3c0.2-0.1,0.3-0.2,0.4-0.4
			h1.3v4h-9.5v-3.4l1-0.2v-4.8l-1-0.2v-3.4h7V63l-1,0.2V68.6z"/>
		<path class="st1" d="M120.2,68.6c0.4,0,0.7,0,1-0.1c0.3-0.1,0.6-0.1,0.9-0.2c0.3-0.1,0.5-0.2,0.7-0.3c0.2-0.1,0.4-0.2,0.6-0.4h1.3
			v4h-10.4v-3.4l1-0.2v-4.8l-1-0.2v-3.4h10.4v4h-1.3c-0.2-0.1-0.4-0.2-0.6-0.4c-0.2-0.1-0.5-0.2-0.7-0.3s-0.6-0.2-0.9-0.2
			c-0.3-0.1-0.6-0.1-1-0.1v2.1l2.3-0.5V67l-2.3-0.5V68.6z"/>
	</g>
	<g>
		<g>
			<g>
				<g>
					<rect x="80.3" y="27.1" class="st1" width="0.5" height="25.6"/>
				</g>
				<g>
					<rect x="83.6" y="27.1" class="st1" width="0.5" height="25.6"/>
				</g>
			</g>
		</g>
		<g>
			<g>
				<g>
					<path class="st1" d="M79.7,53.6c-0.1,0-0.2-0.1-0.2-0.2l-8.8-24.1c0-0.1,0-0.3,0.1-0.3c0.1,0,0.3,0,0.3,0.1l8.8,24.1
						C80,53.5,79.9,53.6,79.7,53.6C79.8,53.6,79.7,53.6,79.7,53.6z"/>
				</g>
				<g>
					
						<rect x="78.2" y="27.4" transform="matrix(0.9397 -0.342 0.342 0.9397 -9.0397 29.243)" class="st1" width="0.5" height="25.6"/>
				</g>
			</g>
		</g>
		<g>
			<g>
				<g>
					
						<rect x="70.7" y="31.7" transform="matrix(0.766 -0.6428 0.6428 0.766 -12.0339 56.0375)" class="st1" width="0.5" height="25.6"/>
				</g>
				<g>
					
						<rect x="73.2" y="29.6" transform="matrix(0.766 -0.6428 0.6428 0.766 -10.0932 57.1576)" class="st1" width="0.5" height="25.6"/>
				</g>
			</g>
		</g>
		<g>
			<g>
				<g>
					<polygon class="st1" points="78.7,55 57,42.4 56.7,42.8 77.8,55 					"/>
				</g>
				<g>
					<rect x="69.4" y="33.4" transform="matrix(0.5 -0.866 0.866 0.5 -5.2045 83.3609)" class="st1" width="0.5" height="25.6"/>
				</g>
			</g>
		</g>
		<g>
			<g>
				<g>
					<polygon class="st1" points="72,55 54.1,51.8 54,52.3 69.3,55 					"/>
				</g>
				<g>
					
						<rect x="67" y="38.2" transform="matrix(0.1737 -0.9848 0.9848 0.1737 5.2894 108.3704)" class="st1" width="0.5" height="25.6"/>
				</g>
			</g>
			<g>
				<g>
					<polygon class="st1" points="90.8,55 85.1,53.9 85,54.4 88.1,55 					"/>
				</g>
			</g>
		</g>
		<g>
			<g>
				<g>
					<polygon class="st1" points="76.1,55 79.3,54.4 79.2,53.9 73.5,55 					"/>
				</g>
			</g>
			<g>
				<g>
					<polygon class="st1" points="95,55 110.3,52.3 110.2,51.8 92.3,55 					"/>
				</g>
				<g>
					<polygon class="st1" points="84.5,53.5 84.4,53 109.6,48.6 109.7,49 					"/>
				</g>
			</g>
		</g>
		<g>
			<g>
				<g>
					<polygon class="st1" points="86.5,55 107.6,42.8 107.3,42.4 85.6,55 					"/>
				</g>
				<g>
					
						<rect x="81.9" y="46" transform="matrix(0.8658 -0.5004 0.5004 0.8658 -10.4024 53.5922)" class="st1" width="25.6" height="0.5"/>
				</g>
			</g>
		</g>
		<g>
			<g>
				<g>
					
						<rect x="80.5" y="44.3" transform="matrix(0.6429 -0.766 0.766 0.6429 -0.7943 87.3963)" class="st1" width="25.6" height="0.5"/>
				</g>
				<g>
					
						<rect x="78" y="42.2" transform="matrix(0.6429 -0.7659 0.7659 0.6429 -8.135390e-02 84.7138)" class="st1" width="25.6" height="0.5"/>
				</g>
			</g>
		</g>
		<g>
			<g>
				<g>
					
						<rect x="76.2" y="41.1" transform="matrix(0.3412 -0.94 0.94 0.3412 19.7212 110.8889)" class="st1" width="25.6" height="0.5"/>
				</g>
				<g>
					<rect x="73.1" y="40" transform="matrix(0.3412 -0.94 0.94 0.3412 18.7431 107.2534)" class="st1" width="25.6" height="0.5"/>
				</g>
			</g>
		</g>
	</g>
	<g>
		<path class="st1" d="M112.4,53.6C111.5,37.6,98.3,25,82.1,25C66,25,52.8,37.6,51.9,53.6h-3.2v2.8h66.9v-2.8H112.4z M82.1,28.7
			c14.1,0,25.6,11,26.5,24.8h-53C56.5,39.7,68.1,28.7,82.1,28.7z"/>
		<rect x="48.7" y="73.9" class="st1" width="66.9" height="2.8"/>
	</g>
	<g>
		<path class="st1" d="M55.6,80.5c0.3,0,0.5,0,0.7,0.1c0.2,0.1,0.3,0.1,0.5,0.2c0.1,0.1,0.2,0.2,0.3,0.4c0.1,0.1,0.1,0.3,0.1,0.5
			c0,0.2,0,0.3-0.1,0.5c-0.1,0.2-0.2,0.3-0.3,0.4c-0.1,0.1-0.3,0.2-0.5,0.3c-0.2,0.1-0.4,0.1-0.6,0.1h-0.5v1.3h-0.7v-3.8H55.6z
			 M55.6,82.4c0.1,0,0.2,0,0.3,0c0.1,0,0.2-0.1,0.2-0.1c0.1-0.1,0.1-0.1,0.1-0.2c0-0.1,0-0.2,0-0.3c0-0.1,0-0.2,0-0.3
			c0-0.1-0.1-0.2-0.1-0.2c-0.1-0.1-0.1-0.1-0.2-0.1c-0.1,0-0.2,0-0.3,0h-0.5v1.4H55.6z"/>
		<path class="st1" d="M61.1,84.3h-0.6c-0.1,0-0.2,0-0.3-0.1l-0.8-1.2c0,0-0.1-0.1-0.1-0.1c0,0-0.1,0-0.2,0h-0.3v1.5h-0.7v-3.8h1.1
			c0.3,0,0.5,0,0.7,0.1c0.2,0.1,0.3,0.1,0.5,0.2c0.1,0.1,0.2,0.2,0.3,0.3c0.1,0.1,0.1,0.3,0.1,0.4c0,0.1,0,0.2-0.1,0.4
			c0,0.1-0.1,0.2-0.2,0.3c-0.1,0.1-0.2,0.2-0.3,0.2c-0.1,0.1-0.2,0.1-0.4,0.2c0,0,0.1,0.1,0.1,0.1c0,0,0.1,0.1,0.1,0.1L61.1,84.3z
			 M59.3,82.3c0.1,0,0.2,0,0.3,0c0.1,0,0.2-0.1,0.2-0.1C59.9,82,60,82,60,81.9c0-0.1,0-0.2,0-0.3c0-0.2-0.1-0.3-0.2-0.4
			c-0.1-0.1-0.3-0.2-0.6-0.2h-0.4v1.3H59.3z"/>
		<path class="st1" d="M62.7,81.1v1H64v0.5h-1.3v1.1h1.7v0.6H62v-3.8h2.4v0.6H62.7z"/>
		<path class="st1" d="M69.6,80.5v3.8H69v-2.4c0-0.1,0-0.2,0-0.3l-1.1,2.1c-0.1,0.1-0.1,0.2-0.2,0.2h-0.1c-0.1,0-0.2-0.1-0.2-0.2
			l-1.2-2.1c0,0.1,0,0.1,0,0.2c0,0.1,0,0.1,0,0.2v2.4h-0.6v-3.8h0.5c0,0,0.1,0,0.1,0c0,0,0,0,0.1,0c0,0,0,0,0,0c0,0,0,0,0,0.1
			l1.1,2.1c0,0.1,0.1,0.1,0.1,0.2c0,0.1,0,0.1,0.1,0.2c0-0.1,0-0.1,0.1-0.2c0-0.1,0.1-0.1,0.1-0.2l1.1-2.1c0,0,0,0,0-0.1
			c0,0,0,0,0.1,0c0,0,0,0,0.1,0c0,0,0,0,0.1,0H69.6z"/>
		<path class="st1" d="M71.7,84.3H71v-3.8h0.7V84.3z"/>
		<path class="st1" d="M74.6,83.7c0.1,0,0.3,0,0.4-0.1c0.1,0,0.2-0.1,0.3-0.2c0.1-0.1,0.1-0.2,0.2-0.3c0-0.1,0.1-0.2,0.1-0.4v-2.3
			h0.7v2.3c0,0.2,0,0.4-0.1,0.6c-0.1,0.2-0.2,0.4-0.3,0.5c-0.1,0.1-0.3,0.2-0.5,0.3c-0.2,0.1-0.4,0.1-0.7,0.1c-0.2,0-0.5,0-0.7-0.1
			c-0.2-0.1-0.4-0.2-0.5-0.3c-0.1-0.1-0.2-0.3-0.3-0.5C73,83.2,73,83,73,82.8v-2.3h0.7v2.3c0,0.1,0,0.3,0.1,0.4
			c0,0.1,0.1,0.2,0.2,0.3c0.1,0.1,0.2,0.1,0.3,0.2C74.3,83.7,74.4,83.7,74.6,83.7z"/>
		<path class="st1" d="M81.5,80.5v3.8h-0.6v-2.4c0-0.1,0-0.2,0-0.3l-1.1,2.1c-0.1,0.1-0.1,0.2-0.2,0.2h-0.1c-0.1,0-0.2-0.1-0.2-0.2
			L78,81.5c0,0.1,0,0.1,0,0.2c0,0.1,0,0.1,0,0.2v2.4h-0.6v-3.8H78c0,0,0.1,0,0.1,0c0,0,0,0,0.1,0c0,0,0,0,0,0c0,0,0,0,0,0.1l1.1,2.1
			c0,0.1,0.1,0.1,0.1,0.2c0,0.1,0,0.1,0.1,0.2c0-0.1,0-0.1,0.1-0.2c0-0.1,0.1-0.1,0.1-0.2l1.1-2.1c0,0,0,0,0-0.1c0,0,0,0,0.1,0
			c0,0,0,0,0.1,0c0,0,0,0,0.1,0H81.5z"/>
		<path class="st1" d="M88.5,85h-0.6c-0.1,0-0.2,0-0.2,0c-0.1,0-0.1-0.1-0.2-0.1l-0.6-0.6c-0.1,0-0.2,0-0.3,0.1c-0.1,0-0.2,0-0.3,0
			c-0.3,0-0.5,0-0.8-0.1c-0.2-0.1-0.4-0.2-0.6-0.4c-0.2-0.2-0.3-0.4-0.4-0.6c-0.1-0.2-0.1-0.5-0.1-0.8c0-0.3,0-0.5,0.1-0.8
			c0.1-0.2,0.2-0.4,0.4-0.6c0.2-0.2,0.4-0.3,0.6-0.4c0.2-0.1,0.5-0.1,0.8-0.1c0.2,0,0.4,0,0.5,0.1c0.2,0,0.3,0.1,0.5,0.2
			c0.1,0.1,0.3,0.2,0.4,0.3c0.1,0.1,0.2,0.2,0.3,0.4c0.1,0.1,0.1,0.3,0.2,0.5c0,0.2,0.1,0.3,0.1,0.5c0,0.2,0,0.3-0.1,0.5
			c0,0.2-0.1,0.3-0.2,0.4c-0.1,0.1-0.1,0.3-0.2,0.4c-0.1,0.1-0.2,0.2-0.3,0.3L88.5,85z M85.2,82.4c0,0.2,0,0.4,0.1,0.6
			c0.1,0.2,0.1,0.3,0.2,0.4c0.1,0.1,0.2,0.2,0.4,0.3c0.1,0.1,0.3,0.1,0.5,0.1c0.2,0,0.3,0,0.5-0.1c0.1-0.1,0.3-0.1,0.4-0.3
			c0.1-0.1,0.2-0.3,0.2-0.4c0.1-0.2,0.1-0.3,0.1-0.6s0-0.4-0.1-0.6c-0.1-0.2-0.1-0.3-0.2-0.4c-0.1-0.1-0.2-0.2-0.4-0.3
			c-0.1-0.1-0.3-0.1-0.5-0.1c-0.2,0-0.3,0-0.5,0.1c-0.1,0.1-0.3,0.1-0.4,0.3c-0.1,0.1-0.2,0.3-0.2,0.4C85.2,82,85.2,82.2,85.2,82.4z
			"/>
		<path class="st1" d="M90.9,83.7c0.1,0,0.3,0,0.4-0.1s0.2-0.1,0.3-0.2c0.1-0.1,0.1-0.2,0.2-0.3c0-0.1,0.1-0.2,0.1-0.4v-2.3h0.7v2.3
			c0,0.2,0,0.4-0.1,0.6s-0.2,0.4-0.3,0.5c-0.1,0.1-0.3,0.2-0.5,0.3c-0.2,0.1-0.4,0.1-0.7,0.1c-0.2,0-0.5,0-0.7-0.1
			c-0.2-0.1-0.4-0.2-0.5-0.3c-0.1-0.1-0.2-0.3-0.3-0.5c-0.1-0.2-0.1-0.4-0.1-0.6v-2.3h0.7v2.3c0,0.1,0,0.3,0.1,0.4
			c0,0.1,0.1,0.2,0.2,0.3c0.1,0.1,0.2,0.1,0.3,0.2S90.8,83.7,90.9,83.7z"/>
		<path class="st1" d="M96.9,84.3h-0.5c-0.1,0-0.1,0-0.1,0c0,0-0.1-0.1-0.1-0.1l-0.3-0.8h-1.6L94,84.1c0,0,0,0.1-0.1,0.1
			c0,0-0.1,0-0.1,0h-0.5l1.5-3.8h0.7L96.9,84.3z M95.7,82.8l-0.5-1.3c0-0.1,0-0.1-0.1-0.2c0-0.1,0-0.2-0.1-0.2c0,0.1,0,0.2-0.1,0.2
			c0,0.1,0,0.1-0.1,0.2l-0.5,1.2H95.7z"/>
		<path class="st1" d="M100,83.7v0.6h-2.2v-3.8h0.7v3.2H100z"/>
		<path class="st1" d="M101.8,84.3h-0.7v-3.8h0.7V84.3z"/>
		<path class="st1" d="M105.8,81.1h-1.1v3.2h-0.7v-3.2h-1.1v-0.6h3V81.1z"/>
		<path class="st1" d="M108.4,82.8v1.5h-0.7v-1.5l-1.4-2.3h0.6c0.1,0,0.1,0,0.1,0c0,0,0.1,0.1,0.1,0.1l0.7,1.3
			c0,0.1,0.1,0.1,0.1,0.2c0,0.1,0.1,0.1,0.1,0.2c0-0.1,0-0.1,0.1-0.2c0-0.1,0.1-0.1,0.1-0.2l0.7-1.3c0,0,0-0.1,0.1-0.1
			c0,0,0.1,0,0.1,0h0.6L108.4,82.8z"/>
	</g>
</g>
</svg>
