<?xml version="1.0"?><svg fill="#2196f3" xmlns="http://www.w3.org/2000/svg" viewBox="0 0 128 128" width="64px" height="64px">    <path d="M 32 6 C 24.8 6 19 11.8 19 19 L 19 109 C 19 116.3 24.9 122 30 122 L 96 122 C 99.5 122 102.69922 120.59922 105.19922 118.19922 C 107.69922 115.69922 109 112.5 109 109 L 109 42 C 109 40.3 107.7 39 106 39 C 104.3 39 103 40.3 103 42 L 103 109 C 103 110.9 102.3 112.6 101 114 C 99.7 115.4 97.9 116.09961 96 116.09961 L 30 116.09961 C 28.3 116.09961 25 113.09961 25 109.09961 L 25 19 C 25 15.1 28.1 12 32 12 L 83 12 L 83 19 C 83 26.2 88.8 32 96 32 L 105.59961 32 L 106 32 C 107.2 32 108.30078 31.199219 108.80078 30.199219 C 109.00078 29.799219 109.09961 29.4 109.09961 29 L 109.09961 28.599609 C 108.99961 22.599609 106.60039 16.999219 102.40039 12.699219 C 97.900391 8.3992187 92.1 6 86 6 L 32 6 z M 89 12.300781 C 92.4 12.900781 95.5 14.5 98 17 C 100.5 19.5 102.09922 22.6 102.69922 26 L 96 26 C 92.1 26 89 22.9 89 19 L 89 12.300781 z M 52 26 C 50.3 26 49 27.3 49 29 C 49 30.7 50.3 32 52 32 L 76 32 C 77.7 32 79 30.7 79 29 C 79 27.3 77.7 26 76 26 L 52 26 z M 42 56 C 40.3 56 39 57.3 39 59 C 39 60.7 40.3 62 42 62 L 86 62 C 87.7 62 89 60.7 89 59 C 89 57.3 87.7 56 86 56 L 42 56 z M 42 71 C 40.3 71 39 72.3 39 74 C 39 75.7 40.3 77 42 77 L 86 77 C 87.7 77 89 75.7 89 74 C 89 72.3 87.7 71 86 71 L 42 71 z M 42.199219 86 C 40.499219 86 39.199219 87.3 39.199219 89 C 39.199219 90.7 40.499219 92 42.199219 92 L 71.199219 92 C 72.899219 92 74.199219 90.7 74.199219 89 C 74.199219 87.3 72.899219 86 71.199219 86 L 42.199219 86 z M 86 86 A 3 3 0 0 0 83 89 A 3 3 0 0 0 86 92 A 3 3 0 0 0 89 89 A 3 3 0 0 0 86 86 z"/></svg>