<svg fill="#2196f3" xmlns="http://www.w3.org/2000/svg" viewBox="0 0 50 50" width="50px" height="50px"><path d="M 10 2 L 10 4 L 5 4 L 5 38 L 23 38 L 23 36 L 7 36 L 7 6 L 12 6 L 12 4 L 24 4 L 24 6 L 29 6 L 29 18 L 31 18 L 31 4 L 26 4 L 26 2 Z M 9 8 L 9 10 L 12 10 L 12 8 Z M 14 8 L 14 10 L 17 10 L 17 8 Z M 19 8 L 19 10 L 22 10 L 22 8 Z M 24 8 L 24 10 L 27 10 L 27 8 Z M 9 12 L 9 14 L 12 14 L 12 12 Z M 14 12 L 14 14 L 17 14 L 17 12 Z M 19 12 L 19 14 L 22 14 L 22 12 Z M 24 12 L 24 14 L 27 14 L 27 12 Z M 9 16 L 9 18 L 12 18 L 12 16 Z M 14 16 L 14 18 L 17 18 L 17 16 Z M 19 16 L 19 18 L 22 18 L 22 16 Z M 24 16 L 24 18 L 27 18 L 27 16 Z M 9 20 L 9 22 L 12 22 L 12 20 Z M 14 20 L 14 22 L 17 22 L 17 20 Z M 19 20 L 19 22 L 22 22 L 22 20 Z M 29 20 L 29 22 L 24 22 L 24 48 L 45 48 L 45 22 L 40 22 L 40 20 Z M 31 22 L 38 22 L 38 24 L 43 24 L 43 46 L 26 46 L 26 24 L 31 24 Z M 9 24 L 9 26 L 12 26 L 12 24 Z M 14 24 L 14 26 L 17 26 L 17 24 Z M 19 24 L 19 26 L 22 26 L 22 24 Z M 28 26 L 28 28 L 31 28 L 31 26 Z M 33 26 L 33 28 L 36 28 L 36 26 Z M 38 26 L 38 28 L 41 28 L 41 26 Z M 9 28 L 9 30 L 12 30 L 12 28 Z M 14 28 L 14 30 L 17 30 L 17 28 Z M 19 28 L 19 30 L 22 30 L 22 28 Z M 28 30 L 28 32 L 31 32 L 31 30 Z M 33 30 L 33 32 L 36 32 L 36 30 Z M 38 30 L 38 32 L 41 32 L 41 30 Z M 9 32 L 9 34 L 12 34 L 12 32 Z M 14 32 L 14 34 L 17 34 L 17 32 Z M 19 32 L 19 34 L 22 34 L 22 32 Z M 28 34 L 28 36 L 31 36 L 31 34 Z M 33 34 L 33 36 L 36 36 L 36 34 Z M 38 34 L 38 36 L 41 36 L 41 34 Z M 28 38 L 28 40 L 31 40 L 31 38 Z M 33 38 L 33 40 L 36 40 L 36 38 Z M 38 38 L 38 40 L 41 40 L 41 38 Z M 28 42 L 28 44 L 31 44 L 31 42 Z M 33 42 L 33 44 L 36 44 L 36 42 Z M 38 42 L 38 44 L 41 44 L 41 42 Z"/></svg>