<svg fill="#ef6c00" xmlns="http://www.w3.org/2000/svg" viewBox="0 0 32 32" width="64px" height="64px"><path d="M 9 3 L 9 7.53125 L 9.4375 7.84375 L 13 10.21875 L 13 13 L 14.875 13 L 13.03125 16.75 L 8.375 17.4375 L 6.34375 17.75 L 7.8125 19.15625 L 11.1875 22.40625 L 10.40625 27.03125 L 10.0625 29.03125 L 11.875 28.09375 L 16.03125 25.90625 L 20.21875 28.0625 L 22 29 L 21.65625 27 L 20.84375 22.375 L 24.21875 19.125 L 25.65625 17.6875 L 23.65625 17.40625 L 19 16.75 L 17.125 13 L 19 13 L 19 10.21875 L 22.5625 7.84375 L 23 7.53125 L 23 3 Z M 11 5 L 21 5 L 21 6.4375 L 16 9.78125 L 11 6.4375 Z M 16 15.25 L 17.4375 18.125 L 17.65625 18.59375 L 18.1875 18.65625 L 21.34375 19.125 L 19.0625 21.34375 L 18.6875 21.6875 L 18.78125 22.21875 L 19.34375 25.34375 L 16.5 23.875 L 16.03125 23.625 L 15.5625 23.875 L 12.71875 25.375 L 13.25 22.21875 L 13.34375 21.71875 L 12.96875 21.34375 L 10.6875 19.125 L 13.84375 18.65625 L 14.34375 18.59375 L 14.59375 18.125 Z"/></svg>