<svg fill="#ffffff" xmlns="http://www.w3.org/2000/svg" viewBox="0 0 32 32" width="64px" height="64px"><path d="M 6.8085938 6.8066406 C 1.7405424 11.875774 1.7404201 20.123233 6.8085938 25.191406 L 8.2226562 23.777344 C 3.91883 19.473517 3.9187076 12.52557 8.2226562 8.2207031 L 6.8085938 6.8066406 z M 25.191406 6.8085938 L 23.777344 8.2226562 C 28.08117 12.526483 28.081292 19.47443 23.777344 23.779297 L 25.191406 25.193359 C 30.259458 20.124226 30.25958 11.876767 25.191406 6.8085938 z M 9.6367188 9.6367188 C 6.1304948 13.142943 6.1304948 18.857057 9.6367188 22.363281 L 11.050781 20.949219 C 8.3090055 18.207443 8.3090055 13.792557 11.050781 11.050781 L 9.6367188 9.6367188 z M 22.363281 9.6367188 L 20.949219 11.050781 C 23.690995 13.792557 23.690995 18.207443 20.949219 20.949219 L 22.363281 22.363281 C 25.869505 18.857057 25.869505 13.142943 22.363281 9.6367188 z M 12.464844 12.464844 C 10.52062 14.409068 10.52062 17.590932 12.464844 19.535156 L 13.878906 18.121094 C 12.69913 16.941318 12.69913 15.058682 13.878906 13.878906 L 12.464844 12.464844 z M 19.535156 12.464844 L 18.121094 13.878906 C 19.30087 15.058682 19.30087 16.941318 18.121094 18.121094 L 19.535156 19.535156 C 21.47938 17.590932 21.47938 14.409068 19.535156 12.464844 z M 16 15 A 1 1 0 0 0 16 17 A 1 1 0 0 0 16 15 z"/></svg>