<svg fill="#ffffff" xmlns="http://www.w3.org/2000/svg" viewBox="0 0 32 32" width="64px" height="64px"><path d="M 16 4 C 12.145666 4 9 7.1456661 9 11 C 9 13.448126 10.344163 15.505949 12.257812 16.757812 C 8.5993675 18.24608 6 21.815262 6 26 L 8 26 C 8 21.569334 11.569334 18 16 18 C 18.39 18 20.533 19.059563 22 20.726562 L 22 18.019531 C 21.356336 17.534668 20.651664 17.126322 19.902344 16.804688 C 21.768189 15.544852 23 13.41147 23 11 C 23 7.1456661 19.854334 4 16 4 z M 16 6 C 18.773666 6 21 8.2263339 21 11 C 21 13.773666 18.773666 16 16 16 C 13.226334 16 11 13.773666 11 11 C 11 8.2263339 13.226334 6 16 6 z M 24 17.613281 L 24 23.050781 C 23.838398 23.017983 23.6713 23 23.5 23 C 22.119 23 21 24.119 21 25.5 C 21 26.881 22.119 28 23.5 28 C 24.881 28 26 26.881 26 25.5 L 26 20.388672 L 27.683594 20.949219 L 28.316406 19.050781 L 24 17.613281 z"/></svg>