<svg xmlns="http://www.w3.org/2000/svg" viewBox="0 0 48 48" width="96px" height="96px"><path fill="#ccd8dc" d="M42,8c0-1.657-1.343-3-3-3H9C7.343,5,6,6.343,6,8v29c0,3.314,2.686,6,6,6h24c3.314,0,6-2.686,6-6V8z"/><path fill="#87a4af" d="M13.5,7C12.672,7,12,7.672,12,8.5s0.672,1.5,1.5,1.5S15,9.328,15,8.5S14.328,7,13.5,7z M17.5,7	C16.672,7,16,7.672,16,8.5s0.672,1.5,1.5,1.5S19,9.328,19,8.5S18.328,7,17.5,7z M9.5,7C8.672,7,8,7.672,8,8.5S8.672,10,9.5,10	S11,9.328,11,8.5S10.328,7,9.5,7z"/><path fill="#abbec6" d="M38,43H10c-2.206,0-4-1.794-4-4V21h2v18c0,1.103,0.897,2,2,2h28c1.103,0,2-0.897,2-2V21h2v18 C42,41.206,40.206,43,38,43z"/><path fill="#278b1f" d="M24,17c-1.657,0-3,1.343-3,3s1.343,3,3,3s3-1.343,3-3S25.657,17,24,17z M12,17c-1.657,0-3,1.343-3,3	s1.343,3,3,3s3-1.343,3-3S13.657,17,12,17z M36,17c-1.657,0-3,1.343-3,3s1.343,3,3,3s3-1.343,3-3S37.657,17,36,17z"/><path fill="#ffa000" d="M18,17c-1.657,0-3,1.343-3,3s1.343,3,3,3s3-1.343,3-3S19.657,17,18,17z M6,17c1.7,0,3,1.3,3,3	s-1.3,3-3,3s-3-1.3-3-3L6,17z M30,17c-1.657,0-3,1.343-3,3s1.343,3,3,3s3-1.343,3-3S31.657,17,30,17z M42,17c-1.7,0-3,1.3-3,3	s1.3,3,3,3s3-1.3,3-3L42,17z"/><path fill="#ffc100" d="M15,20h6v-8h-5L15,20z M3,20h6l2-8H6L3,20z M33,20h-6v-8h5L33,20z M45,20h-6l-2-8h5L45,20z"/><path fill="#5bb333" d="M21,12h6v8h-6V12z M9,20h6l1-8h-5L9,20z M39,20h-6l-1-8h5L39,20z"/><path fill="#536dfe" d="M36.98,29.3c-0.06-0.17-0.4-0.42-0.95-0.65c-0.74-0.32-1.86-0.61-3.17-0.64	c-0.9-0.03-1.89,0.07-2.9,0.35c-0.935,0.266-2.654,0.802-4.567,1.409c-2.413-0.787-5.264-1.683-5.93-1.751	C18.26,27.897,17,28.429,17,28.429l3.725,2.836c-0.923,0.298-1.774,0.574-2.482,0.805L13.995,31L13,31.504l1.754,1.769	c-0.897,0.345-2.166,0.852-3.754,1.537c4.65,2.21,10.08,0.66,10.08,0.66s7.56-2.62,11.35-3.69C36.22,30.7,37.16,29.83,36.98,29.3z"/><path fill="#3949ab" d="M36.03,28.65l-1.56,0.53L32,30c-0.23-0.81,0.2-1.66,0.86-1.99C34.17,28.04,35.29,28.33,36.03,28.65z"/></svg>