<?xml version="1.0" encoding="utf-8"?>
<!-- Generator: Adobe Illustrator 24.2.1, SVG Export Plug-In . SVG Version: 6.00 Build 0)  -->
<svg version="1.1" id="_x3C_Layer_x3E_" xmlns="http://www.w3.org/2000/svg" xmlns:xlink="http://www.w3.org/1999/xlink" x="0px"
	 y="0px" viewBox="0 0 300 234.1" style="enable-background:new 0 0 300 234.1;" xml:space="preserve">
<style type="text/css">
	.st0{fill-rule:evenodd;clip-rule:evenodd;fill:#FFFFFF;}
	.st1{fill-rule:evenodd;clip-rule:evenodd;fill:url(#SVGID_1_);}
	.st2{fill-rule:evenodd;clip-rule:evenodd;fill:url(#SVGID_2_);}
	.st3{fill-rule:evenodd;clip-rule:evenodd;fill:url(#SVGID_3_);}
	.st4{fill-rule:evenodd;clip-rule:evenodd;fill:url(#SVGID_4_);}
	.st5{fill-rule:evenodd;clip-rule:evenodd;fill:#DBE4FF;}
	.st6{fill-rule:evenodd;clip-rule:evenodd;fill:url(#SVGID_5_);}
	.st7{fill-rule:evenodd;clip-rule:evenodd;fill:#7B93F6;}
	.st8{fill-rule:evenodd;clip-rule:evenodd;fill:#BAC8FF;}
	.st9{fill:#DBE4FF;}
	.st10{fill-rule:evenodd;clip-rule:evenodd;fill:#FF8787;}
	.st11{fill-rule:evenodd;clip-rule:evenodd;fill:#FFA8A8;}
	.st12{fill-rule:evenodd;clip-rule:evenodd;fill:#212529;}
	.st13{fill-rule:evenodd;clip-rule:evenodd;fill:#393F44;}
	.st14{fill-rule:evenodd;clip-rule:evenodd;fill:#4C6EF4;}
	.st15{fill-rule:evenodd;clip-rule:evenodd;fill:#2F5DDD;}
	.st16{fill-rule:evenodd;clip-rule:evenodd;fill:url(#SVGID_6_);}
	.st17{fill-rule:evenodd;clip-rule:evenodd;fill:#E64980;}
	.st18{fill-rule:evenodd;clip-rule:evenodd;fill:#FFD43B;}
	.st19{fill-rule:evenodd;clip-rule:evenodd;fill:#FAB005;}
	.st20{fill-rule:evenodd;clip-rule:evenodd;fill:url(#SVGID_7_);}
</style>
<rect class="st0" width="300" height="234.1"/>
<g>
	<linearGradient id="SVGID_1_" gradientUnits="userSpaceOnUse" x1="56.0239" y1="45.0127" x2="56.0257" y2="106.5229">
		<stop  offset="0" style="stop-color:#FCE5EF"/>
		<stop  offset="1" style="stop-color:#FFFFFF"/>
	</linearGradient>
	<circle class="st1" cx="56" cy="68.7" r="20"/>
	<linearGradient id="SVGID_2_" gradientUnits="userSpaceOnUse" x1="235.3502" y1="72.5904" x2="235.3502" y2="81.3922">
		<stop  offset="0" style="stop-color:#FCE5EF"/>
		<stop  offset="1" style="stop-color:#FFFFFF"/>
	</linearGradient>
	<path class="st2" d="M256.1,78.8h-41.5c0,0,3.1-0.1,5.2-1.5c2.1-1.4,3.1-3.3,5.1-3.1c2,0.2,1,2.1,1,2.1s3.4-3.3,9.9-3.2
		c6.5,0.1,3.8,3.4,3.8,3.4s2.4-1.4,4.6-0.5c2.2,0.9,0,2.1-2.3,1.8C241.8,77.8,242.2,78.4,256.1,78.8z"/>
	<linearGradient id="SVGID_3_" gradientUnits="userSpaceOnUse" x1="149.1204" y1="21.1735" x2="149.1207" y2="188.0334">
		<stop  offset="0" style="stop-color:#DBE4FF"/>
		<stop  offset="1" style="stop-color:#FFFFFF"/>
	</linearGradient>
	<polygon class="st3" points="41.7,114.2 49.2,121.6 55,121.6 55,148.1 59.8,148.1 59.8,100.9 66.9,100.9 66.9,60.3 70.1,60.3 
		80.3,70.5 84.4,70.5 84.4,133.6 94,133.6 94,123.2 126.2,123.2 126.2,66.4 131.1,66.4 131.1,63.6 135.3,63.6 135.3,48.3 
		138.4,48.3 138.4,39.3 139.6,39.3 139.6,29.7 140.9,29.7 140.9,39.3 142,39.3 142,48.2 145.1,48.2 145.1,63.6 149.1,63.6 
		149.1,66.5 153.7,66.5 153.7,144.4 158.7,144.4 158.7,154.1 165.4,154.1 165.4,87.1 169.7,87.1 176.3,80.5 179.7,80.5 179.7,133.1 
		191,133.1 191,120.1 202.8,120.1 202.8,73.6 212.9,73.6 212.9,71 217.6,71 217.6,64.6 219,64.6 219,71 221,71 221,74.1 221,148.5 
		231.9,148.5 231.9,111.3 235.2,111.3 241.9,104.6 245.7,104.6 245.7,136.1 250.1,136.1 250.1,117.4 253.5,117.4 259.6,123.5 
		259.2,170.6 38.7,170.6 38.7,114.2 	"/>
	<linearGradient id="SVGID_4_" gradientUnits="userSpaceOnUse" x1="98.4677" y1="145.8966" x2="98.4685" y2="178.0621">
		<stop  offset="0" style="stop-color:#DBE4FF"/>
		<stop  offset="1" style="stop-color:#FFFFFF"/>
	</linearGradient>
	<path class="st4" d="M90.3,167.8c-7.2-4.2-6.8-9.8-4.2-8.8c-2.6-6.9,3.5-7.9,5.7-6.8c1.6-3.3,4.5-2.5,5.7-0.3
		c3.1-3.3,9.9-1.6,9.9,3c2.9-1.1,4.4,1.2,2.9,3.3c4.4-0.6,2.1,6.3-4.2,9.5H90.3z"/>
	<polygon class="st5" points="139.3,181.2 136.2,184.2 122.9,184.2 126.2,181.2 	"/>
	<polygon class="st5" points="95.7,195.4 92.5,198.5 79.3,198.5 82.6,195.4 	"/>
	<polygon class="st5" points="96.8,199.6 86.7,199.6 83.5,202.8 93.4,202.8 	"/>
	<polygon class="st5" points="231.9,188.6 221.8,188.6 218.5,191.9 228.4,191.9 	"/>
	<polygon class="st5" points="84.5,199.6 74.4,199.6 71.1,202.8 81,202.8 	"/>
	<linearGradient id="SVGID_5_" gradientUnits="userSpaceOnUse" x1="149.9999" y1="143.963" x2="150" y2="183.6516">
		<stop  offset="0" style="stop-color:#DBE4FF"/>
		<stop  offset="1" style="stop-color:#FFFFFF"/>
	</linearGradient>
	<path class="st6" d="M36.1,171c7.5-1.6,15.5-2.9,23.8-3.9c-0.9-0.6-1.8-1.3-1.6-1.6c0.2-0.4,2.5-0.5,3.2,0.1
		c-0.7-1.4-1.8-4.7-1.4-5.1c0.4-0.3,2.6,2.4,3.2,3.4c-0.5-2.9-1.1-6.3-0.4-6.4c0.7-0.1,1.9,4.3,2.3,5.6c0.3-1.4,1.6-2.6,1.9-2.4
		c0.4,0.2,0.1,2.2-0.1,2.8c1.3-0.8,4.8-2.4,5-2c0.3,0.4-2.3,3.2-3.5,3.9c1.3-0.3,2.2-0.5,2.5-0.1c0.1,0.1-0.1,0.4-0.5,0.6
		c19.2-1.9,39.8-2.6,60.1-2.7c0-0.1,0-0.1,0-0.1c0.3-0.7,1.8-0.5,4.1-0.2c-2.1-1-6.8-5.2-6.4-5.9c0.4-0.7,6.3,1.4,8.6,2.5
		c-0.5-1-1.3-4.3-0.7-4.7c0.6-0.4,2.9,1.5,3.6,3.7c0.4-2.1,1.8-9.6,2.9-9.6c1.2,0,0.8,5.8,0.4,10.6c0.9-1.6,3.9-6.5,4.7-6
		c0.8,0.5-0.5,6.2-1.5,8.6c1.1-1,4.9-1.3,5.2-0.6c0.2,0.3-0.4,1.1-1.3,1.9c26.7,0.5,52,2,71.9,3.6c-0.2-0.2-0.3-0.4-0.2-0.5
		c0.2-0.4,2.5-0.5,3.2,0.1c-0.7-1.4-1.8-4.7-1.4-5.1c0.4-0.3,2.6,2.4,3.2,3.4c-0.5-2.9-1.1-6.3-0.4-6.4c0.7-0.1,1.9,4.3,2.3,5.6
		c0.3-1.4,1.6-2.6,1.9-2.4c0.4,0.2,0.1,2.2-0.1,2.8c1.3-0.8,4.8-2.4,5-2c0.3,0.4-2.3,3.2-3.5,3.9c1.3-0.3,2.2-0.5,2.5-0.1
		c0.1,0.2-0.8,1-1.7,1.6c1.1,0.1,2.1,0.2,3.2,0.3c-0.2-0.2-0.4-0.4-0.4-0.5c0.1-0.1,0.9,0,1.1,0.2c-0.2-0.5-0.4-1.7-0.2-1.8
		c0.2-0.1,0.8,0.9,0.9,1.3c-0.1-1-0.1-2.2,0.1-2.2c0.2,0,0.5,1.6,0.5,2c0.2-0.5,0.6-0.8,0.8-0.7c0.1,0.1,0,0.8-0.2,1
		c0.5-0.2,1.7-0.6,1.8-0.5c0.1,0.1-0.9,1-1.4,1.2c0.5,0,0.8-0.1,0.8,0.1c0,0.1-0.2,0.2-0.5,0.4c15.2,1.4,24.5,2.5,24.5,2.5H36.1z"/>
	<g>
		<g>
			<path class="st7" d="M136.9,165.3h42.4c4.9,0,7.8-4,6.5-8.9l-23.9-89.2c-1.3-4.9-6.3-8.9-11.2-8.9h-42.4c-4.9,0-7.8,4-6.5,8.9
				l23.9,89.2C127,161.4,132,165.3,136.9,165.3z"/>
			<path class="st8" d="M139.9,165.3h42.4c4.9,0,7.8-4,6.5-8.9l-23.9-89.2c-1.3-4.9-6.3-8.9-11.2-8.9h-42.4c-4.9,0-7.8,4-6.5,8.9
				l23.9,89.2C130,161.4,135,165.3,139.9,165.3z"/>
			<path class="st5" d="M111.8,60.3c-3.9,0-6.1,3.1-5.1,7l23.9,89.2c1,3.9,5,7,8.9,7h42.4c3.9,0,6.1-3.1,5.1-7L163,67.3
				c-1-3.9-5-7-8.9-7H111.8z"/>
			<path class="st0" d="M154.4,61.4h-7.9c-0.7,0-1,0.5-0.9,1.2l0.1,0.5c0.4,1.6-0.5,2.9-2.1,2.9h-18.5c-1.6,0-3.2-1.3-3.6-2.9
				l-0.1-0.5c-0.2-0.7-0.8-1.2-1.5-1.2h-7.9c-3.2,0-5.2,2.6-4.3,5.9l23.9,89.2c0.9,3.2,4.2,5.9,7.4,5.9h42.4c3.2,0,5.2-2.6,4.3-5.9
				l-23.9-89.2C161,64.1,157.7,61.4,154.4,61.4z"/>
			<path class="st7" d="M141.1,62.4h-15.1c-0.5,0-0.7,0.4-0.6,0.8c0.1,0.5,0.6,0.8,1.1,0.8h15.1c0.5,0,0.7-0.4,0.6-0.8
				C142,62.7,141.5,62.4,141.1,62.4z"/>
			<path class="st8" d="M161.9,67.3c-0.9-3.2-4.2-5.9-7.4-5.9h-7.9c-0.7,0-1,0.5-0.9,1.2l0.1,0.5c0.4,1.6-0.5,2.9-2.1,2.9h-18.5
				c-1.6,0-3.2-1.3-3.6-2.9l-0.1-0.5c-0.2-0.7-0.8-1.2-1.5-1.2h-7.9c-3.2,0-5.2,2.6-4.3,5.9l0.4,1.4h54.1L161.9,67.3z"/>
			<path class="st5" d="M151.6,65.1h-0.2l-0.1-0.3c0,0-0.1-0.1-0.1-0.1h-2.7c0,0-0.1,0-0.1,0.1l0.3,1.2c0,0,0.1,0.1,0.1,0.1h2.7
				c0,0,0.1,0,0.1-0.1l-0.1-0.3h0.2c0,0,0.1,0,0.1-0.1L151.6,65.1C151.7,65.1,151.6,65.1,151.6,65.1L151.6,65.1z M151.4,65.9
				L151.4,65.9h-0.7l-0.2-0.9h0.7c0,0,0,0,0,0L151.4,65.9C151.4,65.9,151.4,65.9,151.4,65.9z"/>
			<g>
				<path class="st5" d="M154.3,65.2h-0.4c0,0-0.1,0-0.1,0.1l0.2,0.8h0.6L154.3,65.2C154.4,65.3,154.4,65.2,154.3,65.2z"/>
				<path class="st5" d="M155,64.9h-0.4c0,0-0.1,0-0.1,0.1l0.3,1.2h0.6L155,64.9C155.1,64.9,155,64.9,155,64.9z"/>
				<path class="st5" d="M155.6,64.5h-0.4c0,0-0.1,0-0.1,0.1l0.4,1.6h0.6L155.6,64.5C155.7,64.5,155.7,64.5,155.6,64.5z"/>
				<path class="st5" d="M156.3,64.1h-0.4c0,0-0.1,0-0.1,0.1l0.5,1.9h0.6L156.3,64.1C156.4,64.2,156.3,64.1,156.3,64.1z"/>
			</g>
			<g>
				<path class="st5" d="M117.2,63.6c-0.5-0.2-1-0.4-1.5-0.4c-0.5,0-0.9,0.1-1.3,0.4c-0.1,0-0.1,0.1,0,0.2c0,0,0.1,0.1,0.1,0.1
					c0,0,0,0,0.1,0c0.3-0.2,0.7-0.3,1.1-0.3c0.4,0,0.9,0.1,1.3,0.3c0.1,0,0.2,0,0.2-0.1C117.3,63.8,117.3,63.7,117.2,63.6z"/>
				<path class="st5" d="M117,64.3c-0.3-0.2-0.7-0.3-1-0.3c-0.3,0-0.7,0.1-0.9,0.3c-0.1,0-0.1,0.1,0,0.2c0.1,0.1,0.2,0.1,0.2,0.1
					c0.2-0.1,0.5-0.2,0.8-0.2c0.3,0,0.6,0.1,0.9,0.2c0,0,0.1,0,0.1,0c0,0,0.1,0,0.1-0.1C117.1,64.4,117,64.4,117,64.3z"/>
				<path class="st5" d="M116.8,65c-0.2-0.1-0.4-0.2-0.6-0.2c-0.2,0-0.4,0.1-0.5,0.2c-0.1,0-0.1,0.1,0,0.2c0.1,0.1,0.2,0.1,0.2,0.1
					c0.1-0.1,0.2-0.1,0.4-0.1c0.2,0,0.3,0,0.5,0.1c0,0,0.1,0,0.1,0c0,0,0.1,0,0.1-0.1C116.9,65.1,116.8,65,116.8,65z"/>
				<path class="st5" d="M116.6,65.7C116.6,65.7,116.6,65.7,116.6,65.7C116.6,65.7,116.6,65.7,116.6,65.7c-0.1-0.1-0.2-0.2-0.3-0.2
					c-0.1,0-0.2,0.1-0.2,0.1c0,0,0,0,0,0c0,0,0,0,0,0c0,0,0,0,0,0c0,0,0,0.1,0,0.1c0,0.2,0.2,0.3,0.4,0.3c0,0,0,0,0,0c0,0,0,0,0,0
					c0.2,0,0.2-0.1,0.2-0.3C116.7,65.8,116.7,65.7,116.6,65.7C116.6,65.7,116.6,65.7,116.6,65.7z"/>
			</g>
			<path class="st8" d="M112.8,103.5c-0.2,0-0.4-0.2-0.4-0.4L109,90.7c-0.1-0.2,0.1-0.4,0.3-0.4h0.4c0.2,0,0.4,0.2,0.4,0.4l3.3,12.5
				c0.1,0.2-0.1,0.4-0.3,0.4H112.8L112.8,103.5z M108.8,87.3c0.2,0,0.3-0.2,0.3-0.4l-1.1-4c-0.1-0.2-0.3-0.4-0.4-0.4h-0.4
				c-0.2,0-0.3,0.2-0.3,0.4l1.1,4c0.1,0.2,0.3,0.4,0.4,0.4H108.8L108.8,87.3z M117.5,119.6c0.2,0,0.3-0.2,0.3-0.4l-3.3-12.5
				c-0.1-0.2-0.3-0.4-0.4-0.4h-0.4c-0.2,0-0.3,0.2-0.3,0.4l3.3,12.5c0.1,0.2,0.3,0.4,0.4,0.4H117.5z"/>
		</g>
		<g>
			<path class="st5" d="M163.7,146.7h-15.2c-1.7,0-3.5-1.4-4-3.2c-0.5-1.7,0.6-3.2,2.3-3.2H162c1.7,0,3.5,1.4,4,3.2
				C166.5,145.3,165.4,146.7,163.7,146.7z"/>
			<path class="st9" d="M156.2,77.7H119c-0.1,0-0.1-0.1-0.1-0.1c0-0.1,0.1-0.1,0.1-0.1h37.3c0.1,0,0.1,0.1,0.1,0.1
				C156.4,77.7,156.3,77.7,156.2,77.7z"/>
			<path class="st9" d="M171.3,134.2h-37.3c-0.1,0-0.1-0.1-0.1-0.1c0-0.1,0.1-0.1,0.1-0.1h37.3c0.1,0,0.1,0.1,0.1,0.1
				C171.5,134.1,171.4,134.2,171.3,134.2z"/>
			<g>
				<path class="st5" d="M122.8,82.1c-0.2,0-0.4,0-0.5,0.1c-0.4,0.1-0.7,0.3-0.9,0.6c-0.2,0.3-0.3,0.6-0.3,1c0,0.2,0,0.4,0.1,0.6
					c0.2,0.7,0.6,1.3,1.2,1.7c0.6,0.4,1.2,0.7,1.9,0.7c0.2,0,0.4,0,0.5-0.1c0.4-0.1,0.7-0.3,0.9-0.6c0.2-0.3,0.3-0.6,0.3-1
					c0-0.2,0-0.4-0.1-0.6c-0.2-0.7-0.6-1.3-1.2-1.7C124.2,82.4,123.5,82.1,122.8,82.1L122.8,82.1z M122.8,81.8c-1.5,0-2.4,1.2-2,2.7
					c0.4,1.5,2,2.7,3.5,2.7c1.5,0,2.4-1.2,2-2.7C125.9,83,124.3,81.8,122.8,81.8z"/>
			</g>
			<path class="st5" d="M122.5,83.5c0.2,0.4,0.5,0.8,0.9,1.1c0.1,0.1,0.2,0.1,0.3,0c0.3-0.3,0.3-0.7,0.3-1.1
				C123.9,82.7,122.2,82.7,122.5,83.5z"/>
			<path class="st5" d="M123.7,85.1c-0.9,0-1.5,0.4-1.9,1c0.7,0.6,1.6,1,2.4,1c0.9,0,1.5-0.4,1.9-1
				C125.5,85.5,124.6,85.1,123.7,85.1z"/>
			<path class="st5" d="M148.3,86.9h-19.5c-0.2,0-0.5-0.2-0.5-0.4c-0.1-0.2,0.1-0.4,0.3-0.4h19.5c0.2,0,0.5,0.2,0.5,0.4
				C148.7,86.7,148.5,86.9,148.3,86.9z"/>
			<path class="st5" d="M157.2,84.5h-28.5c-0.5,0-1-0.4-1.2-0.9c-0.1-0.5,0.2-0.9,0.7-0.9h28.5c0.5,0,1,0.4,1.2,0.9
				C158,84.1,157.7,84.5,157.2,84.5z"/>
			<path class="st5" d="M159.2,90.2h-29.5c-0.2,0-0.5-0.2-0.5-0.4c-0.1-0.2,0.1-0.4,0.3-0.4H159c0.2,0,0.5,0.2,0.5,0.4
				C159.5,90,159.4,90.2,159.2,90.2z"/>
			<path class="st5" d="M159.8,92.4h-29.5c-0.2,0-0.5-0.2-0.5-0.4c-0.1-0.2,0.1-0.4,0.3-0.4h29.5c0.2,0,0.5,0.2,0.5,0.4
				C160.1,92.2,160,92.4,159.8,92.4z"/>
			<path class="st5" d="M145.8,152.1c-0.3,0-0.6,0.3-0.5,0.6c0.1,0.3,0.4,0.6,0.8,0.6c0.3,0,0.6-0.3,0.5-0.6
				C146.5,152.4,146.2,152.1,145.8,152.1L145.8,152.1z M169.3,152.1c-0.3,0-0.6,0.3-0.5,0.6c0.1,0.3,0.4,0.6,0.8,0.6
				c0.3,0,0.6-0.3,0.5-0.6C170,152.4,169.6,152.1,169.3,152.1L169.3,152.1z M163.4,152.1c-0.3,0-0.6,0.3-0.5,0.6
				c0.1,0.3,0.4,0.6,0.8,0.6c0.3,0,0.6-0.3,0.5-0.6C164.1,152.4,163.8,152.1,163.4,152.1L163.4,152.1z M157.6,152.1
				c-0.3,0-0.6,0.3-0.5,0.6c0.1,0.3,0.4,0.6,0.8,0.6c0.3,0,0.6-0.3,0.5-0.6C158.3,152.4,157.9,152.1,157.6,152.1L157.6,152.1z
				 M151.7,152.1c-0.3,0-0.6,0.3-0.5,0.6c0.1,0.3,0.4,0.6,0.8,0.6c0.3,0,0.6-0.3,0.5-0.6C152.4,152.4,152,152.1,151.7,152.1z"/>
			<path class="st5" d="M160.4,94.7h-29.5c-0.2,0-0.5-0.2-0.5-0.4c-0.1-0.2,0.1-0.4,0.3-0.4h29.5c0.2,0,0.5,0.2,0.5,0.4
				C160.7,94.5,160.6,94.7,160.4,94.7z"/>
			<path class="st5" d="M161,96.9h-29.5c-0.2,0-0.5-0.2-0.5-0.4c-0.1-0.2,0.1-0.4,0.3-0.4h29.5c0.2,0,0.5,0.2,0.5,0.4
				C161.3,96.7,161.2,96.9,161,96.9z"/>
			<path class="st5" d="M161.6,99.1h-29.5c-0.2,0-0.5-0.2-0.5-0.4c-0.1-0.2,0.1-0.4,0.3-0.4h29.5c0.2,0,0.5,0.2,0.5,0.4
				C161.9,98.9,161.8,99.1,161.6,99.1z"/>
			<path class="st5" d="M162.2,101.3h-29.5c-0.2,0-0.5-0.2-0.5-0.4c-0.1-0.2,0.1-0.4,0.3-0.4H162c0.2,0,0.5,0.2,0.5,0.4
				C162.5,101.2,162.4,101.3,162.2,101.3z"/>
			<path class="st5" d="M162.8,103.6h-29.5c-0.2,0-0.5-0.2-0.5-0.4c-0.1-0.2,0.1-0.4,0.3-0.4h29.5c0.2,0,0.5,0.2,0.5,0.4
				C163.1,103.4,163,103.6,162.8,103.6z"/>
			<path class="st5" d="M163.4,105.8h-29.5c-0.2,0-0.5-0.2-0.5-0.4c-0.1-0.2,0.1-0.4,0.3-0.4h29.5c0.2,0,0.5,0.2,0.5,0.4
				C163.7,105.6,163.6,105.8,163.4,105.8z"/>
			<path class="st5" d="M164,108h-29.5c-0.2,0-0.5-0.2-0.5-0.4c-0.1-0.2,0.1-0.4,0.3-0.4h29.5c0.2,0,0.5,0.2,0.5,0.4
				C164.3,107.8,164.2,108,164,108z"/>
			<path class="st5" d="M164.6,110.2h-29.5c-0.2,0-0.5-0.2-0.5-0.4c-0.1-0.2,0.1-0.4,0.3-0.4h29.5c0.2,0,0.5,0.2,0.5,0.4
				C164.9,110.1,164.8,110.2,164.6,110.2z"/>
			<path class="st5" d="M165.2,112.5h-29.5c-0.2,0-0.5-0.2-0.5-0.4c-0.1-0.2,0.1-0.4,0.3-0.4h29.5c0.2,0,0.5,0.2,0.5,0.4
				C165.5,112.3,165.4,112.5,165.2,112.5z"/>
			<path class="st5" d="M165.7,114.7h-29.5c-0.2,0-0.5-0.2-0.5-0.4c-0.1-0.2,0.1-0.4,0.3-0.4h29.5c0.2,0,0.5,0.2,0.5,0.4
				C166.1,114.5,166,114.7,165.7,114.7z"/>
			<path class="st5" d="M166.3,116.9h-29.5c-0.2,0-0.5-0.2-0.5-0.4c-0.1-0.2,0.1-0.4,0.3-0.4h29.5c0.2,0,0.5,0.2,0.5,0.4
				C166.7,116.7,166.6,116.9,166.3,116.9z"/>
			<path class="st5" d="M166.9,119.1h-29.5c-0.2,0-0.5-0.2-0.5-0.4c-0.1-0.2,0.1-0.4,0.3-0.4h29.5c0.2,0,0.5,0.2,0.5,0.4
				C167.3,119,167.2,119.1,166.9,119.1z"/>
			<path class="st5" d="M167.5,121.4H138c-0.2,0-0.5-0.2-0.5-0.4c-0.1-0.2,0.1-0.4,0.3-0.4h29.5c0.2,0,0.5,0.2,0.5,0.4
				C167.9,121.2,167.8,121.4,167.5,121.4z"/>
			<path class="st5" d="M168.1,123.6h-29.5c-0.2,0-0.5-0.2-0.5-0.4c-0.1-0.2,0.1-0.4,0.3-0.4h29.5c0.2,0,0.5,0.2,0.5,0.4
				C168.5,123.4,168.4,123.6,168.1,123.6z"/>
			<path class="st5" d="M158.7,125.8h-19.5c-0.2,0-0.5-0.2-0.5-0.4c-0.1-0.2,0.1-0.4,0.3-0.4h19.5c0.2,0,0.5,0.2,0.5,0.4
				C159.1,125.6,159,125.8,158.7,125.8z"/>
		</g>
	</g>
	<ellipse class="st5" cx="170.7" cy="202.5" rx="30.6" ry="1.9"/>
	<g>
		<path class="st10" d="M178.3,103.2c-0.4,0.1-1.1-1.6-1.3-1.4c-0.1,0.7-1,0.7-0.8,1.4C177,103.2,178.3,103.2,178.3,103.2z"/>
		<path class="st11" d="M176.9,101c0,0,0.2,1.5,0,2.6c-0.2,0.8,2.7,0.8,2.7,0c0-0.5-0.3-2.8-0.3-2.8L176.9,101z"/>
		<path class="st12" d="M176.7,100.2c-1.1-1.1-1.7-7.1-0.5-7.4c0.6-0.2,2.3,1.8,2.8,3.1c0.3-0.5,0.7-1,1-1c0.3,0,1,1.6,0.9,3.2
			c0.3-0.4,0.6-0.6,0.7-0.6c0.2,0.1-0.3,4.8-5,4.8C176.3,102.3,176.7,100.2,176.7,100.2z"/>
		<path class="st11" d="M176.5,98.1c0.4,0.1,0.6,1.3,0.5,2.3c0,0,0,0.1,0,0c0.1-0.1,0.5-0.3,0.6-0.1c0.2,0.5-0.9,2.9-1.5,2.9
			C175.7,103.2,175.8,97.9,176.5,98.1z"/>
	</g>
	<path class="st13" d="M192.1,128.6c0,0,4.5,15.9-3.7,31.2c0,0,15,12.7,1.3,42.7c0,0-7-29.3-12.1-38.5c-5.1-9.1,1.9-38.8,1.9-38.8
		L192.1,128.6z"/>
	<path class="st12" d="M183.1,126.6l-3.7-0.4c-1.1,5.1-6.2,29.7-1.7,37.9c4.6,8.4,10.9,33.9,11.9,37.9l0,0
		c0.6-36.2-7.9-44.8-7.9-44.8C184.1,145.4,183.1,126.6,183.1,126.6z"/>
	<path class="st13" d="M167.1,128.6c0,0-5.6,16-5.4,35.8c0.2,19.7-5.7,38.1-5.7,38.1s26.4-19.4,16.9-42.2c0,0,11.6-15.2,13.2-31.5
		C187.8,112.6,167.1,128.6,167.1,128.6z"/>
	<path class="st11" d="M159.2,111.6c0,0-9,3.9-18-3c0,0-0.3-1.6-3.4-1.2c-3.1,0.3,0.9,0.8,0.9,0.8s-0.7,1.1,0.1,1.9
		c0.8,0.8,1.7,0,1.7,0s6.3,17,21.9,13.1L159.2,111.6z"/>
	<path class="st10" d="M161,118c-13.1,2.9-20.4-8.8-20.4-8.8s-0.8,0.5-1.5,0.3c-0.7-0.2,0-1.8,0-1.8l-2.4-0.2
		c-0.1,0.3,2.1,0.5,2.1,0.5s-0.7,1.1,0.1,1.9c0.8,0.8,1.7,0,1.7,0s6.3,17,21.9,13.1L161,118z"/>
	<path class="st11" d="M189.7,94.3c0,0,5-8,3.9-15.4l-0.6-2.8c0,0,1.3,0.3,1.5,0.9c0,0,1-0.9,1.2-0.9c0.3,0.1-1,2-1,2s9,11,4,25.5
		L189.7,94.3z"/>
	<path class="st14" d="M189.7,94.3c0,0-3.3,6.5-9.9,8.2c-6.6,1.7-20.6,9-20.6,9s-0.7,8.7,3.6,13.9c0,0,4.9-1.8,7.4-3.8l-3,7
		c0,0,12.2,7.3,25,0l-2.8-14c0,0,9.4-5.6,10.8-9.5C200.1,105.2,197.9,96.9,189.7,94.3z"/>
	<path class="st10" d="M196.8,99.2c-0.3,0.7-0.4,1.3-0.5,1.9l2.4,2.5c5-14.4-4-25.5-4-25.5s1.3-1.9,1-2l-1.4,2
		C194.4,78.1,199.7,91.5,196.8,99.2z"/>
	<path class="st12" d="M167.1,166.6c-0.6-16.1,4.9-35.9,4.9-35.9l-4.4-2.4c-0.3,0.3-0.5,0.4-0.5,0.4s-5.6,16-5.4,35.8
		c0.2,19.7-5.7,38.1-5.7,38.1S167.7,182.7,167.1,166.6z"/>
	<path class="st15" d="M174.3,118.4l-4.1,3.3l-3,7c0,0,1.9,1.1,4.9,2L174.3,118.4z"/>
	<path class="st15" d="M196.8,99.2c-3.4,6-9.8,8.5-9.8,8.5c1.7,3.3,2.2,7,2.2,7s9.4-5.6,10.8-9.5
		C200.1,105.2,199.3,102.2,196.8,99.2z"/>
	<path class="st12" d="M156,202.5h-1.2c-0.1,0-0.1-0.1-0.1-0.2c0.3-0.3,1-0.7,1.6-0.8C156.3,201.5,156.2,202.2,156,202.5z"/>
	<path class="st12" d="M189.7,202.5h-1.2c-0.1,0-0.1-0.1-0.1-0.2c0.3-0.3,0.4-0.3,1.1-0.7C189.5,201.6,189.6,202,189.7,202.5z"/>
	<linearGradient id="SVGID_6_" gradientUnits="userSpaceOnUse" x1="246.9243" y1="133.079" x2="246.934" y2="187.0651">
		<stop  offset="0" style="stop-color:#DBE4FF"/>
		<stop  offset="1" style="stop-color:#FFFFFF"/>
	</linearGradient>
	<path class="st16" d="M246.8,144.9l0,1.3h-0.3v-1.3H246.8L246.8,144.9z M246.8,143.4l0,1.3h-0.3v-1.3H246.8L246.8,143.4z
		 M247.1,143.4h0.3v1.3h-0.3L247.1,143.4L247.1,143.4z M247.3,144.9v1.3h-0.3l0-1.3H247.3L247.3,144.9z M249.7,144.1l-0.1-1.3
		c0,0,0,0,0,0h0c0-0.6-0.5-1-1.1-1c-0.6,0-1.1,0.5-1.1,1.1v0.2h-0.3l0-1.1l0.2-0.3c0,0,0-0.1,0-0.1L247,140c0-0.1,0-0.1-0.1-0.1
		c0,0-0.1,0-0.1,0.1l-0.3,1.7c0,0,0,0.1,0,0.1l0.2,0.3l0,1.1h-0.3v-0.2c0-0.6-0.5-1.1-1.1-1.1c-0.6,0-1,0.4-1.1,1h0c0,0,0,0,0,0
		l-0.1,1.3c-0.4,0.1-0.6,0.5-0.6,0.9c0,0,0,0,0,0h1.7c0,0,0,0,0,0c0-0.4-0.2-0.7-0.6-0.9l-0.1-1.3c0,0,0,0,0,0h0
		c0-0.4,0.4-0.7,0.8-0.7c0.4,0,0.8,0.4,0.8,0.8v0.2h-0.1c0,0,0,0,0,0v0.2c0,0,0,0,0,0h0.1v1.3h-0.1c0,0,0,0,0,0v0.2c0,0,0,0,0,0h0.1
		v1.3h-0.1c0,0,0,0,0,0v0.2c0,0,0,0,0,0h0.1v0.9c0,0,0,0,0,0h0.2c0,0,0,0,0,0v-0.9h0.3l-0.1,19.8h-0.3c0,0,0,0,0,0l-0.1,0.2
		c0,0,0,0,0,0c0,0,0,0,0,0h0.2l-0.2,2.1h-0.2c0,0,0,0,0,0v0.3l-0.2,0.3c0,0,0,0,0,0v0.5c0,0,0,0,0,0h2.2c0,0,0,0,0,0v-0.5
		c0,0,0,0,0,0l-0.2-0.3v-0.3c0,0,0,0,0,0h-0.2l-0.2-2.1h0.2c0,0,0,0,0,0c0,0,0,0,0,0l-0.1-0.2c0,0,0,0,0,0h-0.3l-0.1-19.8h0.3v0.9
		c0,0,0,0,0,0h0.2c0,0,0,0,0,0v-0.9h0.1c0,0,0,0,0,0v-0.2c0,0,0,0,0,0h-0.1v-1.3h0.1c0,0,0,0,0,0v-0.2c0,0,0,0,0,0h-0.1v-1.3h0.1
		c0,0,0,0,0,0v-0.2c0,0,0,0,0,0h-0.1v-0.2c0-0.4,0.4-0.8,0.8-0.8c0.4,0,0.7,0.3,0.8,0.7h0c0,0,0,0,0,0l-0.1,1.3
		c-0.4,0.1-0.6,0.5-0.6,0.9c0,0,0,0,0,0h1.7c0,0,0,0,0,0C250.3,144.6,250,144.3,249.7,144.1z"/>
	<path class="st5" d="M216,46.4c0,0.1,0,0.2-0.1,0.2l-0.1,0c-0.1,0-0.2,0-0.2-0.1l-0.1-0.3c0-0.1,0-0.2,0.1-0.2l0.1,0
		c0.1,0,0.2,0,0.2,0.1L216,46.4L216,46.4z M215.1,46.6c0,0.1,0,0.2-0.1,0.2l-0.1,0c-0.1,0-0.2,0-0.2-0.1l-0.1-0.3
		c0-0.1,0-0.2,0.1-0.2l0.1,0c0.1,0,0.2,0,0.2,0.1L215.1,46.6L215.1,46.6z M214.2,46.8c0,0.1,0,0.2-0.1,0.2l-0.1,0
		c-0.1,0-0.2,0-0.2-0.1l-0.1-0.3c0-0.1,0-0.2,0.1-0.2l0.1,0c0.1,0,0.2,0,0.2,0.1L214.2,46.8L214.2,46.8z M213.3,47
		c0,0.1,0,0.2-0.1,0.2l-0.1,0c-0.1,0-0.2,0-0.2-0.1l-0.1-0.3c0-0.1,0-0.2,0.1-0.2l0.1,0c0.1,0,0.2,0,0.2,0.1L213.3,47L213.3,47z
		 M212.4,47.2c0,0.1,0,0.2-0.1,0.2l-0.1,0c-0.1,0-0.2,0-0.2-0.1l-0.1-0.3c0-0.1,0-0.2,0.1-0.2l0.1,0c0.1,0,0.2,0,0.2,0.1L212.4,47.2
		L212.4,47.2z M211.5,47.3c0,0.1,0,0.2-0.1,0.2l-0.1,0c-0.1,0-0.2,0-0.2-0.1l-0.1-0.3c0-0.1,0-0.2,0.1-0.2l0.1,0
		c0.1,0,0.2,0,0.2,0.1L211.5,47.3L211.5,47.3z M210.6,47.5c0,0.1,0,0.2-0.1,0.2l-0.1,0c-0.1,0-0.2,0-0.2-0.1l-0.1-0.3
		c0-0.1,0-0.2,0.1-0.2l0.1,0c0.1,0,0.2,0,0.2,0.1L210.6,47.5L210.6,47.5z M209.7,47.7c0,0.1,0,0.2-0.1,0.2l-0.1,0
		c-0.1,0-0.2,0-0.2-0.1l-0.1-0.3c0-0.1,0-0.2,0.1-0.2l0.1,0c0.1,0,0.2,0,0.2,0.1L209.7,47.7L209.7,47.7z M208.8,47.9
		c0,0.1,0,0.2-0.1,0.2l-0.1,0c-0.1,0-0.2,0-0.2-0.1l-0.1-0.3c0-0.1,0-0.2,0.1-0.2l0.1,0c0.1,0,0.2,0,0.2,0.1L208.8,47.9L208.8,47.9z
		 M207.9,48.1c0,0.1,0,0.2-0.1,0.2l-0.1,0c-0.1,0-0.2,0-0.2-0.1l-0.1-0.3c0-0.1,0-0.2,0.1-0.2l0.1,0c0.1,0,0.2,0,0.2,0.1L207.9,48.1
		L207.9,48.1z M207,48.2c0,0.1,0,0.2-0.1,0.2l-0.1,0c-0.1,0-0.2,0-0.2-0.1l-0.1-0.3c0-0.1,0-0.2,0.1-0.2l0.1,0c0.1,0,0.2,0,0.2,0.1
		L207,48.2L207,48.2z M207.1,53.1c-0.1,0-0.2-0.4-0.3-0.8c-0.1-0.3-0.1-0.7-0.1-0.8c0.1,0,0.1,0,0.2,0c0.1,0.2,0.2,0.4,0.2,0.7
		C207.2,52.6,207.2,53,207.1,53.1L207.1,53.1z M198.9,49.9c0,0.1,0,0.2-0.1,0.2l-0.1,0c-0.1,0-0.2,0-0.2-0.1l-0.1-0.3
		c0-0.1,0-0.2,0.1-0.2l0.1,0c0.1,0,0.2,0,0.2,0.1L198.9,49.9L198.9,49.9z M198,50.1c0,0.1,0,0.2-0.1,0.2l-0.1,0
		c-0.1,0-0.2,0-0.2-0.1l-0.1-0.3c0-0.1,0-0.2,0.1-0.2l0.1,0c0.1,0,0.2,0,0.2,0.1L198,50.1L198,50.1z M199.4,49.5
		c0-0.1,0-0.2,0.1-0.2l0.1,0c0.1,0,0.2,0,0.2,0.1l0.1,0.3c0,0.1,0,0.2-0.1,0.2l-0.1,0c-0.1,0-0.2,0-0.2-0.1L199.4,49.5L199.4,49.5z
		 M200.3,49.3c0-0.1,0-0.2,0.1-0.2l0.1,0c0.1,0,0.2,0,0.2,0.1l0.1,0.3c0,0.1,0,0.2-0.1,0.2l-0.1,0c-0.1,0-0.2,0-0.2-0.1L200.3,49.3
		L200.3,49.3z M201.2,49.2c0-0.1,0-0.2,0.1-0.2l0.1,0c0.1,0,0.2,0,0.2,0.1l0.1,0.3c0,0.1,0,0.2-0.1,0.2l-0.1,0c-0.1,0-0.2,0-0.2-0.1
		L201.2,49.2L201.2,49.2z M202.1,49c0-0.1,0-0.2,0.1-0.2l0.1,0c0.1,0,0.2,0,0.2,0.1l0.1,0.3c0,0.1,0,0.2-0.1,0.2l-0.1,0
		c-0.1,0-0.2,0-0.2-0.1L202.1,49L202.1,49z M203,48.8c0-0.1,0-0.2,0.1-0.2l0.1,0c0.1,0,0.2,0,0.2,0.1l0.1,0.3c0,0.1,0,0.2-0.1,0.2
		l-0.1,0c-0.1,0-0.2,0-0.2-0.1L203,48.8L203,48.8z M203.9,48.6c0-0.1,0-0.2,0.1-0.2l0.1,0c0.1,0,0.2,0,0.2,0.1l0.1,0.3
		c0,0.1,0,0.2-0.1,0.2l-0.1,0c-0.1,0-0.2,0-0.2-0.1L203.9,48.6L203.9,48.6z M204.8,48.4c0-0.1,0-0.2,0.1-0.2l0.1,0
		c0.1,0,0.2,0,0.2,0.1l0.1,0.3c0,0.1,0,0.2-0.1,0.2l-0.1,0c-0.1,0-0.2,0-0.2-0.1L204.8,48.4L204.8,48.4z M205.7,48.3
		c0-0.1,0-0.2,0.1-0.2l0.1,0c0.1,0,0.2,0,0.2,0.1l0.1,0.3c0,0.1,0,0.2-0.1,0.2l-0.1,0c-0.1,0-0.2,0-0.2-0.1L205.7,48.3L205.7,48.3z
		 M197.1,50.2c0,0.1,0,0.2-0.1,0.2l-0.1,0c-0.1,0-0.2,0-0.2-0.1l-0.1-0.3c0-0.1,0-0.2,0.1-0.2l0.1,0c0.1,0,0.2,0,0.2,0.1L197.1,50.2
		L197.1,50.2z M221.9,45.4c-2-1.4-6.8-0.8-9.7-0.2c-1.8,0.4-8.9,1.8-15.5,3.1c-3.4-0.7-7.9-3.7-9.8-5.5c0,0-0.1-0.1-0.2-0.1
		l-1.3,0.3c-0.1,0-0.2,0.2-0.1,0.3l3.2,6.7l-0.7,0.1c-0.2,0-0.3,0.3-0.2,0.5c0.1,0.3,0.4,0.7,0.8,1l-1.6,1.3c-0.1,0,0,0.1,0.1,0.1
		l2.2-0.4l0,0l1-0.6c2.4,0.3,6.4,0.7,9.5,0.7c-0.4,0.1-0.7,0.3-1,0.5c-0.1,0.1-0.2,0.2-0.2,0.4l0.1,0.4l0.1,0.4
		c0,0.2,0.2,0.3,0.3,0.3c0.1,0,0.2,0,0.3,0l-1.8,1.3c-0.3,0.1-0.6,0.2-0.6,0.2c0,0.1,0.9,0,1.9-0.3c1-0.2,1.9-0.4,1.9-0.5l1.5-0.9
		c2-0.3,4-0.8,5.1-1.2c0.1,0,0.1-0.5,0-1.1c0-0.2-0.1-0.3-0.1-0.5c3.5-0.7,8.1-1.6,12.2-2.5c2.8-0.6,4.3-2.5,4.2-2.9
		C223.3,45.5,221.9,45.4,221.9,45.4z"/>
	<g>
		
			<ellipse transform="matrix(0.7071 -0.7071 0.7071 0.7071 -31.8267 80.7478)" class="st17" cx="81.6" cy="78.8" rx="10.6" ry="10.6"/>
		<path class="st17" d="M89.6,83.7l-3.1,3.1l7.4,4.6c0.1,0.1,0.3,0.1,0.4,0c0.1-0.1,0.1-0.2,0-0.4L89.6,83.7z"/>
		<path class="st0" d="M81.6,73.2c1.6,0,3,0.6,4,1.7c1,1,1.7,2.4,1.7,4c0,1.2-0.4,2.4-1.1,3.3c-1.2-1.1-2.8-1.8-4.6-1.8
			c-1.8,0-3.4,0.7-4.6,1.8c-0.7-0.9-1.1-2.1-1.1-3.3c0-1.6,0.6-3,1.7-4C78.6,73.8,80,73.2,81.6,73.2L81.6,73.2z M83.4,76.2
			c0.4-2-4-2-3.6,0c0.2,1,0.6,2.1,1.5,2.7c0.2,0.2,0.5,0.2,0.7,0C82.8,78.3,83.2,77.2,83.4,76.2L83.4,76.2z M81.6,72
			c-3.8,0-6.8,3-6.8,6.8c0,3.8,3,6.8,6.8,6.8c3.8,0,6.8-3,6.8-6.8C88.4,75,85.3,72,81.6,72z"/>
	</g>
	<g>
		<path class="st18" d="M152.9,72.6h37.7c0.9,0,1.8,0.7,2,1.6l2.3,8.5c0.2,0.9-0.3,1.6-1.2,1.6H156c-0.9,0-1.8-0.7-2-1.6l-2.3-8.5
			C151.5,73.3,152,72.6,152.9,72.6z"/>
		<g>
			<path class="st0" d="M156.2,78.1h34c0.2,0,0.3,0.1,0.4,0.3c0,0.2-0.1,0.3-0.2,0.3h-34c-0.2,0-0.3-0.1-0.4-0.3
				S156,78.1,156.2,78.1z"/>
			<path class="st0" d="M156.8,80.5h18.9c0.2,0,0.3,0.1,0.4,0.3c0,0.2-0.1,0.3-0.2,0.3H157c-0.2,0-0.3-0.1-0.4-0.3
				C156.6,80.6,156.7,80.5,156.8,80.5z"/>
			<path class="st0" d="M155.6,75.8h34c0.2,0,0.3,0.1,0.4,0.3c0,0.2-0.1,0.3-0.2,0.3h-34c-0.2,0-0.3-0.1-0.4-0.3
				C155.3,75.9,155.4,75.8,155.6,75.8z"/>
		</g>
	</g>
	<g>
		<path class="st18" d="M130.5,37.6h34.2c1.5,0,3.1,1.2,3.5,2.7l5.5,20.4c0.4,1.5-0.5,2.7-2,2.7h-34.2c-1.5,0-3.1-1.2-3.5-2.7
			l-5.5-20.4C128.1,38.8,129,37.6,130.5,37.6z"/>
		<path class="st19" d="M131.9,41.8l17,9.6c1.5,0.9,3.7,0.9,4.7,0l11.8-9.6c0.1,0,0.1-0.1,0-0.2c-0.1-0.1-0.2-0.1-0.2-0.1l-12.6,7
			c-1,0.6-3,0.6-4.2,0l-16.3-7c-0.1,0-0.2,0-0.2,0.1C131.8,41.6,131.9,41.7,131.9,41.8z"/>
	</g>
	<g>
		<path class="st18" d="M75.9,102.5h41.7c1.8,0,3.7,1.5,4.2,3.3l6.7,24.9c0.5,1.8-0.6,3.3-2.4,3.3H84.3c-1.8,0-3.7-1.5-4.2-3.3
			l-6.7-24.9C73,104,74.1,102.5,75.9,102.5z"/>
		<path class="st19" d="M77.7,107.5l20.7,11.7c1.8,1,4.5,1,5.8,0l14.4-11.7c0.1-0.1,0.1-0.2,0-0.3c-0.1-0.1-0.2-0.1-0.3-0.1
			l-15.3,8.5c-1.2,0.7-3.6,0.7-5.2,0l-19.9-8.5c-0.1,0-0.2,0-0.2,0.1C77.5,107.4,77.6,107.5,77.7,107.5z"/>
	</g>
	<linearGradient id="SVGID_7_" gradientUnits="userSpaceOnUse" x1="222.0022" y1="175.8912" x2="222.0022" y2="124.9765">
		<stop  offset="0" style="stop-color:#DBE4FF"/>
		<stop  offset="1" style="stop-color:#BAC8FF"/>
	</linearGradient>
	<path class="st20" d="M219.1,174.1c3.7-4.3,5.7-13.9,4.3-19.9c0-0.2,0-0.4,0-0.6v0c0-0.1,0-0.2,0-0.3c0.7-0.2,1.4-0.4,2.1-0.6
		c1.6,3.7,5.3,9,7.9,14.1c0.1,0.2,0.2,0.4,0.3,0.5c0.5,0.9,0.9,1.9,1.3,2.8c0.1,0.3,0.2,0.5,0.3,0.8c0.4,1.1,0.7,2.1,0.9,3
		c-0.1,0.1-0.3,0.1-0.5,0.3c-3.7-0.1-8.5-0.1-13.7-0.1C221,174.1,220,174.1,219.1,174.1L219.1,174.1z M208.3,174h6.9l0,0
		c0,0.1,0.1,0.1,0.1,0.2c-2.6,0-5,0-7,0.1L208.3,174L208.3,174z M217.1,136.2c-0.9-0.8,0.7-3.6,2.5-5.7l-0.1,1c0,0,0,0,0,0.1
		l0.2,0.2l0.1-0.4l0,0l-0.1,0.4l2.2-1.4c0,0,0.1,0.1,0.1,0.1c0.1,0,0.3,0,0.5-0.1c0,0,0,0.1,0,0.1l0,0c0,0,0,0.1,0,0.1v0
		c0,0,0,0.1,0,0.1c0,0,0,0,0,0l0,0c0,0.1,0,0.1,0,0.2c-1.6,0.7-1.6,2.3-3.5,3.5c0,0.3,0.1,0.5,0.2,0.8
		C218.3,136.2,217.7,136.7,217.1,136.2L217.1,136.2z M236.3,174.3c1.4-9.8-3-17.9-5.1-20.2c-0.2-0.7-0.3-1.3-0.5-1.9
		c0.2,0,0.4,0.1,0.5,0.2c-0.1-0.7-0.3-1.3-0.5-2l0,0c-0.1-0.2-0.1-0.4-0.2-0.6c1.5-0.8,2.7-2.1,2.7-4.5c0-0.2,0-0.3,0-0.5
		c0-0.1,0-0.1,0-0.2c0-0.1,0-0.2,0-0.4c0-0.1,0-0.1,0-0.2c0-0.1,0-0.2-0.1-0.4c0-0.1,0-0.1,0-0.2c0-0.1-0.1-0.3-0.1-0.4
		c0,0,0-0.1,0-0.1c0-0.2-0.1-0.3-0.1-0.5c0,0,0,0,0,0c-0.6-2-1.7-4-2.9-5.7c0.8,0.4,1.6,0.7,1.9,0.5c0.8-0.7-0.9-9.1-7.9-10.7
		c-0.1-0.3-1.2-2.1-2.1-1.8c-0.9,0.2-1.3,2.4-0.4,4l-0.5,0.3c0,0,0,0,0,0c-0.1,0-0.6,0.1-0.5,0.4l-0.5,0.3c0,0,0,0,0,0.1l0,0.1
		c0,0-0.1,0.1-0.1,0.1c-0.1,0-0.1,0.1-0.2,0.1c-0.1,0-0.1,0.1-0.2,0.1c-0.1,0.1-0.2,0.1-0.3,0.2c-0.1,0-0.1,0.1-0.2,0.1
		c-0.1,0-0.1,0.1-0.2,0.1c0,0-0.1,0.1-0.1,0.1c-0.1,0-0.1,0.1-0.2,0.1c0,0-0.1,0.1-0.1,0.1c-0.1,0-0.1,0.1-0.2,0.1
		c0,0-0.1,0.1-0.1,0.1c-0.1,0.1-0.2,0.2-0.3,0.3c0,0-0.1,0.1-0.1,0.1c0,0.1-0.1,0.1-0.2,0.2c0,0-0.1,0.1-0.1,0.1
		c0,0.1-0.1,0.1-0.1,0.2c0,0-0.1,0.1-0.1,0.1c-0.1,0.1-0.2,0.3-0.3,0.4l0,0c0,0.1-0.1,0.1-0.1,0.2c0,0,0,0.1-0.1,0.1
		c0,0.1-0.1,0.1-0.1,0.2c0,0,0,0.1-0.1,0.1c0,0.1-0.1,0.1-0.1,0.2c0,0,0,0,0,0c-0.1,0.1-0.2,0.3-0.3,0.4c0,0,0,0,0,0
		c0,0.1-0.1,0.1-0.1,0.2c0,0,0,0.1,0,0.1c0,0.1-0.1,0.1-0.1,0.2c0,0,0,0,0,0.1c-0.1,0.2-0.2,0.4-0.2,0.7c0,0,0,0,0,0.1
		c0,0.1,0,0.1,0,0.2c0,0,0,0,0,0.1c0,0.1,0,0.1,0,0.2v0c0,0.2,0,0.4,0,0.6c0,0,0,0,0,0.1c0,0.1,0,0.1,0,0.2c0,0,0,0,0,0.1
		c0,0.1,0,0.1,0,0.2v0v0c0.1,0.4,0.4,0.8,0.8,1.1c0.9,0.8,2.2,0.5,3.4-0.2c0.2,0.9,0.4,1.4,0.4,1.4v1.2c0,0-1.5,5.4-1.5,12.8
		c0.2,0.1,0.4,0.1,0.5,0.2c0,0.4,0.1,0.9,0.1,1.4v0c0.4,5.6,1.5,14.2-0.1,19.3c-0.1,0-0.4,0.1-0.6,0.2c-0.5,0-1,0-1.4,0
		c0.1-0.2,0.2-0.5,0.1-0.7c-0.1-0.2-0.2-0.4-0.4-0.6c0.2-0.1,0.4-0.4,0.4-0.7v-22.6c0.1-0.1,0.2-0.3,0.2-0.4c0-0.3-0.3-0.6-0.6-0.6
		c-0.3,0-0.6,0.3-0.6,0.6c0,0.2,0.1,0.3,0.2,0.4v6.5c-0.1-0.1-0.2-0.1-0.3-0.2l0,0c-0.5-0.2-0.9-0.3-1.4-0.3c-1.7,0-4.8,2.4-6.1,4.8
		c0.1,0.1,0.2,0.1,0.4,0.2l0.2,0.1c-1.7,3.6-2.7,8.5-2.9,12.3c0,0.2,0,0.3,0.1,0.5l0,0c0,0,0,0.1,0.1,0.1l0,0c0,0,0.1,0.1,0.1,0.1
		l0,0c0,0,0.1,0.1,0.1,0.1l0,0c0,0,0.1,0.1,0.1,0.1l0,0c0,0,0.1,0,0.1,0.1l0,0c0,0,0.1,0,0.1,0l0,0c0.1,0,0.1,0,0.2,0h0.4l0,0.2
		c-4.5,0.1-7.4,0.2-7.4,0.3c0,0.2,9.8,0.4,21.9,0.4c12.1,0,21.9-0.2,21.9-0.4C243.9,174.5,240.9,174.3,236.3,174.3z"/>
	<g>
		
			<ellipse transform="matrix(0.9991 -4.155862e-02 4.155862e-02 0.9991 -3.9046 9.3212)" class="st17" cx="222.2" cy="98.6" rx="8.8" ry="8.8"/>
		<path class="st0" d="M219.3,98c-0.3-0.3-0.3-0.7,0-1c0.3-0.3,0.7-0.3,1,0l2,2l4.4-4.4c0.3-0.3,0.7-0.3,1,0c0.3,0.3,0.3,0.7,0,1
			l-4.9,4.9c-0.3,0.3-0.7,0.3-1,0L219.3,98L219.3,98z M222.2,92.9c-3.1,0-5.7,2.5-5.7,5.7c0,3.1,2.5,5.7,5.7,5.7
			c3.1,0,5.7-2.5,5.7-5.7c0-0.6-0.1-1.1-0.2-1.6c0-0.1-0.1-0.1-0.1-0.1c-0.1,0-0.1,0-0.2,0l-0.6,0.6c0,0-0.1,0.1,0,0.2
			c0.1,0.3,0.1,0.6,0.1,1c0,2.5-2.1,4.6-4.6,4.6c-2.5,0-4.6-2.1-4.6-4.6c0-2.5,2.1-4.6,4.6-4.6c1.1,0,2,0.4,2.8,1
			c0.1,0.1,0.2,0,0.2,0l0.5-0.5c0,0,0.1-0.1,0.1-0.1c0-0.1,0-0.1-0.1-0.1C224.8,93.4,223.6,92.9,222.2,92.9z"/>
		<path class="st17" d="M215.5,102.7l2.6,2.6l-6.1,3.9c-0.1,0.1-0.2,0-0.3,0c-0.1-0.1-0.1-0.2,0-0.3L215.5,102.7z"/>
	</g>
</g>
</svg>
