<svg xmlns="http://www.w3.org/2000/svg" viewBox="0 0 48 48" width="96px" height="96px"><path fill="#cfd8dc" d="M42,6c0-0.6-0.4-1-1-1H7C6.4,5,6,5.4,6,6v37h36V6z"/><path fill="#b0bec5" d="M6 41H42V43H6zM40 20H42V41H40zM6 20H8V41H6z"/><path fill="#90a4ae" d="M13.5 7A1.5 1.5 0 1 0 13.5 10 1.5 1.5 0 1 0 13.5 7zM17.5 7A1.5 1.5 0 1 0 17.5 10 1.5 1.5 0 1 0 17.5 7zM9.5 7A1.5 1.5 0 1 0 9.5 10 1.5 1.5 0 1 0 9.5 7z"/><path fill="#e3f2fd" d="M25 25H38V36H25z"/><path fill="#1e88e5" d="M26 26H37V35H26z"/><path fill="#558b2f" d="M24 17A3 3 0 1 0 24 23 3 3 0 1 0 24 17zM12 17A3 3 0 1 0 12 23 3 3 0 1 0 12 17zM36 17A3 3 0 1 0 36 23 3 3 0 1 0 36 17z"/><path fill="#7cb342" d="M21 12H27V20H21zM9 20L15 20 16 12 11 12zM39 20L33 20 32 12 37 12z"/><g><path fill="#ffa000" d="M18 17A3 3 0 1 0 18 23 3 3 0 1 0 18 17zM6 17c1.7 0 3 1.3 3 3s-1.3 3-3 3-3-1.3-3-3L6 17zM30 17A3 3 0 1 0 30 23 3 3 0 1 0 30 17zM42 17c-1.7 0-3 1.3-3 3s1.3 3 3 3 3-1.3 3-3L42 17z"/></g><g><path fill="#ffc107" d="M15 20L21 20 21 12 16 12zM3 20L9 20 11 12 6 12zM33 20L27 20 27 12 32 12zM45 20L39 20 37 12 42 12z"/></g><path fill="#455a64" d="M10 25H21V41H10z"/><path fill="#90a4ae" d="M12,34v2c0,0.3,0.2,0.5,0.5,0.5S13,36.3,13,36v-2c0-0.3-0.2-0.5-0.5-0.5S12,33.7,12,34z"/></svg>