<svg xmlns="http://www.w3.org/2000/svg" viewBox="0 0 128 128" width="64px" height="64px"><path fill="#444b54" d="M111.5,121.7h-79c-1.7,0-3-1.3-3-3s1.3-3,3-3h79c3.9,0,7-3.1,7-7V37c0-1.7,1.3-3,3-3s3,1.3,3,3v71.6C124.5,115.8,118.7,121.7,111.5,121.7z"/><path fill="#cadbea" d="M97.5,105.7h-79c-5.5,0-10-4.5-10-5V29c0-10.5,4.5-15,10-15h79c5.5,0,10,4.5,10,15v71.6C107.5,101.2,103,105.7,97.5,105.7z"/><path fill="#fff" d="M97.5,105.7h-79c-5.5,0-10-4.5-10-10V34h99v61.6C107.5,101.2,103,105.7,97.5,105.7z"/><path fill="#9eb9d3" d="M52.5 52h-19c-1.7 0-3-1.3-3-3s1.3-3 3-3h19c1.7 0 3 1.3 3 3S54.2 52 52.5 52zM82.5 52c-.8 0-1.6-.3-2.1-.9-.6-.6-.9-1.3-.9-2.1 0-.2 0-.4.1-.6 0-.2.1-.4.2-.6.1-.2.2-.3.3-.5.1-.2.2-.3.4-.5.1-.1.3-.3.4-.4.2-.1.3-.2.5-.3.2-.1.4-.1.6-.2 1-.2 2 .1 2.7.8.1.1.3.3.4.5.1.2.2.3.3.5.1.2.1.4.2.6 0 .2.1.4.1.6 0 .8-.3 1.6-.9 2.1C84.1 51.7 83.3 52 82.5 52zM92.5 52c-.8 0-1.6-.3-2.1-.9-.1-.1-.3-.3-.4-.5-.1-.2-.2-.3-.3-.5-.1-.2-.1-.4-.2-.6 0-.2-.1-.4-.1-.6 0-.2 0-.4.1-.6 0-.2.1-.4.2-.6.1-.2.2-.3.3-.5.1-.2.2-.3.4-.5 1.1-1.1 3.1-1.1 4.2 0 .1.1.3.3.4.5.1.2.2.3.3.5.1.2.1.4.2.6 0 .2.1.4.1.6 0 .2 0 .4-.1.6 0 .2-.1.4-.2.6-.1.2-.2.4-.3.5-.1.2-.2.3-.4.5C94.1 51.7 93.3 52 92.5 52zM92.5 67c-.8 0-1.6-.3-2.1-.9-.1-.1-.3-.3-.4-.5-.1-.2-.2-.3-.3-.5-.1-.2-.1-.4-.2-.6 0-.2-.1-.4-.1-.6 0-.2 0-.4.1-.6 0-.2.1-.4.2-.6.1-.2.2-.4.3-.5.1-.2.2-.3.4-.5.7-.7 1.7-1 2.7-.8.2 0 .4.1.6.2.2.1.4.2.5.3.2.1.3.2.4.4.6.5.9 1.3.9 2.1s-.3 1.6-.9 2.1c-.1.1-.3.3-.4.4-.2.1-.3.2-.5.3-.2.1-.4.1-.6.2C92.9 67 92.7 67 92.5 67zM82.5 67c-.8 0-1.6-.3-2.1-.9-.1-.1-.3-.3-.4-.5-.1-.2-.2-.3-.3-.5-.1-.2-.1-.4-.2-.6 0-.2-.1-.4-.1-.6 0-.2 0-.4.1-.6 0-.2.1-.4.2-.6.1-.2.2-.4.3-.5s.2-.3.4-.5c.7-.7 1.7-1 2.7-.8.2 0 .4.1.6.2.2.1.4.2.5.3.2.1.3.2.4.4.6.5.9 1.3.9 2.1s-.3 1.6-.9 2.1c-.1.1-.3.3-.4.4-.2.1-.3.2-.5.3-.2.1-.4.1-.6.2C82.9 67 82.7 67 82.5 67zM82.5 82c-.8 0-1.6-.3-2.1-.9-.6-.6-.9-1.3-.9-2.1 0-.2 0-.4.1-.6 0-.2.1-.4.2-.6.1-.2.2-.3.3-.5.1-.2.2-.3.4-.5 1.1-1.1 3.1-1.1 4.2 0 .1.1.3.3.4.5.1.2.2.3.3.5.1.2.1.4.2.6 0 .2.1.4.1.6 0 .8-.3 1.6-.9 2.1-.1.1-.3.3-.4.4-.2.1-.3.2-.5.3-.2.1-.4.1-.6.2C82.9 82 82.7 82 82.5 82zM72.5 52c-.8 0-1.6-.3-2.1-.9-.6-.6-.9-1.3-.9-2.1 0-.2 0-.4.1-.6 0-.2.1-.4.2-.6.1-.2.2-.3.3-.5.1-.2.2-.3.4-.5 1.1-1.1 3.1-1.1 4.2 0 .1.1.3.3.4.5.1.2.2.3.3.5.1.2.1.4.2.6 0 .2.1.4.1.6 0 .8-.3 1.6-.9 2.1C74.1 51.7 73.3 52 72.5 52zM72.5 82c-.8 0-1.6-.3-2.1-.9-.1-.1-.3-.3-.4-.5-.1-.2-.2-.3-.3-.5-.1-.2-.1-.4-.2-.6 0-.2-.1-.4-.1-.6 0-.2 0-.4.1-.6 0-.2.1-.4.2-.6.1-.2.2-.3.3-.5.1-.2.2-.3.4-.5.7-.7 1.7-1 2.7-.8.2 0 .4.1.6.2.2.1.4.2.5.3.2.1.3.2.4.4.1.1.3.3.4.5.1.2.2.3.3.5.1.2.1.4.2.6 0 .2.1.4.1.6 0 .2 0 .4-.1.6 0 .2-.1.4-.2.6-.1.2-.2.3-.3.5-.1.2-.2.3-.4.5-.1.1-.3.3-.4.4-.2.1-.3.2-.5.3-.2.1-.4.1-.6.2C72.9 82 72.7 82 72.5 82zM92.5 82c-.2 0-.4 0-.6-.1-.2 0-.4-.1-.6-.2-.2-.1-.3-.2-.5-.3-.2-.1-.3-.2-.5-.4s-.3-.3-.4-.5c-.1-.2-.2-.3-.3-.5-.1-.2-.1-.4-.2-.6 0-.2-.1-.4-.1-.6 0-.2 0-.4.1-.6 0-.2.1-.4.2-.6.1-.2.2-.3.3-.5.1-.2.2-.3.4-.5 1.1-1.1 3.1-1.1 4.2 0 .1.1.3.3.4.5.1.2.2.3.3.5.1.2.1.4.2.6 0 .2.1.4.1.6 0 .2 0 .4-.1.6 0 .2-.1.4-.2.6-.1.2-.2.3-.3.5-.1.2-.2.3-.4.5C94.1 81.7 93.3 82 92.5 82zM52.5 67h-19c-1.7 0-3-1.3-3-3s1.3-3 3-3h19c1.7 0 3 1.3 3 3S54.2 67 52.5 67zM23.5 67c-.8 0-1.6-.3-2.1-.9-.1-.1-.3-.3-.4-.5-.1-.2-.2-.3-.3-.5-.1-.2-.1-.4-.2-.6 0-.2-.1-.4-.1-.6 0-.8.3-1.6.9-2.1.1-.1.3-.3.4-.4.2-.1.3-.2.5-.3.2-.1.4-.1.6-.2.4-.1.8-.1 1.2 0 .2 0 .4.1.6.2.2.1.4.2.5.3.2.1.3.2.4.4.6.5.9 1.3.9 2.1 0 .2 0 .4-.1.6 0 .2-.1.4-.2.6-.1.2-.2.4-.3.5-.1.2-.2.3-.4.5C25.1 66.7 24.3 67 23.5 67zM52.5 82h-19c-1.7 0-3-1.3-3-3s1.3-3 3-3h19c1.7 0 3 1.3 3 3S54.2 82 52.5 82zM23.5 52c-.2 0-.4 0-.6-.1-.2 0-.4-.1-.6-.2-.2-.1-.3-.2-.5-.3-.2-.1-.3-.2-.4-.4-.6-.6-.9-1.3-.9-2.1 0-.2 0-.4.1-.6 0-.2.1-.4.2-.6.1-.2.2-.3.3-.5.1-.2.2-.3.4-.5.1-.1.3-.3.4-.4.2-.1.3-.2.5-.3.2-.1.4-.1.6-.2 1-.2 2 .1 2.7.8.1.1.3.3.4.5.1.2.2.3.3.5.1.2.1.4.2.6 0 .2.1.4.1.6 0 .8-.3 1.6-.9 2.1C25.1 51.7 24.3 52 23.5 52zM23.5 82c-.2 0-.4 0-.6-.1-.2 0-.4-.1-.6-.2-.2-.1-.3-.2-.5-.3-.2-.1-.3-.2-.4-.4-.6-.6-.9-1.3-.9-2.1 0-.2 0-.4.1-.6 0-.2.1-.4.2-.6.1-.2.2-.3.3-.5.1-.2.2-.3.4-.5 1.1-1.1 3.1-1.1 4.2 0 .1.1.3.3.4.5.1.2.2.3.3.5.1.2.1.4.2.6 0 .2.1.4.1.6 0 .8-.3 1.6-.9 2.1-.1.1-.3.3-.4.4-.2.1-.3.2-.5.3-.2.1-.4.1-.6.2C23.9 82 23.7 82 23.5 82z"/><path fill="#444b54" d="M97.5,108.7h-79c-7.2,0-13-5.8-13-13V34c0-1.7,1.3-3,3-3s3,1.3,3,3v61.6c0,3.9,3.1,7,7,7h79c3.9,0,7-3.1,7-7V34c0-1.7,1.3-3,3-3s3,1.3,3,3v61.6C110.5,102.8,104.7,108.7,97.5,108.7z"/><path fill="#444b54" d="M107.5,37c-1.7,0-3-1.3-3-3V24c0-3.9-3.1-7-7-7h-79c-3.9,0-7,3.1-7,7v10c0,1.7-1.3,3-3,3s-3-1.3-3-3V24c0-7.2,5.8-13,13-13h79c7.2,0,13,5.8,13,13v10C110.5,35.7,109.2,37,107.5,37z"/><path fill="#fff" d="M18.5 27c-.2 0-.4 0-.6-.1-.2 0-.4-.1-.6-.2-.2-.1-.3-.2-.5-.3-.2-.1-.3-.2-.5-.4s-.3-.3-.4-.5c-.1-.2-.2-.3-.3-.5-.1-.2-.1-.4-.2-.6s-.1-.4-.1-.6c0-.8.3-1.6.9-2.1.1-.1.3-.3.5-.4.2-.1.3-.2.5-.3.2-.1.4-.1.6-.2 1-.2 2 .1 2.7.8.6.6.9 1.3.9 2.1 0 .2 0 .4-.1.6s-.1.4-.2.6c-.1.2-.2.4-.3.5-.1.2-.2.3-.4.5C20.1 26.7 19.3 27 18.5 27zM28.5 27c-.8 0-1.6-.3-2.1-.9-.6-.6-.9-1.3-.9-2.1s.3-1.6.9-2.1c.1-.1.3-.3.5-.4.2-.1.3-.2.5-.3.2-.1.4-.1.6-.2.4-.1.8-.1 1.2 0 .2 0 .4.1.6.2.2.1.4.2.5.3.2.1.3.2.5.4.6.6.9 1.3.9 2.1s-.3 1.6-.9 2.1C30.1 26.7 29.3 27 28.5 27zM38.5 27c-.2 0-.4 0-.6-.1-.2 0-.4-.1-.6-.2-.2-.1-.3-.2-.5-.3-.2-.1-.3-.2-.5-.4s-.3-.3-.4-.5c-.1-.2-.2-.3-.3-.5-.1-.2-.1-.4-.2-.6s-.1-.4-.1-.6c0-.8.3-1.6.9-2.1.1-.1.3-.3.5-.4.2-.1.3-.2.5-.3.2-.1.4-.1.6-.2 1-.2 2 .1 2.7.8.6.6.9 1.3.9 2.1 0 .2 0 .4-.1.6s-.1.4-.2.6c-.1.2-.2.4-.3.5-.1.2-.2.3-.4.5C40.1 26.7 39.3 27 38.5 27z"/></svg>