<svg fill="#ffffff" xmlns="http://www.w3.org/2000/svg" viewBox="0 0 48 48" width="96px" height="96px"><line x1="28.5" x2="46.5" y1="44.5" y2="44.5" fill="none" stroke="#ffffff" stroke-linecap="round" stroke-linejoin="round" stroke-miterlimit="10" stroke-width="3"/><line x1="43.5" x2="43.5" y1="45.5" y2="43.5" fill="none" stroke="#ffffff" stroke-linecap="round" stroke-linejoin="round" stroke-miterlimit="10" stroke-width="3"/><line x1="28.5" x2="46.5" y1="32.5" y2="32.5" fill="none" stroke="#ffffff" stroke-linecap="round" stroke-linejoin="round" stroke-miterlimit="10" stroke-width="3"/><line x1="39.5" x2="39.5" y1="33.5" y2="31.5" fill="none" stroke="#ffffff" stroke-linecap="round" stroke-linejoin="round" stroke-miterlimit="10" stroke-width="3"/><line x1="28.5" x2="46.5" y1="38.5" y2="38.5" fill="none" stroke="#ffffff" stroke-linecap="round" stroke-linejoin="round" stroke-miterlimit="10" stroke-width="3"/><line x1="32.5" x2="32.5" y1="39.5" y2="37.5" fill="none" stroke="#ffffff" stroke-linecap="round" stroke-linejoin="round" stroke-miterlimit="10" stroke-width="3"/><circle cx="30.5" cy="17.5" r="3" fill="none" stroke="#ffffff" stroke-miterlimit="10" stroke-width="3"/><path d="M25,39H11.5c-0.038,0-0.073-0.009-0.11-0.011l11.55-11.55c0.564-0.566,1.554-0.567,2.12,0L26.621,29h4.243l-3.681-3.681	C26.333,24.468,25.202,24,24,24s-2.333,0.468-3.182,1.318L9.07,37.066C9.028,36.884,9,36.695,9,36.5v-25C9,10.122,10.121,9,11.5,9	h25c1.379,0,2.5,1.122,2.5,2.5v16.55c0.165-0.024,0.329-0.05,0.5-0.05c0.952,0,1.813,0.383,2.444,1H42V11.5	C42,8.467,39.532,6,36.5,6h-25C8.468,6,6,8.467,6,11.5v25c0,3.033,2.468,5.5,5.5,5.5H25V39z"/></svg>