<svg fill="#ffffff" xmlns="http://www.w3.org/2000/svg" viewBox="0 0 32 32" width="64px" height="64px"><path d="M 8 5 L 8 16.488281 C 5.8464515 17.009249 4.0214844 17.759766 4.0214844 17.759766 L 4.7578125 19.619141 C 4.7578125 19.619141 9.06237 18 11.453125 18 C 12.419957 18 14.072474 18.584974 15.419922 19.273438 C 16.093646 19.617669 16.702891 19.981507 17.148438 20.277344 C 17.371211 20.425262 17.554355 20.557027 17.673828 20.652344 C 17.701859 20.674708 17.712956 20.689551 17.734375 20.710938 C 17.767101 20.74108 17.800014 20.770701 17.826172 20.804688 L 17.892578 20.90625 C 18.019246 21.144321 18.01438 21.435337 17.84375 21.679688 C 17.649464 21.955823 17.307018 22.06272 16.988281 21.955078 L 12.636719 19.884766 L 11.777344 21.689453 L 16.269531 23.826172 L 16.318359 23.84375 C 17.238389 24.166196 18.172612 23.85462 18.902344 23.255859 L 19.181641 23.255859 L 19.478516 22.833984 L 19.480469 22.830078 C 19.878753 22.263041 20.018182 21.592385 19.945312 20.947266 L 24.71875 20.167969 L 24.720703 20.167969 C 25.251221 20.079639 25.752354 20.381536 25.921875 20.890625 C 26.101509 21.430058 25.855855 21.990361 25.337891 22.21875 C 23.872711 22.864331 21.488457 23.829548 19.371094 24.625 C 18.312412 25.022726 17.318545 25.378918 16.544922 25.630859 C 16.15811 25.75683 15.824244 25.855742 15.578125 25.919922 C 15.331957 25.984106 15.125208 26 15.226562 26 C 15.289463 26 14.873121 25.90444 14.402344 25.650391 C 13.931567 25.396336 13.35454 25.031842 12.763672 24.65625 C 12.172803 24.280658 11.566785 23.895118 10.984375 23.585938 C 10.401965 23.276757 9.8853222 23 9.1777344 23 C 7.541807 23 6.0820313 23.632813 6.0820312 23.632812 L 6.84375 25.482422 C 6.84375 25.482422 8.0876617 25 9.1777344 25 C 9.1516464 25 9.5696917 25.09824 10.046875 25.351562 C 10.524058 25.604882 11.1024 25.969342 11.691406 26.34375 C 12.280413 26.718158 12.879605 27.103664 13.451172 27.412109 C 14.022739 27.720555 14.516664 28 15.226562 28 C 15.567918 28 15.7756 27.93589 16.083984 27.855469 C 16.392369 27.775049 16.753609 27.66492 17.164062 27.53125 C 17.98497 27.26391 18.997775 26.900493 20.074219 26.496094 C 22.227105 25.687296 24.620711 24.720247 26.144531 24.048828 C 27.161859 23.600251 27.626429 22.62041 27.755859 21.574219 L 28.257812 21.574219 L 27.820312 20.259766 C 27.344264 18.830142 25.882583 17.949894 24.396484 18.195312 L 24.392578 18.195312 L 24 18.259766 L 24 5 L 8 5 z M 10 7 L 22 7 L 22 18.585938 L 18.921875 19.087891 C 18.905089 19.074499 18.878718 19.058468 18.861328 19.044922 C 18.840218 19.029285 18.824417 19.009251 18.802734 18.994141 L 18.509766 18.787109 L 18.507812 18.791016 C 18.420524 18.730022 18.353721 18.676307 18.255859 18.611328 C 17.737906 18.267414 17.073354 17.871956 16.330078 17.492188 C 14.843526 16.732651 13.094293 16 11.453125 16 C 10.985464 16 10.495544 16.045089 10 16.109375 L 10 7 z M 14 9 L 14 11 L 18 11 L 18 9 L 14 9 z"/></svg>