<?xml version="1.0" encoding="utf-8"?>
<!-- Generator: Adobe Illustrator 24.1.3, SVG Export Plug-In . SVG Version: 6.00 Build 0)  -->
<svg version="1.1" id="Layer_1" xmlns="http://www.w3.org/2000/svg" xmlns:xlink="http://www.w3.org/1999/xlink" x="0px" y="0px"
	 viewBox="0 0 165 110" style="enable-background:new 0 0 165 110;" xml:space="preserve">
<style type="text/css">
	.st0{opacity:0.25;}
	.st1{fill-rule:evenodd;clip-rule:evenodd;fill:#FFFFFF;}
</style>
<g class="st0">
	<path class="st1" d="M82.6,28.3c10.6,0,19.2,8.5,19.2,19c0,10.5-8.6,19-19.2,19c-10.6,0-19.2-8.5-19.2-19
		C63.4,36.8,72,28.3,82.6,28.3L82.6,28.3z M82.7,31.2c9,0,16.3,7.2,16.3,16.1c0,8.9-7.3,16.1-16.3,16.1c-9,0-16.3-7.2-16.3-16.1
		C66.4,38.4,73.7,31.2,82.7,31.2L82.7,31.2z"/>
	<path class="st1" d="M82.7,33.9l-3.1,9.2h-10l7.7,5.8l-2.5,9.6l8-5.8l8.2,5.8l-2.6-9.7l7.5-5.7l-10-0.1
		C85.9,43.1,82.7,33.8,82.7,33.9L82.7,33.9z"/>
	<path class="st1" d="M47.9,71.7h-5.2c0,0-2.2,0.2-2.2,2.3c0,2.1,0,5.6,0,5.6s-0.1,1.7,2,2.2h5.4v-2.2h-5v-5.6h5V71.7L47.9,71.7z"/>
	<path class="st1" d="M57.1,71.7h-3.8H53c0,0-2.2,0.2-2.2,2.3c0,2.1,0,5.6,0,5.6s-0.1,1.7,2,2.2h0.4h3.8h0.4c2.2-0.5,2-2.2,2-2.2
		s0-3.5,0-5.6c0-2.1-2.2-2.3-2.2-2.3H57.1L57.1,71.7z M57,79.5h-3.8v-5.6h1.9H57V79.5L57,79.5z"/>
	<path class="st1" d="M62.5,71.7h5.9c0,0,1.9,0.4,1.9,2.3c0,1.9,0,7.8,0,7.8H68v-7.8h-3.1v7.8h-2.4V71.7L62.5,71.7z"/>
	<polygon class="st1" points="72.5,71.7 75.7,81.7 79,81.7 82.3,71.7 79.7,71.7 77.4,79.5 75.1,71.7 72.5,71.7 	"/>
	<path class="st1" d="M91.8,71.7h-5.1c0,0-2.2,0.1-2.3,2.3l0,5.6c0,0,0,2.2,2.3,2.2h5.1v-2.2h-5.1v-1.7h5.1v-2.1l-5.1-0.1v-1.7h5.1
		V71.7L91.8,71.7z"/>
	<path class="st1" d="M95.2,71.7h5.6c0,0,2.3,0,2.3,2.2v1.7c0,0,0.1,1.7-1.8,2.2l2.1,3.9H101l-2-4h-1.4v4h-2.3V71.7L95.2,71.7z
		 M97.6,73.9h3.2v1.7h-3.2V73.9L97.6,73.9z"/>
	<path class="st1" d="M113.7,71.7h-5.6c0,0-2,0.5-1.9,2.2v1.7c0,0-0.1,2.1,1.9,2.1h3.5v1.8h-5.5v2.2h5.9c0,0,1.8-0.2,1.9-2.2l0-2.1
		c0,0-0.1-1.4-1.8-1.8h-3.6v-1.7h5.1V71.7L113.7,71.7z"/>
	<path class="st1" d="M124.5,71.7h-5c0,0-2.1-0.1-2.3,2.2l0,5.7c0,0,0.1,2.2,2.3,2.2h5v-2.2h-5v-1.8h5v-2.2h-5v-1.7h5V71.7
		L124.5,71.7z"/>
	<polygon class="st1" points="82.7,55.5 82.9,55.5 83.2,56.4 83.6,55.5 83.8,55.5 83.8,56.6 83.6,56.6 83.6,55.7 83.3,56.6 
		83.1,56.6 82.8,55.8 82.8,56.6 82.7,56.6 82.7,55.5 	"/>
	<polygon class="st1" points="81.7,55.5 81.7,55.6 82,55.6 82,56.6 82.2,56.6 82.2,55.6 82.6,55.6 82.6,55.5 81.7,55.5 	"/>
</g>
</svg>
