<?xml version="1.0" encoding="utf-8"?>
<!-- Generator: Adobe Illustrator 24.1.3, SVG Export Plug-In . SVG Version: 6.00 Build 0)  -->
<svg version="1.1" id="Layer_1" xmlns="http://www.w3.org/2000/svg" xmlns:xlink="http://www.w3.org/1999/xlink" x="0px" y="0px"
	 viewBox="0 0 165 110" style="enable-background:new 0 0 165 110;" xml:space="preserve">
<style type="text/css">
	.st0{opacity:0.25;fill:#FFFFFF;}
</style>
<path class="st0" d="M121.1,30.1L64.7,54.4C58.6,57,49,60,45,53.6c-2.2-3.5-0.9-9.1,2.4-14.2c2.1-3.2,4.7-6.2,7.4-9.2
	c-1.5,2.4-5.6,10.5-0.1,14.5c2.2,1.5,5.9,1.7,10.6,0.4L121.1,30.1z"/>
<path class="st0" d="M45.6,64.8h4.2l0.1,10.4c0,0,0,2.5-1.5,3.8c-1.2,1-2.5,1-3.6,0.8c-1.1-0.2-1.7-0.6-1.7-0.6v-3.6
	c0,0,0.4,0.3,0.9,0.5c0.5,0.2,0.9,0.3,1.3-0.2c0.2-0.2,0.2-1,0.2-1L45.6,64.8z M50.1,74.8c0,0-0.6,5.1,5.2,5.1
	c5.4,0,5.1-4.8,5.1-5.3c0-0.5,0-9.9,0-9.9h-4.2l0,9.7c0,0,0.1,1.5-0.9,1.5c-1,0-0.9-1.4-0.9-1.4l-0.1-9.8H50L50.1,74.8z M68.5,69.2
	l0-3.8c0,0-1.8-0.9-3.7-0.9c-2.6,0-3.7,1.9-3.7,1.9s-1,1.4-0.6,3.2c0.2,1.2,0.7,1.9,1.7,2.8c0.4,0.4,1.3,1.1,1.5,1.4
	c0.2,0.2,1,0.7,0.9,1.5c-0.1,0.5-0.4,0.9-1.4,0.9c-1.3,0-2.7-1.3-2.7-1.3l0,3.9c0,0,1.7,1.2,3.5,1.2c2,0,3-0.7,3.6-1.2
	c1-0.8,1.7-2.5,1.5-4.3c-0.3-1.9-1.9-3.1-2.4-3.5c-0.5-0.4-1.5-1.2-1.7-1.6c-0.2-0.4,0.2-1.1,0.6-1.2C65.9,68,66.5,67.7,68.5,69.2z
	 M68.7,68.5h2.5v11.1h4.2V68.5h2.4v-3.7h-9.1V68.5z M110,68.5h2.5v11.1h4.2V68.5h2.4v-3.7H110V68.5z M80.7,79.6c0,0,3.7,0,4.6,0
	c1,0,5.9-0.2,5.9-7.7c0-7.3-5.5-7.2-5.5-7.2h-5L80.7,79.6z M84.9,68.7c0,0,0.6-0.1,0.8,0.1c0.3,0.1,1,0.6,1,3.6c0,3-0.7,3.3-1.1,3.6
	c-0.4,0.2-0.8,0.1-0.8,0.1L84.9,68.7z M97,64.4c0,0-5.7-0.2-5.7,7.6c0,8.5,5.7,7.9,5.7,7.9s5.9,0.8,5.9-7.8
	C102.9,63.6,97,64.4,97,64.4z M97,68c0.4,0,1.4-0.3,1.4,4.1c0,4.3-1.1,3.9-1.3,3.9c-0.2,0-1.4,0.3-1.4-3.9C95.7,67.9,96.6,68,97,68z
	 M105.5,79.6h4.3V64.8h-4.3L105.5,79.6z M117.1,77.5c0,1.2,1,2.4,2.4,2.4c1.2,0,2.4-0.9,2.4-2.4c0-1.1-0.9-2.4-2.4-2.4
	C118.4,75.2,117.1,76.1,117.1,77.5z"/>
</svg>
