<?xml version="1.0" encoding="utf-8"?>
<!-- Generator: Adobe Illustrator 24.1.3, SVG Export Plug-In . SVG Version: 6.00 Build 0)  -->
<svg version="1.1" id="Layer_1" xmlns="http://www.w3.org/2000/svg" xmlns:xlink="http://www.w3.org/1999/xlink" x="0px" y="0px"
	 viewBox="0 0 165 110" style="enable-background:new 0 0 165 110;" xml:space="preserve">
<style type="text/css">
	.st0{opacity:0.25;}
	.st1{fill-rule:evenodd;clip-rule:evenodd;fill:#FFFFFF;}
</style>
<g class="st0">
	<path class="st1" d="M113.4,48.2c0,0,4.7,0.8,7.9-5.7c0,0,1.8-5.9,7-7c0,0,3.4-0.2,1,2.9c0,0-4,1.2-5.5,3.1c0,0-1.2,0.5-2.3,3.2
		c0,0-0.8,3.1-4.5,5.3c0,0,2.3,3.1,2.1,7.6c0,0-0.8,1.7,2.4,4c0,0,0,1.3,0.7,2.1c0,0,1.1,0.8,0.3,2c0,0-0.4,0.8-0.1,1.4
		c0,0,0.3,1.5-1.2,0.8c0,0-1.4-0.5-2.1-2.1v-2.9c0,0-4.5-2.3-7.4-8.6c0,0-0.2-3.1-5.2-3.6c0,0-7.8,0.5-12.9-5.3c0,0-1.3,1.5-3.4,1.1
		c0,0-3.5-0.1-4.5-1L84.7,45c0,0-1,0-0.8,0.7c0,0-0.8,1-1.8,0.2c-0.9-0.8-1.3-2.8,2.1-3.1c0,0,1.6-0.2,3,0.1c0,0,1.6-0.5-0.3-1.8
		c0,0-1,0.1-1.8,0.2c0,0-1.4-0.5-1.6-1c0,0-1,0.4-1.2-0.8c0,0-0.5-0.8,0.2-1l0.7-0.7v-0.5c0,0,2-1.2,2.5-2.4l1.2,0.5l1.3-0.6
		l0.8,1.3c0,0,3.4,0.1,7.2,2.4c0,0,10.2,6.8,10.9,7.3C110.1,47.5,113.4,48.2,113.4,48.2L113.4,48.2z"/>
	<path class="st1" d="M51.5,55.6h6.4v15.9c0,0,0.1,1,1.1,1.1c0,0,1.1,0,1.1-1.1L60,55.6h6.2l-0.1,18.2c0,0-0.4,1.3-1.3,1.4l-11.7,0
		c0,0-1.4-0.3-1.6-1.4C51.7,74.8,51.5,55.7,51.5,55.6L51.5,55.6z"/>
	<path class="st1" d="M35,55.6l12.9,0c0,0,1.4,0.3,1.5,1.3l0,12c0,0-0.9,1.6-1.8,1.5h-6.4l-0.1,4.7h-6.3C34.8,75.1,35,55.6,35,55.6
		L35,55.6z M42.1,57.7L42.1,57.7c0.6,0,1,0.4,1,0.9v8.5c0,0.5-0.5,0.9-1,0.9h0c-0.6,0-1-0.4-1-0.9v-8.5
		C41.1,58.1,41.6,57.7,42.1,57.7L42.1,57.7z"/>
	<path class="st1" d="M74.4,75.1l0-16.7c0,0,0-0.8,0.9-0.8c0,0,0.8-0.1,1,0.8l0,16.6l6.2,0l0-16.6c0,0,0.2-0.8,1-0.8
		c0,0,0.9,0.1,1,0.8l-0.1,16.7l6.2,0l0-18c0,0,0.1-1.1-1.5-1.5c-1.6-0.4-19.6,0-19.6,0s-1.2,0.1-1.5,1.4l0,18.1
		C68.1,75.2,74.3,75.1,74.4,75.1L74.4,75.1z"/>
	<path class="st1" d="M93.2,57.1c0,0,0.2-1.2,1.4-1.4h11.7c0,0,1.3,0.2,1.2,1.5l0.1,18l-6.2,0.1l0.1-4.4c0,0,0-0.8-1-0.8
		c0,0-0.8-0.2-1.1,0.8l0.1,4.4l-6.2,0C93.1,75.2,93.2,57.1,93.2,57.1L93.2,57.1z M100.3,57.9L100.3,57.9c0.6,0,1,0.4,1,0.9v8.2
		c0,0.5-0.5,0.9-1,0.9l0,0c-0.6,0-1-0.4-1-0.9v-8.2C99.3,58.3,99.8,57.9,100.3,57.9L100.3,57.9z"/>
</g>
</svg>
