<?xml version="1.0"?><svg fill="#ffffff" xmlns="http://www.w3.org/2000/svg" viewBox="0 0 128 128" width="64px" height="64px">    <path d="M 31 1 C 21.1 1 13 9.1 13 19 C 13 28.9 21.1 37 31 37 C 40.9 37 49 28.9 49 19 C 49 9.1 40.9 1 31 1 z M 31 7 C 37.6 7 43 12.4 43 19 C 43 25.6 37.6 31 31 31 C 24.4 31 19 25.6 19 19 C 19 12.4 24.4 7 31 7 z M 75.96875 10.445312 C 73.866211 10.427734 71.787109 11.162109 70.099609 12.599609 L 53.5 26.800781 C 52.3 27.800781 52.099219 29.7 53.199219 31 C 54.199219 32.2 56.100391 32.400781 57.400391 31.300781 L 74.099609 17 C 75.499609 15.9 76.900781 16.399609 77.300781 16.599609 C 77.700781 16.799609 79 17.500781 79 19.300781 L 79 30.800781 C 79 32.100781 79.899609 33.299219 81.099609 33.699219 C 93.099609 37.499219 102.60078 47.399609 105.80078 59.599609 C 106.20078 60.899609 107.39922 61.800781 108.69922 61.800781 C 108.89922 61.800781 109.20039 61.800391 109.40039 61.900391 C 111.00039 61.400391 111.9 59.799219 111.5 58.199219 C 108 44.799219 97.900391 33.700391 84.900391 28.900391 L 84.900391 19.5 C 84.900391 15.9 82.899219 12.800781 79.699219 11.300781 C 78.499219 10.738281 77.230273 10.455859 75.96875 10.445312 z M 16.363281 38.4375 C 15.600781 38.45 14.850781 38.750781 14.300781 39.300781 C 6.5007812 47.200781 2.1 57.5 2 68.5 C 2 72.3 2.4007813 75.999219 3.3007812 79.699219 C 4.5007813 84.399219 6.8 89.000391 10 93.400391 L 33.599609 125.69922 C 34.199609 126.49922 35.1 126.90039 36 126.90039 L 46 126.90039 C 47.7 126.90039 49 125.60039 49 123.90039 L 49 111.90039 L 56 111.90039 L 56 123.90039 C 56 125.60039 57.3 126.90039 59 126.90039 L 69 126.90039 C 70 126.90039 70.9 126.39961 71.5 125.59961 L 80.599609 111.90039 L 115.80078 111.80078 C 116.20078 111.80078 116.6 111.90039 117 111.90039 C 122.5 111.90039 127 107.40039 127 101.90039 L 127 76 C 127 70.5 122.5 66 117 66 C 111.5 66 107 70.5 107 76 L 107 102 C 107 103.4 107.30078 104.70039 107.80078 105.90039 L 79 106 C 78 106 77.1 106.50078 76.5 107.30078 L 67.400391 121 L 62 121 L 62 109 C 62 107.3 60.7 106 59 106 L 46 106 C 44.3 106 43 107.3 43 109 L 43 121 L 37.5 121 L 14.800781 89.900391 C 12.000781 86.100391 10.099609 82.199219 9.0996094 78.199219 C 8.2996094 74.999219 8 71.799609 8 68.599609 C 8.1 59.199609 11.8 50.3 18.5 43.5 C 19.7 42.3 19.6 40.400781 18.5 39.300781 C 17.9 38.700781 17.125781 38.425 16.363281 38.4375 z M 117 72 C 119.2 72 121 73.8 121 76 L 121 102 C 121 104.2 119.2 106 117 106 C 114.8 106 113 104.2 113 102 L 113 76 C 113 73.8 114.8 72 117 72 z M 97 78.699219 A 3 3 0 0 0 94 81.699219 A 3 3 0 0 0 97 84.699219 A 3 3 0 0 0 100 81.699219 A 3 3 0 0 0 97 78.699219 z"/></svg>