<svg fill="#2196f3" xmlns="http://www.w3.org/2000/svg" viewBox="0 0 50 50" width="50px" height="50px"><path d="M 38 3 C 34.698136 3 32 5.6981361 32 9 C 32 12.301864 34.698136 15 38 15 C 41.301864 15 44 12.301864 44 9 C 44 5.6981361 41.301864 3 38 3 z M 12 5 A 1.0001 1.0001 0 1 0 12 7 L 18.585938 7 L 4.2929688 21.292969 A 1.0001 1.0001 0 1 0 5.7070312 22.707031 L 20 8.4140625 L 19.998047 15 A 1.0001 1.0001 0 1 0 21.998047 15 L 22 5 L 12 5 z M 38 5 C 40.220984 5 42 6.7790164 42 9 C 42 11.220984 40.220984 13 38 13 C 35.779016 13 34 11.220984 34 9 C 34 6.7790164 35.779016 5 38 5 z M 33.5 16 C 30.475695 16 28 18.476746 28 21.5 L 28 32 A 1.0001 1.0001 0 0 0 28.021484 32.216797 C 28.135989 33.760669 29.429122 35 31 35 C 31.351843 35 31.685108 34.92606 32 34.8125 L 32 43.5 C 32 45.421188 33.578812 47 35.5 47 C 36.476925 47 37.362705 46.58945 38 45.935547 C 38.637295 46.58945 39.523075 47 40.5 47 C 42.421188 47 44 45.421188 44 43.5 L 44 34.8125 C 44.314892 34.92606 44.648157 35 45 35 C 46.571539 35 47.864967 33.759624 47.978516 32.214844 A 1.0001 1.0001 0 0 0 48 32 L 48 21.5 C 48 18.476746 45.524305 16 42.5 16 L 41.599609 16 L 34.400391 16 L 33.5 16 z M 33.5 18 L 34.400391 18 L 41.599609 18 L 42.5 18 C 44.439695 18 46 19.561254 46 21.5 L 46 32 C 46 32.56503 45.56503 33 45 33 C 44.43497 33 44 32.56503 44 32 L 44 24 L 42 24 L 42 32 L 42 43.5 C 42 44.340812 41.340812 45 40.5 45 C 39.659188 45 39 44.340812 39 43.5 L 39 32 L 37 32 L 37 43.5 C 37 44.340812 36.340812 45 35.5 45 C 34.659188 45 34 44.340812 34 43.5 L 34 24 L 32 24 L 32 32 C 32 32.56503 31.56503 33 31 33 C 30.43497 33 30 32.56503 30 32 L 30 21.5 C 30 19.561254 31.560305 18 33.5 18 z M 20 21 L 20 22 L 20 47 L 26 47 L 26 21 L 20 21 z M 22 23 L 24 23 L 24 45 L 22 45 L 22 23 z M 12 28 L 12 29 L 12 47 L 18 47 L 18 28 L 12 28 z M 14 30 L 16 30 L 16 45 L 14 45 L 14 30 z M 4 34 L 4 35 L 4 47 L 10 47 L 10 34 L 4 34 z M 6 36 L 8 36 L 8 45 L 6 45 L 6 36 z"/></svg>