<svg xmlns="http://www.w3.org/2000/svg" viewBox="0 0 128 128" width="64px" height="64px"><path fill="#ce938e" d="M74.3,116H23.7c-5.5,0-10-4.5-10-10V34.3c0-5.5,4.5-10,10-10h50.5c5.5,0,10,4.5,10,10V106 C84.3,111.5,79.8,116,74.3,116"/><path fill="#454b54" d="M74.3,119H23.7c-7.2,0-13-5.8-13-13V34.3c0-7.2,5.8-13,13-13h50.5c7.2,0,13,5.8,13,13V106 C87.3,113.2,81.4,119,74.3,119z M23.7,27.3c-3.9,0-7,3.1-7,7V106c0,3.9,3.1,7,7,7h50.5c3.899,0,7-3.1,7-7V34.3c0-3.9-3.101-7-7-7 H23.7z"/><path fill="#f7f7fb" d="M21.6 32.3L76.4 32.3 76.4 108 21.6 108 21.6 32.3"/><path fill="#dedee1" d="M61 40.7L29.3 40.7 29.3 51.5 61 51.5 61 40.7M47.4 56.9L29.3 56.9 29.3 67.7 47.4 67.7 47.4 56.9"/><path fill="#454b54" d="M49.9 27.3c-5 0-9.1-4.1-9.1-9.2s4.1-9.2 9.1-9.2S59 13 59 18.1 54.9 27.3 49.9 27.3zM49.9 15c-1.7 0-3.1 1.4-3.1 3.2 0 1.7 1.4 3.2 3.1 3.2 1.7 0 3.1-1.4 3.1-3.2S51.6 15 49.9 15zM105.2 69c-1 0-2-.4-2.8-1.2-1.601-1.6-1.601-4.1 0-5.7l3.3-3.3c1.6-1.6 4.1-1.6 5.7 0s1.6 4.1 0 5.7l-3.301 3.3C107.2 68.6 106.2 69 105.2 69zM63.4 69c-1 0-2.1-.4-2.8-1.2l-3.3-3.3c-1.6-1.6-1.6-4.1 0-5.7 1.6-1.6 4.1-1.6 5.7 0l3.3 3.3c1.601 1.6 1.601 4.1 0 5.7C65.4 68.6 64.4 69 63.4 69zM84.3 60.3c-2.2 0-4-1.8-4-4v-6.6c0-2.2 1.8-4 4-4s4 1.8 4 4v6.6C88.3 58.5 86.5 60.3 84.3 60.3z"/><path fill="#8ccfb9" d="M84.3 56A30 30 0 1 0 84.3 116A30 30 0 1 0 84.3 56Z"/><path fill="#454b54" d="M84.3,119c-18.2,0-33-14.8-33-33s14.8-33,33-33s33,14.8,33,33S102.5,119,84.3,119z M84.3,59 c-14.899,0-27,12.1-27,27s12.101,27,27,27c14.9,0,27-12.1,27-27S99.1,59,84.3,59z"/><path fill="#f7f7fb" d="M84.3 66A20 20 0 1 0 84.3 106A20 20 0 1 0 84.3 66Z"/><path fill="#454b54" d="M84.3,85.7c-1.7,0-3-1.3-3-3V69.5c0-1.7,1.3-3,3-3s3,1.3,3,3v13.2C87.3,84.4,85.9,85.7,84.3,85.7z"/><path fill="#454b54" d="M84.3 92.3c-3.5 0-6.3-2.8-6.3-6.3s2.8-6.3 6.3-6.3 6.3 2.8 6.3 6.3S87.7 92.3 84.3 92.3zM88.2 53.7h-7.9c-2.2 0-4-1.8-4-4s1.8-4 4-4h7.9c2.2 0 4 1.8 4 4S90.4 53.7 88.2 53.7z"/></svg>