<?xml version="1.0"?><svg fill="#ffffff" xmlns="http://www.w3.org/2000/svg" viewBox="0 0 30 30" width="90px" height="90px">    <path d="M 17.5 3.9003906 C 15.25 3.9003906 13.835938 5.5875156 13.835938 8.4785156 C 13.835938 11.369516 15.232 13.099609 17.5 13.099609 C 19.762 13.099609 21.164062 11.363375 21.164062 8.484375 C 21.164062 5.581375 19.744 3.9003906 17.5 3.9003906 z M 5.5527344 4.1308594 L 5.5527344 5.8417969 L 9.7792969 5.8417969 L 9.7792969 5.9628906 L 6.15625 12.863281 L 8.4804688 12.863281 L 12 5.8476562 L 12 4.1308594 L 5.5527344 4.1308594 z M 17.5 5.6054688 C 18.346 5.6054687 18.914062 6.5615156 18.914062 8.4785156 C 18.914062 10.407516 18.346 11.394531 17.5 11.394531 C 16.654 11.394531 16.091797 10.408516 16.091797 8.4785156 C 16.091797 6.5615156 16.654 5.6054688 17.5 5.6054688 z M 24.996094 6.8984375 C 23.583094 6.8984375 22.639625 7.6473906 22.640625 8.7753906 C 22.640625 9.6913906 23.173437 10.241141 24.273438 10.494141 L 25.302734 10.736328 C 25.800734 10.849328 26.015625 11.027359 26.015625 11.318359 C 26.015625 11.701359 25.614203 11.955078 25.033203 11.955078 C 24.437203 11.955078 24.073937 11.722359 23.960938 11.318359 L 22.501953 11.318359 C 22.604953 12.461359 23.508906 13.103516 25.003906 13.103516 C 26.488906 13.103516 27.501953 12.326625 27.501953 11.140625 C 27.501953 10.250625 27.008203 9.7666719 25.908203 9.5136719 L 24.84375 9.2695312 C 24.31975 9.1455312 24.078125 8.9687344 24.078125 8.6777344 C 24.078125 8.2997344 24.473813 8.046875 25.007812 8.046875 C 25.562812 8.046875 25.907375 8.2830156 25.984375 8.6660156 L 27.365234 8.6660156 C 27.283234 7.5290156 26.435094 6.8984375 24.996094 6.8984375 z M 3 15 C 3 21.627 8.373 27 15 27 C 21.627 27 27 21.627 27 15 L 20 15 C 20 17.757 17.757 20 15 20 C 12.243 20 10 17.757 10 15 L 3 15 z M 14 15 C 14 15.552 14.448 16 15 16 C 15.552 16 16 15.552 16 15 L 14 15 z"/></svg>